M48
; DRILL file {KiCad 8.0.4} date 2024-09-05T11:58:58-0400
; FORMAT={-:-/ absolute / inch / decimal}
; #@! TF.CreationDate,2024-09-05T11:58:58-04:00
; #@! TF.GenerationSoftware,Kicad,Pcbnew,8.0.4
; #@! TF.FileFunction,Plated,1,4,PTH
FMAT,2
INCH
; #@! TA.AperFunction,Plated,PTH,ViaDrill
T1C0.0100
; #@! TA.AperFunction,Plated,PTH,ComponentDrill
T2C0.0402
%
G90
G05
T1
X0.04Y0.2
X0.06Y1.63
X0.06Y0.43
X0.1Y0.35
X0.1Y0.09
X0.13Y0.21
X0.17Y0.09
X0.25Y1.49
X0.25Y1.43
X0.25Y1.37
X0.25Y1.31
X0.26Y1.55
X0.26Y0.23
X0.31Y0.41
X0.32Y1.37
X0.32Y1.31
X0.36Y1.51
X0.36Y1.46
X0.36Y1.41
X0.36Y1.36
X0.43Y0.77
X0.43Y0.41
X0.46Y1.63
X0.46Y0.83
X0.46Y0.03
X0.52Y0.68
X0.53Y0.38
X0.58Y0.68
X0.6Y0.32
X0.66Y1.03
X0.66Y0.32
X0.66Y0.23
X0.75Y0.62
X0.77Y0.48
X0.81Y0.44
X0.86Y1.63
X0.86Y1.23
X0.86Y0.83
X0.86Y0.43
X0.86Y0.03
X0.94Y0.4
X0.98Y0.64
X1.06Y0.23
X1.14Y1.46
X1.14Y1.41
X1.2Y0.35
X1.24Y0.27
X1.26Y0.03
X1.28Y1.47
X1.28Y1.14
X1.34Y1.45
X1.4Y0.43
X1.46Y0.63
X1.62Y1.49
X1.66Y1.63
X1.66Y1.23
X1.66Y0.83
X1.66Y0.03
X1.68Y1.45
X1.86Y1.43
X1.88Y0.19
T2
X0.07Y1.22
X0.07Y1.12
X0.07Y1.02
X0.07Y0.92
X0.07Y0.82
X0.07Y0.72
X0.07Y0.62
X0.07Y0.52
X0.17Y1.22
X0.17Y1.12
X0.17Y1.02
X0.17Y0.92
X0.17Y0.82
X0.17Y0.72
X0.17Y0.62
X0.17Y0.52
X0.27Y1.22
X0.27Y1.12
X0.27Y1.02
X0.27Y0.92
X0.27Y0.82
X0.27Y0.72
X0.27Y0.62
X0.27Y0.52
X0.31Y0.17
X0.31Y0.07
M30
