%TF.GenerationSoftware,KiCad,Pcbnew,8.0.4*%
%TF.CreationDate,2024-09-05T11:58:49-04:00*%
%TF.ProjectId,ESP32-RC_R0,45535033-322d-4524-935f-52302e6b6963,0*%
%TF.SameCoordinates,PX6dbb4f0PY6d3f490*%
%TF.FileFunction,Legend,Top*%
%TF.FilePolarity,Positive*%
%FSLAX46Y46*%
G04 Gerber Fmt 4.6, Leading zero omitted, Abs format (unit mm)*
G04 Created by KiCad (PCBNEW 8.0.4) date 2024-09-05 11:58:49*
%MOMM*%
%LPD*%
G01*
G04 APERTURE LIST*
%ADD10C,0.100000*%
%ADD11C,0.150000*%
%ADD12C,0.300000*%
%ADD13C,0.400000*%
%ADD14C,0.177800*%
%ADD15C,0.000000*%
%ADD16C,0.200000*%
G04 APERTURE END LIST*
D10*
D11*
X44338000Y-57346000D02*
X152338000Y-57346000D01*
X152338000Y-89346000D01*
X44338000Y-89346000D01*
X44338000Y-57346000D01*
D10*
D11*
X-105062000Y104554000D02*
X154338000Y104554000D01*
X154338000Y-91346000D01*
X-105062000Y-91346000D01*
X-105062000Y104554000D01*
D10*
D11*
X-103062000Y102554000D02*
X152338000Y102554000D01*
X152338000Y-89346000D01*
X-103062000Y-89346000D01*
X-103062000Y102554000D01*
D10*
D11*
X-55062000Y102554000D02*
X-55062000Y104554000D01*
D10*
D11*
X-5062000Y102554000D02*
X-5062000Y104554000D01*
D10*
D11*
X44938000Y102554000D02*
X44938000Y104554000D01*
D10*
D11*
X94938000Y102554000D02*
X94938000Y104554000D01*
D10*
D11*
X144938000Y102554000D02*
X144938000Y104554000D01*
D10*
D11*
X-78972840Y102960396D02*
X-79715697Y102960396D01*
X-79344269Y102960396D02*
X-79344269Y104260396D01*
X-79344269Y104260396D02*
X-79468078Y104074681D01*
X-79468078Y104074681D02*
X-79591888Y103950872D01*
X-79591888Y103950872D02*
X-79715697Y103888967D01*
D10*
D11*
X-29715697Y104136586D02*
X-29653793Y104198491D01*
X-29653793Y104198491D02*
X-29529983Y104260396D01*
X-29529983Y104260396D02*
X-29220459Y104260396D01*
X-29220459Y104260396D02*
X-29096650Y104198491D01*
X-29096650Y104198491D02*
X-29034745Y104136586D01*
X-29034745Y104136586D02*
X-28972840Y104012777D01*
X-28972840Y104012777D02*
X-28972840Y103888967D01*
X-28972840Y103888967D02*
X-29034745Y103703253D01*
X-29034745Y103703253D02*
X-29777602Y102960396D01*
X-29777602Y102960396D02*
X-28972840Y102960396D01*
D10*
D11*
X20222398Y104260396D02*
X21027160Y104260396D01*
X21027160Y104260396D02*
X20593826Y103765158D01*
X20593826Y103765158D02*
X20779541Y103765158D01*
X20779541Y103765158D02*
X20903350Y103703253D01*
X20903350Y103703253D02*
X20965255Y103641348D01*
X20965255Y103641348D02*
X21027160Y103517539D01*
X21027160Y103517539D02*
X21027160Y103208015D01*
X21027160Y103208015D02*
X20965255Y103084205D01*
X20965255Y103084205D02*
X20903350Y103022300D01*
X20903350Y103022300D02*
X20779541Y102960396D01*
X20779541Y102960396D02*
X20408112Y102960396D01*
X20408112Y102960396D02*
X20284303Y103022300D01*
X20284303Y103022300D02*
X20222398Y103084205D01*
D10*
D11*
X70903350Y103827062D02*
X70903350Y102960396D01*
X70593826Y104322300D02*
X70284303Y103393729D01*
X70284303Y103393729D02*
X71089064Y103393729D01*
D10*
D11*
X120965255Y104260396D02*
X120346207Y104260396D01*
X120346207Y104260396D02*
X120284303Y103641348D01*
X120284303Y103641348D02*
X120346207Y103703253D01*
X120346207Y103703253D02*
X120470017Y103765158D01*
X120470017Y103765158D02*
X120779541Y103765158D01*
X120779541Y103765158D02*
X120903350Y103703253D01*
X120903350Y103703253D02*
X120965255Y103641348D01*
X120965255Y103641348D02*
X121027160Y103517539D01*
X121027160Y103517539D02*
X121027160Y103208015D01*
X121027160Y103208015D02*
X120965255Y103084205D01*
X120965255Y103084205D02*
X120903350Y103022300D01*
X120903350Y103022300D02*
X120779541Y102960396D01*
X120779541Y102960396D02*
X120470017Y102960396D01*
X120470017Y102960396D02*
X120346207Y103022300D01*
X120346207Y103022300D02*
X120284303Y103084205D01*
D10*
D11*
X-55062000Y-89346000D02*
X-55062000Y-91346000D01*
D10*
D11*
X-5062000Y-89346000D02*
X-5062000Y-91346000D01*
D10*
D11*
X44938000Y-89346000D02*
X44938000Y-91346000D01*
D10*
D11*
X94938000Y-89346000D02*
X94938000Y-91346000D01*
D10*
D11*
X144938000Y-89346000D02*
X144938000Y-91346000D01*
D10*
D11*
X-78972840Y-90939604D02*
X-79715697Y-90939604D01*
X-79344269Y-90939604D02*
X-79344269Y-89639604D01*
X-79344269Y-89639604D02*
X-79468078Y-89825319D01*
X-79468078Y-89825319D02*
X-79591888Y-89949128D01*
X-79591888Y-89949128D02*
X-79715697Y-90011033D01*
D10*
D11*
X-29715697Y-89763414D02*
X-29653793Y-89701509D01*
X-29653793Y-89701509D02*
X-29529983Y-89639604D01*
X-29529983Y-89639604D02*
X-29220459Y-89639604D01*
X-29220459Y-89639604D02*
X-29096650Y-89701509D01*
X-29096650Y-89701509D02*
X-29034745Y-89763414D01*
X-29034745Y-89763414D02*
X-28972840Y-89887223D01*
X-28972840Y-89887223D02*
X-28972840Y-90011033D01*
X-28972840Y-90011033D02*
X-29034745Y-90196747D01*
X-29034745Y-90196747D02*
X-29777602Y-90939604D01*
X-29777602Y-90939604D02*
X-28972840Y-90939604D01*
D10*
D11*
X20222398Y-89639604D02*
X21027160Y-89639604D01*
X21027160Y-89639604D02*
X20593826Y-90134842D01*
X20593826Y-90134842D02*
X20779541Y-90134842D01*
X20779541Y-90134842D02*
X20903350Y-90196747D01*
X20903350Y-90196747D02*
X20965255Y-90258652D01*
X20965255Y-90258652D02*
X21027160Y-90382461D01*
X21027160Y-90382461D02*
X21027160Y-90691985D01*
X21027160Y-90691985D02*
X20965255Y-90815795D01*
X20965255Y-90815795D02*
X20903350Y-90877700D01*
X20903350Y-90877700D02*
X20779541Y-90939604D01*
X20779541Y-90939604D02*
X20408112Y-90939604D01*
X20408112Y-90939604D02*
X20284303Y-90877700D01*
X20284303Y-90877700D02*
X20222398Y-90815795D01*
D10*
D11*
X70903350Y-90072938D02*
X70903350Y-90939604D01*
X70593826Y-89577700D02*
X70284303Y-90506271D01*
X70284303Y-90506271D02*
X71089064Y-90506271D01*
D10*
D11*
X120965255Y-89639604D02*
X120346207Y-89639604D01*
X120346207Y-89639604D02*
X120284303Y-90258652D01*
X120284303Y-90258652D02*
X120346207Y-90196747D01*
X120346207Y-90196747D02*
X120470017Y-90134842D01*
X120470017Y-90134842D02*
X120779541Y-90134842D01*
X120779541Y-90134842D02*
X120903350Y-90196747D01*
X120903350Y-90196747D02*
X120965255Y-90258652D01*
X120965255Y-90258652D02*
X121027160Y-90382461D01*
X121027160Y-90382461D02*
X121027160Y-90691985D01*
X121027160Y-90691985D02*
X120965255Y-90815795D01*
X120965255Y-90815795D02*
X120903350Y-90877700D01*
X120903350Y-90877700D02*
X120779541Y-90939604D01*
X120779541Y-90939604D02*
X120470017Y-90939604D01*
X120470017Y-90939604D02*
X120346207Y-90877700D01*
X120346207Y-90877700D02*
X120284303Y-90815795D01*
D10*
D11*
X-105062000Y54554000D02*
X-103062000Y54554000D01*
D10*
D11*
X-105062000Y4554000D02*
X-103062000Y4554000D01*
D10*
D11*
X-105062000Y-45446000D02*
X-103062000Y-45446000D01*
D10*
D11*
X-104371524Y79331824D02*
X-103752477Y79331824D01*
X-104495334Y78960396D02*
X-104062001Y80260396D01*
X-104062001Y80260396D02*
X-103628667Y78960396D01*
D10*
D11*
X-103969143Y29641348D02*
X-103783429Y29579443D01*
X-103783429Y29579443D02*
X-103721524Y29517539D01*
X-103721524Y29517539D02*
X-103659620Y29393729D01*
X-103659620Y29393729D02*
X-103659620Y29208015D01*
X-103659620Y29208015D02*
X-103721524Y29084205D01*
X-103721524Y29084205D02*
X-103783429Y29022300D01*
X-103783429Y29022300D02*
X-103907239Y28960396D01*
X-103907239Y28960396D02*
X-104402477Y28960396D01*
X-104402477Y28960396D02*
X-104402477Y30260396D01*
X-104402477Y30260396D02*
X-103969143Y30260396D01*
X-103969143Y30260396D02*
X-103845334Y30198491D01*
X-103845334Y30198491D02*
X-103783429Y30136586D01*
X-103783429Y30136586D02*
X-103721524Y30012777D01*
X-103721524Y30012777D02*
X-103721524Y29888967D01*
X-103721524Y29888967D02*
X-103783429Y29765158D01*
X-103783429Y29765158D02*
X-103845334Y29703253D01*
X-103845334Y29703253D02*
X-103969143Y29641348D01*
X-103969143Y29641348D02*
X-104402477Y29641348D01*
D10*
D11*
X-103659620Y-20915795D02*
X-103721524Y-20977700D01*
X-103721524Y-20977700D02*
X-103907239Y-21039604D01*
X-103907239Y-21039604D02*
X-104031048Y-21039604D01*
X-104031048Y-21039604D02*
X-104216762Y-20977700D01*
X-104216762Y-20977700D02*
X-104340572Y-20853890D01*
X-104340572Y-20853890D02*
X-104402477Y-20730080D01*
X-104402477Y-20730080D02*
X-104464381Y-20482461D01*
X-104464381Y-20482461D02*
X-104464381Y-20296747D01*
X-104464381Y-20296747D02*
X-104402477Y-20049128D01*
X-104402477Y-20049128D02*
X-104340572Y-19925319D01*
X-104340572Y-19925319D02*
X-104216762Y-19801509D01*
X-104216762Y-19801509D02*
X-104031048Y-19739604D01*
X-104031048Y-19739604D02*
X-103907239Y-19739604D01*
X-103907239Y-19739604D02*
X-103721524Y-19801509D01*
X-103721524Y-19801509D02*
X-103659620Y-19863414D01*
D10*
D11*
X-104402477Y-71039604D02*
X-104402477Y-69739604D01*
X-104402477Y-69739604D02*
X-104092953Y-69739604D01*
X-104092953Y-69739604D02*
X-103907239Y-69801509D01*
X-103907239Y-69801509D02*
X-103783429Y-69925319D01*
X-103783429Y-69925319D02*
X-103721524Y-70049128D01*
X-103721524Y-70049128D02*
X-103659620Y-70296747D01*
X-103659620Y-70296747D02*
X-103659620Y-70482461D01*
X-103659620Y-70482461D02*
X-103721524Y-70730080D01*
X-103721524Y-70730080D02*
X-103783429Y-70853890D01*
X-103783429Y-70853890D02*
X-103907239Y-70977700D01*
X-103907239Y-70977700D02*
X-104092953Y-71039604D01*
X-104092953Y-71039604D02*
X-104402477Y-71039604D01*
D10*
D11*
X154338000Y54554000D02*
X152338000Y54554000D01*
D10*
D11*
X154338000Y4554000D02*
X152338000Y4554000D01*
D10*
D11*
X154338000Y-45446000D02*
X152338000Y-45446000D01*
D10*
D11*
X153028476Y79331824D02*
X153647523Y79331824D01*
X152904666Y78960396D02*
X153337999Y80260396D01*
X153337999Y80260396D02*
X153771333Y78960396D01*
D10*
D11*
X153430857Y29641348D02*
X153616571Y29579443D01*
X153616571Y29579443D02*
X153678476Y29517539D01*
X153678476Y29517539D02*
X153740380Y29393729D01*
X153740380Y29393729D02*
X153740380Y29208015D01*
X153740380Y29208015D02*
X153678476Y29084205D01*
X153678476Y29084205D02*
X153616571Y29022300D01*
X153616571Y29022300D02*
X153492761Y28960396D01*
X153492761Y28960396D02*
X152997523Y28960396D01*
X152997523Y28960396D02*
X152997523Y30260396D01*
X152997523Y30260396D02*
X153430857Y30260396D01*
X153430857Y30260396D02*
X153554666Y30198491D01*
X153554666Y30198491D02*
X153616571Y30136586D01*
X153616571Y30136586D02*
X153678476Y30012777D01*
X153678476Y30012777D02*
X153678476Y29888967D01*
X153678476Y29888967D02*
X153616571Y29765158D01*
X153616571Y29765158D02*
X153554666Y29703253D01*
X153554666Y29703253D02*
X153430857Y29641348D01*
X153430857Y29641348D02*
X152997523Y29641348D01*
D10*
D11*
X153740380Y-20915795D02*
X153678476Y-20977700D01*
X153678476Y-20977700D02*
X153492761Y-21039604D01*
X153492761Y-21039604D02*
X153368952Y-21039604D01*
X153368952Y-21039604D02*
X153183238Y-20977700D01*
X153183238Y-20977700D02*
X153059428Y-20853890D01*
X153059428Y-20853890D02*
X152997523Y-20730080D01*
X152997523Y-20730080D02*
X152935619Y-20482461D01*
X152935619Y-20482461D02*
X152935619Y-20296747D01*
X152935619Y-20296747D02*
X152997523Y-20049128D01*
X152997523Y-20049128D02*
X153059428Y-19925319D01*
X153059428Y-19925319D02*
X153183238Y-19801509D01*
X153183238Y-19801509D02*
X153368952Y-19739604D01*
X153368952Y-19739604D02*
X153492761Y-19739604D01*
X153492761Y-19739604D02*
X153678476Y-19801509D01*
X153678476Y-19801509D02*
X153740380Y-19863414D01*
D10*
D11*
X152997523Y-71039604D02*
X152997523Y-69739604D01*
X152997523Y-69739604D02*
X153307047Y-69739604D01*
X153307047Y-69739604D02*
X153492761Y-69801509D01*
X153492761Y-69801509D02*
X153616571Y-69925319D01*
X153616571Y-69925319D02*
X153678476Y-70049128D01*
X153678476Y-70049128D02*
X153740380Y-70296747D01*
X153740380Y-70296747D02*
X153740380Y-70482461D01*
X153740380Y-70482461D02*
X153678476Y-70730080D01*
X153678476Y-70730080D02*
X153616571Y-70853890D01*
X153616571Y-70853890D02*
X153492761Y-70977700D01*
X153492761Y-70977700D02*
X153307047Y-71039604D01*
X153307047Y-71039604D02*
X152997523Y-71039604D01*
D10*
D11*
X67793826Y-85132128D02*
X67793826Y-83632128D01*
X67793826Y-83632128D02*
X68150969Y-83632128D01*
X68150969Y-83632128D02*
X68365255Y-83703557D01*
X68365255Y-83703557D02*
X68508112Y-83846414D01*
X68508112Y-83846414D02*
X68579541Y-83989271D01*
X68579541Y-83989271D02*
X68650969Y-84274985D01*
X68650969Y-84274985D02*
X68650969Y-84489271D01*
X68650969Y-84489271D02*
X68579541Y-84774985D01*
X68579541Y-84774985D02*
X68508112Y-84917842D01*
X68508112Y-84917842D02*
X68365255Y-85060700D01*
X68365255Y-85060700D02*
X68150969Y-85132128D01*
X68150969Y-85132128D02*
X67793826Y-85132128D01*
X69936684Y-85132128D02*
X69936684Y-84346414D01*
X69936684Y-84346414D02*
X69865255Y-84203557D01*
X69865255Y-84203557D02*
X69722398Y-84132128D01*
X69722398Y-84132128D02*
X69436684Y-84132128D01*
X69436684Y-84132128D02*
X69293826Y-84203557D01*
X69936684Y-85060700D02*
X69793826Y-85132128D01*
X69793826Y-85132128D02*
X69436684Y-85132128D01*
X69436684Y-85132128D02*
X69293826Y-85060700D01*
X69293826Y-85060700D02*
X69222398Y-84917842D01*
X69222398Y-84917842D02*
X69222398Y-84774985D01*
X69222398Y-84774985D02*
X69293826Y-84632128D01*
X69293826Y-84632128D02*
X69436684Y-84560700D01*
X69436684Y-84560700D02*
X69793826Y-84560700D01*
X69793826Y-84560700D02*
X69936684Y-84489271D01*
X70436684Y-84132128D02*
X71008112Y-84132128D01*
X70650969Y-83632128D02*
X70650969Y-84917842D01*
X70650969Y-84917842D02*
X70722398Y-85060700D01*
X70722398Y-85060700D02*
X70865255Y-85132128D01*
X70865255Y-85132128D02*
X71008112Y-85132128D01*
X72079541Y-85060700D02*
X71936684Y-85132128D01*
X71936684Y-85132128D02*
X71650970Y-85132128D01*
X71650970Y-85132128D02*
X71508112Y-85060700D01*
X71508112Y-85060700D02*
X71436684Y-84917842D01*
X71436684Y-84917842D02*
X71436684Y-84346414D01*
X71436684Y-84346414D02*
X71508112Y-84203557D01*
X71508112Y-84203557D02*
X71650970Y-84132128D01*
X71650970Y-84132128D02*
X71936684Y-84132128D01*
X71936684Y-84132128D02*
X72079541Y-84203557D01*
X72079541Y-84203557D02*
X72150970Y-84346414D01*
X72150970Y-84346414D02*
X72150970Y-84489271D01*
X72150970Y-84489271D02*
X71436684Y-84632128D01*
X72793826Y-84989271D02*
X72865255Y-85060700D01*
X72865255Y-85060700D02*
X72793826Y-85132128D01*
X72793826Y-85132128D02*
X72722398Y-85060700D01*
X72722398Y-85060700D02*
X72793826Y-84989271D01*
X72793826Y-84989271D02*
X72793826Y-85132128D01*
X72793826Y-84203557D02*
X72865255Y-84274985D01*
X72865255Y-84274985D02*
X72793826Y-84346414D01*
X72793826Y-84346414D02*
X72722398Y-84274985D01*
X72722398Y-84274985D02*
X72793826Y-84203557D01*
X72793826Y-84203557D02*
X72793826Y-84346414D01*
X74579541Y-83774985D02*
X74650969Y-83703557D01*
X74650969Y-83703557D02*
X74793827Y-83632128D01*
X74793827Y-83632128D02*
X75150969Y-83632128D01*
X75150969Y-83632128D02*
X75293827Y-83703557D01*
X75293827Y-83703557D02*
X75365255Y-83774985D01*
X75365255Y-83774985D02*
X75436684Y-83917842D01*
X75436684Y-83917842D02*
X75436684Y-84060700D01*
X75436684Y-84060700D02*
X75365255Y-84274985D01*
X75365255Y-84274985D02*
X74508112Y-85132128D01*
X74508112Y-85132128D02*
X75436684Y-85132128D01*
X76365255Y-83632128D02*
X76508112Y-83632128D01*
X76508112Y-83632128D02*
X76650969Y-83703557D01*
X76650969Y-83703557D02*
X76722398Y-83774985D01*
X76722398Y-83774985D02*
X76793826Y-83917842D01*
X76793826Y-83917842D02*
X76865255Y-84203557D01*
X76865255Y-84203557D02*
X76865255Y-84560700D01*
X76865255Y-84560700D02*
X76793826Y-84846414D01*
X76793826Y-84846414D02*
X76722398Y-84989271D01*
X76722398Y-84989271D02*
X76650969Y-85060700D01*
X76650969Y-85060700D02*
X76508112Y-85132128D01*
X76508112Y-85132128D02*
X76365255Y-85132128D01*
X76365255Y-85132128D02*
X76222398Y-85060700D01*
X76222398Y-85060700D02*
X76150969Y-84989271D01*
X76150969Y-84989271D02*
X76079540Y-84846414D01*
X76079540Y-84846414D02*
X76008112Y-84560700D01*
X76008112Y-84560700D02*
X76008112Y-84203557D01*
X76008112Y-84203557D02*
X76079540Y-83917842D01*
X76079540Y-83917842D02*
X76150969Y-83774985D01*
X76150969Y-83774985D02*
X76222398Y-83703557D01*
X76222398Y-83703557D02*
X76365255Y-83632128D01*
X77436683Y-83774985D02*
X77508111Y-83703557D01*
X77508111Y-83703557D02*
X77650969Y-83632128D01*
X77650969Y-83632128D02*
X78008111Y-83632128D01*
X78008111Y-83632128D02*
X78150969Y-83703557D01*
X78150969Y-83703557D02*
X78222397Y-83774985D01*
X78222397Y-83774985D02*
X78293826Y-83917842D01*
X78293826Y-83917842D02*
X78293826Y-84060700D01*
X78293826Y-84060700D02*
X78222397Y-84274985D01*
X78222397Y-84274985D02*
X77365254Y-85132128D01*
X77365254Y-85132128D02*
X78293826Y-85132128D01*
X79579540Y-84132128D02*
X79579540Y-85132128D01*
X79222397Y-83560700D02*
X78865254Y-84632128D01*
X78865254Y-84632128D02*
X79793825Y-84632128D01*
X80365253Y-84560700D02*
X81508111Y-84560700D01*
X82508111Y-83632128D02*
X82650968Y-83632128D01*
X82650968Y-83632128D02*
X82793825Y-83703557D01*
X82793825Y-83703557D02*
X82865254Y-83774985D01*
X82865254Y-83774985D02*
X82936682Y-83917842D01*
X82936682Y-83917842D02*
X83008111Y-84203557D01*
X83008111Y-84203557D02*
X83008111Y-84560700D01*
X83008111Y-84560700D02*
X82936682Y-84846414D01*
X82936682Y-84846414D02*
X82865254Y-84989271D01*
X82865254Y-84989271D02*
X82793825Y-85060700D01*
X82793825Y-85060700D02*
X82650968Y-85132128D01*
X82650968Y-85132128D02*
X82508111Y-85132128D01*
X82508111Y-85132128D02*
X82365254Y-85060700D01*
X82365254Y-85060700D02*
X82293825Y-84989271D01*
X82293825Y-84989271D02*
X82222396Y-84846414D01*
X82222396Y-84846414D02*
X82150968Y-84560700D01*
X82150968Y-84560700D02*
X82150968Y-84203557D01*
X82150968Y-84203557D02*
X82222396Y-83917842D01*
X82222396Y-83917842D02*
X82293825Y-83774985D01*
X82293825Y-83774985D02*
X82365254Y-83703557D01*
X82365254Y-83703557D02*
X82508111Y-83632128D01*
X83865253Y-84274985D02*
X83722396Y-84203557D01*
X83722396Y-84203557D02*
X83650967Y-84132128D01*
X83650967Y-84132128D02*
X83579539Y-83989271D01*
X83579539Y-83989271D02*
X83579539Y-83917842D01*
X83579539Y-83917842D02*
X83650967Y-83774985D01*
X83650967Y-83774985D02*
X83722396Y-83703557D01*
X83722396Y-83703557D02*
X83865253Y-83632128D01*
X83865253Y-83632128D02*
X84150967Y-83632128D01*
X84150967Y-83632128D02*
X84293825Y-83703557D01*
X84293825Y-83703557D02*
X84365253Y-83774985D01*
X84365253Y-83774985D02*
X84436682Y-83917842D01*
X84436682Y-83917842D02*
X84436682Y-83989271D01*
X84436682Y-83989271D02*
X84365253Y-84132128D01*
X84365253Y-84132128D02*
X84293825Y-84203557D01*
X84293825Y-84203557D02*
X84150967Y-84274985D01*
X84150967Y-84274985D02*
X83865253Y-84274985D01*
X83865253Y-84274985D02*
X83722396Y-84346414D01*
X83722396Y-84346414D02*
X83650967Y-84417842D01*
X83650967Y-84417842D02*
X83579539Y-84560700D01*
X83579539Y-84560700D02*
X83579539Y-84846414D01*
X83579539Y-84846414D02*
X83650967Y-84989271D01*
X83650967Y-84989271D02*
X83722396Y-85060700D01*
X83722396Y-85060700D02*
X83865253Y-85132128D01*
X83865253Y-85132128D02*
X84150967Y-85132128D01*
X84150967Y-85132128D02*
X84293825Y-85060700D01*
X84293825Y-85060700D02*
X84365253Y-84989271D01*
X84365253Y-84989271D02*
X84436682Y-84846414D01*
X84436682Y-84846414D02*
X84436682Y-84560700D01*
X84436682Y-84560700D02*
X84365253Y-84417842D01*
X84365253Y-84417842D02*
X84293825Y-84346414D01*
X84293825Y-84346414D02*
X84150967Y-84274985D01*
X85079538Y-84560700D02*
X86222396Y-84560700D01*
X86793824Y-83632128D02*
X87722396Y-83632128D01*
X87722396Y-83632128D02*
X87222396Y-84203557D01*
X87222396Y-84203557D02*
X87436681Y-84203557D01*
X87436681Y-84203557D02*
X87579539Y-84274985D01*
X87579539Y-84274985D02*
X87650967Y-84346414D01*
X87650967Y-84346414D02*
X87722396Y-84489271D01*
X87722396Y-84489271D02*
X87722396Y-84846414D01*
X87722396Y-84846414D02*
X87650967Y-84989271D01*
X87650967Y-84989271D02*
X87579539Y-85060700D01*
X87579539Y-85060700D02*
X87436681Y-85132128D01*
X87436681Y-85132128D02*
X87008110Y-85132128D01*
X87008110Y-85132128D02*
X86865253Y-85060700D01*
X86865253Y-85060700D02*
X86793824Y-84989271D01*
X88650967Y-83632128D02*
X88793824Y-83632128D01*
X88793824Y-83632128D02*
X88936681Y-83703557D01*
X88936681Y-83703557D02*
X89008110Y-83774985D01*
X89008110Y-83774985D02*
X89079538Y-83917842D01*
X89079538Y-83917842D02*
X89150967Y-84203557D01*
X89150967Y-84203557D02*
X89150967Y-84560700D01*
X89150967Y-84560700D02*
X89079538Y-84846414D01*
X89079538Y-84846414D02*
X89008110Y-84989271D01*
X89008110Y-84989271D02*
X88936681Y-85060700D01*
X88936681Y-85060700D02*
X88793824Y-85132128D01*
X88793824Y-85132128D02*
X88650967Y-85132128D01*
X88650967Y-85132128D02*
X88508110Y-85060700D01*
X88508110Y-85060700D02*
X88436681Y-84989271D01*
X88436681Y-84989271D02*
X88365252Y-84846414D01*
X88365252Y-84846414D02*
X88293824Y-84560700D01*
X88293824Y-84560700D02*
X88293824Y-84203557D01*
X88293824Y-84203557D02*
X88365252Y-83917842D01*
X88365252Y-83917842D02*
X88436681Y-83774985D01*
X88436681Y-83774985D02*
X88508110Y-83703557D01*
X88508110Y-83703557D02*
X88650967Y-83632128D01*
D10*
D11*
X44338000Y-85846000D02*
X152338000Y-85846000D01*
D10*
D11*
X45793826Y-87932128D02*
X45793826Y-86432128D01*
X46650969Y-87932128D02*
X46008112Y-87074985D01*
X46650969Y-86432128D02*
X45793826Y-87289271D01*
X47293826Y-87932128D02*
X47293826Y-86932128D01*
X47293826Y-86432128D02*
X47222398Y-86503557D01*
X47222398Y-86503557D02*
X47293826Y-86574985D01*
X47293826Y-86574985D02*
X47365255Y-86503557D01*
X47365255Y-86503557D02*
X47293826Y-86432128D01*
X47293826Y-86432128D02*
X47293826Y-86574985D01*
X48865255Y-87789271D02*
X48793827Y-87860700D01*
X48793827Y-87860700D02*
X48579541Y-87932128D01*
X48579541Y-87932128D02*
X48436684Y-87932128D01*
X48436684Y-87932128D02*
X48222398Y-87860700D01*
X48222398Y-87860700D02*
X48079541Y-87717842D01*
X48079541Y-87717842D02*
X48008112Y-87574985D01*
X48008112Y-87574985D02*
X47936684Y-87289271D01*
X47936684Y-87289271D02*
X47936684Y-87074985D01*
X47936684Y-87074985D02*
X48008112Y-86789271D01*
X48008112Y-86789271D02*
X48079541Y-86646414D01*
X48079541Y-86646414D02*
X48222398Y-86503557D01*
X48222398Y-86503557D02*
X48436684Y-86432128D01*
X48436684Y-86432128D02*
X48579541Y-86432128D01*
X48579541Y-86432128D02*
X48793827Y-86503557D01*
X48793827Y-86503557D02*
X48865255Y-86574985D01*
X50150970Y-87932128D02*
X50150970Y-87146414D01*
X50150970Y-87146414D02*
X50079541Y-87003557D01*
X50079541Y-87003557D02*
X49936684Y-86932128D01*
X49936684Y-86932128D02*
X49650970Y-86932128D01*
X49650970Y-86932128D02*
X49508112Y-87003557D01*
X50150970Y-87860700D02*
X50008112Y-87932128D01*
X50008112Y-87932128D02*
X49650970Y-87932128D01*
X49650970Y-87932128D02*
X49508112Y-87860700D01*
X49508112Y-87860700D02*
X49436684Y-87717842D01*
X49436684Y-87717842D02*
X49436684Y-87574985D01*
X49436684Y-87574985D02*
X49508112Y-87432128D01*
X49508112Y-87432128D02*
X49650970Y-87360700D01*
X49650970Y-87360700D02*
X50008112Y-87360700D01*
X50008112Y-87360700D02*
X50150970Y-87289271D01*
X51508113Y-87932128D02*
X51508113Y-86432128D01*
X51508113Y-87860700D02*
X51365255Y-87932128D01*
X51365255Y-87932128D02*
X51079541Y-87932128D01*
X51079541Y-87932128D02*
X50936684Y-87860700D01*
X50936684Y-87860700D02*
X50865255Y-87789271D01*
X50865255Y-87789271D02*
X50793827Y-87646414D01*
X50793827Y-87646414D02*
X50793827Y-87217842D01*
X50793827Y-87217842D02*
X50865255Y-87074985D01*
X50865255Y-87074985D02*
X50936684Y-87003557D01*
X50936684Y-87003557D02*
X51079541Y-86932128D01*
X51079541Y-86932128D02*
X51365255Y-86932128D01*
X51365255Y-86932128D02*
X51508113Y-87003557D01*
X53365255Y-87146414D02*
X53865255Y-87146414D01*
X54079541Y-87932128D02*
X53365255Y-87932128D01*
X53365255Y-87932128D02*
X53365255Y-86432128D01*
X53365255Y-86432128D02*
X54079541Y-86432128D01*
X54722398Y-87789271D02*
X54793827Y-87860700D01*
X54793827Y-87860700D02*
X54722398Y-87932128D01*
X54722398Y-87932128D02*
X54650970Y-87860700D01*
X54650970Y-87860700D02*
X54722398Y-87789271D01*
X54722398Y-87789271D02*
X54722398Y-87932128D01*
X55436684Y-87932128D02*
X55436684Y-86432128D01*
X55436684Y-86432128D02*
X55793827Y-86432128D01*
X55793827Y-86432128D02*
X56008113Y-86503557D01*
X56008113Y-86503557D02*
X56150970Y-86646414D01*
X56150970Y-86646414D02*
X56222399Y-86789271D01*
X56222399Y-86789271D02*
X56293827Y-87074985D01*
X56293827Y-87074985D02*
X56293827Y-87289271D01*
X56293827Y-87289271D02*
X56222399Y-87574985D01*
X56222399Y-87574985D02*
X56150970Y-87717842D01*
X56150970Y-87717842D02*
X56008113Y-87860700D01*
X56008113Y-87860700D02*
X55793827Y-87932128D01*
X55793827Y-87932128D02*
X55436684Y-87932128D01*
X56936684Y-87789271D02*
X57008113Y-87860700D01*
X57008113Y-87860700D02*
X56936684Y-87932128D01*
X56936684Y-87932128D02*
X56865256Y-87860700D01*
X56865256Y-87860700D02*
X56936684Y-87789271D01*
X56936684Y-87789271D02*
X56936684Y-87932128D01*
X57579542Y-87503557D02*
X58293828Y-87503557D01*
X57436685Y-87932128D02*
X57936685Y-86432128D01*
X57936685Y-86432128D02*
X58436685Y-87932128D01*
X58936684Y-87789271D02*
X59008113Y-87860700D01*
X59008113Y-87860700D02*
X58936684Y-87932128D01*
X58936684Y-87932128D02*
X58865256Y-87860700D01*
X58865256Y-87860700D02*
X58936684Y-87789271D01*
X58936684Y-87789271D02*
X58936684Y-87932128D01*
X61008113Y-87074985D02*
X60865256Y-87003557D01*
X60865256Y-87003557D02*
X60793827Y-86932128D01*
X60793827Y-86932128D02*
X60722399Y-86789271D01*
X60722399Y-86789271D02*
X60722399Y-86717842D01*
X60722399Y-86717842D02*
X60793827Y-86574985D01*
X60793827Y-86574985D02*
X60865256Y-86503557D01*
X60865256Y-86503557D02*
X61008113Y-86432128D01*
X61008113Y-86432128D02*
X61293827Y-86432128D01*
X61293827Y-86432128D02*
X61436685Y-86503557D01*
X61436685Y-86503557D02*
X61508113Y-86574985D01*
X61508113Y-86574985D02*
X61579542Y-86717842D01*
X61579542Y-86717842D02*
X61579542Y-86789271D01*
X61579542Y-86789271D02*
X61508113Y-86932128D01*
X61508113Y-86932128D02*
X61436685Y-87003557D01*
X61436685Y-87003557D02*
X61293827Y-87074985D01*
X61293827Y-87074985D02*
X61008113Y-87074985D01*
X61008113Y-87074985D02*
X60865256Y-87146414D01*
X60865256Y-87146414D02*
X60793827Y-87217842D01*
X60793827Y-87217842D02*
X60722399Y-87360700D01*
X60722399Y-87360700D02*
X60722399Y-87646414D01*
X60722399Y-87646414D02*
X60793827Y-87789271D01*
X60793827Y-87789271D02*
X60865256Y-87860700D01*
X60865256Y-87860700D02*
X61008113Y-87932128D01*
X61008113Y-87932128D02*
X61293827Y-87932128D01*
X61293827Y-87932128D02*
X61436685Y-87860700D01*
X61436685Y-87860700D02*
X61508113Y-87789271D01*
X61508113Y-87789271D02*
X61579542Y-87646414D01*
X61579542Y-87646414D02*
X61579542Y-87360700D01*
X61579542Y-87360700D02*
X61508113Y-87217842D01*
X61508113Y-87217842D02*
X61436685Y-87146414D01*
X61436685Y-87146414D02*
X61293827Y-87074985D01*
X62222398Y-87789271D02*
X62293827Y-87860700D01*
X62293827Y-87860700D02*
X62222398Y-87932128D01*
X62222398Y-87932128D02*
X62150970Y-87860700D01*
X62150970Y-87860700D02*
X62222398Y-87789271D01*
X62222398Y-87789271D02*
X62222398Y-87932128D01*
X63222399Y-86432128D02*
X63365256Y-86432128D01*
X63365256Y-86432128D02*
X63508113Y-86503557D01*
X63508113Y-86503557D02*
X63579542Y-86574985D01*
X63579542Y-86574985D02*
X63650970Y-86717842D01*
X63650970Y-86717842D02*
X63722399Y-87003557D01*
X63722399Y-87003557D02*
X63722399Y-87360700D01*
X63722399Y-87360700D02*
X63650970Y-87646414D01*
X63650970Y-87646414D02*
X63579542Y-87789271D01*
X63579542Y-87789271D02*
X63508113Y-87860700D01*
X63508113Y-87860700D02*
X63365256Y-87932128D01*
X63365256Y-87932128D02*
X63222399Y-87932128D01*
X63222399Y-87932128D02*
X63079542Y-87860700D01*
X63079542Y-87860700D02*
X63008113Y-87789271D01*
X63008113Y-87789271D02*
X62936684Y-87646414D01*
X62936684Y-87646414D02*
X62865256Y-87360700D01*
X62865256Y-87360700D02*
X62865256Y-87003557D01*
X62865256Y-87003557D02*
X62936684Y-86717842D01*
X62936684Y-86717842D02*
X63008113Y-86574985D01*
X63008113Y-86574985D02*
X63079542Y-86503557D01*
X63079542Y-86503557D02*
X63222399Y-86432128D01*
X64365255Y-87789271D02*
X64436684Y-87860700D01*
X64436684Y-87860700D02*
X64365255Y-87932128D01*
X64365255Y-87932128D02*
X64293827Y-87860700D01*
X64293827Y-87860700D02*
X64365255Y-87789271D01*
X64365255Y-87789271D02*
X64365255Y-87932128D01*
X65722399Y-86932128D02*
X65722399Y-87932128D01*
X65365256Y-86360700D02*
X65008113Y-87432128D01*
X65008113Y-87432128D02*
X65936684Y-87432128D01*
D10*
D11*
X44338000Y-82846000D02*
X152338000Y-82846000D01*
D10*
D12*
X131749653Y-85124328D02*
X131249653Y-84410042D01*
X130892510Y-85124328D02*
X130892510Y-83624328D01*
X130892510Y-83624328D02*
X131463939Y-83624328D01*
X131463939Y-83624328D02*
X131606796Y-83695757D01*
X131606796Y-83695757D02*
X131678225Y-83767185D01*
X131678225Y-83767185D02*
X131749653Y-83910042D01*
X131749653Y-83910042D02*
X131749653Y-84124328D01*
X131749653Y-84124328D02*
X131678225Y-84267185D01*
X131678225Y-84267185D02*
X131606796Y-84338614D01*
X131606796Y-84338614D02*
X131463939Y-84410042D01*
X131463939Y-84410042D02*
X130892510Y-84410042D01*
X132963939Y-85052900D02*
X132821082Y-85124328D01*
X132821082Y-85124328D02*
X132535368Y-85124328D01*
X132535368Y-85124328D02*
X132392510Y-85052900D01*
X132392510Y-85052900D02*
X132321082Y-84910042D01*
X132321082Y-84910042D02*
X132321082Y-84338614D01*
X132321082Y-84338614D02*
X132392510Y-84195757D01*
X132392510Y-84195757D02*
X132535368Y-84124328D01*
X132535368Y-84124328D02*
X132821082Y-84124328D01*
X132821082Y-84124328D02*
X132963939Y-84195757D01*
X132963939Y-84195757D02*
X133035368Y-84338614D01*
X133035368Y-84338614D02*
X133035368Y-84481471D01*
X133035368Y-84481471D02*
X132321082Y-84624328D01*
X133535367Y-84124328D02*
X133892510Y-85124328D01*
X133892510Y-85124328D02*
X134249653Y-84124328D01*
X134821081Y-84981471D02*
X134892510Y-85052900D01*
X134892510Y-85052900D02*
X134821081Y-85124328D01*
X134821081Y-85124328D02*
X134749653Y-85052900D01*
X134749653Y-85052900D02*
X134821081Y-84981471D01*
X134821081Y-84981471D02*
X134821081Y-85124328D01*
X134821081Y-84195757D02*
X134892510Y-84267185D01*
X134892510Y-84267185D02*
X134821081Y-84338614D01*
X134821081Y-84338614D02*
X134749653Y-84267185D01*
X134749653Y-84267185D02*
X134821081Y-84195757D01*
X134821081Y-84195757D02*
X134821081Y-84338614D01*
X136963939Y-83624328D02*
X137106796Y-83624328D01*
X137106796Y-83624328D02*
X137249653Y-83695757D01*
X137249653Y-83695757D02*
X137321082Y-83767185D01*
X137321082Y-83767185D02*
X137392510Y-83910042D01*
X137392510Y-83910042D02*
X137463939Y-84195757D01*
X137463939Y-84195757D02*
X137463939Y-84552900D01*
X137463939Y-84552900D02*
X137392510Y-84838614D01*
X137392510Y-84838614D02*
X137321082Y-84981471D01*
X137321082Y-84981471D02*
X137249653Y-85052900D01*
X137249653Y-85052900D02*
X137106796Y-85124328D01*
X137106796Y-85124328D02*
X136963939Y-85124328D01*
X136963939Y-85124328D02*
X136821082Y-85052900D01*
X136821082Y-85052900D02*
X136749653Y-84981471D01*
X136749653Y-84981471D02*
X136678224Y-84838614D01*
X136678224Y-84838614D02*
X136606796Y-84552900D01*
X136606796Y-84552900D02*
X136606796Y-84195757D01*
X136606796Y-84195757D02*
X136678224Y-83910042D01*
X136678224Y-83910042D02*
X136749653Y-83767185D01*
X136749653Y-83767185D02*
X136821082Y-83695757D01*
X136821082Y-83695757D02*
X136963939Y-83624328D01*
D10*
D11*
X45722398Y-85060700D02*
X45936684Y-85132128D01*
X45936684Y-85132128D02*
X46293826Y-85132128D01*
X46293826Y-85132128D02*
X46436684Y-85060700D01*
X46436684Y-85060700D02*
X46508112Y-84989271D01*
X46508112Y-84989271D02*
X46579541Y-84846414D01*
X46579541Y-84846414D02*
X46579541Y-84703557D01*
X46579541Y-84703557D02*
X46508112Y-84560700D01*
X46508112Y-84560700D02*
X46436684Y-84489271D01*
X46436684Y-84489271D02*
X46293826Y-84417842D01*
X46293826Y-84417842D02*
X46008112Y-84346414D01*
X46008112Y-84346414D02*
X45865255Y-84274985D01*
X45865255Y-84274985D02*
X45793826Y-84203557D01*
X45793826Y-84203557D02*
X45722398Y-84060700D01*
X45722398Y-84060700D02*
X45722398Y-83917842D01*
X45722398Y-83917842D02*
X45793826Y-83774985D01*
X45793826Y-83774985D02*
X45865255Y-83703557D01*
X45865255Y-83703557D02*
X46008112Y-83632128D01*
X46008112Y-83632128D02*
X46365255Y-83632128D01*
X46365255Y-83632128D02*
X46579541Y-83703557D01*
X47222397Y-85132128D02*
X47222397Y-84132128D01*
X47222397Y-83632128D02*
X47150969Y-83703557D01*
X47150969Y-83703557D02*
X47222397Y-83774985D01*
X47222397Y-83774985D02*
X47293826Y-83703557D01*
X47293826Y-83703557D02*
X47222397Y-83632128D01*
X47222397Y-83632128D02*
X47222397Y-83774985D01*
X47793826Y-84132128D02*
X48579541Y-84132128D01*
X48579541Y-84132128D02*
X47793826Y-85132128D01*
X47793826Y-85132128D02*
X48579541Y-85132128D01*
X49722398Y-85060700D02*
X49579541Y-85132128D01*
X49579541Y-85132128D02*
X49293827Y-85132128D01*
X49293827Y-85132128D02*
X49150969Y-85060700D01*
X49150969Y-85060700D02*
X49079541Y-84917842D01*
X49079541Y-84917842D02*
X49079541Y-84346414D01*
X49079541Y-84346414D02*
X49150969Y-84203557D01*
X49150969Y-84203557D02*
X49293827Y-84132128D01*
X49293827Y-84132128D02*
X49579541Y-84132128D01*
X49579541Y-84132128D02*
X49722398Y-84203557D01*
X49722398Y-84203557D02*
X49793827Y-84346414D01*
X49793827Y-84346414D02*
X49793827Y-84489271D01*
X49793827Y-84489271D02*
X49079541Y-84632128D01*
X50436683Y-84989271D02*
X50508112Y-85060700D01*
X50508112Y-85060700D02*
X50436683Y-85132128D01*
X50436683Y-85132128D02*
X50365255Y-85060700D01*
X50365255Y-85060700D02*
X50436683Y-84989271D01*
X50436683Y-84989271D02*
X50436683Y-85132128D01*
X50436683Y-84203557D02*
X50508112Y-84274985D01*
X50508112Y-84274985D02*
X50436683Y-84346414D01*
X50436683Y-84346414D02*
X50365255Y-84274985D01*
X50365255Y-84274985D02*
X50436683Y-84203557D01*
X50436683Y-84203557D02*
X50436683Y-84346414D01*
X52293826Y-83632128D02*
X52293826Y-84846414D01*
X52293826Y-84846414D02*
X52365255Y-84989271D01*
X52365255Y-84989271D02*
X52436684Y-85060700D01*
X52436684Y-85060700D02*
X52579541Y-85132128D01*
X52579541Y-85132128D02*
X52865255Y-85132128D01*
X52865255Y-85132128D02*
X53008112Y-85060700D01*
X53008112Y-85060700D02*
X53079541Y-84989271D01*
X53079541Y-84989271D02*
X53150969Y-84846414D01*
X53150969Y-84846414D02*
X53150969Y-83632128D01*
X53793827Y-85060700D02*
X54008113Y-85132128D01*
X54008113Y-85132128D02*
X54365255Y-85132128D01*
X54365255Y-85132128D02*
X54508113Y-85060700D01*
X54508113Y-85060700D02*
X54579541Y-84989271D01*
X54579541Y-84989271D02*
X54650970Y-84846414D01*
X54650970Y-84846414D02*
X54650970Y-84703557D01*
X54650970Y-84703557D02*
X54579541Y-84560700D01*
X54579541Y-84560700D02*
X54508113Y-84489271D01*
X54508113Y-84489271D02*
X54365255Y-84417842D01*
X54365255Y-84417842D02*
X54079541Y-84346414D01*
X54079541Y-84346414D02*
X53936684Y-84274985D01*
X53936684Y-84274985D02*
X53865255Y-84203557D01*
X53865255Y-84203557D02*
X53793827Y-84060700D01*
X53793827Y-84060700D02*
X53793827Y-83917842D01*
X53793827Y-83917842D02*
X53865255Y-83774985D01*
X53865255Y-83774985D02*
X53936684Y-83703557D01*
X53936684Y-83703557D02*
X54079541Y-83632128D01*
X54079541Y-83632128D02*
X54436684Y-83632128D01*
X54436684Y-83632128D02*
X54650970Y-83703557D01*
X56008112Y-85132128D02*
X55293826Y-85132128D01*
X55293826Y-85132128D02*
X55293826Y-83632128D01*
X57079541Y-85060700D02*
X56936684Y-85132128D01*
X56936684Y-85132128D02*
X56650970Y-85132128D01*
X56650970Y-85132128D02*
X56508112Y-85060700D01*
X56508112Y-85060700D02*
X56436684Y-84917842D01*
X56436684Y-84917842D02*
X56436684Y-84346414D01*
X56436684Y-84346414D02*
X56508112Y-84203557D01*
X56508112Y-84203557D02*
X56650970Y-84132128D01*
X56650970Y-84132128D02*
X56936684Y-84132128D01*
X56936684Y-84132128D02*
X57079541Y-84203557D01*
X57079541Y-84203557D02*
X57150970Y-84346414D01*
X57150970Y-84346414D02*
X57150970Y-84489271D01*
X57150970Y-84489271D02*
X56436684Y-84632128D01*
X57579541Y-84132128D02*
X58150969Y-84132128D01*
X57793826Y-83632128D02*
X57793826Y-84917842D01*
X57793826Y-84917842D02*
X57865255Y-85060700D01*
X57865255Y-85060700D02*
X58008112Y-85132128D01*
X58008112Y-85132128D02*
X58150969Y-85132128D01*
X58436684Y-84132128D02*
X59008112Y-84132128D01*
X58650969Y-83632128D02*
X58650969Y-84917842D01*
X58650969Y-84917842D02*
X58722398Y-85060700D01*
X58722398Y-85060700D02*
X58865255Y-85132128D01*
X58865255Y-85132128D02*
X59008112Y-85132128D01*
X60079541Y-85060700D02*
X59936684Y-85132128D01*
X59936684Y-85132128D02*
X59650970Y-85132128D01*
X59650970Y-85132128D02*
X59508112Y-85060700D01*
X59508112Y-85060700D02*
X59436684Y-84917842D01*
X59436684Y-84917842D02*
X59436684Y-84346414D01*
X59436684Y-84346414D02*
X59508112Y-84203557D01*
X59508112Y-84203557D02*
X59650970Y-84132128D01*
X59650970Y-84132128D02*
X59936684Y-84132128D01*
X59936684Y-84132128D02*
X60079541Y-84203557D01*
X60079541Y-84203557D02*
X60150970Y-84346414D01*
X60150970Y-84346414D02*
X60150970Y-84489271D01*
X60150970Y-84489271D02*
X59436684Y-84632128D01*
X60793826Y-85132128D02*
X60793826Y-84132128D01*
X60793826Y-84417842D02*
X60865255Y-84274985D01*
X60865255Y-84274985D02*
X60936684Y-84203557D01*
X60936684Y-84203557D02*
X61079541Y-84132128D01*
X61079541Y-84132128D02*
X61222398Y-84132128D01*
D10*
D11*
X130793826Y-87932128D02*
X130793826Y-86432128D01*
X132150970Y-87932128D02*
X132150970Y-86432128D01*
X132150970Y-87860700D02*
X132008112Y-87932128D01*
X132008112Y-87932128D02*
X131722398Y-87932128D01*
X131722398Y-87932128D02*
X131579541Y-87860700D01*
X131579541Y-87860700D02*
X131508112Y-87789271D01*
X131508112Y-87789271D02*
X131436684Y-87646414D01*
X131436684Y-87646414D02*
X131436684Y-87217842D01*
X131436684Y-87217842D02*
X131508112Y-87074985D01*
X131508112Y-87074985D02*
X131579541Y-87003557D01*
X131579541Y-87003557D02*
X131722398Y-86932128D01*
X131722398Y-86932128D02*
X132008112Y-86932128D01*
X132008112Y-86932128D02*
X132150970Y-87003557D01*
X132865255Y-87789271D02*
X132936684Y-87860700D01*
X132936684Y-87860700D02*
X132865255Y-87932128D01*
X132865255Y-87932128D02*
X132793827Y-87860700D01*
X132793827Y-87860700D02*
X132865255Y-87789271D01*
X132865255Y-87789271D02*
X132865255Y-87932128D01*
X132865255Y-87003557D02*
X132936684Y-87074985D01*
X132936684Y-87074985D02*
X132865255Y-87146414D01*
X132865255Y-87146414D02*
X132793827Y-87074985D01*
X132793827Y-87074985D02*
X132865255Y-87003557D01*
X132865255Y-87003557D02*
X132865255Y-87146414D01*
X135508113Y-87932128D02*
X134650970Y-87932128D01*
X135079541Y-87932128D02*
X135079541Y-86432128D01*
X135079541Y-86432128D02*
X134936684Y-86646414D01*
X134936684Y-86646414D02*
X134793827Y-86789271D01*
X134793827Y-86789271D02*
X134650970Y-86860700D01*
X137222398Y-86360700D02*
X135936684Y-88289271D01*
X138508113Y-87932128D02*
X137650970Y-87932128D01*
X138079541Y-87932128D02*
X138079541Y-86432128D01*
X138079541Y-86432128D02*
X137936684Y-86646414D01*
X137936684Y-86646414D02*
X137793827Y-86789271D01*
X137793827Y-86789271D02*
X137650970Y-86860700D01*
D10*
D11*
X44338000Y-78846000D02*
X152338000Y-78846000D01*
D10*
D13*
X46029728Y-79550438D02*
X47172585Y-79550438D01*
X46351157Y-81550438D02*
X46601157Y-79550438D01*
X47589252Y-81550438D02*
X47755919Y-80217104D01*
X47839252Y-79550438D02*
X47732109Y-79645676D01*
X47732109Y-79645676D02*
X47815443Y-79740914D01*
X47815443Y-79740914D02*
X47922586Y-79645676D01*
X47922586Y-79645676D02*
X47839252Y-79550438D01*
X47839252Y-79550438D02*
X47815443Y-79740914D01*
X48422586Y-80217104D02*
X49184490Y-80217104D01*
X48791633Y-79550438D02*
X48577348Y-81264723D01*
X48577348Y-81264723D02*
X48648776Y-81455200D01*
X48648776Y-81455200D02*
X48827348Y-81550438D01*
X48827348Y-81550438D02*
X49017824Y-81550438D01*
X49970205Y-81550438D02*
X49791633Y-81455200D01*
X49791633Y-81455200D02*
X49720205Y-81264723D01*
X49720205Y-81264723D02*
X49934490Y-79550438D01*
X51505919Y-81455200D02*
X51303538Y-81550438D01*
X51303538Y-81550438D02*
X50922585Y-81550438D01*
X50922585Y-81550438D02*
X50744014Y-81455200D01*
X50744014Y-81455200D02*
X50672585Y-81264723D01*
X50672585Y-81264723D02*
X50767824Y-80502819D01*
X50767824Y-80502819D02*
X50886871Y-80312342D01*
X50886871Y-80312342D02*
X51089252Y-80217104D01*
X51089252Y-80217104D02*
X51470204Y-80217104D01*
X51470204Y-80217104D02*
X51648776Y-80312342D01*
X51648776Y-80312342D02*
X51720204Y-80502819D01*
X51720204Y-80502819D02*
X51696395Y-80693295D01*
X51696395Y-80693295D02*
X50720204Y-80883771D01*
X52470205Y-81359961D02*
X52553538Y-81455200D01*
X52553538Y-81455200D02*
X52446395Y-81550438D01*
X52446395Y-81550438D02*
X52363062Y-81455200D01*
X52363062Y-81455200D02*
X52470205Y-81359961D01*
X52470205Y-81359961D02*
X52446395Y-81550438D01*
X52601157Y-80312342D02*
X52684490Y-80407580D01*
X52684490Y-80407580D02*
X52577348Y-80502819D01*
X52577348Y-80502819D02*
X52494014Y-80407580D01*
X52494014Y-80407580D02*
X52601157Y-80312342D01*
X52601157Y-80312342D02*
X52577348Y-80502819D01*
X55053539Y-80502819D02*
X55720205Y-80502819D01*
X55874967Y-81550438D02*
X54922586Y-81550438D01*
X54922586Y-81550438D02*
X55172586Y-79550438D01*
X55172586Y-79550438D02*
X56124967Y-79550438D01*
X56648777Y-81455200D02*
X56922586Y-81550438D01*
X56922586Y-81550438D02*
X57398777Y-81550438D01*
X57398777Y-81550438D02*
X57601158Y-81455200D01*
X57601158Y-81455200D02*
X57708301Y-81359961D01*
X57708301Y-81359961D02*
X57827348Y-81169485D01*
X57827348Y-81169485D02*
X57851158Y-80979009D01*
X57851158Y-80979009D02*
X57779729Y-80788533D01*
X57779729Y-80788533D02*
X57696396Y-80693295D01*
X57696396Y-80693295D02*
X57517825Y-80598057D01*
X57517825Y-80598057D02*
X57148777Y-80502819D01*
X57148777Y-80502819D02*
X56970205Y-80407580D01*
X56970205Y-80407580D02*
X56886872Y-80312342D01*
X56886872Y-80312342D02*
X56815444Y-80121866D01*
X56815444Y-80121866D02*
X56839253Y-79931390D01*
X56839253Y-79931390D02*
X56958301Y-79740914D01*
X56958301Y-79740914D02*
X57065444Y-79645676D01*
X57065444Y-79645676D02*
X57267825Y-79550438D01*
X57267825Y-79550438D02*
X57744015Y-79550438D01*
X57744015Y-79550438D02*
X58017825Y-79645676D01*
X58636872Y-81550438D02*
X58886872Y-79550438D01*
X58886872Y-79550438D02*
X59648777Y-79550438D01*
X59648777Y-79550438D02*
X59827348Y-79645676D01*
X59827348Y-79645676D02*
X59910682Y-79740914D01*
X59910682Y-79740914D02*
X59982110Y-79931390D01*
X59982110Y-79931390D02*
X59946396Y-80217104D01*
X59946396Y-80217104D02*
X59827348Y-80407580D01*
X59827348Y-80407580D02*
X59720206Y-80502819D01*
X59720206Y-80502819D02*
X59517825Y-80598057D01*
X59517825Y-80598057D02*
X58755920Y-80598057D01*
X60696396Y-79550438D02*
X61934491Y-79550438D01*
X61934491Y-79550438D02*
X61172587Y-80312342D01*
X61172587Y-80312342D02*
X61458301Y-80312342D01*
X61458301Y-80312342D02*
X61636872Y-80407580D01*
X61636872Y-80407580D02*
X61720206Y-80502819D01*
X61720206Y-80502819D02*
X61791634Y-80693295D01*
X61791634Y-80693295D02*
X61732110Y-81169485D01*
X61732110Y-81169485D02*
X61613063Y-81359961D01*
X61613063Y-81359961D02*
X61505920Y-81455200D01*
X61505920Y-81455200D02*
X61303539Y-81550438D01*
X61303539Y-81550438D02*
X60732110Y-81550438D01*
X60732110Y-81550438D02*
X60553539Y-81455200D01*
X60553539Y-81455200D02*
X60470206Y-81359961D01*
X62672587Y-79740914D02*
X62779729Y-79645676D01*
X62779729Y-79645676D02*
X62982110Y-79550438D01*
X62982110Y-79550438D02*
X63458301Y-79550438D01*
X63458301Y-79550438D02*
X63636872Y-79645676D01*
X63636872Y-79645676D02*
X63720206Y-79740914D01*
X63720206Y-79740914D02*
X63791634Y-79931390D01*
X63791634Y-79931390D02*
X63767825Y-80121866D01*
X63767825Y-80121866D02*
X63636872Y-80407580D01*
X63636872Y-80407580D02*
X62351158Y-81550438D01*
X62351158Y-81550438D02*
X63589253Y-81550438D01*
X67113063Y-81550438D02*
X66565444Y-80598057D01*
X65970206Y-81550438D02*
X66220206Y-79550438D01*
X66220206Y-79550438D02*
X66982111Y-79550438D01*
X66982111Y-79550438D02*
X67160682Y-79645676D01*
X67160682Y-79645676D02*
X67244016Y-79740914D01*
X67244016Y-79740914D02*
X67315444Y-79931390D01*
X67315444Y-79931390D02*
X67279730Y-80217104D01*
X67279730Y-80217104D02*
X67160682Y-80407580D01*
X67160682Y-80407580D02*
X67053540Y-80502819D01*
X67053540Y-80502819D02*
X66851159Y-80598057D01*
X66851159Y-80598057D02*
X66089254Y-80598057D01*
X69136873Y-81359961D02*
X69029730Y-81455200D01*
X69029730Y-81455200D02*
X68732111Y-81550438D01*
X68732111Y-81550438D02*
X68541635Y-81550438D01*
X68541635Y-81550438D02*
X68267825Y-81455200D01*
X68267825Y-81455200D02*
X68101159Y-81264723D01*
X68101159Y-81264723D02*
X68029730Y-81074247D01*
X68029730Y-81074247D02*
X67982111Y-80693295D01*
X67982111Y-80693295D02*
X68017825Y-80407580D01*
X68017825Y-80407580D02*
X68160682Y-80026628D01*
X68160682Y-80026628D02*
X68279730Y-79836152D01*
X68279730Y-79836152D02*
X68494016Y-79645676D01*
X68494016Y-79645676D02*
X68791635Y-79550438D01*
X68791635Y-79550438D02*
X68982111Y-79550438D01*
X68982111Y-79550438D02*
X69255921Y-79645676D01*
X69255921Y-79645676D02*
X69339254Y-79740914D01*
D10*
D11*
X46293826Y-76946414D02*
X45793826Y-76946414D01*
X45793826Y-77732128D02*
X45793826Y-76232128D01*
X45793826Y-76232128D02*
X46508112Y-76232128D01*
X47079540Y-77732128D02*
X47079540Y-76732128D01*
X47079540Y-76232128D02*
X47008112Y-76303557D01*
X47008112Y-76303557D02*
X47079540Y-76374985D01*
X47079540Y-76374985D02*
X47150969Y-76303557D01*
X47150969Y-76303557D02*
X47079540Y-76232128D01*
X47079540Y-76232128D02*
X47079540Y-76374985D01*
X48008112Y-77732128D02*
X47865255Y-77660700D01*
X47865255Y-77660700D02*
X47793826Y-77517842D01*
X47793826Y-77517842D02*
X47793826Y-76232128D01*
X49150969Y-77660700D02*
X49008112Y-77732128D01*
X49008112Y-77732128D02*
X48722398Y-77732128D01*
X48722398Y-77732128D02*
X48579540Y-77660700D01*
X48579540Y-77660700D02*
X48508112Y-77517842D01*
X48508112Y-77517842D02*
X48508112Y-76946414D01*
X48508112Y-76946414D02*
X48579540Y-76803557D01*
X48579540Y-76803557D02*
X48722398Y-76732128D01*
X48722398Y-76732128D02*
X49008112Y-76732128D01*
X49008112Y-76732128D02*
X49150969Y-76803557D01*
X49150969Y-76803557D02*
X49222398Y-76946414D01*
X49222398Y-76946414D02*
X49222398Y-77089271D01*
X49222398Y-77089271D02*
X48508112Y-77232128D01*
X49865254Y-77589271D02*
X49936683Y-77660700D01*
X49936683Y-77660700D02*
X49865254Y-77732128D01*
X49865254Y-77732128D02*
X49793826Y-77660700D01*
X49793826Y-77660700D02*
X49865254Y-77589271D01*
X49865254Y-77589271D02*
X49865254Y-77732128D01*
X49865254Y-76803557D02*
X49936683Y-76874985D01*
X49936683Y-76874985D02*
X49865254Y-76946414D01*
X49865254Y-76946414D02*
X49793826Y-76874985D01*
X49793826Y-76874985D02*
X49865254Y-76803557D01*
X49865254Y-76803557D02*
X49865254Y-76946414D01*
X51722397Y-76946414D02*
X52222397Y-76946414D01*
X52436683Y-77732128D02*
X51722397Y-77732128D01*
X51722397Y-77732128D02*
X51722397Y-76232128D01*
X51722397Y-76232128D02*
X52436683Y-76232128D01*
X53008112Y-77660700D02*
X53222398Y-77732128D01*
X53222398Y-77732128D02*
X53579540Y-77732128D01*
X53579540Y-77732128D02*
X53722398Y-77660700D01*
X53722398Y-77660700D02*
X53793826Y-77589271D01*
X53793826Y-77589271D02*
X53865255Y-77446414D01*
X53865255Y-77446414D02*
X53865255Y-77303557D01*
X53865255Y-77303557D02*
X53793826Y-77160700D01*
X53793826Y-77160700D02*
X53722398Y-77089271D01*
X53722398Y-77089271D02*
X53579540Y-77017842D01*
X53579540Y-77017842D02*
X53293826Y-76946414D01*
X53293826Y-76946414D02*
X53150969Y-76874985D01*
X53150969Y-76874985D02*
X53079540Y-76803557D01*
X53079540Y-76803557D02*
X53008112Y-76660700D01*
X53008112Y-76660700D02*
X53008112Y-76517842D01*
X53008112Y-76517842D02*
X53079540Y-76374985D01*
X53079540Y-76374985D02*
X53150969Y-76303557D01*
X53150969Y-76303557D02*
X53293826Y-76232128D01*
X53293826Y-76232128D02*
X53650969Y-76232128D01*
X53650969Y-76232128D02*
X53865255Y-76303557D01*
X54508111Y-77732128D02*
X54508111Y-76232128D01*
X54508111Y-76232128D02*
X55079540Y-76232128D01*
X55079540Y-76232128D02*
X55222397Y-76303557D01*
X55222397Y-76303557D02*
X55293826Y-76374985D01*
X55293826Y-76374985D02*
X55365254Y-76517842D01*
X55365254Y-76517842D02*
X55365254Y-76732128D01*
X55365254Y-76732128D02*
X55293826Y-76874985D01*
X55293826Y-76874985D02*
X55222397Y-76946414D01*
X55222397Y-76946414D02*
X55079540Y-77017842D01*
X55079540Y-77017842D02*
X54508111Y-77017842D01*
X55865254Y-76232128D02*
X56793826Y-76232128D01*
X56793826Y-76232128D02*
X56293826Y-76803557D01*
X56293826Y-76803557D02*
X56508111Y-76803557D01*
X56508111Y-76803557D02*
X56650969Y-76874985D01*
X56650969Y-76874985D02*
X56722397Y-76946414D01*
X56722397Y-76946414D02*
X56793826Y-77089271D01*
X56793826Y-77089271D02*
X56793826Y-77446414D01*
X56793826Y-77446414D02*
X56722397Y-77589271D01*
X56722397Y-77589271D02*
X56650969Y-77660700D01*
X56650969Y-77660700D02*
X56508111Y-77732128D01*
X56508111Y-77732128D02*
X56079540Y-77732128D01*
X56079540Y-77732128D02*
X55936683Y-77660700D01*
X55936683Y-77660700D02*
X55865254Y-77589271D01*
X57365254Y-76374985D02*
X57436682Y-76303557D01*
X57436682Y-76303557D02*
X57579540Y-76232128D01*
X57579540Y-76232128D02*
X57936682Y-76232128D01*
X57936682Y-76232128D02*
X58079540Y-76303557D01*
X58079540Y-76303557D02*
X58150968Y-76374985D01*
X58150968Y-76374985D02*
X58222397Y-76517842D01*
X58222397Y-76517842D02*
X58222397Y-76660700D01*
X58222397Y-76660700D02*
X58150968Y-76874985D01*
X58150968Y-76874985D02*
X57293825Y-77732128D01*
X57293825Y-77732128D02*
X58222397Y-77732128D01*
X58865253Y-77160700D02*
X60008111Y-77160700D01*
X61579539Y-77732128D02*
X61079539Y-77017842D01*
X60722396Y-77732128D02*
X60722396Y-76232128D01*
X60722396Y-76232128D02*
X61293825Y-76232128D01*
X61293825Y-76232128D02*
X61436682Y-76303557D01*
X61436682Y-76303557D02*
X61508111Y-76374985D01*
X61508111Y-76374985D02*
X61579539Y-76517842D01*
X61579539Y-76517842D02*
X61579539Y-76732128D01*
X61579539Y-76732128D02*
X61508111Y-76874985D01*
X61508111Y-76874985D02*
X61436682Y-76946414D01*
X61436682Y-76946414D02*
X61293825Y-77017842D01*
X61293825Y-77017842D02*
X60722396Y-77017842D01*
X63079539Y-77589271D02*
X63008111Y-77660700D01*
X63008111Y-77660700D02*
X62793825Y-77732128D01*
X62793825Y-77732128D02*
X62650968Y-77732128D01*
X62650968Y-77732128D02*
X62436682Y-77660700D01*
X62436682Y-77660700D02*
X62293825Y-77517842D01*
X62293825Y-77517842D02*
X62222396Y-77374985D01*
X62222396Y-77374985D02*
X62150968Y-77089271D01*
X62150968Y-77089271D02*
X62150968Y-76874985D01*
X62150968Y-76874985D02*
X62222396Y-76589271D01*
X62222396Y-76589271D02*
X62293825Y-76446414D01*
X62293825Y-76446414D02*
X62436682Y-76303557D01*
X62436682Y-76303557D02*
X62650968Y-76232128D01*
X62650968Y-76232128D02*
X62793825Y-76232128D01*
X62793825Y-76232128D02*
X63008111Y-76303557D01*
X63008111Y-76303557D02*
X63079539Y-76374985D01*
X63365254Y-77874985D02*
X64508111Y-77874985D01*
X65722396Y-77732128D02*
X65222396Y-77017842D01*
X64865253Y-77732128D02*
X64865253Y-76232128D01*
X64865253Y-76232128D02*
X65436682Y-76232128D01*
X65436682Y-76232128D02*
X65579539Y-76303557D01*
X65579539Y-76303557D02*
X65650968Y-76374985D01*
X65650968Y-76374985D02*
X65722396Y-76517842D01*
X65722396Y-76517842D02*
X65722396Y-76732128D01*
X65722396Y-76732128D02*
X65650968Y-76874985D01*
X65650968Y-76874985D02*
X65579539Y-76946414D01*
X65579539Y-76946414D02*
X65436682Y-77017842D01*
X65436682Y-77017842D02*
X64865253Y-77017842D01*
X66650968Y-76232128D02*
X66793825Y-76232128D01*
X66793825Y-76232128D02*
X66936682Y-76303557D01*
X66936682Y-76303557D02*
X67008111Y-76374985D01*
X67008111Y-76374985D02*
X67079539Y-76517842D01*
X67079539Y-76517842D02*
X67150968Y-76803557D01*
X67150968Y-76803557D02*
X67150968Y-77160700D01*
X67150968Y-77160700D02*
X67079539Y-77446414D01*
X67079539Y-77446414D02*
X67008111Y-77589271D01*
X67008111Y-77589271D02*
X66936682Y-77660700D01*
X66936682Y-77660700D02*
X66793825Y-77732128D01*
X66793825Y-77732128D02*
X66650968Y-77732128D01*
X66650968Y-77732128D02*
X66508111Y-77660700D01*
X66508111Y-77660700D02*
X66436682Y-77589271D01*
X66436682Y-77589271D02*
X66365253Y-77446414D01*
X66365253Y-77446414D02*
X66293825Y-77160700D01*
X66293825Y-77160700D02*
X66293825Y-76803557D01*
X66293825Y-76803557D02*
X66365253Y-76517842D01*
X66365253Y-76517842D02*
X66436682Y-76374985D01*
X66436682Y-76374985D02*
X66508111Y-76303557D01*
X66508111Y-76303557D02*
X66650968Y-76232128D01*
X67793824Y-77589271D02*
X67865253Y-77660700D01*
X67865253Y-77660700D02*
X67793824Y-77732128D01*
X67793824Y-77732128D02*
X67722396Y-77660700D01*
X67722396Y-77660700D02*
X67793824Y-77589271D01*
X67793824Y-77589271D02*
X67793824Y-77732128D01*
X68508110Y-77732128D02*
X68508110Y-76232128D01*
X68650968Y-77160700D02*
X69079539Y-77732128D01*
X69079539Y-76732128D02*
X68508110Y-77303557D01*
X69722396Y-77732128D02*
X69722396Y-76732128D01*
X69722396Y-76232128D02*
X69650968Y-76303557D01*
X69650968Y-76303557D02*
X69722396Y-76374985D01*
X69722396Y-76374985D02*
X69793825Y-76303557D01*
X69793825Y-76303557D02*
X69722396Y-76232128D01*
X69722396Y-76232128D02*
X69722396Y-76374985D01*
X71079540Y-77660700D02*
X70936682Y-77732128D01*
X70936682Y-77732128D02*
X70650968Y-77732128D01*
X70650968Y-77732128D02*
X70508111Y-77660700D01*
X70508111Y-77660700D02*
X70436682Y-77589271D01*
X70436682Y-77589271D02*
X70365254Y-77446414D01*
X70365254Y-77446414D02*
X70365254Y-77017842D01*
X70365254Y-77017842D02*
X70436682Y-76874985D01*
X70436682Y-76874985D02*
X70508111Y-76803557D01*
X70508111Y-76803557D02*
X70650968Y-76732128D01*
X70650968Y-76732128D02*
X70936682Y-76732128D01*
X70936682Y-76732128D02*
X71079540Y-76803557D01*
X72365254Y-77732128D02*
X72365254Y-76946414D01*
X72365254Y-76946414D02*
X72293825Y-76803557D01*
X72293825Y-76803557D02*
X72150968Y-76732128D01*
X72150968Y-76732128D02*
X71865254Y-76732128D01*
X71865254Y-76732128D02*
X71722396Y-76803557D01*
X72365254Y-77660700D02*
X72222396Y-77732128D01*
X72222396Y-77732128D02*
X71865254Y-77732128D01*
X71865254Y-77732128D02*
X71722396Y-77660700D01*
X71722396Y-77660700D02*
X71650968Y-77517842D01*
X71650968Y-77517842D02*
X71650968Y-77374985D01*
X71650968Y-77374985D02*
X71722396Y-77232128D01*
X71722396Y-77232128D02*
X71865254Y-77160700D01*
X71865254Y-77160700D02*
X72222396Y-77160700D01*
X72222396Y-77160700D02*
X72365254Y-77089271D01*
X73722397Y-77732128D02*
X73722397Y-76232128D01*
X73722397Y-77660700D02*
X73579539Y-77732128D01*
X73579539Y-77732128D02*
X73293825Y-77732128D01*
X73293825Y-77732128D02*
X73150968Y-77660700D01*
X73150968Y-77660700D02*
X73079539Y-77589271D01*
X73079539Y-77589271D02*
X73008111Y-77446414D01*
X73008111Y-77446414D02*
X73008111Y-77017842D01*
X73008111Y-77017842D02*
X73079539Y-76874985D01*
X73079539Y-76874985D02*
X73150968Y-76803557D01*
X73150968Y-76803557D02*
X73293825Y-76732128D01*
X73293825Y-76732128D02*
X73579539Y-76732128D01*
X73579539Y-76732128D02*
X73722397Y-76803557D01*
X74079540Y-77874985D02*
X75222397Y-77874985D01*
X75579539Y-76732128D02*
X75579539Y-78232128D01*
X75579539Y-76803557D02*
X75722397Y-76732128D01*
X75722397Y-76732128D02*
X76008111Y-76732128D01*
X76008111Y-76732128D02*
X76150968Y-76803557D01*
X76150968Y-76803557D02*
X76222397Y-76874985D01*
X76222397Y-76874985D02*
X76293825Y-77017842D01*
X76293825Y-77017842D02*
X76293825Y-77446414D01*
X76293825Y-77446414D02*
X76222397Y-77589271D01*
X76222397Y-77589271D02*
X76150968Y-77660700D01*
X76150968Y-77660700D02*
X76008111Y-77732128D01*
X76008111Y-77732128D02*
X75722397Y-77732128D01*
X75722397Y-77732128D02*
X75579539Y-77660700D01*
X77579540Y-77660700D02*
X77436682Y-77732128D01*
X77436682Y-77732128D02*
X77150968Y-77732128D01*
X77150968Y-77732128D02*
X77008111Y-77660700D01*
X77008111Y-77660700D02*
X76936682Y-77589271D01*
X76936682Y-77589271D02*
X76865254Y-77446414D01*
X76865254Y-77446414D02*
X76865254Y-77017842D01*
X76865254Y-77017842D02*
X76936682Y-76874985D01*
X76936682Y-76874985D02*
X77008111Y-76803557D01*
X77008111Y-76803557D02*
X77150968Y-76732128D01*
X77150968Y-76732128D02*
X77436682Y-76732128D01*
X77436682Y-76732128D02*
X77579540Y-76803557D01*
X78222396Y-77732128D02*
X78222396Y-76232128D01*
X78222396Y-76803557D02*
X78365254Y-76732128D01*
X78365254Y-76732128D02*
X78650968Y-76732128D01*
X78650968Y-76732128D02*
X78793825Y-76803557D01*
X78793825Y-76803557D02*
X78865254Y-76874985D01*
X78865254Y-76874985D02*
X78936682Y-77017842D01*
X78936682Y-77017842D02*
X78936682Y-77446414D01*
X78936682Y-77446414D02*
X78865254Y-77589271D01*
X78865254Y-77589271D02*
X78793825Y-77660700D01*
X78793825Y-77660700D02*
X78650968Y-77732128D01*
X78650968Y-77732128D02*
X78365254Y-77732128D01*
X78365254Y-77732128D02*
X78222396Y-77660700D01*
D10*
D11*
X44338000Y-72846000D02*
X152338000Y-72846000D01*
D10*
D11*
X45722398Y-74960700D02*
X45936684Y-75032128D01*
X45936684Y-75032128D02*
X46293826Y-75032128D01*
X46293826Y-75032128D02*
X46436684Y-74960700D01*
X46436684Y-74960700D02*
X46508112Y-74889271D01*
X46508112Y-74889271D02*
X46579541Y-74746414D01*
X46579541Y-74746414D02*
X46579541Y-74603557D01*
X46579541Y-74603557D02*
X46508112Y-74460700D01*
X46508112Y-74460700D02*
X46436684Y-74389271D01*
X46436684Y-74389271D02*
X46293826Y-74317842D01*
X46293826Y-74317842D02*
X46008112Y-74246414D01*
X46008112Y-74246414D02*
X45865255Y-74174985D01*
X45865255Y-74174985D02*
X45793826Y-74103557D01*
X45793826Y-74103557D02*
X45722398Y-73960700D01*
X45722398Y-73960700D02*
X45722398Y-73817842D01*
X45722398Y-73817842D02*
X45793826Y-73674985D01*
X45793826Y-73674985D02*
X45865255Y-73603557D01*
X45865255Y-73603557D02*
X46008112Y-73532128D01*
X46008112Y-73532128D02*
X46365255Y-73532128D01*
X46365255Y-73532128D02*
X46579541Y-73603557D01*
X47222397Y-75032128D02*
X47222397Y-73532128D01*
X47865255Y-75032128D02*
X47865255Y-74246414D01*
X47865255Y-74246414D02*
X47793826Y-74103557D01*
X47793826Y-74103557D02*
X47650969Y-74032128D01*
X47650969Y-74032128D02*
X47436683Y-74032128D01*
X47436683Y-74032128D02*
X47293826Y-74103557D01*
X47293826Y-74103557D02*
X47222397Y-74174985D01*
X49150969Y-74960700D02*
X49008112Y-75032128D01*
X49008112Y-75032128D02*
X48722398Y-75032128D01*
X48722398Y-75032128D02*
X48579540Y-74960700D01*
X48579540Y-74960700D02*
X48508112Y-74817842D01*
X48508112Y-74817842D02*
X48508112Y-74246414D01*
X48508112Y-74246414D02*
X48579540Y-74103557D01*
X48579540Y-74103557D02*
X48722398Y-74032128D01*
X48722398Y-74032128D02*
X49008112Y-74032128D01*
X49008112Y-74032128D02*
X49150969Y-74103557D01*
X49150969Y-74103557D02*
X49222398Y-74246414D01*
X49222398Y-74246414D02*
X49222398Y-74389271D01*
X49222398Y-74389271D02*
X48508112Y-74532128D01*
X50436683Y-74960700D02*
X50293826Y-75032128D01*
X50293826Y-75032128D02*
X50008112Y-75032128D01*
X50008112Y-75032128D02*
X49865254Y-74960700D01*
X49865254Y-74960700D02*
X49793826Y-74817842D01*
X49793826Y-74817842D02*
X49793826Y-74246414D01*
X49793826Y-74246414D02*
X49865254Y-74103557D01*
X49865254Y-74103557D02*
X50008112Y-74032128D01*
X50008112Y-74032128D02*
X50293826Y-74032128D01*
X50293826Y-74032128D02*
X50436683Y-74103557D01*
X50436683Y-74103557D02*
X50508112Y-74246414D01*
X50508112Y-74246414D02*
X50508112Y-74389271D01*
X50508112Y-74389271D02*
X49793826Y-74532128D01*
X50936683Y-74032128D02*
X51508111Y-74032128D01*
X51150968Y-73532128D02*
X51150968Y-74817842D01*
X51150968Y-74817842D02*
X51222397Y-74960700D01*
X51222397Y-74960700D02*
X51365254Y-75032128D01*
X51365254Y-75032128D02*
X51508111Y-75032128D01*
X52008111Y-74889271D02*
X52079540Y-74960700D01*
X52079540Y-74960700D02*
X52008111Y-75032128D01*
X52008111Y-75032128D02*
X51936683Y-74960700D01*
X51936683Y-74960700D02*
X52008111Y-74889271D01*
X52008111Y-74889271D02*
X52008111Y-75032128D01*
X52008111Y-74103557D02*
X52079540Y-74174985D01*
X52079540Y-74174985D02*
X52008111Y-74246414D01*
X52008111Y-74246414D02*
X51936683Y-74174985D01*
X51936683Y-74174985D02*
X52008111Y-74103557D01*
X52008111Y-74103557D02*
X52008111Y-74246414D01*
D10*
D12*
X45749653Y-70524328D02*
X46106796Y-72024328D01*
X46106796Y-72024328D02*
X46392510Y-70952900D01*
X46392510Y-70952900D02*
X46678225Y-72024328D01*
X46678225Y-72024328D02*
X47035368Y-70524328D01*
X47606796Y-72024328D02*
X47606796Y-71024328D01*
X47606796Y-70524328D02*
X47535368Y-70595757D01*
X47535368Y-70595757D02*
X47606796Y-70667185D01*
X47606796Y-70667185D02*
X47678225Y-70595757D01*
X47678225Y-70595757D02*
X47606796Y-70524328D01*
X47606796Y-70524328D02*
X47606796Y-70667185D01*
X48321082Y-72024328D02*
X48321082Y-71024328D01*
X48321082Y-71310042D02*
X48392511Y-71167185D01*
X48392511Y-71167185D02*
X48463940Y-71095757D01*
X48463940Y-71095757D02*
X48606797Y-71024328D01*
X48606797Y-71024328D02*
X48749654Y-71024328D01*
X49821082Y-71952900D02*
X49678225Y-72024328D01*
X49678225Y-72024328D02*
X49392511Y-72024328D01*
X49392511Y-72024328D02*
X49249653Y-71952900D01*
X49249653Y-71952900D02*
X49178225Y-71810042D01*
X49178225Y-71810042D02*
X49178225Y-71238614D01*
X49178225Y-71238614D02*
X49249653Y-71095757D01*
X49249653Y-71095757D02*
X49392511Y-71024328D01*
X49392511Y-71024328D02*
X49678225Y-71024328D01*
X49678225Y-71024328D02*
X49821082Y-71095757D01*
X49821082Y-71095757D02*
X49892511Y-71238614D01*
X49892511Y-71238614D02*
X49892511Y-71381471D01*
X49892511Y-71381471D02*
X49178225Y-71524328D01*
X50749653Y-72024328D02*
X50606796Y-71952900D01*
X50606796Y-71952900D02*
X50535367Y-71810042D01*
X50535367Y-71810042D02*
X50535367Y-70524328D01*
X51892510Y-71952900D02*
X51749653Y-72024328D01*
X51749653Y-72024328D02*
X51463939Y-72024328D01*
X51463939Y-72024328D02*
X51321081Y-71952900D01*
X51321081Y-71952900D02*
X51249653Y-71810042D01*
X51249653Y-71810042D02*
X51249653Y-71238614D01*
X51249653Y-71238614D02*
X51321081Y-71095757D01*
X51321081Y-71095757D02*
X51463939Y-71024328D01*
X51463939Y-71024328D02*
X51749653Y-71024328D01*
X51749653Y-71024328D02*
X51892510Y-71095757D01*
X51892510Y-71095757D02*
X51963939Y-71238614D01*
X51963939Y-71238614D02*
X51963939Y-71381471D01*
X51963939Y-71381471D02*
X51249653Y-71524328D01*
X52535367Y-71952900D02*
X52678224Y-72024328D01*
X52678224Y-72024328D02*
X52963938Y-72024328D01*
X52963938Y-72024328D02*
X53106795Y-71952900D01*
X53106795Y-71952900D02*
X53178224Y-71810042D01*
X53178224Y-71810042D02*
X53178224Y-71738614D01*
X53178224Y-71738614D02*
X53106795Y-71595757D01*
X53106795Y-71595757D02*
X52963938Y-71524328D01*
X52963938Y-71524328D02*
X52749653Y-71524328D01*
X52749653Y-71524328D02*
X52606795Y-71452900D01*
X52606795Y-71452900D02*
X52535367Y-71310042D01*
X52535367Y-71310042D02*
X52535367Y-71238614D01*
X52535367Y-71238614D02*
X52606795Y-71095757D01*
X52606795Y-71095757D02*
X52749653Y-71024328D01*
X52749653Y-71024328D02*
X52963938Y-71024328D01*
X52963938Y-71024328D02*
X53106795Y-71095757D01*
X53749653Y-71952900D02*
X53892510Y-72024328D01*
X53892510Y-72024328D02*
X54178224Y-72024328D01*
X54178224Y-72024328D02*
X54321081Y-71952900D01*
X54321081Y-71952900D02*
X54392510Y-71810042D01*
X54392510Y-71810042D02*
X54392510Y-71738614D01*
X54392510Y-71738614D02*
X54321081Y-71595757D01*
X54321081Y-71595757D02*
X54178224Y-71524328D01*
X54178224Y-71524328D02*
X53963939Y-71524328D01*
X53963939Y-71524328D02*
X53821081Y-71452900D01*
X53821081Y-71452900D02*
X53749653Y-71310042D01*
X53749653Y-71310042D02*
X53749653Y-71238614D01*
X53749653Y-71238614D02*
X53821081Y-71095757D01*
X53821081Y-71095757D02*
X53963939Y-71024328D01*
X53963939Y-71024328D02*
X54178224Y-71024328D01*
X54178224Y-71024328D02*
X54321081Y-71095757D01*
X56821082Y-72024328D02*
X56821082Y-71238614D01*
X56821082Y-71238614D02*
X56749653Y-71095757D01*
X56749653Y-71095757D02*
X56606796Y-71024328D01*
X56606796Y-71024328D02*
X56321082Y-71024328D01*
X56321082Y-71024328D02*
X56178224Y-71095757D01*
X56821082Y-71952900D02*
X56678224Y-72024328D01*
X56678224Y-72024328D02*
X56321082Y-72024328D01*
X56321082Y-72024328D02*
X56178224Y-71952900D01*
X56178224Y-71952900D02*
X56106796Y-71810042D01*
X56106796Y-71810042D02*
X56106796Y-71667185D01*
X56106796Y-71667185D02*
X56178224Y-71524328D01*
X56178224Y-71524328D02*
X56321082Y-71452900D01*
X56321082Y-71452900D02*
X56678224Y-71452900D01*
X56678224Y-71452900D02*
X56821082Y-71381471D01*
X57535367Y-71024328D02*
X57535367Y-72024328D01*
X57535367Y-71167185D02*
X57606796Y-71095757D01*
X57606796Y-71095757D02*
X57749653Y-71024328D01*
X57749653Y-71024328D02*
X57963939Y-71024328D01*
X57963939Y-71024328D02*
X58106796Y-71095757D01*
X58106796Y-71095757D02*
X58178225Y-71238614D01*
X58178225Y-71238614D02*
X58178225Y-72024328D01*
X59535368Y-72024328D02*
X59535368Y-70524328D01*
X59535368Y-71952900D02*
X59392510Y-72024328D01*
X59392510Y-72024328D02*
X59106796Y-72024328D01*
X59106796Y-72024328D02*
X58963939Y-71952900D01*
X58963939Y-71952900D02*
X58892510Y-71881471D01*
X58892510Y-71881471D02*
X58821082Y-71738614D01*
X58821082Y-71738614D02*
X58821082Y-71310042D01*
X58821082Y-71310042D02*
X58892510Y-71167185D01*
X58892510Y-71167185D02*
X58963939Y-71095757D01*
X58963939Y-71095757D02*
X59106796Y-71024328D01*
X59106796Y-71024328D02*
X59392510Y-71024328D01*
X59392510Y-71024328D02*
X59535368Y-71095757D01*
X62249653Y-71881471D02*
X62178225Y-71952900D01*
X62178225Y-71952900D02*
X61963939Y-72024328D01*
X61963939Y-72024328D02*
X61821082Y-72024328D01*
X61821082Y-72024328D02*
X61606796Y-71952900D01*
X61606796Y-71952900D02*
X61463939Y-71810042D01*
X61463939Y-71810042D02*
X61392510Y-71667185D01*
X61392510Y-71667185D02*
X61321082Y-71381471D01*
X61321082Y-71381471D02*
X61321082Y-71167185D01*
X61321082Y-71167185D02*
X61392510Y-70881471D01*
X61392510Y-70881471D02*
X61463939Y-70738614D01*
X61463939Y-70738614D02*
X61606796Y-70595757D01*
X61606796Y-70595757D02*
X61821082Y-70524328D01*
X61821082Y-70524328D02*
X61963939Y-70524328D01*
X61963939Y-70524328D02*
X62178225Y-70595757D01*
X62178225Y-70595757D02*
X62249653Y-70667185D01*
X63106796Y-72024328D02*
X62963939Y-71952900D01*
X62963939Y-71952900D02*
X62892510Y-71881471D01*
X62892510Y-71881471D02*
X62821082Y-71738614D01*
X62821082Y-71738614D02*
X62821082Y-71310042D01*
X62821082Y-71310042D02*
X62892510Y-71167185D01*
X62892510Y-71167185D02*
X62963939Y-71095757D01*
X62963939Y-71095757D02*
X63106796Y-71024328D01*
X63106796Y-71024328D02*
X63321082Y-71024328D01*
X63321082Y-71024328D02*
X63463939Y-71095757D01*
X63463939Y-71095757D02*
X63535368Y-71167185D01*
X63535368Y-71167185D02*
X63606796Y-71310042D01*
X63606796Y-71310042D02*
X63606796Y-71738614D01*
X63606796Y-71738614D02*
X63535368Y-71881471D01*
X63535368Y-71881471D02*
X63463939Y-71952900D01*
X63463939Y-71952900D02*
X63321082Y-72024328D01*
X63321082Y-72024328D02*
X63106796Y-72024328D01*
X64249653Y-71024328D02*
X64249653Y-72024328D01*
X64249653Y-71167185D02*
X64321082Y-71095757D01*
X64321082Y-71095757D02*
X64463939Y-71024328D01*
X64463939Y-71024328D02*
X64678225Y-71024328D01*
X64678225Y-71024328D02*
X64821082Y-71095757D01*
X64821082Y-71095757D02*
X64892511Y-71238614D01*
X64892511Y-71238614D02*
X64892511Y-72024328D01*
X65392511Y-71024328D02*
X65963939Y-71024328D01*
X65606796Y-70524328D02*
X65606796Y-71810042D01*
X65606796Y-71810042D02*
X65678225Y-71952900D01*
X65678225Y-71952900D02*
X65821082Y-72024328D01*
X65821082Y-72024328D02*
X65963939Y-72024328D01*
X66463939Y-72024328D02*
X66463939Y-71024328D01*
X66463939Y-71310042D02*
X66535368Y-71167185D01*
X66535368Y-71167185D02*
X66606797Y-71095757D01*
X66606797Y-71095757D02*
X66749654Y-71024328D01*
X66749654Y-71024328D02*
X66892511Y-71024328D01*
X67606796Y-72024328D02*
X67463939Y-71952900D01*
X67463939Y-71952900D02*
X67392510Y-71881471D01*
X67392510Y-71881471D02*
X67321082Y-71738614D01*
X67321082Y-71738614D02*
X67321082Y-71310042D01*
X67321082Y-71310042D02*
X67392510Y-71167185D01*
X67392510Y-71167185D02*
X67463939Y-71095757D01*
X67463939Y-71095757D02*
X67606796Y-71024328D01*
X67606796Y-71024328D02*
X67821082Y-71024328D01*
X67821082Y-71024328D02*
X67963939Y-71095757D01*
X67963939Y-71095757D02*
X68035368Y-71167185D01*
X68035368Y-71167185D02*
X68106796Y-71310042D01*
X68106796Y-71310042D02*
X68106796Y-71738614D01*
X68106796Y-71738614D02*
X68035368Y-71881471D01*
X68035368Y-71881471D02*
X67963939Y-71952900D01*
X67963939Y-71952900D02*
X67821082Y-72024328D01*
X67821082Y-72024328D02*
X67606796Y-72024328D01*
X68963939Y-72024328D02*
X68821082Y-71952900D01*
X68821082Y-71952900D02*
X68749653Y-71810042D01*
X68749653Y-71810042D02*
X68749653Y-70524328D01*
X70606796Y-71952900D02*
X70821082Y-72024328D01*
X70821082Y-72024328D02*
X71178224Y-72024328D01*
X71178224Y-72024328D02*
X71321082Y-71952900D01*
X71321082Y-71952900D02*
X71392510Y-71881471D01*
X71392510Y-71881471D02*
X71463939Y-71738614D01*
X71463939Y-71738614D02*
X71463939Y-71595757D01*
X71463939Y-71595757D02*
X71392510Y-71452900D01*
X71392510Y-71452900D02*
X71321082Y-71381471D01*
X71321082Y-71381471D02*
X71178224Y-71310042D01*
X71178224Y-71310042D02*
X70892510Y-71238614D01*
X70892510Y-71238614D02*
X70749653Y-71167185D01*
X70749653Y-71167185D02*
X70678224Y-71095757D01*
X70678224Y-71095757D02*
X70606796Y-70952900D01*
X70606796Y-70952900D02*
X70606796Y-70810042D01*
X70606796Y-70810042D02*
X70678224Y-70667185D01*
X70678224Y-70667185D02*
X70749653Y-70595757D01*
X70749653Y-70595757D02*
X70892510Y-70524328D01*
X70892510Y-70524328D02*
X71249653Y-70524328D01*
X71249653Y-70524328D02*
X71463939Y-70595757D01*
X71963938Y-71024328D02*
X72321081Y-72024328D01*
X72678224Y-71024328D02*
X72321081Y-72024328D01*
X72321081Y-72024328D02*
X72178224Y-72381471D01*
X72178224Y-72381471D02*
X72106795Y-72452900D01*
X72106795Y-72452900D02*
X71963938Y-72524328D01*
X73178224Y-71952900D02*
X73321081Y-72024328D01*
X73321081Y-72024328D02*
X73606795Y-72024328D01*
X73606795Y-72024328D02*
X73749652Y-71952900D01*
X73749652Y-71952900D02*
X73821081Y-71810042D01*
X73821081Y-71810042D02*
X73821081Y-71738614D01*
X73821081Y-71738614D02*
X73749652Y-71595757D01*
X73749652Y-71595757D02*
X73606795Y-71524328D01*
X73606795Y-71524328D02*
X73392510Y-71524328D01*
X73392510Y-71524328D02*
X73249652Y-71452900D01*
X73249652Y-71452900D02*
X73178224Y-71310042D01*
X73178224Y-71310042D02*
X73178224Y-71238614D01*
X73178224Y-71238614D02*
X73249652Y-71095757D01*
X73249652Y-71095757D02*
X73392510Y-71024328D01*
X73392510Y-71024328D02*
X73606795Y-71024328D01*
X73606795Y-71024328D02*
X73749652Y-71095757D01*
X74249653Y-71024328D02*
X74821081Y-71024328D01*
X74463938Y-70524328D02*
X74463938Y-71810042D01*
X74463938Y-71810042D02*
X74535367Y-71952900D01*
X74535367Y-71952900D02*
X74678224Y-72024328D01*
X74678224Y-72024328D02*
X74821081Y-72024328D01*
X75892510Y-71952900D02*
X75749653Y-72024328D01*
X75749653Y-72024328D02*
X75463939Y-72024328D01*
X75463939Y-72024328D02*
X75321081Y-71952900D01*
X75321081Y-71952900D02*
X75249653Y-71810042D01*
X75249653Y-71810042D02*
X75249653Y-71238614D01*
X75249653Y-71238614D02*
X75321081Y-71095757D01*
X75321081Y-71095757D02*
X75463939Y-71024328D01*
X75463939Y-71024328D02*
X75749653Y-71024328D01*
X75749653Y-71024328D02*
X75892510Y-71095757D01*
X75892510Y-71095757D02*
X75963939Y-71238614D01*
X75963939Y-71238614D02*
X75963939Y-71381471D01*
X75963939Y-71381471D02*
X75249653Y-71524328D01*
X76606795Y-72024328D02*
X76606795Y-71024328D01*
X76606795Y-71167185D02*
X76678224Y-71095757D01*
X76678224Y-71095757D02*
X76821081Y-71024328D01*
X76821081Y-71024328D02*
X77035367Y-71024328D01*
X77035367Y-71024328D02*
X77178224Y-71095757D01*
X77178224Y-71095757D02*
X77249653Y-71238614D01*
X77249653Y-71238614D02*
X77249653Y-72024328D01*
X77249653Y-71238614D02*
X77321081Y-71095757D01*
X77321081Y-71095757D02*
X77463938Y-71024328D01*
X77463938Y-71024328D02*
X77678224Y-71024328D01*
X77678224Y-71024328D02*
X77821081Y-71095757D01*
X77821081Y-71095757D02*
X77892510Y-71238614D01*
X77892510Y-71238614D02*
X77892510Y-72024328D01*
X78535367Y-71952900D02*
X78678224Y-72024328D01*
X78678224Y-72024328D02*
X78963938Y-72024328D01*
X78963938Y-72024328D02*
X79106795Y-71952900D01*
X79106795Y-71952900D02*
X79178224Y-71810042D01*
X79178224Y-71810042D02*
X79178224Y-71738614D01*
X79178224Y-71738614D02*
X79106795Y-71595757D01*
X79106795Y-71595757D02*
X78963938Y-71524328D01*
X78963938Y-71524328D02*
X78749653Y-71524328D01*
X78749653Y-71524328D02*
X78606795Y-71452900D01*
X78606795Y-71452900D02*
X78535367Y-71310042D01*
X78535367Y-71310042D02*
X78535367Y-71238614D01*
X78535367Y-71238614D02*
X78606795Y-71095757D01*
X78606795Y-71095757D02*
X78749653Y-71024328D01*
X78749653Y-71024328D02*
X78963938Y-71024328D01*
X78963938Y-71024328D02*
X79106795Y-71095757D01*
X81678224Y-72024328D02*
X80963938Y-72024328D01*
X80963938Y-72024328D02*
X80963938Y-70524328D01*
X82892510Y-72024328D02*
X82178224Y-72024328D01*
X82178224Y-72024328D02*
X82178224Y-70524328D01*
X84249653Y-71881471D02*
X84178225Y-71952900D01*
X84178225Y-71952900D02*
X83963939Y-72024328D01*
X83963939Y-72024328D02*
X83821082Y-72024328D01*
X83821082Y-72024328D02*
X83606796Y-71952900D01*
X83606796Y-71952900D02*
X83463939Y-71810042D01*
X83463939Y-71810042D02*
X83392510Y-71667185D01*
X83392510Y-71667185D02*
X83321082Y-71381471D01*
X83321082Y-71381471D02*
X83321082Y-71167185D01*
X83321082Y-71167185D02*
X83392510Y-70881471D01*
X83392510Y-70881471D02*
X83463939Y-70738614D01*
X83463939Y-70738614D02*
X83606796Y-70595757D01*
X83606796Y-70595757D02*
X83821082Y-70524328D01*
X83821082Y-70524328D02*
X83963939Y-70524328D01*
X83963939Y-70524328D02*
X84178225Y-70595757D01*
X84178225Y-70595757D02*
X84249653Y-70667185D01*
D10*
D11*
X45793826Y-69032128D02*
X45793826Y-67532128D01*
X45793826Y-67532128D02*
X46150969Y-67532128D01*
X46150969Y-67532128D02*
X46365255Y-67603557D01*
X46365255Y-67603557D02*
X46508112Y-67746414D01*
X46508112Y-67746414D02*
X46579541Y-67889271D01*
X46579541Y-67889271D02*
X46650969Y-68174985D01*
X46650969Y-68174985D02*
X46650969Y-68389271D01*
X46650969Y-68389271D02*
X46579541Y-68674985D01*
X46579541Y-68674985D02*
X46508112Y-68817842D01*
X46508112Y-68817842D02*
X46365255Y-68960700D01*
X46365255Y-68960700D02*
X46150969Y-69032128D01*
X46150969Y-69032128D02*
X45793826Y-69032128D01*
X47936684Y-69032128D02*
X47936684Y-68246414D01*
X47936684Y-68246414D02*
X47865255Y-68103557D01*
X47865255Y-68103557D02*
X47722398Y-68032128D01*
X47722398Y-68032128D02*
X47436684Y-68032128D01*
X47436684Y-68032128D02*
X47293826Y-68103557D01*
X47936684Y-68960700D02*
X47793826Y-69032128D01*
X47793826Y-69032128D02*
X47436684Y-69032128D01*
X47436684Y-69032128D02*
X47293826Y-68960700D01*
X47293826Y-68960700D02*
X47222398Y-68817842D01*
X47222398Y-68817842D02*
X47222398Y-68674985D01*
X47222398Y-68674985D02*
X47293826Y-68532128D01*
X47293826Y-68532128D02*
X47436684Y-68460700D01*
X47436684Y-68460700D02*
X47793826Y-68460700D01*
X47793826Y-68460700D02*
X47936684Y-68389271D01*
X48650969Y-68032128D02*
X48650969Y-69032128D01*
X48650969Y-68174985D02*
X48722398Y-68103557D01*
X48722398Y-68103557D02*
X48865255Y-68032128D01*
X48865255Y-68032128D02*
X49079541Y-68032128D01*
X49079541Y-68032128D02*
X49222398Y-68103557D01*
X49222398Y-68103557D02*
X49293827Y-68246414D01*
X49293827Y-68246414D02*
X49293827Y-69032128D01*
X50936684Y-67532128D02*
X51793827Y-67532128D01*
X51365255Y-69032128D02*
X51365255Y-67532128D01*
X52936684Y-69032128D02*
X52936684Y-68246414D01*
X52936684Y-68246414D02*
X52865255Y-68103557D01*
X52865255Y-68103557D02*
X52722398Y-68032128D01*
X52722398Y-68032128D02*
X52436684Y-68032128D01*
X52436684Y-68032128D02*
X52293826Y-68103557D01*
X52936684Y-68960700D02*
X52793826Y-69032128D01*
X52793826Y-69032128D02*
X52436684Y-69032128D01*
X52436684Y-69032128D02*
X52293826Y-68960700D01*
X52293826Y-68960700D02*
X52222398Y-68817842D01*
X52222398Y-68817842D02*
X52222398Y-68674985D01*
X52222398Y-68674985D02*
X52293826Y-68532128D01*
X52293826Y-68532128D02*
X52436684Y-68460700D01*
X52436684Y-68460700D02*
X52793826Y-68460700D01*
X52793826Y-68460700D02*
X52936684Y-68389271D01*
X53436684Y-68032128D02*
X54008112Y-68032128D01*
X53650969Y-67532128D02*
X53650969Y-68817842D01*
X53650969Y-68817842D02*
X53722398Y-68960700D01*
X53722398Y-68960700D02*
X53865255Y-69032128D01*
X53865255Y-69032128D02*
X54008112Y-69032128D01*
X55150970Y-68032128D02*
X55150970Y-69032128D01*
X54508112Y-68032128D02*
X54508112Y-68817842D01*
X54508112Y-68817842D02*
X54579541Y-68960700D01*
X54579541Y-68960700D02*
X54722398Y-69032128D01*
X54722398Y-69032128D02*
X54936684Y-69032128D01*
X54936684Y-69032128D02*
X55079541Y-68960700D01*
X55079541Y-68960700D02*
X55150970Y-68889271D01*
X55865255Y-69032128D02*
X55865255Y-68032128D01*
X55865255Y-68174985D02*
X55936684Y-68103557D01*
X55936684Y-68103557D02*
X56079541Y-68032128D01*
X56079541Y-68032128D02*
X56293827Y-68032128D01*
X56293827Y-68032128D02*
X56436684Y-68103557D01*
X56436684Y-68103557D02*
X56508113Y-68246414D01*
X56508113Y-68246414D02*
X56508113Y-69032128D01*
X56508113Y-68246414D02*
X56579541Y-68103557D01*
X56579541Y-68103557D02*
X56722398Y-68032128D01*
X56722398Y-68032128D02*
X56936684Y-68032128D01*
X56936684Y-68032128D02*
X57079541Y-68103557D01*
X57079541Y-68103557D02*
X57150970Y-68246414D01*
X57150970Y-68246414D02*
X57150970Y-69032128D01*
D10*
D11*
X64338000Y-82846000D02*
X64338000Y-85846000D01*
D10*
D11*
X128338000Y-82846000D02*
X128338000Y-89346000D01*
D14*
%TO.C,D5*%
X40462200Y2590800D02*
X39801800Y2590800D01*
X40130738Y2697812D02*
X39800538Y2977212D01*
X40460938Y2977212D01*
X40130738Y2697812D01*
G36*
X40130738Y2697812D02*
G01*
X39800538Y2977212D01*
X40460938Y2977212D01*
X40130738Y2697812D01*
G37*
%TO.C,D2*%
X17246600Y8026400D02*
X17246600Y9245600D01*
X18313400Y9245600D02*
X18313400Y8026400D01*
X17868900Y7239000D02*
G75*
G02*
X17691100Y7239000I-88900J0D01*
G01*
X17691100Y7239000D02*
G75*
G02*
X17868900Y7239000I88900J0D01*
G01*
D15*
%TO.C,G1*%
G36*
X32278327Y35730327D02*
G01*
X32343660Y35710538D01*
X32402480Y35671144D01*
X32408086Y35666184D01*
X32452397Y35614214D01*
X32480942Y35550983D01*
X32494993Y35472895D01*
X32496979Y35414891D01*
X32494426Y35354831D01*
X32486735Y35309271D01*
X32472158Y35268807D01*
X32468320Y35260616D01*
X32423713Y35193649D01*
X32365324Y35144946D01*
X32296670Y35115952D01*
X32221269Y35108111D01*
X32142639Y35122866D01*
X32137245Y35124733D01*
X32075606Y35158855D01*
X32022038Y35212694D01*
X31992787Y35257952D01*
X31979828Y35286740D01*
X31971904Y35318647D01*
X31967908Y35360607D01*
X31966733Y35419558D01*
X31966730Y35421184D01*
X31967521Y35478928D01*
X31970965Y35520171D01*
X31978398Y35552518D01*
X31991153Y35583575D01*
X31997416Y35596121D01*
X32042384Y35660688D01*
X32100377Y35704947D01*
X32171194Y35728764D01*
X32200643Y35732371D01*
X32278327Y35730327D01*
G37*
G36*
X37856318Y34653237D02*
G01*
X37892454Y34633599D01*
X37909906Y34604132D01*
X37906666Y34567507D01*
X37892845Y34541601D01*
X37880313Y34519883D01*
X37883259Y34504454D01*
X37892845Y34492693D01*
X37909795Y34469582D01*
X37906706Y34457926D01*
X37887753Y34455148D01*
X37863706Y34465824D01*
X37849598Y34485329D01*
X37831263Y34508805D01*
X37810289Y34514730D01*
X37793807Y34502735D01*
X37789255Y34488470D01*
X37777927Y34465472D01*
X37764271Y34457404D01*
X37754007Y34457916D01*
X37747706Y34467178D01*
X37744431Y34489599D01*
X37743246Y34529589D01*
X37743145Y34556877D01*
X37743145Y34587943D01*
X37791434Y34587943D01*
X37793792Y34561922D01*
X37805266Y34553160D01*
X37824632Y34553942D01*
X37849500Y34561629D01*
X37857610Y34581220D01*
X37857831Y34587943D01*
X37852523Y34611160D01*
X37831999Y34620895D01*
X37824632Y34621943D01*
X37801553Y34621911D01*
X37792703Y34609859D01*
X37791434Y34587943D01*
X37743145Y34587943D01*
X37743145Y34660376D01*
X37803506Y34660376D01*
X37856318Y34653237D01*
G37*
G36*
X37891858Y34746038D02*
G01*
X37950922Y34714907D01*
X37995776Y34665988D01*
X38023505Y34601711D01*
X38027025Y34585711D01*
X38026708Y34526019D01*
X38006969Y34466190D01*
X37971530Y34412963D01*
X37924110Y34373081D01*
X37904053Y34362965D01*
X37859612Y34351153D01*
X37808905Y34347402D01*
X37762473Y34351867D01*
X37737108Y34360527D01*
X37679575Y34403521D01*
X37639484Y34457086D01*
X37617834Y34516995D01*
X37616616Y34551165D01*
X37664675Y34551165D01*
X37666138Y34508568D01*
X37672710Y34480559D01*
X37687668Y34457648D01*
X37702324Y34442107D01*
X37749970Y34408983D01*
X37805169Y34393153D01*
X37861170Y34395077D01*
X37911222Y34415213D01*
X37926347Y34426885D01*
X37964100Y34475300D01*
X37981425Y34529792D01*
X37979370Y34585408D01*
X37958986Y34637196D01*
X37921323Y34680203D01*
X37867429Y34709478D01*
X37866364Y34709833D01*
X37810663Y34716101D01*
X37754943Y34700212D01*
X37704116Y34663646D01*
X37700390Y34659853D01*
X37679644Y34635024D01*
X37668900Y34610107D01*
X37665021Y34575554D01*
X37664675Y34551165D01*
X37616616Y34551165D01*
X37615623Y34579020D01*
X37633850Y34638932D01*
X37661657Y34680077D01*
X37710857Y34725396D01*
X37763180Y34749964D01*
X37821496Y34756954D01*
X37891858Y34746038D01*
G37*
G36*
X37030882Y36510376D02*
G01*
X37184529Y36457763D01*
X37327596Y36385090D01*
X37458011Y36294113D01*
X37573701Y36186589D01*
X37672594Y36064272D01*
X37752617Y35928919D01*
X37775377Y35879733D01*
X37808263Y35797831D01*
X37831478Y35724214D01*
X37846837Y35650495D01*
X37856155Y35568286D01*
X37860676Y35485622D01*
X37858015Y35328193D01*
X37837010Y35183712D01*
X37796593Y35048263D01*
X37735695Y34917928D01*
X37681994Y34830150D01*
X37581722Y34701561D01*
X37464850Y34590040D01*
X37332814Y34496604D01*
X37187050Y34422266D01*
X37028994Y34368044D01*
X37028684Y34367962D01*
X36928268Y34341110D01*
X34927294Y34337460D01*
X32926319Y34333809D01*
X32926319Y35197283D01*
X32926319Y36060756D01*
X32987033Y36060756D01*
X33009155Y36003413D01*
X33017590Y35980919D01*
X33033391Y35938158D01*
X33055670Y35877551D01*
X33083541Y35801523D01*
X33116116Y35712494D01*
X33152507Y35612889D01*
X33191830Y35505131D01*
X33233195Y35391640D01*
X33241215Y35369620D01*
X33451153Y34793171D01*
X33658918Y34793171D01*
X33866682Y34793171D01*
X33920699Y34965200D01*
X33943944Y35039412D01*
X33971455Y35127525D01*
X34000373Y35220371D01*
X34027842Y35308780D01*
X34038282Y35342458D01*
X34059173Y35409164D01*
X34077971Y35467792D01*
X34093396Y35514467D01*
X34104173Y35545315D01*
X34108785Y35556279D01*
X34114066Y35547714D01*
X34125181Y35519054D01*
X34141092Y35473353D01*
X34160758Y35413660D01*
X34183141Y35343027D01*
X34199266Y35290690D01*
X34225277Y35205403D01*
X34251196Y35120564D01*
X34275445Y35041324D01*
X34296448Y34972831D01*
X34312629Y34920235D01*
X34317386Y34904839D01*
X34351963Y34793171D01*
X34560175Y34793171D01*
X34768388Y34793171D01*
X35280407Y34793171D01*
X35491671Y34793171D01*
X35702935Y34793171D01*
X35775369Y34793171D01*
X35986633Y34793171D01*
X36197897Y34793171D01*
X36197897Y35426964D01*
X36197897Y35474047D01*
X36275095Y35474047D01*
X36276208Y35355741D01*
X36295878Y35239526D01*
X36334441Y35129274D01*
X36376853Y35051445D01*
X36449724Y34959974D01*
X36537808Y34886995D01*
X36640358Y34832884D01*
X36756626Y34798016D01*
X36885865Y34782767D01*
X36913178Y34782104D01*
X37018810Y34781098D01*
X37018810Y34948457D01*
X37018810Y35115816D01*
X36939972Y35122144D01*
X36866319Y35135134D01*
X36809310Y35162730D01*
X36764393Y35207977D01*
X36733442Y35260285D01*
X36706426Y35338018D01*
X36696880Y35420443D01*
X36704060Y35502148D01*
X36727220Y35577721D01*
X36765615Y35641748D01*
X36789458Y35666991D01*
X36848574Y35706778D01*
X36915369Y35729294D01*
X36974300Y35732458D01*
X37012774Y35728770D01*
X37016123Y35900799D01*
X37019473Y36072829D01*
X36979907Y36074743D01*
X36842928Y36071431D01*
X36717678Y36047872D01*
X36604933Y36004336D01*
X36505469Y35941092D01*
X36449513Y35890778D01*
X36379748Y35802811D01*
X36327200Y35701453D01*
X36292204Y35590575D01*
X36275095Y35474047D01*
X36197897Y35474047D01*
X36197897Y36060756D01*
X35986633Y36060756D01*
X35775369Y36060756D01*
X35775369Y35426964D01*
X35775369Y34793171D01*
X35702935Y34793171D01*
X35702935Y35426964D01*
X35702935Y36060756D01*
X35491671Y36060756D01*
X35280407Y36060756D01*
X35280407Y35426964D01*
X35280407Y34793171D01*
X34768388Y34793171D01*
X34965928Y35333404D01*
X35000139Y35426964D01*
X35006999Y35445726D01*
X35046650Y35554166D01*
X35083880Y35655986D01*
X35117688Y35748447D01*
X35147072Y35828813D01*
X35171032Y35894343D01*
X35188565Y35942302D01*
X35197770Y35967481D01*
X35232072Y36061326D01*
X35025431Y36058023D01*
X34818790Y36054720D01*
X34697076Y35641246D01*
X34668843Y35545947D01*
X34642561Y35458405D01*
X34619038Y35381218D01*
X34599079Y35316982D01*
X34583490Y35268296D01*
X34573079Y35237757D01*
X34568735Y35227917D01*
X34563985Y35239128D01*
X34553406Y35270962D01*
X34537788Y35320821D01*
X34517921Y35386110D01*
X34494596Y35464231D01*
X34468603Y35552588D01*
X34441939Y35644409D01*
X34321769Y36060756D01*
X34119942Y36060756D01*
X33918116Y36060756D01*
X33905636Y36021521D01*
X33898750Y35998785D01*
X33885690Y35954561D01*
X33866955Y35890564D01*
X33843044Y35808512D01*
X33814456Y35710121D01*
X33781690Y35597106D01*
X33745246Y35471184D01*
X33705621Y35334071D01*
X33689210Y35277230D01*
X33670382Y35212002D01*
X33656305Y35253085D01*
X33649549Y35274422D01*
X33636933Y35315833D01*
X33619380Y35374225D01*
X33597817Y35446501D01*
X33573167Y35529566D01*
X33546356Y35620323D01*
X33529535Y35677463D01*
X33416841Y36060756D01*
X33201937Y36060756D01*
X32987033Y36060756D01*
X32926319Y36060756D01*
X32715055Y36060756D01*
X32503791Y36060756D01*
X32503791Y35988323D01*
X32501214Y35946294D01*
X32494400Y35920970D01*
X32484727Y35914729D01*
X32473569Y35929949D01*
X32472103Y35933573D01*
X32457394Y35951026D01*
X32427324Y35974960D01*
X32388205Y36001220D01*
X32346353Y36025653D01*
X32308082Y36044104D01*
X32298563Y36047740D01*
X32192278Y36073117D01*
X32083810Y36077136D01*
X31976737Y36061117D01*
X31874636Y36026381D01*
X31781086Y35974247D01*
X31699663Y35906036D01*
X31633947Y35823069D01*
X31618514Y35796761D01*
X31577062Y35698330D01*
X31550566Y35586638D01*
X31539020Y35467373D01*
X31542420Y35346225D01*
X31560760Y35228881D01*
X31594035Y35121032D01*
X31619185Y35066915D01*
X31661975Y35002402D01*
X31718586Y34938844D01*
X31781965Y34883126D01*
X31845058Y34842133D01*
X31854033Y34837692D01*
X31933316Y34806332D01*
X32013405Y34788299D01*
X32102675Y34782099D01*
X32159093Y34783207D01*
X32256499Y34794667D01*
X32338780Y34821135D01*
X32411237Y34864746D01*
X32454411Y34902162D01*
X32503791Y34950083D01*
X32503791Y34642254D01*
X32503791Y34334425D01*
X32295545Y34335620D01*
X32218188Y34336949D01*
X32140992Y34339836D01*
X32070677Y34343921D01*
X32013960Y34348847D01*
X31990316Y34351890D01*
X31834707Y34388018D01*
X31687657Y34445982D01*
X31550978Y34524437D01*
X31426479Y34622038D01*
X31315973Y34737439D01*
X31221271Y34869295D01*
X31169970Y34961339D01*
X31114934Y35097016D01*
X31079458Y35242310D01*
X31063548Y35392990D01*
X31067208Y35544824D01*
X31090444Y35693579D01*
X31133260Y35835025D01*
X31168901Y35915723D01*
X31254634Y36061734D01*
X31356047Y36189387D01*
X31473095Y36298647D01*
X31605730Y36389474D01*
X31753906Y36461834D01*
X31917578Y36515689D01*
X31921458Y36516693D01*
X31932071Y36519138D01*
X31944773Y36521386D01*
X31960568Y36523444D01*
X31980460Y36525322D01*
X32005451Y36527027D01*
X32036546Y36528568D01*
X32074747Y36529953D01*
X32121058Y36531190D01*
X32176483Y36532287D01*
X32242024Y36533253D01*
X32318684Y36534096D01*
X32407468Y36534824D01*
X32509379Y36535445D01*
X32625420Y36535968D01*
X32756593Y36536401D01*
X32903904Y36536752D01*
X33068354Y36537029D01*
X33250948Y36537241D01*
X33452688Y36537396D01*
X33674579Y36537502D01*
X33917623Y36537568D01*
X34182823Y36537601D01*
X34465530Y36537610D01*
X36928268Y36537610D01*
X37030882Y36510376D01*
G37*
D14*
%TO.C,D3*%
X15722600Y8026400D02*
X15722600Y9245600D01*
X16789400Y9245600D02*
X16789400Y8026400D01*
X16344900Y7239000D02*
G75*
G02*
X16167100Y7239000I-88900J0D01*
G01*
X16167100Y7239000D02*
G75*
G02*
X16344900Y7239000I88900J0D01*
G01*
%TO.C,D4*%
X14198600Y8026400D02*
X14198600Y9245600D01*
X15265400Y9245600D02*
X15265400Y8026400D01*
X14820900Y7239000D02*
G75*
G02*
X14643100Y7239000I-88900J0D01*
G01*
X14643100Y7239000D02*
G75*
G02*
X14820900Y7239000I88900J0D01*
G01*
D15*
%TO.C,G2*%
G36*
X40914327Y35730327D02*
G01*
X40979660Y35710538D01*
X41038480Y35671144D01*
X41044086Y35666184D01*
X41088397Y35614214D01*
X41116942Y35550983D01*
X41130993Y35472895D01*
X41132979Y35414891D01*
X41130426Y35354831D01*
X41122735Y35309271D01*
X41108158Y35268807D01*
X41104320Y35260616D01*
X41059713Y35193649D01*
X41001324Y35144946D01*
X40932670Y35115952D01*
X40857269Y35108111D01*
X40778639Y35122866D01*
X40773245Y35124733D01*
X40711606Y35158855D01*
X40658038Y35212694D01*
X40628787Y35257952D01*
X40615828Y35286740D01*
X40607904Y35318647D01*
X40603908Y35360607D01*
X40602733Y35419558D01*
X40602730Y35421184D01*
X40603521Y35478928D01*
X40606965Y35520171D01*
X40614398Y35552518D01*
X40627153Y35583575D01*
X40633416Y35596121D01*
X40678384Y35660688D01*
X40736377Y35704947D01*
X40807194Y35728764D01*
X40836643Y35732371D01*
X40914327Y35730327D01*
G37*
G36*
X46492318Y34653237D02*
G01*
X46528454Y34633599D01*
X46545906Y34604132D01*
X46542666Y34567507D01*
X46528845Y34541601D01*
X46516313Y34519883D01*
X46519259Y34504454D01*
X46528845Y34492693D01*
X46545795Y34469582D01*
X46542706Y34457926D01*
X46523753Y34455148D01*
X46499706Y34465824D01*
X46485598Y34485329D01*
X46467263Y34508805D01*
X46446289Y34514730D01*
X46429807Y34502735D01*
X46425255Y34488470D01*
X46413927Y34465472D01*
X46400271Y34457404D01*
X46390007Y34457916D01*
X46383706Y34467178D01*
X46380431Y34489599D01*
X46379246Y34529589D01*
X46379145Y34556877D01*
X46379145Y34587943D01*
X46427434Y34587943D01*
X46429792Y34561922D01*
X46441266Y34553160D01*
X46460632Y34553942D01*
X46485500Y34561629D01*
X46493610Y34581220D01*
X46493831Y34587943D01*
X46488523Y34611160D01*
X46467999Y34620895D01*
X46460632Y34621943D01*
X46437553Y34621911D01*
X46428703Y34609859D01*
X46427434Y34587943D01*
X46379145Y34587943D01*
X46379145Y34660376D01*
X46439506Y34660376D01*
X46492318Y34653237D01*
G37*
G36*
X46527858Y34746038D02*
G01*
X46586922Y34714907D01*
X46631776Y34665988D01*
X46659505Y34601711D01*
X46663025Y34585711D01*
X46662708Y34526019D01*
X46642969Y34466190D01*
X46607530Y34412963D01*
X46560110Y34373081D01*
X46540053Y34362965D01*
X46495612Y34351153D01*
X46444905Y34347402D01*
X46398473Y34351867D01*
X46373108Y34360527D01*
X46315575Y34403521D01*
X46275484Y34457086D01*
X46253834Y34516995D01*
X46252616Y34551165D01*
X46300675Y34551165D01*
X46302138Y34508568D01*
X46308710Y34480559D01*
X46323668Y34457648D01*
X46338324Y34442107D01*
X46385970Y34408983D01*
X46441169Y34393153D01*
X46497170Y34395077D01*
X46547222Y34415213D01*
X46562347Y34426885D01*
X46600100Y34475300D01*
X46617425Y34529792D01*
X46615370Y34585408D01*
X46594986Y34637196D01*
X46557323Y34680203D01*
X46503429Y34709478D01*
X46502364Y34709833D01*
X46446663Y34716101D01*
X46390943Y34700212D01*
X46340116Y34663646D01*
X46336390Y34659853D01*
X46315644Y34635024D01*
X46304900Y34610107D01*
X46301021Y34575554D01*
X46300675Y34551165D01*
X46252616Y34551165D01*
X46251623Y34579020D01*
X46269850Y34638932D01*
X46297657Y34680077D01*
X46346857Y34725396D01*
X46399180Y34749964D01*
X46457496Y34756954D01*
X46527858Y34746038D01*
G37*
G36*
X45666882Y36510376D02*
G01*
X45820529Y36457763D01*
X45963596Y36385090D01*
X46094011Y36294113D01*
X46209701Y36186589D01*
X46308594Y36064272D01*
X46388617Y35928919D01*
X46411377Y35879733D01*
X46444263Y35797831D01*
X46467478Y35724214D01*
X46482837Y35650495D01*
X46492155Y35568286D01*
X46496676Y35485622D01*
X46494015Y35328193D01*
X46473010Y35183712D01*
X46432593Y35048263D01*
X46371695Y34917928D01*
X46317994Y34830150D01*
X46217722Y34701561D01*
X46100850Y34590040D01*
X45968814Y34496604D01*
X45823050Y34422266D01*
X45664994Y34368044D01*
X45664684Y34367962D01*
X45564268Y34341110D01*
X43563294Y34337460D01*
X41562319Y34333809D01*
X41562319Y35197283D01*
X41562319Y36060756D01*
X41623033Y36060756D01*
X41645155Y36003413D01*
X41653590Y35980919D01*
X41669391Y35938158D01*
X41691670Y35877551D01*
X41719541Y35801523D01*
X41752116Y35712494D01*
X41788507Y35612889D01*
X41827830Y35505131D01*
X41869195Y35391640D01*
X41877215Y35369620D01*
X42087153Y34793171D01*
X42294918Y34793171D01*
X42502682Y34793171D01*
X42556699Y34965200D01*
X42579944Y35039412D01*
X42607455Y35127525D01*
X42636373Y35220371D01*
X42663842Y35308780D01*
X42674282Y35342458D01*
X42695173Y35409164D01*
X42713971Y35467792D01*
X42729396Y35514467D01*
X42740173Y35545315D01*
X42744785Y35556279D01*
X42750066Y35547714D01*
X42761181Y35519054D01*
X42777092Y35473353D01*
X42796758Y35413660D01*
X42819141Y35343027D01*
X42835266Y35290690D01*
X42861277Y35205403D01*
X42887196Y35120564D01*
X42911445Y35041324D01*
X42932448Y34972831D01*
X42948629Y34920235D01*
X42953386Y34904839D01*
X42987963Y34793171D01*
X43196175Y34793171D01*
X43404388Y34793171D01*
X43916407Y34793171D01*
X44127671Y34793171D01*
X44338935Y34793171D01*
X44411369Y34793171D01*
X44622633Y34793171D01*
X44833897Y34793171D01*
X44833897Y35426964D01*
X44833897Y35474047D01*
X44911095Y35474047D01*
X44912208Y35355741D01*
X44931878Y35239526D01*
X44970441Y35129274D01*
X45012853Y35051445D01*
X45085724Y34959974D01*
X45173808Y34886995D01*
X45276358Y34832884D01*
X45392626Y34798016D01*
X45521865Y34782767D01*
X45549178Y34782104D01*
X45654810Y34781098D01*
X45654810Y34948457D01*
X45654810Y35115816D01*
X45575972Y35122144D01*
X45502319Y35135134D01*
X45445310Y35162730D01*
X45400393Y35207977D01*
X45369442Y35260285D01*
X45342426Y35338018D01*
X45332880Y35420443D01*
X45340060Y35502148D01*
X45363220Y35577721D01*
X45401615Y35641748D01*
X45425458Y35666991D01*
X45484574Y35706778D01*
X45551369Y35729294D01*
X45610300Y35732458D01*
X45648774Y35728770D01*
X45652123Y35900799D01*
X45655473Y36072829D01*
X45615907Y36074743D01*
X45478928Y36071431D01*
X45353678Y36047872D01*
X45240933Y36004336D01*
X45141469Y35941092D01*
X45085513Y35890778D01*
X45015748Y35802811D01*
X44963200Y35701453D01*
X44928204Y35590575D01*
X44911095Y35474047D01*
X44833897Y35474047D01*
X44833897Y36060756D01*
X44622633Y36060756D01*
X44411369Y36060756D01*
X44411369Y35426964D01*
X44411369Y34793171D01*
X44338935Y34793171D01*
X44338935Y35426964D01*
X44338935Y36060756D01*
X44127671Y36060756D01*
X43916407Y36060756D01*
X43916407Y35426964D01*
X43916407Y34793171D01*
X43404388Y34793171D01*
X43601928Y35333404D01*
X43636139Y35426964D01*
X43642999Y35445726D01*
X43682650Y35554166D01*
X43719880Y35655986D01*
X43753688Y35748447D01*
X43783072Y35828813D01*
X43807032Y35894343D01*
X43824565Y35942302D01*
X43833770Y35967481D01*
X43868072Y36061326D01*
X43661431Y36058023D01*
X43454790Y36054720D01*
X43333076Y35641246D01*
X43304843Y35545947D01*
X43278561Y35458405D01*
X43255038Y35381218D01*
X43235079Y35316982D01*
X43219490Y35268296D01*
X43209079Y35237757D01*
X43204735Y35227917D01*
X43199985Y35239128D01*
X43189406Y35270962D01*
X43173788Y35320821D01*
X43153921Y35386110D01*
X43130596Y35464231D01*
X43104603Y35552588D01*
X43077939Y35644409D01*
X42957769Y36060756D01*
X42755942Y36060756D01*
X42554116Y36060756D01*
X42541636Y36021521D01*
X42534750Y35998785D01*
X42521690Y35954561D01*
X42502955Y35890564D01*
X42479044Y35808512D01*
X42450456Y35710121D01*
X42417690Y35597106D01*
X42381246Y35471184D01*
X42341621Y35334071D01*
X42325210Y35277230D01*
X42306382Y35212002D01*
X42292305Y35253085D01*
X42285549Y35274422D01*
X42272933Y35315833D01*
X42255380Y35374225D01*
X42233817Y35446501D01*
X42209167Y35529566D01*
X42182356Y35620323D01*
X42165535Y35677463D01*
X42052841Y36060756D01*
X41837937Y36060756D01*
X41623033Y36060756D01*
X41562319Y36060756D01*
X41351055Y36060756D01*
X41139791Y36060756D01*
X41139791Y35988323D01*
X41137214Y35946294D01*
X41130400Y35920970D01*
X41120727Y35914729D01*
X41109569Y35929949D01*
X41108103Y35933573D01*
X41093394Y35951026D01*
X41063324Y35974960D01*
X41024205Y36001220D01*
X40982353Y36025653D01*
X40944082Y36044104D01*
X40934563Y36047740D01*
X40828278Y36073117D01*
X40719810Y36077136D01*
X40612737Y36061117D01*
X40510636Y36026381D01*
X40417086Y35974247D01*
X40335663Y35906036D01*
X40269947Y35823069D01*
X40254514Y35796761D01*
X40213062Y35698330D01*
X40186566Y35586638D01*
X40175020Y35467373D01*
X40178420Y35346225D01*
X40196760Y35228881D01*
X40230035Y35121032D01*
X40255185Y35066915D01*
X40297975Y35002402D01*
X40354586Y34938844D01*
X40417965Y34883126D01*
X40481058Y34842133D01*
X40490033Y34837692D01*
X40569316Y34806332D01*
X40649405Y34788299D01*
X40738675Y34782099D01*
X40795093Y34783207D01*
X40892499Y34794667D01*
X40974780Y34821135D01*
X41047237Y34864746D01*
X41090411Y34902162D01*
X41139791Y34950083D01*
X41139791Y34642254D01*
X41139791Y34334425D01*
X40931545Y34335620D01*
X40854188Y34336949D01*
X40776992Y34339836D01*
X40706677Y34343921D01*
X40649960Y34348847D01*
X40626316Y34351890D01*
X40470707Y34388018D01*
X40323657Y34445982D01*
X40186978Y34524437D01*
X40062479Y34622038D01*
X39951973Y34737439D01*
X39857271Y34869295D01*
X39805970Y34961339D01*
X39750934Y35097016D01*
X39715458Y35242310D01*
X39699548Y35392990D01*
X39703208Y35544824D01*
X39726444Y35693579D01*
X39769260Y35835025D01*
X39804901Y35915723D01*
X39890634Y36061734D01*
X39992047Y36189387D01*
X40109095Y36298647D01*
X40241730Y36389474D01*
X40389906Y36461834D01*
X40553578Y36515689D01*
X40557458Y36516693D01*
X40568071Y36519138D01*
X40580773Y36521386D01*
X40596568Y36523444D01*
X40616460Y36525322D01*
X40641451Y36527027D01*
X40672546Y36528568D01*
X40710747Y36529953D01*
X40757058Y36531190D01*
X40812483Y36532287D01*
X40878024Y36533253D01*
X40954684Y36534096D01*
X41043468Y36534824D01*
X41145379Y36535445D01*
X41261420Y36535968D01*
X41392593Y36536401D01*
X41539904Y36536752D01*
X41704354Y36537029D01*
X41886948Y36537241D01*
X42088688Y36537396D01*
X42310579Y36537502D01*
X42553623Y36537568D01*
X42818823Y36537601D01*
X43101530Y36537610D01*
X45564268Y36537610D01*
X45666882Y36510376D01*
G37*
D14*
%TO.C,U1*%
X16560800Y18237200D02*
X17094200Y18237200D01*
X16560800Y17703800D02*
X16560800Y18237200D01*
X16560800Y13258800D02*
X16560800Y13792200D01*
X17094200Y13258800D02*
X16560800Y13258800D01*
X21539200Y18237200D02*
X21005800Y18237200D01*
X21539200Y18237200D02*
X21539200Y17703800D01*
X21539200Y13792200D02*
X21539200Y13258800D01*
X21539200Y13258800D02*
X21005800Y13258800D01*
X17638900Y12293000D02*
G75*
G02*
X17461100Y12293000I-88900J0D01*
G01*
X17461100Y12293000D02*
G75*
G02*
X17638900Y12293000I88900J0D01*
G01*
D16*
%TO.C,J5*%
X6604000Y5588000D02*
X9144000Y5588000D01*
X6604000Y508000D02*
X6604000Y5588000D01*
X9144000Y508000D02*
X6604000Y508000D01*
X9144000Y508000D02*
X9144000Y5588000D01*
D14*
X7962900Y6223000D02*
G75*
G02*
X7785100Y6223000I-88900J0D01*
G01*
X7785100Y6223000D02*
G75*
G02*
X7962900Y6223000I88900J0D01*
G01*
%TO.C,J3*%
X31419800Y39290559D02*
X31419800Y38303200D01*
X31419800Y38303200D02*
X32381060Y38303200D01*
X36363559Y41452800D02*
X32724441Y41452800D01*
X36706940Y38303200D02*
X37668200Y38303200D01*
X37668200Y38303200D02*
X37668200Y39290559D01*
X32346900Y37846000D02*
G75*
G02*
X32169100Y37846000I-88900J0D01*
G01*
X32169100Y37846000D02*
G75*
G02*
X32346900Y37846000I88900J0D01*
G01*
%TO.C,U2*%
X9004300Y41082000D02*
G75*
G02*
X8826500Y41082000I-88900J0D01*
G01*
X8826500Y41082000D02*
G75*
G02*
X9004300Y41082000I88900J0D01*
G01*
%TO.C,S1*%
X23142000Y9096000D02*
X23142000Y3096000D01*
X23142000Y3096000D02*
X23892000Y3096000D01*
X23892000Y9096000D02*
X23142000Y9096000D01*
X25892000Y3096000D02*
X26642000Y3096000D01*
X26642000Y9096000D02*
X25892000Y9096000D01*
X26642000Y3096000D02*
X26642000Y9096000D01*
X24980900Y546000D02*
G75*
G02*
X24803100Y546000I-88900J0D01*
G01*
X24803100Y546000D02*
G75*
G02*
X24980900Y546000I88900J0D01*
G01*
%TO.C,Q2*%
X9474200Y11531600D02*
X9474200Y12471400D01*
X9474200Y11531600D02*
X10261600Y11531600D01*
X11582400Y11531600D02*
X12369800Y11531600D01*
X12369800Y12471400D02*
X12369800Y11531600D01*
X13042900Y13208000D02*
G75*
G02*
X12865100Y13208000I-88900J0D01*
G01*
X12865100Y13208000D02*
G75*
G02*
X13042900Y13208000I88900J0D01*
G01*
%TO.C,J8*%
X11440000Y5140000D02*
X11440000Y3440000D01*
X11440000Y5140000D02*
X12700000Y5140000D01*
X11440000Y940000D02*
X11440000Y254000D01*
X19040000Y5140000D02*
X17780000Y5140000D01*
X19040000Y5140000D02*
X19040000Y3440000D01*
X19040000Y254000D02*
X19040000Y940000D01*
%TO.C,J1*%
X508000Y32258000D02*
X8128000Y32258000D01*
X508000Y29718000D02*
X8128000Y29718000D01*
X508000Y27178000D02*
X8128000Y27178000D01*
X508000Y24638000D02*
X8128000Y24638000D01*
X508000Y22098000D02*
X8128000Y22098000D01*
X508000Y19558000D02*
X8128000Y19558000D01*
X508000Y17018000D02*
X8128000Y17018000D01*
X508000Y14478000D02*
X8128000Y14478000D01*
X508000Y11938000D02*
X508000Y32258000D01*
X8128000Y11938000D02*
X508000Y11938000D01*
X8128000Y11938000D02*
X8128000Y32258000D01*
%TO.C,J4*%
X40055800Y39290559D02*
X40055800Y38303200D01*
X40055800Y38303200D02*
X41017060Y38303200D01*
X44999559Y41452800D02*
X41360441Y41452800D01*
X45342940Y38303200D02*
X46304200Y38303200D01*
X46304200Y38303200D02*
X46304200Y39290559D01*
X40982900Y37846000D02*
G75*
G02*
X40805100Y37846000I-88900J0D01*
G01*
X40805100Y37846000D02*
G75*
G02*
X40982900Y37846000I88900J0D01*
G01*
%TO.C,Q1*%
X9474200Y19024600D02*
X9474200Y19964400D01*
X10261600Y19964400D02*
X9474200Y19964400D01*
X12369800Y19964400D02*
X11582400Y19964400D01*
X12369800Y19964400D02*
X12369800Y19024600D01*
X8978900Y18288000D02*
G75*
G02*
X8801100Y18288000I-88900J0D01*
G01*
X8801100Y18288000D02*
G75*
G02*
X8978900Y18288000I88900J0D01*
G01*
%TO.C,U3*%
X36144200Y6985000D02*
X39039800Y6985000D01*
X36144200Y6223000D02*
X36144200Y6985000D01*
X39039800Y6985000D02*
X39039800Y6223000D01*
X39039800Y6223000D02*
X36144200Y6223000D01*
X39331900Y7904000D02*
G75*
G02*
X39154100Y7904000I-88900J0D01*
G01*
X39154100Y7904000D02*
G75*
G02*
X39331900Y7904000I88900J0D01*
G01*
%TO.C,J6*%
X30774000Y33931000D02*
X31274000Y33931000D01*
X30774000Y23981000D02*
X30774000Y33931000D01*
X31274000Y23981000D02*
X30774000Y23981000D01*
X38823900Y26956000D02*
G75*
G02*
X38646100Y26956000I-88900J0D01*
G01*
X38646100Y26956000D02*
G75*
G02*
X38823900Y26956000I88900J0D01*
G01*
%TO.C,D1*%
X12293600Y9220200D02*
X12293600Y7543800D01*
X13614400Y7543800D02*
X13614400Y9220200D01*
X13042900Y10566400D02*
G75*
G02*
X12865100Y10566400I-88900J0D01*
G01*
X12865100Y10566400D02*
G75*
G02*
X13042900Y10566400I88900J0D01*
G01*
%TO.C,J7*%
X40426000Y33931000D02*
X40926000Y33931000D01*
X40426000Y23981000D02*
X40426000Y33931000D01*
X40926000Y23981000D02*
X40426000Y23981000D01*
X48475900Y26956000D02*
G75*
G02*
X48298100Y26956000I-88900J0D01*
G01*
X48298100Y26956000D02*
G75*
G02*
X48475900Y26956000I88900J0D01*
G01*
D15*
%TO.C,G5*%
G36*
X35353782Y13534935D02*
G01*
X35358810Y13532270D01*
X35359518Y13527845D01*
X35359323Y13527030D01*
X35357219Y13518719D01*
X35353335Y13502814D01*
X35348234Y13481646D01*
X35342825Y13458985D01*
X35328776Y13399866D01*
X35304217Y13386061D01*
X35262788Y13366528D01*
X35222562Y13355698D01*
X35183047Y13352801D01*
X35161656Y13353655D01*
X35142118Y13355462D01*
X35128505Y13357840D01*
X35128062Y13357964D01*
X35108521Y13368451D01*
X35095814Y13385959D01*
X35090807Y13409234D01*
X35090763Y13411848D01*
X35093833Y13438982D01*
X35103435Y13461987D01*
X35120158Y13481249D01*
X35144590Y13497157D01*
X35177320Y13510097D01*
X35218936Y13520458D01*
X35267514Y13528301D01*
X35301302Y13532522D01*
X35326177Y13535045D01*
X35343288Y13535854D01*
X35353782Y13534935D01*
G37*
G36*
X34794684Y21442083D02*
G01*
X34797663Y21427652D01*
X34802021Y21406297D01*
X34807445Y21379554D01*
X34813621Y21348964D01*
X34815513Y21339570D01*
X34822378Y21305630D01*
X34829099Y21272722D01*
X34835226Y21243028D01*
X34840307Y21218727D01*
X34843895Y21201999D01*
X34844190Y21200662D01*
X34851827Y21166312D01*
X34997989Y21164959D01*
X35144151Y21163606D01*
X35039676Y21091660D01*
X35009536Y21070935D01*
X34980986Y21051360D01*
X34955485Y21033932D01*
X34934493Y21019647D01*
X34919470Y21009501D01*
X34913525Y21005550D01*
X34901183Y20997113D01*
X34893332Y20991027D01*
X34891848Y20989300D01*
X34892784Y20983645D01*
X34895253Y20970653D01*
X34898749Y20952980D01*
X34899259Y20950450D01*
X34908297Y20905185D01*
X34917039Y20860607D01*
X34925272Y20817865D01*
X34932785Y20778108D01*
X34939364Y20742486D01*
X34944799Y20712148D01*
X34948876Y20688245D01*
X34951385Y20671925D01*
X34952113Y20664338D01*
X34952078Y20664100D01*
X34947735Y20665315D01*
X34936100Y20672216D01*
X34917960Y20684260D01*
X34894103Y20700907D01*
X34865314Y20721614D01*
X34832382Y20745839D01*
X34820658Y20754574D01*
X34690815Y20851605D01*
X34667646Y20839024D01*
X34657411Y20833402D01*
X34639586Y20823541D01*
X34615489Y20810172D01*
X34586437Y20794028D01*
X34553747Y20775840D01*
X34518738Y20756340D01*
X34505445Y20748931D01*
X34471183Y20729859D01*
X34439878Y20712490D01*
X34412615Y20697422D01*
X34390479Y20685251D01*
X34374552Y20676574D01*
X34365920Y20671990D01*
X34364684Y20671418D01*
X34366513Y20675774D01*
X34372498Y20688142D01*
X34382110Y20707473D01*
X34394822Y20732716D01*
X34410105Y20762822D01*
X34427432Y20796741D01*
X34440755Y20822697D01*
X34518555Y20973976D01*
X34430129Y21068791D01*
X34341704Y21163606D01*
X34485440Y21165007D01*
X34629177Y21166407D01*
X34710751Y21309190D01*
X34730486Y21343561D01*
X34748567Y21374719D01*
X34764391Y21401655D01*
X34777359Y21423359D01*
X34786870Y21438822D01*
X34792322Y21447034D01*
X34793398Y21448051D01*
X34794684Y21442083D01*
G37*
G36*
X35872818Y21457157D02*
G01*
X35876155Y21443639D01*
X35880905Y21422654D01*
X35886791Y21395474D01*
X35893532Y21363368D01*
X35900848Y21327607D01*
X35901779Y21322994D01*
X35929780Y21184008D01*
X36076886Y21181458D01*
X36223992Y21178908D01*
X36186544Y21153179D01*
X36170455Y21142132D01*
X36147988Y21126718D01*
X36121183Y21108335D01*
X36092078Y21088380D01*
X36062712Y21068253D01*
X36061115Y21067158D01*
X36034833Y21048832D01*
X36011682Y21032086D01*
X35992910Y21017873D01*
X35979764Y21007144D01*
X35973489Y21000850D01*
X35973133Y20999987D01*
X35974105Y20993044D01*
X35976913Y20976962D01*
X35981392Y20952604D01*
X35987377Y20920833D01*
X35994704Y20882512D01*
X36003209Y20838504D01*
X36012727Y20789673D01*
X36023093Y20736883D01*
X36027289Y20715619D01*
X36030749Y20696755D01*
X36032921Y20682163D01*
X36033448Y20674359D01*
X36033262Y20673742D01*
X36028858Y20676190D01*
X36017324Y20684043D01*
X35999676Y20696570D01*
X35976931Y20713037D01*
X35950106Y20732714D01*
X35920218Y20754867D01*
X35909154Y20763120D01*
X35877913Y20786398D01*
X35848933Y20807863D01*
X35823326Y20826703D01*
X35802205Y20842103D01*
X35786682Y20853250D01*
X35777869Y20859328D01*
X35776700Y20860042D01*
X35772531Y20861139D01*
X35766264Y20860319D01*
X35756880Y20857104D01*
X35743360Y20851012D01*
X35724686Y20841564D01*
X35699837Y20828277D01*
X35667796Y20810673D01*
X35644090Y20797500D01*
X35609422Y20778199D01*
X35575419Y20759292D01*
X35543776Y20741721D01*
X35516189Y20726427D01*
X35494353Y20714350D01*
X35481442Y20707241D01*
X35441136Y20685146D01*
X35507889Y20814718D01*
X35525715Y20849269D01*
X35542577Y20881858D01*
X35557750Y20911091D01*
X35570507Y20935571D01*
X35580124Y20953904D01*
X35585874Y20964694D01*
X35586198Y20965286D01*
X35597754Y20986283D01*
X35583262Y21003539D01*
X35574895Y21013062D01*
X35561052Y21028329D01*
X35543264Y21047672D01*
X35523063Y21069422D01*
X35508904Y21084550D01*
X35488014Y21106905D01*
X35468577Y21127901D01*
X35452104Y21145893D01*
X35440104Y21159235D01*
X35435278Y21164801D01*
X35421518Y21181298D01*
X35565575Y21182653D01*
X35709632Y21184008D01*
X35789104Y21322952D01*
X35808682Y21357045D01*
X35826673Y21388108D01*
X35842449Y21415079D01*
X35855384Y21436898D01*
X35864850Y21452503D01*
X35870221Y21460833D01*
X35871177Y21461938D01*
X35872818Y21457157D01*
G37*
G36*
X37138776Y22475684D02*
G01*
X37142037Y22462861D01*
X37146690Y22442721D01*
X37152431Y22416608D01*
X37158955Y22385863D01*
X37163597Y22363424D01*
X37170766Y22328445D01*
X37177544Y22295432D01*
X37183564Y22266157D01*
X37188463Y22242394D01*
X37191876Y22225913D01*
X37192957Y22220742D01*
X37198041Y22196593D01*
X37344229Y22195240D01*
X37490416Y22193887D01*
X37426704Y22150887D01*
X37402148Y22134246D01*
X37375327Y22115957D01*
X37347640Y22096985D01*
X37320484Y22078296D01*
X37295255Y22060855D01*
X37273351Y22045627D01*
X37256170Y22033576D01*
X37245108Y22025669D01*
X37241849Y22023198D01*
X37242081Y22017830D01*
X37244009Y22003849D01*
X37247380Y21982656D01*
X37251940Y21955651D01*
X37257434Y21924233D01*
X37263608Y21889803D01*
X37270208Y21853761D01*
X37276980Y21817506D01*
X37283670Y21782439D01*
X37290023Y21749959D01*
X37295785Y21721467D01*
X37300702Y21698363D01*
X37301379Y21695323D01*
X37302620Y21687807D01*
X37302417Y21686398D01*
X37298248Y21689325D01*
X37286894Y21697621D01*
X37269345Y21710553D01*
X37246591Y21727387D01*
X37219624Y21747393D01*
X37189434Y21769837D01*
X37174109Y21781247D01*
X37142443Y21804768D01*
X37113256Y21826326D01*
X37087591Y21845160D01*
X37066490Y21860508D01*
X37050997Y21871610D01*
X37042154Y21877705D01*
X37040616Y21878614D01*
X37037972Y21878934D01*
X37033561Y21877949D01*
X37026576Y21875239D01*
X37016206Y21870382D01*
X37001642Y21862958D01*
X36982077Y21852546D01*
X36956699Y21838724D01*
X36924701Y21821071D01*
X36885273Y21799167D01*
X36847852Y21778308D01*
X36816808Y21761017D01*
X36787820Y21744927D01*
X36762379Y21730860D01*
X36741973Y21719638D01*
X36728091Y21712084D01*
X36723529Y21709663D01*
X36706315Y21700777D01*
X36721563Y21728015D01*
X36727982Y21739865D01*
X36738246Y21759279D01*
X36751560Y21784735D01*
X36767132Y21814713D01*
X36784170Y21847689D01*
X36800889Y21880213D01*
X36864966Y22005173D01*
X36778628Y22098009D01*
X36754886Y22123741D01*
X36733641Y22147158D01*
X36715835Y22167189D01*
X36702410Y22182764D01*
X36694308Y22192811D01*
X36692290Y22196112D01*
X36697364Y22197922D01*
X36712491Y22199475D01*
X36737524Y22200765D01*
X36772319Y22201785D01*
X36816729Y22202529D01*
X36835671Y22202734D01*
X36979053Y22204088D01*
X37057078Y22340914D01*
X37076458Y22374848D01*
X37094218Y22405852D01*
X37109730Y22432835D01*
X37122364Y22454706D01*
X37131493Y22470375D01*
X37136486Y22478752D01*
X37137213Y22479848D01*
X37138776Y22475684D01*
G37*
G36*
X36964075Y21422630D02*
G01*
X36967453Y21407028D01*
X36972386Y21383542D01*
X36978438Y21354290D01*
X36985170Y21321393D01*
X36992144Y21286971D01*
X36993619Y21279640D01*
X37015411Y21171257D01*
X37160967Y21171257D01*
X37203736Y21171196D01*
X37237266Y21170980D01*
X37262522Y21170561D01*
X37280466Y21169889D01*
X37292062Y21168917D01*
X37298270Y21167596D01*
X37300056Y21165877D01*
X37299055Y21164283D01*
X37293009Y21159656D01*
X37279696Y21150098D01*
X37260277Y21136423D01*
X37235915Y21119445D01*
X37207773Y21099977D01*
X37177012Y21078831D01*
X37174278Y21076957D01*
X37143793Y21056071D01*
X37116207Y21037159D01*
X37092595Y21020959D01*
X37074032Y21008211D01*
X37061596Y20999652D01*
X37056360Y20996021D01*
X37056264Y20995949D01*
X37057044Y20990979D01*
X37059580Y20977174D01*
X37063648Y20955705D01*
X37069023Y20927743D01*
X37075481Y20894460D01*
X37082796Y20857027D01*
X37088120Y20829933D01*
X37095864Y20790306D01*
X37102848Y20753985D01*
X37108856Y20722151D01*
X37113668Y20695984D01*
X37117066Y20676665D01*
X37118833Y20665374D01*
X37118994Y20662887D01*
X37114546Y20665150D01*
X37103567Y20672533D01*
X37087615Y20683944D01*
X37068247Y20698289D01*
X37064186Y20701350D01*
X37018404Y20735829D01*
X36977062Y20766716D01*
X36940707Y20793618D01*
X36909882Y20816137D01*
X36885132Y20833878D01*
X36867001Y20846447D01*
X36856034Y20853446D01*
X36852952Y20854823D01*
X36847463Y20852388D01*
X36834126Y20845512D01*
X36813983Y20834759D01*
X36788075Y20820695D01*
X36757441Y20803883D01*
X36723124Y20784889D01*
X36689739Y20766278D01*
X36653160Y20745882D01*
X36619481Y20727223D01*
X36589713Y20710852D01*
X36564868Y20697322D01*
X36545957Y20687183D01*
X36533994Y20680986D01*
X36529991Y20679241D01*
X36531858Y20683931D01*
X36537909Y20696595D01*
X36547608Y20716165D01*
X36560419Y20741576D01*
X36575803Y20771758D01*
X36593224Y20805644D01*
X36605640Y20829641D01*
X36682925Y20978643D01*
X36668181Y20994619D01*
X36659851Y21003642D01*
X36646085Y21018551D01*
X36628367Y21037741D01*
X36608180Y21059603D01*
X36592208Y21076900D01*
X36571447Y21099401D01*
X36552335Y21120152D01*
X36536267Y21137636D01*
X36524638Y21150334D01*
X36519532Y21155956D01*
X36508084Y21168707D01*
X36650323Y21170060D01*
X36792561Y21171413D01*
X36855817Y21282269D01*
X36874417Y21314842D01*
X36892439Y21346359D01*
X36908916Y21375132D01*
X36922880Y21399472D01*
X36933363Y21417688D01*
X36937698Y21425180D01*
X36956323Y21457236D01*
X36964075Y21422630D01*
G37*
G36*
X38035882Y21455033D02*
G01*
X38039128Y21442102D01*
X38043787Y21421673D01*
X38049580Y21395004D01*
X38056229Y21363350D01*
X38063456Y21327966D01*
X38063994Y21325295D01*
X38071300Y21289156D01*
X38078038Y21256159D01*
X38083926Y21227669D01*
X38088678Y21205048D01*
X38092011Y21189660D01*
X38093641Y21182869D01*
X38093662Y21182810D01*
X38096975Y21180835D01*
X38105900Y21179215D01*
X38121259Y21177910D01*
X38143876Y21176875D01*
X38174573Y21176069D01*
X38214172Y21175449D01*
X38241400Y21175160D01*
X38386868Y21173807D01*
X38316115Y21125497D01*
X38266520Y21091527D01*
X38224763Y21062694D01*
X38190965Y21039087D01*
X38165249Y21020792D01*
X38147738Y21007895D01*
X38138556Y21000484D01*
X38137112Y20998825D01*
X38137781Y20993145D01*
X38140208Y20978660D01*
X38144170Y20956572D01*
X38149447Y20928083D01*
X38155816Y20894395D01*
X38163056Y20856710D01*
X38168092Y20830805D01*
X38175705Y20791398D01*
X38182498Y20755400D01*
X38188265Y20723976D01*
X38192799Y20698291D01*
X38195892Y20679507D01*
X38197338Y20668790D01*
X38197286Y20666702D01*
X38192639Y20669758D01*
X38180877Y20678228D01*
X38163011Y20691364D01*
X38140053Y20708414D01*
X38113016Y20728629D01*
X38082912Y20751260D01*
X38069398Y20761455D01*
X38038094Y20785029D01*
X38009244Y20806626D01*
X37983897Y20825472D01*
X37963101Y20840792D01*
X37947905Y20851810D01*
X37939359Y20857752D01*
X37938026Y20858538D01*
X37932118Y20856834D01*
X37918463Y20850709D01*
X37898203Y20840744D01*
X37872481Y20827521D01*
X37842439Y20811620D01*
X37809221Y20793623D01*
X37795214Y20785921D01*
X37759694Y20766304D01*
X37725764Y20747569D01*
X37694816Y20730482D01*
X37668241Y20715812D01*
X37647428Y20704326D01*
X37633768Y20696792D01*
X37631434Y20695506D01*
X37604053Y20680422D01*
X37642275Y20753701D01*
X37669003Y20804983D01*
X37691360Y20847982D01*
X37709717Y20883442D01*
X37724444Y20912112D01*
X37735915Y20934737D01*
X37744500Y20952065D01*
X37750571Y20964841D01*
X37754500Y20973813D01*
X37756659Y20979727D01*
X37757419Y20983329D01*
X37757331Y20984820D01*
X37754598Y20989421D01*
X37747274Y20998617D01*
X37734970Y21012836D01*
X37717302Y21032507D01*
X37693880Y21058059D01*
X37664319Y21089919D01*
X37628232Y21128517D01*
X37610937Y21146945D01*
X37583461Y21176196D01*
X37728247Y21177552D01*
X37873033Y21178908D01*
X37952545Y21317925D01*
X37972143Y21352136D01*
X37990128Y21383434D01*
X38005876Y21410737D01*
X38018760Y21432963D01*
X38028154Y21449029D01*
X38033430Y21457855D01*
X38034327Y21459212D01*
X38035882Y21455033D01*
G37*
G36*
X36062134Y22468858D02*
G01*
X36065563Y22453796D01*
X36070366Y22431441D01*
X36076256Y22403153D01*
X36082947Y22370290D01*
X36090151Y22334213D01*
X36090416Y22332873D01*
X36117389Y22196438D01*
X36265762Y22196438D01*
X36414135Y22196438D01*
X36393825Y22182886D01*
X36360855Y22160715D01*
X36327222Y22137783D01*
X36294008Y22114860D01*
X36262298Y22092713D01*
X36233176Y22072113D01*
X36207726Y22053829D01*
X36187031Y22038629D01*
X36172177Y22027282D01*
X36164246Y22020558D01*
X36163247Y22019312D01*
X36163503Y22012691D01*
X36165535Y21997315D01*
X36169133Y21974436D01*
X36174086Y21945305D01*
X36180185Y21911174D01*
X36187220Y21873293D01*
X36191532Y21850697D01*
X36199023Y21811577D01*
X36205790Y21775804D01*
X36211614Y21744568D01*
X36216276Y21719064D01*
X36219556Y21700483D01*
X36221237Y21690019D01*
X36221389Y21688134D01*
X36217165Y21690767D01*
X36205761Y21698803D01*
X36188159Y21711524D01*
X36165341Y21728215D01*
X36138288Y21748158D01*
X36107984Y21770637D01*
X36090630Y21783565D01*
X36058766Y21807209D01*
X36029405Y21828748D01*
X36003569Y21847451D01*
X35982281Y21862588D01*
X35966563Y21873428D01*
X35957438Y21879242D01*
X35955635Y21880035D01*
X35950059Y21877588D01*
X35936636Y21870706D01*
X35916410Y21859954D01*
X35890426Y21845898D01*
X35859727Y21829102D01*
X35825360Y21810130D01*
X35792069Y21791614D01*
X35755470Y21771257D01*
X35721760Y21752638D01*
X35691955Y21736309D01*
X35667069Y21722820D01*
X35648115Y21712720D01*
X35636109Y21706560D01*
X35632071Y21704845D01*
X35633887Y21709547D01*
X35639909Y21722213D01*
X35649601Y21741774D01*
X35662425Y21767163D01*
X35677842Y21797314D01*
X35695316Y21831158D01*
X35707726Y21855024D01*
X35785267Y22003728D01*
X35773101Y22017201D01*
X35765821Y22025186D01*
X35752964Y22039210D01*
X35735867Y22057817D01*
X35715872Y22079548D01*
X35695114Y22102080D01*
X35673574Y22125465D01*
X35653626Y22147151D01*
X35636614Y22165675D01*
X35623884Y22179573D01*
X35616931Y22187213D01*
X35604569Y22200939D01*
X35748762Y22201379D01*
X35786165Y22201574D01*
X35820231Y22201907D01*
X35849631Y22202352D01*
X35873034Y22202884D01*
X35889110Y22203477D01*
X35896527Y22204106D01*
X35896821Y22204208D01*
X35900216Y22209076D01*
X35907993Y22221727D01*
X35919510Y22241068D01*
X35934124Y22266006D01*
X35951192Y22295448D01*
X35970071Y22328301D01*
X35978988Y22343910D01*
X35998347Y22377508D01*
X36016159Y22407753D01*
X36031798Y22433633D01*
X36044638Y22454138D01*
X36054052Y22468255D01*
X36059413Y22474974D01*
X36060367Y22475266D01*
X36062134Y22468858D01*
G37*
G36*
X38228658Y22474267D02*
G01*
X38232176Y22461649D01*
X38237076Y22441453D01*
X38243078Y22414898D01*
X38249897Y22383201D01*
X38257253Y22347580D01*
X38258707Y22340379D01*
X38287132Y22198988D01*
X38433872Y22197634D01*
X38476290Y22197223D01*
X38509511Y22196810D01*
X38534539Y22196317D01*
X38552379Y22195663D01*
X38564034Y22194768D01*
X38570508Y22193553D01*
X38572805Y22191937D01*
X38571929Y22189841D01*
X38568884Y22187186D01*
X38568549Y22186926D01*
X38561203Y22181606D01*
X38546674Y22171403D01*
X38526211Y22157180D01*
X38501061Y22139802D01*
X38472468Y22120132D01*
X38443002Y22099937D01*
X38413042Y22079338D01*
X38386048Y22060581D01*
X38363109Y22044438D01*
X38345315Y22031683D01*
X38333755Y22023090D01*
X38329521Y22019431D01*
X38329518Y22019409D01*
X38330456Y22013873D01*
X38333113Y21999550D01*
X38337255Y21977662D01*
X38342650Y21949435D01*
X38349064Y21916092D01*
X38356263Y21878857D01*
X38360121Y21858975D01*
X38368921Y21813645D01*
X38375938Y21777332D01*
X38381330Y21749037D01*
X38385259Y21727762D01*
X38387882Y21712510D01*
X38389360Y21702282D01*
X38389853Y21696082D01*
X38389521Y21692911D01*
X38388522Y21691771D01*
X38387018Y21691665D01*
X38386898Y21691671D01*
X38382018Y21694668D01*
X38370025Y21703071D01*
X38351943Y21716135D01*
X38328796Y21733110D01*
X38301605Y21753250D01*
X38271394Y21775806D01*
X38258113Y21785774D01*
X38226831Y21809152D01*
X38198018Y21830424D01*
X38172719Y21848838D01*
X38151980Y21863643D01*
X38136846Y21874089D01*
X38128362Y21879424D01*
X38127049Y21879959D01*
X38121187Y21877622D01*
X38107618Y21870890D01*
X38087513Y21860389D01*
X38062048Y21846741D01*
X38032394Y21830570D01*
X37999727Y21812500D01*
X37991888Y21808128D01*
X37956949Y21788619D01*
X37923228Y21769801D01*
X37892238Y21752518D01*
X37865494Y21737614D01*
X37844510Y21725934D01*
X37830800Y21718321D01*
X37830092Y21717929D01*
X37797353Y21699815D01*
X37842216Y21786189D01*
X37859506Y21819459D01*
X37878217Y21855436D01*
X37896660Y21890873D01*
X37913145Y21922522D01*
X37921666Y21938867D01*
X37956251Y22005173D01*
X37867695Y22099530D01*
X37838989Y22130210D01*
X37816725Y22154264D01*
X37800286Y22172428D01*
X37789052Y22185439D01*
X37782405Y22194032D01*
X37779727Y22198944D01*
X37780399Y22200911D01*
X37782500Y22200934D01*
X37788413Y22200797D01*
X37803180Y22200714D01*
X37825454Y22200685D01*
X37853889Y22200709D01*
X37887138Y22200788D01*
X37923856Y22200920D01*
X37927230Y22200934D01*
X38068134Y22201538D01*
X38145732Y22337974D01*
X38165109Y22371966D01*
X38182941Y22403104D01*
X38198588Y22430278D01*
X38211406Y22452377D01*
X38220753Y22468291D01*
X38225986Y22476910D01*
X38226806Y22478090D01*
X38228658Y22474267D01*
G37*
G36*
X39055500Y22870966D02*
G01*
X39053578Y22861676D01*
X39049747Y22843035D01*
X39044138Y22815685D01*
X39036884Y22780270D01*
X39028115Y22737433D01*
X39017964Y22687817D01*
X39006562Y22632064D01*
X38994039Y22570819D01*
X38980529Y22504723D01*
X38966162Y22434421D01*
X38951070Y22360555D01*
X38935384Y22283769D01*
X38920673Y22211739D01*
X38870910Y21968068D01*
X38822915Y21733057D01*
X38776413Y21505370D01*
X38731134Y21283671D01*
X38686803Y21066625D01*
X38643148Y20852896D01*
X38599896Y20641150D01*
X38556775Y20430050D01*
X38513512Y20218261D01*
X38469833Y20004447D01*
X38425466Y19787274D01*
X38380139Y19565406D01*
X38333578Y19337506D01*
X38285511Y19102241D01*
X38260665Y18980634D01*
X38237034Y18864975D01*
X38213131Y18747980D01*
X38189100Y18630356D01*
X38165085Y18512805D01*
X38141229Y18396033D01*
X38117676Y18280743D01*
X38094570Y18167640D01*
X38072056Y18057428D01*
X38050276Y17950810D01*
X38029376Y17848492D01*
X38009497Y17751178D01*
X37990786Y17659572D01*
X37973384Y17574377D01*
X37957437Y17496299D01*
X37943088Y17426041D01*
X37930481Y17364308D01*
X37919759Y17311804D01*
X37918922Y17307703D01*
X37889924Y17165696D01*
X37862892Y17033337D01*
X37837754Y16910279D01*
X37814438Y16796173D01*
X37792873Y16690673D01*
X37772987Y16593430D01*
X37754708Y16504098D01*
X37737965Y16422329D01*
X37722686Y16347775D01*
X37708799Y16280088D01*
X37696232Y16218923D01*
X37684914Y16163930D01*
X37674773Y16114762D01*
X37665738Y16071073D01*
X37657737Y16032513D01*
X37650697Y15998737D01*
X37644548Y15969396D01*
X37639218Y15944143D01*
X37634635Y15922631D01*
X37630727Y15904511D01*
X37627422Y15889437D01*
X37624650Y15877061D01*
X37622338Y15867035D01*
X37620415Y15859013D01*
X37618808Y15852646D01*
X37618518Y15851538D01*
X37598177Y15762357D01*
X37583156Y15670260D01*
X37573521Y15577049D01*
X37569338Y15484523D01*
X37570670Y15394485D01*
X37577585Y15308735D01*
X37590147Y15229074D01*
X37595095Y15206337D01*
X37618220Y15126743D01*
X37649213Y15051528D01*
X37687521Y14981560D01*
X37732587Y14917703D01*
X37783856Y14860823D01*
X37840771Y14811785D01*
X37855181Y14801299D01*
X37910906Y14766626D01*
X37974629Y14734969D01*
X38044387Y14707148D01*
X38118216Y14683979D01*
X38163755Y14672629D01*
X38173710Y14670440D01*
X38183278Y14668544D01*
X38193251Y14666916D01*
X38204421Y14665530D01*
X38217580Y14664362D01*
X38233520Y14663386D01*
X38253032Y14662578D01*
X38276909Y14661912D01*
X38305943Y14661364D01*
X38340925Y14660908D01*
X38382648Y14660519D01*
X38431903Y14660174D01*
X38489483Y14659845D01*
X38556179Y14659509D01*
X38583263Y14659378D01*
X38654683Y14659010D01*
X38716547Y14658631D01*
X38769502Y14658224D01*
X38814193Y14657776D01*
X38851267Y14657270D01*
X38881368Y14656690D01*
X38905142Y14656020D01*
X38923236Y14655247D01*
X38936294Y14654353D01*
X38944964Y14653323D01*
X38949889Y14652142D01*
X38951717Y14650794D01*
X38951767Y14650492D01*
X38950736Y14644240D01*
X38947777Y14628988D01*
X38943090Y14605713D01*
X38936879Y14575390D01*
X38929343Y14538996D01*
X38920684Y14497506D01*
X38911104Y14451899D01*
X38900805Y14403148D01*
X38898413Y14391867D01*
X38884742Y14327401D01*
X38870175Y14258666D01*
X38854839Y14186275D01*
X38838866Y14110841D01*
X38822384Y14032975D01*
X38805523Y13953291D01*
X38788411Y13872400D01*
X38771179Y13790916D01*
X38753956Y13709450D01*
X38736871Y13628616D01*
X38720053Y13549025D01*
X38703632Y13471290D01*
X38687737Y13396023D01*
X38672497Y13323838D01*
X38658042Y13255346D01*
X38644502Y13191160D01*
X38632005Y13131893D01*
X38620681Y13078156D01*
X38610659Y13030563D01*
X38602069Y12989725D01*
X38595040Y12956256D01*
X38589701Y12930768D01*
X38586182Y12913873D01*
X38584612Y12906184D01*
X38584539Y12905767D01*
X38579483Y12905641D01*
X38564497Y12905516D01*
X38539850Y12905394D01*
X38505811Y12905274D01*
X38462652Y12905156D01*
X38410641Y12905040D01*
X38350049Y12904928D01*
X38281146Y12904818D01*
X38204201Y12904711D01*
X38119485Y12904607D01*
X38027267Y12904507D01*
X37927817Y12904411D01*
X37821406Y12904318D01*
X37708303Y12904229D01*
X37588777Y12904145D01*
X37463100Y12904065D01*
X37331541Y12903989D01*
X37194369Y12903918D01*
X37051856Y12903853D01*
X36904270Y12903792D01*
X36751881Y12903736D01*
X36594960Y12903686D01*
X36433776Y12903642D01*
X36268600Y12903604D01*
X36099701Y12903572D01*
X35927349Y12903545D01*
X35751814Y12903526D01*
X35573366Y12903513D01*
X35392276Y12903506D01*
X35320282Y12903506D01*
X35138224Y12903512D01*
X34958703Y12903531D01*
X34781988Y12903563D01*
X34608350Y12903606D01*
X34438059Y12903660D01*
X34271384Y12903726D01*
X34108596Y12903803D01*
X33949964Y12903890D01*
X33795758Y12903988D01*
X33646248Y12904095D01*
X33501704Y12904212D01*
X33362396Y12904338D01*
X33228594Y12904473D01*
X33100568Y12904616D01*
X32978587Y12904768D01*
X32862922Y12904927D01*
X32753843Y12905094D01*
X32651619Y12905268D01*
X32556520Y12905448D01*
X32468817Y12905635D01*
X32388779Y12905829D01*
X32316676Y12906028D01*
X32252778Y12906232D01*
X32197355Y12906441D01*
X32150678Y12906655D01*
X32113014Y12906874D01*
X32084636Y12907096D01*
X32065812Y12907322D01*
X32056813Y12907552D01*
X32056025Y12907643D01*
X32057044Y12913302D01*
X32059970Y12927981D01*
X32064605Y12950720D01*
X32070748Y12980558D01*
X32078203Y13016535D01*
X32086770Y13057690D01*
X32096250Y13103062D01*
X32106445Y13151691D01*
X32109018Y13163938D01*
X32117059Y13202217D01*
X32126990Y13249520D01*
X32138609Y13304885D01*
X32151716Y13367354D01*
X32166107Y13435964D01*
X32181583Y13509757D01*
X32197941Y13587770D01*
X32214981Y13669044D01*
X32232501Y13752619D01*
X32250299Y13837533D01*
X32268174Y13922827D01*
X32285924Y14007539D01*
X32293634Y14044335D01*
X32315354Y14148004D01*
X33575944Y14148004D01*
X33575982Y14126327D01*
X33576219Y14118036D01*
X33576897Y14100338D01*
X33577981Y14074013D01*
X33579436Y14039843D01*
X33581228Y13998612D01*
X33583323Y13951099D01*
X33585687Y13898087D01*
X33588284Y13840358D01*
X33591081Y13778694D01*
X33594043Y13713876D01*
X33596361Y13663466D01*
X33599408Y13597357D01*
X33602318Y13534220D01*
X33605056Y13474791D01*
X33607589Y13419806D01*
X33609882Y13370001D01*
X33611902Y13326112D01*
X33613615Y13288874D01*
X33614986Y13259024D01*
X33615983Y13237297D01*
X33616571Y13224429D01*
X33616725Y13221006D01*
X33621611Y13220669D01*
X33635378Y13220368D01*
X33656704Y13220113D01*
X33684270Y13219918D01*
X33716754Y13219794D01*
X33752836Y13219754D01*
X33753183Y13219754D01*
X33889619Y13219777D01*
X34034973Y13517880D01*
X34060041Y13569147D01*
X34083830Y13617519D01*
X34105963Y13662244D01*
X34126061Y13702573D01*
X34143747Y13737756D01*
X34158642Y13767040D01*
X34170368Y13789676D01*
X34178547Y13804914D01*
X34182802Y13812002D01*
X34183308Y13812405D01*
X34184190Y13806769D01*
X34185613Y13791912D01*
X34187508Y13768795D01*
X34189804Y13738381D01*
X34192433Y13701629D01*
X34195324Y13659503D01*
X34198407Y13612962D01*
X34201613Y13562969D01*
X34202828Y13543606D01*
X34206095Y13491536D01*
X34209259Y13441720D01*
X34212249Y13395246D01*
X34214993Y13353203D01*
X34217419Y13316680D01*
X34219455Y13286765D01*
X34221029Y13264546D01*
X34222069Y13251113D01*
X34222257Y13249058D01*
X34225148Y13219731D01*
X34355757Y13219739D01*
X34486366Y13219747D01*
X34564236Y13380248D01*
X34851045Y13380248D01*
X34855277Y13335461D01*
X34867922Y13296421D01*
X34888898Y13263244D01*
X34918125Y13236045D01*
X34955523Y13214940D01*
X34970031Y13209192D01*
X34988924Y13204659D01*
X35014860Y13201440D01*
X35044756Y13199618D01*
X35075529Y13199273D01*
X35104096Y13200487D01*
X35127375Y13203343D01*
X35134117Y13204855D01*
X35186100Y13221963D01*
X35234322Y13245005D01*
X35257917Y13259000D01*
X35301180Y13286161D01*
X35297651Y13269522D01*
X35294068Y13251642D01*
X35291217Y13236208D01*
X35288312Y13219532D01*
X35402216Y13220907D01*
X35516119Y13222281D01*
X35571593Y13456900D01*
X35584546Y13511793D01*
X35595322Y13557827D01*
X35601083Y13582852D01*
X35765276Y13582852D01*
X35765495Y13540445D01*
X35767770Y13500149D01*
X35772030Y13464779D01*
X35776907Y13441598D01*
X35795959Y13388873D01*
X35822505Y13341644D01*
X35855818Y13300960D01*
X35895168Y13267867D01*
X35900139Y13264536D01*
X35935131Y13243657D01*
X35969849Y13227450D01*
X36006211Y13215445D01*
X36046134Y13207172D01*
X36091536Y13202159D01*
X36144335Y13199938D01*
X36164398Y13199734D01*
X36199239Y13199818D01*
X36226595Y13200510D01*
X36249176Y13202044D01*
X36269689Y13204652D01*
X36290844Y13208568D01*
X36306336Y13211950D01*
X36329027Y13217809D01*
X36355612Y13225794D01*
X36384120Y13235183D01*
X36412585Y13245258D01*
X36439036Y13255298D01*
X36461504Y13264583D01*
X36475700Y13271297D01*
X36619090Y13271297D01*
X36619120Y13269941D01*
X36624880Y13266345D01*
X36638384Y13260587D01*
X36657590Y13253379D01*
X36680456Y13245433D01*
X36704937Y13237459D01*
X36728992Y13230169D01*
X36749240Y13224615D01*
X36775335Y13218588D01*
X36805565Y13212549D01*
X36833935Y13207682D01*
X36837336Y13207174D01*
X36862056Y13204521D01*
X36894345Y13202460D01*
X36931828Y13201009D01*
X36972130Y13200189D01*
X37012877Y13200019D01*
X37051694Y13200520D01*
X37086208Y13201712D01*
X37114042Y13203615D01*
X37124180Y13204765D01*
X37192894Y13217584D01*
X37255211Y13236295D01*
X37310612Y13260600D01*
X37358579Y13290202D01*
X37398595Y13324806D01*
X37430141Y13364113D01*
X37443959Y13388156D01*
X37458874Y13422808D01*
X37467955Y13456902D01*
X37471883Y13493938D01*
X37471672Y13530515D01*
X37469938Y13557169D01*
X37466873Y13577490D01*
X37461684Y13595330D01*
X37455045Y13611350D01*
X37435490Y13643930D01*
X37407552Y13673567D01*
X37370866Y13700507D01*
X37325067Y13724995D01*
X37269790Y13747277D01*
X37236897Y13758161D01*
X37182574Y13775110D01*
X37137176Y13789571D01*
X37099843Y13801929D01*
X37069711Y13812568D01*
X37045918Y13821873D01*
X37027603Y13830226D01*
X37013904Y13838014D01*
X37003957Y13845620D01*
X36996901Y13853427D01*
X36991874Y13861822D01*
X36988939Y13868676D01*
X36983935Y13893583D01*
X36988730Y13916982D01*
X37003496Y13939495D01*
X37010566Y13946816D01*
X37026292Y13960215D01*
X37043035Y13970421D01*
X37062425Y13977824D01*
X37086094Y13982816D01*
X37115672Y13985788D01*
X37152792Y13987132D01*
X37179378Y13987320D01*
X37213197Y13987140D01*
X37239101Y13986479D01*
X37259369Y13985127D01*
X37276282Y13982876D01*
X37292122Y13979515D01*
X37306353Y13975657D01*
X37345775Y13962448D01*
X37384704Y13946132D01*
X37419880Y13928206D01*
X37446934Y13910993D01*
X37466343Y13899254D01*
X37483627Y13893411D01*
X37497025Y13893741D01*
X37504774Y13900515D01*
X37505283Y13901910D01*
X37507048Y13909105D01*
X37510453Y13924115D01*
X37515097Y13945085D01*
X37520582Y13970163D01*
X37526509Y13997496D01*
X37532477Y14025232D01*
X37538087Y14051518D01*
X37542942Y14074502D01*
X37546640Y14092329D01*
X37548784Y14103149D01*
X37549157Y14105500D01*
X37544532Y14109547D01*
X37531901Y14115472D01*
X37513129Y14122586D01*
X37490081Y14130199D01*
X37464625Y14137620D01*
X37456465Y14139792D01*
X37399839Y14152475D01*
X37341565Y14161272D01*
X37279044Y14166472D01*
X37209675Y14168366D01*
X37200879Y14168385D01*
X37144915Y14167469D01*
X37096715Y14164545D01*
X37053988Y14159311D01*
X37014440Y14151465D01*
X36975781Y14140703D01*
X36965301Y14137294D01*
X36918884Y14119492D01*
X36879627Y14098996D01*
X36844530Y14074003D01*
X36814277Y14046430D01*
X36784504Y14013197D01*
X36762876Y13980305D01*
X36748583Y13945577D01*
X36740812Y13906837D01*
X36738751Y13861907D01*
X36739193Y13845185D01*
X36740734Y13818711D01*
X36743253Y13799159D01*
X36747391Y13783258D01*
X36753795Y13767735D01*
X36754876Y13765474D01*
X36769676Y13739105D01*
X36787651Y13715526D01*
X36809732Y13694180D01*
X36836847Y13674509D01*
X36869926Y13655958D01*
X36909899Y13637968D01*
X36957694Y13619984D01*
X37014241Y13601448D01*
X37043445Y13592584D01*
X37074143Y13583204D01*
X37103770Y13573704D01*
X37129958Y13564873D01*
X37150340Y13557505D01*
X37159782Y13553686D01*
X37191065Y13536594D01*
X37212422Y13517288D01*
X37223903Y13495674D01*
X37225560Y13471660D01*
X37218464Y13447394D01*
X37204934Y13425101D01*
X37185714Y13407460D01*
X37160081Y13394233D01*
X37127312Y13385182D01*
X37086685Y13380068D01*
X37037476Y13378651D01*
X37011906Y13379171D01*
X36947874Y13383936D01*
X36890710Y13394201D01*
X36838290Y13410650D01*
X36788489Y13433965D01*
X36739183Y13464831D01*
X36733796Y13468647D01*
X36713425Y13482518D01*
X36698614Y13490650D01*
X36687264Y13494044D01*
X36680364Y13494149D01*
X36664715Y13492602D01*
X36641032Y13382944D01*
X36634210Y13350852D01*
X36628318Y13322162D01*
X36623643Y13298354D01*
X36620471Y13280906D01*
X36619090Y13271297D01*
X36475700Y13271297D01*
X36478022Y13272395D01*
X36486400Y13277786D01*
X36489317Y13284310D01*
X36494073Y13299171D01*
X36500216Y13320764D01*
X36507292Y13347489D01*
X36514849Y13377741D01*
X36516107Y13382944D01*
X36523562Y13413856D01*
X36530325Y13441761D01*
X36535991Y13464995D01*
X36540152Y13481891D01*
X36542402Y13490784D01*
X36542551Y13491327D01*
X36542252Y13497720D01*
X36534911Y13500094D01*
X36529747Y13500253D01*
X36515462Y13496640D01*
X36494315Y13485896D01*
X36472024Y13471841D01*
X36415522Y13437484D01*
X36360865Y13411210D01*
X36309230Y13393580D01*
X36305014Y13392497D01*
X36282085Y13387396D01*
X36261070Y13384446D01*
X36238204Y13383335D01*
X36209721Y13383748D01*
X36203006Y13383986D01*
X36175723Y13385314D01*
X36155792Y13387229D01*
X36140366Y13390254D01*
X36126595Y13394911D01*
X36114853Y13400167D01*
X36081775Y13421434D01*
X36055727Y13449848D01*
X36037515Y13484472D01*
X36034414Y13493557D01*
X36023642Y13543519D01*
X36020133Y13598143D01*
X36023666Y13655163D01*
X36034019Y13712309D01*
X36050968Y13767317D01*
X36064343Y13798626D01*
X36094494Y13852090D01*
X36129546Y13896669D01*
X36169667Y13932517D01*
X36215024Y13959784D01*
X36261032Y13977280D01*
X36286943Y13982196D01*
X36319173Y13984444D01*
X36354400Y13984157D01*
X36389304Y13981466D01*
X36420564Y13976500D01*
X36443114Y13970090D01*
X36481303Y13951705D01*
X36520953Y13926043D01*
X36559113Y13895023D01*
X36560763Y13893518D01*
X36576759Y13879543D01*
X36588297Y13871646D01*
X36597883Y13868452D01*
X36606485Y13868420D01*
X36623071Y13870032D01*
X36650064Y13981782D01*
X36657737Y14014008D01*
X36664377Y14042780D01*
X36669670Y14066668D01*
X36673304Y14084241D01*
X36674966Y14094067D01*
X36674954Y14095634D01*
X36669657Y14098427D01*
X36657104Y14104240D01*
X36639429Y14112101D01*
X36626882Y14117555D01*
X36575497Y14137339D01*
X36524423Y14151847D01*
X36471378Y14161457D01*
X36414083Y14166548D01*
X36350256Y14167496D01*
X36328560Y14167001D01*
X36293245Y14165699D01*
X36265623Y14164033D01*
X36243190Y14161709D01*
X36223438Y14158429D01*
X36203862Y14153897D01*
X36192992Y14150968D01*
X36118552Y14125262D01*
X36050272Y14091560D01*
X35988467Y14050227D01*
X35933452Y14001628D01*
X35885541Y13946127D01*
X35845050Y13884089D01*
X35812293Y13815877D01*
X35787585Y13741857D01*
X35771292Y13662740D01*
X35767184Y13624556D01*
X35765276Y13582852D01*
X35601083Y13582852D01*
X35604124Y13596063D01*
X35611155Y13627560D01*
X35616621Y13653379D01*
X35620724Y13674579D01*
X35623668Y13692220D01*
X35625658Y13707364D01*
X35626896Y13721069D01*
X35627586Y13734396D01*
X35627933Y13748405D01*
X35627961Y13750173D01*
X35628141Y13776566D01*
X35627515Y13795253D01*
X35625762Y13808717D01*
X35622557Y13819444D01*
X35617577Y13829915D01*
X35596702Y13859489D01*
X35568199Y13883969D01*
X35531521Y13903705D01*
X35486123Y13919047D01*
X35473514Y13922198D01*
X35459159Y13925161D01*
X35443537Y13927412D01*
X35425071Y13929034D01*
X35402187Y13930109D01*
X35373309Y13930721D01*
X35336860Y13930952D01*
X35307531Y13930936D01*
X35266221Y13930747D01*
X35233054Y13930303D01*
X35205973Y13929463D01*
X35182921Y13928084D01*
X35161841Y13926026D01*
X35140675Y13923147D01*
X35117366Y13919305D01*
X35103951Y13916922D01*
X35077412Y13912042D01*
X35054655Y13907676D01*
X35037467Y13904182D01*
X35027631Y13901915D01*
X35026022Y13901348D01*
X35024456Y13895953D01*
X35021464Y13882579D01*
X35017446Y13863284D01*
X35012801Y13840127D01*
X35007928Y13815165D01*
X35003225Y13790455D01*
X34999093Y13768055D01*
X34995930Y13750023D01*
X34994135Y13738418D01*
X34993875Y13735611D01*
X34996760Y13731527D01*
X35005932Y13730549D01*
X35022120Y13732799D01*
X35046051Y13738398D01*
X35078455Y13747468D01*
X35095864Y13752675D01*
X35125159Y13761222D01*
X35148829Y13767012D01*
X35170797Y13770700D01*
X35194986Y13772937D01*
X35225319Y13774378D01*
X35226509Y13774421D01*
X35275277Y13774743D01*
X35314915Y13771697D01*
X35346014Y13765015D01*
X35369161Y13754428D01*
X35384946Y13739669D01*
X35393958Y13720468D01*
X35396788Y13696872D01*
X35396788Y13673667D01*
X35371140Y13673667D01*
X35349811Y13672899D01*
X35320889Y13670779D01*
X35286852Y13667582D01*
X35250179Y13663584D01*
X35213348Y13659059D01*
X35178835Y13654284D01*
X35149120Y13649533D01*
X35141499Y13648151D01*
X35073934Y13632238D01*
X35015368Y13611555D01*
X34965768Y13586071D01*
X34925102Y13555757D01*
X34893334Y13520580D01*
X34870432Y13480509D01*
X34856361Y13435514D01*
X34851089Y13385564D01*
X34851045Y13380248D01*
X34564236Y13380248D01*
X34639166Y13534689D01*
X34667385Y13592843D01*
X34696237Y13652288D01*
X34725095Y13711732D01*
X34753332Y13769883D01*
X34780320Y13825449D01*
X34805432Y13877140D01*
X34828040Y13923662D01*
X34847518Y13963724D01*
X34863237Y13996035D01*
X34864634Y13998906D01*
X34937301Y14148181D01*
X34811433Y14146817D01*
X34685566Y14145454D01*
X34547713Y13835132D01*
X34524262Y13782482D01*
X34502032Y13732845D01*
X34481364Y13686964D01*
X34462598Y13645583D01*
X34446075Y13609446D01*
X34432136Y13579296D01*
X34421123Y13555877D01*
X34413375Y13539933D01*
X34409234Y13532208D01*
X34408623Y13531658D01*
X34408184Y13537839D01*
X34407359Y13553107D01*
X34406198Y13576358D01*
X34404748Y13606488D01*
X34403060Y13642392D01*
X34401183Y13682966D01*
X34399166Y13727105D01*
X34397058Y13773706D01*
X34394908Y13821665D01*
X34392766Y13869876D01*
X34390681Y13917235D01*
X34388702Y13962639D01*
X34386879Y14004983D01*
X34385260Y14043162D01*
X34383896Y14076072D01*
X34382834Y14102610D01*
X34382124Y14121670D01*
X34381817Y14132149D01*
X34381808Y14133114D01*
X34381808Y14148185D01*
X34258379Y14146820D01*
X34134951Y14145454D01*
X33984233Y13835861D01*
X33833514Y13526269D01*
X33832200Y13837136D01*
X33830886Y14148004D01*
X33703415Y14148004D01*
X33575944Y14148004D01*
X32315354Y14148004D01*
X32378035Y14447187D01*
X32615535Y14447187D01*
X32620292Y14446576D01*
X32634651Y14446008D01*
X32658009Y14445482D01*
X32689768Y14444998D01*
X32729328Y14444556D01*
X32776087Y14444155D01*
X32829446Y14443795D01*
X32888804Y14443475D01*
X32953562Y14443196D01*
X33023120Y14442957D01*
X33096876Y14442757D01*
X33174232Y14442596D01*
X33254587Y14442475D01*
X33337340Y14442392D01*
X33421892Y14442347D01*
X33507643Y14442341D01*
X33593992Y14442372D01*
X33680339Y14442440D01*
X33766084Y14442545D01*
X33850627Y14442687D01*
X33933367Y14442865D01*
X34013705Y14443079D01*
X34091041Y14443328D01*
X34164774Y14443613D01*
X34234304Y14443933D01*
X34299031Y14444288D01*
X34358355Y14444676D01*
X34411676Y14445099D01*
X34458393Y14445555D01*
X34497906Y14446045D01*
X34529616Y14446567D01*
X34552922Y14447123D01*
X34567224Y14447710D01*
X34571906Y14448271D01*
X34575637Y14455985D01*
X34578774Y14468805D01*
X34578954Y14469922D01*
X34581168Y14482558D01*
X34584865Y14501884D01*
X34589407Y14524608D01*
X34591675Y14535634D01*
X34595078Y14552075D01*
X34600218Y14576981D01*
X34606781Y14608826D01*
X34614451Y14646082D01*
X34622915Y14687223D01*
X34631858Y14730723D01*
X34639456Y14767703D01*
X34649530Y14816694D01*
X34660244Y14868711D01*
X34671108Y14921380D01*
X34681633Y14972331D01*
X34691329Y15019192D01*
X34699707Y15059590D01*
X34703175Y15076277D01*
X34712373Y15120576D01*
X34722751Y15170719D01*
X34733520Y15222884D01*
X34743891Y15273249D01*
X34753075Y15317993D01*
X34754233Y15323647D01*
X34762341Y15363153D01*
X34770842Y15404377D01*
X34779176Y15444626D01*
X34786786Y15481207D01*
X34793113Y15511429D01*
X34794923Y15520012D01*
X34800621Y15547105D01*
X34807819Y15581560D01*
X34815972Y15620747D01*
X34824532Y15662035D01*
X34832952Y15702792D01*
X34836276Y15718928D01*
X34845415Y15763246D01*
X34855790Y15813411D01*
X34866607Y15865598D01*
X34877074Y15915978D01*
X34886396Y15960726D01*
X34887559Y15966297D01*
X34894934Y16001691D01*
X34901846Y16035014D01*
X34907942Y16064559D01*
X34912870Y16088617D01*
X34916280Y16105481D01*
X34917493Y16111659D01*
X34919540Y16122004D01*
X34923379Y16141009D01*
X34928738Y16167341D01*
X34935345Y16199670D01*
X34942929Y16236665D01*
X34951216Y16276993D01*
X34958131Y16310574D01*
X34967705Y16357032D01*
X34977607Y16405104D01*
X34987400Y16452666D01*
X34996647Y16497590D01*
X35004909Y16537753D01*
X35011749Y16571030D01*
X35014300Y16583446D01*
X35022353Y16622556D01*
X35031623Y16667387D01*
X35041224Y16713677D01*
X35050275Y16757164D01*
X35055005Y16779811D01*
X35062956Y16817911D01*
X35072165Y16862187D01*
X35081840Y16908824D01*
X35091188Y16954003D01*
X35098393Y16988928D01*
X35106805Y17029769D01*
X35115863Y17073727D01*
X35125299Y17119507D01*
X35134846Y17165813D01*
X35144238Y17211351D01*
X35153206Y17254826D01*
X35161484Y17294943D01*
X35168806Y17330407D01*
X35174902Y17359922D01*
X35179507Y17382195D01*
X35182354Y17395930D01*
X35182568Y17396960D01*
X35184864Y17408018D01*
X35188901Y17427493D01*
X35194354Y17453813D01*
X35200896Y17485405D01*
X35208203Y17520697D01*
X35215846Y17557622D01*
X35225444Y17603984D01*
X35236301Y17656396D01*
X35247660Y17711208D01*
X35258764Y17764771D01*
X35268857Y17813435D01*
X35272397Y17830494D01*
X35281245Y17873193D01*
X35290693Y17918906D01*
X35300153Y17964773D01*
X35309034Y18007931D01*
X35316746Y18045517D01*
X35320232Y18062562D01*
X35352002Y18217508D01*
X35384541Y18374941D01*
X35403908Y18468044D01*
X35413029Y18511774D01*
X35420339Y18546803D01*
X35426109Y18574417D01*
X35430612Y18595903D01*
X35434118Y18612546D01*
X35436901Y18625630D01*
X35439231Y18636443D01*
X35441380Y18646270D01*
X35443620Y18656396D01*
X35445400Y18664410D01*
X35449815Y18684751D01*
X35453645Y18703235D01*
X35455981Y18715414D01*
X35457790Y18724933D01*
X35461445Y18743367D01*
X35466726Y18769640D01*
X35473413Y18802679D01*
X35481285Y18841408D01*
X35490123Y18884752D01*
X35499707Y18931636D01*
X35509817Y18980986D01*
X35520232Y19031727D01*
X35530734Y19082783D01*
X35541101Y19133081D01*
X35551114Y19181545D01*
X35560553Y19227100D01*
X35569197Y19268672D01*
X35570289Y19273908D01*
X35575927Y19300997D01*
X35583079Y19335448D01*
X35591200Y19374629D01*
X35599745Y19415912D01*
X35608169Y19456665D01*
X35611506Y19472823D01*
X35620603Y19516874D01*
X35630866Y19566529D01*
X35641519Y19618035D01*
X35651784Y19667638D01*
X35660886Y19711584D01*
X35662142Y19717642D01*
X35669541Y19753366D01*
X35678498Y19796656D01*
X35688514Y19845091D01*
X35699086Y19896247D01*
X35709715Y19947701D01*
X35719898Y19997030D01*
X35723290Y20013466D01*
X35732558Y20058312D01*
X35741894Y20103349D01*
X35750917Y20146750D01*
X35759247Y20186691D01*
X35766504Y20221345D01*
X35772306Y20248887D01*
X35774845Y20260835D01*
X35780812Y20289018D01*
X35786417Y20315931D01*
X35791105Y20338874D01*
X35794318Y20355143D01*
X35794773Y20357563D01*
X35798792Y20378622D01*
X35803386Y20401741D01*
X35805047Y20409842D01*
X35810643Y20436799D01*
X35977765Y20436799D01*
X36027480Y20436678D01*
X36082279Y20436337D01*
X36139092Y20435809D01*
X36194846Y20435127D01*
X36246468Y20434324D01*
X36289904Y20433455D01*
X36434922Y20430111D01*
X36402611Y20271517D01*
X36392962Y20224208D01*
X36381878Y20169963D01*
X36369987Y20111839D01*
X36357913Y20052891D01*
X36346282Y19996174D01*
X36335720Y19944745D01*
X36334644Y19939510D01*
X36325904Y19896909D01*
X36317513Y19855819D01*
X36309773Y19817733D01*
X36302985Y19784146D01*
X36297452Y19756552D01*
X36293476Y19736443D01*
X36291822Y19727843D01*
X36289016Y19713348D01*
X36284465Y19690427D01*
X36278485Y19660645D01*
X36271392Y19625567D01*
X36263501Y19586758D01*
X36255128Y19545783D01*
X36251149Y19526377D01*
X36241637Y19480001D01*
X36231538Y19430669D01*
X36221367Y19380915D01*
X36211642Y19333270D01*
X36202881Y19290267D01*
X36195600Y19254437D01*
X36194894Y19250956D01*
X36187084Y19212584D01*
X36177840Y19167421D01*
X36167817Y19118657D01*
X36157673Y19069486D01*
X36148064Y19023098D01*
X36144007Y19003586D01*
X36136444Y18967160D01*
X36129487Y18933455D01*
X36123433Y18903928D01*
X36118581Y18880040D01*
X36115228Y18863249D01*
X36113684Y18855090D01*
X36113068Y18851621D01*
X36111933Y18845663D01*
X36110182Y18836729D01*
X36107715Y18824333D01*
X36104433Y18807989D01*
X36100237Y18787212D01*
X36095029Y18761515D01*
X36088709Y18730413D01*
X36081180Y18693420D01*
X36072341Y18650049D01*
X36062095Y18599815D01*
X36050341Y18542232D01*
X36036982Y18476814D01*
X36021919Y18403075D01*
X36005052Y18320529D01*
X35986283Y18228690D01*
X35977347Y18184972D01*
X35966683Y18132769D01*
X35956543Y18083063D01*
X35947126Y18036848D01*
X35938635Y17995114D01*
X35931272Y17958854D01*
X35925237Y17929061D01*
X35920733Y17906726D01*
X35917962Y17892843D01*
X35917245Y17889149D01*
X35912381Y17863606D01*
X35906149Y17831700D01*
X35898771Y17794508D01*
X35890469Y17753106D01*
X35881466Y17708570D01*
X35871984Y17661977D01*
X35862246Y17614403D01*
X35852473Y17566925D01*
X35842888Y17520619D01*
X35833713Y17476561D01*
X35825171Y17435827D01*
X35817484Y17399495D01*
X35810873Y17368640D01*
X35805563Y17344339D01*
X35801773Y17327668D01*
X35799728Y17319704D01*
X35799547Y17319248D01*
X35795506Y17306880D01*
X35794619Y17298498D01*
X35793615Y17290933D01*
X35790757Y17274564D01*
X35786273Y17250572D01*
X35780391Y17220141D01*
X35773341Y17184450D01*
X35765350Y17144683D01*
X35756649Y17102021D01*
X35755871Y17098238D01*
X35747046Y17055326D01*
X35738792Y17015171D01*
X35731354Y16978963D01*
X35724975Y16947891D01*
X35719899Y16923146D01*
X35716372Y16905916D01*
X35714638Y16897393D01*
X35714583Y16897120D01*
X35712619Y16887230D01*
X35709168Y16869817D01*
X35704721Y16847367D01*
X35699930Y16823165D01*
X35696464Y16805808D01*
X35691212Y16779728D01*
X35684433Y16746195D01*
X35676384Y16706480D01*
X35667323Y16661854D01*
X35657508Y16613587D01*
X35647196Y16562949D01*
X35636646Y16511213D01*
X35636294Y16509490D01*
X35627210Y16464960D01*
X35616678Y16413307D01*
X35604863Y16355342D01*
X35591931Y16291877D01*
X35578047Y16223723D01*
X35563376Y16151692D01*
X35548083Y16076596D01*
X35532334Y15999246D01*
X35516293Y15920453D01*
X35500126Y15841029D01*
X35483997Y15761785D01*
X35468072Y15683534D01*
X35452517Y15607086D01*
X35437496Y15533254D01*
X35423174Y15462848D01*
X35409717Y15396680D01*
X35397290Y15335562D01*
X35386057Y15280305D01*
X35376185Y15231721D01*
X35367838Y15190621D01*
X35361181Y15157816D01*
X35356380Y15134120D01*
X35356028Y15132381D01*
X35353987Y15122391D01*
X35350133Y15103630D01*
X35344718Y15077317D01*
X35337993Y15044671D01*
X35330208Y15006910D01*
X35321616Y14965254D01*
X35312467Y14920922D01*
X35309791Y14907964D01*
X35300633Y14863591D01*
X35292047Y14821971D01*
X35284270Y14784250D01*
X35277538Y14751570D01*
X35272086Y14725075D01*
X35268149Y14705908D01*
X35265964Y14695213D01*
X35265669Y14693747D01*
X35263950Y14685140D01*
X35260551Y14668171D01*
X35255802Y14644481D01*
X35250031Y14615709D01*
X35243566Y14583496D01*
X35240707Y14569255D01*
X35234198Y14536536D01*
X35228430Y14506981D01*
X35223695Y14482123D01*
X35220282Y14463496D01*
X35218481Y14452632D01*
X35218273Y14450671D01*
X35219751Y14449239D01*
X35224636Y14448013D01*
X35233608Y14446978D01*
X35247344Y14446120D01*
X35266525Y14445424D01*
X35291828Y14444875D01*
X35323933Y14444459D01*
X35363518Y14444161D01*
X35411262Y14443966D01*
X35467844Y14443860D01*
X35533942Y14443827D01*
X35534498Y14443827D01*
X35590252Y14443858D01*
X35642872Y14443948D01*
X35691491Y14444091D01*
X35735241Y14444282D01*
X35773255Y14444516D01*
X35804666Y14444786D01*
X35828608Y14445087D01*
X35844212Y14445415D01*
X35850611Y14445763D01*
X35850723Y14445816D01*
X35851705Y14451330D01*
X35854350Y14464607D01*
X35858214Y14483431D01*
X35861271Y14498095D01*
X35864122Y14511778D01*
X35868699Y14533867D01*
X35874721Y14562990D01*
X35881905Y14597775D01*
X35889968Y14636849D01*
X35898627Y14678840D01*
X35907600Y14722376D01*
X35916603Y14766085D01*
X35925355Y14808594D01*
X35933573Y14848532D01*
X35940973Y14884525D01*
X35947273Y14915202D01*
X35952190Y14939190D01*
X35955443Y14955118D01*
X35956223Y14958968D01*
X35958313Y14969475D01*
X35961774Y14987015D01*
X35966019Y15008610D01*
X35968287Y15020173D01*
X35971163Y15034618D01*
X35975854Y15057901D01*
X35982127Y15088865D01*
X35989745Y15126355D01*
X35998473Y15169216D01*
X36008078Y15216292D01*
X36018322Y15266428D01*
X36028971Y15318469D01*
X36032122Y15333847D01*
X36042613Y15385082D01*
X36052582Y15433825D01*
X36061822Y15479061D01*
X36070127Y15519776D01*
X36077290Y15554956D01*
X36083104Y15583585D01*
X36087362Y15604650D01*
X36089858Y15617135D01*
X36090312Y15619470D01*
X36092614Y15631257D01*
X36096737Y15651912D01*
X36102452Y15680312D01*
X36109530Y15715333D01*
X36117742Y15755850D01*
X36126860Y15800739D01*
X36136655Y15848875D01*
X36146899Y15899136D01*
X36157364Y15950395D01*
X36167820Y16001530D01*
X36178040Y16051416D01*
X36187265Y16096357D01*
X36196768Y16142691D01*
X36207144Y16193448D01*
X36217776Y16245600D01*
X36228048Y16296116D01*
X36237342Y16341969D01*
X36243361Y16371779D01*
X36257327Y16440975D01*
X36272877Y16517766D01*
X36290095Y16602568D01*
X36309066Y16695797D01*
X36329874Y16797869D01*
X36352605Y16909201D01*
X36370986Y16999128D01*
X36380994Y17048092D01*
X36391232Y17098230D01*
X36401320Y17147667D01*
X36410874Y17194532D01*
X36419514Y17236951D01*
X36426857Y17273051D01*
X36432339Y17300052D01*
X36438080Y17328307D01*
X36445494Y17364681D01*
X36454198Y17407301D01*
X36463809Y17454294D01*
X36473944Y17503788D01*
X36484220Y17553910D01*
X36493882Y17600976D01*
X36503067Y17645726D01*
X36511737Y17688039D01*
X36519647Y17726715D01*
X36526552Y17760555D01*
X36532208Y17788358D01*
X36536369Y17808924D01*
X36538791Y17821052D01*
X36539138Y17822843D01*
X36541588Y17835382D01*
X36545883Y17856929D01*
X36551823Y17886498D01*
X36559208Y17923104D01*
X36567838Y17965761D01*
X36577512Y18013483D01*
X36588032Y18065285D01*
X36599196Y18120180D01*
X36610805Y18177184D01*
X36622659Y18235310D01*
X36634558Y18293573D01*
X36646250Y18350735D01*
X36657447Y18405568D01*
X36669879Y18466680D01*
X36682953Y18531141D01*
X36696075Y18596022D01*
X36708654Y18658393D01*
X36720096Y18715326D01*
X36725731Y18743466D01*
X36734426Y18786550D01*
X36742685Y18826702D01*
X36750260Y18862772D01*
X36756902Y18893607D01*
X36762363Y18918055D01*
X36766393Y18934965D01*
X36768745Y18943184D01*
X36768933Y18943587D01*
X36773007Y18955965D01*
X36773896Y18964301D01*
X36774898Y18971857D01*
X36777753Y18988219D01*
X36782232Y19012204D01*
X36788107Y19042631D01*
X36795150Y19078318D01*
X36803131Y19118085D01*
X36811823Y19160749D01*
X36812606Y19164561D01*
X36822886Y19214595D01*
X36831345Y19255769D01*
X36838214Y19289216D01*
X36843723Y19316069D01*
X36848102Y19337459D01*
X36851582Y19354521D01*
X36854393Y19368386D01*
X36856767Y19380187D01*
X36858932Y19391056D01*
X36861121Y19402127D01*
X36863564Y19414531D01*
X36866002Y19426920D01*
X36868881Y19441367D01*
X36873568Y19464653D01*
X36879827Y19495622D01*
X36887423Y19533119D01*
X36896123Y19575986D01*
X36905692Y19623069D01*
X36915896Y19673212D01*
X36926499Y19725258D01*
X36929626Y19740594D01*
X36941749Y19800043D01*
X36954732Y19863709D01*
X36968143Y19929479D01*
X36981553Y19995242D01*
X36994530Y20058883D01*
X37006643Y20118291D01*
X37017461Y20171352D01*
X37024267Y20204731D01*
X37033277Y20248898D01*
X37041746Y20290361D01*
X37049437Y20327959D01*
X37056110Y20360528D01*
X37061527Y20386906D01*
X37065451Y20405930D01*
X37067642Y20416439D01*
X37067908Y20417673D01*
X37070994Y20431699D01*
X37273098Y20431686D01*
X37323260Y20431591D01*
X37375128Y20431328D01*
X37426671Y20430917D01*
X37475855Y20430381D01*
X37520647Y20429741D01*
X37559014Y20429018D01*
X37585247Y20428350D01*
X37695292Y20425027D01*
X37685548Y20381184D01*
X37680426Y20357394D01*
X37675633Y20333861D01*
X37672053Y20314948D01*
X37671515Y20311839D01*
X37669497Y20300910D01*
X37665694Y20281331D01*
X37660374Y20254444D01*
X37653805Y20221592D01*
X37646255Y20184117D01*
X37637993Y20143361D01*
X37630750Y20107823D01*
X37622196Y20065905D01*
X37614203Y20026628D01*
X37607025Y19991243D01*
X37600912Y19961001D01*
X37596120Y19937151D01*
X37592900Y19920946D01*
X37591568Y19914008D01*
X37589965Y19905642D01*
X37586579Y19888488D01*
X37581653Y19863757D01*
X37575429Y19832658D01*
X37568149Y19796402D01*
X37560055Y19756199D01*
X37551389Y19713259D01*
X37550729Y19709992D01*
X37541795Y19665695D01*
X37533218Y19623007D01*
X37525278Y19583330D01*
X37518253Y19548069D01*
X37512424Y19518627D01*
X37508070Y19496407D01*
X37505510Y19483024D01*
X37502367Y19466599D01*
X37497577Y19442272D01*
X37491559Y19412131D01*
X37484731Y19378264D01*
X37477509Y19342758D01*
X37474901Y19330012D01*
X37467655Y19294486D01*
X37460667Y19259903D01*
X37454351Y19228338D01*
X37449122Y19201862D01*
X37445393Y19182551D01*
X37444491Y19177716D01*
X37440178Y19155139D01*
X37435637Y19132822D01*
X37432059Y19116511D01*
X37429818Y19106207D01*
X37425852Y19087167D01*
X37420418Y19060659D01*
X37413773Y19027953D01*
X37406176Y18990319D01*
X37397885Y18949025D01*
X37389157Y18905341D01*
X37388407Y18901578D01*
X37375882Y18838751D01*
X37362362Y18770999D01*
X37347968Y18698930D01*
X37332823Y18623155D01*
X37317049Y18544282D01*
X37300769Y18462920D01*
X37284104Y18379679D01*
X37267177Y18295168D01*
X37250110Y18209995D01*
X37233026Y18124772D01*
X37216046Y18040105D01*
X37199294Y17956605D01*
X37182891Y17874881D01*
X37166960Y17795543D01*
X37151623Y17719198D01*
X37137001Y17646457D01*
X37123219Y17577929D01*
X37110397Y17514222D01*
X37098659Y17455947D01*
X37088125Y17403712D01*
X37078920Y17358126D01*
X37071164Y17319799D01*
X37064981Y17289340D01*
X37060492Y17267358D01*
X37057820Y17254462D01*
X37057201Y17251598D01*
X37052072Y17228106D01*
X37046849Y17202487D01*
X37044536Y17190393D01*
X37042145Y17177934D01*
X37038015Y17156943D01*
X37032439Y17128888D01*
X37025709Y17095233D01*
X37018118Y17057445D01*
X37009959Y17016989D01*
X37005315Y16994028D01*
X36997161Y16953749D01*
X36989571Y16916232D01*
X36982806Y16882761D01*
X36977124Y16854622D01*
X36972786Y16833098D01*
X36970049Y16819474D01*
X36969262Y16815514D01*
X36967725Y16807760D01*
X36964419Y16791185D01*
X36959581Y16766970D01*
X36953447Y16736296D01*
X36946253Y16700343D01*
X36938236Y16660294D01*
X36929632Y16617328D01*
X36928464Y16611498D01*
X36919722Y16567847D01*
X36911471Y16526622D01*
X36903959Y16489065D01*
X36897434Y16456417D01*
X36892144Y16429922D01*
X36888338Y16410820D01*
X36886263Y16400354D01*
X36886160Y16399831D01*
X36869466Y16314842D01*
X36854071Y16237311D01*
X36839462Y16164657D01*
X36830138Y16118802D01*
X36826700Y16101872D01*
X36821390Y16075596D01*
X36814339Y16040630D01*
X36805679Y15997630D01*
X36795543Y15947251D01*
X36784062Y15890150D01*
X36771368Y15826983D01*
X36757592Y15758405D01*
X36742866Y15685072D01*
X36727323Y15607640D01*
X36711094Y15526766D01*
X36694310Y15443105D01*
X36677104Y15357312D01*
X36661151Y15277743D01*
X36643898Y15191693D01*
X36627085Y15107867D01*
X36610834Y15026862D01*
X36595263Y14949275D01*
X36580493Y14875702D01*
X36566643Y14806740D01*
X36553833Y14742986D01*
X36542185Y14685038D01*
X36531816Y14633491D01*
X36522848Y14588943D01*
X36515400Y14551991D01*
X36509593Y14523231D01*
X36505545Y14503260D01*
X36503378Y14492675D01*
X36503341Y14492497D01*
X36499317Y14472314D01*
X36496496Y14456321D01*
X36495267Y14446823D01*
X36495374Y14445228D01*
X36500777Y14444838D01*
X36515720Y14444496D01*
X36539541Y14444200D01*
X36571580Y14443948D01*
X36611175Y14443739D01*
X36657666Y14443571D01*
X36710391Y14443443D01*
X36768689Y14443354D01*
X36831899Y14443302D01*
X36899360Y14443287D01*
X36970411Y14443305D01*
X37044391Y14443357D01*
X37120638Y14443440D01*
X37198493Y14443553D01*
X37277293Y14443695D01*
X37356377Y14443865D01*
X37435085Y14444061D01*
X37512756Y14444281D01*
X37588728Y14444524D01*
X37662340Y14444790D01*
X37732931Y14445075D01*
X37799840Y14445380D01*
X37862407Y14445703D01*
X37919969Y14446041D01*
X37971867Y14446395D01*
X38017438Y14446761D01*
X38056022Y14447140D01*
X38086957Y14447530D01*
X38109583Y14447928D01*
X38123239Y14448335D01*
X38127305Y14448690D01*
X38126841Y14453058D01*
X38117314Y14456662D01*
X38076474Y14467349D01*
X38029878Y14482617D01*
X37979923Y14501433D01*
X37929007Y14522767D01*
X37879528Y14545585D01*
X37833883Y14568856D01*
X37794471Y14591547D01*
X37776125Y14603541D01*
X37757659Y14617192D01*
X37735919Y14634641D01*
X37712164Y14654726D01*
X37687651Y14676283D01*
X37663639Y14698149D01*
X37641388Y14719160D01*
X37622154Y14738154D01*
X37607198Y14753967D01*
X37597777Y14765435D01*
X37595061Y14770901D01*
X37591849Y14777110D01*
X37587198Y14782488D01*
X37577091Y14794590D01*
X37563452Y14813717D01*
X37547523Y14837875D01*
X37530545Y14865074D01*
X37513760Y14893321D01*
X37498408Y14920626D01*
X37485733Y14944996D01*
X37485135Y14946217D01*
X37470304Y14977917D01*
X37456603Y15009577D01*
X37444715Y15039396D01*
X37435322Y15065575D01*
X37429107Y15086314D01*
X37426752Y15099812D01*
X37426747Y15100205D01*
X37425191Y15109317D01*
X37422523Y15111980D01*
X37419003Y15116788D01*
X37414346Y15130244D01*
X37408846Y15150896D01*
X37402793Y15177291D01*
X37396480Y15207977D01*
X37390199Y15241502D01*
X37384241Y15276414D01*
X37378900Y15311260D01*
X37374467Y15344587D01*
X37372776Y15359349D01*
X37369659Y15392631D01*
X37367610Y15425813D01*
X37366563Y15461391D01*
X37366446Y15501863D01*
X37367190Y15549726D01*
X37367326Y15555715D01*
X37368089Y15588710D01*
X37368832Y15617067D01*
X37369719Y15641986D01*
X37370913Y15664666D01*
X37372578Y15686306D01*
X37374878Y15708105D01*
X37377977Y15731263D01*
X37382039Y15756980D01*
X37387227Y15786453D01*
X37393706Y15820882D01*
X37401638Y15861468D01*
X37411189Y15909408D01*
X37422521Y15965902D01*
X37425160Y15979048D01*
X37434493Y16025597D01*
X37443831Y16072227D01*
X37452831Y16117222D01*
X37461150Y16158863D01*
X37468443Y16195433D01*
X37474369Y16225214D01*
X37478145Y16244269D01*
X37484383Y16275753D01*
X37490934Y16308656D01*
X37497069Y16339325D01*
X37502058Y16364107D01*
X37502579Y16366679D01*
X37505836Y16382810D01*
X37510796Y16407480D01*
X37517167Y16439223D01*
X37524655Y16476575D01*
X37532966Y16518069D01*
X37541806Y16562242D01*
X37550882Y16607628D01*
X37551146Y16608948D01*
X37559931Y16652760D01*
X37568261Y16694031D01*
X37575885Y16731549D01*
X37582555Y16764101D01*
X37588024Y16790476D01*
X37592041Y16809460D01*
X37594360Y16819842D01*
X37594554Y16820614D01*
X37597945Y16835366D01*
X37601949Y16855296D01*
X37604914Y16871618D01*
X37608789Y16892686D01*
X37613951Y16918794D01*
X37619425Y16945034D01*
X37620648Y16950675D01*
X37624987Y16971137D01*
X37630679Y16998894D01*
X37637175Y17031215D01*
X37643925Y17065373D01*
X37648897Y17090936D01*
X37655164Y17123159D01*
X37661291Y17154194D01*
X37666818Y17181752D01*
X37671287Y17203543D01*
X37673927Y17215896D01*
X37678851Y17238651D01*
X37683863Y17262842D01*
X37686189Y17274550D01*
X37689655Y17292200D01*
X37694368Y17315899D01*
X37699541Y17341698D01*
X37701944Y17353606D01*
X37712014Y17403417D01*
X37722337Y17454550D01*
X37733128Y17508058D01*
X37744597Y17564997D01*
X37756957Y17626420D01*
X37770421Y17693381D01*
X37785199Y17766935D01*
X37801504Y17848135D01*
X37819548Y17938036D01*
X37824067Y17960554D01*
X37835679Y18018406D01*
X37847280Y18076174D01*
X37858993Y18134463D01*
X37870940Y18193879D01*
X37883242Y18255026D01*
X37896023Y18318511D01*
X37909403Y18384938D01*
X37923504Y18454911D01*
X37938450Y18529038D01*
X37954362Y18607922D01*
X37971361Y18692168D01*
X37989571Y18782383D01*
X38009112Y18879171D01*
X38030108Y18983137D01*
X38052680Y19094886D01*
X38076949Y19215025D01*
X38103039Y19344157D01*
X38121308Y19434570D01*
X38135326Y19504001D01*
X38148896Y19571318D01*
X38161865Y19635754D01*
X38174077Y19696541D01*
X38185381Y19752911D01*
X38195622Y19804094D01*
X38204647Y19849324D01*
X38212301Y19887832D01*
X38218432Y19918849D01*
X38222885Y19941608D01*
X38225508Y19955340D01*
X38225875Y19957361D01*
X38229879Y19977602D01*
X38233900Y19994046D01*
X38237259Y20004039D01*
X38238189Y20005560D01*
X38241483Y20013757D01*
X38242812Y20026205D01*
X38243866Y20037345D01*
X38246734Y20055814D01*
X38250970Y20078995D01*
X38255850Y20102966D01*
X38262238Y20133361D01*
X38269025Y20166509D01*
X38275242Y20197641D01*
X38278593Y20214932D01*
X38283148Y20238547D01*
X38288657Y20266603D01*
X38294682Y20296928D01*
X38300787Y20327352D01*
X38306533Y20355702D01*
X38311485Y20379807D01*
X38315204Y20397495D01*
X38316764Y20404565D01*
X38322383Y20417323D01*
X38327030Y20423381D01*
X38329096Y20427539D01*
X38332137Y20437060D01*
X38336240Y20452335D01*
X38341489Y20473755D01*
X38347970Y20501710D01*
X38355768Y20536592D01*
X38364969Y20578792D01*
X38375657Y20628700D01*
X38387918Y20686707D01*
X38401838Y20753205D01*
X38417501Y20828583D01*
X38434993Y20913233D01*
X38451882Y20995293D01*
X38459260Y21031129D01*
X38467052Y21068873D01*
X38474598Y21105331D01*
X38481238Y21137313D01*
X38485125Y21155956D01*
X38496699Y21211349D01*
X38508046Y21265721D01*
X38519421Y21320304D01*
X38531080Y21376328D01*
X38543280Y21435026D01*
X38556275Y21497627D01*
X38570322Y21565365D01*
X38585676Y21639470D01*
X38602593Y21721173D01*
X38620201Y21806257D01*
X38632670Y21866505D01*
X38644894Y21925543D01*
X38656659Y21982334D01*
X38667747Y22035840D01*
X38677946Y22085022D01*
X38687038Y22128843D01*
X38694809Y22166264D01*
X38701044Y22196247D01*
X38705527Y22217754D01*
X38706936Y22224490D01*
X38720385Y22288761D01*
X38733379Y22351112D01*
X38745761Y22410764D01*
X38757372Y22466942D01*
X38768052Y22518868D01*
X38777644Y22565765D01*
X38785988Y22606855D01*
X38792926Y22641361D01*
X38798298Y22668506D01*
X38801946Y22687512D01*
X38803712Y22697604D01*
X38803856Y22698926D01*
X38803016Y22699651D01*
X38800283Y22700327D01*
X38795333Y22700955D01*
X38787844Y22701538D01*
X38777492Y22702076D01*
X38763955Y22702571D01*
X38746910Y22703023D01*
X38726034Y22703434D01*
X38701005Y22703806D01*
X38671499Y22704139D01*
X38637194Y22704436D01*
X38597768Y22704696D01*
X38552896Y22704922D01*
X38502257Y22705115D01*
X38445527Y22705276D01*
X38382384Y22705406D01*
X38312505Y22705507D01*
X38235567Y22705579D01*
X38151248Y22705625D01*
X38059224Y22705645D01*
X37959173Y22705641D01*
X37850771Y22705614D01*
X37733697Y22705565D01*
X37607627Y22705495D01*
X37472239Y22705406D01*
X37327209Y22705300D01*
X37214572Y22705211D01*
X35625289Y22703928D01*
X35605198Y22650373D01*
X35560429Y22545400D01*
X35506842Y22445372D01*
X35444722Y22350631D01*
X35374354Y22261518D01*
X35296023Y22178374D01*
X35210013Y22101541D01*
X35116610Y22031359D01*
X35055061Y21991305D01*
X34943390Y21928484D01*
X34826278Y21874053D01*
X34703588Y21827967D01*
X34575186Y21790180D01*
X34440936Y21760648D01*
X34304046Y21739729D01*
X34288527Y21736902D01*
X34280473Y21732367D01*
X34277344Y21725616D01*
X34276101Y21719165D01*
X34273145Y21703352D01*
X34268600Y21678848D01*
X34262589Y21646325D01*
X34255236Y21606454D01*
X34246665Y21559908D01*
X34236999Y21507358D01*
X34226362Y21449476D01*
X34214877Y21386934D01*
X34202668Y21320402D01*
X34189859Y21250554D01*
X34177663Y21184008D01*
X34163992Y21109426D01*
X34150517Y21035990D01*
X34137393Y20964530D01*
X34124773Y20895879D01*
X34112809Y20830868D01*
X34101656Y20770328D01*
X34091466Y20715092D01*
X34082392Y20665991D01*
X34074589Y20623856D01*
X34068209Y20589520D01*
X34063405Y20563813D01*
X34061093Y20551558D01*
X34055327Y20520528D01*
X34050444Y20492922D01*
X34046700Y20470299D01*
X34044350Y20454220D01*
X34043651Y20446242D01*
X34043746Y20445725D01*
X34049086Y20444997D01*
X34063681Y20444315D01*
X34086585Y20443691D01*
X34116853Y20443139D01*
X34153539Y20442671D01*
X34195698Y20442302D01*
X34242383Y20442044D01*
X34292649Y20441910D01*
X34317079Y20441894D01*
X34381133Y20441815D01*
X34452250Y20441591D01*
X34527776Y20441240D01*
X34605058Y20440778D01*
X34681442Y20440221D01*
X34754274Y20439587D01*
X34820901Y20438891D01*
X34851396Y20438522D01*
X35114419Y20435155D01*
X35094723Y20340345D01*
X35087074Y20303592D01*
X35078758Y20263734D01*
X35070532Y20224405D01*
X35063158Y20189240D01*
X35059443Y20171578D01*
X35047802Y20116297D01*
X35037302Y20066362D01*
X35028123Y20022629D01*
X35020445Y19985958D01*
X35014446Y19957206D01*
X35010308Y19937231D01*
X35009207Y19931859D01*
X35006366Y19918386D01*
X35001859Y19897557D01*
X34996252Y19871970D01*
X34990113Y19844222D01*
X34988617Y19837502D01*
X34981220Y19804222D01*
X34975488Y19778126D01*
X34970839Y19756449D01*
X34966694Y19736425D01*
X34962470Y19715289D01*
X34957586Y19690273D01*
X34956465Y19684490D01*
X34952648Y19665280D01*
X34947266Y19638875D01*
X34940892Y19608055D01*
X34934101Y19575597D01*
X34930167Y19556980D01*
X34922629Y19521444D01*
X34913823Y19479933D01*
X34904600Y19436454D01*
X34895809Y19395009D01*
X34891218Y19373365D01*
X34883445Y19336722D01*
X34875098Y19297380D01*
X34866909Y19258782D01*
X34859606Y19224370D01*
X34855506Y19205052D01*
X34849288Y19175595D01*
X34843139Y19146179D01*
X34837716Y19119963D01*
X34833675Y19100106D01*
X34833243Y19097944D01*
X34830051Y19082208D01*
X34825177Y19058566D01*
X34819053Y19029091D01*
X34812108Y18995854D01*
X34804775Y18960929D01*
X34802479Y18950032D01*
X34793955Y18909559D01*
X34784590Y18865029D01*
X34775129Y18819980D01*
X34766314Y18777949D01*
X34759096Y18743466D01*
X34751933Y18709277D01*
X34744589Y18674345D01*
X34737668Y18641541D01*
X34731776Y18613736D01*
X34728442Y18598104D01*
X34722974Y18572455D01*
X34716295Y18540922D01*
X34709272Y18507612D01*
X34703110Y18478245D01*
X34694252Y18435921D01*
X34687121Y18401917D01*
X34681359Y18374566D01*
X34676612Y18352202D01*
X34672522Y18333158D01*
X34668733Y18315767D01*
X34664890Y18298364D01*
X34660636Y18279282D01*
X34659506Y18274229D01*
X34653771Y18248085D01*
X34648433Y18222840D01*
X34644165Y18201731D01*
X34641987Y18190072D01*
X34638939Y18173713D01*
X34634430Y18151123D01*
X34629214Y18126032D01*
X34626544Y18113566D01*
X34620404Y18084959D01*
X34613729Y18053445D01*
X34607689Y18024561D01*
X34606057Y18016659D01*
X34599810Y17986438D01*
X34592688Y17952237D01*
X34585065Y17915831D01*
X34577316Y17878992D01*
X34569815Y17843495D01*
X34562938Y17811114D01*
X34557058Y17783622D01*
X34552551Y17762794D01*
X34550029Y17751438D01*
X34547330Y17739164D01*
X34542950Y17718680D01*
X34537264Y17691766D01*
X34530647Y17660203D01*
X34523475Y17625771D01*
X34519392Y17606076D01*
X34510756Y17564443D01*
X34501244Y17518758D01*
X34491564Y17472415D01*
X34482425Y17428805D01*
X34474536Y17391320D01*
X34473573Y17386759D01*
X34465234Y17347248D01*
X34455852Y17302708D01*
X34446302Y17257301D01*
X34437458Y17215184D01*
X34432797Y17192944D01*
X34424815Y17154857D01*
X34415604Y17110950D01*
X34406036Y17065382D01*
X34396986Y17022314D01*
X34392109Y16999128D01*
X34385336Y16966932D01*
X34378967Y16936640D01*
X34373422Y16910245D01*
X34369119Y16889741D01*
X34366477Y16877122D01*
X34366393Y16876719D01*
X34363598Y16863375D01*
X34359230Y16842583D01*
X34353821Y16816872D01*
X34347903Y16788775D01*
X34346013Y16779811D01*
X34340249Y16752338D01*
X34335042Y16727271D01*
X34330855Y16706860D01*
X34328152Y16693350D01*
X34327621Y16690554D01*
X34324646Y16676910D01*
X34321927Y16667602D01*
X34318890Y16656593D01*
X34317105Y16647201D01*
X34315219Y16636723D01*
X34311767Y16619236D01*
X34307340Y16597698D01*
X34304874Y16585996D01*
X34293243Y16531165D01*
X34282181Y16478762D01*
X34271997Y16430266D01*
X34263002Y16387158D01*
X34255503Y16350916D01*
X34249812Y16323021D01*
X34249360Y16320775D01*
X34243378Y16291882D01*
X34236364Y16259263D01*
X34229654Y16229116D01*
X34228453Y16223867D01*
X34222422Y16197437D01*
X34217644Y16175674D01*
X34213316Y16154711D01*
X34208633Y16130679D01*
X34204075Y16106558D01*
X34201049Y16091226D01*
X34196405Y16068655D01*
X34190712Y16041570D01*
X34184539Y16012695D01*
X34182778Y16004550D01*
X34176110Y15973575D01*
X34168154Y15936266D01*
X34159684Y15896282D01*
X34151478Y15857280D01*
X34147079Y15836237D01*
X34139130Y15798152D01*
X34129947Y15754246D01*
X34120400Y15708679D01*
X34111362Y15665612D01*
X34106486Y15642422D01*
X34099718Y15610226D01*
X34093363Y15579935D01*
X34087838Y15553540D01*
X34083561Y15533036D01*
X34080949Y15520416D01*
X34080866Y15520012D01*
X34073727Y15489587D01*
X34065165Y15463525D01*
X34053763Y15437036D01*
X34045516Y15419310D01*
X34035052Y15396689D01*
X34024397Y15373557D01*
X34022556Y15369550D01*
X34014421Y15352666D01*
X34003703Y15331600D01*
X33991441Y15308258D01*
X33978672Y15284547D01*
X33966434Y15262370D01*
X33955766Y15243634D01*
X33947706Y15230245D01*
X33943382Y15224189D01*
X33939277Y15218233D01*
X33933377Y15207612D01*
X33927079Y15197771D01*
X33921969Y15193588D01*
X33921910Y15193586D01*
X33917878Y15189603D01*
X33917671Y15187828D01*
X33914621Y15179917D01*
X33906128Y15165447D01*
X33893180Y15145775D01*
X33876767Y15122261D01*
X33857875Y15096265D01*
X33837492Y15069144D01*
X33816608Y15042258D01*
X33796209Y15016966D01*
X33777285Y14994626D01*
X33776764Y14994031D01*
X33751904Y14966893D01*
X33721765Y14935893D01*
X33688545Y14903142D01*
X33654444Y14870751D01*
X33621664Y14840830D01*
X33592403Y14815490D01*
X33580722Y14805946D01*
X33556765Y14787306D01*
X33531417Y14768346D01*
X33506154Y14750087D01*
X33482452Y14733550D01*
X33461784Y14719756D01*
X33445626Y14709725D01*
X33435454Y14704479D01*
X33433329Y14703948D01*
X33428212Y14700863D01*
X33428033Y14699794D01*
X33423958Y14695030D01*
X33413730Y14688026D01*
X33408906Y14685278D01*
X33391579Y14675722D01*
X33372977Y14665228D01*
X33369378Y14663163D01*
X33333109Y14643435D01*
X33290074Y14621917D01*
X33243207Y14599967D01*
X33195446Y14578943D01*
X33149725Y14560203D01*
X33132209Y14553479D01*
X33099750Y14542087D01*
X33061676Y14529988D01*
X33020264Y14517792D01*
X32977790Y14506111D01*
X32936530Y14495556D01*
X32898761Y14486738D01*
X32866758Y14480268D01*
X32849137Y14477481D01*
X32835112Y14475585D01*
X32814414Y14472700D01*
X32790465Y14469306D01*
X32777731Y14467480D01*
X32748695Y14463769D01*
X32715202Y14460203D01*
X32682986Y14457374D01*
X32672265Y14456614D01*
X32646315Y14454405D01*
X32627532Y14451677D01*
X32617150Y14448634D01*
X32615535Y14447187D01*
X32378035Y14447187D01*
X32425256Y14672573D01*
X32637196Y14674680D01*
X32693838Y14675298D01*
X32741668Y14676036D01*
X32782075Y14677057D01*
X32816449Y14678521D01*
X32846178Y14680591D01*
X32872651Y14683428D01*
X32897257Y14687193D01*
X32921386Y14692049D01*
X32946425Y14698158D01*
X32973765Y14705680D01*
X33004795Y14714778D01*
X33019519Y14719186D01*
X33128299Y14757012D01*
X33231866Y14803499D01*
X33329969Y14858395D01*
X33422359Y14921451D01*
X33508787Y14992413D01*
X33589002Y15071033D01*
X33662754Y15157058D01*
X33729795Y15250237D01*
X33789873Y15350320D01*
X33842739Y15457055D01*
X33888144Y15570192D01*
X33899736Y15603731D01*
X33907487Y15627322D01*
X33914591Y15649892D01*
X33921293Y15672471D01*
X33927835Y15696089D01*
X33934462Y15721778D01*
X33941417Y15750565D01*
X33948945Y15783483D01*
X33957287Y15821560D01*
X33966690Y15865827D01*
X33977395Y15917313D01*
X33989647Y15977050D01*
X33999402Y16024952D01*
X34009665Y16075419D01*
X34021613Y16134114D01*
X34034886Y16199270D01*
X34049123Y16269119D01*
X34063965Y16341896D01*
X34079051Y16415833D01*
X34094020Y16489165D01*
X34108513Y16560125D01*
X34121096Y16621699D01*
X34143877Y16733139D01*
X34167538Y16848884D01*
X34191986Y16968482D01*
X34217129Y17091479D01*
X34242874Y17217422D01*
X34269127Y17345858D01*
X34295797Y17476333D01*
X34322791Y17608394D01*
X34350017Y17741588D01*
X34377381Y17875461D01*
X34404791Y18009561D01*
X34432154Y18143434D01*
X34459378Y18276627D01*
X34486370Y18408687D01*
X34513038Y18539160D01*
X34539288Y18667593D01*
X34565029Y18793533D01*
X34590167Y18916527D01*
X34614610Y19036121D01*
X34638265Y19151862D01*
X34661040Y19263297D01*
X34682841Y19369973D01*
X34703577Y19471436D01*
X34723155Y19567233D01*
X34741482Y19656911D01*
X34758465Y19740016D01*
X34774012Y19816096D01*
X34788030Y19884698D01*
X34800427Y19945367D01*
X34811109Y19997650D01*
X34819985Y20041095D01*
X34826961Y20075248D01*
X34829952Y20089893D01*
X34836875Y20124122D01*
X34842971Y20154882D01*
X34847980Y20180816D01*
X34851645Y20200567D01*
X34853705Y20212777D01*
X34854023Y20216204D01*
X34848837Y20216403D01*
X34834112Y20216608D01*
X34810511Y20216816D01*
X34778697Y20217024D01*
X34739331Y20217230D01*
X34693077Y20217430D01*
X34640596Y20217622D01*
X34582551Y20217804D01*
X34519604Y20217973D01*
X34452418Y20218126D01*
X34381655Y20218260D01*
X34307978Y20218374D01*
X34306768Y20218376D01*
X34219941Y20218504D01*
X34142759Y20218644D01*
X34074663Y20218805D01*
X34015097Y20218997D01*
X33963503Y20219227D01*
X33919325Y20219506D01*
X33882006Y20219843D01*
X33850988Y20220246D01*
X33825715Y20220724D01*
X33805629Y20221288D01*
X33790173Y20221944D01*
X33778791Y20222704D01*
X33770925Y20223575D01*
X33766018Y20224567D01*
X33763513Y20225690D01*
X33762854Y20226951D01*
X33762895Y20227226D01*
X33764092Y20233079D01*
X33767153Y20248385D01*
X33771969Y20272588D01*
X33778431Y20305133D01*
X33786428Y20345465D01*
X33795850Y20393029D01*
X33806588Y20447269D01*
X33818532Y20507631D01*
X33831572Y20573559D01*
X33845598Y20644498D01*
X33860500Y20719892D01*
X33876168Y20799187D01*
X33892492Y20881827D01*
X33909363Y20967257D01*
X33912885Y20985092D01*
X33930348Y21073537D01*
X33947589Y21160858D01*
X33964474Y21246368D01*
X33980866Y21329381D01*
X33996629Y21409208D01*
X34011628Y21485165D01*
X34025728Y21556563D01*
X34038792Y21622717D01*
X34050685Y21682939D01*
X34061272Y21736542D01*
X34070416Y21782840D01*
X34077983Y21821146D01*
X34083836Y21850773D01*
X34087638Y21870012D01*
X34114356Y22005173D01*
X34218755Y22005860D01*
X34338834Y22011033D01*
X34454353Y22024858D01*
X34565069Y22047212D01*
X34670742Y22077969D01*
X34771128Y22117005D01*
X34865986Y22164194D01*
X34955072Y22219412D01*
X35038146Y22282534D01*
X35114964Y22353436D01*
X35185285Y22431992D01*
X35248866Y22518078D01*
X35266881Y22545815D01*
X35290402Y22585847D01*
X35314962Y22632431D01*
X35339475Y22683120D01*
X35362855Y22735466D01*
X35384015Y22787022D01*
X35401868Y22835341D01*
X35415328Y22877975D01*
X35416898Y22883717D01*
X35422683Y22905393D01*
X37242707Y22905393D01*
X39062731Y22905393D01*
X39055500Y22870966D01*
G37*
D14*
%TO.C,S2*%
X28730000Y9096000D02*
X28730000Y3096000D01*
X28730000Y3096000D02*
X29480000Y3096000D01*
X29480000Y9096000D02*
X28730000Y9096000D01*
X31480000Y3096000D02*
X32230000Y3096000D01*
X32230000Y9096000D02*
X31480000Y9096000D01*
X32230000Y3096000D02*
X32230000Y9096000D01*
X30568900Y546000D02*
G75*
G02*
X30391100Y546000I-88900J0D01*
G01*
X30391100Y546000D02*
G75*
G02*
X30568900Y546000I88900J0D01*
G01*
%TD*%
M02*
