%TF.GenerationSoftware,KiCad,Pcbnew,8.0.4*%
%TF.CreationDate,2024-09-05T11:58:49-04:00*%
%TF.ProjectId,ESP32-RC_R0,45535033-322d-4524-935f-52302e6b6963,0*%
%TF.SameCoordinates,PX6dbb4f0PY6d3f490*%
%TF.FileFunction,Paste,Top*%
%TF.FilePolarity,Positive*%
%FSLAX46Y46*%
G04 Gerber Fmt 4.6, Leading zero omitted, Abs format (unit mm)*
G04 Created by KiCad (PCBNEW 8.0.4) date 2024-09-05 11:58:49*
%MOMM*%
%LPD*%
G01*
G04 APERTURE LIST*
%ADD10C,0.100000*%
%ADD11C,0.150000*%
%ADD12C,0.300000*%
%ADD13C,0.400000*%
%ADD14C,0.010000*%
%ADD15R,0.800000X0.800000*%
%ADD16R,0.939800X0.812800*%
%ADD17R,0.812800X0.939800*%
%ADD18R,0.400000X0.480000*%
%ADD19R,1.397000X1.016000*%
%ADD20R,1.016000X1.397000*%
%ADD21R,1.803400X7.493000*%
%ADD22R,0.270000X0.990000*%
%ADD23R,0.990000X0.270000*%
%ADD24R,0.660400X1.549400*%
%ADD25R,1.295400X1.905000*%
%ADD26R,2.000000X0.900000*%
%ADD27R,0.900000X2.000000*%
%ADD28R,1.330000X1.330000*%
%ADD29R,1.500000X2.000000*%
%ADD30R,0.600000X0.800000*%
%ADD31R,0.400000X1.350000*%
%ADD32R,1.800000X1.900000*%
%ADD33R,1.900000X1.900000*%
%ADD34R,0.600000X1.150000*%
%ADD35R,5.500000X1.000000*%
%ADD36R,3.000000X1.600000*%
%ADD37R,0.460000X1.040000*%
G04 APERTURE END LIST*
D10*
D11*
X44338000Y-57346000D02*
X152338000Y-57346000D01*
X152338000Y-89346000D01*
X44338000Y-89346000D01*
X44338000Y-57346000D01*
D10*
D11*
X-105062000Y104554000D02*
X154338000Y104554000D01*
X154338000Y-91346000D01*
X-105062000Y-91346000D01*
X-105062000Y104554000D01*
D10*
D11*
X-103062000Y102554000D02*
X152338000Y102554000D01*
X152338000Y-89346000D01*
X-103062000Y-89346000D01*
X-103062000Y102554000D01*
D10*
D11*
X-55062000Y102554000D02*
X-55062000Y104554000D01*
D10*
D11*
X-5062000Y102554000D02*
X-5062000Y104554000D01*
D10*
D11*
X44938000Y102554000D02*
X44938000Y104554000D01*
D10*
D11*
X94938000Y102554000D02*
X94938000Y104554000D01*
D10*
D11*
X144938000Y102554000D02*
X144938000Y104554000D01*
D10*
D11*
X-78972840Y102960396D02*
X-79715697Y102960396D01*
X-79344269Y102960396D02*
X-79344269Y104260396D01*
X-79344269Y104260396D02*
X-79468078Y104074681D01*
X-79468078Y104074681D02*
X-79591888Y103950872D01*
X-79591888Y103950872D02*
X-79715697Y103888967D01*
D10*
D11*
X-29715697Y104136586D02*
X-29653793Y104198491D01*
X-29653793Y104198491D02*
X-29529983Y104260396D01*
X-29529983Y104260396D02*
X-29220459Y104260396D01*
X-29220459Y104260396D02*
X-29096650Y104198491D01*
X-29096650Y104198491D02*
X-29034745Y104136586D01*
X-29034745Y104136586D02*
X-28972840Y104012777D01*
X-28972840Y104012777D02*
X-28972840Y103888967D01*
X-28972840Y103888967D02*
X-29034745Y103703253D01*
X-29034745Y103703253D02*
X-29777602Y102960396D01*
X-29777602Y102960396D02*
X-28972840Y102960396D01*
D10*
D11*
X20222398Y104260396D02*
X21027160Y104260396D01*
X21027160Y104260396D02*
X20593826Y103765158D01*
X20593826Y103765158D02*
X20779541Y103765158D01*
X20779541Y103765158D02*
X20903350Y103703253D01*
X20903350Y103703253D02*
X20965255Y103641348D01*
X20965255Y103641348D02*
X21027160Y103517539D01*
X21027160Y103517539D02*
X21027160Y103208015D01*
X21027160Y103208015D02*
X20965255Y103084205D01*
X20965255Y103084205D02*
X20903350Y103022300D01*
X20903350Y103022300D02*
X20779541Y102960396D01*
X20779541Y102960396D02*
X20408112Y102960396D01*
X20408112Y102960396D02*
X20284303Y103022300D01*
X20284303Y103022300D02*
X20222398Y103084205D01*
D10*
D11*
X70903350Y103827062D02*
X70903350Y102960396D01*
X70593826Y104322300D02*
X70284303Y103393729D01*
X70284303Y103393729D02*
X71089064Y103393729D01*
D10*
D11*
X120965255Y104260396D02*
X120346207Y104260396D01*
X120346207Y104260396D02*
X120284303Y103641348D01*
X120284303Y103641348D02*
X120346207Y103703253D01*
X120346207Y103703253D02*
X120470017Y103765158D01*
X120470017Y103765158D02*
X120779541Y103765158D01*
X120779541Y103765158D02*
X120903350Y103703253D01*
X120903350Y103703253D02*
X120965255Y103641348D01*
X120965255Y103641348D02*
X121027160Y103517539D01*
X121027160Y103517539D02*
X121027160Y103208015D01*
X121027160Y103208015D02*
X120965255Y103084205D01*
X120965255Y103084205D02*
X120903350Y103022300D01*
X120903350Y103022300D02*
X120779541Y102960396D01*
X120779541Y102960396D02*
X120470017Y102960396D01*
X120470017Y102960396D02*
X120346207Y103022300D01*
X120346207Y103022300D02*
X120284303Y103084205D01*
D10*
D11*
X-55062000Y-89346000D02*
X-55062000Y-91346000D01*
D10*
D11*
X-5062000Y-89346000D02*
X-5062000Y-91346000D01*
D10*
D11*
X44938000Y-89346000D02*
X44938000Y-91346000D01*
D10*
D11*
X94938000Y-89346000D02*
X94938000Y-91346000D01*
D10*
D11*
X144938000Y-89346000D02*
X144938000Y-91346000D01*
D10*
D11*
X-78972840Y-90939604D02*
X-79715697Y-90939604D01*
X-79344269Y-90939604D02*
X-79344269Y-89639604D01*
X-79344269Y-89639604D02*
X-79468078Y-89825319D01*
X-79468078Y-89825319D02*
X-79591888Y-89949128D01*
X-79591888Y-89949128D02*
X-79715697Y-90011033D01*
D10*
D11*
X-29715697Y-89763414D02*
X-29653793Y-89701509D01*
X-29653793Y-89701509D02*
X-29529983Y-89639604D01*
X-29529983Y-89639604D02*
X-29220459Y-89639604D01*
X-29220459Y-89639604D02*
X-29096650Y-89701509D01*
X-29096650Y-89701509D02*
X-29034745Y-89763414D01*
X-29034745Y-89763414D02*
X-28972840Y-89887223D01*
X-28972840Y-89887223D02*
X-28972840Y-90011033D01*
X-28972840Y-90011033D02*
X-29034745Y-90196747D01*
X-29034745Y-90196747D02*
X-29777602Y-90939604D01*
X-29777602Y-90939604D02*
X-28972840Y-90939604D01*
D10*
D11*
X20222398Y-89639604D02*
X21027160Y-89639604D01*
X21027160Y-89639604D02*
X20593826Y-90134842D01*
X20593826Y-90134842D02*
X20779541Y-90134842D01*
X20779541Y-90134842D02*
X20903350Y-90196747D01*
X20903350Y-90196747D02*
X20965255Y-90258652D01*
X20965255Y-90258652D02*
X21027160Y-90382461D01*
X21027160Y-90382461D02*
X21027160Y-90691985D01*
X21027160Y-90691985D02*
X20965255Y-90815795D01*
X20965255Y-90815795D02*
X20903350Y-90877700D01*
X20903350Y-90877700D02*
X20779541Y-90939604D01*
X20779541Y-90939604D02*
X20408112Y-90939604D01*
X20408112Y-90939604D02*
X20284303Y-90877700D01*
X20284303Y-90877700D02*
X20222398Y-90815795D01*
D10*
D11*
X70903350Y-90072938D02*
X70903350Y-90939604D01*
X70593826Y-89577700D02*
X70284303Y-90506271D01*
X70284303Y-90506271D02*
X71089064Y-90506271D01*
D10*
D11*
X120965255Y-89639604D02*
X120346207Y-89639604D01*
X120346207Y-89639604D02*
X120284303Y-90258652D01*
X120284303Y-90258652D02*
X120346207Y-90196747D01*
X120346207Y-90196747D02*
X120470017Y-90134842D01*
X120470017Y-90134842D02*
X120779541Y-90134842D01*
X120779541Y-90134842D02*
X120903350Y-90196747D01*
X120903350Y-90196747D02*
X120965255Y-90258652D01*
X120965255Y-90258652D02*
X121027160Y-90382461D01*
X121027160Y-90382461D02*
X121027160Y-90691985D01*
X121027160Y-90691985D02*
X120965255Y-90815795D01*
X120965255Y-90815795D02*
X120903350Y-90877700D01*
X120903350Y-90877700D02*
X120779541Y-90939604D01*
X120779541Y-90939604D02*
X120470017Y-90939604D01*
X120470017Y-90939604D02*
X120346207Y-90877700D01*
X120346207Y-90877700D02*
X120284303Y-90815795D01*
D10*
D11*
X-105062000Y54554000D02*
X-103062000Y54554000D01*
D10*
D11*
X-105062000Y4554000D02*
X-103062000Y4554000D01*
D10*
D11*
X-105062000Y-45446000D02*
X-103062000Y-45446000D01*
D10*
D11*
X-104371524Y79331824D02*
X-103752477Y79331824D01*
X-104495334Y78960396D02*
X-104062001Y80260396D01*
X-104062001Y80260396D02*
X-103628667Y78960396D01*
D10*
D11*
X-103969143Y29641348D02*
X-103783429Y29579443D01*
X-103783429Y29579443D02*
X-103721524Y29517539D01*
X-103721524Y29517539D02*
X-103659620Y29393729D01*
X-103659620Y29393729D02*
X-103659620Y29208015D01*
X-103659620Y29208015D02*
X-103721524Y29084205D01*
X-103721524Y29084205D02*
X-103783429Y29022300D01*
X-103783429Y29022300D02*
X-103907239Y28960396D01*
X-103907239Y28960396D02*
X-104402477Y28960396D01*
X-104402477Y28960396D02*
X-104402477Y30260396D01*
X-104402477Y30260396D02*
X-103969143Y30260396D01*
X-103969143Y30260396D02*
X-103845334Y30198491D01*
X-103845334Y30198491D02*
X-103783429Y30136586D01*
X-103783429Y30136586D02*
X-103721524Y30012777D01*
X-103721524Y30012777D02*
X-103721524Y29888967D01*
X-103721524Y29888967D02*
X-103783429Y29765158D01*
X-103783429Y29765158D02*
X-103845334Y29703253D01*
X-103845334Y29703253D02*
X-103969143Y29641348D01*
X-103969143Y29641348D02*
X-104402477Y29641348D01*
D10*
D11*
X-103659620Y-20915795D02*
X-103721524Y-20977700D01*
X-103721524Y-20977700D02*
X-103907239Y-21039604D01*
X-103907239Y-21039604D02*
X-104031048Y-21039604D01*
X-104031048Y-21039604D02*
X-104216762Y-20977700D01*
X-104216762Y-20977700D02*
X-104340572Y-20853890D01*
X-104340572Y-20853890D02*
X-104402477Y-20730080D01*
X-104402477Y-20730080D02*
X-104464381Y-20482461D01*
X-104464381Y-20482461D02*
X-104464381Y-20296747D01*
X-104464381Y-20296747D02*
X-104402477Y-20049128D01*
X-104402477Y-20049128D02*
X-104340572Y-19925319D01*
X-104340572Y-19925319D02*
X-104216762Y-19801509D01*
X-104216762Y-19801509D02*
X-104031048Y-19739604D01*
X-104031048Y-19739604D02*
X-103907239Y-19739604D01*
X-103907239Y-19739604D02*
X-103721524Y-19801509D01*
X-103721524Y-19801509D02*
X-103659620Y-19863414D01*
D10*
D11*
X-104402477Y-71039604D02*
X-104402477Y-69739604D01*
X-104402477Y-69739604D02*
X-104092953Y-69739604D01*
X-104092953Y-69739604D02*
X-103907239Y-69801509D01*
X-103907239Y-69801509D02*
X-103783429Y-69925319D01*
X-103783429Y-69925319D02*
X-103721524Y-70049128D01*
X-103721524Y-70049128D02*
X-103659620Y-70296747D01*
X-103659620Y-70296747D02*
X-103659620Y-70482461D01*
X-103659620Y-70482461D02*
X-103721524Y-70730080D01*
X-103721524Y-70730080D02*
X-103783429Y-70853890D01*
X-103783429Y-70853890D02*
X-103907239Y-70977700D01*
X-103907239Y-70977700D02*
X-104092953Y-71039604D01*
X-104092953Y-71039604D02*
X-104402477Y-71039604D01*
D10*
D11*
X154338000Y54554000D02*
X152338000Y54554000D01*
D10*
D11*
X154338000Y4554000D02*
X152338000Y4554000D01*
D10*
D11*
X154338000Y-45446000D02*
X152338000Y-45446000D01*
D10*
D11*
X153028476Y79331824D02*
X153647523Y79331824D01*
X152904666Y78960396D02*
X153337999Y80260396D01*
X153337999Y80260396D02*
X153771333Y78960396D01*
D10*
D11*
X153430857Y29641348D02*
X153616571Y29579443D01*
X153616571Y29579443D02*
X153678476Y29517539D01*
X153678476Y29517539D02*
X153740380Y29393729D01*
X153740380Y29393729D02*
X153740380Y29208015D01*
X153740380Y29208015D02*
X153678476Y29084205D01*
X153678476Y29084205D02*
X153616571Y29022300D01*
X153616571Y29022300D02*
X153492761Y28960396D01*
X153492761Y28960396D02*
X152997523Y28960396D01*
X152997523Y28960396D02*
X152997523Y30260396D01*
X152997523Y30260396D02*
X153430857Y30260396D01*
X153430857Y30260396D02*
X153554666Y30198491D01*
X153554666Y30198491D02*
X153616571Y30136586D01*
X153616571Y30136586D02*
X153678476Y30012777D01*
X153678476Y30012777D02*
X153678476Y29888967D01*
X153678476Y29888967D02*
X153616571Y29765158D01*
X153616571Y29765158D02*
X153554666Y29703253D01*
X153554666Y29703253D02*
X153430857Y29641348D01*
X153430857Y29641348D02*
X152997523Y29641348D01*
D10*
D11*
X153740380Y-20915795D02*
X153678476Y-20977700D01*
X153678476Y-20977700D02*
X153492761Y-21039604D01*
X153492761Y-21039604D02*
X153368952Y-21039604D01*
X153368952Y-21039604D02*
X153183238Y-20977700D01*
X153183238Y-20977700D02*
X153059428Y-20853890D01*
X153059428Y-20853890D02*
X152997523Y-20730080D01*
X152997523Y-20730080D02*
X152935619Y-20482461D01*
X152935619Y-20482461D02*
X152935619Y-20296747D01*
X152935619Y-20296747D02*
X152997523Y-20049128D01*
X152997523Y-20049128D02*
X153059428Y-19925319D01*
X153059428Y-19925319D02*
X153183238Y-19801509D01*
X153183238Y-19801509D02*
X153368952Y-19739604D01*
X153368952Y-19739604D02*
X153492761Y-19739604D01*
X153492761Y-19739604D02*
X153678476Y-19801509D01*
X153678476Y-19801509D02*
X153740380Y-19863414D01*
D10*
D11*
X152997523Y-71039604D02*
X152997523Y-69739604D01*
X152997523Y-69739604D02*
X153307047Y-69739604D01*
X153307047Y-69739604D02*
X153492761Y-69801509D01*
X153492761Y-69801509D02*
X153616571Y-69925319D01*
X153616571Y-69925319D02*
X153678476Y-70049128D01*
X153678476Y-70049128D02*
X153740380Y-70296747D01*
X153740380Y-70296747D02*
X153740380Y-70482461D01*
X153740380Y-70482461D02*
X153678476Y-70730080D01*
X153678476Y-70730080D02*
X153616571Y-70853890D01*
X153616571Y-70853890D02*
X153492761Y-70977700D01*
X153492761Y-70977700D02*
X153307047Y-71039604D01*
X153307047Y-71039604D02*
X152997523Y-71039604D01*
D10*
D11*
X67793826Y-85132128D02*
X67793826Y-83632128D01*
X67793826Y-83632128D02*
X68150969Y-83632128D01*
X68150969Y-83632128D02*
X68365255Y-83703557D01*
X68365255Y-83703557D02*
X68508112Y-83846414D01*
X68508112Y-83846414D02*
X68579541Y-83989271D01*
X68579541Y-83989271D02*
X68650969Y-84274985D01*
X68650969Y-84274985D02*
X68650969Y-84489271D01*
X68650969Y-84489271D02*
X68579541Y-84774985D01*
X68579541Y-84774985D02*
X68508112Y-84917842D01*
X68508112Y-84917842D02*
X68365255Y-85060700D01*
X68365255Y-85060700D02*
X68150969Y-85132128D01*
X68150969Y-85132128D02*
X67793826Y-85132128D01*
X69936684Y-85132128D02*
X69936684Y-84346414D01*
X69936684Y-84346414D02*
X69865255Y-84203557D01*
X69865255Y-84203557D02*
X69722398Y-84132128D01*
X69722398Y-84132128D02*
X69436684Y-84132128D01*
X69436684Y-84132128D02*
X69293826Y-84203557D01*
X69936684Y-85060700D02*
X69793826Y-85132128D01*
X69793826Y-85132128D02*
X69436684Y-85132128D01*
X69436684Y-85132128D02*
X69293826Y-85060700D01*
X69293826Y-85060700D02*
X69222398Y-84917842D01*
X69222398Y-84917842D02*
X69222398Y-84774985D01*
X69222398Y-84774985D02*
X69293826Y-84632128D01*
X69293826Y-84632128D02*
X69436684Y-84560700D01*
X69436684Y-84560700D02*
X69793826Y-84560700D01*
X69793826Y-84560700D02*
X69936684Y-84489271D01*
X70436684Y-84132128D02*
X71008112Y-84132128D01*
X70650969Y-83632128D02*
X70650969Y-84917842D01*
X70650969Y-84917842D02*
X70722398Y-85060700D01*
X70722398Y-85060700D02*
X70865255Y-85132128D01*
X70865255Y-85132128D02*
X71008112Y-85132128D01*
X72079541Y-85060700D02*
X71936684Y-85132128D01*
X71936684Y-85132128D02*
X71650970Y-85132128D01*
X71650970Y-85132128D02*
X71508112Y-85060700D01*
X71508112Y-85060700D02*
X71436684Y-84917842D01*
X71436684Y-84917842D02*
X71436684Y-84346414D01*
X71436684Y-84346414D02*
X71508112Y-84203557D01*
X71508112Y-84203557D02*
X71650970Y-84132128D01*
X71650970Y-84132128D02*
X71936684Y-84132128D01*
X71936684Y-84132128D02*
X72079541Y-84203557D01*
X72079541Y-84203557D02*
X72150970Y-84346414D01*
X72150970Y-84346414D02*
X72150970Y-84489271D01*
X72150970Y-84489271D02*
X71436684Y-84632128D01*
X72793826Y-84989271D02*
X72865255Y-85060700D01*
X72865255Y-85060700D02*
X72793826Y-85132128D01*
X72793826Y-85132128D02*
X72722398Y-85060700D01*
X72722398Y-85060700D02*
X72793826Y-84989271D01*
X72793826Y-84989271D02*
X72793826Y-85132128D01*
X72793826Y-84203557D02*
X72865255Y-84274985D01*
X72865255Y-84274985D02*
X72793826Y-84346414D01*
X72793826Y-84346414D02*
X72722398Y-84274985D01*
X72722398Y-84274985D02*
X72793826Y-84203557D01*
X72793826Y-84203557D02*
X72793826Y-84346414D01*
X74579541Y-83774985D02*
X74650969Y-83703557D01*
X74650969Y-83703557D02*
X74793827Y-83632128D01*
X74793827Y-83632128D02*
X75150969Y-83632128D01*
X75150969Y-83632128D02*
X75293827Y-83703557D01*
X75293827Y-83703557D02*
X75365255Y-83774985D01*
X75365255Y-83774985D02*
X75436684Y-83917842D01*
X75436684Y-83917842D02*
X75436684Y-84060700D01*
X75436684Y-84060700D02*
X75365255Y-84274985D01*
X75365255Y-84274985D02*
X74508112Y-85132128D01*
X74508112Y-85132128D02*
X75436684Y-85132128D01*
X76365255Y-83632128D02*
X76508112Y-83632128D01*
X76508112Y-83632128D02*
X76650969Y-83703557D01*
X76650969Y-83703557D02*
X76722398Y-83774985D01*
X76722398Y-83774985D02*
X76793826Y-83917842D01*
X76793826Y-83917842D02*
X76865255Y-84203557D01*
X76865255Y-84203557D02*
X76865255Y-84560700D01*
X76865255Y-84560700D02*
X76793826Y-84846414D01*
X76793826Y-84846414D02*
X76722398Y-84989271D01*
X76722398Y-84989271D02*
X76650969Y-85060700D01*
X76650969Y-85060700D02*
X76508112Y-85132128D01*
X76508112Y-85132128D02*
X76365255Y-85132128D01*
X76365255Y-85132128D02*
X76222398Y-85060700D01*
X76222398Y-85060700D02*
X76150969Y-84989271D01*
X76150969Y-84989271D02*
X76079540Y-84846414D01*
X76079540Y-84846414D02*
X76008112Y-84560700D01*
X76008112Y-84560700D02*
X76008112Y-84203557D01*
X76008112Y-84203557D02*
X76079540Y-83917842D01*
X76079540Y-83917842D02*
X76150969Y-83774985D01*
X76150969Y-83774985D02*
X76222398Y-83703557D01*
X76222398Y-83703557D02*
X76365255Y-83632128D01*
X77436683Y-83774985D02*
X77508111Y-83703557D01*
X77508111Y-83703557D02*
X77650969Y-83632128D01*
X77650969Y-83632128D02*
X78008111Y-83632128D01*
X78008111Y-83632128D02*
X78150969Y-83703557D01*
X78150969Y-83703557D02*
X78222397Y-83774985D01*
X78222397Y-83774985D02*
X78293826Y-83917842D01*
X78293826Y-83917842D02*
X78293826Y-84060700D01*
X78293826Y-84060700D02*
X78222397Y-84274985D01*
X78222397Y-84274985D02*
X77365254Y-85132128D01*
X77365254Y-85132128D02*
X78293826Y-85132128D01*
X79579540Y-84132128D02*
X79579540Y-85132128D01*
X79222397Y-83560700D02*
X78865254Y-84632128D01*
X78865254Y-84632128D02*
X79793825Y-84632128D01*
X80365253Y-84560700D02*
X81508111Y-84560700D01*
X82508111Y-83632128D02*
X82650968Y-83632128D01*
X82650968Y-83632128D02*
X82793825Y-83703557D01*
X82793825Y-83703557D02*
X82865254Y-83774985D01*
X82865254Y-83774985D02*
X82936682Y-83917842D01*
X82936682Y-83917842D02*
X83008111Y-84203557D01*
X83008111Y-84203557D02*
X83008111Y-84560700D01*
X83008111Y-84560700D02*
X82936682Y-84846414D01*
X82936682Y-84846414D02*
X82865254Y-84989271D01*
X82865254Y-84989271D02*
X82793825Y-85060700D01*
X82793825Y-85060700D02*
X82650968Y-85132128D01*
X82650968Y-85132128D02*
X82508111Y-85132128D01*
X82508111Y-85132128D02*
X82365254Y-85060700D01*
X82365254Y-85060700D02*
X82293825Y-84989271D01*
X82293825Y-84989271D02*
X82222396Y-84846414D01*
X82222396Y-84846414D02*
X82150968Y-84560700D01*
X82150968Y-84560700D02*
X82150968Y-84203557D01*
X82150968Y-84203557D02*
X82222396Y-83917842D01*
X82222396Y-83917842D02*
X82293825Y-83774985D01*
X82293825Y-83774985D02*
X82365254Y-83703557D01*
X82365254Y-83703557D02*
X82508111Y-83632128D01*
X83865253Y-84274985D02*
X83722396Y-84203557D01*
X83722396Y-84203557D02*
X83650967Y-84132128D01*
X83650967Y-84132128D02*
X83579539Y-83989271D01*
X83579539Y-83989271D02*
X83579539Y-83917842D01*
X83579539Y-83917842D02*
X83650967Y-83774985D01*
X83650967Y-83774985D02*
X83722396Y-83703557D01*
X83722396Y-83703557D02*
X83865253Y-83632128D01*
X83865253Y-83632128D02*
X84150967Y-83632128D01*
X84150967Y-83632128D02*
X84293825Y-83703557D01*
X84293825Y-83703557D02*
X84365253Y-83774985D01*
X84365253Y-83774985D02*
X84436682Y-83917842D01*
X84436682Y-83917842D02*
X84436682Y-83989271D01*
X84436682Y-83989271D02*
X84365253Y-84132128D01*
X84365253Y-84132128D02*
X84293825Y-84203557D01*
X84293825Y-84203557D02*
X84150967Y-84274985D01*
X84150967Y-84274985D02*
X83865253Y-84274985D01*
X83865253Y-84274985D02*
X83722396Y-84346414D01*
X83722396Y-84346414D02*
X83650967Y-84417842D01*
X83650967Y-84417842D02*
X83579539Y-84560700D01*
X83579539Y-84560700D02*
X83579539Y-84846414D01*
X83579539Y-84846414D02*
X83650967Y-84989271D01*
X83650967Y-84989271D02*
X83722396Y-85060700D01*
X83722396Y-85060700D02*
X83865253Y-85132128D01*
X83865253Y-85132128D02*
X84150967Y-85132128D01*
X84150967Y-85132128D02*
X84293825Y-85060700D01*
X84293825Y-85060700D02*
X84365253Y-84989271D01*
X84365253Y-84989271D02*
X84436682Y-84846414D01*
X84436682Y-84846414D02*
X84436682Y-84560700D01*
X84436682Y-84560700D02*
X84365253Y-84417842D01*
X84365253Y-84417842D02*
X84293825Y-84346414D01*
X84293825Y-84346414D02*
X84150967Y-84274985D01*
X85079538Y-84560700D02*
X86222396Y-84560700D01*
X86793824Y-83632128D02*
X87722396Y-83632128D01*
X87722396Y-83632128D02*
X87222396Y-84203557D01*
X87222396Y-84203557D02*
X87436681Y-84203557D01*
X87436681Y-84203557D02*
X87579539Y-84274985D01*
X87579539Y-84274985D02*
X87650967Y-84346414D01*
X87650967Y-84346414D02*
X87722396Y-84489271D01*
X87722396Y-84489271D02*
X87722396Y-84846414D01*
X87722396Y-84846414D02*
X87650967Y-84989271D01*
X87650967Y-84989271D02*
X87579539Y-85060700D01*
X87579539Y-85060700D02*
X87436681Y-85132128D01*
X87436681Y-85132128D02*
X87008110Y-85132128D01*
X87008110Y-85132128D02*
X86865253Y-85060700D01*
X86865253Y-85060700D02*
X86793824Y-84989271D01*
X88650967Y-83632128D02*
X88793824Y-83632128D01*
X88793824Y-83632128D02*
X88936681Y-83703557D01*
X88936681Y-83703557D02*
X89008110Y-83774985D01*
X89008110Y-83774985D02*
X89079538Y-83917842D01*
X89079538Y-83917842D02*
X89150967Y-84203557D01*
X89150967Y-84203557D02*
X89150967Y-84560700D01*
X89150967Y-84560700D02*
X89079538Y-84846414D01*
X89079538Y-84846414D02*
X89008110Y-84989271D01*
X89008110Y-84989271D02*
X88936681Y-85060700D01*
X88936681Y-85060700D02*
X88793824Y-85132128D01*
X88793824Y-85132128D02*
X88650967Y-85132128D01*
X88650967Y-85132128D02*
X88508110Y-85060700D01*
X88508110Y-85060700D02*
X88436681Y-84989271D01*
X88436681Y-84989271D02*
X88365252Y-84846414D01*
X88365252Y-84846414D02*
X88293824Y-84560700D01*
X88293824Y-84560700D02*
X88293824Y-84203557D01*
X88293824Y-84203557D02*
X88365252Y-83917842D01*
X88365252Y-83917842D02*
X88436681Y-83774985D01*
X88436681Y-83774985D02*
X88508110Y-83703557D01*
X88508110Y-83703557D02*
X88650967Y-83632128D01*
D10*
D11*
X44338000Y-85846000D02*
X152338000Y-85846000D01*
D10*
D11*
X45793826Y-87932128D02*
X45793826Y-86432128D01*
X46650969Y-87932128D02*
X46008112Y-87074985D01*
X46650969Y-86432128D02*
X45793826Y-87289271D01*
X47293826Y-87932128D02*
X47293826Y-86932128D01*
X47293826Y-86432128D02*
X47222398Y-86503557D01*
X47222398Y-86503557D02*
X47293826Y-86574985D01*
X47293826Y-86574985D02*
X47365255Y-86503557D01*
X47365255Y-86503557D02*
X47293826Y-86432128D01*
X47293826Y-86432128D02*
X47293826Y-86574985D01*
X48865255Y-87789271D02*
X48793827Y-87860700D01*
X48793827Y-87860700D02*
X48579541Y-87932128D01*
X48579541Y-87932128D02*
X48436684Y-87932128D01*
X48436684Y-87932128D02*
X48222398Y-87860700D01*
X48222398Y-87860700D02*
X48079541Y-87717842D01*
X48079541Y-87717842D02*
X48008112Y-87574985D01*
X48008112Y-87574985D02*
X47936684Y-87289271D01*
X47936684Y-87289271D02*
X47936684Y-87074985D01*
X47936684Y-87074985D02*
X48008112Y-86789271D01*
X48008112Y-86789271D02*
X48079541Y-86646414D01*
X48079541Y-86646414D02*
X48222398Y-86503557D01*
X48222398Y-86503557D02*
X48436684Y-86432128D01*
X48436684Y-86432128D02*
X48579541Y-86432128D01*
X48579541Y-86432128D02*
X48793827Y-86503557D01*
X48793827Y-86503557D02*
X48865255Y-86574985D01*
X50150970Y-87932128D02*
X50150970Y-87146414D01*
X50150970Y-87146414D02*
X50079541Y-87003557D01*
X50079541Y-87003557D02*
X49936684Y-86932128D01*
X49936684Y-86932128D02*
X49650970Y-86932128D01*
X49650970Y-86932128D02*
X49508112Y-87003557D01*
X50150970Y-87860700D02*
X50008112Y-87932128D01*
X50008112Y-87932128D02*
X49650970Y-87932128D01*
X49650970Y-87932128D02*
X49508112Y-87860700D01*
X49508112Y-87860700D02*
X49436684Y-87717842D01*
X49436684Y-87717842D02*
X49436684Y-87574985D01*
X49436684Y-87574985D02*
X49508112Y-87432128D01*
X49508112Y-87432128D02*
X49650970Y-87360700D01*
X49650970Y-87360700D02*
X50008112Y-87360700D01*
X50008112Y-87360700D02*
X50150970Y-87289271D01*
X51508113Y-87932128D02*
X51508113Y-86432128D01*
X51508113Y-87860700D02*
X51365255Y-87932128D01*
X51365255Y-87932128D02*
X51079541Y-87932128D01*
X51079541Y-87932128D02*
X50936684Y-87860700D01*
X50936684Y-87860700D02*
X50865255Y-87789271D01*
X50865255Y-87789271D02*
X50793827Y-87646414D01*
X50793827Y-87646414D02*
X50793827Y-87217842D01*
X50793827Y-87217842D02*
X50865255Y-87074985D01*
X50865255Y-87074985D02*
X50936684Y-87003557D01*
X50936684Y-87003557D02*
X51079541Y-86932128D01*
X51079541Y-86932128D02*
X51365255Y-86932128D01*
X51365255Y-86932128D02*
X51508113Y-87003557D01*
X53365255Y-87146414D02*
X53865255Y-87146414D01*
X54079541Y-87932128D02*
X53365255Y-87932128D01*
X53365255Y-87932128D02*
X53365255Y-86432128D01*
X53365255Y-86432128D02*
X54079541Y-86432128D01*
X54722398Y-87789271D02*
X54793827Y-87860700D01*
X54793827Y-87860700D02*
X54722398Y-87932128D01*
X54722398Y-87932128D02*
X54650970Y-87860700D01*
X54650970Y-87860700D02*
X54722398Y-87789271D01*
X54722398Y-87789271D02*
X54722398Y-87932128D01*
X55436684Y-87932128D02*
X55436684Y-86432128D01*
X55436684Y-86432128D02*
X55793827Y-86432128D01*
X55793827Y-86432128D02*
X56008113Y-86503557D01*
X56008113Y-86503557D02*
X56150970Y-86646414D01*
X56150970Y-86646414D02*
X56222399Y-86789271D01*
X56222399Y-86789271D02*
X56293827Y-87074985D01*
X56293827Y-87074985D02*
X56293827Y-87289271D01*
X56293827Y-87289271D02*
X56222399Y-87574985D01*
X56222399Y-87574985D02*
X56150970Y-87717842D01*
X56150970Y-87717842D02*
X56008113Y-87860700D01*
X56008113Y-87860700D02*
X55793827Y-87932128D01*
X55793827Y-87932128D02*
X55436684Y-87932128D01*
X56936684Y-87789271D02*
X57008113Y-87860700D01*
X57008113Y-87860700D02*
X56936684Y-87932128D01*
X56936684Y-87932128D02*
X56865256Y-87860700D01*
X56865256Y-87860700D02*
X56936684Y-87789271D01*
X56936684Y-87789271D02*
X56936684Y-87932128D01*
X57579542Y-87503557D02*
X58293828Y-87503557D01*
X57436685Y-87932128D02*
X57936685Y-86432128D01*
X57936685Y-86432128D02*
X58436685Y-87932128D01*
X58936684Y-87789271D02*
X59008113Y-87860700D01*
X59008113Y-87860700D02*
X58936684Y-87932128D01*
X58936684Y-87932128D02*
X58865256Y-87860700D01*
X58865256Y-87860700D02*
X58936684Y-87789271D01*
X58936684Y-87789271D02*
X58936684Y-87932128D01*
X61008113Y-87074985D02*
X60865256Y-87003557D01*
X60865256Y-87003557D02*
X60793827Y-86932128D01*
X60793827Y-86932128D02*
X60722399Y-86789271D01*
X60722399Y-86789271D02*
X60722399Y-86717842D01*
X60722399Y-86717842D02*
X60793827Y-86574985D01*
X60793827Y-86574985D02*
X60865256Y-86503557D01*
X60865256Y-86503557D02*
X61008113Y-86432128D01*
X61008113Y-86432128D02*
X61293827Y-86432128D01*
X61293827Y-86432128D02*
X61436685Y-86503557D01*
X61436685Y-86503557D02*
X61508113Y-86574985D01*
X61508113Y-86574985D02*
X61579542Y-86717842D01*
X61579542Y-86717842D02*
X61579542Y-86789271D01*
X61579542Y-86789271D02*
X61508113Y-86932128D01*
X61508113Y-86932128D02*
X61436685Y-87003557D01*
X61436685Y-87003557D02*
X61293827Y-87074985D01*
X61293827Y-87074985D02*
X61008113Y-87074985D01*
X61008113Y-87074985D02*
X60865256Y-87146414D01*
X60865256Y-87146414D02*
X60793827Y-87217842D01*
X60793827Y-87217842D02*
X60722399Y-87360700D01*
X60722399Y-87360700D02*
X60722399Y-87646414D01*
X60722399Y-87646414D02*
X60793827Y-87789271D01*
X60793827Y-87789271D02*
X60865256Y-87860700D01*
X60865256Y-87860700D02*
X61008113Y-87932128D01*
X61008113Y-87932128D02*
X61293827Y-87932128D01*
X61293827Y-87932128D02*
X61436685Y-87860700D01*
X61436685Y-87860700D02*
X61508113Y-87789271D01*
X61508113Y-87789271D02*
X61579542Y-87646414D01*
X61579542Y-87646414D02*
X61579542Y-87360700D01*
X61579542Y-87360700D02*
X61508113Y-87217842D01*
X61508113Y-87217842D02*
X61436685Y-87146414D01*
X61436685Y-87146414D02*
X61293827Y-87074985D01*
X62222398Y-87789271D02*
X62293827Y-87860700D01*
X62293827Y-87860700D02*
X62222398Y-87932128D01*
X62222398Y-87932128D02*
X62150970Y-87860700D01*
X62150970Y-87860700D02*
X62222398Y-87789271D01*
X62222398Y-87789271D02*
X62222398Y-87932128D01*
X63222399Y-86432128D02*
X63365256Y-86432128D01*
X63365256Y-86432128D02*
X63508113Y-86503557D01*
X63508113Y-86503557D02*
X63579542Y-86574985D01*
X63579542Y-86574985D02*
X63650970Y-86717842D01*
X63650970Y-86717842D02*
X63722399Y-87003557D01*
X63722399Y-87003557D02*
X63722399Y-87360700D01*
X63722399Y-87360700D02*
X63650970Y-87646414D01*
X63650970Y-87646414D02*
X63579542Y-87789271D01*
X63579542Y-87789271D02*
X63508113Y-87860700D01*
X63508113Y-87860700D02*
X63365256Y-87932128D01*
X63365256Y-87932128D02*
X63222399Y-87932128D01*
X63222399Y-87932128D02*
X63079542Y-87860700D01*
X63079542Y-87860700D02*
X63008113Y-87789271D01*
X63008113Y-87789271D02*
X62936684Y-87646414D01*
X62936684Y-87646414D02*
X62865256Y-87360700D01*
X62865256Y-87360700D02*
X62865256Y-87003557D01*
X62865256Y-87003557D02*
X62936684Y-86717842D01*
X62936684Y-86717842D02*
X63008113Y-86574985D01*
X63008113Y-86574985D02*
X63079542Y-86503557D01*
X63079542Y-86503557D02*
X63222399Y-86432128D01*
X64365255Y-87789271D02*
X64436684Y-87860700D01*
X64436684Y-87860700D02*
X64365255Y-87932128D01*
X64365255Y-87932128D02*
X64293827Y-87860700D01*
X64293827Y-87860700D02*
X64365255Y-87789271D01*
X64365255Y-87789271D02*
X64365255Y-87932128D01*
X65722399Y-86932128D02*
X65722399Y-87932128D01*
X65365256Y-86360700D02*
X65008113Y-87432128D01*
X65008113Y-87432128D02*
X65936684Y-87432128D01*
D10*
D11*
X44338000Y-82846000D02*
X152338000Y-82846000D01*
D10*
D12*
X131749653Y-85124328D02*
X131249653Y-84410042D01*
X130892510Y-85124328D02*
X130892510Y-83624328D01*
X130892510Y-83624328D02*
X131463939Y-83624328D01*
X131463939Y-83624328D02*
X131606796Y-83695757D01*
X131606796Y-83695757D02*
X131678225Y-83767185D01*
X131678225Y-83767185D02*
X131749653Y-83910042D01*
X131749653Y-83910042D02*
X131749653Y-84124328D01*
X131749653Y-84124328D02*
X131678225Y-84267185D01*
X131678225Y-84267185D02*
X131606796Y-84338614D01*
X131606796Y-84338614D02*
X131463939Y-84410042D01*
X131463939Y-84410042D02*
X130892510Y-84410042D01*
X132963939Y-85052900D02*
X132821082Y-85124328D01*
X132821082Y-85124328D02*
X132535368Y-85124328D01*
X132535368Y-85124328D02*
X132392510Y-85052900D01*
X132392510Y-85052900D02*
X132321082Y-84910042D01*
X132321082Y-84910042D02*
X132321082Y-84338614D01*
X132321082Y-84338614D02*
X132392510Y-84195757D01*
X132392510Y-84195757D02*
X132535368Y-84124328D01*
X132535368Y-84124328D02*
X132821082Y-84124328D01*
X132821082Y-84124328D02*
X132963939Y-84195757D01*
X132963939Y-84195757D02*
X133035368Y-84338614D01*
X133035368Y-84338614D02*
X133035368Y-84481471D01*
X133035368Y-84481471D02*
X132321082Y-84624328D01*
X133535367Y-84124328D02*
X133892510Y-85124328D01*
X133892510Y-85124328D02*
X134249653Y-84124328D01*
X134821081Y-84981471D02*
X134892510Y-85052900D01*
X134892510Y-85052900D02*
X134821081Y-85124328D01*
X134821081Y-85124328D02*
X134749653Y-85052900D01*
X134749653Y-85052900D02*
X134821081Y-84981471D01*
X134821081Y-84981471D02*
X134821081Y-85124328D01*
X134821081Y-84195757D02*
X134892510Y-84267185D01*
X134892510Y-84267185D02*
X134821081Y-84338614D01*
X134821081Y-84338614D02*
X134749653Y-84267185D01*
X134749653Y-84267185D02*
X134821081Y-84195757D01*
X134821081Y-84195757D02*
X134821081Y-84338614D01*
X136963939Y-83624328D02*
X137106796Y-83624328D01*
X137106796Y-83624328D02*
X137249653Y-83695757D01*
X137249653Y-83695757D02*
X137321082Y-83767185D01*
X137321082Y-83767185D02*
X137392510Y-83910042D01*
X137392510Y-83910042D02*
X137463939Y-84195757D01*
X137463939Y-84195757D02*
X137463939Y-84552900D01*
X137463939Y-84552900D02*
X137392510Y-84838614D01*
X137392510Y-84838614D02*
X137321082Y-84981471D01*
X137321082Y-84981471D02*
X137249653Y-85052900D01*
X137249653Y-85052900D02*
X137106796Y-85124328D01*
X137106796Y-85124328D02*
X136963939Y-85124328D01*
X136963939Y-85124328D02*
X136821082Y-85052900D01*
X136821082Y-85052900D02*
X136749653Y-84981471D01*
X136749653Y-84981471D02*
X136678224Y-84838614D01*
X136678224Y-84838614D02*
X136606796Y-84552900D01*
X136606796Y-84552900D02*
X136606796Y-84195757D01*
X136606796Y-84195757D02*
X136678224Y-83910042D01*
X136678224Y-83910042D02*
X136749653Y-83767185D01*
X136749653Y-83767185D02*
X136821082Y-83695757D01*
X136821082Y-83695757D02*
X136963939Y-83624328D01*
D10*
D11*
X45722398Y-85060700D02*
X45936684Y-85132128D01*
X45936684Y-85132128D02*
X46293826Y-85132128D01*
X46293826Y-85132128D02*
X46436684Y-85060700D01*
X46436684Y-85060700D02*
X46508112Y-84989271D01*
X46508112Y-84989271D02*
X46579541Y-84846414D01*
X46579541Y-84846414D02*
X46579541Y-84703557D01*
X46579541Y-84703557D02*
X46508112Y-84560700D01*
X46508112Y-84560700D02*
X46436684Y-84489271D01*
X46436684Y-84489271D02*
X46293826Y-84417842D01*
X46293826Y-84417842D02*
X46008112Y-84346414D01*
X46008112Y-84346414D02*
X45865255Y-84274985D01*
X45865255Y-84274985D02*
X45793826Y-84203557D01*
X45793826Y-84203557D02*
X45722398Y-84060700D01*
X45722398Y-84060700D02*
X45722398Y-83917842D01*
X45722398Y-83917842D02*
X45793826Y-83774985D01*
X45793826Y-83774985D02*
X45865255Y-83703557D01*
X45865255Y-83703557D02*
X46008112Y-83632128D01*
X46008112Y-83632128D02*
X46365255Y-83632128D01*
X46365255Y-83632128D02*
X46579541Y-83703557D01*
X47222397Y-85132128D02*
X47222397Y-84132128D01*
X47222397Y-83632128D02*
X47150969Y-83703557D01*
X47150969Y-83703557D02*
X47222397Y-83774985D01*
X47222397Y-83774985D02*
X47293826Y-83703557D01*
X47293826Y-83703557D02*
X47222397Y-83632128D01*
X47222397Y-83632128D02*
X47222397Y-83774985D01*
X47793826Y-84132128D02*
X48579541Y-84132128D01*
X48579541Y-84132128D02*
X47793826Y-85132128D01*
X47793826Y-85132128D02*
X48579541Y-85132128D01*
X49722398Y-85060700D02*
X49579541Y-85132128D01*
X49579541Y-85132128D02*
X49293827Y-85132128D01*
X49293827Y-85132128D02*
X49150969Y-85060700D01*
X49150969Y-85060700D02*
X49079541Y-84917842D01*
X49079541Y-84917842D02*
X49079541Y-84346414D01*
X49079541Y-84346414D02*
X49150969Y-84203557D01*
X49150969Y-84203557D02*
X49293827Y-84132128D01*
X49293827Y-84132128D02*
X49579541Y-84132128D01*
X49579541Y-84132128D02*
X49722398Y-84203557D01*
X49722398Y-84203557D02*
X49793827Y-84346414D01*
X49793827Y-84346414D02*
X49793827Y-84489271D01*
X49793827Y-84489271D02*
X49079541Y-84632128D01*
X50436683Y-84989271D02*
X50508112Y-85060700D01*
X50508112Y-85060700D02*
X50436683Y-85132128D01*
X50436683Y-85132128D02*
X50365255Y-85060700D01*
X50365255Y-85060700D02*
X50436683Y-84989271D01*
X50436683Y-84989271D02*
X50436683Y-85132128D01*
X50436683Y-84203557D02*
X50508112Y-84274985D01*
X50508112Y-84274985D02*
X50436683Y-84346414D01*
X50436683Y-84346414D02*
X50365255Y-84274985D01*
X50365255Y-84274985D02*
X50436683Y-84203557D01*
X50436683Y-84203557D02*
X50436683Y-84346414D01*
X52293826Y-83632128D02*
X52293826Y-84846414D01*
X52293826Y-84846414D02*
X52365255Y-84989271D01*
X52365255Y-84989271D02*
X52436684Y-85060700D01*
X52436684Y-85060700D02*
X52579541Y-85132128D01*
X52579541Y-85132128D02*
X52865255Y-85132128D01*
X52865255Y-85132128D02*
X53008112Y-85060700D01*
X53008112Y-85060700D02*
X53079541Y-84989271D01*
X53079541Y-84989271D02*
X53150969Y-84846414D01*
X53150969Y-84846414D02*
X53150969Y-83632128D01*
X53793827Y-85060700D02*
X54008113Y-85132128D01*
X54008113Y-85132128D02*
X54365255Y-85132128D01*
X54365255Y-85132128D02*
X54508113Y-85060700D01*
X54508113Y-85060700D02*
X54579541Y-84989271D01*
X54579541Y-84989271D02*
X54650970Y-84846414D01*
X54650970Y-84846414D02*
X54650970Y-84703557D01*
X54650970Y-84703557D02*
X54579541Y-84560700D01*
X54579541Y-84560700D02*
X54508113Y-84489271D01*
X54508113Y-84489271D02*
X54365255Y-84417842D01*
X54365255Y-84417842D02*
X54079541Y-84346414D01*
X54079541Y-84346414D02*
X53936684Y-84274985D01*
X53936684Y-84274985D02*
X53865255Y-84203557D01*
X53865255Y-84203557D02*
X53793827Y-84060700D01*
X53793827Y-84060700D02*
X53793827Y-83917842D01*
X53793827Y-83917842D02*
X53865255Y-83774985D01*
X53865255Y-83774985D02*
X53936684Y-83703557D01*
X53936684Y-83703557D02*
X54079541Y-83632128D01*
X54079541Y-83632128D02*
X54436684Y-83632128D01*
X54436684Y-83632128D02*
X54650970Y-83703557D01*
X56008112Y-85132128D02*
X55293826Y-85132128D01*
X55293826Y-85132128D02*
X55293826Y-83632128D01*
X57079541Y-85060700D02*
X56936684Y-85132128D01*
X56936684Y-85132128D02*
X56650970Y-85132128D01*
X56650970Y-85132128D02*
X56508112Y-85060700D01*
X56508112Y-85060700D02*
X56436684Y-84917842D01*
X56436684Y-84917842D02*
X56436684Y-84346414D01*
X56436684Y-84346414D02*
X56508112Y-84203557D01*
X56508112Y-84203557D02*
X56650970Y-84132128D01*
X56650970Y-84132128D02*
X56936684Y-84132128D01*
X56936684Y-84132128D02*
X57079541Y-84203557D01*
X57079541Y-84203557D02*
X57150970Y-84346414D01*
X57150970Y-84346414D02*
X57150970Y-84489271D01*
X57150970Y-84489271D02*
X56436684Y-84632128D01*
X57579541Y-84132128D02*
X58150969Y-84132128D01*
X57793826Y-83632128D02*
X57793826Y-84917842D01*
X57793826Y-84917842D02*
X57865255Y-85060700D01*
X57865255Y-85060700D02*
X58008112Y-85132128D01*
X58008112Y-85132128D02*
X58150969Y-85132128D01*
X58436684Y-84132128D02*
X59008112Y-84132128D01*
X58650969Y-83632128D02*
X58650969Y-84917842D01*
X58650969Y-84917842D02*
X58722398Y-85060700D01*
X58722398Y-85060700D02*
X58865255Y-85132128D01*
X58865255Y-85132128D02*
X59008112Y-85132128D01*
X60079541Y-85060700D02*
X59936684Y-85132128D01*
X59936684Y-85132128D02*
X59650970Y-85132128D01*
X59650970Y-85132128D02*
X59508112Y-85060700D01*
X59508112Y-85060700D02*
X59436684Y-84917842D01*
X59436684Y-84917842D02*
X59436684Y-84346414D01*
X59436684Y-84346414D02*
X59508112Y-84203557D01*
X59508112Y-84203557D02*
X59650970Y-84132128D01*
X59650970Y-84132128D02*
X59936684Y-84132128D01*
X59936684Y-84132128D02*
X60079541Y-84203557D01*
X60079541Y-84203557D02*
X60150970Y-84346414D01*
X60150970Y-84346414D02*
X60150970Y-84489271D01*
X60150970Y-84489271D02*
X59436684Y-84632128D01*
X60793826Y-85132128D02*
X60793826Y-84132128D01*
X60793826Y-84417842D02*
X60865255Y-84274985D01*
X60865255Y-84274985D02*
X60936684Y-84203557D01*
X60936684Y-84203557D02*
X61079541Y-84132128D01*
X61079541Y-84132128D02*
X61222398Y-84132128D01*
D10*
D11*
X130793826Y-87932128D02*
X130793826Y-86432128D01*
X132150970Y-87932128D02*
X132150970Y-86432128D01*
X132150970Y-87860700D02*
X132008112Y-87932128D01*
X132008112Y-87932128D02*
X131722398Y-87932128D01*
X131722398Y-87932128D02*
X131579541Y-87860700D01*
X131579541Y-87860700D02*
X131508112Y-87789271D01*
X131508112Y-87789271D02*
X131436684Y-87646414D01*
X131436684Y-87646414D02*
X131436684Y-87217842D01*
X131436684Y-87217842D02*
X131508112Y-87074985D01*
X131508112Y-87074985D02*
X131579541Y-87003557D01*
X131579541Y-87003557D02*
X131722398Y-86932128D01*
X131722398Y-86932128D02*
X132008112Y-86932128D01*
X132008112Y-86932128D02*
X132150970Y-87003557D01*
X132865255Y-87789271D02*
X132936684Y-87860700D01*
X132936684Y-87860700D02*
X132865255Y-87932128D01*
X132865255Y-87932128D02*
X132793827Y-87860700D01*
X132793827Y-87860700D02*
X132865255Y-87789271D01*
X132865255Y-87789271D02*
X132865255Y-87932128D01*
X132865255Y-87003557D02*
X132936684Y-87074985D01*
X132936684Y-87074985D02*
X132865255Y-87146414D01*
X132865255Y-87146414D02*
X132793827Y-87074985D01*
X132793827Y-87074985D02*
X132865255Y-87003557D01*
X132865255Y-87003557D02*
X132865255Y-87146414D01*
X135508113Y-87932128D02*
X134650970Y-87932128D01*
X135079541Y-87932128D02*
X135079541Y-86432128D01*
X135079541Y-86432128D02*
X134936684Y-86646414D01*
X134936684Y-86646414D02*
X134793827Y-86789271D01*
X134793827Y-86789271D02*
X134650970Y-86860700D01*
X137222398Y-86360700D02*
X135936684Y-88289271D01*
X138508113Y-87932128D02*
X137650970Y-87932128D01*
X138079541Y-87932128D02*
X138079541Y-86432128D01*
X138079541Y-86432128D02*
X137936684Y-86646414D01*
X137936684Y-86646414D02*
X137793827Y-86789271D01*
X137793827Y-86789271D02*
X137650970Y-86860700D01*
D10*
D11*
X44338000Y-78846000D02*
X152338000Y-78846000D01*
D10*
D13*
X46029728Y-79550438D02*
X47172585Y-79550438D01*
X46351157Y-81550438D02*
X46601157Y-79550438D01*
X47589252Y-81550438D02*
X47755919Y-80217104D01*
X47839252Y-79550438D02*
X47732109Y-79645676D01*
X47732109Y-79645676D02*
X47815443Y-79740914D01*
X47815443Y-79740914D02*
X47922586Y-79645676D01*
X47922586Y-79645676D02*
X47839252Y-79550438D01*
X47839252Y-79550438D02*
X47815443Y-79740914D01*
X48422586Y-80217104D02*
X49184490Y-80217104D01*
X48791633Y-79550438D02*
X48577348Y-81264723D01*
X48577348Y-81264723D02*
X48648776Y-81455200D01*
X48648776Y-81455200D02*
X48827348Y-81550438D01*
X48827348Y-81550438D02*
X49017824Y-81550438D01*
X49970205Y-81550438D02*
X49791633Y-81455200D01*
X49791633Y-81455200D02*
X49720205Y-81264723D01*
X49720205Y-81264723D02*
X49934490Y-79550438D01*
X51505919Y-81455200D02*
X51303538Y-81550438D01*
X51303538Y-81550438D02*
X50922585Y-81550438D01*
X50922585Y-81550438D02*
X50744014Y-81455200D01*
X50744014Y-81455200D02*
X50672585Y-81264723D01*
X50672585Y-81264723D02*
X50767824Y-80502819D01*
X50767824Y-80502819D02*
X50886871Y-80312342D01*
X50886871Y-80312342D02*
X51089252Y-80217104D01*
X51089252Y-80217104D02*
X51470204Y-80217104D01*
X51470204Y-80217104D02*
X51648776Y-80312342D01*
X51648776Y-80312342D02*
X51720204Y-80502819D01*
X51720204Y-80502819D02*
X51696395Y-80693295D01*
X51696395Y-80693295D02*
X50720204Y-80883771D01*
X52470205Y-81359961D02*
X52553538Y-81455200D01*
X52553538Y-81455200D02*
X52446395Y-81550438D01*
X52446395Y-81550438D02*
X52363062Y-81455200D01*
X52363062Y-81455200D02*
X52470205Y-81359961D01*
X52470205Y-81359961D02*
X52446395Y-81550438D01*
X52601157Y-80312342D02*
X52684490Y-80407580D01*
X52684490Y-80407580D02*
X52577348Y-80502819D01*
X52577348Y-80502819D02*
X52494014Y-80407580D01*
X52494014Y-80407580D02*
X52601157Y-80312342D01*
X52601157Y-80312342D02*
X52577348Y-80502819D01*
X55053539Y-80502819D02*
X55720205Y-80502819D01*
X55874967Y-81550438D02*
X54922586Y-81550438D01*
X54922586Y-81550438D02*
X55172586Y-79550438D01*
X55172586Y-79550438D02*
X56124967Y-79550438D01*
X56648777Y-81455200D02*
X56922586Y-81550438D01*
X56922586Y-81550438D02*
X57398777Y-81550438D01*
X57398777Y-81550438D02*
X57601158Y-81455200D01*
X57601158Y-81455200D02*
X57708301Y-81359961D01*
X57708301Y-81359961D02*
X57827348Y-81169485D01*
X57827348Y-81169485D02*
X57851158Y-80979009D01*
X57851158Y-80979009D02*
X57779729Y-80788533D01*
X57779729Y-80788533D02*
X57696396Y-80693295D01*
X57696396Y-80693295D02*
X57517825Y-80598057D01*
X57517825Y-80598057D02*
X57148777Y-80502819D01*
X57148777Y-80502819D02*
X56970205Y-80407580D01*
X56970205Y-80407580D02*
X56886872Y-80312342D01*
X56886872Y-80312342D02*
X56815444Y-80121866D01*
X56815444Y-80121866D02*
X56839253Y-79931390D01*
X56839253Y-79931390D02*
X56958301Y-79740914D01*
X56958301Y-79740914D02*
X57065444Y-79645676D01*
X57065444Y-79645676D02*
X57267825Y-79550438D01*
X57267825Y-79550438D02*
X57744015Y-79550438D01*
X57744015Y-79550438D02*
X58017825Y-79645676D01*
X58636872Y-81550438D02*
X58886872Y-79550438D01*
X58886872Y-79550438D02*
X59648777Y-79550438D01*
X59648777Y-79550438D02*
X59827348Y-79645676D01*
X59827348Y-79645676D02*
X59910682Y-79740914D01*
X59910682Y-79740914D02*
X59982110Y-79931390D01*
X59982110Y-79931390D02*
X59946396Y-80217104D01*
X59946396Y-80217104D02*
X59827348Y-80407580D01*
X59827348Y-80407580D02*
X59720206Y-80502819D01*
X59720206Y-80502819D02*
X59517825Y-80598057D01*
X59517825Y-80598057D02*
X58755920Y-80598057D01*
X60696396Y-79550438D02*
X61934491Y-79550438D01*
X61934491Y-79550438D02*
X61172587Y-80312342D01*
X61172587Y-80312342D02*
X61458301Y-80312342D01*
X61458301Y-80312342D02*
X61636872Y-80407580D01*
X61636872Y-80407580D02*
X61720206Y-80502819D01*
X61720206Y-80502819D02*
X61791634Y-80693295D01*
X61791634Y-80693295D02*
X61732110Y-81169485D01*
X61732110Y-81169485D02*
X61613063Y-81359961D01*
X61613063Y-81359961D02*
X61505920Y-81455200D01*
X61505920Y-81455200D02*
X61303539Y-81550438D01*
X61303539Y-81550438D02*
X60732110Y-81550438D01*
X60732110Y-81550438D02*
X60553539Y-81455200D01*
X60553539Y-81455200D02*
X60470206Y-81359961D01*
X62672587Y-79740914D02*
X62779729Y-79645676D01*
X62779729Y-79645676D02*
X62982110Y-79550438D01*
X62982110Y-79550438D02*
X63458301Y-79550438D01*
X63458301Y-79550438D02*
X63636872Y-79645676D01*
X63636872Y-79645676D02*
X63720206Y-79740914D01*
X63720206Y-79740914D02*
X63791634Y-79931390D01*
X63791634Y-79931390D02*
X63767825Y-80121866D01*
X63767825Y-80121866D02*
X63636872Y-80407580D01*
X63636872Y-80407580D02*
X62351158Y-81550438D01*
X62351158Y-81550438D02*
X63589253Y-81550438D01*
X67113063Y-81550438D02*
X66565444Y-80598057D01*
X65970206Y-81550438D02*
X66220206Y-79550438D01*
X66220206Y-79550438D02*
X66982111Y-79550438D01*
X66982111Y-79550438D02*
X67160682Y-79645676D01*
X67160682Y-79645676D02*
X67244016Y-79740914D01*
X67244016Y-79740914D02*
X67315444Y-79931390D01*
X67315444Y-79931390D02*
X67279730Y-80217104D01*
X67279730Y-80217104D02*
X67160682Y-80407580D01*
X67160682Y-80407580D02*
X67053540Y-80502819D01*
X67053540Y-80502819D02*
X66851159Y-80598057D01*
X66851159Y-80598057D02*
X66089254Y-80598057D01*
X69136873Y-81359961D02*
X69029730Y-81455200D01*
X69029730Y-81455200D02*
X68732111Y-81550438D01*
X68732111Y-81550438D02*
X68541635Y-81550438D01*
X68541635Y-81550438D02*
X68267825Y-81455200D01*
X68267825Y-81455200D02*
X68101159Y-81264723D01*
X68101159Y-81264723D02*
X68029730Y-81074247D01*
X68029730Y-81074247D02*
X67982111Y-80693295D01*
X67982111Y-80693295D02*
X68017825Y-80407580D01*
X68017825Y-80407580D02*
X68160682Y-80026628D01*
X68160682Y-80026628D02*
X68279730Y-79836152D01*
X68279730Y-79836152D02*
X68494016Y-79645676D01*
X68494016Y-79645676D02*
X68791635Y-79550438D01*
X68791635Y-79550438D02*
X68982111Y-79550438D01*
X68982111Y-79550438D02*
X69255921Y-79645676D01*
X69255921Y-79645676D02*
X69339254Y-79740914D01*
D10*
D11*
X46293826Y-76946414D02*
X45793826Y-76946414D01*
X45793826Y-77732128D02*
X45793826Y-76232128D01*
X45793826Y-76232128D02*
X46508112Y-76232128D01*
X47079540Y-77732128D02*
X47079540Y-76732128D01*
X47079540Y-76232128D02*
X47008112Y-76303557D01*
X47008112Y-76303557D02*
X47079540Y-76374985D01*
X47079540Y-76374985D02*
X47150969Y-76303557D01*
X47150969Y-76303557D02*
X47079540Y-76232128D01*
X47079540Y-76232128D02*
X47079540Y-76374985D01*
X48008112Y-77732128D02*
X47865255Y-77660700D01*
X47865255Y-77660700D02*
X47793826Y-77517842D01*
X47793826Y-77517842D02*
X47793826Y-76232128D01*
X49150969Y-77660700D02*
X49008112Y-77732128D01*
X49008112Y-77732128D02*
X48722398Y-77732128D01*
X48722398Y-77732128D02*
X48579540Y-77660700D01*
X48579540Y-77660700D02*
X48508112Y-77517842D01*
X48508112Y-77517842D02*
X48508112Y-76946414D01*
X48508112Y-76946414D02*
X48579540Y-76803557D01*
X48579540Y-76803557D02*
X48722398Y-76732128D01*
X48722398Y-76732128D02*
X49008112Y-76732128D01*
X49008112Y-76732128D02*
X49150969Y-76803557D01*
X49150969Y-76803557D02*
X49222398Y-76946414D01*
X49222398Y-76946414D02*
X49222398Y-77089271D01*
X49222398Y-77089271D02*
X48508112Y-77232128D01*
X49865254Y-77589271D02*
X49936683Y-77660700D01*
X49936683Y-77660700D02*
X49865254Y-77732128D01*
X49865254Y-77732128D02*
X49793826Y-77660700D01*
X49793826Y-77660700D02*
X49865254Y-77589271D01*
X49865254Y-77589271D02*
X49865254Y-77732128D01*
X49865254Y-76803557D02*
X49936683Y-76874985D01*
X49936683Y-76874985D02*
X49865254Y-76946414D01*
X49865254Y-76946414D02*
X49793826Y-76874985D01*
X49793826Y-76874985D02*
X49865254Y-76803557D01*
X49865254Y-76803557D02*
X49865254Y-76946414D01*
X51722397Y-76946414D02*
X52222397Y-76946414D01*
X52436683Y-77732128D02*
X51722397Y-77732128D01*
X51722397Y-77732128D02*
X51722397Y-76232128D01*
X51722397Y-76232128D02*
X52436683Y-76232128D01*
X53008112Y-77660700D02*
X53222398Y-77732128D01*
X53222398Y-77732128D02*
X53579540Y-77732128D01*
X53579540Y-77732128D02*
X53722398Y-77660700D01*
X53722398Y-77660700D02*
X53793826Y-77589271D01*
X53793826Y-77589271D02*
X53865255Y-77446414D01*
X53865255Y-77446414D02*
X53865255Y-77303557D01*
X53865255Y-77303557D02*
X53793826Y-77160700D01*
X53793826Y-77160700D02*
X53722398Y-77089271D01*
X53722398Y-77089271D02*
X53579540Y-77017842D01*
X53579540Y-77017842D02*
X53293826Y-76946414D01*
X53293826Y-76946414D02*
X53150969Y-76874985D01*
X53150969Y-76874985D02*
X53079540Y-76803557D01*
X53079540Y-76803557D02*
X53008112Y-76660700D01*
X53008112Y-76660700D02*
X53008112Y-76517842D01*
X53008112Y-76517842D02*
X53079540Y-76374985D01*
X53079540Y-76374985D02*
X53150969Y-76303557D01*
X53150969Y-76303557D02*
X53293826Y-76232128D01*
X53293826Y-76232128D02*
X53650969Y-76232128D01*
X53650969Y-76232128D02*
X53865255Y-76303557D01*
X54508111Y-77732128D02*
X54508111Y-76232128D01*
X54508111Y-76232128D02*
X55079540Y-76232128D01*
X55079540Y-76232128D02*
X55222397Y-76303557D01*
X55222397Y-76303557D02*
X55293826Y-76374985D01*
X55293826Y-76374985D02*
X55365254Y-76517842D01*
X55365254Y-76517842D02*
X55365254Y-76732128D01*
X55365254Y-76732128D02*
X55293826Y-76874985D01*
X55293826Y-76874985D02*
X55222397Y-76946414D01*
X55222397Y-76946414D02*
X55079540Y-77017842D01*
X55079540Y-77017842D02*
X54508111Y-77017842D01*
X55865254Y-76232128D02*
X56793826Y-76232128D01*
X56793826Y-76232128D02*
X56293826Y-76803557D01*
X56293826Y-76803557D02*
X56508111Y-76803557D01*
X56508111Y-76803557D02*
X56650969Y-76874985D01*
X56650969Y-76874985D02*
X56722397Y-76946414D01*
X56722397Y-76946414D02*
X56793826Y-77089271D01*
X56793826Y-77089271D02*
X56793826Y-77446414D01*
X56793826Y-77446414D02*
X56722397Y-77589271D01*
X56722397Y-77589271D02*
X56650969Y-77660700D01*
X56650969Y-77660700D02*
X56508111Y-77732128D01*
X56508111Y-77732128D02*
X56079540Y-77732128D01*
X56079540Y-77732128D02*
X55936683Y-77660700D01*
X55936683Y-77660700D02*
X55865254Y-77589271D01*
X57365254Y-76374985D02*
X57436682Y-76303557D01*
X57436682Y-76303557D02*
X57579540Y-76232128D01*
X57579540Y-76232128D02*
X57936682Y-76232128D01*
X57936682Y-76232128D02*
X58079540Y-76303557D01*
X58079540Y-76303557D02*
X58150968Y-76374985D01*
X58150968Y-76374985D02*
X58222397Y-76517842D01*
X58222397Y-76517842D02*
X58222397Y-76660700D01*
X58222397Y-76660700D02*
X58150968Y-76874985D01*
X58150968Y-76874985D02*
X57293825Y-77732128D01*
X57293825Y-77732128D02*
X58222397Y-77732128D01*
X58865253Y-77160700D02*
X60008111Y-77160700D01*
X61579539Y-77732128D02*
X61079539Y-77017842D01*
X60722396Y-77732128D02*
X60722396Y-76232128D01*
X60722396Y-76232128D02*
X61293825Y-76232128D01*
X61293825Y-76232128D02*
X61436682Y-76303557D01*
X61436682Y-76303557D02*
X61508111Y-76374985D01*
X61508111Y-76374985D02*
X61579539Y-76517842D01*
X61579539Y-76517842D02*
X61579539Y-76732128D01*
X61579539Y-76732128D02*
X61508111Y-76874985D01*
X61508111Y-76874985D02*
X61436682Y-76946414D01*
X61436682Y-76946414D02*
X61293825Y-77017842D01*
X61293825Y-77017842D02*
X60722396Y-77017842D01*
X63079539Y-77589271D02*
X63008111Y-77660700D01*
X63008111Y-77660700D02*
X62793825Y-77732128D01*
X62793825Y-77732128D02*
X62650968Y-77732128D01*
X62650968Y-77732128D02*
X62436682Y-77660700D01*
X62436682Y-77660700D02*
X62293825Y-77517842D01*
X62293825Y-77517842D02*
X62222396Y-77374985D01*
X62222396Y-77374985D02*
X62150968Y-77089271D01*
X62150968Y-77089271D02*
X62150968Y-76874985D01*
X62150968Y-76874985D02*
X62222396Y-76589271D01*
X62222396Y-76589271D02*
X62293825Y-76446414D01*
X62293825Y-76446414D02*
X62436682Y-76303557D01*
X62436682Y-76303557D02*
X62650968Y-76232128D01*
X62650968Y-76232128D02*
X62793825Y-76232128D01*
X62793825Y-76232128D02*
X63008111Y-76303557D01*
X63008111Y-76303557D02*
X63079539Y-76374985D01*
X63365254Y-77874985D02*
X64508111Y-77874985D01*
X65722396Y-77732128D02*
X65222396Y-77017842D01*
X64865253Y-77732128D02*
X64865253Y-76232128D01*
X64865253Y-76232128D02*
X65436682Y-76232128D01*
X65436682Y-76232128D02*
X65579539Y-76303557D01*
X65579539Y-76303557D02*
X65650968Y-76374985D01*
X65650968Y-76374985D02*
X65722396Y-76517842D01*
X65722396Y-76517842D02*
X65722396Y-76732128D01*
X65722396Y-76732128D02*
X65650968Y-76874985D01*
X65650968Y-76874985D02*
X65579539Y-76946414D01*
X65579539Y-76946414D02*
X65436682Y-77017842D01*
X65436682Y-77017842D02*
X64865253Y-77017842D01*
X66650968Y-76232128D02*
X66793825Y-76232128D01*
X66793825Y-76232128D02*
X66936682Y-76303557D01*
X66936682Y-76303557D02*
X67008111Y-76374985D01*
X67008111Y-76374985D02*
X67079539Y-76517842D01*
X67079539Y-76517842D02*
X67150968Y-76803557D01*
X67150968Y-76803557D02*
X67150968Y-77160700D01*
X67150968Y-77160700D02*
X67079539Y-77446414D01*
X67079539Y-77446414D02*
X67008111Y-77589271D01*
X67008111Y-77589271D02*
X66936682Y-77660700D01*
X66936682Y-77660700D02*
X66793825Y-77732128D01*
X66793825Y-77732128D02*
X66650968Y-77732128D01*
X66650968Y-77732128D02*
X66508111Y-77660700D01*
X66508111Y-77660700D02*
X66436682Y-77589271D01*
X66436682Y-77589271D02*
X66365253Y-77446414D01*
X66365253Y-77446414D02*
X66293825Y-77160700D01*
X66293825Y-77160700D02*
X66293825Y-76803557D01*
X66293825Y-76803557D02*
X66365253Y-76517842D01*
X66365253Y-76517842D02*
X66436682Y-76374985D01*
X66436682Y-76374985D02*
X66508111Y-76303557D01*
X66508111Y-76303557D02*
X66650968Y-76232128D01*
X67793824Y-77589271D02*
X67865253Y-77660700D01*
X67865253Y-77660700D02*
X67793824Y-77732128D01*
X67793824Y-77732128D02*
X67722396Y-77660700D01*
X67722396Y-77660700D02*
X67793824Y-77589271D01*
X67793824Y-77589271D02*
X67793824Y-77732128D01*
X68508110Y-77732128D02*
X68508110Y-76232128D01*
X68650968Y-77160700D02*
X69079539Y-77732128D01*
X69079539Y-76732128D02*
X68508110Y-77303557D01*
X69722396Y-77732128D02*
X69722396Y-76732128D01*
X69722396Y-76232128D02*
X69650968Y-76303557D01*
X69650968Y-76303557D02*
X69722396Y-76374985D01*
X69722396Y-76374985D02*
X69793825Y-76303557D01*
X69793825Y-76303557D02*
X69722396Y-76232128D01*
X69722396Y-76232128D02*
X69722396Y-76374985D01*
X71079540Y-77660700D02*
X70936682Y-77732128D01*
X70936682Y-77732128D02*
X70650968Y-77732128D01*
X70650968Y-77732128D02*
X70508111Y-77660700D01*
X70508111Y-77660700D02*
X70436682Y-77589271D01*
X70436682Y-77589271D02*
X70365254Y-77446414D01*
X70365254Y-77446414D02*
X70365254Y-77017842D01*
X70365254Y-77017842D02*
X70436682Y-76874985D01*
X70436682Y-76874985D02*
X70508111Y-76803557D01*
X70508111Y-76803557D02*
X70650968Y-76732128D01*
X70650968Y-76732128D02*
X70936682Y-76732128D01*
X70936682Y-76732128D02*
X71079540Y-76803557D01*
X72365254Y-77732128D02*
X72365254Y-76946414D01*
X72365254Y-76946414D02*
X72293825Y-76803557D01*
X72293825Y-76803557D02*
X72150968Y-76732128D01*
X72150968Y-76732128D02*
X71865254Y-76732128D01*
X71865254Y-76732128D02*
X71722396Y-76803557D01*
X72365254Y-77660700D02*
X72222396Y-77732128D01*
X72222396Y-77732128D02*
X71865254Y-77732128D01*
X71865254Y-77732128D02*
X71722396Y-77660700D01*
X71722396Y-77660700D02*
X71650968Y-77517842D01*
X71650968Y-77517842D02*
X71650968Y-77374985D01*
X71650968Y-77374985D02*
X71722396Y-77232128D01*
X71722396Y-77232128D02*
X71865254Y-77160700D01*
X71865254Y-77160700D02*
X72222396Y-77160700D01*
X72222396Y-77160700D02*
X72365254Y-77089271D01*
X73722397Y-77732128D02*
X73722397Y-76232128D01*
X73722397Y-77660700D02*
X73579539Y-77732128D01*
X73579539Y-77732128D02*
X73293825Y-77732128D01*
X73293825Y-77732128D02*
X73150968Y-77660700D01*
X73150968Y-77660700D02*
X73079539Y-77589271D01*
X73079539Y-77589271D02*
X73008111Y-77446414D01*
X73008111Y-77446414D02*
X73008111Y-77017842D01*
X73008111Y-77017842D02*
X73079539Y-76874985D01*
X73079539Y-76874985D02*
X73150968Y-76803557D01*
X73150968Y-76803557D02*
X73293825Y-76732128D01*
X73293825Y-76732128D02*
X73579539Y-76732128D01*
X73579539Y-76732128D02*
X73722397Y-76803557D01*
X74079540Y-77874985D02*
X75222397Y-77874985D01*
X75579539Y-76732128D02*
X75579539Y-78232128D01*
X75579539Y-76803557D02*
X75722397Y-76732128D01*
X75722397Y-76732128D02*
X76008111Y-76732128D01*
X76008111Y-76732128D02*
X76150968Y-76803557D01*
X76150968Y-76803557D02*
X76222397Y-76874985D01*
X76222397Y-76874985D02*
X76293825Y-77017842D01*
X76293825Y-77017842D02*
X76293825Y-77446414D01*
X76293825Y-77446414D02*
X76222397Y-77589271D01*
X76222397Y-77589271D02*
X76150968Y-77660700D01*
X76150968Y-77660700D02*
X76008111Y-77732128D01*
X76008111Y-77732128D02*
X75722397Y-77732128D01*
X75722397Y-77732128D02*
X75579539Y-77660700D01*
X77579540Y-77660700D02*
X77436682Y-77732128D01*
X77436682Y-77732128D02*
X77150968Y-77732128D01*
X77150968Y-77732128D02*
X77008111Y-77660700D01*
X77008111Y-77660700D02*
X76936682Y-77589271D01*
X76936682Y-77589271D02*
X76865254Y-77446414D01*
X76865254Y-77446414D02*
X76865254Y-77017842D01*
X76865254Y-77017842D02*
X76936682Y-76874985D01*
X76936682Y-76874985D02*
X77008111Y-76803557D01*
X77008111Y-76803557D02*
X77150968Y-76732128D01*
X77150968Y-76732128D02*
X77436682Y-76732128D01*
X77436682Y-76732128D02*
X77579540Y-76803557D01*
X78222396Y-77732128D02*
X78222396Y-76232128D01*
X78222396Y-76803557D02*
X78365254Y-76732128D01*
X78365254Y-76732128D02*
X78650968Y-76732128D01*
X78650968Y-76732128D02*
X78793825Y-76803557D01*
X78793825Y-76803557D02*
X78865254Y-76874985D01*
X78865254Y-76874985D02*
X78936682Y-77017842D01*
X78936682Y-77017842D02*
X78936682Y-77446414D01*
X78936682Y-77446414D02*
X78865254Y-77589271D01*
X78865254Y-77589271D02*
X78793825Y-77660700D01*
X78793825Y-77660700D02*
X78650968Y-77732128D01*
X78650968Y-77732128D02*
X78365254Y-77732128D01*
X78365254Y-77732128D02*
X78222396Y-77660700D01*
D10*
D11*
X44338000Y-72846000D02*
X152338000Y-72846000D01*
D10*
D11*
X45722398Y-74960700D02*
X45936684Y-75032128D01*
X45936684Y-75032128D02*
X46293826Y-75032128D01*
X46293826Y-75032128D02*
X46436684Y-74960700D01*
X46436684Y-74960700D02*
X46508112Y-74889271D01*
X46508112Y-74889271D02*
X46579541Y-74746414D01*
X46579541Y-74746414D02*
X46579541Y-74603557D01*
X46579541Y-74603557D02*
X46508112Y-74460700D01*
X46508112Y-74460700D02*
X46436684Y-74389271D01*
X46436684Y-74389271D02*
X46293826Y-74317842D01*
X46293826Y-74317842D02*
X46008112Y-74246414D01*
X46008112Y-74246414D02*
X45865255Y-74174985D01*
X45865255Y-74174985D02*
X45793826Y-74103557D01*
X45793826Y-74103557D02*
X45722398Y-73960700D01*
X45722398Y-73960700D02*
X45722398Y-73817842D01*
X45722398Y-73817842D02*
X45793826Y-73674985D01*
X45793826Y-73674985D02*
X45865255Y-73603557D01*
X45865255Y-73603557D02*
X46008112Y-73532128D01*
X46008112Y-73532128D02*
X46365255Y-73532128D01*
X46365255Y-73532128D02*
X46579541Y-73603557D01*
X47222397Y-75032128D02*
X47222397Y-73532128D01*
X47865255Y-75032128D02*
X47865255Y-74246414D01*
X47865255Y-74246414D02*
X47793826Y-74103557D01*
X47793826Y-74103557D02*
X47650969Y-74032128D01*
X47650969Y-74032128D02*
X47436683Y-74032128D01*
X47436683Y-74032128D02*
X47293826Y-74103557D01*
X47293826Y-74103557D02*
X47222397Y-74174985D01*
X49150969Y-74960700D02*
X49008112Y-75032128D01*
X49008112Y-75032128D02*
X48722398Y-75032128D01*
X48722398Y-75032128D02*
X48579540Y-74960700D01*
X48579540Y-74960700D02*
X48508112Y-74817842D01*
X48508112Y-74817842D02*
X48508112Y-74246414D01*
X48508112Y-74246414D02*
X48579540Y-74103557D01*
X48579540Y-74103557D02*
X48722398Y-74032128D01*
X48722398Y-74032128D02*
X49008112Y-74032128D01*
X49008112Y-74032128D02*
X49150969Y-74103557D01*
X49150969Y-74103557D02*
X49222398Y-74246414D01*
X49222398Y-74246414D02*
X49222398Y-74389271D01*
X49222398Y-74389271D02*
X48508112Y-74532128D01*
X50436683Y-74960700D02*
X50293826Y-75032128D01*
X50293826Y-75032128D02*
X50008112Y-75032128D01*
X50008112Y-75032128D02*
X49865254Y-74960700D01*
X49865254Y-74960700D02*
X49793826Y-74817842D01*
X49793826Y-74817842D02*
X49793826Y-74246414D01*
X49793826Y-74246414D02*
X49865254Y-74103557D01*
X49865254Y-74103557D02*
X50008112Y-74032128D01*
X50008112Y-74032128D02*
X50293826Y-74032128D01*
X50293826Y-74032128D02*
X50436683Y-74103557D01*
X50436683Y-74103557D02*
X50508112Y-74246414D01*
X50508112Y-74246414D02*
X50508112Y-74389271D01*
X50508112Y-74389271D02*
X49793826Y-74532128D01*
X50936683Y-74032128D02*
X51508111Y-74032128D01*
X51150968Y-73532128D02*
X51150968Y-74817842D01*
X51150968Y-74817842D02*
X51222397Y-74960700D01*
X51222397Y-74960700D02*
X51365254Y-75032128D01*
X51365254Y-75032128D02*
X51508111Y-75032128D01*
X52008111Y-74889271D02*
X52079540Y-74960700D01*
X52079540Y-74960700D02*
X52008111Y-75032128D01*
X52008111Y-75032128D02*
X51936683Y-74960700D01*
X51936683Y-74960700D02*
X52008111Y-74889271D01*
X52008111Y-74889271D02*
X52008111Y-75032128D01*
X52008111Y-74103557D02*
X52079540Y-74174985D01*
X52079540Y-74174985D02*
X52008111Y-74246414D01*
X52008111Y-74246414D02*
X51936683Y-74174985D01*
X51936683Y-74174985D02*
X52008111Y-74103557D01*
X52008111Y-74103557D02*
X52008111Y-74246414D01*
D10*
D12*
X45749653Y-70524328D02*
X46106796Y-72024328D01*
X46106796Y-72024328D02*
X46392510Y-70952900D01*
X46392510Y-70952900D02*
X46678225Y-72024328D01*
X46678225Y-72024328D02*
X47035368Y-70524328D01*
X47606796Y-72024328D02*
X47606796Y-71024328D01*
X47606796Y-70524328D02*
X47535368Y-70595757D01*
X47535368Y-70595757D02*
X47606796Y-70667185D01*
X47606796Y-70667185D02*
X47678225Y-70595757D01*
X47678225Y-70595757D02*
X47606796Y-70524328D01*
X47606796Y-70524328D02*
X47606796Y-70667185D01*
X48321082Y-72024328D02*
X48321082Y-71024328D01*
X48321082Y-71310042D02*
X48392511Y-71167185D01*
X48392511Y-71167185D02*
X48463940Y-71095757D01*
X48463940Y-71095757D02*
X48606797Y-71024328D01*
X48606797Y-71024328D02*
X48749654Y-71024328D01*
X49821082Y-71952900D02*
X49678225Y-72024328D01*
X49678225Y-72024328D02*
X49392511Y-72024328D01*
X49392511Y-72024328D02*
X49249653Y-71952900D01*
X49249653Y-71952900D02*
X49178225Y-71810042D01*
X49178225Y-71810042D02*
X49178225Y-71238614D01*
X49178225Y-71238614D02*
X49249653Y-71095757D01*
X49249653Y-71095757D02*
X49392511Y-71024328D01*
X49392511Y-71024328D02*
X49678225Y-71024328D01*
X49678225Y-71024328D02*
X49821082Y-71095757D01*
X49821082Y-71095757D02*
X49892511Y-71238614D01*
X49892511Y-71238614D02*
X49892511Y-71381471D01*
X49892511Y-71381471D02*
X49178225Y-71524328D01*
X50749653Y-72024328D02*
X50606796Y-71952900D01*
X50606796Y-71952900D02*
X50535367Y-71810042D01*
X50535367Y-71810042D02*
X50535367Y-70524328D01*
X51892510Y-71952900D02*
X51749653Y-72024328D01*
X51749653Y-72024328D02*
X51463939Y-72024328D01*
X51463939Y-72024328D02*
X51321081Y-71952900D01*
X51321081Y-71952900D02*
X51249653Y-71810042D01*
X51249653Y-71810042D02*
X51249653Y-71238614D01*
X51249653Y-71238614D02*
X51321081Y-71095757D01*
X51321081Y-71095757D02*
X51463939Y-71024328D01*
X51463939Y-71024328D02*
X51749653Y-71024328D01*
X51749653Y-71024328D02*
X51892510Y-71095757D01*
X51892510Y-71095757D02*
X51963939Y-71238614D01*
X51963939Y-71238614D02*
X51963939Y-71381471D01*
X51963939Y-71381471D02*
X51249653Y-71524328D01*
X52535367Y-71952900D02*
X52678224Y-72024328D01*
X52678224Y-72024328D02*
X52963938Y-72024328D01*
X52963938Y-72024328D02*
X53106795Y-71952900D01*
X53106795Y-71952900D02*
X53178224Y-71810042D01*
X53178224Y-71810042D02*
X53178224Y-71738614D01*
X53178224Y-71738614D02*
X53106795Y-71595757D01*
X53106795Y-71595757D02*
X52963938Y-71524328D01*
X52963938Y-71524328D02*
X52749653Y-71524328D01*
X52749653Y-71524328D02*
X52606795Y-71452900D01*
X52606795Y-71452900D02*
X52535367Y-71310042D01*
X52535367Y-71310042D02*
X52535367Y-71238614D01*
X52535367Y-71238614D02*
X52606795Y-71095757D01*
X52606795Y-71095757D02*
X52749653Y-71024328D01*
X52749653Y-71024328D02*
X52963938Y-71024328D01*
X52963938Y-71024328D02*
X53106795Y-71095757D01*
X53749653Y-71952900D02*
X53892510Y-72024328D01*
X53892510Y-72024328D02*
X54178224Y-72024328D01*
X54178224Y-72024328D02*
X54321081Y-71952900D01*
X54321081Y-71952900D02*
X54392510Y-71810042D01*
X54392510Y-71810042D02*
X54392510Y-71738614D01*
X54392510Y-71738614D02*
X54321081Y-71595757D01*
X54321081Y-71595757D02*
X54178224Y-71524328D01*
X54178224Y-71524328D02*
X53963939Y-71524328D01*
X53963939Y-71524328D02*
X53821081Y-71452900D01*
X53821081Y-71452900D02*
X53749653Y-71310042D01*
X53749653Y-71310042D02*
X53749653Y-71238614D01*
X53749653Y-71238614D02*
X53821081Y-71095757D01*
X53821081Y-71095757D02*
X53963939Y-71024328D01*
X53963939Y-71024328D02*
X54178224Y-71024328D01*
X54178224Y-71024328D02*
X54321081Y-71095757D01*
X56821082Y-72024328D02*
X56821082Y-71238614D01*
X56821082Y-71238614D02*
X56749653Y-71095757D01*
X56749653Y-71095757D02*
X56606796Y-71024328D01*
X56606796Y-71024328D02*
X56321082Y-71024328D01*
X56321082Y-71024328D02*
X56178224Y-71095757D01*
X56821082Y-71952900D02*
X56678224Y-72024328D01*
X56678224Y-72024328D02*
X56321082Y-72024328D01*
X56321082Y-72024328D02*
X56178224Y-71952900D01*
X56178224Y-71952900D02*
X56106796Y-71810042D01*
X56106796Y-71810042D02*
X56106796Y-71667185D01*
X56106796Y-71667185D02*
X56178224Y-71524328D01*
X56178224Y-71524328D02*
X56321082Y-71452900D01*
X56321082Y-71452900D02*
X56678224Y-71452900D01*
X56678224Y-71452900D02*
X56821082Y-71381471D01*
X57535367Y-71024328D02*
X57535367Y-72024328D01*
X57535367Y-71167185D02*
X57606796Y-71095757D01*
X57606796Y-71095757D02*
X57749653Y-71024328D01*
X57749653Y-71024328D02*
X57963939Y-71024328D01*
X57963939Y-71024328D02*
X58106796Y-71095757D01*
X58106796Y-71095757D02*
X58178225Y-71238614D01*
X58178225Y-71238614D02*
X58178225Y-72024328D01*
X59535368Y-72024328D02*
X59535368Y-70524328D01*
X59535368Y-71952900D02*
X59392510Y-72024328D01*
X59392510Y-72024328D02*
X59106796Y-72024328D01*
X59106796Y-72024328D02*
X58963939Y-71952900D01*
X58963939Y-71952900D02*
X58892510Y-71881471D01*
X58892510Y-71881471D02*
X58821082Y-71738614D01*
X58821082Y-71738614D02*
X58821082Y-71310042D01*
X58821082Y-71310042D02*
X58892510Y-71167185D01*
X58892510Y-71167185D02*
X58963939Y-71095757D01*
X58963939Y-71095757D02*
X59106796Y-71024328D01*
X59106796Y-71024328D02*
X59392510Y-71024328D01*
X59392510Y-71024328D02*
X59535368Y-71095757D01*
X62249653Y-71881471D02*
X62178225Y-71952900D01*
X62178225Y-71952900D02*
X61963939Y-72024328D01*
X61963939Y-72024328D02*
X61821082Y-72024328D01*
X61821082Y-72024328D02*
X61606796Y-71952900D01*
X61606796Y-71952900D02*
X61463939Y-71810042D01*
X61463939Y-71810042D02*
X61392510Y-71667185D01*
X61392510Y-71667185D02*
X61321082Y-71381471D01*
X61321082Y-71381471D02*
X61321082Y-71167185D01*
X61321082Y-71167185D02*
X61392510Y-70881471D01*
X61392510Y-70881471D02*
X61463939Y-70738614D01*
X61463939Y-70738614D02*
X61606796Y-70595757D01*
X61606796Y-70595757D02*
X61821082Y-70524328D01*
X61821082Y-70524328D02*
X61963939Y-70524328D01*
X61963939Y-70524328D02*
X62178225Y-70595757D01*
X62178225Y-70595757D02*
X62249653Y-70667185D01*
X63106796Y-72024328D02*
X62963939Y-71952900D01*
X62963939Y-71952900D02*
X62892510Y-71881471D01*
X62892510Y-71881471D02*
X62821082Y-71738614D01*
X62821082Y-71738614D02*
X62821082Y-71310042D01*
X62821082Y-71310042D02*
X62892510Y-71167185D01*
X62892510Y-71167185D02*
X62963939Y-71095757D01*
X62963939Y-71095757D02*
X63106796Y-71024328D01*
X63106796Y-71024328D02*
X63321082Y-71024328D01*
X63321082Y-71024328D02*
X63463939Y-71095757D01*
X63463939Y-71095757D02*
X63535368Y-71167185D01*
X63535368Y-71167185D02*
X63606796Y-71310042D01*
X63606796Y-71310042D02*
X63606796Y-71738614D01*
X63606796Y-71738614D02*
X63535368Y-71881471D01*
X63535368Y-71881471D02*
X63463939Y-71952900D01*
X63463939Y-71952900D02*
X63321082Y-72024328D01*
X63321082Y-72024328D02*
X63106796Y-72024328D01*
X64249653Y-71024328D02*
X64249653Y-72024328D01*
X64249653Y-71167185D02*
X64321082Y-71095757D01*
X64321082Y-71095757D02*
X64463939Y-71024328D01*
X64463939Y-71024328D02*
X64678225Y-71024328D01*
X64678225Y-71024328D02*
X64821082Y-71095757D01*
X64821082Y-71095757D02*
X64892511Y-71238614D01*
X64892511Y-71238614D02*
X64892511Y-72024328D01*
X65392511Y-71024328D02*
X65963939Y-71024328D01*
X65606796Y-70524328D02*
X65606796Y-71810042D01*
X65606796Y-71810042D02*
X65678225Y-71952900D01*
X65678225Y-71952900D02*
X65821082Y-72024328D01*
X65821082Y-72024328D02*
X65963939Y-72024328D01*
X66463939Y-72024328D02*
X66463939Y-71024328D01*
X66463939Y-71310042D02*
X66535368Y-71167185D01*
X66535368Y-71167185D02*
X66606797Y-71095757D01*
X66606797Y-71095757D02*
X66749654Y-71024328D01*
X66749654Y-71024328D02*
X66892511Y-71024328D01*
X67606796Y-72024328D02*
X67463939Y-71952900D01*
X67463939Y-71952900D02*
X67392510Y-71881471D01*
X67392510Y-71881471D02*
X67321082Y-71738614D01*
X67321082Y-71738614D02*
X67321082Y-71310042D01*
X67321082Y-71310042D02*
X67392510Y-71167185D01*
X67392510Y-71167185D02*
X67463939Y-71095757D01*
X67463939Y-71095757D02*
X67606796Y-71024328D01*
X67606796Y-71024328D02*
X67821082Y-71024328D01*
X67821082Y-71024328D02*
X67963939Y-71095757D01*
X67963939Y-71095757D02*
X68035368Y-71167185D01*
X68035368Y-71167185D02*
X68106796Y-71310042D01*
X68106796Y-71310042D02*
X68106796Y-71738614D01*
X68106796Y-71738614D02*
X68035368Y-71881471D01*
X68035368Y-71881471D02*
X67963939Y-71952900D01*
X67963939Y-71952900D02*
X67821082Y-72024328D01*
X67821082Y-72024328D02*
X67606796Y-72024328D01*
X68963939Y-72024328D02*
X68821082Y-71952900D01*
X68821082Y-71952900D02*
X68749653Y-71810042D01*
X68749653Y-71810042D02*
X68749653Y-70524328D01*
X70606796Y-71952900D02*
X70821082Y-72024328D01*
X70821082Y-72024328D02*
X71178224Y-72024328D01*
X71178224Y-72024328D02*
X71321082Y-71952900D01*
X71321082Y-71952900D02*
X71392510Y-71881471D01*
X71392510Y-71881471D02*
X71463939Y-71738614D01*
X71463939Y-71738614D02*
X71463939Y-71595757D01*
X71463939Y-71595757D02*
X71392510Y-71452900D01*
X71392510Y-71452900D02*
X71321082Y-71381471D01*
X71321082Y-71381471D02*
X71178224Y-71310042D01*
X71178224Y-71310042D02*
X70892510Y-71238614D01*
X70892510Y-71238614D02*
X70749653Y-71167185D01*
X70749653Y-71167185D02*
X70678224Y-71095757D01*
X70678224Y-71095757D02*
X70606796Y-70952900D01*
X70606796Y-70952900D02*
X70606796Y-70810042D01*
X70606796Y-70810042D02*
X70678224Y-70667185D01*
X70678224Y-70667185D02*
X70749653Y-70595757D01*
X70749653Y-70595757D02*
X70892510Y-70524328D01*
X70892510Y-70524328D02*
X71249653Y-70524328D01*
X71249653Y-70524328D02*
X71463939Y-70595757D01*
X71963938Y-71024328D02*
X72321081Y-72024328D01*
X72678224Y-71024328D02*
X72321081Y-72024328D01*
X72321081Y-72024328D02*
X72178224Y-72381471D01*
X72178224Y-72381471D02*
X72106795Y-72452900D01*
X72106795Y-72452900D02*
X71963938Y-72524328D01*
X73178224Y-71952900D02*
X73321081Y-72024328D01*
X73321081Y-72024328D02*
X73606795Y-72024328D01*
X73606795Y-72024328D02*
X73749652Y-71952900D01*
X73749652Y-71952900D02*
X73821081Y-71810042D01*
X73821081Y-71810042D02*
X73821081Y-71738614D01*
X73821081Y-71738614D02*
X73749652Y-71595757D01*
X73749652Y-71595757D02*
X73606795Y-71524328D01*
X73606795Y-71524328D02*
X73392510Y-71524328D01*
X73392510Y-71524328D02*
X73249652Y-71452900D01*
X73249652Y-71452900D02*
X73178224Y-71310042D01*
X73178224Y-71310042D02*
X73178224Y-71238614D01*
X73178224Y-71238614D02*
X73249652Y-71095757D01*
X73249652Y-71095757D02*
X73392510Y-71024328D01*
X73392510Y-71024328D02*
X73606795Y-71024328D01*
X73606795Y-71024328D02*
X73749652Y-71095757D01*
X74249653Y-71024328D02*
X74821081Y-71024328D01*
X74463938Y-70524328D02*
X74463938Y-71810042D01*
X74463938Y-71810042D02*
X74535367Y-71952900D01*
X74535367Y-71952900D02*
X74678224Y-72024328D01*
X74678224Y-72024328D02*
X74821081Y-72024328D01*
X75892510Y-71952900D02*
X75749653Y-72024328D01*
X75749653Y-72024328D02*
X75463939Y-72024328D01*
X75463939Y-72024328D02*
X75321081Y-71952900D01*
X75321081Y-71952900D02*
X75249653Y-71810042D01*
X75249653Y-71810042D02*
X75249653Y-71238614D01*
X75249653Y-71238614D02*
X75321081Y-71095757D01*
X75321081Y-71095757D02*
X75463939Y-71024328D01*
X75463939Y-71024328D02*
X75749653Y-71024328D01*
X75749653Y-71024328D02*
X75892510Y-71095757D01*
X75892510Y-71095757D02*
X75963939Y-71238614D01*
X75963939Y-71238614D02*
X75963939Y-71381471D01*
X75963939Y-71381471D02*
X75249653Y-71524328D01*
X76606795Y-72024328D02*
X76606795Y-71024328D01*
X76606795Y-71167185D02*
X76678224Y-71095757D01*
X76678224Y-71095757D02*
X76821081Y-71024328D01*
X76821081Y-71024328D02*
X77035367Y-71024328D01*
X77035367Y-71024328D02*
X77178224Y-71095757D01*
X77178224Y-71095757D02*
X77249653Y-71238614D01*
X77249653Y-71238614D02*
X77249653Y-72024328D01*
X77249653Y-71238614D02*
X77321081Y-71095757D01*
X77321081Y-71095757D02*
X77463938Y-71024328D01*
X77463938Y-71024328D02*
X77678224Y-71024328D01*
X77678224Y-71024328D02*
X77821081Y-71095757D01*
X77821081Y-71095757D02*
X77892510Y-71238614D01*
X77892510Y-71238614D02*
X77892510Y-72024328D01*
X78535367Y-71952900D02*
X78678224Y-72024328D01*
X78678224Y-72024328D02*
X78963938Y-72024328D01*
X78963938Y-72024328D02*
X79106795Y-71952900D01*
X79106795Y-71952900D02*
X79178224Y-71810042D01*
X79178224Y-71810042D02*
X79178224Y-71738614D01*
X79178224Y-71738614D02*
X79106795Y-71595757D01*
X79106795Y-71595757D02*
X78963938Y-71524328D01*
X78963938Y-71524328D02*
X78749653Y-71524328D01*
X78749653Y-71524328D02*
X78606795Y-71452900D01*
X78606795Y-71452900D02*
X78535367Y-71310042D01*
X78535367Y-71310042D02*
X78535367Y-71238614D01*
X78535367Y-71238614D02*
X78606795Y-71095757D01*
X78606795Y-71095757D02*
X78749653Y-71024328D01*
X78749653Y-71024328D02*
X78963938Y-71024328D01*
X78963938Y-71024328D02*
X79106795Y-71095757D01*
X81678224Y-72024328D02*
X80963938Y-72024328D01*
X80963938Y-72024328D02*
X80963938Y-70524328D01*
X82892510Y-72024328D02*
X82178224Y-72024328D01*
X82178224Y-72024328D02*
X82178224Y-70524328D01*
X84249653Y-71881471D02*
X84178225Y-71952900D01*
X84178225Y-71952900D02*
X83963939Y-72024328D01*
X83963939Y-72024328D02*
X83821082Y-72024328D01*
X83821082Y-72024328D02*
X83606796Y-71952900D01*
X83606796Y-71952900D02*
X83463939Y-71810042D01*
X83463939Y-71810042D02*
X83392510Y-71667185D01*
X83392510Y-71667185D02*
X83321082Y-71381471D01*
X83321082Y-71381471D02*
X83321082Y-71167185D01*
X83321082Y-71167185D02*
X83392510Y-70881471D01*
X83392510Y-70881471D02*
X83463939Y-70738614D01*
X83463939Y-70738614D02*
X83606796Y-70595757D01*
X83606796Y-70595757D02*
X83821082Y-70524328D01*
X83821082Y-70524328D02*
X83963939Y-70524328D01*
X83963939Y-70524328D02*
X84178225Y-70595757D01*
X84178225Y-70595757D02*
X84249653Y-70667185D01*
D10*
D11*
X45793826Y-69032128D02*
X45793826Y-67532128D01*
X45793826Y-67532128D02*
X46150969Y-67532128D01*
X46150969Y-67532128D02*
X46365255Y-67603557D01*
X46365255Y-67603557D02*
X46508112Y-67746414D01*
X46508112Y-67746414D02*
X46579541Y-67889271D01*
X46579541Y-67889271D02*
X46650969Y-68174985D01*
X46650969Y-68174985D02*
X46650969Y-68389271D01*
X46650969Y-68389271D02*
X46579541Y-68674985D01*
X46579541Y-68674985D02*
X46508112Y-68817842D01*
X46508112Y-68817842D02*
X46365255Y-68960700D01*
X46365255Y-68960700D02*
X46150969Y-69032128D01*
X46150969Y-69032128D02*
X45793826Y-69032128D01*
X47936684Y-69032128D02*
X47936684Y-68246414D01*
X47936684Y-68246414D02*
X47865255Y-68103557D01*
X47865255Y-68103557D02*
X47722398Y-68032128D01*
X47722398Y-68032128D02*
X47436684Y-68032128D01*
X47436684Y-68032128D02*
X47293826Y-68103557D01*
X47936684Y-68960700D02*
X47793826Y-69032128D01*
X47793826Y-69032128D02*
X47436684Y-69032128D01*
X47436684Y-69032128D02*
X47293826Y-68960700D01*
X47293826Y-68960700D02*
X47222398Y-68817842D01*
X47222398Y-68817842D02*
X47222398Y-68674985D01*
X47222398Y-68674985D02*
X47293826Y-68532128D01*
X47293826Y-68532128D02*
X47436684Y-68460700D01*
X47436684Y-68460700D02*
X47793826Y-68460700D01*
X47793826Y-68460700D02*
X47936684Y-68389271D01*
X48650969Y-68032128D02*
X48650969Y-69032128D01*
X48650969Y-68174985D02*
X48722398Y-68103557D01*
X48722398Y-68103557D02*
X48865255Y-68032128D01*
X48865255Y-68032128D02*
X49079541Y-68032128D01*
X49079541Y-68032128D02*
X49222398Y-68103557D01*
X49222398Y-68103557D02*
X49293827Y-68246414D01*
X49293827Y-68246414D02*
X49293827Y-69032128D01*
X50936684Y-67532128D02*
X51793827Y-67532128D01*
X51365255Y-69032128D02*
X51365255Y-67532128D01*
X52936684Y-69032128D02*
X52936684Y-68246414D01*
X52936684Y-68246414D02*
X52865255Y-68103557D01*
X52865255Y-68103557D02*
X52722398Y-68032128D01*
X52722398Y-68032128D02*
X52436684Y-68032128D01*
X52436684Y-68032128D02*
X52293826Y-68103557D01*
X52936684Y-68960700D02*
X52793826Y-69032128D01*
X52793826Y-69032128D02*
X52436684Y-69032128D01*
X52436684Y-69032128D02*
X52293826Y-68960700D01*
X52293826Y-68960700D02*
X52222398Y-68817842D01*
X52222398Y-68817842D02*
X52222398Y-68674985D01*
X52222398Y-68674985D02*
X52293826Y-68532128D01*
X52293826Y-68532128D02*
X52436684Y-68460700D01*
X52436684Y-68460700D02*
X52793826Y-68460700D01*
X52793826Y-68460700D02*
X52936684Y-68389271D01*
X53436684Y-68032128D02*
X54008112Y-68032128D01*
X53650969Y-67532128D02*
X53650969Y-68817842D01*
X53650969Y-68817842D02*
X53722398Y-68960700D01*
X53722398Y-68960700D02*
X53865255Y-69032128D01*
X53865255Y-69032128D02*
X54008112Y-69032128D01*
X55150970Y-68032128D02*
X55150970Y-69032128D01*
X54508112Y-68032128D02*
X54508112Y-68817842D01*
X54508112Y-68817842D02*
X54579541Y-68960700D01*
X54579541Y-68960700D02*
X54722398Y-69032128D01*
X54722398Y-69032128D02*
X54936684Y-69032128D01*
X54936684Y-69032128D02*
X55079541Y-68960700D01*
X55079541Y-68960700D02*
X55150970Y-68889271D01*
X55865255Y-69032128D02*
X55865255Y-68032128D01*
X55865255Y-68174985D02*
X55936684Y-68103557D01*
X55936684Y-68103557D02*
X56079541Y-68032128D01*
X56079541Y-68032128D02*
X56293827Y-68032128D01*
X56293827Y-68032128D02*
X56436684Y-68103557D01*
X56436684Y-68103557D02*
X56508113Y-68246414D01*
X56508113Y-68246414D02*
X56508113Y-69032128D01*
X56508113Y-68246414D02*
X56579541Y-68103557D01*
X56579541Y-68103557D02*
X56722398Y-68032128D01*
X56722398Y-68032128D02*
X56936684Y-68032128D01*
X56936684Y-68032128D02*
X57079541Y-68103557D01*
X57079541Y-68103557D02*
X57150970Y-68246414D01*
X57150970Y-68246414D02*
X57150970Y-69032128D01*
D10*
D11*
X64338000Y-82846000D02*
X64338000Y-85846000D01*
D10*
D11*
X128338000Y-82846000D02*
X128338000Y-89346000D01*
D14*
%TO.C,U1*%
X20077740Y14720260D02*
X18022260Y14720260D01*
X18022260Y16775740D01*
X20077740Y16775740D01*
X20077740Y14720260D01*
G36*
X20077740Y14720260D02*
G01*
X18022260Y14720260D01*
X18022260Y16775740D01*
X20077740Y16775740D01*
X20077740Y14720260D01*
G37*
%TD*%
D15*
%TO.C,D5*%
X40132000Y1994000D03*
X40132000Y3594000D03*
%TD*%
D16*
%TO.C,R8*%
X23368000Y13411200D03*
X23368000Y15036800D03*
%TD*%
D17*
%TO.C,R9*%
X7416800Y37846000D03*
X5791200Y37846000D03*
%TD*%
D18*
%TO.C,D2*%
X17780000Y7976000D03*
X17780000Y9296000D03*
%TD*%
D17*
%TO.C,C7*%
X30530800Y13462000D03*
X28905200Y13462000D03*
%TD*%
%TO.C,R3*%
X7416800Y34798000D03*
X5791200Y34798000D03*
%TD*%
%TO.C,C10*%
X36779200Y9652000D03*
X38404800Y9652000D03*
%TD*%
D16*
%TO.C,R18*%
X35052000Y7416800D03*
X35052000Y5791200D03*
%TD*%
D18*
%TO.C,D3*%
X16256000Y7976000D03*
X16256000Y9296000D03*
%TD*%
D17*
%TO.C,R1*%
X914400Y1524000D03*
X2540000Y1524000D03*
%TD*%
D19*
%TO.C,C4*%
X5588000Y39471600D03*
X5588000Y41300400D03*
%TD*%
D16*
%TO.C,C2*%
X19812000Y11226800D03*
X19812000Y9601200D03*
%TD*%
%TO.C,R15*%
X10160000Y14935200D03*
X10160000Y16560800D03*
%TD*%
D18*
%TO.C,D4*%
X14732000Y7976000D03*
X14732000Y9296000D03*
%TD*%
D17*
%TO.C,C8*%
X40081200Y5588000D03*
X41706800Y5588000D03*
%TD*%
D16*
%TO.C,R12*%
X26416000Y15189200D03*
X26416000Y16814800D03*
%TD*%
D17*
%TO.C,R7*%
X4368800Y33274000D03*
X2743200Y33274000D03*
%TD*%
D20*
%TO.C,C9*%
X36677600Y11430000D03*
X38506400Y11430000D03*
%TD*%
D17*
%TO.C,R17*%
X41706800Y7366000D03*
X40081200Y7366000D03*
%TD*%
D19*
%TO.C,C12*%
X43942000Y7264400D03*
X43942000Y5435600D03*
%TD*%
D16*
%TO.C,R20*%
X41656000Y1981200D03*
X41656000Y3606800D03*
%TD*%
%TO.C,C3*%
X7366000Y39573200D03*
X7366000Y41198800D03*
%TD*%
%TO.C,R11*%
X24892000Y16814800D03*
X24892000Y15189200D03*
%TD*%
D17*
%TO.C,R22*%
X914400Y4318000D03*
X2540000Y4318000D03*
%TD*%
%TO.C,C6*%
X24841200Y13462000D03*
X26466800Y13462000D03*
%TD*%
D21*
%TO.C,L1*%
X41148000Y12446000D03*
X46736000Y12446000D03*
%TD*%
D16*
%TO.C,R10*%
X23368000Y16713200D03*
X23368000Y18338800D03*
%TD*%
D17*
%TO.C,C5*%
X4368800Y37846000D03*
X2743200Y37846000D03*
%TD*%
D22*
%TO.C,U1*%
X17550000Y13388000D03*
X18050000Y13388000D03*
X18550000Y13388000D03*
X19050000Y13388000D03*
X19550000Y13388000D03*
X20050000Y13388000D03*
X20550000Y13388000D03*
D23*
X21410000Y14248000D03*
X21410000Y14748000D03*
X21410000Y15248000D03*
X21410000Y15748000D03*
X21410000Y16248000D03*
X21410000Y16748000D03*
X21410000Y17248000D03*
D22*
X20550000Y18108000D03*
X20050000Y18108000D03*
X19550000Y18108000D03*
X19050000Y18108000D03*
X18550000Y18108000D03*
X18050000Y18108000D03*
X17550000Y18108000D03*
D23*
X16690000Y17248000D03*
X16690000Y16748000D03*
X16690000Y16248000D03*
X16690000Y15748000D03*
X16690000Y15248000D03*
X16690000Y14748000D03*
X16690000Y14248000D03*
%TD*%
D17*
%TO.C,R4*%
X7416800Y33274000D03*
X5791200Y33274000D03*
%TD*%
D19*
%TO.C,C11*%
X45974000Y7264400D03*
X45974000Y5435600D03*
%TD*%
D16*
%TO.C,C1*%
X21336000Y11226800D03*
X21336000Y9601200D03*
%TD*%
D24*
%TO.C,J3*%
X33044000Y37995799D03*
X34044001Y37995799D03*
X35043999Y37995799D03*
X36044000Y37995799D03*
D25*
X31744001Y40575799D03*
X37343999Y40575799D03*
%TD*%
D16*
%TO.C,R16*%
X11684000Y16560800D03*
X11684000Y14935200D03*
%TD*%
D26*
%TO.C,U2*%
X10550000Y41082000D03*
X10550000Y39812000D03*
X10550000Y38542000D03*
X10550000Y37272000D03*
X10550000Y36002000D03*
X10550000Y34732000D03*
X10550000Y33462000D03*
X10550000Y32192000D03*
X10550000Y30922000D03*
X10550000Y29652000D03*
X10550000Y28382000D03*
X10550000Y27112000D03*
X10550000Y25842000D03*
X10550000Y24572000D03*
D27*
X13335000Y23572000D03*
X14605000Y23572000D03*
X15875000Y23572000D03*
X17145000Y23572000D03*
X18415000Y23572000D03*
X19685000Y23572000D03*
X20955000Y23572000D03*
X22225000Y23572000D03*
X23495000Y23572000D03*
X24765000Y23572000D03*
D26*
X27550000Y24572000D03*
X27550000Y25842000D03*
X27550000Y27112000D03*
X27550000Y28382000D03*
X27550000Y29652000D03*
X27550000Y30922000D03*
X27550000Y32192000D03*
X27550000Y33462000D03*
X27550000Y34732000D03*
X27550000Y36002000D03*
X27550000Y37272000D03*
X27550000Y38542000D03*
X27550000Y39812000D03*
X27550000Y41082000D03*
D28*
X18050000Y34082000D03*
X16215000Y32247000D03*
X18050000Y32247000D03*
X19885000Y32247000D03*
X19885000Y34082000D03*
X19885000Y35917000D03*
X18050000Y35917000D03*
X16215000Y35917000D03*
X16215000Y34082000D03*
%TD*%
D29*
%TO.C,S1*%
X24892000Y1996000D03*
X24892000Y10196000D03*
%TD*%
D16*
%TO.C,R14*%
X13208000Y14935200D03*
X13208000Y16560800D03*
%TD*%
%TO.C,R13*%
X14732000Y14935200D03*
X14732000Y16560800D03*
%TD*%
D30*
%TO.C,Q2*%
X11872000Y13202000D03*
X9972000Y13202000D03*
X10922000Y11182000D03*
%TD*%
D17*
%TO.C,R5*%
X4368800Y36322000D03*
X2743200Y36322000D03*
%TD*%
D31*
%TO.C,J8*%
X13940000Y4865000D03*
X14590000Y4865000D03*
X15240000Y4865000D03*
X15890000Y4865000D03*
X16540000Y4865000D03*
D32*
X11240000Y2190000D03*
D33*
X14040000Y2190000D03*
X16440000Y2190000D03*
D32*
X19240000Y2190000D03*
%TD*%
D24*
%TO.C,J4*%
X41680000Y37995799D03*
X42680001Y37995799D03*
X43679999Y37995799D03*
X44680000Y37995799D03*
D25*
X40380001Y40575799D03*
X45979999Y40575799D03*
%TD*%
D30*
%TO.C,Q1*%
X9972000Y18294000D03*
X11872000Y18294000D03*
X10922000Y20314000D03*
%TD*%
D34*
%TO.C,U3*%
X38542000Y7904000D03*
X37592000Y7904000D03*
X36642000Y7904000D03*
X36642000Y5304000D03*
X37592000Y5304000D03*
X38542000Y5304000D03*
%TD*%
D17*
%TO.C,R6*%
X4368800Y34798000D03*
X2743200Y34798000D03*
%TD*%
D16*
%TO.C,R21*%
X36830000Y3606800D03*
X36830000Y1981200D03*
%TD*%
D35*
%TO.C,J6*%
X35524000Y26956000D03*
X35524000Y28956000D03*
X35524000Y30956000D03*
D36*
X33274000Y24556000D03*
X33274000Y33356000D03*
%TD*%
D16*
%TO.C,R19*%
X38354000Y1981200D03*
X38354000Y3606800D03*
%TD*%
D37*
%TO.C,D1*%
X12954000Y7192000D03*
X12954000Y9572000D03*
%TD*%
D35*
%TO.C,J7*%
X45176000Y26956000D03*
X45176000Y28956000D03*
X45176000Y30956000D03*
D36*
X42926000Y24556000D03*
X42926000Y33356000D03*
%TD*%
D16*
%TO.C,R23*%
X47752000Y7213600D03*
X47752000Y5588000D03*
%TD*%
D17*
%TO.C,R2*%
X7416800Y36322000D03*
X5791200Y36322000D03*
%TD*%
D29*
%TO.C,S2*%
X30480000Y1996000D03*
X30480000Y10196000D03*
%TD*%
M02*
