%TF.GenerationSoftware,KiCad,Pcbnew,8.0.4*%
%TF.CreationDate,2024-09-05T11:58:49-04:00*%
%TF.ProjectId,ESP32-RC_R0,45535033-322d-4524-935f-52302e6b6963,0*%
%TF.SameCoordinates,PX6dbb4f0PY6d3f490*%
%TF.FileFunction,Legend,Bot*%
%TF.FilePolarity,Positive*%
%FSLAX46Y46*%
G04 Gerber Fmt 4.6, Leading zero omitted, Abs format (unit mm)*
G04 Created by KiCad (PCBNEW 8.0.4) date 2024-09-05 11:58:49*
%MOMM*%
%LPD*%
G01*
G04 APERTURE LIST*
%ADD10C,0.100000*%
%ADD11C,0.150000*%
%ADD12C,0.300000*%
%ADD13C,0.400000*%
%ADD14C,0.000000*%
G04 APERTURE END LIST*
D10*
D11*
X44338000Y-57346000D02*
X152338000Y-57346000D01*
X152338000Y-89346000D01*
X44338000Y-89346000D01*
X44338000Y-57346000D01*
D10*
D11*
X-105062000Y104554000D02*
X154338000Y104554000D01*
X154338000Y-91346000D01*
X-105062000Y-91346000D01*
X-105062000Y104554000D01*
D10*
D11*
X-103062000Y102554000D02*
X152338000Y102554000D01*
X152338000Y-89346000D01*
X-103062000Y-89346000D01*
X-103062000Y102554000D01*
D10*
D11*
X-55062000Y102554000D02*
X-55062000Y104554000D01*
D10*
D11*
X-5062000Y102554000D02*
X-5062000Y104554000D01*
D10*
D11*
X44938000Y102554000D02*
X44938000Y104554000D01*
D10*
D11*
X94938000Y102554000D02*
X94938000Y104554000D01*
D10*
D11*
X144938000Y102554000D02*
X144938000Y104554000D01*
D10*
D11*
X-78972840Y102960396D02*
X-79715697Y102960396D01*
X-79344269Y102960396D02*
X-79344269Y104260396D01*
X-79344269Y104260396D02*
X-79468078Y104074681D01*
X-79468078Y104074681D02*
X-79591888Y103950872D01*
X-79591888Y103950872D02*
X-79715697Y103888967D01*
D10*
D11*
X-29715697Y104136586D02*
X-29653793Y104198491D01*
X-29653793Y104198491D02*
X-29529983Y104260396D01*
X-29529983Y104260396D02*
X-29220459Y104260396D01*
X-29220459Y104260396D02*
X-29096650Y104198491D01*
X-29096650Y104198491D02*
X-29034745Y104136586D01*
X-29034745Y104136586D02*
X-28972840Y104012777D01*
X-28972840Y104012777D02*
X-28972840Y103888967D01*
X-28972840Y103888967D02*
X-29034745Y103703253D01*
X-29034745Y103703253D02*
X-29777602Y102960396D01*
X-29777602Y102960396D02*
X-28972840Y102960396D01*
D10*
D11*
X20222398Y104260396D02*
X21027160Y104260396D01*
X21027160Y104260396D02*
X20593826Y103765158D01*
X20593826Y103765158D02*
X20779541Y103765158D01*
X20779541Y103765158D02*
X20903350Y103703253D01*
X20903350Y103703253D02*
X20965255Y103641348D01*
X20965255Y103641348D02*
X21027160Y103517539D01*
X21027160Y103517539D02*
X21027160Y103208015D01*
X21027160Y103208015D02*
X20965255Y103084205D01*
X20965255Y103084205D02*
X20903350Y103022300D01*
X20903350Y103022300D02*
X20779541Y102960396D01*
X20779541Y102960396D02*
X20408112Y102960396D01*
X20408112Y102960396D02*
X20284303Y103022300D01*
X20284303Y103022300D02*
X20222398Y103084205D01*
D10*
D11*
X70903350Y103827062D02*
X70903350Y102960396D01*
X70593826Y104322300D02*
X70284303Y103393729D01*
X70284303Y103393729D02*
X71089064Y103393729D01*
D10*
D11*
X120965255Y104260396D02*
X120346207Y104260396D01*
X120346207Y104260396D02*
X120284303Y103641348D01*
X120284303Y103641348D02*
X120346207Y103703253D01*
X120346207Y103703253D02*
X120470017Y103765158D01*
X120470017Y103765158D02*
X120779541Y103765158D01*
X120779541Y103765158D02*
X120903350Y103703253D01*
X120903350Y103703253D02*
X120965255Y103641348D01*
X120965255Y103641348D02*
X121027160Y103517539D01*
X121027160Y103517539D02*
X121027160Y103208015D01*
X121027160Y103208015D02*
X120965255Y103084205D01*
X120965255Y103084205D02*
X120903350Y103022300D01*
X120903350Y103022300D02*
X120779541Y102960396D01*
X120779541Y102960396D02*
X120470017Y102960396D01*
X120470017Y102960396D02*
X120346207Y103022300D01*
X120346207Y103022300D02*
X120284303Y103084205D01*
D10*
D11*
X-55062000Y-89346000D02*
X-55062000Y-91346000D01*
D10*
D11*
X-5062000Y-89346000D02*
X-5062000Y-91346000D01*
D10*
D11*
X44938000Y-89346000D02*
X44938000Y-91346000D01*
D10*
D11*
X94938000Y-89346000D02*
X94938000Y-91346000D01*
D10*
D11*
X144938000Y-89346000D02*
X144938000Y-91346000D01*
D10*
D11*
X-78972840Y-90939604D02*
X-79715697Y-90939604D01*
X-79344269Y-90939604D02*
X-79344269Y-89639604D01*
X-79344269Y-89639604D02*
X-79468078Y-89825319D01*
X-79468078Y-89825319D02*
X-79591888Y-89949128D01*
X-79591888Y-89949128D02*
X-79715697Y-90011033D01*
D10*
D11*
X-29715697Y-89763414D02*
X-29653793Y-89701509D01*
X-29653793Y-89701509D02*
X-29529983Y-89639604D01*
X-29529983Y-89639604D02*
X-29220459Y-89639604D01*
X-29220459Y-89639604D02*
X-29096650Y-89701509D01*
X-29096650Y-89701509D02*
X-29034745Y-89763414D01*
X-29034745Y-89763414D02*
X-28972840Y-89887223D01*
X-28972840Y-89887223D02*
X-28972840Y-90011033D01*
X-28972840Y-90011033D02*
X-29034745Y-90196747D01*
X-29034745Y-90196747D02*
X-29777602Y-90939604D01*
X-29777602Y-90939604D02*
X-28972840Y-90939604D01*
D10*
D11*
X20222398Y-89639604D02*
X21027160Y-89639604D01*
X21027160Y-89639604D02*
X20593826Y-90134842D01*
X20593826Y-90134842D02*
X20779541Y-90134842D01*
X20779541Y-90134842D02*
X20903350Y-90196747D01*
X20903350Y-90196747D02*
X20965255Y-90258652D01*
X20965255Y-90258652D02*
X21027160Y-90382461D01*
X21027160Y-90382461D02*
X21027160Y-90691985D01*
X21027160Y-90691985D02*
X20965255Y-90815795D01*
X20965255Y-90815795D02*
X20903350Y-90877700D01*
X20903350Y-90877700D02*
X20779541Y-90939604D01*
X20779541Y-90939604D02*
X20408112Y-90939604D01*
X20408112Y-90939604D02*
X20284303Y-90877700D01*
X20284303Y-90877700D02*
X20222398Y-90815795D01*
D10*
D11*
X70903350Y-90072938D02*
X70903350Y-90939604D01*
X70593826Y-89577700D02*
X70284303Y-90506271D01*
X70284303Y-90506271D02*
X71089064Y-90506271D01*
D10*
D11*
X120965255Y-89639604D02*
X120346207Y-89639604D01*
X120346207Y-89639604D02*
X120284303Y-90258652D01*
X120284303Y-90258652D02*
X120346207Y-90196747D01*
X120346207Y-90196747D02*
X120470017Y-90134842D01*
X120470017Y-90134842D02*
X120779541Y-90134842D01*
X120779541Y-90134842D02*
X120903350Y-90196747D01*
X120903350Y-90196747D02*
X120965255Y-90258652D01*
X120965255Y-90258652D02*
X121027160Y-90382461D01*
X121027160Y-90382461D02*
X121027160Y-90691985D01*
X121027160Y-90691985D02*
X120965255Y-90815795D01*
X120965255Y-90815795D02*
X120903350Y-90877700D01*
X120903350Y-90877700D02*
X120779541Y-90939604D01*
X120779541Y-90939604D02*
X120470017Y-90939604D01*
X120470017Y-90939604D02*
X120346207Y-90877700D01*
X120346207Y-90877700D02*
X120284303Y-90815795D01*
D10*
D11*
X-105062000Y54554000D02*
X-103062000Y54554000D01*
D10*
D11*
X-105062000Y4554000D02*
X-103062000Y4554000D01*
D10*
D11*
X-105062000Y-45446000D02*
X-103062000Y-45446000D01*
D10*
D11*
X-104371524Y79331824D02*
X-103752477Y79331824D01*
X-104495334Y78960396D02*
X-104062001Y80260396D01*
X-104062001Y80260396D02*
X-103628667Y78960396D01*
D10*
D11*
X-103969143Y29641348D02*
X-103783429Y29579443D01*
X-103783429Y29579443D02*
X-103721524Y29517539D01*
X-103721524Y29517539D02*
X-103659620Y29393729D01*
X-103659620Y29393729D02*
X-103659620Y29208015D01*
X-103659620Y29208015D02*
X-103721524Y29084205D01*
X-103721524Y29084205D02*
X-103783429Y29022300D01*
X-103783429Y29022300D02*
X-103907239Y28960396D01*
X-103907239Y28960396D02*
X-104402477Y28960396D01*
X-104402477Y28960396D02*
X-104402477Y30260396D01*
X-104402477Y30260396D02*
X-103969143Y30260396D01*
X-103969143Y30260396D02*
X-103845334Y30198491D01*
X-103845334Y30198491D02*
X-103783429Y30136586D01*
X-103783429Y30136586D02*
X-103721524Y30012777D01*
X-103721524Y30012777D02*
X-103721524Y29888967D01*
X-103721524Y29888967D02*
X-103783429Y29765158D01*
X-103783429Y29765158D02*
X-103845334Y29703253D01*
X-103845334Y29703253D02*
X-103969143Y29641348D01*
X-103969143Y29641348D02*
X-104402477Y29641348D01*
D10*
D11*
X-103659620Y-20915795D02*
X-103721524Y-20977700D01*
X-103721524Y-20977700D02*
X-103907239Y-21039604D01*
X-103907239Y-21039604D02*
X-104031048Y-21039604D01*
X-104031048Y-21039604D02*
X-104216762Y-20977700D01*
X-104216762Y-20977700D02*
X-104340572Y-20853890D01*
X-104340572Y-20853890D02*
X-104402477Y-20730080D01*
X-104402477Y-20730080D02*
X-104464381Y-20482461D01*
X-104464381Y-20482461D02*
X-104464381Y-20296747D01*
X-104464381Y-20296747D02*
X-104402477Y-20049128D01*
X-104402477Y-20049128D02*
X-104340572Y-19925319D01*
X-104340572Y-19925319D02*
X-104216762Y-19801509D01*
X-104216762Y-19801509D02*
X-104031048Y-19739604D01*
X-104031048Y-19739604D02*
X-103907239Y-19739604D01*
X-103907239Y-19739604D02*
X-103721524Y-19801509D01*
X-103721524Y-19801509D02*
X-103659620Y-19863414D01*
D10*
D11*
X-104402477Y-71039604D02*
X-104402477Y-69739604D01*
X-104402477Y-69739604D02*
X-104092953Y-69739604D01*
X-104092953Y-69739604D02*
X-103907239Y-69801509D01*
X-103907239Y-69801509D02*
X-103783429Y-69925319D01*
X-103783429Y-69925319D02*
X-103721524Y-70049128D01*
X-103721524Y-70049128D02*
X-103659620Y-70296747D01*
X-103659620Y-70296747D02*
X-103659620Y-70482461D01*
X-103659620Y-70482461D02*
X-103721524Y-70730080D01*
X-103721524Y-70730080D02*
X-103783429Y-70853890D01*
X-103783429Y-70853890D02*
X-103907239Y-70977700D01*
X-103907239Y-70977700D02*
X-104092953Y-71039604D01*
X-104092953Y-71039604D02*
X-104402477Y-71039604D01*
D10*
D11*
X154338000Y54554000D02*
X152338000Y54554000D01*
D10*
D11*
X154338000Y4554000D02*
X152338000Y4554000D01*
D10*
D11*
X154338000Y-45446000D02*
X152338000Y-45446000D01*
D10*
D11*
X153028476Y79331824D02*
X153647523Y79331824D01*
X152904666Y78960396D02*
X153337999Y80260396D01*
X153337999Y80260396D02*
X153771333Y78960396D01*
D10*
D11*
X153430857Y29641348D02*
X153616571Y29579443D01*
X153616571Y29579443D02*
X153678476Y29517539D01*
X153678476Y29517539D02*
X153740380Y29393729D01*
X153740380Y29393729D02*
X153740380Y29208015D01*
X153740380Y29208015D02*
X153678476Y29084205D01*
X153678476Y29084205D02*
X153616571Y29022300D01*
X153616571Y29022300D02*
X153492761Y28960396D01*
X153492761Y28960396D02*
X152997523Y28960396D01*
X152997523Y28960396D02*
X152997523Y30260396D01*
X152997523Y30260396D02*
X153430857Y30260396D01*
X153430857Y30260396D02*
X153554666Y30198491D01*
X153554666Y30198491D02*
X153616571Y30136586D01*
X153616571Y30136586D02*
X153678476Y30012777D01*
X153678476Y30012777D02*
X153678476Y29888967D01*
X153678476Y29888967D02*
X153616571Y29765158D01*
X153616571Y29765158D02*
X153554666Y29703253D01*
X153554666Y29703253D02*
X153430857Y29641348D01*
X153430857Y29641348D02*
X152997523Y29641348D01*
D10*
D11*
X153740380Y-20915795D02*
X153678476Y-20977700D01*
X153678476Y-20977700D02*
X153492761Y-21039604D01*
X153492761Y-21039604D02*
X153368952Y-21039604D01*
X153368952Y-21039604D02*
X153183238Y-20977700D01*
X153183238Y-20977700D02*
X153059428Y-20853890D01*
X153059428Y-20853890D02*
X152997523Y-20730080D01*
X152997523Y-20730080D02*
X152935619Y-20482461D01*
X152935619Y-20482461D02*
X152935619Y-20296747D01*
X152935619Y-20296747D02*
X152997523Y-20049128D01*
X152997523Y-20049128D02*
X153059428Y-19925319D01*
X153059428Y-19925319D02*
X153183238Y-19801509D01*
X153183238Y-19801509D02*
X153368952Y-19739604D01*
X153368952Y-19739604D02*
X153492761Y-19739604D01*
X153492761Y-19739604D02*
X153678476Y-19801509D01*
X153678476Y-19801509D02*
X153740380Y-19863414D01*
D10*
D11*
X152997523Y-71039604D02*
X152997523Y-69739604D01*
X152997523Y-69739604D02*
X153307047Y-69739604D01*
X153307047Y-69739604D02*
X153492761Y-69801509D01*
X153492761Y-69801509D02*
X153616571Y-69925319D01*
X153616571Y-69925319D02*
X153678476Y-70049128D01*
X153678476Y-70049128D02*
X153740380Y-70296747D01*
X153740380Y-70296747D02*
X153740380Y-70482461D01*
X153740380Y-70482461D02*
X153678476Y-70730080D01*
X153678476Y-70730080D02*
X153616571Y-70853890D01*
X153616571Y-70853890D02*
X153492761Y-70977700D01*
X153492761Y-70977700D02*
X153307047Y-71039604D01*
X153307047Y-71039604D02*
X152997523Y-71039604D01*
D10*
D11*
X67793826Y-85132128D02*
X67793826Y-83632128D01*
X67793826Y-83632128D02*
X68150969Y-83632128D01*
X68150969Y-83632128D02*
X68365255Y-83703557D01*
X68365255Y-83703557D02*
X68508112Y-83846414D01*
X68508112Y-83846414D02*
X68579541Y-83989271D01*
X68579541Y-83989271D02*
X68650969Y-84274985D01*
X68650969Y-84274985D02*
X68650969Y-84489271D01*
X68650969Y-84489271D02*
X68579541Y-84774985D01*
X68579541Y-84774985D02*
X68508112Y-84917842D01*
X68508112Y-84917842D02*
X68365255Y-85060700D01*
X68365255Y-85060700D02*
X68150969Y-85132128D01*
X68150969Y-85132128D02*
X67793826Y-85132128D01*
X69936684Y-85132128D02*
X69936684Y-84346414D01*
X69936684Y-84346414D02*
X69865255Y-84203557D01*
X69865255Y-84203557D02*
X69722398Y-84132128D01*
X69722398Y-84132128D02*
X69436684Y-84132128D01*
X69436684Y-84132128D02*
X69293826Y-84203557D01*
X69936684Y-85060700D02*
X69793826Y-85132128D01*
X69793826Y-85132128D02*
X69436684Y-85132128D01*
X69436684Y-85132128D02*
X69293826Y-85060700D01*
X69293826Y-85060700D02*
X69222398Y-84917842D01*
X69222398Y-84917842D02*
X69222398Y-84774985D01*
X69222398Y-84774985D02*
X69293826Y-84632128D01*
X69293826Y-84632128D02*
X69436684Y-84560700D01*
X69436684Y-84560700D02*
X69793826Y-84560700D01*
X69793826Y-84560700D02*
X69936684Y-84489271D01*
X70436684Y-84132128D02*
X71008112Y-84132128D01*
X70650969Y-83632128D02*
X70650969Y-84917842D01*
X70650969Y-84917842D02*
X70722398Y-85060700D01*
X70722398Y-85060700D02*
X70865255Y-85132128D01*
X70865255Y-85132128D02*
X71008112Y-85132128D01*
X72079541Y-85060700D02*
X71936684Y-85132128D01*
X71936684Y-85132128D02*
X71650970Y-85132128D01*
X71650970Y-85132128D02*
X71508112Y-85060700D01*
X71508112Y-85060700D02*
X71436684Y-84917842D01*
X71436684Y-84917842D02*
X71436684Y-84346414D01*
X71436684Y-84346414D02*
X71508112Y-84203557D01*
X71508112Y-84203557D02*
X71650970Y-84132128D01*
X71650970Y-84132128D02*
X71936684Y-84132128D01*
X71936684Y-84132128D02*
X72079541Y-84203557D01*
X72079541Y-84203557D02*
X72150970Y-84346414D01*
X72150970Y-84346414D02*
X72150970Y-84489271D01*
X72150970Y-84489271D02*
X71436684Y-84632128D01*
X72793826Y-84989271D02*
X72865255Y-85060700D01*
X72865255Y-85060700D02*
X72793826Y-85132128D01*
X72793826Y-85132128D02*
X72722398Y-85060700D01*
X72722398Y-85060700D02*
X72793826Y-84989271D01*
X72793826Y-84989271D02*
X72793826Y-85132128D01*
X72793826Y-84203557D02*
X72865255Y-84274985D01*
X72865255Y-84274985D02*
X72793826Y-84346414D01*
X72793826Y-84346414D02*
X72722398Y-84274985D01*
X72722398Y-84274985D02*
X72793826Y-84203557D01*
X72793826Y-84203557D02*
X72793826Y-84346414D01*
X74579541Y-83774985D02*
X74650969Y-83703557D01*
X74650969Y-83703557D02*
X74793827Y-83632128D01*
X74793827Y-83632128D02*
X75150969Y-83632128D01*
X75150969Y-83632128D02*
X75293827Y-83703557D01*
X75293827Y-83703557D02*
X75365255Y-83774985D01*
X75365255Y-83774985D02*
X75436684Y-83917842D01*
X75436684Y-83917842D02*
X75436684Y-84060700D01*
X75436684Y-84060700D02*
X75365255Y-84274985D01*
X75365255Y-84274985D02*
X74508112Y-85132128D01*
X74508112Y-85132128D02*
X75436684Y-85132128D01*
X76365255Y-83632128D02*
X76508112Y-83632128D01*
X76508112Y-83632128D02*
X76650969Y-83703557D01*
X76650969Y-83703557D02*
X76722398Y-83774985D01*
X76722398Y-83774985D02*
X76793826Y-83917842D01*
X76793826Y-83917842D02*
X76865255Y-84203557D01*
X76865255Y-84203557D02*
X76865255Y-84560700D01*
X76865255Y-84560700D02*
X76793826Y-84846414D01*
X76793826Y-84846414D02*
X76722398Y-84989271D01*
X76722398Y-84989271D02*
X76650969Y-85060700D01*
X76650969Y-85060700D02*
X76508112Y-85132128D01*
X76508112Y-85132128D02*
X76365255Y-85132128D01*
X76365255Y-85132128D02*
X76222398Y-85060700D01*
X76222398Y-85060700D02*
X76150969Y-84989271D01*
X76150969Y-84989271D02*
X76079540Y-84846414D01*
X76079540Y-84846414D02*
X76008112Y-84560700D01*
X76008112Y-84560700D02*
X76008112Y-84203557D01*
X76008112Y-84203557D02*
X76079540Y-83917842D01*
X76079540Y-83917842D02*
X76150969Y-83774985D01*
X76150969Y-83774985D02*
X76222398Y-83703557D01*
X76222398Y-83703557D02*
X76365255Y-83632128D01*
X77436683Y-83774985D02*
X77508111Y-83703557D01*
X77508111Y-83703557D02*
X77650969Y-83632128D01*
X77650969Y-83632128D02*
X78008111Y-83632128D01*
X78008111Y-83632128D02*
X78150969Y-83703557D01*
X78150969Y-83703557D02*
X78222397Y-83774985D01*
X78222397Y-83774985D02*
X78293826Y-83917842D01*
X78293826Y-83917842D02*
X78293826Y-84060700D01*
X78293826Y-84060700D02*
X78222397Y-84274985D01*
X78222397Y-84274985D02*
X77365254Y-85132128D01*
X77365254Y-85132128D02*
X78293826Y-85132128D01*
X79579540Y-84132128D02*
X79579540Y-85132128D01*
X79222397Y-83560700D02*
X78865254Y-84632128D01*
X78865254Y-84632128D02*
X79793825Y-84632128D01*
X80365253Y-84560700D02*
X81508111Y-84560700D01*
X82508111Y-83632128D02*
X82650968Y-83632128D01*
X82650968Y-83632128D02*
X82793825Y-83703557D01*
X82793825Y-83703557D02*
X82865254Y-83774985D01*
X82865254Y-83774985D02*
X82936682Y-83917842D01*
X82936682Y-83917842D02*
X83008111Y-84203557D01*
X83008111Y-84203557D02*
X83008111Y-84560700D01*
X83008111Y-84560700D02*
X82936682Y-84846414D01*
X82936682Y-84846414D02*
X82865254Y-84989271D01*
X82865254Y-84989271D02*
X82793825Y-85060700D01*
X82793825Y-85060700D02*
X82650968Y-85132128D01*
X82650968Y-85132128D02*
X82508111Y-85132128D01*
X82508111Y-85132128D02*
X82365254Y-85060700D01*
X82365254Y-85060700D02*
X82293825Y-84989271D01*
X82293825Y-84989271D02*
X82222396Y-84846414D01*
X82222396Y-84846414D02*
X82150968Y-84560700D01*
X82150968Y-84560700D02*
X82150968Y-84203557D01*
X82150968Y-84203557D02*
X82222396Y-83917842D01*
X82222396Y-83917842D02*
X82293825Y-83774985D01*
X82293825Y-83774985D02*
X82365254Y-83703557D01*
X82365254Y-83703557D02*
X82508111Y-83632128D01*
X83865253Y-84274985D02*
X83722396Y-84203557D01*
X83722396Y-84203557D02*
X83650967Y-84132128D01*
X83650967Y-84132128D02*
X83579539Y-83989271D01*
X83579539Y-83989271D02*
X83579539Y-83917842D01*
X83579539Y-83917842D02*
X83650967Y-83774985D01*
X83650967Y-83774985D02*
X83722396Y-83703557D01*
X83722396Y-83703557D02*
X83865253Y-83632128D01*
X83865253Y-83632128D02*
X84150967Y-83632128D01*
X84150967Y-83632128D02*
X84293825Y-83703557D01*
X84293825Y-83703557D02*
X84365253Y-83774985D01*
X84365253Y-83774985D02*
X84436682Y-83917842D01*
X84436682Y-83917842D02*
X84436682Y-83989271D01*
X84436682Y-83989271D02*
X84365253Y-84132128D01*
X84365253Y-84132128D02*
X84293825Y-84203557D01*
X84293825Y-84203557D02*
X84150967Y-84274985D01*
X84150967Y-84274985D02*
X83865253Y-84274985D01*
X83865253Y-84274985D02*
X83722396Y-84346414D01*
X83722396Y-84346414D02*
X83650967Y-84417842D01*
X83650967Y-84417842D02*
X83579539Y-84560700D01*
X83579539Y-84560700D02*
X83579539Y-84846414D01*
X83579539Y-84846414D02*
X83650967Y-84989271D01*
X83650967Y-84989271D02*
X83722396Y-85060700D01*
X83722396Y-85060700D02*
X83865253Y-85132128D01*
X83865253Y-85132128D02*
X84150967Y-85132128D01*
X84150967Y-85132128D02*
X84293825Y-85060700D01*
X84293825Y-85060700D02*
X84365253Y-84989271D01*
X84365253Y-84989271D02*
X84436682Y-84846414D01*
X84436682Y-84846414D02*
X84436682Y-84560700D01*
X84436682Y-84560700D02*
X84365253Y-84417842D01*
X84365253Y-84417842D02*
X84293825Y-84346414D01*
X84293825Y-84346414D02*
X84150967Y-84274985D01*
X85079538Y-84560700D02*
X86222396Y-84560700D01*
X86793824Y-83632128D02*
X87722396Y-83632128D01*
X87722396Y-83632128D02*
X87222396Y-84203557D01*
X87222396Y-84203557D02*
X87436681Y-84203557D01*
X87436681Y-84203557D02*
X87579539Y-84274985D01*
X87579539Y-84274985D02*
X87650967Y-84346414D01*
X87650967Y-84346414D02*
X87722396Y-84489271D01*
X87722396Y-84489271D02*
X87722396Y-84846414D01*
X87722396Y-84846414D02*
X87650967Y-84989271D01*
X87650967Y-84989271D02*
X87579539Y-85060700D01*
X87579539Y-85060700D02*
X87436681Y-85132128D01*
X87436681Y-85132128D02*
X87008110Y-85132128D01*
X87008110Y-85132128D02*
X86865253Y-85060700D01*
X86865253Y-85060700D02*
X86793824Y-84989271D01*
X88650967Y-83632128D02*
X88793824Y-83632128D01*
X88793824Y-83632128D02*
X88936681Y-83703557D01*
X88936681Y-83703557D02*
X89008110Y-83774985D01*
X89008110Y-83774985D02*
X89079538Y-83917842D01*
X89079538Y-83917842D02*
X89150967Y-84203557D01*
X89150967Y-84203557D02*
X89150967Y-84560700D01*
X89150967Y-84560700D02*
X89079538Y-84846414D01*
X89079538Y-84846414D02*
X89008110Y-84989271D01*
X89008110Y-84989271D02*
X88936681Y-85060700D01*
X88936681Y-85060700D02*
X88793824Y-85132128D01*
X88793824Y-85132128D02*
X88650967Y-85132128D01*
X88650967Y-85132128D02*
X88508110Y-85060700D01*
X88508110Y-85060700D02*
X88436681Y-84989271D01*
X88436681Y-84989271D02*
X88365252Y-84846414D01*
X88365252Y-84846414D02*
X88293824Y-84560700D01*
X88293824Y-84560700D02*
X88293824Y-84203557D01*
X88293824Y-84203557D02*
X88365252Y-83917842D01*
X88365252Y-83917842D02*
X88436681Y-83774985D01*
X88436681Y-83774985D02*
X88508110Y-83703557D01*
X88508110Y-83703557D02*
X88650967Y-83632128D01*
D10*
D11*
X44338000Y-85846000D02*
X152338000Y-85846000D01*
D10*
D11*
X45793826Y-87932128D02*
X45793826Y-86432128D01*
X46650969Y-87932128D02*
X46008112Y-87074985D01*
X46650969Y-86432128D02*
X45793826Y-87289271D01*
X47293826Y-87932128D02*
X47293826Y-86932128D01*
X47293826Y-86432128D02*
X47222398Y-86503557D01*
X47222398Y-86503557D02*
X47293826Y-86574985D01*
X47293826Y-86574985D02*
X47365255Y-86503557D01*
X47365255Y-86503557D02*
X47293826Y-86432128D01*
X47293826Y-86432128D02*
X47293826Y-86574985D01*
X48865255Y-87789271D02*
X48793827Y-87860700D01*
X48793827Y-87860700D02*
X48579541Y-87932128D01*
X48579541Y-87932128D02*
X48436684Y-87932128D01*
X48436684Y-87932128D02*
X48222398Y-87860700D01*
X48222398Y-87860700D02*
X48079541Y-87717842D01*
X48079541Y-87717842D02*
X48008112Y-87574985D01*
X48008112Y-87574985D02*
X47936684Y-87289271D01*
X47936684Y-87289271D02*
X47936684Y-87074985D01*
X47936684Y-87074985D02*
X48008112Y-86789271D01*
X48008112Y-86789271D02*
X48079541Y-86646414D01*
X48079541Y-86646414D02*
X48222398Y-86503557D01*
X48222398Y-86503557D02*
X48436684Y-86432128D01*
X48436684Y-86432128D02*
X48579541Y-86432128D01*
X48579541Y-86432128D02*
X48793827Y-86503557D01*
X48793827Y-86503557D02*
X48865255Y-86574985D01*
X50150970Y-87932128D02*
X50150970Y-87146414D01*
X50150970Y-87146414D02*
X50079541Y-87003557D01*
X50079541Y-87003557D02*
X49936684Y-86932128D01*
X49936684Y-86932128D02*
X49650970Y-86932128D01*
X49650970Y-86932128D02*
X49508112Y-87003557D01*
X50150970Y-87860700D02*
X50008112Y-87932128D01*
X50008112Y-87932128D02*
X49650970Y-87932128D01*
X49650970Y-87932128D02*
X49508112Y-87860700D01*
X49508112Y-87860700D02*
X49436684Y-87717842D01*
X49436684Y-87717842D02*
X49436684Y-87574985D01*
X49436684Y-87574985D02*
X49508112Y-87432128D01*
X49508112Y-87432128D02*
X49650970Y-87360700D01*
X49650970Y-87360700D02*
X50008112Y-87360700D01*
X50008112Y-87360700D02*
X50150970Y-87289271D01*
X51508113Y-87932128D02*
X51508113Y-86432128D01*
X51508113Y-87860700D02*
X51365255Y-87932128D01*
X51365255Y-87932128D02*
X51079541Y-87932128D01*
X51079541Y-87932128D02*
X50936684Y-87860700D01*
X50936684Y-87860700D02*
X50865255Y-87789271D01*
X50865255Y-87789271D02*
X50793827Y-87646414D01*
X50793827Y-87646414D02*
X50793827Y-87217842D01*
X50793827Y-87217842D02*
X50865255Y-87074985D01*
X50865255Y-87074985D02*
X50936684Y-87003557D01*
X50936684Y-87003557D02*
X51079541Y-86932128D01*
X51079541Y-86932128D02*
X51365255Y-86932128D01*
X51365255Y-86932128D02*
X51508113Y-87003557D01*
X53365255Y-87146414D02*
X53865255Y-87146414D01*
X54079541Y-87932128D02*
X53365255Y-87932128D01*
X53365255Y-87932128D02*
X53365255Y-86432128D01*
X53365255Y-86432128D02*
X54079541Y-86432128D01*
X54722398Y-87789271D02*
X54793827Y-87860700D01*
X54793827Y-87860700D02*
X54722398Y-87932128D01*
X54722398Y-87932128D02*
X54650970Y-87860700D01*
X54650970Y-87860700D02*
X54722398Y-87789271D01*
X54722398Y-87789271D02*
X54722398Y-87932128D01*
X55436684Y-87932128D02*
X55436684Y-86432128D01*
X55436684Y-86432128D02*
X55793827Y-86432128D01*
X55793827Y-86432128D02*
X56008113Y-86503557D01*
X56008113Y-86503557D02*
X56150970Y-86646414D01*
X56150970Y-86646414D02*
X56222399Y-86789271D01*
X56222399Y-86789271D02*
X56293827Y-87074985D01*
X56293827Y-87074985D02*
X56293827Y-87289271D01*
X56293827Y-87289271D02*
X56222399Y-87574985D01*
X56222399Y-87574985D02*
X56150970Y-87717842D01*
X56150970Y-87717842D02*
X56008113Y-87860700D01*
X56008113Y-87860700D02*
X55793827Y-87932128D01*
X55793827Y-87932128D02*
X55436684Y-87932128D01*
X56936684Y-87789271D02*
X57008113Y-87860700D01*
X57008113Y-87860700D02*
X56936684Y-87932128D01*
X56936684Y-87932128D02*
X56865256Y-87860700D01*
X56865256Y-87860700D02*
X56936684Y-87789271D01*
X56936684Y-87789271D02*
X56936684Y-87932128D01*
X57579542Y-87503557D02*
X58293828Y-87503557D01*
X57436685Y-87932128D02*
X57936685Y-86432128D01*
X57936685Y-86432128D02*
X58436685Y-87932128D01*
X58936684Y-87789271D02*
X59008113Y-87860700D01*
X59008113Y-87860700D02*
X58936684Y-87932128D01*
X58936684Y-87932128D02*
X58865256Y-87860700D01*
X58865256Y-87860700D02*
X58936684Y-87789271D01*
X58936684Y-87789271D02*
X58936684Y-87932128D01*
X61008113Y-87074985D02*
X60865256Y-87003557D01*
X60865256Y-87003557D02*
X60793827Y-86932128D01*
X60793827Y-86932128D02*
X60722399Y-86789271D01*
X60722399Y-86789271D02*
X60722399Y-86717842D01*
X60722399Y-86717842D02*
X60793827Y-86574985D01*
X60793827Y-86574985D02*
X60865256Y-86503557D01*
X60865256Y-86503557D02*
X61008113Y-86432128D01*
X61008113Y-86432128D02*
X61293827Y-86432128D01*
X61293827Y-86432128D02*
X61436685Y-86503557D01*
X61436685Y-86503557D02*
X61508113Y-86574985D01*
X61508113Y-86574985D02*
X61579542Y-86717842D01*
X61579542Y-86717842D02*
X61579542Y-86789271D01*
X61579542Y-86789271D02*
X61508113Y-86932128D01*
X61508113Y-86932128D02*
X61436685Y-87003557D01*
X61436685Y-87003557D02*
X61293827Y-87074985D01*
X61293827Y-87074985D02*
X61008113Y-87074985D01*
X61008113Y-87074985D02*
X60865256Y-87146414D01*
X60865256Y-87146414D02*
X60793827Y-87217842D01*
X60793827Y-87217842D02*
X60722399Y-87360700D01*
X60722399Y-87360700D02*
X60722399Y-87646414D01*
X60722399Y-87646414D02*
X60793827Y-87789271D01*
X60793827Y-87789271D02*
X60865256Y-87860700D01*
X60865256Y-87860700D02*
X61008113Y-87932128D01*
X61008113Y-87932128D02*
X61293827Y-87932128D01*
X61293827Y-87932128D02*
X61436685Y-87860700D01*
X61436685Y-87860700D02*
X61508113Y-87789271D01*
X61508113Y-87789271D02*
X61579542Y-87646414D01*
X61579542Y-87646414D02*
X61579542Y-87360700D01*
X61579542Y-87360700D02*
X61508113Y-87217842D01*
X61508113Y-87217842D02*
X61436685Y-87146414D01*
X61436685Y-87146414D02*
X61293827Y-87074985D01*
X62222398Y-87789271D02*
X62293827Y-87860700D01*
X62293827Y-87860700D02*
X62222398Y-87932128D01*
X62222398Y-87932128D02*
X62150970Y-87860700D01*
X62150970Y-87860700D02*
X62222398Y-87789271D01*
X62222398Y-87789271D02*
X62222398Y-87932128D01*
X63222399Y-86432128D02*
X63365256Y-86432128D01*
X63365256Y-86432128D02*
X63508113Y-86503557D01*
X63508113Y-86503557D02*
X63579542Y-86574985D01*
X63579542Y-86574985D02*
X63650970Y-86717842D01*
X63650970Y-86717842D02*
X63722399Y-87003557D01*
X63722399Y-87003557D02*
X63722399Y-87360700D01*
X63722399Y-87360700D02*
X63650970Y-87646414D01*
X63650970Y-87646414D02*
X63579542Y-87789271D01*
X63579542Y-87789271D02*
X63508113Y-87860700D01*
X63508113Y-87860700D02*
X63365256Y-87932128D01*
X63365256Y-87932128D02*
X63222399Y-87932128D01*
X63222399Y-87932128D02*
X63079542Y-87860700D01*
X63079542Y-87860700D02*
X63008113Y-87789271D01*
X63008113Y-87789271D02*
X62936684Y-87646414D01*
X62936684Y-87646414D02*
X62865256Y-87360700D01*
X62865256Y-87360700D02*
X62865256Y-87003557D01*
X62865256Y-87003557D02*
X62936684Y-86717842D01*
X62936684Y-86717842D02*
X63008113Y-86574985D01*
X63008113Y-86574985D02*
X63079542Y-86503557D01*
X63079542Y-86503557D02*
X63222399Y-86432128D01*
X64365255Y-87789271D02*
X64436684Y-87860700D01*
X64436684Y-87860700D02*
X64365255Y-87932128D01*
X64365255Y-87932128D02*
X64293827Y-87860700D01*
X64293827Y-87860700D02*
X64365255Y-87789271D01*
X64365255Y-87789271D02*
X64365255Y-87932128D01*
X65722399Y-86932128D02*
X65722399Y-87932128D01*
X65365256Y-86360700D02*
X65008113Y-87432128D01*
X65008113Y-87432128D02*
X65936684Y-87432128D01*
D10*
D11*
X44338000Y-82846000D02*
X152338000Y-82846000D01*
D10*
D12*
X131749653Y-85124328D02*
X131249653Y-84410042D01*
X130892510Y-85124328D02*
X130892510Y-83624328D01*
X130892510Y-83624328D02*
X131463939Y-83624328D01*
X131463939Y-83624328D02*
X131606796Y-83695757D01*
X131606796Y-83695757D02*
X131678225Y-83767185D01*
X131678225Y-83767185D02*
X131749653Y-83910042D01*
X131749653Y-83910042D02*
X131749653Y-84124328D01*
X131749653Y-84124328D02*
X131678225Y-84267185D01*
X131678225Y-84267185D02*
X131606796Y-84338614D01*
X131606796Y-84338614D02*
X131463939Y-84410042D01*
X131463939Y-84410042D02*
X130892510Y-84410042D01*
X132963939Y-85052900D02*
X132821082Y-85124328D01*
X132821082Y-85124328D02*
X132535368Y-85124328D01*
X132535368Y-85124328D02*
X132392510Y-85052900D01*
X132392510Y-85052900D02*
X132321082Y-84910042D01*
X132321082Y-84910042D02*
X132321082Y-84338614D01*
X132321082Y-84338614D02*
X132392510Y-84195757D01*
X132392510Y-84195757D02*
X132535368Y-84124328D01*
X132535368Y-84124328D02*
X132821082Y-84124328D01*
X132821082Y-84124328D02*
X132963939Y-84195757D01*
X132963939Y-84195757D02*
X133035368Y-84338614D01*
X133035368Y-84338614D02*
X133035368Y-84481471D01*
X133035368Y-84481471D02*
X132321082Y-84624328D01*
X133535367Y-84124328D02*
X133892510Y-85124328D01*
X133892510Y-85124328D02*
X134249653Y-84124328D01*
X134821081Y-84981471D02*
X134892510Y-85052900D01*
X134892510Y-85052900D02*
X134821081Y-85124328D01*
X134821081Y-85124328D02*
X134749653Y-85052900D01*
X134749653Y-85052900D02*
X134821081Y-84981471D01*
X134821081Y-84981471D02*
X134821081Y-85124328D01*
X134821081Y-84195757D02*
X134892510Y-84267185D01*
X134892510Y-84267185D02*
X134821081Y-84338614D01*
X134821081Y-84338614D02*
X134749653Y-84267185D01*
X134749653Y-84267185D02*
X134821081Y-84195757D01*
X134821081Y-84195757D02*
X134821081Y-84338614D01*
X136963939Y-83624328D02*
X137106796Y-83624328D01*
X137106796Y-83624328D02*
X137249653Y-83695757D01*
X137249653Y-83695757D02*
X137321082Y-83767185D01*
X137321082Y-83767185D02*
X137392510Y-83910042D01*
X137392510Y-83910042D02*
X137463939Y-84195757D01*
X137463939Y-84195757D02*
X137463939Y-84552900D01*
X137463939Y-84552900D02*
X137392510Y-84838614D01*
X137392510Y-84838614D02*
X137321082Y-84981471D01*
X137321082Y-84981471D02*
X137249653Y-85052900D01*
X137249653Y-85052900D02*
X137106796Y-85124328D01*
X137106796Y-85124328D02*
X136963939Y-85124328D01*
X136963939Y-85124328D02*
X136821082Y-85052900D01*
X136821082Y-85052900D02*
X136749653Y-84981471D01*
X136749653Y-84981471D02*
X136678224Y-84838614D01*
X136678224Y-84838614D02*
X136606796Y-84552900D01*
X136606796Y-84552900D02*
X136606796Y-84195757D01*
X136606796Y-84195757D02*
X136678224Y-83910042D01*
X136678224Y-83910042D02*
X136749653Y-83767185D01*
X136749653Y-83767185D02*
X136821082Y-83695757D01*
X136821082Y-83695757D02*
X136963939Y-83624328D01*
D10*
D11*
X45722398Y-85060700D02*
X45936684Y-85132128D01*
X45936684Y-85132128D02*
X46293826Y-85132128D01*
X46293826Y-85132128D02*
X46436684Y-85060700D01*
X46436684Y-85060700D02*
X46508112Y-84989271D01*
X46508112Y-84989271D02*
X46579541Y-84846414D01*
X46579541Y-84846414D02*
X46579541Y-84703557D01*
X46579541Y-84703557D02*
X46508112Y-84560700D01*
X46508112Y-84560700D02*
X46436684Y-84489271D01*
X46436684Y-84489271D02*
X46293826Y-84417842D01*
X46293826Y-84417842D02*
X46008112Y-84346414D01*
X46008112Y-84346414D02*
X45865255Y-84274985D01*
X45865255Y-84274985D02*
X45793826Y-84203557D01*
X45793826Y-84203557D02*
X45722398Y-84060700D01*
X45722398Y-84060700D02*
X45722398Y-83917842D01*
X45722398Y-83917842D02*
X45793826Y-83774985D01*
X45793826Y-83774985D02*
X45865255Y-83703557D01*
X45865255Y-83703557D02*
X46008112Y-83632128D01*
X46008112Y-83632128D02*
X46365255Y-83632128D01*
X46365255Y-83632128D02*
X46579541Y-83703557D01*
X47222397Y-85132128D02*
X47222397Y-84132128D01*
X47222397Y-83632128D02*
X47150969Y-83703557D01*
X47150969Y-83703557D02*
X47222397Y-83774985D01*
X47222397Y-83774985D02*
X47293826Y-83703557D01*
X47293826Y-83703557D02*
X47222397Y-83632128D01*
X47222397Y-83632128D02*
X47222397Y-83774985D01*
X47793826Y-84132128D02*
X48579541Y-84132128D01*
X48579541Y-84132128D02*
X47793826Y-85132128D01*
X47793826Y-85132128D02*
X48579541Y-85132128D01*
X49722398Y-85060700D02*
X49579541Y-85132128D01*
X49579541Y-85132128D02*
X49293827Y-85132128D01*
X49293827Y-85132128D02*
X49150969Y-85060700D01*
X49150969Y-85060700D02*
X49079541Y-84917842D01*
X49079541Y-84917842D02*
X49079541Y-84346414D01*
X49079541Y-84346414D02*
X49150969Y-84203557D01*
X49150969Y-84203557D02*
X49293827Y-84132128D01*
X49293827Y-84132128D02*
X49579541Y-84132128D01*
X49579541Y-84132128D02*
X49722398Y-84203557D01*
X49722398Y-84203557D02*
X49793827Y-84346414D01*
X49793827Y-84346414D02*
X49793827Y-84489271D01*
X49793827Y-84489271D02*
X49079541Y-84632128D01*
X50436683Y-84989271D02*
X50508112Y-85060700D01*
X50508112Y-85060700D02*
X50436683Y-85132128D01*
X50436683Y-85132128D02*
X50365255Y-85060700D01*
X50365255Y-85060700D02*
X50436683Y-84989271D01*
X50436683Y-84989271D02*
X50436683Y-85132128D01*
X50436683Y-84203557D02*
X50508112Y-84274985D01*
X50508112Y-84274985D02*
X50436683Y-84346414D01*
X50436683Y-84346414D02*
X50365255Y-84274985D01*
X50365255Y-84274985D02*
X50436683Y-84203557D01*
X50436683Y-84203557D02*
X50436683Y-84346414D01*
X52293826Y-83632128D02*
X52293826Y-84846414D01*
X52293826Y-84846414D02*
X52365255Y-84989271D01*
X52365255Y-84989271D02*
X52436684Y-85060700D01*
X52436684Y-85060700D02*
X52579541Y-85132128D01*
X52579541Y-85132128D02*
X52865255Y-85132128D01*
X52865255Y-85132128D02*
X53008112Y-85060700D01*
X53008112Y-85060700D02*
X53079541Y-84989271D01*
X53079541Y-84989271D02*
X53150969Y-84846414D01*
X53150969Y-84846414D02*
X53150969Y-83632128D01*
X53793827Y-85060700D02*
X54008113Y-85132128D01*
X54008113Y-85132128D02*
X54365255Y-85132128D01*
X54365255Y-85132128D02*
X54508113Y-85060700D01*
X54508113Y-85060700D02*
X54579541Y-84989271D01*
X54579541Y-84989271D02*
X54650970Y-84846414D01*
X54650970Y-84846414D02*
X54650970Y-84703557D01*
X54650970Y-84703557D02*
X54579541Y-84560700D01*
X54579541Y-84560700D02*
X54508113Y-84489271D01*
X54508113Y-84489271D02*
X54365255Y-84417842D01*
X54365255Y-84417842D02*
X54079541Y-84346414D01*
X54079541Y-84346414D02*
X53936684Y-84274985D01*
X53936684Y-84274985D02*
X53865255Y-84203557D01*
X53865255Y-84203557D02*
X53793827Y-84060700D01*
X53793827Y-84060700D02*
X53793827Y-83917842D01*
X53793827Y-83917842D02*
X53865255Y-83774985D01*
X53865255Y-83774985D02*
X53936684Y-83703557D01*
X53936684Y-83703557D02*
X54079541Y-83632128D01*
X54079541Y-83632128D02*
X54436684Y-83632128D01*
X54436684Y-83632128D02*
X54650970Y-83703557D01*
X56008112Y-85132128D02*
X55293826Y-85132128D01*
X55293826Y-85132128D02*
X55293826Y-83632128D01*
X57079541Y-85060700D02*
X56936684Y-85132128D01*
X56936684Y-85132128D02*
X56650970Y-85132128D01*
X56650970Y-85132128D02*
X56508112Y-85060700D01*
X56508112Y-85060700D02*
X56436684Y-84917842D01*
X56436684Y-84917842D02*
X56436684Y-84346414D01*
X56436684Y-84346414D02*
X56508112Y-84203557D01*
X56508112Y-84203557D02*
X56650970Y-84132128D01*
X56650970Y-84132128D02*
X56936684Y-84132128D01*
X56936684Y-84132128D02*
X57079541Y-84203557D01*
X57079541Y-84203557D02*
X57150970Y-84346414D01*
X57150970Y-84346414D02*
X57150970Y-84489271D01*
X57150970Y-84489271D02*
X56436684Y-84632128D01*
X57579541Y-84132128D02*
X58150969Y-84132128D01*
X57793826Y-83632128D02*
X57793826Y-84917842D01*
X57793826Y-84917842D02*
X57865255Y-85060700D01*
X57865255Y-85060700D02*
X58008112Y-85132128D01*
X58008112Y-85132128D02*
X58150969Y-85132128D01*
X58436684Y-84132128D02*
X59008112Y-84132128D01*
X58650969Y-83632128D02*
X58650969Y-84917842D01*
X58650969Y-84917842D02*
X58722398Y-85060700D01*
X58722398Y-85060700D02*
X58865255Y-85132128D01*
X58865255Y-85132128D02*
X59008112Y-85132128D01*
X60079541Y-85060700D02*
X59936684Y-85132128D01*
X59936684Y-85132128D02*
X59650970Y-85132128D01*
X59650970Y-85132128D02*
X59508112Y-85060700D01*
X59508112Y-85060700D02*
X59436684Y-84917842D01*
X59436684Y-84917842D02*
X59436684Y-84346414D01*
X59436684Y-84346414D02*
X59508112Y-84203557D01*
X59508112Y-84203557D02*
X59650970Y-84132128D01*
X59650970Y-84132128D02*
X59936684Y-84132128D01*
X59936684Y-84132128D02*
X60079541Y-84203557D01*
X60079541Y-84203557D02*
X60150970Y-84346414D01*
X60150970Y-84346414D02*
X60150970Y-84489271D01*
X60150970Y-84489271D02*
X59436684Y-84632128D01*
X60793826Y-85132128D02*
X60793826Y-84132128D01*
X60793826Y-84417842D02*
X60865255Y-84274985D01*
X60865255Y-84274985D02*
X60936684Y-84203557D01*
X60936684Y-84203557D02*
X61079541Y-84132128D01*
X61079541Y-84132128D02*
X61222398Y-84132128D01*
D10*
D11*
X130793826Y-87932128D02*
X130793826Y-86432128D01*
X132150970Y-87932128D02*
X132150970Y-86432128D01*
X132150970Y-87860700D02*
X132008112Y-87932128D01*
X132008112Y-87932128D02*
X131722398Y-87932128D01*
X131722398Y-87932128D02*
X131579541Y-87860700D01*
X131579541Y-87860700D02*
X131508112Y-87789271D01*
X131508112Y-87789271D02*
X131436684Y-87646414D01*
X131436684Y-87646414D02*
X131436684Y-87217842D01*
X131436684Y-87217842D02*
X131508112Y-87074985D01*
X131508112Y-87074985D02*
X131579541Y-87003557D01*
X131579541Y-87003557D02*
X131722398Y-86932128D01*
X131722398Y-86932128D02*
X132008112Y-86932128D01*
X132008112Y-86932128D02*
X132150970Y-87003557D01*
X132865255Y-87789271D02*
X132936684Y-87860700D01*
X132936684Y-87860700D02*
X132865255Y-87932128D01*
X132865255Y-87932128D02*
X132793827Y-87860700D01*
X132793827Y-87860700D02*
X132865255Y-87789271D01*
X132865255Y-87789271D02*
X132865255Y-87932128D01*
X132865255Y-87003557D02*
X132936684Y-87074985D01*
X132936684Y-87074985D02*
X132865255Y-87146414D01*
X132865255Y-87146414D02*
X132793827Y-87074985D01*
X132793827Y-87074985D02*
X132865255Y-87003557D01*
X132865255Y-87003557D02*
X132865255Y-87146414D01*
X135508113Y-87932128D02*
X134650970Y-87932128D01*
X135079541Y-87932128D02*
X135079541Y-86432128D01*
X135079541Y-86432128D02*
X134936684Y-86646414D01*
X134936684Y-86646414D02*
X134793827Y-86789271D01*
X134793827Y-86789271D02*
X134650970Y-86860700D01*
X137222398Y-86360700D02*
X135936684Y-88289271D01*
X138508113Y-87932128D02*
X137650970Y-87932128D01*
X138079541Y-87932128D02*
X138079541Y-86432128D01*
X138079541Y-86432128D02*
X137936684Y-86646414D01*
X137936684Y-86646414D02*
X137793827Y-86789271D01*
X137793827Y-86789271D02*
X137650970Y-86860700D01*
D10*
D11*
X44338000Y-78846000D02*
X152338000Y-78846000D01*
D10*
D13*
X46029728Y-79550438D02*
X47172585Y-79550438D01*
X46351157Y-81550438D02*
X46601157Y-79550438D01*
X47589252Y-81550438D02*
X47755919Y-80217104D01*
X47839252Y-79550438D02*
X47732109Y-79645676D01*
X47732109Y-79645676D02*
X47815443Y-79740914D01*
X47815443Y-79740914D02*
X47922586Y-79645676D01*
X47922586Y-79645676D02*
X47839252Y-79550438D01*
X47839252Y-79550438D02*
X47815443Y-79740914D01*
X48422586Y-80217104D02*
X49184490Y-80217104D01*
X48791633Y-79550438D02*
X48577348Y-81264723D01*
X48577348Y-81264723D02*
X48648776Y-81455200D01*
X48648776Y-81455200D02*
X48827348Y-81550438D01*
X48827348Y-81550438D02*
X49017824Y-81550438D01*
X49970205Y-81550438D02*
X49791633Y-81455200D01*
X49791633Y-81455200D02*
X49720205Y-81264723D01*
X49720205Y-81264723D02*
X49934490Y-79550438D01*
X51505919Y-81455200D02*
X51303538Y-81550438D01*
X51303538Y-81550438D02*
X50922585Y-81550438D01*
X50922585Y-81550438D02*
X50744014Y-81455200D01*
X50744014Y-81455200D02*
X50672585Y-81264723D01*
X50672585Y-81264723D02*
X50767824Y-80502819D01*
X50767824Y-80502819D02*
X50886871Y-80312342D01*
X50886871Y-80312342D02*
X51089252Y-80217104D01*
X51089252Y-80217104D02*
X51470204Y-80217104D01*
X51470204Y-80217104D02*
X51648776Y-80312342D01*
X51648776Y-80312342D02*
X51720204Y-80502819D01*
X51720204Y-80502819D02*
X51696395Y-80693295D01*
X51696395Y-80693295D02*
X50720204Y-80883771D01*
X52470205Y-81359961D02*
X52553538Y-81455200D01*
X52553538Y-81455200D02*
X52446395Y-81550438D01*
X52446395Y-81550438D02*
X52363062Y-81455200D01*
X52363062Y-81455200D02*
X52470205Y-81359961D01*
X52470205Y-81359961D02*
X52446395Y-81550438D01*
X52601157Y-80312342D02*
X52684490Y-80407580D01*
X52684490Y-80407580D02*
X52577348Y-80502819D01*
X52577348Y-80502819D02*
X52494014Y-80407580D01*
X52494014Y-80407580D02*
X52601157Y-80312342D01*
X52601157Y-80312342D02*
X52577348Y-80502819D01*
X55053539Y-80502819D02*
X55720205Y-80502819D01*
X55874967Y-81550438D02*
X54922586Y-81550438D01*
X54922586Y-81550438D02*
X55172586Y-79550438D01*
X55172586Y-79550438D02*
X56124967Y-79550438D01*
X56648777Y-81455200D02*
X56922586Y-81550438D01*
X56922586Y-81550438D02*
X57398777Y-81550438D01*
X57398777Y-81550438D02*
X57601158Y-81455200D01*
X57601158Y-81455200D02*
X57708301Y-81359961D01*
X57708301Y-81359961D02*
X57827348Y-81169485D01*
X57827348Y-81169485D02*
X57851158Y-80979009D01*
X57851158Y-80979009D02*
X57779729Y-80788533D01*
X57779729Y-80788533D02*
X57696396Y-80693295D01*
X57696396Y-80693295D02*
X57517825Y-80598057D01*
X57517825Y-80598057D02*
X57148777Y-80502819D01*
X57148777Y-80502819D02*
X56970205Y-80407580D01*
X56970205Y-80407580D02*
X56886872Y-80312342D01*
X56886872Y-80312342D02*
X56815444Y-80121866D01*
X56815444Y-80121866D02*
X56839253Y-79931390D01*
X56839253Y-79931390D02*
X56958301Y-79740914D01*
X56958301Y-79740914D02*
X57065444Y-79645676D01*
X57065444Y-79645676D02*
X57267825Y-79550438D01*
X57267825Y-79550438D02*
X57744015Y-79550438D01*
X57744015Y-79550438D02*
X58017825Y-79645676D01*
X58636872Y-81550438D02*
X58886872Y-79550438D01*
X58886872Y-79550438D02*
X59648777Y-79550438D01*
X59648777Y-79550438D02*
X59827348Y-79645676D01*
X59827348Y-79645676D02*
X59910682Y-79740914D01*
X59910682Y-79740914D02*
X59982110Y-79931390D01*
X59982110Y-79931390D02*
X59946396Y-80217104D01*
X59946396Y-80217104D02*
X59827348Y-80407580D01*
X59827348Y-80407580D02*
X59720206Y-80502819D01*
X59720206Y-80502819D02*
X59517825Y-80598057D01*
X59517825Y-80598057D02*
X58755920Y-80598057D01*
X60696396Y-79550438D02*
X61934491Y-79550438D01*
X61934491Y-79550438D02*
X61172587Y-80312342D01*
X61172587Y-80312342D02*
X61458301Y-80312342D01*
X61458301Y-80312342D02*
X61636872Y-80407580D01*
X61636872Y-80407580D02*
X61720206Y-80502819D01*
X61720206Y-80502819D02*
X61791634Y-80693295D01*
X61791634Y-80693295D02*
X61732110Y-81169485D01*
X61732110Y-81169485D02*
X61613063Y-81359961D01*
X61613063Y-81359961D02*
X61505920Y-81455200D01*
X61505920Y-81455200D02*
X61303539Y-81550438D01*
X61303539Y-81550438D02*
X60732110Y-81550438D01*
X60732110Y-81550438D02*
X60553539Y-81455200D01*
X60553539Y-81455200D02*
X60470206Y-81359961D01*
X62672587Y-79740914D02*
X62779729Y-79645676D01*
X62779729Y-79645676D02*
X62982110Y-79550438D01*
X62982110Y-79550438D02*
X63458301Y-79550438D01*
X63458301Y-79550438D02*
X63636872Y-79645676D01*
X63636872Y-79645676D02*
X63720206Y-79740914D01*
X63720206Y-79740914D02*
X63791634Y-79931390D01*
X63791634Y-79931390D02*
X63767825Y-80121866D01*
X63767825Y-80121866D02*
X63636872Y-80407580D01*
X63636872Y-80407580D02*
X62351158Y-81550438D01*
X62351158Y-81550438D02*
X63589253Y-81550438D01*
X67113063Y-81550438D02*
X66565444Y-80598057D01*
X65970206Y-81550438D02*
X66220206Y-79550438D01*
X66220206Y-79550438D02*
X66982111Y-79550438D01*
X66982111Y-79550438D02*
X67160682Y-79645676D01*
X67160682Y-79645676D02*
X67244016Y-79740914D01*
X67244016Y-79740914D02*
X67315444Y-79931390D01*
X67315444Y-79931390D02*
X67279730Y-80217104D01*
X67279730Y-80217104D02*
X67160682Y-80407580D01*
X67160682Y-80407580D02*
X67053540Y-80502819D01*
X67053540Y-80502819D02*
X66851159Y-80598057D01*
X66851159Y-80598057D02*
X66089254Y-80598057D01*
X69136873Y-81359961D02*
X69029730Y-81455200D01*
X69029730Y-81455200D02*
X68732111Y-81550438D01*
X68732111Y-81550438D02*
X68541635Y-81550438D01*
X68541635Y-81550438D02*
X68267825Y-81455200D01*
X68267825Y-81455200D02*
X68101159Y-81264723D01*
X68101159Y-81264723D02*
X68029730Y-81074247D01*
X68029730Y-81074247D02*
X67982111Y-80693295D01*
X67982111Y-80693295D02*
X68017825Y-80407580D01*
X68017825Y-80407580D02*
X68160682Y-80026628D01*
X68160682Y-80026628D02*
X68279730Y-79836152D01*
X68279730Y-79836152D02*
X68494016Y-79645676D01*
X68494016Y-79645676D02*
X68791635Y-79550438D01*
X68791635Y-79550438D02*
X68982111Y-79550438D01*
X68982111Y-79550438D02*
X69255921Y-79645676D01*
X69255921Y-79645676D02*
X69339254Y-79740914D01*
D10*
D11*
X46293826Y-76946414D02*
X45793826Y-76946414D01*
X45793826Y-77732128D02*
X45793826Y-76232128D01*
X45793826Y-76232128D02*
X46508112Y-76232128D01*
X47079540Y-77732128D02*
X47079540Y-76732128D01*
X47079540Y-76232128D02*
X47008112Y-76303557D01*
X47008112Y-76303557D02*
X47079540Y-76374985D01*
X47079540Y-76374985D02*
X47150969Y-76303557D01*
X47150969Y-76303557D02*
X47079540Y-76232128D01*
X47079540Y-76232128D02*
X47079540Y-76374985D01*
X48008112Y-77732128D02*
X47865255Y-77660700D01*
X47865255Y-77660700D02*
X47793826Y-77517842D01*
X47793826Y-77517842D02*
X47793826Y-76232128D01*
X49150969Y-77660700D02*
X49008112Y-77732128D01*
X49008112Y-77732128D02*
X48722398Y-77732128D01*
X48722398Y-77732128D02*
X48579540Y-77660700D01*
X48579540Y-77660700D02*
X48508112Y-77517842D01*
X48508112Y-77517842D02*
X48508112Y-76946414D01*
X48508112Y-76946414D02*
X48579540Y-76803557D01*
X48579540Y-76803557D02*
X48722398Y-76732128D01*
X48722398Y-76732128D02*
X49008112Y-76732128D01*
X49008112Y-76732128D02*
X49150969Y-76803557D01*
X49150969Y-76803557D02*
X49222398Y-76946414D01*
X49222398Y-76946414D02*
X49222398Y-77089271D01*
X49222398Y-77089271D02*
X48508112Y-77232128D01*
X49865254Y-77589271D02*
X49936683Y-77660700D01*
X49936683Y-77660700D02*
X49865254Y-77732128D01*
X49865254Y-77732128D02*
X49793826Y-77660700D01*
X49793826Y-77660700D02*
X49865254Y-77589271D01*
X49865254Y-77589271D02*
X49865254Y-77732128D01*
X49865254Y-76803557D02*
X49936683Y-76874985D01*
X49936683Y-76874985D02*
X49865254Y-76946414D01*
X49865254Y-76946414D02*
X49793826Y-76874985D01*
X49793826Y-76874985D02*
X49865254Y-76803557D01*
X49865254Y-76803557D02*
X49865254Y-76946414D01*
X51722397Y-76946414D02*
X52222397Y-76946414D01*
X52436683Y-77732128D02*
X51722397Y-77732128D01*
X51722397Y-77732128D02*
X51722397Y-76232128D01*
X51722397Y-76232128D02*
X52436683Y-76232128D01*
X53008112Y-77660700D02*
X53222398Y-77732128D01*
X53222398Y-77732128D02*
X53579540Y-77732128D01*
X53579540Y-77732128D02*
X53722398Y-77660700D01*
X53722398Y-77660700D02*
X53793826Y-77589271D01*
X53793826Y-77589271D02*
X53865255Y-77446414D01*
X53865255Y-77446414D02*
X53865255Y-77303557D01*
X53865255Y-77303557D02*
X53793826Y-77160700D01*
X53793826Y-77160700D02*
X53722398Y-77089271D01*
X53722398Y-77089271D02*
X53579540Y-77017842D01*
X53579540Y-77017842D02*
X53293826Y-76946414D01*
X53293826Y-76946414D02*
X53150969Y-76874985D01*
X53150969Y-76874985D02*
X53079540Y-76803557D01*
X53079540Y-76803557D02*
X53008112Y-76660700D01*
X53008112Y-76660700D02*
X53008112Y-76517842D01*
X53008112Y-76517842D02*
X53079540Y-76374985D01*
X53079540Y-76374985D02*
X53150969Y-76303557D01*
X53150969Y-76303557D02*
X53293826Y-76232128D01*
X53293826Y-76232128D02*
X53650969Y-76232128D01*
X53650969Y-76232128D02*
X53865255Y-76303557D01*
X54508111Y-77732128D02*
X54508111Y-76232128D01*
X54508111Y-76232128D02*
X55079540Y-76232128D01*
X55079540Y-76232128D02*
X55222397Y-76303557D01*
X55222397Y-76303557D02*
X55293826Y-76374985D01*
X55293826Y-76374985D02*
X55365254Y-76517842D01*
X55365254Y-76517842D02*
X55365254Y-76732128D01*
X55365254Y-76732128D02*
X55293826Y-76874985D01*
X55293826Y-76874985D02*
X55222397Y-76946414D01*
X55222397Y-76946414D02*
X55079540Y-77017842D01*
X55079540Y-77017842D02*
X54508111Y-77017842D01*
X55865254Y-76232128D02*
X56793826Y-76232128D01*
X56793826Y-76232128D02*
X56293826Y-76803557D01*
X56293826Y-76803557D02*
X56508111Y-76803557D01*
X56508111Y-76803557D02*
X56650969Y-76874985D01*
X56650969Y-76874985D02*
X56722397Y-76946414D01*
X56722397Y-76946414D02*
X56793826Y-77089271D01*
X56793826Y-77089271D02*
X56793826Y-77446414D01*
X56793826Y-77446414D02*
X56722397Y-77589271D01*
X56722397Y-77589271D02*
X56650969Y-77660700D01*
X56650969Y-77660700D02*
X56508111Y-77732128D01*
X56508111Y-77732128D02*
X56079540Y-77732128D01*
X56079540Y-77732128D02*
X55936683Y-77660700D01*
X55936683Y-77660700D02*
X55865254Y-77589271D01*
X57365254Y-76374985D02*
X57436682Y-76303557D01*
X57436682Y-76303557D02*
X57579540Y-76232128D01*
X57579540Y-76232128D02*
X57936682Y-76232128D01*
X57936682Y-76232128D02*
X58079540Y-76303557D01*
X58079540Y-76303557D02*
X58150968Y-76374985D01*
X58150968Y-76374985D02*
X58222397Y-76517842D01*
X58222397Y-76517842D02*
X58222397Y-76660700D01*
X58222397Y-76660700D02*
X58150968Y-76874985D01*
X58150968Y-76874985D02*
X57293825Y-77732128D01*
X57293825Y-77732128D02*
X58222397Y-77732128D01*
X58865253Y-77160700D02*
X60008111Y-77160700D01*
X61579539Y-77732128D02*
X61079539Y-77017842D01*
X60722396Y-77732128D02*
X60722396Y-76232128D01*
X60722396Y-76232128D02*
X61293825Y-76232128D01*
X61293825Y-76232128D02*
X61436682Y-76303557D01*
X61436682Y-76303557D02*
X61508111Y-76374985D01*
X61508111Y-76374985D02*
X61579539Y-76517842D01*
X61579539Y-76517842D02*
X61579539Y-76732128D01*
X61579539Y-76732128D02*
X61508111Y-76874985D01*
X61508111Y-76874985D02*
X61436682Y-76946414D01*
X61436682Y-76946414D02*
X61293825Y-77017842D01*
X61293825Y-77017842D02*
X60722396Y-77017842D01*
X63079539Y-77589271D02*
X63008111Y-77660700D01*
X63008111Y-77660700D02*
X62793825Y-77732128D01*
X62793825Y-77732128D02*
X62650968Y-77732128D01*
X62650968Y-77732128D02*
X62436682Y-77660700D01*
X62436682Y-77660700D02*
X62293825Y-77517842D01*
X62293825Y-77517842D02*
X62222396Y-77374985D01*
X62222396Y-77374985D02*
X62150968Y-77089271D01*
X62150968Y-77089271D02*
X62150968Y-76874985D01*
X62150968Y-76874985D02*
X62222396Y-76589271D01*
X62222396Y-76589271D02*
X62293825Y-76446414D01*
X62293825Y-76446414D02*
X62436682Y-76303557D01*
X62436682Y-76303557D02*
X62650968Y-76232128D01*
X62650968Y-76232128D02*
X62793825Y-76232128D01*
X62793825Y-76232128D02*
X63008111Y-76303557D01*
X63008111Y-76303557D02*
X63079539Y-76374985D01*
X63365254Y-77874985D02*
X64508111Y-77874985D01*
X65722396Y-77732128D02*
X65222396Y-77017842D01*
X64865253Y-77732128D02*
X64865253Y-76232128D01*
X64865253Y-76232128D02*
X65436682Y-76232128D01*
X65436682Y-76232128D02*
X65579539Y-76303557D01*
X65579539Y-76303557D02*
X65650968Y-76374985D01*
X65650968Y-76374985D02*
X65722396Y-76517842D01*
X65722396Y-76517842D02*
X65722396Y-76732128D01*
X65722396Y-76732128D02*
X65650968Y-76874985D01*
X65650968Y-76874985D02*
X65579539Y-76946414D01*
X65579539Y-76946414D02*
X65436682Y-77017842D01*
X65436682Y-77017842D02*
X64865253Y-77017842D01*
X66650968Y-76232128D02*
X66793825Y-76232128D01*
X66793825Y-76232128D02*
X66936682Y-76303557D01*
X66936682Y-76303557D02*
X67008111Y-76374985D01*
X67008111Y-76374985D02*
X67079539Y-76517842D01*
X67079539Y-76517842D02*
X67150968Y-76803557D01*
X67150968Y-76803557D02*
X67150968Y-77160700D01*
X67150968Y-77160700D02*
X67079539Y-77446414D01*
X67079539Y-77446414D02*
X67008111Y-77589271D01*
X67008111Y-77589271D02*
X66936682Y-77660700D01*
X66936682Y-77660700D02*
X66793825Y-77732128D01*
X66793825Y-77732128D02*
X66650968Y-77732128D01*
X66650968Y-77732128D02*
X66508111Y-77660700D01*
X66508111Y-77660700D02*
X66436682Y-77589271D01*
X66436682Y-77589271D02*
X66365253Y-77446414D01*
X66365253Y-77446414D02*
X66293825Y-77160700D01*
X66293825Y-77160700D02*
X66293825Y-76803557D01*
X66293825Y-76803557D02*
X66365253Y-76517842D01*
X66365253Y-76517842D02*
X66436682Y-76374985D01*
X66436682Y-76374985D02*
X66508111Y-76303557D01*
X66508111Y-76303557D02*
X66650968Y-76232128D01*
X67793824Y-77589271D02*
X67865253Y-77660700D01*
X67865253Y-77660700D02*
X67793824Y-77732128D01*
X67793824Y-77732128D02*
X67722396Y-77660700D01*
X67722396Y-77660700D02*
X67793824Y-77589271D01*
X67793824Y-77589271D02*
X67793824Y-77732128D01*
X68508110Y-77732128D02*
X68508110Y-76232128D01*
X68650968Y-77160700D02*
X69079539Y-77732128D01*
X69079539Y-76732128D02*
X68508110Y-77303557D01*
X69722396Y-77732128D02*
X69722396Y-76732128D01*
X69722396Y-76232128D02*
X69650968Y-76303557D01*
X69650968Y-76303557D02*
X69722396Y-76374985D01*
X69722396Y-76374985D02*
X69793825Y-76303557D01*
X69793825Y-76303557D02*
X69722396Y-76232128D01*
X69722396Y-76232128D02*
X69722396Y-76374985D01*
X71079540Y-77660700D02*
X70936682Y-77732128D01*
X70936682Y-77732128D02*
X70650968Y-77732128D01*
X70650968Y-77732128D02*
X70508111Y-77660700D01*
X70508111Y-77660700D02*
X70436682Y-77589271D01*
X70436682Y-77589271D02*
X70365254Y-77446414D01*
X70365254Y-77446414D02*
X70365254Y-77017842D01*
X70365254Y-77017842D02*
X70436682Y-76874985D01*
X70436682Y-76874985D02*
X70508111Y-76803557D01*
X70508111Y-76803557D02*
X70650968Y-76732128D01*
X70650968Y-76732128D02*
X70936682Y-76732128D01*
X70936682Y-76732128D02*
X71079540Y-76803557D01*
X72365254Y-77732128D02*
X72365254Y-76946414D01*
X72365254Y-76946414D02*
X72293825Y-76803557D01*
X72293825Y-76803557D02*
X72150968Y-76732128D01*
X72150968Y-76732128D02*
X71865254Y-76732128D01*
X71865254Y-76732128D02*
X71722396Y-76803557D01*
X72365254Y-77660700D02*
X72222396Y-77732128D01*
X72222396Y-77732128D02*
X71865254Y-77732128D01*
X71865254Y-77732128D02*
X71722396Y-77660700D01*
X71722396Y-77660700D02*
X71650968Y-77517842D01*
X71650968Y-77517842D02*
X71650968Y-77374985D01*
X71650968Y-77374985D02*
X71722396Y-77232128D01*
X71722396Y-77232128D02*
X71865254Y-77160700D01*
X71865254Y-77160700D02*
X72222396Y-77160700D01*
X72222396Y-77160700D02*
X72365254Y-77089271D01*
X73722397Y-77732128D02*
X73722397Y-76232128D01*
X73722397Y-77660700D02*
X73579539Y-77732128D01*
X73579539Y-77732128D02*
X73293825Y-77732128D01*
X73293825Y-77732128D02*
X73150968Y-77660700D01*
X73150968Y-77660700D02*
X73079539Y-77589271D01*
X73079539Y-77589271D02*
X73008111Y-77446414D01*
X73008111Y-77446414D02*
X73008111Y-77017842D01*
X73008111Y-77017842D02*
X73079539Y-76874985D01*
X73079539Y-76874985D02*
X73150968Y-76803557D01*
X73150968Y-76803557D02*
X73293825Y-76732128D01*
X73293825Y-76732128D02*
X73579539Y-76732128D01*
X73579539Y-76732128D02*
X73722397Y-76803557D01*
X74079540Y-77874985D02*
X75222397Y-77874985D01*
X75579539Y-76732128D02*
X75579539Y-78232128D01*
X75579539Y-76803557D02*
X75722397Y-76732128D01*
X75722397Y-76732128D02*
X76008111Y-76732128D01*
X76008111Y-76732128D02*
X76150968Y-76803557D01*
X76150968Y-76803557D02*
X76222397Y-76874985D01*
X76222397Y-76874985D02*
X76293825Y-77017842D01*
X76293825Y-77017842D02*
X76293825Y-77446414D01*
X76293825Y-77446414D02*
X76222397Y-77589271D01*
X76222397Y-77589271D02*
X76150968Y-77660700D01*
X76150968Y-77660700D02*
X76008111Y-77732128D01*
X76008111Y-77732128D02*
X75722397Y-77732128D01*
X75722397Y-77732128D02*
X75579539Y-77660700D01*
X77579540Y-77660700D02*
X77436682Y-77732128D01*
X77436682Y-77732128D02*
X77150968Y-77732128D01*
X77150968Y-77732128D02*
X77008111Y-77660700D01*
X77008111Y-77660700D02*
X76936682Y-77589271D01*
X76936682Y-77589271D02*
X76865254Y-77446414D01*
X76865254Y-77446414D02*
X76865254Y-77017842D01*
X76865254Y-77017842D02*
X76936682Y-76874985D01*
X76936682Y-76874985D02*
X77008111Y-76803557D01*
X77008111Y-76803557D02*
X77150968Y-76732128D01*
X77150968Y-76732128D02*
X77436682Y-76732128D01*
X77436682Y-76732128D02*
X77579540Y-76803557D01*
X78222396Y-77732128D02*
X78222396Y-76232128D01*
X78222396Y-76803557D02*
X78365254Y-76732128D01*
X78365254Y-76732128D02*
X78650968Y-76732128D01*
X78650968Y-76732128D02*
X78793825Y-76803557D01*
X78793825Y-76803557D02*
X78865254Y-76874985D01*
X78865254Y-76874985D02*
X78936682Y-77017842D01*
X78936682Y-77017842D02*
X78936682Y-77446414D01*
X78936682Y-77446414D02*
X78865254Y-77589271D01*
X78865254Y-77589271D02*
X78793825Y-77660700D01*
X78793825Y-77660700D02*
X78650968Y-77732128D01*
X78650968Y-77732128D02*
X78365254Y-77732128D01*
X78365254Y-77732128D02*
X78222396Y-77660700D01*
D10*
D11*
X44338000Y-72846000D02*
X152338000Y-72846000D01*
D10*
D11*
X45722398Y-74960700D02*
X45936684Y-75032128D01*
X45936684Y-75032128D02*
X46293826Y-75032128D01*
X46293826Y-75032128D02*
X46436684Y-74960700D01*
X46436684Y-74960700D02*
X46508112Y-74889271D01*
X46508112Y-74889271D02*
X46579541Y-74746414D01*
X46579541Y-74746414D02*
X46579541Y-74603557D01*
X46579541Y-74603557D02*
X46508112Y-74460700D01*
X46508112Y-74460700D02*
X46436684Y-74389271D01*
X46436684Y-74389271D02*
X46293826Y-74317842D01*
X46293826Y-74317842D02*
X46008112Y-74246414D01*
X46008112Y-74246414D02*
X45865255Y-74174985D01*
X45865255Y-74174985D02*
X45793826Y-74103557D01*
X45793826Y-74103557D02*
X45722398Y-73960700D01*
X45722398Y-73960700D02*
X45722398Y-73817842D01*
X45722398Y-73817842D02*
X45793826Y-73674985D01*
X45793826Y-73674985D02*
X45865255Y-73603557D01*
X45865255Y-73603557D02*
X46008112Y-73532128D01*
X46008112Y-73532128D02*
X46365255Y-73532128D01*
X46365255Y-73532128D02*
X46579541Y-73603557D01*
X47222397Y-75032128D02*
X47222397Y-73532128D01*
X47865255Y-75032128D02*
X47865255Y-74246414D01*
X47865255Y-74246414D02*
X47793826Y-74103557D01*
X47793826Y-74103557D02*
X47650969Y-74032128D01*
X47650969Y-74032128D02*
X47436683Y-74032128D01*
X47436683Y-74032128D02*
X47293826Y-74103557D01*
X47293826Y-74103557D02*
X47222397Y-74174985D01*
X49150969Y-74960700D02*
X49008112Y-75032128D01*
X49008112Y-75032128D02*
X48722398Y-75032128D01*
X48722398Y-75032128D02*
X48579540Y-74960700D01*
X48579540Y-74960700D02*
X48508112Y-74817842D01*
X48508112Y-74817842D02*
X48508112Y-74246414D01*
X48508112Y-74246414D02*
X48579540Y-74103557D01*
X48579540Y-74103557D02*
X48722398Y-74032128D01*
X48722398Y-74032128D02*
X49008112Y-74032128D01*
X49008112Y-74032128D02*
X49150969Y-74103557D01*
X49150969Y-74103557D02*
X49222398Y-74246414D01*
X49222398Y-74246414D02*
X49222398Y-74389271D01*
X49222398Y-74389271D02*
X48508112Y-74532128D01*
X50436683Y-74960700D02*
X50293826Y-75032128D01*
X50293826Y-75032128D02*
X50008112Y-75032128D01*
X50008112Y-75032128D02*
X49865254Y-74960700D01*
X49865254Y-74960700D02*
X49793826Y-74817842D01*
X49793826Y-74817842D02*
X49793826Y-74246414D01*
X49793826Y-74246414D02*
X49865254Y-74103557D01*
X49865254Y-74103557D02*
X50008112Y-74032128D01*
X50008112Y-74032128D02*
X50293826Y-74032128D01*
X50293826Y-74032128D02*
X50436683Y-74103557D01*
X50436683Y-74103557D02*
X50508112Y-74246414D01*
X50508112Y-74246414D02*
X50508112Y-74389271D01*
X50508112Y-74389271D02*
X49793826Y-74532128D01*
X50936683Y-74032128D02*
X51508111Y-74032128D01*
X51150968Y-73532128D02*
X51150968Y-74817842D01*
X51150968Y-74817842D02*
X51222397Y-74960700D01*
X51222397Y-74960700D02*
X51365254Y-75032128D01*
X51365254Y-75032128D02*
X51508111Y-75032128D01*
X52008111Y-74889271D02*
X52079540Y-74960700D01*
X52079540Y-74960700D02*
X52008111Y-75032128D01*
X52008111Y-75032128D02*
X51936683Y-74960700D01*
X51936683Y-74960700D02*
X52008111Y-74889271D01*
X52008111Y-74889271D02*
X52008111Y-75032128D01*
X52008111Y-74103557D02*
X52079540Y-74174985D01*
X52079540Y-74174985D02*
X52008111Y-74246414D01*
X52008111Y-74246414D02*
X51936683Y-74174985D01*
X51936683Y-74174985D02*
X52008111Y-74103557D01*
X52008111Y-74103557D02*
X52008111Y-74246414D01*
D10*
D12*
X45749653Y-70524328D02*
X46106796Y-72024328D01*
X46106796Y-72024328D02*
X46392510Y-70952900D01*
X46392510Y-70952900D02*
X46678225Y-72024328D01*
X46678225Y-72024328D02*
X47035368Y-70524328D01*
X47606796Y-72024328D02*
X47606796Y-71024328D01*
X47606796Y-70524328D02*
X47535368Y-70595757D01*
X47535368Y-70595757D02*
X47606796Y-70667185D01*
X47606796Y-70667185D02*
X47678225Y-70595757D01*
X47678225Y-70595757D02*
X47606796Y-70524328D01*
X47606796Y-70524328D02*
X47606796Y-70667185D01*
X48321082Y-72024328D02*
X48321082Y-71024328D01*
X48321082Y-71310042D02*
X48392511Y-71167185D01*
X48392511Y-71167185D02*
X48463940Y-71095757D01*
X48463940Y-71095757D02*
X48606797Y-71024328D01*
X48606797Y-71024328D02*
X48749654Y-71024328D01*
X49821082Y-71952900D02*
X49678225Y-72024328D01*
X49678225Y-72024328D02*
X49392511Y-72024328D01*
X49392511Y-72024328D02*
X49249653Y-71952900D01*
X49249653Y-71952900D02*
X49178225Y-71810042D01*
X49178225Y-71810042D02*
X49178225Y-71238614D01*
X49178225Y-71238614D02*
X49249653Y-71095757D01*
X49249653Y-71095757D02*
X49392511Y-71024328D01*
X49392511Y-71024328D02*
X49678225Y-71024328D01*
X49678225Y-71024328D02*
X49821082Y-71095757D01*
X49821082Y-71095757D02*
X49892511Y-71238614D01*
X49892511Y-71238614D02*
X49892511Y-71381471D01*
X49892511Y-71381471D02*
X49178225Y-71524328D01*
X50749653Y-72024328D02*
X50606796Y-71952900D01*
X50606796Y-71952900D02*
X50535367Y-71810042D01*
X50535367Y-71810042D02*
X50535367Y-70524328D01*
X51892510Y-71952900D02*
X51749653Y-72024328D01*
X51749653Y-72024328D02*
X51463939Y-72024328D01*
X51463939Y-72024328D02*
X51321081Y-71952900D01*
X51321081Y-71952900D02*
X51249653Y-71810042D01*
X51249653Y-71810042D02*
X51249653Y-71238614D01*
X51249653Y-71238614D02*
X51321081Y-71095757D01*
X51321081Y-71095757D02*
X51463939Y-71024328D01*
X51463939Y-71024328D02*
X51749653Y-71024328D01*
X51749653Y-71024328D02*
X51892510Y-71095757D01*
X51892510Y-71095757D02*
X51963939Y-71238614D01*
X51963939Y-71238614D02*
X51963939Y-71381471D01*
X51963939Y-71381471D02*
X51249653Y-71524328D01*
X52535367Y-71952900D02*
X52678224Y-72024328D01*
X52678224Y-72024328D02*
X52963938Y-72024328D01*
X52963938Y-72024328D02*
X53106795Y-71952900D01*
X53106795Y-71952900D02*
X53178224Y-71810042D01*
X53178224Y-71810042D02*
X53178224Y-71738614D01*
X53178224Y-71738614D02*
X53106795Y-71595757D01*
X53106795Y-71595757D02*
X52963938Y-71524328D01*
X52963938Y-71524328D02*
X52749653Y-71524328D01*
X52749653Y-71524328D02*
X52606795Y-71452900D01*
X52606795Y-71452900D02*
X52535367Y-71310042D01*
X52535367Y-71310042D02*
X52535367Y-71238614D01*
X52535367Y-71238614D02*
X52606795Y-71095757D01*
X52606795Y-71095757D02*
X52749653Y-71024328D01*
X52749653Y-71024328D02*
X52963938Y-71024328D01*
X52963938Y-71024328D02*
X53106795Y-71095757D01*
X53749653Y-71952900D02*
X53892510Y-72024328D01*
X53892510Y-72024328D02*
X54178224Y-72024328D01*
X54178224Y-72024328D02*
X54321081Y-71952900D01*
X54321081Y-71952900D02*
X54392510Y-71810042D01*
X54392510Y-71810042D02*
X54392510Y-71738614D01*
X54392510Y-71738614D02*
X54321081Y-71595757D01*
X54321081Y-71595757D02*
X54178224Y-71524328D01*
X54178224Y-71524328D02*
X53963939Y-71524328D01*
X53963939Y-71524328D02*
X53821081Y-71452900D01*
X53821081Y-71452900D02*
X53749653Y-71310042D01*
X53749653Y-71310042D02*
X53749653Y-71238614D01*
X53749653Y-71238614D02*
X53821081Y-71095757D01*
X53821081Y-71095757D02*
X53963939Y-71024328D01*
X53963939Y-71024328D02*
X54178224Y-71024328D01*
X54178224Y-71024328D02*
X54321081Y-71095757D01*
X56821082Y-72024328D02*
X56821082Y-71238614D01*
X56821082Y-71238614D02*
X56749653Y-71095757D01*
X56749653Y-71095757D02*
X56606796Y-71024328D01*
X56606796Y-71024328D02*
X56321082Y-71024328D01*
X56321082Y-71024328D02*
X56178224Y-71095757D01*
X56821082Y-71952900D02*
X56678224Y-72024328D01*
X56678224Y-72024328D02*
X56321082Y-72024328D01*
X56321082Y-72024328D02*
X56178224Y-71952900D01*
X56178224Y-71952900D02*
X56106796Y-71810042D01*
X56106796Y-71810042D02*
X56106796Y-71667185D01*
X56106796Y-71667185D02*
X56178224Y-71524328D01*
X56178224Y-71524328D02*
X56321082Y-71452900D01*
X56321082Y-71452900D02*
X56678224Y-71452900D01*
X56678224Y-71452900D02*
X56821082Y-71381471D01*
X57535367Y-71024328D02*
X57535367Y-72024328D01*
X57535367Y-71167185D02*
X57606796Y-71095757D01*
X57606796Y-71095757D02*
X57749653Y-71024328D01*
X57749653Y-71024328D02*
X57963939Y-71024328D01*
X57963939Y-71024328D02*
X58106796Y-71095757D01*
X58106796Y-71095757D02*
X58178225Y-71238614D01*
X58178225Y-71238614D02*
X58178225Y-72024328D01*
X59535368Y-72024328D02*
X59535368Y-70524328D01*
X59535368Y-71952900D02*
X59392510Y-72024328D01*
X59392510Y-72024328D02*
X59106796Y-72024328D01*
X59106796Y-72024328D02*
X58963939Y-71952900D01*
X58963939Y-71952900D02*
X58892510Y-71881471D01*
X58892510Y-71881471D02*
X58821082Y-71738614D01*
X58821082Y-71738614D02*
X58821082Y-71310042D01*
X58821082Y-71310042D02*
X58892510Y-71167185D01*
X58892510Y-71167185D02*
X58963939Y-71095757D01*
X58963939Y-71095757D02*
X59106796Y-71024328D01*
X59106796Y-71024328D02*
X59392510Y-71024328D01*
X59392510Y-71024328D02*
X59535368Y-71095757D01*
X62249653Y-71881471D02*
X62178225Y-71952900D01*
X62178225Y-71952900D02*
X61963939Y-72024328D01*
X61963939Y-72024328D02*
X61821082Y-72024328D01*
X61821082Y-72024328D02*
X61606796Y-71952900D01*
X61606796Y-71952900D02*
X61463939Y-71810042D01*
X61463939Y-71810042D02*
X61392510Y-71667185D01*
X61392510Y-71667185D02*
X61321082Y-71381471D01*
X61321082Y-71381471D02*
X61321082Y-71167185D01*
X61321082Y-71167185D02*
X61392510Y-70881471D01*
X61392510Y-70881471D02*
X61463939Y-70738614D01*
X61463939Y-70738614D02*
X61606796Y-70595757D01*
X61606796Y-70595757D02*
X61821082Y-70524328D01*
X61821082Y-70524328D02*
X61963939Y-70524328D01*
X61963939Y-70524328D02*
X62178225Y-70595757D01*
X62178225Y-70595757D02*
X62249653Y-70667185D01*
X63106796Y-72024328D02*
X62963939Y-71952900D01*
X62963939Y-71952900D02*
X62892510Y-71881471D01*
X62892510Y-71881471D02*
X62821082Y-71738614D01*
X62821082Y-71738614D02*
X62821082Y-71310042D01*
X62821082Y-71310042D02*
X62892510Y-71167185D01*
X62892510Y-71167185D02*
X62963939Y-71095757D01*
X62963939Y-71095757D02*
X63106796Y-71024328D01*
X63106796Y-71024328D02*
X63321082Y-71024328D01*
X63321082Y-71024328D02*
X63463939Y-71095757D01*
X63463939Y-71095757D02*
X63535368Y-71167185D01*
X63535368Y-71167185D02*
X63606796Y-71310042D01*
X63606796Y-71310042D02*
X63606796Y-71738614D01*
X63606796Y-71738614D02*
X63535368Y-71881471D01*
X63535368Y-71881471D02*
X63463939Y-71952900D01*
X63463939Y-71952900D02*
X63321082Y-72024328D01*
X63321082Y-72024328D02*
X63106796Y-72024328D01*
X64249653Y-71024328D02*
X64249653Y-72024328D01*
X64249653Y-71167185D02*
X64321082Y-71095757D01*
X64321082Y-71095757D02*
X64463939Y-71024328D01*
X64463939Y-71024328D02*
X64678225Y-71024328D01*
X64678225Y-71024328D02*
X64821082Y-71095757D01*
X64821082Y-71095757D02*
X64892511Y-71238614D01*
X64892511Y-71238614D02*
X64892511Y-72024328D01*
X65392511Y-71024328D02*
X65963939Y-71024328D01*
X65606796Y-70524328D02*
X65606796Y-71810042D01*
X65606796Y-71810042D02*
X65678225Y-71952900D01*
X65678225Y-71952900D02*
X65821082Y-72024328D01*
X65821082Y-72024328D02*
X65963939Y-72024328D01*
X66463939Y-72024328D02*
X66463939Y-71024328D01*
X66463939Y-71310042D02*
X66535368Y-71167185D01*
X66535368Y-71167185D02*
X66606797Y-71095757D01*
X66606797Y-71095757D02*
X66749654Y-71024328D01*
X66749654Y-71024328D02*
X66892511Y-71024328D01*
X67606796Y-72024328D02*
X67463939Y-71952900D01*
X67463939Y-71952900D02*
X67392510Y-71881471D01*
X67392510Y-71881471D02*
X67321082Y-71738614D01*
X67321082Y-71738614D02*
X67321082Y-71310042D01*
X67321082Y-71310042D02*
X67392510Y-71167185D01*
X67392510Y-71167185D02*
X67463939Y-71095757D01*
X67463939Y-71095757D02*
X67606796Y-71024328D01*
X67606796Y-71024328D02*
X67821082Y-71024328D01*
X67821082Y-71024328D02*
X67963939Y-71095757D01*
X67963939Y-71095757D02*
X68035368Y-71167185D01*
X68035368Y-71167185D02*
X68106796Y-71310042D01*
X68106796Y-71310042D02*
X68106796Y-71738614D01*
X68106796Y-71738614D02*
X68035368Y-71881471D01*
X68035368Y-71881471D02*
X67963939Y-71952900D01*
X67963939Y-71952900D02*
X67821082Y-72024328D01*
X67821082Y-72024328D02*
X67606796Y-72024328D01*
X68963939Y-72024328D02*
X68821082Y-71952900D01*
X68821082Y-71952900D02*
X68749653Y-71810042D01*
X68749653Y-71810042D02*
X68749653Y-70524328D01*
X70606796Y-71952900D02*
X70821082Y-72024328D01*
X70821082Y-72024328D02*
X71178224Y-72024328D01*
X71178224Y-72024328D02*
X71321082Y-71952900D01*
X71321082Y-71952900D02*
X71392510Y-71881471D01*
X71392510Y-71881471D02*
X71463939Y-71738614D01*
X71463939Y-71738614D02*
X71463939Y-71595757D01*
X71463939Y-71595757D02*
X71392510Y-71452900D01*
X71392510Y-71452900D02*
X71321082Y-71381471D01*
X71321082Y-71381471D02*
X71178224Y-71310042D01*
X71178224Y-71310042D02*
X70892510Y-71238614D01*
X70892510Y-71238614D02*
X70749653Y-71167185D01*
X70749653Y-71167185D02*
X70678224Y-71095757D01*
X70678224Y-71095757D02*
X70606796Y-70952900D01*
X70606796Y-70952900D02*
X70606796Y-70810042D01*
X70606796Y-70810042D02*
X70678224Y-70667185D01*
X70678224Y-70667185D02*
X70749653Y-70595757D01*
X70749653Y-70595757D02*
X70892510Y-70524328D01*
X70892510Y-70524328D02*
X71249653Y-70524328D01*
X71249653Y-70524328D02*
X71463939Y-70595757D01*
X71963938Y-71024328D02*
X72321081Y-72024328D01*
X72678224Y-71024328D02*
X72321081Y-72024328D01*
X72321081Y-72024328D02*
X72178224Y-72381471D01*
X72178224Y-72381471D02*
X72106795Y-72452900D01*
X72106795Y-72452900D02*
X71963938Y-72524328D01*
X73178224Y-71952900D02*
X73321081Y-72024328D01*
X73321081Y-72024328D02*
X73606795Y-72024328D01*
X73606795Y-72024328D02*
X73749652Y-71952900D01*
X73749652Y-71952900D02*
X73821081Y-71810042D01*
X73821081Y-71810042D02*
X73821081Y-71738614D01*
X73821081Y-71738614D02*
X73749652Y-71595757D01*
X73749652Y-71595757D02*
X73606795Y-71524328D01*
X73606795Y-71524328D02*
X73392510Y-71524328D01*
X73392510Y-71524328D02*
X73249652Y-71452900D01*
X73249652Y-71452900D02*
X73178224Y-71310042D01*
X73178224Y-71310042D02*
X73178224Y-71238614D01*
X73178224Y-71238614D02*
X73249652Y-71095757D01*
X73249652Y-71095757D02*
X73392510Y-71024328D01*
X73392510Y-71024328D02*
X73606795Y-71024328D01*
X73606795Y-71024328D02*
X73749652Y-71095757D01*
X74249653Y-71024328D02*
X74821081Y-71024328D01*
X74463938Y-70524328D02*
X74463938Y-71810042D01*
X74463938Y-71810042D02*
X74535367Y-71952900D01*
X74535367Y-71952900D02*
X74678224Y-72024328D01*
X74678224Y-72024328D02*
X74821081Y-72024328D01*
X75892510Y-71952900D02*
X75749653Y-72024328D01*
X75749653Y-72024328D02*
X75463939Y-72024328D01*
X75463939Y-72024328D02*
X75321081Y-71952900D01*
X75321081Y-71952900D02*
X75249653Y-71810042D01*
X75249653Y-71810042D02*
X75249653Y-71238614D01*
X75249653Y-71238614D02*
X75321081Y-71095757D01*
X75321081Y-71095757D02*
X75463939Y-71024328D01*
X75463939Y-71024328D02*
X75749653Y-71024328D01*
X75749653Y-71024328D02*
X75892510Y-71095757D01*
X75892510Y-71095757D02*
X75963939Y-71238614D01*
X75963939Y-71238614D02*
X75963939Y-71381471D01*
X75963939Y-71381471D02*
X75249653Y-71524328D01*
X76606795Y-72024328D02*
X76606795Y-71024328D01*
X76606795Y-71167185D02*
X76678224Y-71095757D01*
X76678224Y-71095757D02*
X76821081Y-71024328D01*
X76821081Y-71024328D02*
X77035367Y-71024328D01*
X77035367Y-71024328D02*
X77178224Y-71095757D01*
X77178224Y-71095757D02*
X77249653Y-71238614D01*
X77249653Y-71238614D02*
X77249653Y-72024328D01*
X77249653Y-71238614D02*
X77321081Y-71095757D01*
X77321081Y-71095757D02*
X77463938Y-71024328D01*
X77463938Y-71024328D02*
X77678224Y-71024328D01*
X77678224Y-71024328D02*
X77821081Y-71095757D01*
X77821081Y-71095757D02*
X77892510Y-71238614D01*
X77892510Y-71238614D02*
X77892510Y-72024328D01*
X78535367Y-71952900D02*
X78678224Y-72024328D01*
X78678224Y-72024328D02*
X78963938Y-72024328D01*
X78963938Y-72024328D02*
X79106795Y-71952900D01*
X79106795Y-71952900D02*
X79178224Y-71810042D01*
X79178224Y-71810042D02*
X79178224Y-71738614D01*
X79178224Y-71738614D02*
X79106795Y-71595757D01*
X79106795Y-71595757D02*
X78963938Y-71524328D01*
X78963938Y-71524328D02*
X78749653Y-71524328D01*
X78749653Y-71524328D02*
X78606795Y-71452900D01*
X78606795Y-71452900D02*
X78535367Y-71310042D01*
X78535367Y-71310042D02*
X78535367Y-71238614D01*
X78535367Y-71238614D02*
X78606795Y-71095757D01*
X78606795Y-71095757D02*
X78749653Y-71024328D01*
X78749653Y-71024328D02*
X78963938Y-71024328D01*
X78963938Y-71024328D02*
X79106795Y-71095757D01*
X81678224Y-72024328D02*
X80963938Y-72024328D01*
X80963938Y-72024328D02*
X80963938Y-70524328D01*
X82892510Y-72024328D02*
X82178224Y-72024328D01*
X82178224Y-72024328D02*
X82178224Y-70524328D01*
X84249653Y-71881471D02*
X84178225Y-71952900D01*
X84178225Y-71952900D02*
X83963939Y-72024328D01*
X83963939Y-72024328D02*
X83821082Y-72024328D01*
X83821082Y-72024328D02*
X83606796Y-71952900D01*
X83606796Y-71952900D02*
X83463939Y-71810042D01*
X83463939Y-71810042D02*
X83392510Y-71667185D01*
X83392510Y-71667185D02*
X83321082Y-71381471D01*
X83321082Y-71381471D02*
X83321082Y-71167185D01*
X83321082Y-71167185D02*
X83392510Y-70881471D01*
X83392510Y-70881471D02*
X83463939Y-70738614D01*
X83463939Y-70738614D02*
X83606796Y-70595757D01*
X83606796Y-70595757D02*
X83821082Y-70524328D01*
X83821082Y-70524328D02*
X83963939Y-70524328D01*
X83963939Y-70524328D02*
X84178225Y-70595757D01*
X84178225Y-70595757D02*
X84249653Y-70667185D01*
D10*
D11*
X45793826Y-69032128D02*
X45793826Y-67532128D01*
X45793826Y-67532128D02*
X46150969Y-67532128D01*
X46150969Y-67532128D02*
X46365255Y-67603557D01*
X46365255Y-67603557D02*
X46508112Y-67746414D01*
X46508112Y-67746414D02*
X46579541Y-67889271D01*
X46579541Y-67889271D02*
X46650969Y-68174985D01*
X46650969Y-68174985D02*
X46650969Y-68389271D01*
X46650969Y-68389271D02*
X46579541Y-68674985D01*
X46579541Y-68674985D02*
X46508112Y-68817842D01*
X46508112Y-68817842D02*
X46365255Y-68960700D01*
X46365255Y-68960700D02*
X46150969Y-69032128D01*
X46150969Y-69032128D02*
X45793826Y-69032128D01*
X47936684Y-69032128D02*
X47936684Y-68246414D01*
X47936684Y-68246414D02*
X47865255Y-68103557D01*
X47865255Y-68103557D02*
X47722398Y-68032128D01*
X47722398Y-68032128D02*
X47436684Y-68032128D01*
X47436684Y-68032128D02*
X47293826Y-68103557D01*
X47936684Y-68960700D02*
X47793826Y-69032128D01*
X47793826Y-69032128D02*
X47436684Y-69032128D01*
X47436684Y-69032128D02*
X47293826Y-68960700D01*
X47293826Y-68960700D02*
X47222398Y-68817842D01*
X47222398Y-68817842D02*
X47222398Y-68674985D01*
X47222398Y-68674985D02*
X47293826Y-68532128D01*
X47293826Y-68532128D02*
X47436684Y-68460700D01*
X47436684Y-68460700D02*
X47793826Y-68460700D01*
X47793826Y-68460700D02*
X47936684Y-68389271D01*
X48650969Y-68032128D02*
X48650969Y-69032128D01*
X48650969Y-68174985D02*
X48722398Y-68103557D01*
X48722398Y-68103557D02*
X48865255Y-68032128D01*
X48865255Y-68032128D02*
X49079541Y-68032128D01*
X49079541Y-68032128D02*
X49222398Y-68103557D01*
X49222398Y-68103557D02*
X49293827Y-68246414D01*
X49293827Y-68246414D02*
X49293827Y-69032128D01*
X50936684Y-67532128D02*
X51793827Y-67532128D01*
X51365255Y-69032128D02*
X51365255Y-67532128D01*
X52936684Y-69032128D02*
X52936684Y-68246414D01*
X52936684Y-68246414D02*
X52865255Y-68103557D01*
X52865255Y-68103557D02*
X52722398Y-68032128D01*
X52722398Y-68032128D02*
X52436684Y-68032128D01*
X52436684Y-68032128D02*
X52293826Y-68103557D01*
X52936684Y-68960700D02*
X52793826Y-69032128D01*
X52793826Y-69032128D02*
X52436684Y-69032128D01*
X52436684Y-69032128D02*
X52293826Y-68960700D01*
X52293826Y-68960700D02*
X52222398Y-68817842D01*
X52222398Y-68817842D02*
X52222398Y-68674985D01*
X52222398Y-68674985D02*
X52293826Y-68532128D01*
X52293826Y-68532128D02*
X52436684Y-68460700D01*
X52436684Y-68460700D02*
X52793826Y-68460700D01*
X52793826Y-68460700D02*
X52936684Y-68389271D01*
X53436684Y-68032128D02*
X54008112Y-68032128D01*
X53650969Y-67532128D02*
X53650969Y-68817842D01*
X53650969Y-68817842D02*
X53722398Y-68960700D01*
X53722398Y-68960700D02*
X53865255Y-69032128D01*
X53865255Y-69032128D02*
X54008112Y-69032128D01*
X55150970Y-68032128D02*
X55150970Y-69032128D01*
X54508112Y-68032128D02*
X54508112Y-68817842D01*
X54508112Y-68817842D02*
X54579541Y-68960700D01*
X54579541Y-68960700D02*
X54722398Y-69032128D01*
X54722398Y-69032128D02*
X54936684Y-69032128D01*
X54936684Y-69032128D02*
X55079541Y-68960700D01*
X55079541Y-68960700D02*
X55150970Y-68889271D01*
X55865255Y-69032128D02*
X55865255Y-68032128D01*
X55865255Y-68174985D02*
X55936684Y-68103557D01*
X55936684Y-68103557D02*
X56079541Y-68032128D01*
X56079541Y-68032128D02*
X56293827Y-68032128D01*
X56293827Y-68032128D02*
X56436684Y-68103557D01*
X56436684Y-68103557D02*
X56508113Y-68246414D01*
X56508113Y-68246414D02*
X56508113Y-69032128D01*
X56508113Y-68246414D02*
X56579541Y-68103557D01*
X56579541Y-68103557D02*
X56722398Y-68032128D01*
X56722398Y-68032128D02*
X56936684Y-68032128D01*
X56936684Y-68032128D02*
X57079541Y-68103557D01*
X57079541Y-68103557D02*
X57150970Y-68246414D01*
X57150970Y-68246414D02*
X57150970Y-69032128D01*
D10*
D11*
X64338000Y-82846000D02*
X64338000Y-85846000D01*
D10*
D11*
X128338000Y-82846000D02*
X128338000Y-89346000D01*
D14*
%TO.C,G6*%
G36*
X18355620Y24074505D02*
G01*
X18402534Y23952933D01*
X18474221Y23752695D01*
X18563837Y23493066D01*
X18664539Y23193318D01*
X18956025Y22314681D01*
X19936737Y22285752D01*
X20917449Y22256822D01*
X20128985Y21683157D01*
X19340521Y21109492D01*
X19451932Y20786346D01*
X19492277Y20666932D01*
X19572889Y20421656D01*
X19665950Y20132955D01*
X19758400Y19841114D01*
X19826049Y19612862D01*
X19875394Y19418409D01*
X19897008Y19293740D01*
X19886489Y19258862D01*
X19857255Y19278397D01*
X19743325Y19358949D01*
X19564032Y19487968D01*
X19336986Y19652752D01*
X19079801Y19840602D01*
X18340080Y20382509D01*
X17546544Y19806243D01*
X17339581Y19656772D01*
X17103698Y19488689D01*
X16914610Y19356589D01*
X16787830Y19271278D01*
X16738870Y19243566D01*
X16744794Y19276485D01*
X16779981Y19403354D01*
X16841313Y19608202D01*
X16923265Y19872669D01*
X17020308Y20178400D01*
X17315883Y21099647D01*
X17150163Y21230667D01*
X17139279Y21239204D01*
X17018458Y21330990D01*
X16830959Y21470626D01*
X16600300Y21640680D01*
X16350002Y21823720D01*
X15715562Y22285752D01*
X16707464Y22285752D01*
X17699366Y22285752D01*
X18005063Y23208887D01*
X18085001Y23446066D01*
X18179569Y23714956D01*
X18258244Y23925400D01*
X18314525Y24060158D01*
X18341907Y24101989D01*
X18355620Y24074505D01*
G37*
G36*
X29947720Y24051096D02*
G01*
X29993383Y23922003D01*
X30064486Y23715063D01*
X30153677Y23451774D01*
X30253598Y23153633D01*
X30533347Y22314681D01*
X31509968Y22285752D01*
X32486589Y22256822D01*
X31721962Y21693783D01*
X31543775Y21560488D01*
X31310668Y21378977D01*
X31124798Y21225545D01*
X31001807Y21113255D01*
X30957335Y21055168D01*
X30962546Y21025235D01*
X30997605Y20896360D01*
X31060230Y20690017D01*
X31144004Y20427060D01*
X31242509Y20128344D01*
X31299941Y19953561D01*
X31383168Y19685402D01*
X31443481Y19470918D01*
X31475816Y19328640D01*
X31475111Y19277096D01*
X31444148Y19291137D01*
X31330547Y19362371D01*
X31151905Y19483568D01*
X30925102Y19643185D01*
X30667018Y19829680D01*
X29911498Y20382265D01*
X29118129Y19806121D01*
X28911335Y19656667D01*
X28675715Y19488367D01*
X28487029Y19355897D01*
X28360756Y19270100D01*
X28312376Y19241814D01*
X28317313Y19268867D01*
X28350882Y19388878D01*
X28410761Y19587757D01*
X28491314Y19846905D01*
X28586905Y20147719D01*
X28650724Y20349959D01*
X28736181Y20633270D01*
X28801755Y20866528D01*
X28841933Y21029805D01*
X28851203Y21103174D01*
X28828058Y21129760D01*
X28724555Y21218693D01*
X28553524Y21353725D01*
X28331391Y21522007D01*
X28074581Y21710691D01*
X27320575Y22256822D01*
X28305934Y22285752D01*
X29291294Y22314681D01*
X29595603Y23240422D01*
X29668499Y23457329D01*
X29767850Y23735043D01*
X29849104Y23939665D01*
X29907152Y24058629D01*
X29936881Y24079374D01*
X29947720Y24051096D01*
G37*
G36*
X24143101Y16009493D02*
G01*
X24191232Y15889106D01*
X24262618Y15689521D01*
X24350806Y15428956D01*
X24449340Y15125629D01*
X24739750Y14214453D01*
X25722233Y14185524D01*
X26704715Y14156595D01*
X25939844Y13606936D01*
X25766705Y13480234D01*
X25531404Y13299798D01*
X25343441Y13145491D01*
X25218737Y13030578D01*
X25173216Y12968321D01*
X25177980Y12936378D01*
X25212362Y12803480D01*
X25274536Y12593635D01*
X25358095Y12328097D01*
X25456632Y12028116D01*
X25514111Y11853690D01*
X25598342Y11585400D01*
X25660364Y11370802D01*
X25694942Y11228443D01*
X25696844Y11176868D01*
X25665977Y11191702D01*
X25552859Y11263493D01*
X25374247Y11384619D01*
X25146820Y11543698D01*
X24887254Y11729349D01*
X24122626Y12281829D01*
X23562190Y11879433D01*
X23359688Y11733523D01*
X23118870Y11558785D01*
X22912615Y11407849D01*
X22770724Y11302440D01*
X22686769Y11240759D01*
X22574888Y11165755D01*
X22524672Y11142864D01*
X22528963Y11170253D01*
X22561853Y11290733D01*
X22621439Y11489927D01*
X22702085Y11749152D01*
X22798157Y12049723D01*
X22863062Y12251389D01*
X22952002Y12531504D01*
X23023093Y12760063D01*
X23070303Y12917587D01*
X23087602Y12984596D01*
X23065928Y13010950D01*
X22965821Y13098032D01*
X22798308Y13232127D01*
X22578881Y13400923D01*
X22323031Y13592113D01*
X21557520Y14156595D01*
X22522188Y14172443D01*
X23486856Y14188292D01*
X23790452Y15112648D01*
X23868680Y15347572D01*
X23963216Y15622172D01*
X24042061Y15840598D01*
X24098667Y15984844D01*
X24126489Y16036904D01*
X24143101Y16009493D01*
G37*
G36*
X34160088Y32525765D02*
G01*
X34210304Y32410945D01*
X34284397Y32216484D01*
X34375858Y31959626D01*
X34478180Y31657618D01*
X34783430Y30735833D01*
X35767401Y30720018D01*
X36751371Y30704203D01*
X35966198Y30137988D01*
X35770804Y29995764D01*
X35536104Y29820954D01*
X35349373Y29677148D01*
X35226084Y29576326D01*
X35181707Y29530471D01*
X35189191Y29498631D01*
X35226604Y29371213D01*
X35290073Y29165913D01*
X35373553Y28902181D01*
X35471001Y28599465D01*
X35536271Y28397596D01*
X35624988Y28120807D01*
X35695782Y27896977D01*
X35742656Y27745119D01*
X35759613Y27684250D01*
X35754667Y27681913D01*
X35689073Y27713851D01*
X35571572Y27790646D01*
X35490875Y27847974D01*
X35325816Y27966700D01*
X35116998Y28117827D01*
X34887351Y28284663D01*
X34659802Y28450516D01*
X34457280Y28598696D01*
X34302714Y28712510D01*
X34219031Y28775268D01*
X34211926Y28778361D01*
X34122200Y28751444D01*
X33948687Y28652561D01*
X33695216Y28484075D01*
X33365614Y28248350D01*
X33157104Y28098023D01*
X32925992Y27938123D01*
X32742389Y27818876D01*
X32621277Y27749929D01*
X32577636Y27740928D01*
X32583867Y27774927D01*
X32619349Y27907758D01*
X32680946Y28117922D01*
X32762595Y28384945D01*
X32858233Y28688354D01*
X33138575Y29565443D01*
X32785654Y29813390D01*
X32743824Y29842879D01*
X32511199Y30009103D01*
X32246348Y30201011D01*
X31998793Y30382769D01*
X31564852Y30704203D01*
X32543709Y30733132D01*
X33522565Y30762062D01*
X33816602Y31640381D01*
X33881233Y31831943D01*
X33976556Y32108670D01*
X34056350Y32333271D01*
X34113723Y32486484D01*
X34141784Y32549051D01*
X34160088Y32525765D01*
G37*
G36*
X14108353Y32554145D02*
G01*
X14155253Y32430401D01*
X14226434Y32228159D01*
X14315595Y31965423D01*
X14416433Y31660198D01*
X14718088Y30735783D01*
X15698134Y30719993D01*
X16678180Y30704203D01*
X15992359Y30201755D01*
X15895080Y30130473D01*
X15651333Y29951747D01*
X15441845Y29797974D01*
X15286316Y29683625D01*
X15204452Y29623167D01*
X15184438Y29606668D01*
X15157173Y29566270D01*
X15150200Y29502057D01*
X15166882Y29396872D01*
X15210582Y29233556D01*
X15284665Y28994951D01*
X15392493Y28663899D01*
X15455422Y28470942D01*
X15545589Y28188956D01*
X15617614Y27956792D01*
X15665342Y27794435D01*
X15682620Y27721869D01*
X15641096Y27722831D01*
X15531953Y27782069D01*
X15378861Y27886794D01*
X15300096Y27944767D01*
X15085112Y28102663D01*
X14834956Y28286075D01*
X14589065Y28466076D01*
X14103027Y28821530D01*
X13721183Y28551122D01*
X13708762Y28542317D01*
X13462772Y28365559D01*
X13185814Y28163201D01*
X12935499Y27977317D01*
X12853712Y27916574D01*
X12684892Y27796199D01*
X12563689Y27716899D01*
X12512131Y27693446D01*
X12511888Y27693948D01*
X12525043Y27756354D01*
X12566008Y27905338D01*
X12627975Y28118523D01*
X12704138Y28373535D01*
X12787688Y28648001D01*
X12871818Y28919545D01*
X12949721Y29165793D01*
X13014590Y29364369D01*
X13059616Y29492901D01*
X13038225Y29528729D01*
X12937689Y29624348D01*
X12768803Y29764478D01*
X12546443Y29936889D01*
X12285489Y30129347D01*
X11487859Y30704203D01*
X12473246Y30719979D01*
X13458633Y30735756D01*
X13764759Y31660184D01*
X13843602Y31896071D01*
X13937374Y32170359D01*
X14014420Y32388522D01*
X14068364Y32532596D01*
X14092831Y32584613D01*
X14108353Y32554145D01*
G37*
G36*
X38327286Y40625503D02*
G01*
X38377824Y40530260D01*
X38451892Y40346810D01*
X38544138Y40088733D01*
X38649211Y39769610D01*
X38945951Y38836075D01*
X39940643Y38820253D01*
X40935335Y38804431D01*
X40141096Y38234122D01*
X39937090Y38086866D01*
X39701926Y37914941D01*
X39514915Y37775667D01*
X39391434Y37680524D01*
X39346857Y37640995D01*
X39354725Y37611326D01*
X39392388Y37487620D01*
X39455806Y37285497D01*
X39539040Y37023836D01*
X39636150Y36721515D01*
X39702653Y36514506D01*
X39791184Y36235825D01*
X39861800Y36009731D01*
X39908540Y35855375D01*
X39925444Y35791910D01*
X39920375Y35787876D01*
X39854702Y35815833D01*
X39737403Y35890874D01*
X39657769Y35947476D01*
X39495051Y36064544D01*
X39287805Y36214509D01*
X39059089Y36380598D01*
X38831959Y36546035D01*
X38629471Y36694047D01*
X38474681Y36807858D01*
X38390647Y36870695D01*
X38363380Y36869449D01*
X38251419Y36816466D01*
X38069623Y36706110D01*
X37831784Y36546981D01*
X37551695Y36347678D01*
X37352831Y36205079D01*
X37119235Y36044976D01*
X36931673Y35925081D01*
X36805626Y35855179D01*
X36756572Y35845056D01*
X36759505Y35876813D01*
X36790999Y36006307D01*
X36850780Y36213008D01*
X36932853Y36476573D01*
X37031220Y36776663D01*
X37091194Y36959172D01*
X37176657Y37235008D01*
X37239864Y37459972D01*
X37275493Y37614613D01*
X37278224Y37679480D01*
X37259946Y37693728D01*
X37160750Y37766917D01*
X36993409Y37888443D01*
X36775500Y38045571D01*
X36524602Y38225562D01*
X36400449Y38314841D01*
X36164901Y38486743D01*
X35972048Y38630851D01*
X35839155Y38734163D01*
X35783489Y38783678D01*
X35809480Y38796667D01*
X35932030Y38811293D01*
X36137986Y38822918D01*
X36409262Y38830591D01*
X36727776Y38833360D01*
X37702768Y38833360D01*
X37984206Y39698009D01*
X38040701Y39870329D01*
X38135541Y40153852D01*
X38216674Y40389252D01*
X38276910Y40555833D01*
X38309057Y40632901D01*
X38327286Y40625503D01*
G37*
G36*
X9945065Y40560717D02*
G01*
X10017786Y40394566D01*
X10115679Y40127572D01*
X10236847Y39764399D01*
X10536323Y38836079D01*
X11524336Y38820255D01*
X12512348Y38804431D01*
X11826527Y38301983D01*
X11729615Y38230971D01*
X11485476Y38051976D01*
X11275346Y37897772D01*
X11119010Y37782882D01*
X11036254Y37721832D01*
X11009374Y37698949D01*
X10984613Y37656845D01*
X10979830Y37589242D01*
X10998216Y37479242D01*
X11042961Y37309945D01*
X11117258Y37064449D01*
X11224295Y36725856D01*
X11296125Y36499505D01*
X11383946Y36220157D01*
X11453872Y35994616D01*
X11500090Y35841675D01*
X11516788Y35780130D01*
X11507103Y35773939D01*
X11444465Y35808612D01*
X11419921Y35827486D01*
X11238424Y35962886D01*
X11016663Y36123154D01*
X10773793Y36295062D01*
X10528969Y36465380D01*
X10301345Y36620878D01*
X10110078Y36748327D01*
X9974320Y36834498D01*
X9913228Y36866162D01*
X9880480Y36852281D01*
X9763973Y36781551D01*
X9582547Y36661119D01*
X9353345Y36502468D01*
X9093514Y36317083D01*
X8913072Y36188665D01*
X8683008Y36031921D01*
X8499662Y35915472D01*
X8378392Y35848932D01*
X8334556Y35841917D01*
X8340382Y35874065D01*
X8376406Y36005035D01*
X8439847Y36213165D01*
X8524336Y36477813D01*
X8623504Y36778341D01*
X8682818Y36959199D01*
X8767542Y37233850D01*
X8829720Y37457246D01*
X8864127Y37610064D01*
X8865533Y37672984D01*
X8813854Y37708776D01*
X8639887Y37832454D01*
X8426136Y37987523D01*
X8191664Y38159789D01*
X7955534Y38335058D01*
X7736808Y38499138D01*
X7554550Y38637833D01*
X7427821Y38736951D01*
X7375686Y38782298D01*
X7397054Y38795057D01*
X7514550Y38810460D01*
X7718865Y38822580D01*
X7993283Y38830515D01*
X8321084Y38833360D01*
X9298040Y38833360D01*
X9570306Y39686777D01*
X9621772Y39846836D01*
X9715250Y40131010D01*
X9795948Y40368078D01*
X9856608Y40536930D01*
X9889971Y40616457D01*
X9899417Y40621360D01*
X9945065Y40560717D01*
G37*
G36*
X14985576Y39050330D02*
G01*
X15159901Y38705287D01*
X15431260Y38168756D01*
X15698681Y37640647D01*
X15954138Y37136779D01*
X16189604Y36672968D01*
X16397054Y36265033D01*
X16568460Y35928790D01*
X16695796Y35680057D01*
X16741388Y35591108D01*
X16872225Y35334623D01*
X17046690Y34991469D01*
X17259079Y34572916D01*
X17503687Y34090231D01*
X17774806Y33554683D01*
X18066732Y32977539D01*
X18373759Y32370067D01*
X18690181Y31743536D01*
X19010292Y31109214D01*
X19209619Y30714205D01*
X19514726Y30110072D01*
X19806328Y29533271D01*
X20079606Y28993303D01*
X20329740Y28499671D01*
X20551910Y28061876D01*
X20741299Y27689420D01*
X20893085Y27391804D01*
X21002449Y27178530D01*
X21064573Y27059100D01*
X21114077Y26964232D01*
X21219781Y26757948D01*
X21365931Y26470322D01*
X21546170Y26113951D01*
X21754139Y25701431D01*
X21983481Y25245360D01*
X22227839Y24758334D01*
X22480854Y24252950D01*
X22690275Y23835567D01*
X22930113Y23361041D01*
X23153640Y22922455D01*
X23355010Y22531100D01*
X23528376Y22198264D01*
X23667889Y21935238D01*
X23767702Y21753310D01*
X23821968Y21663770D01*
X23888746Y21588697D01*
X24055877Y21488331D01*
X24226550Y21482985D01*
X24373289Y21576982D01*
X24381185Y21588436D01*
X24437991Y21688655D01*
X24540617Y21880393D01*
X24684455Y22154708D01*
X24864898Y22502659D01*
X25077337Y22915307D01*
X25317166Y23383710D01*
X25579776Y23898927D01*
X25860560Y24452019D01*
X26154911Y25034043D01*
X26160196Y25044514D01*
X26472236Y25662416D01*
X26783887Y26279081D01*
X27088686Y26881747D01*
X27380168Y27457655D01*
X27651870Y27994042D01*
X27897327Y28478148D01*
X28110077Y28897212D01*
X28283654Y29238473D01*
X28411595Y29489169D01*
X28440136Y29544977D01*
X28578240Y29815804D01*
X28760662Y30174452D01*
X28981209Y30608706D01*
X29233688Y31106351D01*
X29511906Y31655170D01*
X29809669Y32242947D01*
X30120784Y32857466D01*
X30439057Y33486513D01*
X30758296Y34117870D01*
X30761387Y34123987D01*
X31096457Y34786749D01*
X31442592Y35471168D01*
X31791887Y36161626D01*
X32136437Y36842505D01*
X32468336Y37498187D01*
X32779678Y38113055D01*
X33062557Y38671491D01*
X33309070Y39157877D01*
X33511309Y39556595D01*
X34480329Y41465934D01*
X35033183Y41482494D01*
X35174720Y41485017D01*
X35387133Y41480978D01*
X35532287Y41467490D01*
X35586036Y41446141D01*
X35569822Y41402512D01*
X35507594Y41266548D01*
X35405349Y41053686D01*
X35270159Y40778437D01*
X35109101Y40455314D01*
X34929247Y40098830D01*
X34919986Y40080578D01*
X34757676Y39760506D01*
X34551951Y39354558D01*
X34311055Y38879014D01*
X34043232Y38350157D01*
X33756726Y37784267D01*
X33459781Y37197625D01*
X33160641Y36606513D01*
X32867551Y36027210D01*
X32571918Y35442983D01*
X32263575Y34833974D01*
X31953853Y34222546D01*
X31651682Y33626314D01*
X31365992Y33062893D01*
X31105713Y32549901D01*
X30879775Y32104951D01*
X30697108Y31745661D01*
X30609851Y31574082D01*
X30412300Y31185103D01*
X30174758Y30716864D01*
X29905132Y30184972D01*
X29611328Y29605034D01*
X29301251Y28992657D01*
X28982807Y28363447D01*
X28663902Y27733012D01*
X28352440Y27116959D01*
X27931987Y26285174D01*
X27438658Y25309546D01*
X26993045Y24428748D01*
X26592700Y23638004D01*
X26235175Y22932540D01*
X25918022Y22307581D01*
X25638793Y21758352D01*
X25395040Y21280078D01*
X25184316Y20867985D01*
X25004172Y20517297D01*
X24852159Y20223240D01*
X24725832Y19981039D01*
X24622740Y19785919D01*
X24540437Y19633106D01*
X24476474Y19517824D01*
X24428403Y19435299D01*
X24393777Y19380756D01*
X24370147Y19349419D01*
X24249840Y19253149D01*
X24081601Y19229347D01*
X23904180Y19320490D01*
X23897988Y19326229D01*
X23828349Y19421265D01*
X23719361Y19600112D01*
X23581021Y19845138D01*
X23423325Y20138712D01*
X23256271Y20463201D01*
X23095470Y20781967D01*
X22853988Y21260132D01*
X22566828Y21828280D01*
X22237671Y22479140D01*
X21870200Y23205444D01*
X21468095Y23999922D01*
X21035039Y24855304D01*
X20574711Y25764320D01*
X20090794Y26719701D01*
X19586970Y27714178D01*
X19066919Y28740480D01*
X18534323Y29791339D01*
X17992864Y30859483D01*
X17446222Y31937645D01*
X16898080Y33018554D01*
X16817840Y33176808D01*
X16584730Y33636888D01*
X16312119Y34175304D01*
X16009027Y34774225D01*
X15684474Y35415818D01*
X15347477Y36082251D01*
X15007059Y36755691D01*
X14672237Y37418307D01*
X14352031Y38052267D01*
X14347296Y38061644D01*
X14064546Y38620844D01*
X13796513Y39149553D01*
X13547862Y39638660D01*
X13323257Y40079059D01*
X13127361Y40461639D01*
X12964838Y40777292D01*
X12840352Y41016911D01*
X12758567Y41171385D01*
X12724147Y41231606D01*
X12699788Y41271466D01*
X12673964Y41390718D01*
X12678728Y41426075D01*
X12713228Y41462350D01*
X12799491Y41483159D01*
X12958821Y41492624D01*
X13212522Y41494863D01*
X13751081Y41494863D01*
X14985576Y39050330D01*
G37*
G36*
X43596037Y38442813D02*
G01*
X43488080Y38229512D01*
X43168648Y37598546D01*
X42840169Y36949937D01*
X42511397Y36300956D01*
X42191086Y35668876D01*
X41887990Y35070968D01*
X41610862Y34524505D01*
X41368455Y34046758D01*
X41169524Y33655000D01*
X41036800Y33393716D01*
X40648029Y32627810D01*
X40209497Y31763135D01*
X39722884Y30803010D01*
X39189874Y29750757D01*
X38612148Y28609697D01*
X37991388Y27383152D01*
X37329277Y26074443D01*
X36627496Y24686891D01*
X36503004Y24440740D01*
X36190163Y23822377D01*
X35859157Y23168360D01*
X35521713Y22501845D01*
X35189557Y21845986D01*
X34874416Y21223940D01*
X34588015Y20658862D01*
X34342081Y20173907D01*
X34266917Y20025734D01*
X34003672Y19506576D01*
X33704176Y18915662D01*
X33380500Y18276822D01*
X33044714Y17613884D01*
X32708889Y16950679D01*
X32385095Y16311035D01*
X32085402Y15718781D01*
X31992122Y15534411D01*
X31683352Y14924275D01*
X31354388Y14274434D01*
X31017297Y13608716D01*
X30684148Y12950951D01*
X30367010Y12324967D01*
X30077950Y11754592D01*
X29829037Y11263656D01*
X29684218Y10978042D01*
X29417086Y10450934D01*
X29115805Y9856181D01*
X28791473Y9215703D01*
X28455189Y8551420D01*
X28118050Y7885254D01*
X27791155Y7239126D01*
X27485602Y6634955D01*
X27371732Y6409764D01*
X26913210Y5503337D01*
X26503297Y4693697D01*
X26139239Y3975504D01*
X25818278Y3343413D01*
X25537658Y2792083D01*
X25294623Y2316172D01*
X25086418Y1910337D01*
X24910285Y1569235D01*
X24763469Y1287526D01*
X24643213Y1059865D01*
X24546762Y880911D01*
X24471359Y745322D01*
X24414247Y647755D01*
X24372672Y582869D01*
X24343876Y545319D01*
X24232150Y455778D01*
X24115536Y415137D01*
X24008918Y450608D01*
X23890521Y545319D01*
X23862350Y587151D01*
X23781032Y728422D01*
X23657742Y954344D01*
X23498392Y1253695D01*
X23308890Y1615251D01*
X23095146Y2027789D01*
X22863069Y2480087D01*
X22618568Y2960923D01*
X22521900Y3151890D01*
X22251920Y3685306D01*
X21943552Y4294654D01*
X21606625Y4960510D01*
X21250967Y5663446D01*
X20886406Y6384039D01*
X20522769Y7102864D01*
X20169886Y7800494D01*
X19837583Y8457506D01*
X19649125Y8830087D01*
X19321801Y9476983D01*
X18988647Y10135147D01*
X18657953Y10788218D01*
X18338008Y11419831D01*
X18037102Y12013622D01*
X17763524Y12553228D01*
X17525565Y13022286D01*
X17331515Y13404431D01*
X17229422Y13605369D01*
X17005926Y14045445D01*
X16767840Y14514513D01*
X16512269Y15018285D01*
X16236321Y15562475D01*
X15937100Y16152797D01*
X15611714Y16794965D01*
X15257266Y17494692D01*
X14870865Y18257692D01*
X14449615Y19089678D01*
X13990623Y19996364D01*
X13490994Y20983465D01*
X12947834Y22056692D01*
X12358250Y23221761D01*
X11719347Y24484385D01*
X11575415Y24768824D01*
X11203603Y25503472D01*
X10829479Y26242519D01*
X10459103Y26974002D01*
X10098534Y27685959D01*
X9753834Y28366428D01*
X9431061Y29003447D01*
X9136277Y29585054D01*
X8875540Y30099286D01*
X8654911Y30534182D01*
X8480450Y30877779D01*
X8398515Y31039106D01*
X8170338Y31488845D01*
X7902622Y32017042D01*
X7604226Y32606193D01*
X7284010Y33238795D01*
X6950831Y33897344D01*
X6613550Y34564336D01*
X6281024Y35222267D01*
X5962112Y35853633D01*
X5769639Y36234680D01*
X5461608Y36843982D01*
X5155263Y37449367D01*
X4857804Y38036634D01*
X4576434Y38591581D01*
X4318354Y39100007D01*
X4090766Y39547711D01*
X3900873Y39920491D01*
X3755875Y40204146D01*
X3638314Y40434026D01*
X3473783Y40757840D01*
X3333120Y41037200D01*
X3223618Y41257508D01*
X3152570Y41404166D01*
X3127267Y41462575D01*
X3149071Y41471434D01*
X3262791Y41483411D01*
X3451832Y41491551D01*
X3691390Y41494450D01*
X4255513Y41494036D01*
X5255988Y39512787D01*
X5411697Y39204499D01*
X5680128Y38673248D01*
X5982472Y38075083D01*
X6307742Y37431734D01*
X6644949Y36764931D01*
X6983104Y36096405D01*
X7311220Y35447886D01*
X7618309Y34841105D01*
X7834070Y34414846D01*
X8178741Y33733897D01*
X8553687Y32993116D01*
X8945968Y32218073D01*
X9342642Y31434338D01*
X9730767Y30667478D01*
X10097402Y29943063D01*
X10429607Y29286663D01*
X10432021Y29281892D01*
X10742217Y28669087D01*
X11068574Y28024565D01*
X11401323Y27367607D01*
X11730692Y26717497D01*
X12046912Y26093516D01*
X12340212Y25514946D01*
X12600822Y25001072D01*
X12818970Y24571173D01*
X12830872Y24547729D01*
X13077192Y24062312D01*
X13362428Y23499901D01*
X13673947Y22885422D01*
X13999115Y22243800D01*
X14325302Y21599962D01*
X14639874Y20978834D01*
X14930199Y20405342D01*
X15203571Y19865204D01*
X15813635Y18659863D01*
X16377052Y17546750D01*
X16897747Y16518117D01*
X17379642Y15566215D01*
X17826660Y14683295D01*
X18242725Y13861609D01*
X18631761Y13093407D01*
X18997691Y12370941D01*
X19344437Y11686462D01*
X19675924Y11032221D01*
X19925130Y10540361D01*
X20249015Y9900981D01*
X20592372Y9223045D01*
X20940843Y8534905D01*
X21280070Y7864917D01*
X21595695Y7241435D01*
X21873359Y6692813D01*
X21875894Y6687803D01*
X22128854Y6187990D01*
X22385129Y5681758D01*
X22635461Y5187386D01*
X22870592Y4723154D01*
X23081263Y4307342D01*
X23258216Y3958228D01*
X23392192Y3694092D01*
X23421441Y3636595D01*
X23599275Y3294912D01*
X23738532Y3044922D01*
X23846842Y2874461D01*
X23931835Y2771370D01*
X24001142Y2723485D01*
X24090704Y2697676D01*
X24267904Y2713635D01*
X24400262Y2836232D01*
X24403586Y2841746D01*
X24456948Y2939956D01*
X24560896Y3138839D01*
X24714212Y3436008D01*
X24915681Y3829073D01*
X25164087Y4315647D01*
X25458213Y4893341D01*
X25796843Y5559767D01*
X26178762Y6312537D01*
X26602752Y7149261D01*
X27067599Y8067553D01*
X27572085Y9065023D01*
X27721983Y9361482D01*
X28040436Y9991091D01*
X28376600Y10655477D01*
X28718827Y11331632D01*
X29055466Y11996544D01*
X29374869Y12627204D01*
X29665387Y13200601D01*
X29915372Y13693725D01*
X30035513Y13930668D01*
X30307385Y14467068D01*
X30613947Y15072142D01*
X30943550Y15722885D01*
X31284542Y16396291D01*
X31625273Y17069354D01*
X31954094Y17719067D01*
X32259355Y18322426D01*
X32466578Y18732081D01*
X32681700Y19157317D01*
X32889049Y19567145D01*
X33092915Y19970039D01*
X33297590Y20374472D01*
X33507364Y20788919D01*
X33726527Y21221854D01*
X33959370Y21681749D01*
X34210183Y22177080D01*
X34483258Y22716320D01*
X34782885Y23307944D01*
X35113354Y23960424D01*
X35478956Y24682235D01*
X35883982Y25481852D01*
X36332722Y26367747D01*
X36829467Y27348394D01*
X36889457Y27466826D01*
X37177710Y28035950D01*
X37501989Y28676286D01*
X37849112Y29361799D01*
X38205898Y30066456D01*
X38559165Y30764224D01*
X38895731Y31429068D01*
X39202415Y32034955D01*
X39326946Y32280974D01*
X39627314Y32874206D01*
X39940120Y33491802D01*
X40254587Y34112492D01*
X40559935Y34715005D01*
X40845385Y35278073D01*
X41100159Y35780423D01*
X41313477Y36200786D01*
X41342252Y36257470D01*
X41600442Y36766496D01*
X41892576Y37343038D01*
X42202520Y37955216D01*
X42514136Y38571152D01*
X42811291Y39158966D01*
X43077849Y39686777D01*
X43990388Y41494863D01*
X44565514Y41494863D01*
X45140638Y41494863D01*
X43596037Y38442813D01*
G37*
%TD*%
M02*
