%TF.GenerationSoftware,KiCad,Pcbnew,8.0.4*%
%TF.CreationDate,2024-09-05T11:58:49-04:00*%
%TF.ProjectId,ESP32-RC_R0,45535033-322d-4524-935f-52302e6b6963,0*%
%TF.SameCoordinates,PX6dbb4f0PY6d3f490*%
%TF.FileFunction,Copper,L3,Inr*%
%TF.FilePolarity,Positive*%
%FSLAX46Y46*%
G04 Gerber Fmt 4.6, Leading zero omitted, Abs format (unit mm)*
G04 Created by KiCad (PCBNEW 8.0.4) date 2024-09-05 11:58:49*
%MOMM*%
%LPD*%
G01*
G04 APERTURE LIST*
%ADD10C,0.100000*%
%ADD11C,0.150000*%
%ADD12C,0.300000*%
%ADD13C,0.400000*%
%TA.AperFunction,ComponentPad*%
%ADD14R,1.370000X1.370000*%
%TD*%
%TA.AperFunction,ComponentPad*%
%ADD15C,1.370000*%
%TD*%
%TA.AperFunction,ViaPad*%
%ADD16C,0.508000*%
%TD*%
%TA.AperFunction,Conductor*%
%ADD17C,0.254000*%
%TD*%
%TA.AperFunction,Conductor*%
%ADD18C,1.016000*%
%TD*%
G04 APERTURE END LIST*
D10*
D11*
X44338000Y-57346000D02*
X152338000Y-57346000D01*
X152338000Y-89346000D01*
X44338000Y-89346000D01*
X44338000Y-57346000D01*
D10*
D11*
X-105062000Y104554000D02*
X154338000Y104554000D01*
X154338000Y-91346000D01*
X-105062000Y-91346000D01*
X-105062000Y104554000D01*
D10*
D11*
X-103062000Y102554000D02*
X152338000Y102554000D01*
X152338000Y-89346000D01*
X-103062000Y-89346000D01*
X-103062000Y102554000D01*
D10*
D11*
X-55062000Y102554000D02*
X-55062000Y104554000D01*
D10*
D11*
X-5062000Y102554000D02*
X-5062000Y104554000D01*
D10*
D11*
X44938000Y102554000D02*
X44938000Y104554000D01*
D10*
D11*
X94938000Y102554000D02*
X94938000Y104554000D01*
D10*
D11*
X144938000Y102554000D02*
X144938000Y104554000D01*
D10*
D11*
X-78972840Y102960396D02*
X-79715697Y102960396D01*
X-79344269Y102960396D02*
X-79344269Y104260396D01*
X-79344269Y104260396D02*
X-79468078Y104074681D01*
X-79468078Y104074681D02*
X-79591888Y103950872D01*
X-79591888Y103950872D02*
X-79715697Y103888967D01*
D10*
D11*
X-29715697Y104136586D02*
X-29653793Y104198491D01*
X-29653793Y104198491D02*
X-29529983Y104260396D01*
X-29529983Y104260396D02*
X-29220459Y104260396D01*
X-29220459Y104260396D02*
X-29096650Y104198491D01*
X-29096650Y104198491D02*
X-29034745Y104136586D01*
X-29034745Y104136586D02*
X-28972840Y104012777D01*
X-28972840Y104012777D02*
X-28972840Y103888967D01*
X-28972840Y103888967D02*
X-29034745Y103703253D01*
X-29034745Y103703253D02*
X-29777602Y102960396D01*
X-29777602Y102960396D02*
X-28972840Y102960396D01*
D10*
D11*
X20222398Y104260396D02*
X21027160Y104260396D01*
X21027160Y104260396D02*
X20593826Y103765158D01*
X20593826Y103765158D02*
X20779541Y103765158D01*
X20779541Y103765158D02*
X20903350Y103703253D01*
X20903350Y103703253D02*
X20965255Y103641348D01*
X20965255Y103641348D02*
X21027160Y103517539D01*
X21027160Y103517539D02*
X21027160Y103208015D01*
X21027160Y103208015D02*
X20965255Y103084205D01*
X20965255Y103084205D02*
X20903350Y103022300D01*
X20903350Y103022300D02*
X20779541Y102960396D01*
X20779541Y102960396D02*
X20408112Y102960396D01*
X20408112Y102960396D02*
X20284303Y103022300D01*
X20284303Y103022300D02*
X20222398Y103084205D01*
D10*
D11*
X70903350Y103827062D02*
X70903350Y102960396D01*
X70593826Y104322300D02*
X70284303Y103393729D01*
X70284303Y103393729D02*
X71089064Y103393729D01*
D10*
D11*
X120965255Y104260396D02*
X120346207Y104260396D01*
X120346207Y104260396D02*
X120284303Y103641348D01*
X120284303Y103641348D02*
X120346207Y103703253D01*
X120346207Y103703253D02*
X120470017Y103765158D01*
X120470017Y103765158D02*
X120779541Y103765158D01*
X120779541Y103765158D02*
X120903350Y103703253D01*
X120903350Y103703253D02*
X120965255Y103641348D01*
X120965255Y103641348D02*
X121027160Y103517539D01*
X121027160Y103517539D02*
X121027160Y103208015D01*
X121027160Y103208015D02*
X120965255Y103084205D01*
X120965255Y103084205D02*
X120903350Y103022300D01*
X120903350Y103022300D02*
X120779541Y102960396D01*
X120779541Y102960396D02*
X120470017Y102960396D01*
X120470017Y102960396D02*
X120346207Y103022300D01*
X120346207Y103022300D02*
X120284303Y103084205D01*
D10*
D11*
X-55062000Y-89346000D02*
X-55062000Y-91346000D01*
D10*
D11*
X-5062000Y-89346000D02*
X-5062000Y-91346000D01*
D10*
D11*
X44938000Y-89346000D02*
X44938000Y-91346000D01*
D10*
D11*
X94938000Y-89346000D02*
X94938000Y-91346000D01*
D10*
D11*
X144938000Y-89346000D02*
X144938000Y-91346000D01*
D10*
D11*
X-78972840Y-90939604D02*
X-79715697Y-90939604D01*
X-79344269Y-90939604D02*
X-79344269Y-89639604D01*
X-79344269Y-89639604D02*
X-79468078Y-89825319D01*
X-79468078Y-89825319D02*
X-79591888Y-89949128D01*
X-79591888Y-89949128D02*
X-79715697Y-90011033D01*
D10*
D11*
X-29715697Y-89763414D02*
X-29653793Y-89701509D01*
X-29653793Y-89701509D02*
X-29529983Y-89639604D01*
X-29529983Y-89639604D02*
X-29220459Y-89639604D01*
X-29220459Y-89639604D02*
X-29096650Y-89701509D01*
X-29096650Y-89701509D02*
X-29034745Y-89763414D01*
X-29034745Y-89763414D02*
X-28972840Y-89887223D01*
X-28972840Y-89887223D02*
X-28972840Y-90011033D01*
X-28972840Y-90011033D02*
X-29034745Y-90196747D01*
X-29034745Y-90196747D02*
X-29777602Y-90939604D01*
X-29777602Y-90939604D02*
X-28972840Y-90939604D01*
D10*
D11*
X20222398Y-89639604D02*
X21027160Y-89639604D01*
X21027160Y-89639604D02*
X20593826Y-90134842D01*
X20593826Y-90134842D02*
X20779541Y-90134842D01*
X20779541Y-90134842D02*
X20903350Y-90196747D01*
X20903350Y-90196747D02*
X20965255Y-90258652D01*
X20965255Y-90258652D02*
X21027160Y-90382461D01*
X21027160Y-90382461D02*
X21027160Y-90691985D01*
X21027160Y-90691985D02*
X20965255Y-90815795D01*
X20965255Y-90815795D02*
X20903350Y-90877700D01*
X20903350Y-90877700D02*
X20779541Y-90939604D01*
X20779541Y-90939604D02*
X20408112Y-90939604D01*
X20408112Y-90939604D02*
X20284303Y-90877700D01*
X20284303Y-90877700D02*
X20222398Y-90815795D01*
D10*
D11*
X70903350Y-90072938D02*
X70903350Y-90939604D01*
X70593826Y-89577700D02*
X70284303Y-90506271D01*
X70284303Y-90506271D02*
X71089064Y-90506271D01*
D10*
D11*
X120965255Y-89639604D02*
X120346207Y-89639604D01*
X120346207Y-89639604D02*
X120284303Y-90258652D01*
X120284303Y-90258652D02*
X120346207Y-90196747D01*
X120346207Y-90196747D02*
X120470017Y-90134842D01*
X120470017Y-90134842D02*
X120779541Y-90134842D01*
X120779541Y-90134842D02*
X120903350Y-90196747D01*
X120903350Y-90196747D02*
X120965255Y-90258652D01*
X120965255Y-90258652D02*
X121027160Y-90382461D01*
X121027160Y-90382461D02*
X121027160Y-90691985D01*
X121027160Y-90691985D02*
X120965255Y-90815795D01*
X120965255Y-90815795D02*
X120903350Y-90877700D01*
X120903350Y-90877700D02*
X120779541Y-90939604D01*
X120779541Y-90939604D02*
X120470017Y-90939604D01*
X120470017Y-90939604D02*
X120346207Y-90877700D01*
X120346207Y-90877700D02*
X120284303Y-90815795D01*
D10*
D11*
X-105062000Y54554000D02*
X-103062000Y54554000D01*
D10*
D11*
X-105062000Y4554000D02*
X-103062000Y4554000D01*
D10*
D11*
X-105062000Y-45446000D02*
X-103062000Y-45446000D01*
D10*
D11*
X-104371524Y79331824D02*
X-103752477Y79331824D01*
X-104495334Y78960396D02*
X-104062001Y80260396D01*
X-104062001Y80260396D02*
X-103628667Y78960396D01*
D10*
D11*
X-103969143Y29641348D02*
X-103783429Y29579443D01*
X-103783429Y29579443D02*
X-103721524Y29517539D01*
X-103721524Y29517539D02*
X-103659620Y29393729D01*
X-103659620Y29393729D02*
X-103659620Y29208015D01*
X-103659620Y29208015D02*
X-103721524Y29084205D01*
X-103721524Y29084205D02*
X-103783429Y29022300D01*
X-103783429Y29022300D02*
X-103907239Y28960396D01*
X-103907239Y28960396D02*
X-104402477Y28960396D01*
X-104402477Y28960396D02*
X-104402477Y30260396D01*
X-104402477Y30260396D02*
X-103969143Y30260396D01*
X-103969143Y30260396D02*
X-103845334Y30198491D01*
X-103845334Y30198491D02*
X-103783429Y30136586D01*
X-103783429Y30136586D02*
X-103721524Y30012777D01*
X-103721524Y30012777D02*
X-103721524Y29888967D01*
X-103721524Y29888967D02*
X-103783429Y29765158D01*
X-103783429Y29765158D02*
X-103845334Y29703253D01*
X-103845334Y29703253D02*
X-103969143Y29641348D01*
X-103969143Y29641348D02*
X-104402477Y29641348D01*
D10*
D11*
X-103659620Y-20915795D02*
X-103721524Y-20977700D01*
X-103721524Y-20977700D02*
X-103907239Y-21039604D01*
X-103907239Y-21039604D02*
X-104031048Y-21039604D01*
X-104031048Y-21039604D02*
X-104216762Y-20977700D01*
X-104216762Y-20977700D02*
X-104340572Y-20853890D01*
X-104340572Y-20853890D02*
X-104402477Y-20730080D01*
X-104402477Y-20730080D02*
X-104464381Y-20482461D01*
X-104464381Y-20482461D02*
X-104464381Y-20296747D01*
X-104464381Y-20296747D02*
X-104402477Y-20049128D01*
X-104402477Y-20049128D02*
X-104340572Y-19925319D01*
X-104340572Y-19925319D02*
X-104216762Y-19801509D01*
X-104216762Y-19801509D02*
X-104031048Y-19739604D01*
X-104031048Y-19739604D02*
X-103907239Y-19739604D01*
X-103907239Y-19739604D02*
X-103721524Y-19801509D01*
X-103721524Y-19801509D02*
X-103659620Y-19863414D01*
D10*
D11*
X-104402477Y-71039604D02*
X-104402477Y-69739604D01*
X-104402477Y-69739604D02*
X-104092953Y-69739604D01*
X-104092953Y-69739604D02*
X-103907239Y-69801509D01*
X-103907239Y-69801509D02*
X-103783429Y-69925319D01*
X-103783429Y-69925319D02*
X-103721524Y-70049128D01*
X-103721524Y-70049128D02*
X-103659620Y-70296747D01*
X-103659620Y-70296747D02*
X-103659620Y-70482461D01*
X-103659620Y-70482461D02*
X-103721524Y-70730080D01*
X-103721524Y-70730080D02*
X-103783429Y-70853890D01*
X-103783429Y-70853890D02*
X-103907239Y-70977700D01*
X-103907239Y-70977700D02*
X-104092953Y-71039604D01*
X-104092953Y-71039604D02*
X-104402477Y-71039604D01*
D10*
D11*
X154338000Y54554000D02*
X152338000Y54554000D01*
D10*
D11*
X154338000Y4554000D02*
X152338000Y4554000D01*
D10*
D11*
X154338000Y-45446000D02*
X152338000Y-45446000D01*
D10*
D11*
X153028476Y79331824D02*
X153647523Y79331824D01*
X152904666Y78960396D02*
X153337999Y80260396D01*
X153337999Y80260396D02*
X153771333Y78960396D01*
D10*
D11*
X153430857Y29641348D02*
X153616571Y29579443D01*
X153616571Y29579443D02*
X153678476Y29517539D01*
X153678476Y29517539D02*
X153740380Y29393729D01*
X153740380Y29393729D02*
X153740380Y29208015D01*
X153740380Y29208015D02*
X153678476Y29084205D01*
X153678476Y29084205D02*
X153616571Y29022300D01*
X153616571Y29022300D02*
X153492761Y28960396D01*
X153492761Y28960396D02*
X152997523Y28960396D01*
X152997523Y28960396D02*
X152997523Y30260396D01*
X152997523Y30260396D02*
X153430857Y30260396D01*
X153430857Y30260396D02*
X153554666Y30198491D01*
X153554666Y30198491D02*
X153616571Y30136586D01*
X153616571Y30136586D02*
X153678476Y30012777D01*
X153678476Y30012777D02*
X153678476Y29888967D01*
X153678476Y29888967D02*
X153616571Y29765158D01*
X153616571Y29765158D02*
X153554666Y29703253D01*
X153554666Y29703253D02*
X153430857Y29641348D01*
X153430857Y29641348D02*
X152997523Y29641348D01*
D10*
D11*
X153740380Y-20915795D02*
X153678476Y-20977700D01*
X153678476Y-20977700D02*
X153492761Y-21039604D01*
X153492761Y-21039604D02*
X153368952Y-21039604D01*
X153368952Y-21039604D02*
X153183238Y-20977700D01*
X153183238Y-20977700D02*
X153059428Y-20853890D01*
X153059428Y-20853890D02*
X152997523Y-20730080D01*
X152997523Y-20730080D02*
X152935619Y-20482461D01*
X152935619Y-20482461D02*
X152935619Y-20296747D01*
X152935619Y-20296747D02*
X152997523Y-20049128D01*
X152997523Y-20049128D02*
X153059428Y-19925319D01*
X153059428Y-19925319D02*
X153183238Y-19801509D01*
X153183238Y-19801509D02*
X153368952Y-19739604D01*
X153368952Y-19739604D02*
X153492761Y-19739604D01*
X153492761Y-19739604D02*
X153678476Y-19801509D01*
X153678476Y-19801509D02*
X153740380Y-19863414D01*
D10*
D11*
X152997523Y-71039604D02*
X152997523Y-69739604D01*
X152997523Y-69739604D02*
X153307047Y-69739604D01*
X153307047Y-69739604D02*
X153492761Y-69801509D01*
X153492761Y-69801509D02*
X153616571Y-69925319D01*
X153616571Y-69925319D02*
X153678476Y-70049128D01*
X153678476Y-70049128D02*
X153740380Y-70296747D01*
X153740380Y-70296747D02*
X153740380Y-70482461D01*
X153740380Y-70482461D02*
X153678476Y-70730080D01*
X153678476Y-70730080D02*
X153616571Y-70853890D01*
X153616571Y-70853890D02*
X153492761Y-70977700D01*
X153492761Y-70977700D02*
X153307047Y-71039604D01*
X153307047Y-71039604D02*
X152997523Y-71039604D01*
D10*
D11*
X67793826Y-85132128D02*
X67793826Y-83632128D01*
X67793826Y-83632128D02*
X68150969Y-83632128D01*
X68150969Y-83632128D02*
X68365255Y-83703557D01*
X68365255Y-83703557D02*
X68508112Y-83846414D01*
X68508112Y-83846414D02*
X68579541Y-83989271D01*
X68579541Y-83989271D02*
X68650969Y-84274985D01*
X68650969Y-84274985D02*
X68650969Y-84489271D01*
X68650969Y-84489271D02*
X68579541Y-84774985D01*
X68579541Y-84774985D02*
X68508112Y-84917842D01*
X68508112Y-84917842D02*
X68365255Y-85060700D01*
X68365255Y-85060700D02*
X68150969Y-85132128D01*
X68150969Y-85132128D02*
X67793826Y-85132128D01*
X69936684Y-85132128D02*
X69936684Y-84346414D01*
X69936684Y-84346414D02*
X69865255Y-84203557D01*
X69865255Y-84203557D02*
X69722398Y-84132128D01*
X69722398Y-84132128D02*
X69436684Y-84132128D01*
X69436684Y-84132128D02*
X69293826Y-84203557D01*
X69936684Y-85060700D02*
X69793826Y-85132128D01*
X69793826Y-85132128D02*
X69436684Y-85132128D01*
X69436684Y-85132128D02*
X69293826Y-85060700D01*
X69293826Y-85060700D02*
X69222398Y-84917842D01*
X69222398Y-84917842D02*
X69222398Y-84774985D01*
X69222398Y-84774985D02*
X69293826Y-84632128D01*
X69293826Y-84632128D02*
X69436684Y-84560700D01*
X69436684Y-84560700D02*
X69793826Y-84560700D01*
X69793826Y-84560700D02*
X69936684Y-84489271D01*
X70436684Y-84132128D02*
X71008112Y-84132128D01*
X70650969Y-83632128D02*
X70650969Y-84917842D01*
X70650969Y-84917842D02*
X70722398Y-85060700D01*
X70722398Y-85060700D02*
X70865255Y-85132128D01*
X70865255Y-85132128D02*
X71008112Y-85132128D01*
X72079541Y-85060700D02*
X71936684Y-85132128D01*
X71936684Y-85132128D02*
X71650970Y-85132128D01*
X71650970Y-85132128D02*
X71508112Y-85060700D01*
X71508112Y-85060700D02*
X71436684Y-84917842D01*
X71436684Y-84917842D02*
X71436684Y-84346414D01*
X71436684Y-84346414D02*
X71508112Y-84203557D01*
X71508112Y-84203557D02*
X71650970Y-84132128D01*
X71650970Y-84132128D02*
X71936684Y-84132128D01*
X71936684Y-84132128D02*
X72079541Y-84203557D01*
X72079541Y-84203557D02*
X72150970Y-84346414D01*
X72150970Y-84346414D02*
X72150970Y-84489271D01*
X72150970Y-84489271D02*
X71436684Y-84632128D01*
X72793826Y-84989271D02*
X72865255Y-85060700D01*
X72865255Y-85060700D02*
X72793826Y-85132128D01*
X72793826Y-85132128D02*
X72722398Y-85060700D01*
X72722398Y-85060700D02*
X72793826Y-84989271D01*
X72793826Y-84989271D02*
X72793826Y-85132128D01*
X72793826Y-84203557D02*
X72865255Y-84274985D01*
X72865255Y-84274985D02*
X72793826Y-84346414D01*
X72793826Y-84346414D02*
X72722398Y-84274985D01*
X72722398Y-84274985D02*
X72793826Y-84203557D01*
X72793826Y-84203557D02*
X72793826Y-84346414D01*
X74579541Y-83774985D02*
X74650969Y-83703557D01*
X74650969Y-83703557D02*
X74793827Y-83632128D01*
X74793827Y-83632128D02*
X75150969Y-83632128D01*
X75150969Y-83632128D02*
X75293827Y-83703557D01*
X75293827Y-83703557D02*
X75365255Y-83774985D01*
X75365255Y-83774985D02*
X75436684Y-83917842D01*
X75436684Y-83917842D02*
X75436684Y-84060700D01*
X75436684Y-84060700D02*
X75365255Y-84274985D01*
X75365255Y-84274985D02*
X74508112Y-85132128D01*
X74508112Y-85132128D02*
X75436684Y-85132128D01*
X76365255Y-83632128D02*
X76508112Y-83632128D01*
X76508112Y-83632128D02*
X76650969Y-83703557D01*
X76650969Y-83703557D02*
X76722398Y-83774985D01*
X76722398Y-83774985D02*
X76793826Y-83917842D01*
X76793826Y-83917842D02*
X76865255Y-84203557D01*
X76865255Y-84203557D02*
X76865255Y-84560700D01*
X76865255Y-84560700D02*
X76793826Y-84846414D01*
X76793826Y-84846414D02*
X76722398Y-84989271D01*
X76722398Y-84989271D02*
X76650969Y-85060700D01*
X76650969Y-85060700D02*
X76508112Y-85132128D01*
X76508112Y-85132128D02*
X76365255Y-85132128D01*
X76365255Y-85132128D02*
X76222398Y-85060700D01*
X76222398Y-85060700D02*
X76150969Y-84989271D01*
X76150969Y-84989271D02*
X76079540Y-84846414D01*
X76079540Y-84846414D02*
X76008112Y-84560700D01*
X76008112Y-84560700D02*
X76008112Y-84203557D01*
X76008112Y-84203557D02*
X76079540Y-83917842D01*
X76079540Y-83917842D02*
X76150969Y-83774985D01*
X76150969Y-83774985D02*
X76222398Y-83703557D01*
X76222398Y-83703557D02*
X76365255Y-83632128D01*
X77436683Y-83774985D02*
X77508111Y-83703557D01*
X77508111Y-83703557D02*
X77650969Y-83632128D01*
X77650969Y-83632128D02*
X78008111Y-83632128D01*
X78008111Y-83632128D02*
X78150969Y-83703557D01*
X78150969Y-83703557D02*
X78222397Y-83774985D01*
X78222397Y-83774985D02*
X78293826Y-83917842D01*
X78293826Y-83917842D02*
X78293826Y-84060700D01*
X78293826Y-84060700D02*
X78222397Y-84274985D01*
X78222397Y-84274985D02*
X77365254Y-85132128D01*
X77365254Y-85132128D02*
X78293826Y-85132128D01*
X79579540Y-84132128D02*
X79579540Y-85132128D01*
X79222397Y-83560700D02*
X78865254Y-84632128D01*
X78865254Y-84632128D02*
X79793825Y-84632128D01*
X80365253Y-84560700D02*
X81508111Y-84560700D01*
X82508111Y-83632128D02*
X82650968Y-83632128D01*
X82650968Y-83632128D02*
X82793825Y-83703557D01*
X82793825Y-83703557D02*
X82865254Y-83774985D01*
X82865254Y-83774985D02*
X82936682Y-83917842D01*
X82936682Y-83917842D02*
X83008111Y-84203557D01*
X83008111Y-84203557D02*
X83008111Y-84560700D01*
X83008111Y-84560700D02*
X82936682Y-84846414D01*
X82936682Y-84846414D02*
X82865254Y-84989271D01*
X82865254Y-84989271D02*
X82793825Y-85060700D01*
X82793825Y-85060700D02*
X82650968Y-85132128D01*
X82650968Y-85132128D02*
X82508111Y-85132128D01*
X82508111Y-85132128D02*
X82365254Y-85060700D01*
X82365254Y-85060700D02*
X82293825Y-84989271D01*
X82293825Y-84989271D02*
X82222396Y-84846414D01*
X82222396Y-84846414D02*
X82150968Y-84560700D01*
X82150968Y-84560700D02*
X82150968Y-84203557D01*
X82150968Y-84203557D02*
X82222396Y-83917842D01*
X82222396Y-83917842D02*
X82293825Y-83774985D01*
X82293825Y-83774985D02*
X82365254Y-83703557D01*
X82365254Y-83703557D02*
X82508111Y-83632128D01*
X83865253Y-84274985D02*
X83722396Y-84203557D01*
X83722396Y-84203557D02*
X83650967Y-84132128D01*
X83650967Y-84132128D02*
X83579539Y-83989271D01*
X83579539Y-83989271D02*
X83579539Y-83917842D01*
X83579539Y-83917842D02*
X83650967Y-83774985D01*
X83650967Y-83774985D02*
X83722396Y-83703557D01*
X83722396Y-83703557D02*
X83865253Y-83632128D01*
X83865253Y-83632128D02*
X84150967Y-83632128D01*
X84150967Y-83632128D02*
X84293825Y-83703557D01*
X84293825Y-83703557D02*
X84365253Y-83774985D01*
X84365253Y-83774985D02*
X84436682Y-83917842D01*
X84436682Y-83917842D02*
X84436682Y-83989271D01*
X84436682Y-83989271D02*
X84365253Y-84132128D01*
X84365253Y-84132128D02*
X84293825Y-84203557D01*
X84293825Y-84203557D02*
X84150967Y-84274985D01*
X84150967Y-84274985D02*
X83865253Y-84274985D01*
X83865253Y-84274985D02*
X83722396Y-84346414D01*
X83722396Y-84346414D02*
X83650967Y-84417842D01*
X83650967Y-84417842D02*
X83579539Y-84560700D01*
X83579539Y-84560700D02*
X83579539Y-84846414D01*
X83579539Y-84846414D02*
X83650967Y-84989271D01*
X83650967Y-84989271D02*
X83722396Y-85060700D01*
X83722396Y-85060700D02*
X83865253Y-85132128D01*
X83865253Y-85132128D02*
X84150967Y-85132128D01*
X84150967Y-85132128D02*
X84293825Y-85060700D01*
X84293825Y-85060700D02*
X84365253Y-84989271D01*
X84365253Y-84989271D02*
X84436682Y-84846414D01*
X84436682Y-84846414D02*
X84436682Y-84560700D01*
X84436682Y-84560700D02*
X84365253Y-84417842D01*
X84365253Y-84417842D02*
X84293825Y-84346414D01*
X84293825Y-84346414D02*
X84150967Y-84274985D01*
X85079538Y-84560700D02*
X86222396Y-84560700D01*
X86793824Y-83632128D02*
X87722396Y-83632128D01*
X87722396Y-83632128D02*
X87222396Y-84203557D01*
X87222396Y-84203557D02*
X87436681Y-84203557D01*
X87436681Y-84203557D02*
X87579539Y-84274985D01*
X87579539Y-84274985D02*
X87650967Y-84346414D01*
X87650967Y-84346414D02*
X87722396Y-84489271D01*
X87722396Y-84489271D02*
X87722396Y-84846414D01*
X87722396Y-84846414D02*
X87650967Y-84989271D01*
X87650967Y-84989271D02*
X87579539Y-85060700D01*
X87579539Y-85060700D02*
X87436681Y-85132128D01*
X87436681Y-85132128D02*
X87008110Y-85132128D01*
X87008110Y-85132128D02*
X86865253Y-85060700D01*
X86865253Y-85060700D02*
X86793824Y-84989271D01*
X88650967Y-83632128D02*
X88793824Y-83632128D01*
X88793824Y-83632128D02*
X88936681Y-83703557D01*
X88936681Y-83703557D02*
X89008110Y-83774985D01*
X89008110Y-83774985D02*
X89079538Y-83917842D01*
X89079538Y-83917842D02*
X89150967Y-84203557D01*
X89150967Y-84203557D02*
X89150967Y-84560700D01*
X89150967Y-84560700D02*
X89079538Y-84846414D01*
X89079538Y-84846414D02*
X89008110Y-84989271D01*
X89008110Y-84989271D02*
X88936681Y-85060700D01*
X88936681Y-85060700D02*
X88793824Y-85132128D01*
X88793824Y-85132128D02*
X88650967Y-85132128D01*
X88650967Y-85132128D02*
X88508110Y-85060700D01*
X88508110Y-85060700D02*
X88436681Y-84989271D01*
X88436681Y-84989271D02*
X88365252Y-84846414D01*
X88365252Y-84846414D02*
X88293824Y-84560700D01*
X88293824Y-84560700D02*
X88293824Y-84203557D01*
X88293824Y-84203557D02*
X88365252Y-83917842D01*
X88365252Y-83917842D02*
X88436681Y-83774985D01*
X88436681Y-83774985D02*
X88508110Y-83703557D01*
X88508110Y-83703557D02*
X88650967Y-83632128D01*
D10*
D11*
X44338000Y-85846000D02*
X152338000Y-85846000D01*
D10*
D11*
X45793826Y-87932128D02*
X45793826Y-86432128D01*
X46650969Y-87932128D02*
X46008112Y-87074985D01*
X46650969Y-86432128D02*
X45793826Y-87289271D01*
X47293826Y-87932128D02*
X47293826Y-86932128D01*
X47293826Y-86432128D02*
X47222398Y-86503557D01*
X47222398Y-86503557D02*
X47293826Y-86574985D01*
X47293826Y-86574985D02*
X47365255Y-86503557D01*
X47365255Y-86503557D02*
X47293826Y-86432128D01*
X47293826Y-86432128D02*
X47293826Y-86574985D01*
X48865255Y-87789271D02*
X48793827Y-87860700D01*
X48793827Y-87860700D02*
X48579541Y-87932128D01*
X48579541Y-87932128D02*
X48436684Y-87932128D01*
X48436684Y-87932128D02*
X48222398Y-87860700D01*
X48222398Y-87860700D02*
X48079541Y-87717842D01*
X48079541Y-87717842D02*
X48008112Y-87574985D01*
X48008112Y-87574985D02*
X47936684Y-87289271D01*
X47936684Y-87289271D02*
X47936684Y-87074985D01*
X47936684Y-87074985D02*
X48008112Y-86789271D01*
X48008112Y-86789271D02*
X48079541Y-86646414D01*
X48079541Y-86646414D02*
X48222398Y-86503557D01*
X48222398Y-86503557D02*
X48436684Y-86432128D01*
X48436684Y-86432128D02*
X48579541Y-86432128D01*
X48579541Y-86432128D02*
X48793827Y-86503557D01*
X48793827Y-86503557D02*
X48865255Y-86574985D01*
X50150970Y-87932128D02*
X50150970Y-87146414D01*
X50150970Y-87146414D02*
X50079541Y-87003557D01*
X50079541Y-87003557D02*
X49936684Y-86932128D01*
X49936684Y-86932128D02*
X49650970Y-86932128D01*
X49650970Y-86932128D02*
X49508112Y-87003557D01*
X50150970Y-87860700D02*
X50008112Y-87932128D01*
X50008112Y-87932128D02*
X49650970Y-87932128D01*
X49650970Y-87932128D02*
X49508112Y-87860700D01*
X49508112Y-87860700D02*
X49436684Y-87717842D01*
X49436684Y-87717842D02*
X49436684Y-87574985D01*
X49436684Y-87574985D02*
X49508112Y-87432128D01*
X49508112Y-87432128D02*
X49650970Y-87360700D01*
X49650970Y-87360700D02*
X50008112Y-87360700D01*
X50008112Y-87360700D02*
X50150970Y-87289271D01*
X51508113Y-87932128D02*
X51508113Y-86432128D01*
X51508113Y-87860700D02*
X51365255Y-87932128D01*
X51365255Y-87932128D02*
X51079541Y-87932128D01*
X51079541Y-87932128D02*
X50936684Y-87860700D01*
X50936684Y-87860700D02*
X50865255Y-87789271D01*
X50865255Y-87789271D02*
X50793827Y-87646414D01*
X50793827Y-87646414D02*
X50793827Y-87217842D01*
X50793827Y-87217842D02*
X50865255Y-87074985D01*
X50865255Y-87074985D02*
X50936684Y-87003557D01*
X50936684Y-87003557D02*
X51079541Y-86932128D01*
X51079541Y-86932128D02*
X51365255Y-86932128D01*
X51365255Y-86932128D02*
X51508113Y-87003557D01*
X53365255Y-87146414D02*
X53865255Y-87146414D01*
X54079541Y-87932128D02*
X53365255Y-87932128D01*
X53365255Y-87932128D02*
X53365255Y-86432128D01*
X53365255Y-86432128D02*
X54079541Y-86432128D01*
X54722398Y-87789271D02*
X54793827Y-87860700D01*
X54793827Y-87860700D02*
X54722398Y-87932128D01*
X54722398Y-87932128D02*
X54650970Y-87860700D01*
X54650970Y-87860700D02*
X54722398Y-87789271D01*
X54722398Y-87789271D02*
X54722398Y-87932128D01*
X55436684Y-87932128D02*
X55436684Y-86432128D01*
X55436684Y-86432128D02*
X55793827Y-86432128D01*
X55793827Y-86432128D02*
X56008113Y-86503557D01*
X56008113Y-86503557D02*
X56150970Y-86646414D01*
X56150970Y-86646414D02*
X56222399Y-86789271D01*
X56222399Y-86789271D02*
X56293827Y-87074985D01*
X56293827Y-87074985D02*
X56293827Y-87289271D01*
X56293827Y-87289271D02*
X56222399Y-87574985D01*
X56222399Y-87574985D02*
X56150970Y-87717842D01*
X56150970Y-87717842D02*
X56008113Y-87860700D01*
X56008113Y-87860700D02*
X55793827Y-87932128D01*
X55793827Y-87932128D02*
X55436684Y-87932128D01*
X56936684Y-87789271D02*
X57008113Y-87860700D01*
X57008113Y-87860700D02*
X56936684Y-87932128D01*
X56936684Y-87932128D02*
X56865256Y-87860700D01*
X56865256Y-87860700D02*
X56936684Y-87789271D01*
X56936684Y-87789271D02*
X56936684Y-87932128D01*
X57579542Y-87503557D02*
X58293828Y-87503557D01*
X57436685Y-87932128D02*
X57936685Y-86432128D01*
X57936685Y-86432128D02*
X58436685Y-87932128D01*
X58936684Y-87789271D02*
X59008113Y-87860700D01*
X59008113Y-87860700D02*
X58936684Y-87932128D01*
X58936684Y-87932128D02*
X58865256Y-87860700D01*
X58865256Y-87860700D02*
X58936684Y-87789271D01*
X58936684Y-87789271D02*
X58936684Y-87932128D01*
X61008113Y-87074985D02*
X60865256Y-87003557D01*
X60865256Y-87003557D02*
X60793827Y-86932128D01*
X60793827Y-86932128D02*
X60722399Y-86789271D01*
X60722399Y-86789271D02*
X60722399Y-86717842D01*
X60722399Y-86717842D02*
X60793827Y-86574985D01*
X60793827Y-86574985D02*
X60865256Y-86503557D01*
X60865256Y-86503557D02*
X61008113Y-86432128D01*
X61008113Y-86432128D02*
X61293827Y-86432128D01*
X61293827Y-86432128D02*
X61436685Y-86503557D01*
X61436685Y-86503557D02*
X61508113Y-86574985D01*
X61508113Y-86574985D02*
X61579542Y-86717842D01*
X61579542Y-86717842D02*
X61579542Y-86789271D01*
X61579542Y-86789271D02*
X61508113Y-86932128D01*
X61508113Y-86932128D02*
X61436685Y-87003557D01*
X61436685Y-87003557D02*
X61293827Y-87074985D01*
X61293827Y-87074985D02*
X61008113Y-87074985D01*
X61008113Y-87074985D02*
X60865256Y-87146414D01*
X60865256Y-87146414D02*
X60793827Y-87217842D01*
X60793827Y-87217842D02*
X60722399Y-87360700D01*
X60722399Y-87360700D02*
X60722399Y-87646414D01*
X60722399Y-87646414D02*
X60793827Y-87789271D01*
X60793827Y-87789271D02*
X60865256Y-87860700D01*
X60865256Y-87860700D02*
X61008113Y-87932128D01*
X61008113Y-87932128D02*
X61293827Y-87932128D01*
X61293827Y-87932128D02*
X61436685Y-87860700D01*
X61436685Y-87860700D02*
X61508113Y-87789271D01*
X61508113Y-87789271D02*
X61579542Y-87646414D01*
X61579542Y-87646414D02*
X61579542Y-87360700D01*
X61579542Y-87360700D02*
X61508113Y-87217842D01*
X61508113Y-87217842D02*
X61436685Y-87146414D01*
X61436685Y-87146414D02*
X61293827Y-87074985D01*
X62222398Y-87789271D02*
X62293827Y-87860700D01*
X62293827Y-87860700D02*
X62222398Y-87932128D01*
X62222398Y-87932128D02*
X62150970Y-87860700D01*
X62150970Y-87860700D02*
X62222398Y-87789271D01*
X62222398Y-87789271D02*
X62222398Y-87932128D01*
X63222399Y-86432128D02*
X63365256Y-86432128D01*
X63365256Y-86432128D02*
X63508113Y-86503557D01*
X63508113Y-86503557D02*
X63579542Y-86574985D01*
X63579542Y-86574985D02*
X63650970Y-86717842D01*
X63650970Y-86717842D02*
X63722399Y-87003557D01*
X63722399Y-87003557D02*
X63722399Y-87360700D01*
X63722399Y-87360700D02*
X63650970Y-87646414D01*
X63650970Y-87646414D02*
X63579542Y-87789271D01*
X63579542Y-87789271D02*
X63508113Y-87860700D01*
X63508113Y-87860700D02*
X63365256Y-87932128D01*
X63365256Y-87932128D02*
X63222399Y-87932128D01*
X63222399Y-87932128D02*
X63079542Y-87860700D01*
X63079542Y-87860700D02*
X63008113Y-87789271D01*
X63008113Y-87789271D02*
X62936684Y-87646414D01*
X62936684Y-87646414D02*
X62865256Y-87360700D01*
X62865256Y-87360700D02*
X62865256Y-87003557D01*
X62865256Y-87003557D02*
X62936684Y-86717842D01*
X62936684Y-86717842D02*
X63008113Y-86574985D01*
X63008113Y-86574985D02*
X63079542Y-86503557D01*
X63079542Y-86503557D02*
X63222399Y-86432128D01*
X64365255Y-87789271D02*
X64436684Y-87860700D01*
X64436684Y-87860700D02*
X64365255Y-87932128D01*
X64365255Y-87932128D02*
X64293827Y-87860700D01*
X64293827Y-87860700D02*
X64365255Y-87789271D01*
X64365255Y-87789271D02*
X64365255Y-87932128D01*
X65722399Y-86932128D02*
X65722399Y-87932128D01*
X65365256Y-86360700D02*
X65008113Y-87432128D01*
X65008113Y-87432128D02*
X65936684Y-87432128D01*
D10*
D11*
X44338000Y-82846000D02*
X152338000Y-82846000D01*
D10*
D12*
X131749653Y-85124328D02*
X131249653Y-84410042D01*
X130892510Y-85124328D02*
X130892510Y-83624328D01*
X130892510Y-83624328D02*
X131463939Y-83624328D01*
X131463939Y-83624328D02*
X131606796Y-83695757D01*
X131606796Y-83695757D02*
X131678225Y-83767185D01*
X131678225Y-83767185D02*
X131749653Y-83910042D01*
X131749653Y-83910042D02*
X131749653Y-84124328D01*
X131749653Y-84124328D02*
X131678225Y-84267185D01*
X131678225Y-84267185D02*
X131606796Y-84338614D01*
X131606796Y-84338614D02*
X131463939Y-84410042D01*
X131463939Y-84410042D02*
X130892510Y-84410042D01*
X132963939Y-85052900D02*
X132821082Y-85124328D01*
X132821082Y-85124328D02*
X132535368Y-85124328D01*
X132535368Y-85124328D02*
X132392510Y-85052900D01*
X132392510Y-85052900D02*
X132321082Y-84910042D01*
X132321082Y-84910042D02*
X132321082Y-84338614D01*
X132321082Y-84338614D02*
X132392510Y-84195757D01*
X132392510Y-84195757D02*
X132535368Y-84124328D01*
X132535368Y-84124328D02*
X132821082Y-84124328D01*
X132821082Y-84124328D02*
X132963939Y-84195757D01*
X132963939Y-84195757D02*
X133035368Y-84338614D01*
X133035368Y-84338614D02*
X133035368Y-84481471D01*
X133035368Y-84481471D02*
X132321082Y-84624328D01*
X133535367Y-84124328D02*
X133892510Y-85124328D01*
X133892510Y-85124328D02*
X134249653Y-84124328D01*
X134821081Y-84981471D02*
X134892510Y-85052900D01*
X134892510Y-85052900D02*
X134821081Y-85124328D01*
X134821081Y-85124328D02*
X134749653Y-85052900D01*
X134749653Y-85052900D02*
X134821081Y-84981471D01*
X134821081Y-84981471D02*
X134821081Y-85124328D01*
X134821081Y-84195757D02*
X134892510Y-84267185D01*
X134892510Y-84267185D02*
X134821081Y-84338614D01*
X134821081Y-84338614D02*
X134749653Y-84267185D01*
X134749653Y-84267185D02*
X134821081Y-84195757D01*
X134821081Y-84195757D02*
X134821081Y-84338614D01*
X136963939Y-83624328D02*
X137106796Y-83624328D01*
X137106796Y-83624328D02*
X137249653Y-83695757D01*
X137249653Y-83695757D02*
X137321082Y-83767185D01*
X137321082Y-83767185D02*
X137392510Y-83910042D01*
X137392510Y-83910042D02*
X137463939Y-84195757D01*
X137463939Y-84195757D02*
X137463939Y-84552900D01*
X137463939Y-84552900D02*
X137392510Y-84838614D01*
X137392510Y-84838614D02*
X137321082Y-84981471D01*
X137321082Y-84981471D02*
X137249653Y-85052900D01*
X137249653Y-85052900D02*
X137106796Y-85124328D01*
X137106796Y-85124328D02*
X136963939Y-85124328D01*
X136963939Y-85124328D02*
X136821082Y-85052900D01*
X136821082Y-85052900D02*
X136749653Y-84981471D01*
X136749653Y-84981471D02*
X136678224Y-84838614D01*
X136678224Y-84838614D02*
X136606796Y-84552900D01*
X136606796Y-84552900D02*
X136606796Y-84195757D01*
X136606796Y-84195757D02*
X136678224Y-83910042D01*
X136678224Y-83910042D02*
X136749653Y-83767185D01*
X136749653Y-83767185D02*
X136821082Y-83695757D01*
X136821082Y-83695757D02*
X136963939Y-83624328D01*
D10*
D11*
X45722398Y-85060700D02*
X45936684Y-85132128D01*
X45936684Y-85132128D02*
X46293826Y-85132128D01*
X46293826Y-85132128D02*
X46436684Y-85060700D01*
X46436684Y-85060700D02*
X46508112Y-84989271D01*
X46508112Y-84989271D02*
X46579541Y-84846414D01*
X46579541Y-84846414D02*
X46579541Y-84703557D01*
X46579541Y-84703557D02*
X46508112Y-84560700D01*
X46508112Y-84560700D02*
X46436684Y-84489271D01*
X46436684Y-84489271D02*
X46293826Y-84417842D01*
X46293826Y-84417842D02*
X46008112Y-84346414D01*
X46008112Y-84346414D02*
X45865255Y-84274985D01*
X45865255Y-84274985D02*
X45793826Y-84203557D01*
X45793826Y-84203557D02*
X45722398Y-84060700D01*
X45722398Y-84060700D02*
X45722398Y-83917842D01*
X45722398Y-83917842D02*
X45793826Y-83774985D01*
X45793826Y-83774985D02*
X45865255Y-83703557D01*
X45865255Y-83703557D02*
X46008112Y-83632128D01*
X46008112Y-83632128D02*
X46365255Y-83632128D01*
X46365255Y-83632128D02*
X46579541Y-83703557D01*
X47222397Y-85132128D02*
X47222397Y-84132128D01*
X47222397Y-83632128D02*
X47150969Y-83703557D01*
X47150969Y-83703557D02*
X47222397Y-83774985D01*
X47222397Y-83774985D02*
X47293826Y-83703557D01*
X47293826Y-83703557D02*
X47222397Y-83632128D01*
X47222397Y-83632128D02*
X47222397Y-83774985D01*
X47793826Y-84132128D02*
X48579541Y-84132128D01*
X48579541Y-84132128D02*
X47793826Y-85132128D01*
X47793826Y-85132128D02*
X48579541Y-85132128D01*
X49722398Y-85060700D02*
X49579541Y-85132128D01*
X49579541Y-85132128D02*
X49293827Y-85132128D01*
X49293827Y-85132128D02*
X49150969Y-85060700D01*
X49150969Y-85060700D02*
X49079541Y-84917842D01*
X49079541Y-84917842D02*
X49079541Y-84346414D01*
X49079541Y-84346414D02*
X49150969Y-84203557D01*
X49150969Y-84203557D02*
X49293827Y-84132128D01*
X49293827Y-84132128D02*
X49579541Y-84132128D01*
X49579541Y-84132128D02*
X49722398Y-84203557D01*
X49722398Y-84203557D02*
X49793827Y-84346414D01*
X49793827Y-84346414D02*
X49793827Y-84489271D01*
X49793827Y-84489271D02*
X49079541Y-84632128D01*
X50436683Y-84989271D02*
X50508112Y-85060700D01*
X50508112Y-85060700D02*
X50436683Y-85132128D01*
X50436683Y-85132128D02*
X50365255Y-85060700D01*
X50365255Y-85060700D02*
X50436683Y-84989271D01*
X50436683Y-84989271D02*
X50436683Y-85132128D01*
X50436683Y-84203557D02*
X50508112Y-84274985D01*
X50508112Y-84274985D02*
X50436683Y-84346414D01*
X50436683Y-84346414D02*
X50365255Y-84274985D01*
X50365255Y-84274985D02*
X50436683Y-84203557D01*
X50436683Y-84203557D02*
X50436683Y-84346414D01*
X52293826Y-83632128D02*
X52293826Y-84846414D01*
X52293826Y-84846414D02*
X52365255Y-84989271D01*
X52365255Y-84989271D02*
X52436684Y-85060700D01*
X52436684Y-85060700D02*
X52579541Y-85132128D01*
X52579541Y-85132128D02*
X52865255Y-85132128D01*
X52865255Y-85132128D02*
X53008112Y-85060700D01*
X53008112Y-85060700D02*
X53079541Y-84989271D01*
X53079541Y-84989271D02*
X53150969Y-84846414D01*
X53150969Y-84846414D02*
X53150969Y-83632128D01*
X53793827Y-85060700D02*
X54008113Y-85132128D01*
X54008113Y-85132128D02*
X54365255Y-85132128D01*
X54365255Y-85132128D02*
X54508113Y-85060700D01*
X54508113Y-85060700D02*
X54579541Y-84989271D01*
X54579541Y-84989271D02*
X54650970Y-84846414D01*
X54650970Y-84846414D02*
X54650970Y-84703557D01*
X54650970Y-84703557D02*
X54579541Y-84560700D01*
X54579541Y-84560700D02*
X54508113Y-84489271D01*
X54508113Y-84489271D02*
X54365255Y-84417842D01*
X54365255Y-84417842D02*
X54079541Y-84346414D01*
X54079541Y-84346414D02*
X53936684Y-84274985D01*
X53936684Y-84274985D02*
X53865255Y-84203557D01*
X53865255Y-84203557D02*
X53793827Y-84060700D01*
X53793827Y-84060700D02*
X53793827Y-83917842D01*
X53793827Y-83917842D02*
X53865255Y-83774985D01*
X53865255Y-83774985D02*
X53936684Y-83703557D01*
X53936684Y-83703557D02*
X54079541Y-83632128D01*
X54079541Y-83632128D02*
X54436684Y-83632128D01*
X54436684Y-83632128D02*
X54650970Y-83703557D01*
X56008112Y-85132128D02*
X55293826Y-85132128D01*
X55293826Y-85132128D02*
X55293826Y-83632128D01*
X57079541Y-85060700D02*
X56936684Y-85132128D01*
X56936684Y-85132128D02*
X56650970Y-85132128D01*
X56650970Y-85132128D02*
X56508112Y-85060700D01*
X56508112Y-85060700D02*
X56436684Y-84917842D01*
X56436684Y-84917842D02*
X56436684Y-84346414D01*
X56436684Y-84346414D02*
X56508112Y-84203557D01*
X56508112Y-84203557D02*
X56650970Y-84132128D01*
X56650970Y-84132128D02*
X56936684Y-84132128D01*
X56936684Y-84132128D02*
X57079541Y-84203557D01*
X57079541Y-84203557D02*
X57150970Y-84346414D01*
X57150970Y-84346414D02*
X57150970Y-84489271D01*
X57150970Y-84489271D02*
X56436684Y-84632128D01*
X57579541Y-84132128D02*
X58150969Y-84132128D01*
X57793826Y-83632128D02*
X57793826Y-84917842D01*
X57793826Y-84917842D02*
X57865255Y-85060700D01*
X57865255Y-85060700D02*
X58008112Y-85132128D01*
X58008112Y-85132128D02*
X58150969Y-85132128D01*
X58436684Y-84132128D02*
X59008112Y-84132128D01*
X58650969Y-83632128D02*
X58650969Y-84917842D01*
X58650969Y-84917842D02*
X58722398Y-85060700D01*
X58722398Y-85060700D02*
X58865255Y-85132128D01*
X58865255Y-85132128D02*
X59008112Y-85132128D01*
X60079541Y-85060700D02*
X59936684Y-85132128D01*
X59936684Y-85132128D02*
X59650970Y-85132128D01*
X59650970Y-85132128D02*
X59508112Y-85060700D01*
X59508112Y-85060700D02*
X59436684Y-84917842D01*
X59436684Y-84917842D02*
X59436684Y-84346414D01*
X59436684Y-84346414D02*
X59508112Y-84203557D01*
X59508112Y-84203557D02*
X59650970Y-84132128D01*
X59650970Y-84132128D02*
X59936684Y-84132128D01*
X59936684Y-84132128D02*
X60079541Y-84203557D01*
X60079541Y-84203557D02*
X60150970Y-84346414D01*
X60150970Y-84346414D02*
X60150970Y-84489271D01*
X60150970Y-84489271D02*
X59436684Y-84632128D01*
X60793826Y-85132128D02*
X60793826Y-84132128D01*
X60793826Y-84417842D02*
X60865255Y-84274985D01*
X60865255Y-84274985D02*
X60936684Y-84203557D01*
X60936684Y-84203557D02*
X61079541Y-84132128D01*
X61079541Y-84132128D02*
X61222398Y-84132128D01*
D10*
D11*
X130793826Y-87932128D02*
X130793826Y-86432128D01*
X132150970Y-87932128D02*
X132150970Y-86432128D01*
X132150970Y-87860700D02*
X132008112Y-87932128D01*
X132008112Y-87932128D02*
X131722398Y-87932128D01*
X131722398Y-87932128D02*
X131579541Y-87860700D01*
X131579541Y-87860700D02*
X131508112Y-87789271D01*
X131508112Y-87789271D02*
X131436684Y-87646414D01*
X131436684Y-87646414D02*
X131436684Y-87217842D01*
X131436684Y-87217842D02*
X131508112Y-87074985D01*
X131508112Y-87074985D02*
X131579541Y-87003557D01*
X131579541Y-87003557D02*
X131722398Y-86932128D01*
X131722398Y-86932128D02*
X132008112Y-86932128D01*
X132008112Y-86932128D02*
X132150970Y-87003557D01*
X132865255Y-87789271D02*
X132936684Y-87860700D01*
X132936684Y-87860700D02*
X132865255Y-87932128D01*
X132865255Y-87932128D02*
X132793827Y-87860700D01*
X132793827Y-87860700D02*
X132865255Y-87789271D01*
X132865255Y-87789271D02*
X132865255Y-87932128D01*
X132865255Y-87003557D02*
X132936684Y-87074985D01*
X132936684Y-87074985D02*
X132865255Y-87146414D01*
X132865255Y-87146414D02*
X132793827Y-87074985D01*
X132793827Y-87074985D02*
X132865255Y-87003557D01*
X132865255Y-87003557D02*
X132865255Y-87146414D01*
X135508113Y-87932128D02*
X134650970Y-87932128D01*
X135079541Y-87932128D02*
X135079541Y-86432128D01*
X135079541Y-86432128D02*
X134936684Y-86646414D01*
X134936684Y-86646414D02*
X134793827Y-86789271D01*
X134793827Y-86789271D02*
X134650970Y-86860700D01*
X137222398Y-86360700D02*
X135936684Y-88289271D01*
X138508113Y-87932128D02*
X137650970Y-87932128D01*
X138079541Y-87932128D02*
X138079541Y-86432128D01*
X138079541Y-86432128D02*
X137936684Y-86646414D01*
X137936684Y-86646414D02*
X137793827Y-86789271D01*
X137793827Y-86789271D02*
X137650970Y-86860700D01*
D10*
D11*
X44338000Y-78846000D02*
X152338000Y-78846000D01*
D10*
D13*
X46029728Y-79550438D02*
X47172585Y-79550438D01*
X46351157Y-81550438D02*
X46601157Y-79550438D01*
X47589252Y-81550438D02*
X47755919Y-80217104D01*
X47839252Y-79550438D02*
X47732109Y-79645676D01*
X47732109Y-79645676D02*
X47815443Y-79740914D01*
X47815443Y-79740914D02*
X47922586Y-79645676D01*
X47922586Y-79645676D02*
X47839252Y-79550438D01*
X47839252Y-79550438D02*
X47815443Y-79740914D01*
X48422586Y-80217104D02*
X49184490Y-80217104D01*
X48791633Y-79550438D02*
X48577348Y-81264723D01*
X48577348Y-81264723D02*
X48648776Y-81455200D01*
X48648776Y-81455200D02*
X48827348Y-81550438D01*
X48827348Y-81550438D02*
X49017824Y-81550438D01*
X49970205Y-81550438D02*
X49791633Y-81455200D01*
X49791633Y-81455200D02*
X49720205Y-81264723D01*
X49720205Y-81264723D02*
X49934490Y-79550438D01*
X51505919Y-81455200D02*
X51303538Y-81550438D01*
X51303538Y-81550438D02*
X50922585Y-81550438D01*
X50922585Y-81550438D02*
X50744014Y-81455200D01*
X50744014Y-81455200D02*
X50672585Y-81264723D01*
X50672585Y-81264723D02*
X50767824Y-80502819D01*
X50767824Y-80502819D02*
X50886871Y-80312342D01*
X50886871Y-80312342D02*
X51089252Y-80217104D01*
X51089252Y-80217104D02*
X51470204Y-80217104D01*
X51470204Y-80217104D02*
X51648776Y-80312342D01*
X51648776Y-80312342D02*
X51720204Y-80502819D01*
X51720204Y-80502819D02*
X51696395Y-80693295D01*
X51696395Y-80693295D02*
X50720204Y-80883771D01*
X52470205Y-81359961D02*
X52553538Y-81455200D01*
X52553538Y-81455200D02*
X52446395Y-81550438D01*
X52446395Y-81550438D02*
X52363062Y-81455200D01*
X52363062Y-81455200D02*
X52470205Y-81359961D01*
X52470205Y-81359961D02*
X52446395Y-81550438D01*
X52601157Y-80312342D02*
X52684490Y-80407580D01*
X52684490Y-80407580D02*
X52577348Y-80502819D01*
X52577348Y-80502819D02*
X52494014Y-80407580D01*
X52494014Y-80407580D02*
X52601157Y-80312342D01*
X52601157Y-80312342D02*
X52577348Y-80502819D01*
X55053539Y-80502819D02*
X55720205Y-80502819D01*
X55874967Y-81550438D02*
X54922586Y-81550438D01*
X54922586Y-81550438D02*
X55172586Y-79550438D01*
X55172586Y-79550438D02*
X56124967Y-79550438D01*
X56648777Y-81455200D02*
X56922586Y-81550438D01*
X56922586Y-81550438D02*
X57398777Y-81550438D01*
X57398777Y-81550438D02*
X57601158Y-81455200D01*
X57601158Y-81455200D02*
X57708301Y-81359961D01*
X57708301Y-81359961D02*
X57827348Y-81169485D01*
X57827348Y-81169485D02*
X57851158Y-80979009D01*
X57851158Y-80979009D02*
X57779729Y-80788533D01*
X57779729Y-80788533D02*
X57696396Y-80693295D01*
X57696396Y-80693295D02*
X57517825Y-80598057D01*
X57517825Y-80598057D02*
X57148777Y-80502819D01*
X57148777Y-80502819D02*
X56970205Y-80407580D01*
X56970205Y-80407580D02*
X56886872Y-80312342D01*
X56886872Y-80312342D02*
X56815444Y-80121866D01*
X56815444Y-80121866D02*
X56839253Y-79931390D01*
X56839253Y-79931390D02*
X56958301Y-79740914D01*
X56958301Y-79740914D02*
X57065444Y-79645676D01*
X57065444Y-79645676D02*
X57267825Y-79550438D01*
X57267825Y-79550438D02*
X57744015Y-79550438D01*
X57744015Y-79550438D02*
X58017825Y-79645676D01*
X58636872Y-81550438D02*
X58886872Y-79550438D01*
X58886872Y-79550438D02*
X59648777Y-79550438D01*
X59648777Y-79550438D02*
X59827348Y-79645676D01*
X59827348Y-79645676D02*
X59910682Y-79740914D01*
X59910682Y-79740914D02*
X59982110Y-79931390D01*
X59982110Y-79931390D02*
X59946396Y-80217104D01*
X59946396Y-80217104D02*
X59827348Y-80407580D01*
X59827348Y-80407580D02*
X59720206Y-80502819D01*
X59720206Y-80502819D02*
X59517825Y-80598057D01*
X59517825Y-80598057D02*
X58755920Y-80598057D01*
X60696396Y-79550438D02*
X61934491Y-79550438D01*
X61934491Y-79550438D02*
X61172587Y-80312342D01*
X61172587Y-80312342D02*
X61458301Y-80312342D01*
X61458301Y-80312342D02*
X61636872Y-80407580D01*
X61636872Y-80407580D02*
X61720206Y-80502819D01*
X61720206Y-80502819D02*
X61791634Y-80693295D01*
X61791634Y-80693295D02*
X61732110Y-81169485D01*
X61732110Y-81169485D02*
X61613063Y-81359961D01*
X61613063Y-81359961D02*
X61505920Y-81455200D01*
X61505920Y-81455200D02*
X61303539Y-81550438D01*
X61303539Y-81550438D02*
X60732110Y-81550438D01*
X60732110Y-81550438D02*
X60553539Y-81455200D01*
X60553539Y-81455200D02*
X60470206Y-81359961D01*
X62672587Y-79740914D02*
X62779729Y-79645676D01*
X62779729Y-79645676D02*
X62982110Y-79550438D01*
X62982110Y-79550438D02*
X63458301Y-79550438D01*
X63458301Y-79550438D02*
X63636872Y-79645676D01*
X63636872Y-79645676D02*
X63720206Y-79740914D01*
X63720206Y-79740914D02*
X63791634Y-79931390D01*
X63791634Y-79931390D02*
X63767825Y-80121866D01*
X63767825Y-80121866D02*
X63636872Y-80407580D01*
X63636872Y-80407580D02*
X62351158Y-81550438D01*
X62351158Y-81550438D02*
X63589253Y-81550438D01*
X67113063Y-81550438D02*
X66565444Y-80598057D01*
X65970206Y-81550438D02*
X66220206Y-79550438D01*
X66220206Y-79550438D02*
X66982111Y-79550438D01*
X66982111Y-79550438D02*
X67160682Y-79645676D01*
X67160682Y-79645676D02*
X67244016Y-79740914D01*
X67244016Y-79740914D02*
X67315444Y-79931390D01*
X67315444Y-79931390D02*
X67279730Y-80217104D01*
X67279730Y-80217104D02*
X67160682Y-80407580D01*
X67160682Y-80407580D02*
X67053540Y-80502819D01*
X67053540Y-80502819D02*
X66851159Y-80598057D01*
X66851159Y-80598057D02*
X66089254Y-80598057D01*
X69136873Y-81359961D02*
X69029730Y-81455200D01*
X69029730Y-81455200D02*
X68732111Y-81550438D01*
X68732111Y-81550438D02*
X68541635Y-81550438D01*
X68541635Y-81550438D02*
X68267825Y-81455200D01*
X68267825Y-81455200D02*
X68101159Y-81264723D01*
X68101159Y-81264723D02*
X68029730Y-81074247D01*
X68029730Y-81074247D02*
X67982111Y-80693295D01*
X67982111Y-80693295D02*
X68017825Y-80407580D01*
X68017825Y-80407580D02*
X68160682Y-80026628D01*
X68160682Y-80026628D02*
X68279730Y-79836152D01*
X68279730Y-79836152D02*
X68494016Y-79645676D01*
X68494016Y-79645676D02*
X68791635Y-79550438D01*
X68791635Y-79550438D02*
X68982111Y-79550438D01*
X68982111Y-79550438D02*
X69255921Y-79645676D01*
X69255921Y-79645676D02*
X69339254Y-79740914D01*
D10*
D11*
X46293826Y-76946414D02*
X45793826Y-76946414D01*
X45793826Y-77732128D02*
X45793826Y-76232128D01*
X45793826Y-76232128D02*
X46508112Y-76232128D01*
X47079540Y-77732128D02*
X47079540Y-76732128D01*
X47079540Y-76232128D02*
X47008112Y-76303557D01*
X47008112Y-76303557D02*
X47079540Y-76374985D01*
X47079540Y-76374985D02*
X47150969Y-76303557D01*
X47150969Y-76303557D02*
X47079540Y-76232128D01*
X47079540Y-76232128D02*
X47079540Y-76374985D01*
X48008112Y-77732128D02*
X47865255Y-77660700D01*
X47865255Y-77660700D02*
X47793826Y-77517842D01*
X47793826Y-77517842D02*
X47793826Y-76232128D01*
X49150969Y-77660700D02*
X49008112Y-77732128D01*
X49008112Y-77732128D02*
X48722398Y-77732128D01*
X48722398Y-77732128D02*
X48579540Y-77660700D01*
X48579540Y-77660700D02*
X48508112Y-77517842D01*
X48508112Y-77517842D02*
X48508112Y-76946414D01*
X48508112Y-76946414D02*
X48579540Y-76803557D01*
X48579540Y-76803557D02*
X48722398Y-76732128D01*
X48722398Y-76732128D02*
X49008112Y-76732128D01*
X49008112Y-76732128D02*
X49150969Y-76803557D01*
X49150969Y-76803557D02*
X49222398Y-76946414D01*
X49222398Y-76946414D02*
X49222398Y-77089271D01*
X49222398Y-77089271D02*
X48508112Y-77232128D01*
X49865254Y-77589271D02*
X49936683Y-77660700D01*
X49936683Y-77660700D02*
X49865254Y-77732128D01*
X49865254Y-77732128D02*
X49793826Y-77660700D01*
X49793826Y-77660700D02*
X49865254Y-77589271D01*
X49865254Y-77589271D02*
X49865254Y-77732128D01*
X49865254Y-76803557D02*
X49936683Y-76874985D01*
X49936683Y-76874985D02*
X49865254Y-76946414D01*
X49865254Y-76946414D02*
X49793826Y-76874985D01*
X49793826Y-76874985D02*
X49865254Y-76803557D01*
X49865254Y-76803557D02*
X49865254Y-76946414D01*
X51722397Y-76946414D02*
X52222397Y-76946414D01*
X52436683Y-77732128D02*
X51722397Y-77732128D01*
X51722397Y-77732128D02*
X51722397Y-76232128D01*
X51722397Y-76232128D02*
X52436683Y-76232128D01*
X53008112Y-77660700D02*
X53222398Y-77732128D01*
X53222398Y-77732128D02*
X53579540Y-77732128D01*
X53579540Y-77732128D02*
X53722398Y-77660700D01*
X53722398Y-77660700D02*
X53793826Y-77589271D01*
X53793826Y-77589271D02*
X53865255Y-77446414D01*
X53865255Y-77446414D02*
X53865255Y-77303557D01*
X53865255Y-77303557D02*
X53793826Y-77160700D01*
X53793826Y-77160700D02*
X53722398Y-77089271D01*
X53722398Y-77089271D02*
X53579540Y-77017842D01*
X53579540Y-77017842D02*
X53293826Y-76946414D01*
X53293826Y-76946414D02*
X53150969Y-76874985D01*
X53150969Y-76874985D02*
X53079540Y-76803557D01*
X53079540Y-76803557D02*
X53008112Y-76660700D01*
X53008112Y-76660700D02*
X53008112Y-76517842D01*
X53008112Y-76517842D02*
X53079540Y-76374985D01*
X53079540Y-76374985D02*
X53150969Y-76303557D01*
X53150969Y-76303557D02*
X53293826Y-76232128D01*
X53293826Y-76232128D02*
X53650969Y-76232128D01*
X53650969Y-76232128D02*
X53865255Y-76303557D01*
X54508111Y-77732128D02*
X54508111Y-76232128D01*
X54508111Y-76232128D02*
X55079540Y-76232128D01*
X55079540Y-76232128D02*
X55222397Y-76303557D01*
X55222397Y-76303557D02*
X55293826Y-76374985D01*
X55293826Y-76374985D02*
X55365254Y-76517842D01*
X55365254Y-76517842D02*
X55365254Y-76732128D01*
X55365254Y-76732128D02*
X55293826Y-76874985D01*
X55293826Y-76874985D02*
X55222397Y-76946414D01*
X55222397Y-76946414D02*
X55079540Y-77017842D01*
X55079540Y-77017842D02*
X54508111Y-77017842D01*
X55865254Y-76232128D02*
X56793826Y-76232128D01*
X56793826Y-76232128D02*
X56293826Y-76803557D01*
X56293826Y-76803557D02*
X56508111Y-76803557D01*
X56508111Y-76803557D02*
X56650969Y-76874985D01*
X56650969Y-76874985D02*
X56722397Y-76946414D01*
X56722397Y-76946414D02*
X56793826Y-77089271D01*
X56793826Y-77089271D02*
X56793826Y-77446414D01*
X56793826Y-77446414D02*
X56722397Y-77589271D01*
X56722397Y-77589271D02*
X56650969Y-77660700D01*
X56650969Y-77660700D02*
X56508111Y-77732128D01*
X56508111Y-77732128D02*
X56079540Y-77732128D01*
X56079540Y-77732128D02*
X55936683Y-77660700D01*
X55936683Y-77660700D02*
X55865254Y-77589271D01*
X57365254Y-76374985D02*
X57436682Y-76303557D01*
X57436682Y-76303557D02*
X57579540Y-76232128D01*
X57579540Y-76232128D02*
X57936682Y-76232128D01*
X57936682Y-76232128D02*
X58079540Y-76303557D01*
X58079540Y-76303557D02*
X58150968Y-76374985D01*
X58150968Y-76374985D02*
X58222397Y-76517842D01*
X58222397Y-76517842D02*
X58222397Y-76660700D01*
X58222397Y-76660700D02*
X58150968Y-76874985D01*
X58150968Y-76874985D02*
X57293825Y-77732128D01*
X57293825Y-77732128D02*
X58222397Y-77732128D01*
X58865253Y-77160700D02*
X60008111Y-77160700D01*
X61579539Y-77732128D02*
X61079539Y-77017842D01*
X60722396Y-77732128D02*
X60722396Y-76232128D01*
X60722396Y-76232128D02*
X61293825Y-76232128D01*
X61293825Y-76232128D02*
X61436682Y-76303557D01*
X61436682Y-76303557D02*
X61508111Y-76374985D01*
X61508111Y-76374985D02*
X61579539Y-76517842D01*
X61579539Y-76517842D02*
X61579539Y-76732128D01*
X61579539Y-76732128D02*
X61508111Y-76874985D01*
X61508111Y-76874985D02*
X61436682Y-76946414D01*
X61436682Y-76946414D02*
X61293825Y-77017842D01*
X61293825Y-77017842D02*
X60722396Y-77017842D01*
X63079539Y-77589271D02*
X63008111Y-77660700D01*
X63008111Y-77660700D02*
X62793825Y-77732128D01*
X62793825Y-77732128D02*
X62650968Y-77732128D01*
X62650968Y-77732128D02*
X62436682Y-77660700D01*
X62436682Y-77660700D02*
X62293825Y-77517842D01*
X62293825Y-77517842D02*
X62222396Y-77374985D01*
X62222396Y-77374985D02*
X62150968Y-77089271D01*
X62150968Y-77089271D02*
X62150968Y-76874985D01*
X62150968Y-76874985D02*
X62222396Y-76589271D01*
X62222396Y-76589271D02*
X62293825Y-76446414D01*
X62293825Y-76446414D02*
X62436682Y-76303557D01*
X62436682Y-76303557D02*
X62650968Y-76232128D01*
X62650968Y-76232128D02*
X62793825Y-76232128D01*
X62793825Y-76232128D02*
X63008111Y-76303557D01*
X63008111Y-76303557D02*
X63079539Y-76374985D01*
X63365254Y-77874985D02*
X64508111Y-77874985D01*
X65722396Y-77732128D02*
X65222396Y-77017842D01*
X64865253Y-77732128D02*
X64865253Y-76232128D01*
X64865253Y-76232128D02*
X65436682Y-76232128D01*
X65436682Y-76232128D02*
X65579539Y-76303557D01*
X65579539Y-76303557D02*
X65650968Y-76374985D01*
X65650968Y-76374985D02*
X65722396Y-76517842D01*
X65722396Y-76517842D02*
X65722396Y-76732128D01*
X65722396Y-76732128D02*
X65650968Y-76874985D01*
X65650968Y-76874985D02*
X65579539Y-76946414D01*
X65579539Y-76946414D02*
X65436682Y-77017842D01*
X65436682Y-77017842D02*
X64865253Y-77017842D01*
X66650968Y-76232128D02*
X66793825Y-76232128D01*
X66793825Y-76232128D02*
X66936682Y-76303557D01*
X66936682Y-76303557D02*
X67008111Y-76374985D01*
X67008111Y-76374985D02*
X67079539Y-76517842D01*
X67079539Y-76517842D02*
X67150968Y-76803557D01*
X67150968Y-76803557D02*
X67150968Y-77160700D01*
X67150968Y-77160700D02*
X67079539Y-77446414D01*
X67079539Y-77446414D02*
X67008111Y-77589271D01*
X67008111Y-77589271D02*
X66936682Y-77660700D01*
X66936682Y-77660700D02*
X66793825Y-77732128D01*
X66793825Y-77732128D02*
X66650968Y-77732128D01*
X66650968Y-77732128D02*
X66508111Y-77660700D01*
X66508111Y-77660700D02*
X66436682Y-77589271D01*
X66436682Y-77589271D02*
X66365253Y-77446414D01*
X66365253Y-77446414D02*
X66293825Y-77160700D01*
X66293825Y-77160700D02*
X66293825Y-76803557D01*
X66293825Y-76803557D02*
X66365253Y-76517842D01*
X66365253Y-76517842D02*
X66436682Y-76374985D01*
X66436682Y-76374985D02*
X66508111Y-76303557D01*
X66508111Y-76303557D02*
X66650968Y-76232128D01*
X67793824Y-77589271D02*
X67865253Y-77660700D01*
X67865253Y-77660700D02*
X67793824Y-77732128D01*
X67793824Y-77732128D02*
X67722396Y-77660700D01*
X67722396Y-77660700D02*
X67793824Y-77589271D01*
X67793824Y-77589271D02*
X67793824Y-77732128D01*
X68508110Y-77732128D02*
X68508110Y-76232128D01*
X68650968Y-77160700D02*
X69079539Y-77732128D01*
X69079539Y-76732128D02*
X68508110Y-77303557D01*
X69722396Y-77732128D02*
X69722396Y-76732128D01*
X69722396Y-76232128D02*
X69650968Y-76303557D01*
X69650968Y-76303557D02*
X69722396Y-76374985D01*
X69722396Y-76374985D02*
X69793825Y-76303557D01*
X69793825Y-76303557D02*
X69722396Y-76232128D01*
X69722396Y-76232128D02*
X69722396Y-76374985D01*
X71079540Y-77660700D02*
X70936682Y-77732128D01*
X70936682Y-77732128D02*
X70650968Y-77732128D01*
X70650968Y-77732128D02*
X70508111Y-77660700D01*
X70508111Y-77660700D02*
X70436682Y-77589271D01*
X70436682Y-77589271D02*
X70365254Y-77446414D01*
X70365254Y-77446414D02*
X70365254Y-77017842D01*
X70365254Y-77017842D02*
X70436682Y-76874985D01*
X70436682Y-76874985D02*
X70508111Y-76803557D01*
X70508111Y-76803557D02*
X70650968Y-76732128D01*
X70650968Y-76732128D02*
X70936682Y-76732128D01*
X70936682Y-76732128D02*
X71079540Y-76803557D01*
X72365254Y-77732128D02*
X72365254Y-76946414D01*
X72365254Y-76946414D02*
X72293825Y-76803557D01*
X72293825Y-76803557D02*
X72150968Y-76732128D01*
X72150968Y-76732128D02*
X71865254Y-76732128D01*
X71865254Y-76732128D02*
X71722396Y-76803557D01*
X72365254Y-77660700D02*
X72222396Y-77732128D01*
X72222396Y-77732128D02*
X71865254Y-77732128D01*
X71865254Y-77732128D02*
X71722396Y-77660700D01*
X71722396Y-77660700D02*
X71650968Y-77517842D01*
X71650968Y-77517842D02*
X71650968Y-77374985D01*
X71650968Y-77374985D02*
X71722396Y-77232128D01*
X71722396Y-77232128D02*
X71865254Y-77160700D01*
X71865254Y-77160700D02*
X72222396Y-77160700D01*
X72222396Y-77160700D02*
X72365254Y-77089271D01*
X73722397Y-77732128D02*
X73722397Y-76232128D01*
X73722397Y-77660700D02*
X73579539Y-77732128D01*
X73579539Y-77732128D02*
X73293825Y-77732128D01*
X73293825Y-77732128D02*
X73150968Y-77660700D01*
X73150968Y-77660700D02*
X73079539Y-77589271D01*
X73079539Y-77589271D02*
X73008111Y-77446414D01*
X73008111Y-77446414D02*
X73008111Y-77017842D01*
X73008111Y-77017842D02*
X73079539Y-76874985D01*
X73079539Y-76874985D02*
X73150968Y-76803557D01*
X73150968Y-76803557D02*
X73293825Y-76732128D01*
X73293825Y-76732128D02*
X73579539Y-76732128D01*
X73579539Y-76732128D02*
X73722397Y-76803557D01*
X74079540Y-77874985D02*
X75222397Y-77874985D01*
X75579539Y-76732128D02*
X75579539Y-78232128D01*
X75579539Y-76803557D02*
X75722397Y-76732128D01*
X75722397Y-76732128D02*
X76008111Y-76732128D01*
X76008111Y-76732128D02*
X76150968Y-76803557D01*
X76150968Y-76803557D02*
X76222397Y-76874985D01*
X76222397Y-76874985D02*
X76293825Y-77017842D01*
X76293825Y-77017842D02*
X76293825Y-77446414D01*
X76293825Y-77446414D02*
X76222397Y-77589271D01*
X76222397Y-77589271D02*
X76150968Y-77660700D01*
X76150968Y-77660700D02*
X76008111Y-77732128D01*
X76008111Y-77732128D02*
X75722397Y-77732128D01*
X75722397Y-77732128D02*
X75579539Y-77660700D01*
X77579540Y-77660700D02*
X77436682Y-77732128D01*
X77436682Y-77732128D02*
X77150968Y-77732128D01*
X77150968Y-77732128D02*
X77008111Y-77660700D01*
X77008111Y-77660700D02*
X76936682Y-77589271D01*
X76936682Y-77589271D02*
X76865254Y-77446414D01*
X76865254Y-77446414D02*
X76865254Y-77017842D01*
X76865254Y-77017842D02*
X76936682Y-76874985D01*
X76936682Y-76874985D02*
X77008111Y-76803557D01*
X77008111Y-76803557D02*
X77150968Y-76732128D01*
X77150968Y-76732128D02*
X77436682Y-76732128D01*
X77436682Y-76732128D02*
X77579540Y-76803557D01*
X78222396Y-77732128D02*
X78222396Y-76232128D01*
X78222396Y-76803557D02*
X78365254Y-76732128D01*
X78365254Y-76732128D02*
X78650968Y-76732128D01*
X78650968Y-76732128D02*
X78793825Y-76803557D01*
X78793825Y-76803557D02*
X78865254Y-76874985D01*
X78865254Y-76874985D02*
X78936682Y-77017842D01*
X78936682Y-77017842D02*
X78936682Y-77446414D01*
X78936682Y-77446414D02*
X78865254Y-77589271D01*
X78865254Y-77589271D02*
X78793825Y-77660700D01*
X78793825Y-77660700D02*
X78650968Y-77732128D01*
X78650968Y-77732128D02*
X78365254Y-77732128D01*
X78365254Y-77732128D02*
X78222396Y-77660700D01*
D10*
D11*
X44338000Y-72846000D02*
X152338000Y-72846000D01*
D10*
D11*
X45722398Y-74960700D02*
X45936684Y-75032128D01*
X45936684Y-75032128D02*
X46293826Y-75032128D01*
X46293826Y-75032128D02*
X46436684Y-74960700D01*
X46436684Y-74960700D02*
X46508112Y-74889271D01*
X46508112Y-74889271D02*
X46579541Y-74746414D01*
X46579541Y-74746414D02*
X46579541Y-74603557D01*
X46579541Y-74603557D02*
X46508112Y-74460700D01*
X46508112Y-74460700D02*
X46436684Y-74389271D01*
X46436684Y-74389271D02*
X46293826Y-74317842D01*
X46293826Y-74317842D02*
X46008112Y-74246414D01*
X46008112Y-74246414D02*
X45865255Y-74174985D01*
X45865255Y-74174985D02*
X45793826Y-74103557D01*
X45793826Y-74103557D02*
X45722398Y-73960700D01*
X45722398Y-73960700D02*
X45722398Y-73817842D01*
X45722398Y-73817842D02*
X45793826Y-73674985D01*
X45793826Y-73674985D02*
X45865255Y-73603557D01*
X45865255Y-73603557D02*
X46008112Y-73532128D01*
X46008112Y-73532128D02*
X46365255Y-73532128D01*
X46365255Y-73532128D02*
X46579541Y-73603557D01*
X47222397Y-75032128D02*
X47222397Y-73532128D01*
X47865255Y-75032128D02*
X47865255Y-74246414D01*
X47865255Y-74246414D02*
X47793826Y-74103557D01*
X47793826Y-74103557D02*
X47650969Y-74032128D01*
X47650969Y-74032128D02*
X47436683Y-74032128D01*
X47436683Y-74032128D02*
X47293826Y-74103557D01*
X47293826Y-74103557D02*
X47222397Y-74174985D01*
X49150969Y-74960700D02*
X49008112Y-75032128D01*
X49008112Y-75032128D02*
X48722398Y-75032128D01*
X48722398Y-75032128D02*
X48579540Y-74960700D01*
X48579540Y-74960700D02*
X48508112Y-74817842D01*
X48508112Y-74817842D02*
X48508112Y-74246414D01*
X48508112Y-74246414D02*
X48579540Y-74103557D01*
X48579540Y-74103557D02*
X48722398Y-74032128D01*
X48722398Y-74032128D02*
X49008112Y-74032128D01*
X49008112Y-74032128D02*
X49150969Y-74103557D01*
X49150969Y-74103557D02*
X49222398Y-74246414D01*
X49222398Y-74246414D02*
X49222398Y-74389271D01*
X49222398Y-74389271D02*
X48508112Y-74532128D01*
X50436683Y-74960700D02*
X50293826Y-75032128D01*
X50293826Y-75032128D02*
X50008112Y-75032128D01*
X50008112Y-75032128D02*
X49865254Y-74960700D01*
X49865254Y-74960700D02*
X49793826Y-74817842D01*
X49793826Y-74817842D02*
X49793826Y-74246414D01*
X49793826Y-74246414D02*
X49865254Y-74103557D01*
X49865254Y-74103557D02*
X50008112Y-74032128D01*
X50008112Y-74032128D02*
X50293826Y-74032128D01*
X50293826Y-74032128D02*
X50436683Y-74103557D01*
X50436683Y-74103557D02*
X50508112Y-74246414D01*
X50508112Y-74246414D02*
X50508112Y-74389271D01*
X50508112Y-74389271D02*
X49793826Y-74532128D01*
X50936683Y-74032128D02*
X51508111Y-74032128D01*
X51150968Y-73532128D02*
X51150968Y-74817842D01*
X51150968Y-74817842D02*
X51222397Y-74960700D01*
X51222397Y-74960700D02*
X51365254Y-75032128D01*
X51365254Y-75032128D02*
X51508111Y-75032128D01*
X52008111Y-74889271D02*
X52079540Y-74960700D01*
X52079540Y-74960700D02*
X52008111Y-75032128D01*
X52008111Y-75032128D02*
X51936683Y-74960700D01*
X51936683Y-74960700D02*
X52008111Y-74889271D01*
X52008111Y-74889271D02*
X52008111Y-75032128D01*
X52008111Y-74103557D02*
X52079540Y-74174985D01*
X52079540Y-74174985D02*
X52008111Y-74246414D01*
X52008111Y-74246414D02*
X51936683Y-74174985D01*
X51936683Y-74174985D02*
X52008111Y-74103557D01*
X52008111Y-74103557D02*
X52008111Y-74246414D01*
D10*
D12*
X45749653Y-70524328D02*
X46106796Y-72024328D01*
X46106796Y-72024328D02*
X46392510Y-70952900D01*
X46392510Y-70952900D02*
X46678225Y-72024328D01*
X46678225Y-72024328D02*
X47035368Y-70524328D01*
X47606796Y-72024328D02*
X47606796Y-71024328D01*
X47606796Y-70524328D02*
X47535368Y-70595757D01*
X47535368Y-70595757D02*
X47606796Y-70667185D01*
X47606796Y-70667185D02*
X47678225Y-70595757D01*
X47678225Y-70595757D02*
X47606796Y-70524328D01*
X47606796Y-70524328D02*
X47606796Y-70667185D01*
X48321082Y-72024328D02*
X48321082Y-71024328D01*
X48321082Y-71310042D02*
X48392511Y-71167185D01*
X48392511Y-71167185D02*
X48463940Y-71095757D01*
X48463940Y-71095757D02*
X48606797Y-71024328D01*
X48606797Y-71024328D02*
X48749654Y-71024328D01*
X49821082Y-71952900D02*
X49678225Y-72024328D01*
X49678225Y-72024328D02*
X49392511Y-72024328D01*
X49392511Y-72024328D02*
X49249653Y-71952900D01*
X49249653Y-71952900D02*
X49178225Y-71810042D01*
X49178225Y-71810042D02*
X49178225Y-71238614D01*
X49178225Y-71238614D02*
X49249653Y-71095757D01*
X49249653Y-71095757D02*
X49392511Y-71024328D01*
X49392511Y-71024328D02*
X49678225Y-71024328D01*
X49678225Y-71024328D02*
X49821082Y-71095757D01*
X49821082Y-71095757D02*
X49892511Y-71238614D01*
X49892511Y-71238614D02*
X49892511Y-71381471D01*
X49892511Y-71381471D02*
X49178225Y-71524328D01*
X50749653Y-72024328D02*
X50606796Y-71952900D01*
X50606796Y-71952900D02*
X50535367Y-71810042D01*
X50535367Y-71810042D02*
X50535367Y-70524328D01*
X51892510Y-71952900D02*
X51749653Y-72024328D01*
X51749653Y-72024328D02*
X51463939Y-72024328D01*
X51463939Y-72024328D02*
X51321081Y-71952900D01*
X51321081Y-71952900D02*
X51249653Y-71810042D01*
X51249653Y-71810042D02*
X51249653Y-71238614D01*
X51249653Y-71238614D02*
X51321081Y-71095757D01*
X51321081Y-71095757D02*
X51463939Y-71024328D01*
X51463939Y-71024328D02*
X51749653Y-71024328D01*
X51749653Y-71024328D02*
X51892510Y-71095757D01*
X51892510Y-71095757D02*
X51963939Y-71238614D01*
X51963939Y-71238614D02*
X51963939Y-71381471D01*
X51963939Y-71381471D02*
X51249653Y-71524328D01*
X52535367Y-71952900D02*
X52678224Y-72024328D01*
X52678224Y-72024328D02*
X52963938Y-72024328D01*
X52963938Y-72024328D02*
X53106795Y-71952900D01*
X53106795Y-71952900D02*
X53178224Y-71810042D01*
X53178224Y-71810042D02*
X53178224Y-71738614D01*
X53178224Y-71738614D02*
X53106795Y-71595757D01*
X53106795Y-71595757D02*
X52963938Y-71524328D01*
X52963938Y-71524328D02*
X52749653Y-71524328D01*
X52749653Y-71524328D02*
X52606795Y-71452900D01*
X52606795Y-71452900D02*
X52535367Y-71310042D01*
X52535367Y-71310042D02*
X52535367Y-71238614D01*
X52535367Y-71238614D02*
X52606795Y-71095757D01*
X52606795Y-71095757D02*
X52749653Y-71024328D01*
X52749653Y-71024328D02*
X52963938Y-71024328D01*
X52963938Y-71024328D02*
X53106795Y-71095757D01*
X53749653Y-71952900D02*
X53892510Y-72024328D01*
X53892510Y-72024328D02*
X54178224Y-72024328D01*
X54178224Y-72024328D02*
X54321081Y-71952900D01*
X54321081Y-71952900D02*
X54392510Y-71810042D01*
X54392510Y-71810042D02*
X54392510Y-71738614D01*
X54392510Y-71738614D02*
X54321081Y-71595757D01*
X54321081Y-71595757D02*
X54178224Y-71524328D01*
X54178224Y-71524328D02*
X53963939Y-71524328D01*
X53963939Y-71524328D02*
X53821081Y-71452900D01*
X53821081Y-71452900D02*
X53749653Y-71310042D01*
X53749653Y-71310042D02*
X53749653Y-71238614D01*
X53749653Y-71238614D02*
X53821081Y-71095757D01*
X53821081Y-71095757D02*
X53963939Y-71024328D01*
X53963939Y-71024328D02*
X54178224Y-71024328D01*
X54178224Y-71024328D02*
X54321081Y-71095757D01*
X56821082Y-72024328D02*
X56821082Y-71238614D01*
X56821082Y-71238614D02*
X56749653Y-71095757D01*
X56749653Y-71095757D02*
X56606796Y-71024328D01*
X56606796Y-71024328D02*
X56321082Y-71024328D01*
X56321082Y-71024328D02*
X56178224Y-71095757D01*
X56821082Y-71952900D02*
X56678224Y-72024328D01*
X56678224Y-72024328D02*
X56321082Y-72024328D01*
X56321082Y-72024328D02*
X56178224Y-71952900D01*
X56178224Y-71952900D02*
X56106796Y-71810042D01*
X56106796Y-71810042D02*
X56106796Y-71667185D01*
X56106796Y-71667185D02*
X56178224Y-71524328D01*
X56178224Y-71524328D02*
X56321082Y-71452900D01*
X56321082Y-71452900D02*
X56678224Y-71452900D01*
X56678224Y-71452900D02*
X56821082Y-71381471D01*
X57535367Y-71024328D02*
X57535367Y-72024328D01*
X57535367Y-71167185D02*
X57606796Y-71095757D01*
X57606796Y-71095757D02*
X57749653Y-71024328D01*
X57749653Y-71024328D02*
X57963939Y-71024328D01*
X57963939Y-71024328D02*
X58106796Y-71095757D01*
X58106796Y-71095757D02*
X58178225Y-71238614D01*
X58178225Y-71238614D02*
X58178225Y-72024328D01*
X59535368Y-72024328D02*
X59535368Y-70524328D01*
X59535368Y-71952900D02*
X59392510Y-72024328D01*
X59392510Y-72024328D02*
X59106796Y-72024328D01*
X59106796Y-72024328D02*
X58963939Y-71952900D01*
X58963939Y-71952900D02*
X58892510Y-71881471D01*
X58892510Y-71881471D02*
X58821082Y-71738614D01*
X58821082Y-71738614D02*
X58821082Y-71310042D01*
X58821082Y-71310042D02*
X58892510Y-71167185D01*
X58892510Y-71167185D02*
X58963939Y-71095757D01*
X58963939Y-71095757D02*
X59106796Y-71024328D01*
X59106796Y-71024328D02*
X59392510Y-71024328D01*
X59392510Y-71024328D02*
X59535368Y-71095757D01*
X62249653Y-71881471D02*
X62178225Y-71952900D01*
X62178225Y-71952900D02*
X61963939Y-72024328D01*
X61963939Y-72024328D02*
X61821082Y-72024328D01*
X61821082Y-72024328D02*
X61606796Y-71952900D01*
X61606796Y-71952900D02*
X61463939Y-71810042D01*
X61463939Y-71810042D02*
X61392510Y-71667185D01*
X61392510Y-71667185D02*
X61321082Y-71381471D01*
X61321082Y-71381471D02*
X61321082Y-71167185D01*
X61321082Y-71167185D02*
X61392510Y-70881471D01*
X61392510Y-70881471D02*
X61463939Y-70738614D01*
X61463939Y-70738614D02*
X61606796Y-70595757D01*
X61606796Y-70595757D02*
X61821082Y-70524328D01*
X61821082Y-70524328D02*
X61963939Y-70524328D01*
X61963939Y-70524328D02*
X62178225Y-70595757D01*
X62178225Y-70595757D02*
X62249653Y-70667185D01*
X63106796Y-72024328D02*
X62963939Y-71952900D01*
X62963939Y-71952900D02*
X62892510Y-71881471D01*
X62892510Y-71881471D02*
X62821082Y-71738614D01*
X62821082Y-71738614D02*
X62821082Y-71310042D01*
X62821082Y-71310042D02*
X62892510Y-71167185D01*
X62892510Y-71167185D02*
X62963939Y-71095757D01*
X62963939Y-71095757D02*
X63106796Y-71024328D01*
X63106796Y-71024328D02*
X63321082Y-71024328D01*
X63321082Y-71024328D02*
X63463939Y-71095757D01*
X63463939Y-71095757D02*
X63535368Y-71167185D01*
X63535368Y-71167185D02*
X63606796Y-71310042D01*
X63606796Y-71310042D02*
X63606796Y-71738614D01*
X63606796Y-71738614D02*
X63535368Y-71881471D01*
X63535368Y-71881471D02*
X63463939Y-71952900D01*
X63463939Y-71952900D02*
X63321082Y-72024328D01*
X63321082Y-72024328D02*
X63106796Y-72024328D01*
X64249653Y-71024328D02*
X64249653Y-72024328D01*
X64249653Y-71167185D02*
X64321082Y-71095757D01*
X64321082Y-71095757D02*
X64463939Y-71024328D01*
X64463939Y-71024328D02*
X64678225Y-71024328D01*
X64678225Y-71024328D02*
X64821082Y-71095757D01*
X64821082Y-71095757D02*
X64892511Y-71238614D01*
X64892511Y-71238614D02*
X64892511Y-72024328D01*
X65392511Y-71024328D02*
X65963939Y-71024328D01*
X65606796Y-70524328D02*
X65606796Y-71810042D01*
X65606796Y-71810042D02*
X65678225Y-71952900D01*
X65678225Y-71952900D02*
X65821082Y-72024328D01*
X65821082Y-72024328D02*
X65963939Y-72024328D01*
X66463939Y-72024328D02*
X66463939Y-71024328D01*
X66463939Y-71310042D02*
X66535368Y-71167185D01*
X66535368Y-71167185D02*
X66606797Y-71095757D01*
X66606797Y-71095757D02*
X66749654Y-71024328D01*
X66749654Y-71024328D02*
X66892511Y-71024328D01*
X67606796Y-72024328D02*
X67463939Y-71952900D01*
X67463939Y-71952900D02*
X67392510Y-71881471D01*
X67392510Y-71881471D02*
X67321082Y-71738614D01*
X67321082Y-71738614D02*
X67321082Y-71310042D01*
X67321082Y-71310042D02*
X67392510Y-71167185D01*
X67392510Y-71167185D02*
X67463939Y-71095757D01*
X67463939Y-71095757D02*
X67606796Y-71024328D01*
X67606796Y-71024328D02*
X67821082Y-71024328D01*
X67821082Y-71024328D02*
X67963939Y-71095757D01*
X67963939Y-71095757D02*
X68035368Y-71167185D01*
X68035368Y-71167185D02*
X68106796Y-71310042D01*
X68106796Y-71310042D02*
X68106796Y-71738614D01*
X68106796Y-71738614D02*
X68035368Y-71881471D01*
X68035368Y-71881471D02*
X67963939Y-71952900D01*
X67963939Y-71952900D02*
X67821082Y-72024328D01*
X67821082Y-72024328D02*
X67606796Y-72024328D01*
X68963939Y-72024328D02*
X68821082Y-71952900D01*
X68821082Y-71952900D02*
X68749653Y-71810042D01*
X68749653Y-71810042D02*
X68749653Y-70524328D01*
X70606796Y-71952900D02*
X70821082Y-72024328D01*
X70821082Y-72024328D02*
X71178224Y-72024328D01*
X71178224Y-72024328D02*
X71321082Y-71952900D01*
X71321082Y-71952900D02*
X71392510Y-71881471D01*
X71392510Y-71881471D02*
X71463939Y-71738614D01*
X71463939Y-71738614D02*
X71463939Y-71595757D01*
X71463939Y-71595757D02*
X71392510Y-71452900D01*
X71392510Y-71452900D02*
X71321082Y-71381471D01*
X71321082Y-71381471D02*
X71178224Y-71310042D01*
X71178224Y-71310042D02*
X70892510Y-71238614D01*
X70892510Y-71238614D02*
X70749653Y-71167185D01*
X70749653Y-71167185D02*
X70678224Y-71095757D01*
X70678224Y-71095757D02*
X70606796Y-70952900D01*
X70606796Y-70952900D02*
X70606796Y-70810042D01*
X70606796Y-70810042D02*
X70678224Y-70667185D01*
X70678224Y-70667185D02*
X70749653Y-70595757D01*
X70749653Y-70595757D02*
X70892510Y-70524328D01*
X70892510Y-70524328D02*
X71249653Y-70524328D01*
X71249653Y-70524328D02*
X71463939Y-70595757D01*
X71963938Y-71024328D02*
X72321081Y-72024328D01*
X72678224Y-71024328D02*
X72321081Y-72024328D01*
X72321081Y-72024328D02*
X72178224Y-72381471D01*
X72178224Y-72381471D02*
X72106795Y-72452900D01*
X72106795Y-72452900D02*
X71963938Y-72524328D01*
X73178224Y-71952900D02*
X73321081Y-72024328D01*
X73321081Y-72024328D02*
X73606795Y-72024328D01*
X73606795Y-72024328D02*
X73749652Y-71952900D01*
X73749652Y-71952900D02*
X73821081Y-71810042D01*
X73821081Y-71810042D02*
X73821081Y-71738614D01*
X73821081Y-71738614D02*
X73749652Y-71595757D01*
X73749652Y-71595757D02*
X73606795Y-71524328D01*
X73606795Y-71524328D02*
X73392510Y-71524328D01*
X73392510Y-71524328D02*
X73249652Y-71452900D01*
X73249652Y-71452900D02*
X73178224Y-71310042D01*
X73178224Y-71310042D02*
X73178224Y-71238614D01*
X73178224Y-71238614D02*
X73249652Y-71095757D01*
X73249652Y-71095757D02*
X73392510Y-71024328D01*
X73392510Y-71024328D02*
X73606795Y-71024328D01*
X73606795Y-71024328D02*
X73749652Y-71095757D01*
X74249653Y-71024328D02*
X74821081Y-71024328D01*
X74463938Y-70524328D02*
X74463938Y-71810042D01*
X74463938Y-71810042D02*
X74535367Y-71952900D01*
X74535367Y-71952900D02*
X74678224Y-72024328D01*
X74678224Y-72024328D02*
X74821081Y-72024328D01*
X75892510Y-71952900D02*
X75749653Y-72024328D01*
X75749653Y-72024328D02*
X75463939Y-72024328D01*
X75463939Y-72024328D02*
X75321081Y-71952900D01*
X75321081Y-71952900D02*
X75249653Y-71810042D01*
X75249653Y-71810042D02*
X75249653Y-71238614D01*
X75249653Y-71238614D02*
X75321081Y-71095757D01*
X75321081Y-71095757D02*
X75463939Y-71024328D01*
X75463939Y-71024328D02*
X75749653Y-71024328D01*
X75749653Y-71024328D02*
X75892510Y-71095757D01*
X75892510Y-71095757D02*
X75963939Y-71238614D01*
X75963939Y-71238614D02*
X75963939Y-71381471D01*
X75963939Y-71381471D02*
X75249653Y-71524328D01*
X76606795Y-72024328D02*
X76606795Y-71024328D01*
X76606795Y-71167185D02*
X76678224Y-71095757D01*
X76678224Y-71095757D02*
X76821081Y-71024328D01*
X76821081Y-71024328D02*
X77035367Y-71024328D01*
X77035367Y-71024328D02*
X77178224Y-71095757D01*
X77178224Y-71095757D02*
X77249653Y-71238614D01*
X77249653Y-71238614D02*
X77249653Y-72024328D01*
X77249653Y-71238614D02*
X77321081Y-71095757D01*
X77321081Y-71095757D02*
X77463938Y-71024328D01*
X77463938Y-71024328D02*
X77678224Y-71024328D01*
X77678224Y-71024328D02*
X77821081Y-71095757D01*
X77821081Y-71095757D02*
X77892510Y-71238614D01*
X77892510Y-71238614D02*
X77892510Y-72024328D01*
X78535367Y-71952900D02*
X78678224Y-72024328D01*
X78678224Y-72024328D02*
X78963938Y-72024328D01*
X78963938Y-72024328D02*
X79106795Y-71952900D01*
X79106795Y-71952900D02*
X79178224Y-71810042D01*
X79178224Y-71810042D02*
X79178224Y-71738614D01*
X79178224Y-71738614D02*
X79106795Y-71595757D01*
X79106795Y-71595757D02*
X78963938Y-71524328D01*
X78963938Y-71524328D02*
X78749653Y-71524328D01*
X78749653Y-71524328D02*
X78606795Y-71452900D01*
X78606795Y-71452900D02*
X78535367Y-71310042D01*
X78535367Y-71310042D02*
X78535367Y-71238614D01*
X78535367Y-71238614D02*
X78606795Y-71095757D01*
X78606795Y-71095757D02*
X78749653Y-71024328D01*
X78749653Y-71024328D02*
X78963938Y-71024328D01*
X78963938Y-71024328D02*
X79106795Y-71095757D01*
X81678224Y-72024328D02*
X80963938Y-72024328D01*
X80963938Y-72024328D02*
X80963938Y-70524328D01*
X82892510Y-72024328D02*
X82178224Y-72024328D01*
X82178224Y-72024328D02*
X82178224Y-70524328D01*
X84249653Y-71881471D02*
X84178225Y-71952900D01*
X84178225Y-71952900D02*
X83963939Y-72024328D01*
X83963939Y-72024328D02*
X83821082Y-72024328D01*
X83821082Y-72024328D02*
X83606796Y-71952900D01*
X83606796Y-71952900D02*
X83463939Y-71810042D01*
X83463939Y-71810042D02*
X83392510Y-71667185D01*
X83392510Y-71667185D02*
X83321082Y-71381471D01*
X83321082Y-71381471D02*
X83321082Y-71167185D01*
X83321082Y-71167185D02*
X83392510Y-70881471D01*
X83392510Y-70881471D02*
X83463939Y-70738614D01*
X83463939Y-70738614D02*
X83606796Y-70595757D01*
X83606796Y-70595757D02*
X83821082Y-70524328D01*
X83821082Y-70524328D02*
X83963939Y-70524328D01*
X83963939Y-70524328D02*
X84178225Y-70595757D01*
X84178225Y-70595757D02*
X84249653Y-70667185D01*
D10*
D11*
X45793826Y-69032128D02*
X45793826Y-67532128D01*
X45793826Y-67532128D02*
X46150969Y-67532128D01*
X46150969Y-67532128D02*
X46365255Y-67603557D01*
X46365255Y-67603557D02*
X46508112Y-67746414D01*
X46508112Y-67746414D02*
X46579541Y-67889271D01*
X46579541Y-67889271D02*
X46650969Y-68174985D01*
X46650969Y-68174985D02*
X46650969Y-68389271D01*
X46650969Y-68389271D02*
X46579541Y-68674985D01*
X46579541Y-68674985D02*
X46508112Y-68817842D01*
X46508112Y-68817842D02*
X46365255Y-68960700D01*
X46365255Y-68960700D02*
X46150969Y-69032128D01*
X46150969Y-69032128D02*
X45793826Y-69032128D01*
X47936684Y-69032128D02*
X47936684Y-68246414D01*
X47936684Y-68246414D02*
X47865255Y-68103557D01*
X47865255Y-68103557D02*
X47722398Y-68032128D01*
X47722398Y-68032128D02*
X47436684Y-68032128D01*
X47436684Y-68032128D02*
X47293826Y-68103557D01*
X47936684Y-68960700D02*
X47793826Y-69032128D01*
X47793826Y-69032128D02*
X47436684Y-69032128D01*
X47436684Y-69032128D02*
X47293826Y-68960700D01*
X47293826Y-68960700D02*
X47222398Y-68817842D01*
X47222398Y-68817842D02*
X47222398Y-68674985D01*
X47222398Y-68674985D02*
X47293826Y-68532128D01*
X47293826Y-68532128D02*
X47436684Y-68460700D01*
X47436684Y-68460700D02*
X47793826Y-68460700D01*
X47793826Y-68460700D02*
X47936684Y-68389271D01*
X48650969Y-68032128D02*
X48650969Y-69032128D01*
X48650969Y-68174985D02*
X48722398Y-68103557D01*
X48722398Y-68103557D02*
X48865255Y-68032128D01*
X48865255Y-68032128D02*
X49079541Y-68032128D01*
X49079541Y-68032128D02*
X49222398Y-68103557D01*
X49222398Y-68103557D02*
X49293827Y-68246414D01*
X49293827Y-68246414D02*
X49293827Y-69032128D01*
X50936684Y-67532128D02*
X51793827Y-67532128D01*
X51365255Y-69032128D02*
X51365255Y-67532128D01*
X52936684Y-69032128D02*
X52936684Y-68246414D01*
X52936684Y-68246414D02*
X52865255Y-68103557D01*
X52865255Y-68103557D02*
X52722398Y-68032128D01*
X52722398Y-68032128D02*
X52436684Y-68032128D01*
X52436684Y-68032128D02*
X52293826Y-68103557D01*
X52936684Y-68960700D02*
X52793826Y-69032128D01*
X52793826Y-69032128D02*
X52436684Y-69032128D01*
X52436684Y-69032128D02*
X52293826Y-68960700D01*
X52293826Y-68960700D02*
X52222398Y-68817842D01*
X52222398Y-68817842D02*
X52222398Y-68674985D01*
X52222398Y-68674985D02*
X52293826Y-68532128D01*
X52293826Y-68532128D02*
X52436684Y-68460700D01*
X52436684Y-68460700D02*
X52793826Y-68460700D01*
X52793826Y-68460700D02*
X52936684Y-68389271D01*
X53436684Y-68032128D02*
X54008112Y-68032128D01*
X53650969Y-67532128D02*
X53650969Y-68817842D01*
X53650969Y-68817842D02*
X53722398Y-68960700D01*
X53722398Y-68960700D02*
X53865255Y-69032128D01*
X53865255Y-69032128D02*
X54008112Y-69032128D01*
X55150970Y-68032128D02*
X55150970Y-69032128D01*
X54508112Y-68032128D02*
X54508112Y-68817842D01*
X54508112Y-68817842D02*
X54579541Y-68960700D01*
X54579541Y-68960700D02*
X54722398Y-69032128D01*
X54722398Y-69032128D02*
X54936684Y-69032128D01*
X54936684Y-69032128D02*
X55079541Y-68960700D01*
X55079541Y-68960700D02*
X55150970Y-68889271D01*
X55865255Y-69032128D02*
X55865255Y-68032128D01*
X55865255Y-68174985D02*
X55936684Y-68103557D01*
X55936684Y-68103557D02*
X56079541Y-68032128D01*
X56079541Y-68032128D02*
X56293827Y-68032128D01*
X56293827Y-68032128D02*
X56436684Y-68103557D01*
X56436684Y-68103557D02*
X56508113Y-68246414D01*
X56508113Y-68246414D02*
X56508113Y-69032128D01*
X56508113Y-68246414D02*
X56579541Y-68103557D01*
X56579541Y-68103557D02*
X56722398Y-68032128D01*
X56722398Y-68032128D02*
X56936684Y-68032128D01*
X56936684Y-68032128D02*
X57079541Y-68103557D01*
X57079541Y-68103557D02*
X57150970Y-68246414D01*
X57150970Y-68246414D02*
X57150970Y-69032128D01*
D10*
D11*
X64338000Y-82846000D02*
X64338000Y-85846000D01*
D10*
D11*
X128338000Y-82846000D02*
X128338000Y-89346000D01*
D14*
%TO.N,/PVBATT*%
%TO.C,J5*%
X7874000Y4318000D03*
D15*
%TO.N,GND*%
X7874000Y1778000D03*
%TD*%
D14*
%TO.N,GND*%
%TO.C,J1*%
X1778000Y30988000D03*
D15*
%TO.N,/PVRC*%
X4318000Y30988000D03*
%TO.N,/RC1*%
X6858000Y30988000D03*
%TO.N,GND*%
X1778000Y28448000D03*
%TO.N,/PVRC*%
X4318000Y28448000D03*
%TO.N,/RC2*%
X6858000Y28448000D03*
%TO.N,GND*%
X1778000Y25908000D03*
%TO.N,/PVRC*%
X4318000Y25908000D03*
%TO.N,/RC3*%
X6858000Y25908000D03*
%TO.N,GND*%
X1778000Y23368000D03*
%TO.N,/PVRC*%
X4318000Y23368000D03*
%TO.N,/RC4*%
X6858000Y23368000D03*
%TO.N,GND*%
X1778000Y20828000D03*
%TO.N,/PVRC*%
X4318000Y20828000D03*
%TO.N,/RC5*%
X6858000Y20828000D03*
%TO.N,GND*%
X1778000Y18288000D03*
%TO.N,/PVRC*%
X4318000Y18288000D03*
%TO.N,/RC6*%
X6858000Y18288000D03*
%TO.N,GND*%
X1778000Y15748000D03*
%TO.N,/PVRC*%
X4318000Y15748000D03*
%TO.N,/RC7*%
X6858000Y15748000D03*
%TO.N,GND*%
X1778000Y13208000D03*
%TO.N,/PVRC*%
X4318000Y13208000D03*
%TO.N,/RC8*%
X6858000Y13208000D03*
%TD*%
D16*
%TO.N,P3V3*%
X4318000Y2286000D03*
X20574000Y11176000D03*
X47752000Y4826000D03*
X32512000Y28956000D03*
X6604000Y39370000D03*
X34036000Y36830000D03*
X21844000Y10922000D03*
X42672000Y36830000D03*
%TO.N,GND*%
X11684000Y41402000D03*
X1524000Y41402000D03*
X42164000Y21082000D03*
X41148000Y37846000D03*
X21844000Y31242000D03*
X19050000Y15748000D03*
X32512000Y37338000D03*
X6604000Y5842000D03*
X11684000Y762000D03*
X32004000Y762000D03*
X37084000Y16002000D03*
X1524000Y10922000D03*
X11684000Y21082000D03*
X42164000Y31242000D03*
X26924000Y5842000D03*
X21844000Y762000D03*
X47244000Y36322000D03*
X42164000Y41402000D03*
X42164000Y762000D03*
X16764000Y5842000D03*
X16764000Y26162000D03*
X21844000Y41402000D03*
X21844000Y21082000D03*
%TO.N,/ESP32/EN*%
X10922000Y19558000D03*
X6350000Y37846000D03*
X9144000Y38354000D03*
X23876000Y10160000D03*
%TO.N,/ESP32/IO00*%
X10922000Y10414000D03*
X30480000Y8890000D03*
%TO.N,PVESC*%
X1016000Y5080000D03*
X13462000Y9652000D03*
X8128000Y34798000D03*
%TO.N,VBUS*%
X24892000Y16256000D03*
X15240000Y8128000D03*
%TO.N,/ESP32/USB_DN*%
X16764000Y8128000D03*
X19558000Y12192000D03*
%TO.N,/PVRC*%
X2540000Y8890000D03*
X2540000Y2286000D03*
%TO.N,/PVBATT*%
X8128000Y33274000D03*
X7874000Y10414000D03*
%TO.N,/ESP32/RXD0*%
X14732000Y17272000D03*
X28956000Y35814000D03*
%TO.N,/ESP32/TXD0*%
X28956000Y37084000D03*
X13208000Y17272000D03*
%TO.N,/VSNS1*%
X9144000Y37084000D03*
X6350000Y36322000D03*
%TO.N,/VSNS2*%
X6350000Y34798000D03*
X9144000Y35814000D03*
%TO.N,/VSNS3*%
X6350000Y33274000D03*
X9144000Y34544000D03*
%TO.N,PVIN*%
X3302000Y5334000D03*
X31496000Y6858000D03*
X35560000Y10922000D03*
%TD*%
D17*
%TO.N,P3V3*%
X32512000Y35306000D02*
X34036000Y36830000D01*
X32512000Y28956000D02*
X32512000Y35306000D01*
X5080000Y3048000D02*
X4318000Y2286000D01*
X34036000Y36830000D02*
X31496000Y39370000D01*
X34036000Y36830000D02*
X42672000Y36830000D01*
X20574000Y11176000D02*
X32512000Y11176000D01*
X32512000Y28956000D02*
X32512000Y11176000D01*
X47752000Y4826000D02*
X45974000Y3048000D01*
X32512000Y11176000D02*
X32512000Y3048000D01*
X32512000Y3048000D02*
X5080000Y3048000D01*
X31496000Y39370000D02*
X6604000Y39370000D01*
X45974000Y3048000D02*
X32512000Y3048000D01*
%TO.N,/ESP32/EN*%
X9906000Y20574000D02*
X9906000Y37592000D01*
X10922000Y19558000D02*
X9906000Y20574000D01*
X9906000Y37592000D02*
X9144000Y38354000D01*
%TO.N,PVESC*%
X8890000Y9652000D02*
X5588000Y9652000D01*
X5588000Y9652000D02*
X1016000Y5080000D01*
X8890000Y9652000D02*
X8890000Y33528000D01*
X13462000Y9652000D02*
X8890000Y9652000D01*
X8128000Y34290000D02*
X8128000Y34798000D01*
X8890000Y33528000D02*
X8128000Y34290000D01*
%TO.N,VBUS*%
X15240000Y8128000D02*
X15240000Y9144000D01*
X15240000Y9144000D02*
X22352000Y16256000D01*
X22352000Y16256000D02*
X24892000Y16256000D01*
%TO.N,/ESP32/USB_DN*%
X19558000Y10922000D02*
X19558000Y12192000D01*
X16764000Y8128000D02*
X19558000Y10922000D01*
D18*
%TO.N,/PVRC*%
X4318000Y30988000D02*
X4318000Y13208000D01*
D17*
%TO.N,/PVBATT*%
X8128000Y10668000D02*
X8128000Y33274000D01*
X7874000Y10414000D02*
X8128000Y10668000D01*
%TO.N,/ESP32/RXD0*%
X14732000Y17272000D02*
X28956000Y31496000D01*
X28956000Y31496000D02*
X28956000Y35814000D01*
%TO.N,/ESP32/TXD0*%
X28194000Y32258000D02*
X28194000Y36322000D01*
X28194000Y36322000D02*
X28956000Y37084000D01*
X13208000Y17272000D02*
X28194000Y32258000D01*
%TO.N,PVIN*%
X4826000Y6858000D02*
X3302000Y5334000D01*
X31496000Y6858000D02*
X4826000Y6858000D01*
%TD*%
%TA.AperFunction,Conductor*%
%TO.N,GND*%
G36*
X48633421Y42067298D02*
G01*
X48679914Y42013642D01*
X48691300Y41961300D01*
X48691300Y202700D01*
X48671298Y134579D01*
X48617642Y88086D01*
X48565300Y76700D01*
X202700Y76700D01*
X134579Y96702D01*
X88086Y150358D01*
X76700Y202700D01*
X76700Y2286004D01*
X2026271Y2286004D01*
X2026271Y2285997D01*
X2047079Y2141273D01*
X2047081Y2141266D01*
X2107824Y2008257D01*
X2203579Y1897750D01*
X2326589Y1818696D01*
X2446039Y1783622D01*
X2466885Y1777501D01*
X2466886Y1777501D01*
X2466889Y1777500D01*
X2466892Y1777500D01*
X2613108Y1777500D01*
X2613111Y1777500D01*
X2753411Y1818696D01*
X2876421Y1897750D01*
X2972176Y2008257D01*
X3032919Y2141266D01*
X3052715Y2278946D01*
X3053729Y2285997D01*
X3053729Y2286004D01*
X3032920Y2430728D01*
X3032919Y2430729D01*
X3032919Y2430734D01*
X2972176Y2563743D01*
X2876421Y2674250D01*
X2876420Y2674251D01*
X2814916Y2713777D01*
X2753411Y2753304D01*
X2718336Y2763603D01*
X2613114Y2794500D01*
X2613111Y2794500D01*
X2466889Y2794500D01*
X2466885Y2794500D01*
X2326589Y2753304D01*
X2326587Y2753303D01*
X2203579Y2674251D01*
X2107824Y2563744D01*
X2047081Y2430735D01*
X2047079Y2430728D01*
X2026271Y2286004D01*
X76700Y2286004D01*
X76700Y5080004D01*
X502271Y5080004D01*
X502271Y5079997D01*
X523079Y4935273D01*
X523081Y4935266D01*
X583824Y4802257D01*
X679579Y4691750D01*
X802589Y4612696D01*
X922039Y4577622D01*
X942885Y4571501D01*
X942886Y4571501D01*
X942889Y4571500D01*
X942892Y4571500D01*
X1089108Y4571500D01*
X1089111Y4571500D01*
X1229411Y4612696D01*
X1352421Y4691750D01*
X1448176Y4802257D01*
X1508919Y4935266D01*
X1519429Y5008370D01*
X1548921Y5072947D01*
X1555037Y5079516D01*
X5709117Y9233595D01*
X5771429Y9267621D01*
X5798212Y9270500D01*
X8839775Y9270500D01*
X13078078Y9270500D01*
X13146199Y9250498D01*
X13248589Y9184696D01*
X13368039Y9149622D01*
X13388885Y9143501D01*
X13388886Y9143501D01*
X13388889Y9143500D01*
X13388892Y9143500D01*
X13535108Y9143500D01*
X13535111Y9143500D01*
X13675411Y9184696D01*
X13798421Y9263750D01*
X13894176Y9374257D01*
X13954919Y9507266D01*
X13955227Y9509411D01*
X13975729Y9651997D01*
X13975729Y9652004D01*
X13954920Y9796728D01*
X13954919Y9796729D01*
X13954919Y9796734D01*
X13894176Y9929743D01*
X13798421Y10040250D01*
X13798420Y10040251D01*
X13694310Y10107158D01*
X13675411Y10119304D01*
X13617675Y10136257D01*
X13535114Y10160500D01*
X13535111Y10160500D01*
X13388889Y10160500D01*
X13388885Y10160500D01*
X13248589Y10119304D01*
X13248587Y10119303D01*
X13146199Y10053502D01*
X13078078Y10033500D01*
X11503308Y10033500D01*
X11435187Y10053502D01*
X11388694Y10107158D01*
X11378590Y10177432D01*
X11388694Y10211842D01*
X11414919Y10269266D01*
X11431398Y10383875D01*
X11435729Y10413997D01*
X11435729Y10414004D01*
X11414920Y10558728D01*
X11414919Y10558729D01*
X11414919Y10558734D01*
X11354176Y10691743D01*
X11258421Y10802250D01*
X11258420Y10802251D01*
X11150238Y10871775D01*
X11135411Y10881304D01*
X11077675Y10898257D01*
X10995114Y10922500D01*
X10995111Y10922500D01*
X10848889Y10922500D01*
X10848885Y10922500D01*
X10708589Y10881304D01*
X10708587Y10881303D01*
X10585579Y10802251D01*
X10489824Y10691744D01*
X10429081Y10558735D01*
X10429079Y10558728D01*
X10408271Y10414004D01*
X10408271Y10413997D01*
X10429079Y10269273D01*
X10429081Y10269266D01*
X10455306Y10211842D01*
X10465409Y10141568D01*
X10435916Y10076987D01*
X10376190Y10038604D01*
X10340692Y10033500D01*
X9397500Y10033500D01*
X9329379Y10053502D01*
X9282886Y10107158D01*
X9271500Y10159500D01*
X9271500Y17272004D01*
X12694271Y17272004D01*
X12694271Y17271997D01*
X12715079Y17127273D01*
X12715081Y17127266D01*
X12775824Y16994257D01*
X12871579Y16883750D01*
X12994589Y16804696D01*
X13114039Y16769622D01*
X13134885Y16763501D01*
X13134886Y16763501D01*
X13134889Y16763500D01*
X13134892Y16763500D01*
X13281108Y16763500D01*
X13281111Y16763500D01*
X13421411Y16804696D01*
X13544421Y16883750D01*
X13640176Y16994257D01*
X13700919Y17127266D01*
X13711429Y17200370D01*
X13740921Y17264947D01*
X13747037Y17271516D01*
X14036786Y17561265D01*
X14099096Y17595289D01*
X14169911Y17590224D01*
X14226747Y17547677D01*
X14251558Y17481157D01*
X14241502Y17425414D01*
X14241620Y17425379D01*
X14241298Y17424285D01*
X14240495Y17419830D01*
X14239081Y17416736D01*
X14239079Y17416728D01*
X14218271Y17272004D01*
X14218271Y17271997D01*
X14239079Y17127273D01*
X14239081Y17127266D01*
X14299824Y16994257D01*
X14395579Y16883750D01*
X14518589Y16804696D01*
X14638039Y16769622D01*
X14658885Y16763501D01*
X14658886Y16763501D01*
X14658889Y16763500D01*
X14658892Y16763500D01*
X14805108Y16763500D01*
X14805111Y16763500D01*
X14945411Y16804696D01*
X15068421Y16883750D01*
X15164176Y16994257D01*
X15224919Y17127266D01*
X15235429Y17200370D01*
X15264921Y17264947D01*
X15271037Y17271516D01*
X29261276Y31261753D01*
X29311502Y31348747D01*
X29337501Y31445775D01*
X29337501Y31546225D01*
X29337501Y31553942D01*
X29337500Y31553960D01*
X29337500Y35430779D01*
X29357502Y35498900D01*
X29368273Y35513289D01*
X29388176Y35536257D01*
X29448919Y35669266D01*
X29449227Y35671411D01*
X29469729Y35813997D01*
X29469729Y35814004D01*
X29448920Y35958728D01*
X29448919Y35958729D01*
X29448919Y35958734D01*
X29388176Y36091743D01*
X29292421Y36202250D01*
X29292420Y36202251D01*
X29230916Y36241777D01*
X29169411Y36281304D01*
X29029111Y36322500D01*
X29029110Y36322500D01*
X29029107Y36322501D01*
X29020268Y36323772D01*
X28955687Y36353266D01*
X28917304Y36412992D01*
X28917305Y36483989D01*
X28949104Y36537582D01*
X28950303Y36538781D01*
X29012613Y36572805D01*
X29021472Y36574403D01*
X29029102Y36575500D01*
X29029111Y36575500D01*
X29169411Y36616696D01*
X29292421Y36695750D01*
X29388176Y36806257D01*
X29448919Y36939266D01*
X29469729Y37084000D01*
X29469729Y37084004D01*
X29448920Y37228728D01*
X29448919Y37228729D01*
X29448919Y37228734D01*
X29388176Y37361743D01*
X29292421Y37472250D01*
X29292420Y37472251D01*
X29184238Y37541775D01*
X29169411Y37551304D01*
X29111675Y37568257D01*
X29029114Y37592500D01*
X29029111Y37592500D01*
X28882889Y37592500D01*
X28882885Y37592500D01*
X28742589Y37551304D01*
X28742587Y37551303D01*
X28619579Y37472251D01*
X28523824Y37361744D01*
X28463081Y37228735D01*
X28463079Y37228729D01*
X28452570Y37155636D01*
X28423077Y37091056D01*
X28416949Y37084474D01*
X27959753Y36627276D01*
X27959752Y36627276D01*
X27888729Y36556254D01*
X27888721Y36556244D01*
X27838500Y36469259D01*
X27812500Y36372224D01*
X27812500Y32468213D01*
X27792498Y32400092D01*
X27775595Y32379118D01*
X13213698Y17817222D01*
X13151386Y17783196D01*
X13142536Y17781600D01*
X13134892Y17780501D01*
X12994589Y17739304D01*
X12994587Y17739303D01*
X12871579Y17660251D01*
X12775824Y17549744D01*
X12715081Y17416735D01*
X12715079Y17416728D01*
X12694271Y17272004D01*
X9271500Y17272004D01*
X9271500Y33467612D01*
X9271501Y33467625D01*
X9271501Y33578224D01*
X9248986Y33662250D01*
X9245502Y33675253D01*
X9207368Y33741303D01*
X9195278Y33762244D01*
X9195270Y33762254D01*
X9137107Y33820417D01*
X9103081Y33882729D01*
X9108146Y33953544D01*
X9150693Y34010380D01*
X9208275Y34034230D01*
X9217104Y34035500D01*
X9217111Y34035500D01*
X9357411Y34076696D01*
X9357412Y34076698D01*
X9363001Y34078338D01*
X9433998Y34078338D01*
X9493724Y34039955D01*
X9523217Y33975374D01*
X9524500Y33957442D01*
X9524500Y20523777D01*
X9524499Y20523777D01*
X9537499Y20475261D01*
X9550499Y20426746D01*
X9600200Y20340660D01*
X9600724Y20339753D01*
X10382949Y19557528D01*
X10416973Y19495217D01*
X10418570Y19486366D01*
X10429079Y19413273D01*
X10429081Y19413266D01*
X10489824Y19280257D01*
X10585579Y19169750D01*
X10708589Y19090696D01*
X10828039Y19055622D01*
X10848885Y19049501D01*
X10848886Y19049501D01*
X10848889Y19049500D01*
X10848892Y19049500D01*
X10995108Y19049500D01*
X10995111Y19049500D01*
X11135411Y19090696D01*
X11258421Y19169750D01*
X11354176Y19280257D01*
X11414919Y19413266D01*
X11415227Y19415411D01*
X11435729Y19557997D01*
X11435729Y19558004D01*
X11414920Y19702728D01*
X11414919Y19702729D01*
X11414919Y19702734D01*
X11354176Y19835743D01*
X11258421Y19946250D01*
X11258420Y19946251D01*
X11159400Y20009887D01*
X11135411Y20025304D01*
X11098598Y20036114D01*
X10995107Y20066502D01*
X10987464Y20067600D01*
X10922883Y20097093D01*
X10916301Y20103222D01*
X10324405Y20695118D01*
X10290379Y20757430D01*
X10287500Y20784213D01*
X10287500Y37531612D01*
X10287501Y37531625D01*
X10287501Y37642224D01*
X10278864Y37674457D01*
X10261502Y37739253D01*
X10211276Y37826247D01*
X9683049Y38354474D01*
X9649026Y38416784D01*
X9647432Y38425614D01*
X9636919Y38498734D01*
X9576176Y38631743D01*
X9480421Y38742250D01*
X9480420Y38742251D01*
X9480419Y38742252D01*
X9458244Y38756503D01*
X9411752Y38810159D01*
X9401649Y38880433D01*
X9431142Y38945013D01*
X9490869Y38983396D01*
X9526366Y38988500D01*
X31285787Y38988500D01*
X31353908Y38968498D01*
X31374882Y38951595D01*
X33407381Y36919097D01*
X33441406Y36856785D01*
X33436342Y36785970D01*
X33407381Y36740907D01*
X32260030Y35593555D01*
X32260028Y35593552D01*
X32206729Y35540254D01*
X32206721Y35540244D01*
X32156500Y35453259D01*
X32130500Y35356224D01*
X32130500Y29339222D01*
X32110498Y29271101D01*
X32099726Y29256711D01*
X32079824Y29233743D01*
X32019081Y29100734D01*
X32019079Y29100728D01*
X31998271Y28956004D01*
X31998271Y28955997D01*
X32019079Y28811273D01*
X32019081Y28811266D01*
X32079824Y28678257D01*
X32099723Y28655292D01*
X32129217Y28590713D01*
X32130500Y28572779D01*
X32130500Y11683500D01*
X32110498Y11615379D01*
X32056842Y11568886D01*
X32004500Y11557500D01*
X20957922Y11557500D01*
X20889801Y11577502D01*
X20830863Y11615379D01*
X20787411Y11643304D01*
X20752336Y11653603D01*
X20647114Y11684500D01*
X20647111Y11684500D01*
X20500889Y11684500D01*
X20500885Y11684500D01*
X20360589Y11643304D01*
X20360587Y11643303D01*
X20237579Y11564251D01*
X20160724Y11475555D01*
X20100998Y11437172D01*
X20030001Y11437172D01*
X19970275Y11475556D01*
X19940782Y11540137D01*
X19939500Y11558068D01*
X19939500Y11808779D01*
X19959502Y11876900D01*
X19970273Y11891289D01*
X19990176Y11914257D01*
X20050919Y12047266D01*
X20051227Y12049411D01*
X20071729Y12191997D01*
X20071729Y12192004D01*
X20050920Y12336728D01*
X20050919Y12336729D01*
X20050919Y12336734D01*
X19990176Y12469743D01*
X19894421Y12580250D01*
X19894420Y12580251D01*
X19781634Y12652734D01*
X19771411Y12659304D01*
X19631111Y12700500D01*
X19631110Y12700500D01*
X19631107Y12700501D01*
X19622268Y12701772D01*
X19557687Y12731266D01*
X19519304Y12790992D01*
X19519305Y12861989D01*
X19551104Y12915582D01*
X22473118Y15837595D01*
X22535430Y15871621D01*
X22562213Y15874500D01*
X24508078Y15874500D01*
X24576199Y15854498D01*
X24678589Y15788696D01*
X24798039Y15753622D01*
X24818885Y15747501D01*
X24818886Y15747501D01*
X24818889Y15747500D01*
X24818892Y15747500D01*
X24965108Y15747500D01*
X24965111Y15747500D01*
X25105411Y15788696D01*
X25228421Y15867750D01*
X25324176Y15978257D01*
X25384919Y16111266D01*
X25405729Y16256000D01*
X25405729Y16256004D01*
X25384920Y16400728D01*
X25384919Y16400729D01*
X25384919Y16400734D01*
X25324176Y16533743D01*
X25228421Y16644250D01*
X25228420Y16644251D01*
X25161123Y16687500D01*
X25105411Y16723304D01*
X25070336Y16733603D01*
X24965114Y16764500D01*
X24965111Y16764500D01*
X24818889Y16764500D01*
X24818885Y16764500D01*
X24678589Y16723304D01*
X24678587Y16723303D01*
X24576199Y16657502D01*
X24508078Y16637500D01*
X22402225Y16637500D01*
X22301775Y16637500D01*
X22258989Y16626036D01*
X22204742Y16611501D01*
X22117756Y16561279D01*
X22117746Y16561271D01*
X16782702Y11226225D01*
X15005753Y9449276D01*
X14970239Y9413762D01*
X14934725Y9378249D01*
X14934721Y9378244D01*
X14884500Y9291259D01*
X14858500Y9194224D01*
X14858500Y8511222D01*
X14838498Y8443101D01*
X14827728Y8428715D01*
X14822515Y8422697D01*
X14807824Y8405743D01*
X14747081Y8272734D01*
X14747079Y8272728D01*
X14726271Y8128004D01*
X14726271Y8127997D01*
X14747079Y7983273D01*
X14747081Y7983266D01*
X14807824Y7850257D01*
X14903579Y7739750D01*
X15026589Y7660696D01*
X15146039Y7625622D01*
X15166885Y7619501D01*
X15166886Y7619501D01*
X15166889Y7619500D01*
X15166892Y7619500D01*
X15313108Y7619500D01*
X15313111Y7619500D01*
X15453411Y7660696D01*
X15576421Y7739750D01*
X15672176Y7850257D01*
X15732919Y7983266D01*
X15733227Y7985411D01*
X15753729Y8127997D01*
X15753729Y8128004D01*
X15732920Y8272728D01*
X15732919Y8272729D01*
X15732919Y8272734D01*
X15672176Y8405743D01*
X15652273Y8428712D01*
X15622782Y8493292D01*
X15621500Y8511222D01*
X15621500Y8933787D01*
X15641502Y9001908D01*
X15658405Y9022882D01*
X17221511Y10585988D01*
X18839037Y12203515D01*
X18901347Y12237539D01*
X18972162Y12232474D01*
X19028998Y12189927D01*
X19052847Y12132350D01*
X19065079Y12047273D01*
X19065081Y12047266D01*
X19125824Y11914257D01*
X19145723Y11891292D01*
X19175217Y11826713D01*
X19176500Y11808779D01*
X19176500Y11132213D01*
X19156498Y11064092D01*
X19139595Y11043118D01*
X16769698Y8673222D01*
X16707386Y8639196D01*
X16698536Y8637600D01*
X16690892Y8636501D01*
X16550589Y8595304D01*
X16550587Y8595303D01*
X16427579Y8516251D01*
X16331824Y8405744D01*
X16271081Y8272735D01*
X16271079Y8272728D01*
X16250271Y8128004D01*
X16250271Y8127997D01*
X16271079Y7983273D01*
X16271081Y7983266D01*
X16331824Y7850257D01*
X16427579Y7739750D01*
X16550589Y7660696D01*
X16670039Y7625622D01*
X16690885Y7619501D01*
X16690886Y7619501D01*
X16690889Y7619500D01*
X16690892Y7619500D01*
X16837108Y7619500D01*
X16837111Y7619500D01*
X16977411Y7660696D01*
X17100421Y7739750D01*
X17196176Y7850257D01*
X17256919Y7983266D01*
X17267429Y8056370D01*
X17296921Y8120947D01*
X17303023Y8127502D01*
X18065526Y8890004D01*
X29966271Y8890004D01*
X29966271Y8889997D01*
X29987079Y8745273D01*
X29987081Y8745266D01*
X30047824Y8612257D01*
X30143579Y8501750D01*
X30266589Y8422696D01*
X30386039Y8387622D01*
X30406885Y8381501D01*
X30406886Y8381501D01*
X30406889Y8381500D01*
X30406892Y8381500D01*
X30553108Y8381500D01*
X30553111Y8381500D01*
X30693411Y8422696D01*
X30816421Y8501750D01*
X30912176Y8612257D01*
X30972919Y8745266D01*
X30993729Y8890000D01*
X30993729Y8890004D01*
X30972920Y9034728D01*
X30972919Y9034729D01*
X30972919Y9034734D01*
X30912176Y9167743D01*
X30816421Y9278250D01*
X30816420Y9278251D01*
X30754916Y9317777D01*
X30693411Y9357304D01*
X30635675Y9374257D01*
X30553114Y9398500D01*
X30553111Y9398500D01*
X30406889Y9398500D01*
X30406885Y9398500D01*
X30266589Y9357304D01*
X30266587Y9357303D01*
X30143579Y9278251D01*
X30047824Y9167744D01*
X29987081Y9034735D01*
X29987079Y9034728D01*
X29966271Y8890004D01*
X18065526Y8890004D01*
X19863276Y10687753D01*
X19913502Y10774747D01*
X19931258Y10841013D01*
X19968209Y10901634D01*
X20032069Y10932655D01*
X20102564Y10924227D01*
X20148187Y10890914D01*
X20237579Y10787750D01*
X20360589Y10708696D01*
X20480039Y10673622D01*
X20500885Y10667501D01*
X20500886Y10667501D01*
X20500889Y10667500D01*
X20500892Y10667500D01*
X20647108Y10667500D01*
X20647111Y10667500D01*
X20787411Y10708696D01*
X20889801Y10774498D01*
X20957922Y10794500D01*
X21262235Y10794500D01*
X21330356Y10774498D01*
X21376848Y10720843D01*
X21411824Y10644257D01*
X21507579Y10533750D01*
X21630589Y10454696D01*
X21750039Y10419622D01*
X21770885Y10413501D01*
X21770886Y10413501D01*
X21770889Y10413500D01*
X21770892Y10413500D01*
X21917108Y10413500D01*
X21917111Y10413500D01*
X22057411Y10454696D01*
X22180421Y10533750D01*
X22276176Y10644257D01*
X22311151Y10720843D01*
X22357644Y10774498D01*
X22425765Y10794500D01*
X23493634Y10794500D01*
X23561755Y10774498D01*
X23608248Y10720842D01*
X23618352Y10650568D01*
X23588858Y10585988D01*
X23561756Y10562503D01*
X23539580Y10548252D01*
X23539579Y10548252D01*
X23443824Y10437744D01*
X23383081Y10304735D01*
X23383079Y10304728D01*
X23362271Y10160004D01*
X23362271Y10159997D01*
X23383079Y10015273D01*
X23383081Y10015266D01*
X23443824Y9882257D01*
X23539579Y9771750D01*
X23662589Y9692696D01*
X23782039Y9657622D01*
X23802885Y9651501D01*
X23802886Y9651501D01*
X23802889Y9651500D01*
X23802892Y9651500D01*
X23949108Y9651500D01*
X23949111Y9651500D01*
X24089411Y9692696D01*
X24212421Y9771750D01*
X24308176Y9882257D01*
X24368919Y10015266D01*
X24377793Y10076987D01*
X24389729Y10159997D01*
X24389729Y10160004D01*
X24368920Y10304728D01*
X24368919Y10304729D01*
X24368919Y10304734D01*
X24308176Y10437743D01*
X24212421Y10548250D01*
X24212420Y10548251D01*
X24212419Y10548252D01*
X24190244Y10562503D01*
X24143752Y10616159D01*
X24133649Y10686433D01*
X24163142Y10751013D01*
X24222869Y10789396D01*
X24258366Y10794500D01*
X32004500Y10794500D01*
X32072621Y10774498D01*
X32119114Y10720842D01*
X32130500Y10668500D01*
X32130500Y7240068D01*
X32110498Y7171947D01*
X32056842Y7125454D01*
X31986568Y7115350D01*
X31921988Y7144844D01*
X31909276Y7157555D01*
X31832420Y7246251D01*
X31770916Y7285777D01*
X31709411Y7325304D01*
X31674336Y7335603D01*
X31569114Y7366500D01*
X31569111Y7366500D01*
X31422889Y7366500D01*
X31422885Y7366500D01*
X31282589Y7325304D01*
X31282587Y7325303D01*
X31180199Y7259502D01*
X31112078Y7239500D01*
X4775775Y7239500D01*
X4716390Y7223588D01*
X4678741Y7213500D01*
X4591756Y7163279D01*
X4591751Y7163275D01*
X4573321Y7144844D01*
X4520724Y7092247D01*
X4520722Y7092245D01*
X3307698Y5879222D01*
X3245386Y5845196D01*
X3236536Y5843600D01*
X3228892Y5842501D01*
X3088589Y5801304D01*
X3088587Y5801303D01*
X2965579Y5722251D01*
X2869824Y5611744D01*
X2809081Y5478735D01*
X2809079Y5478728D01*
X2788271Y5334004D01*
X2788271Y5333997D01*
X2809079Y5189273D01*
X2809081Y5189266D01*
X2869824Y5056257D01*
X2965579Y4945750D01*
X3088589Y4866696D01*
X3203159Y4833055D01*
X3228885Y4825501D01*
X3228886Y4825501D01*
X3228889Y4825500D01*
X3228892Y4825500D01*
X3375108Y4825500D01*
X3375111Y4825500D01*
X3515411Y4866696D01*
X3638421Y4945750D01*
X3734176Y5056257D01*
X3794919Y5189266D01*
X3805429Y5262370D01*
X3834921Y5326947D01*
X3841037Y5333516D01*
X4947117Y6439595D01*
X5009429Y6473621D01*
X5036212Y6476500D01*
X31112078Y6476500D01*
X31180199Y6456498D01*
X31282589Y6390696D01*
X31402039Y6355622D01*
X31422885Y6349501D01*
X31422886Y6349501D01*
X31422889Y6349500D01*
X31422892Y6349500D01*
X31569108Y6349500D01*
X31569111Y6349500D01*
X31709411Y6390696D01*
X31832421Y6469750D01*
X31909276Y6558447D01*
X31969001Y6596829D01*
X32039998Y6596829D01*
X32099724Y6558446D01*
X32129217Y6493865D01*
X32130500Y6475933D01*
X32130500Y3555500D01*
X32110498Y3487379D01*
X32056842Y3440886D01*
X32004500Y3429500D01*
X8931539Y3429500D01*
X8863418Y3449502D01*
X8816925Y3503158D01*
X8806821Y3573432D01*
X8807960Y3580082D01*
X8813499Y3607930D01*
X8813500Y3607933D01*
X8813499Y4712896D01*
X12611300Y4712896D01*
X12611300Y4567104D01*
X12645961Y4437750D01*
X12649034Y4426281D01*
X12649036Y4426276D01*
X12721927Y4300024D01*
X12721935Y4300014D01*
X12825013Y4196936D01*
X12825018Y4196932D01*
X12825020Y4196930D01*
X12951280Y4124034D01*
X13092104Y4086300D01*
X13092107Y4086300D01*
X13237893Y4086300D01*
X13237896Y4086300D01*
X13378720Y4124034D01*
X13504980Y4196930D01*
X13608070Y4300020D01*
X13680966Y4426280D01*
X13718700Y4567104D01*
X13718700Y4712896D01*
X16761300Y4712896D01*
X16761300Y4567104D01*
X16795961Y4437750D01*
X16799034Y4426281D01*
X16799036Y4426276D01*
X16871927Y4300024D01*
X16871935Y4300014D01*
X16975013Y4196936D01*
X16975018Y4196932D01*
X16975020Y4196930D01*
X17101280Y4124034D01*
X17242104Y4086300D01*
X17242107Y4086300D01*
X17387893Y4086300D01*
X17387896Y4086300D01*
X17528720Y4124034D01*
X17654980Y4196930D01*
X17758070Y4300020D01*
X17830966Y4426280D01*
X17868700Y4567104D01*
X17868700Y4712896D01*
X17830966Y4853720D01*
X17758070Y4979980D01*
X17758068Y4979982D01*
X17758064Y4979987D01*
X17654986Y5083065D01*
X17654976Y5083073D01*
X17528724Y5155964D01*
X17528722Y5155965D01*
X17528720Y5155966D01*
X17387896Y5193700D01*
X17242104Y5193700D01*
X17101280Y5155966D01*
X17101275Y5155964D01*
X16975023Y5083073D01*
X16975013Y5083065D01*
X16871935Y4979987D01*
X16871927Y4979977D01*
X16799036Y4853725D01*
X16799034Y4853720D01*
X16761300Y4712896D01*
X13718700Y4712896D01*
X13680966Y4853720D01*
X13608070Y4979980D01*
X13608068Y4979982D01*
X13608064Y4979987D01*
X13504986Y5083065D01*
X13504976Y5083073D01*
X13378724Y5155964D01*
X13378722Y5155965D01*
X13378720Y5155966D01*
X13237896Y5193700D01*
X13092104Y5193700D01*
X12951280Y5155966D01*
X12951275Y5155964D01*
X12825023Y5083073D01*
X12825013Y5083065D01*
X12721935Y4979987D01*
X12721927Y4979977D01*
X12649036Y4853725D01*
X12649034Y4853720D01*
X12611300Y4712896D01*
X8813499Y4712896D01*
X8813499Y5028066D01*
X8813498Y5028070D01*
X8813498Y5028074D01*
X8798734Y5102301D01*
X8742483Y5186485D01*
X8658302Y5242734D01*
X8584067Y5257500D01*
X7163936Y5257500D01*
X7163926Y5257499D01*
X7089699Y5242735D01*
X7005515Y5186484D01*
X6949266Y5102303D01*
X6934500Y5028070D01*
X6934500Y3607937D01*
X6934501Y3607930D01*
X6940041Y3580081D01*
X6933713Y3509367D01*
X6890158Y3453300D01*
X6823206Y3429681D01*
X6816462Y3429500D01*
X5137959Y3429500D01*
X5137943Y3429501D01*
X5130225Y3429501D01*
X5029775Y3429501D01*
X4981261Y3416502D01*
X4932745Y3403502D01*
X4845756Y3353279D01*
X4845746Y3353271D01*
X4323698Y2831222D01*
X4261386Y2797196D01*
X4252536Y2795600D01*
X4244892Y2794501D01*
X4104589Y2753304D01*
X4104587Y2753303D01*
X3981579Y2674251D01*
X3885824Y2563744D01*
X3825081Y2430735D01*
X3825079Y2430728D01*
X3804271Y2286004D01*
X3804271Y2285997D01*
X3825079Y2141273D01*
X3825081Y2141266D01*
X3885824Y2008257D01*
X3981579Y1897750D01*
X4104589Y1818696D01*
X4224039Y1783622D01*
X4244885Y1777501D01*
X4244886Y1777501D01*
X4244889Y1777500D01*
X4244892Y1777500D01*
X4391108Y1777500D01*
X4391111Y1777500D01*
X4531411Y1818696D01*
X4654421Y1897750D01*
X4750176Y2008257D01*
X4810919Y2141266D01*
X4821429Y2214368D01*
X4850921Y2278946D01*
X4857036Y2285515D01*
X5201119Y2629596D01*
X5263431Y2663621D01*
X5290214Y2666500D01*
X46024223Y2666500D01*
X46024225Y2666500D01*
X46121254Y2692499D01*
X46121257Y2692501D01*
X46121258Y2692501D01*
X46164750Y2717612D01*
X46208247Y2742724D01*
X46279276Y2813753D01*
X47746303Y4280781D01*
X47808613Y4314804D01*
X47817472Y4316403D01*
X47825102Y4317500D01*
X47825111Y4317500D01*
X47965411Y4358696D01*
X48088421Y4437750D01*
X48184176Y4548257D01*
X48244919Y4681266D01*
X48249467Y4712896D01*
X48265729Y4825997D01*
X48265729Y4826004D01*
X48244920Y4970728D01*
X48244919Y4970729D01*
X48244919Y4970734D01*
X48184176Y5103743D01*
X48088421Y5214250D01*
X48088420Y5214251D01*
X48013551Y5262366D01*
X47965411Y5293304D01*
X47929410Y5303875D01*
X47825114Y5334500D01*
X47825111Y5334500D01*
X47678889Y5334500D01*
X47678885Y5334500D01*
X47538589Y5293304D01*
X47538587Y5293303D01*
X47415579Y5214251D01*
X47319824Y5103744D01*
X47259081Y4970735D01*
X47259079Y4970729D01*
X47248570Y4897635D01*
X47219077Y4833055D01*
X47212948Y4826473D01*
X45852880Y3466404D01*
X45790570Y3432380D01*
X45763787Y3429500D01*
X33019500Y3429500D01*
X32951379Y3449502D01*
X32904886Y3503158D01*
X32893500Y3555500D01*
X32893500Y10922004D01*
X35046271Y10922004D01*
X35046271Y10921997D01*
X35067079Y10777273D01*
X35067081Y10777266D01*
X35127824Y10644257D01*
X35223579Y10533750D01*
X35346589Y10454696D01*
X35466039Y10419622D01*
X35486885Y10413501D01*
X35486886Y10413501D01*
X35486889Y10413500D01*
X35486892Y10413500D01*
X35633108Y10413500D01*
X35633111Y10413500D01*
X35773411Y10454696D01*
X35896421Y10533750D01*
X35992176Y10644257D01*
X36052919Y10777266D01*
X36056511Y10802251D01*
X36073729Y10921997D01*
X36073729Y10922004D01*
X36052920Y11066728D01*
X36052919Y11066729D01*
X36052919Y11066734D01*
X35992176Y11199743D01*
X35896421Y11310250D01*
X35896420Y11310251D01*
X35834916Y11349777D01*
X35773411Y11389304D01*
X35738336Y11399603D01*
X35633114Y11430500D01*
X35633111Y11430500D01*
X35486889Y11430500D01*
X35486885Y11430500D01*
X35346589Y11389304D01*
X35346587Y11389303D01*
X35223579Y11310251D01*
X35127824Y11199744D01*
X35067081Y11066735D01*
X35067079Y11066728D01*
X35046271Y10922004D01*
X32893500Y10922004D01*
X32893500Y28572779D01*
X32913502Y28640900D01*
X32924273Y28655289D01*
X32944176Y28678257D01*
X33004919Y28811266D01*
X33025729Y28956000D01*
X33025729Y28956004D01*
X33004920Y29100728D01*
X33004919Y29100729D01*
X33004919Y29100734D01*
X32944176Y29233743D01*
X32924273Y29256712D01*
X32894782Y29321292D01*
X32893500Y29339222D01*
X32893500Y35095788D01*
X32913502Y35163909D01*
X32930405Y35184883D01*
X33414795Y35669273D01*
X34030301Y36284780D01*
X34092611Y36318803D01*
X34101464Y36320401D01*
X34109106Y36321500D01*
X34109111Y36321500D01*
X34249411Y36362696D01*
X34351801Y36428498D01*
X34419922Y36448500D01*
X42288078Y36448500D01*
X42356199Y36428498D01*
X42458589Y36362696D01*
X42561638Y36332438D01*
X42598885Y36321501D01*
X42598886Y36321501D01*
X42598889Y36321500D01*
X42598892Y36321500D01*
X42745108Y36321500D01*
X42745111Y36321500D01*
X42885411Y36362696D01*
X43008421Y36441750D01*
X43104176Y36552257D01*
X43164919Y36685266D01*
X43173741Y36746620D01*
X43185729Y36829997D01*
X43185729Y36830004D01*
X43164920Y36974728D01*
X43164919Y36974729D01*
X43164919Y36974734D01*
X43104176Y37107743D01*
X43008421Y37218250D01*
X43008420Y37218251D01*
X42946916Y37257777D01*
X42885411Y37297304D01*
X42850336Y37307603D01*
X42745114Y37338500D01*
X42745111Y37338500D01*
X42598889Y37338500D01*
X42598885Y37338500D01*
X42458589Y37297304D01*
X42458587Y37297303D01*
X42356199Y37231502D01*
X42288078Y37211500D01*
X34419922Y37211500D01*
X34351801Y37231502D01*
X34306384Y37260690D01*
X34249411Y37297304D01*
X34191089Y37314429D01*
X34109109Y37338501D01*
X34101457Y37339601D01*
X34036877Y37369097D01*
X34030299Y37375223D01*
X31730253Y39675271D01*
X31730243Y39675279D01*
X31717757Y39682488D01*
X31717755Y39682488D01*
X31643254Y39725501D01*
X31546225Y39751500D01*
X31546223Y39751500D01*
X6987922Y39751500D01*
X6919801Y39771502D01*
X6874384Y39800690D01*
X6817411Y39837304D01*
X6782336Y39847603D01*
X6677114Y39878500D01*
X6677111Y39878500D01*
X6530889Y39878500D01*
X6530885Y39878500D01*
X6390589Y39837304D01*
X6390587Y39837303D01*
X6267579Y39758251D01*
X6171824Y39647744D01*
X6111081Y39514735D01*
X6111079Y39514728D01*
X6090271Y39370004D01*
X6090271Y39369997D01*
X6111079Y39225273D01*
X6111081Y39225266D01*
X6171824Y39092257D01*
X6267579Y38981750D01*
X6390589Y38902696D01*
X6510039Y38867622D01*
X6530885Y38861501D01*
X6530886Y38861501D01*
X6530889Y38861500D01*
X6530892Y38861500D01*
X6677108Y38861500D01*
X6677111Y38861500D01*
X6817411Y38902696D01*
X6919801Y38968498D01*
X6987922Y38988500D01*
X8761634Y38988500D01*
X8829755Y38968498D01*
X8876248Y38914842D01*
X8886352Y38844568D01*
X8856858Y38779988D01*
X8829756Y38756503D01*
X8807580Y38742252D01*
X8807579Y38742252D01*
X8711824Y38631744D01*
X8651081Y38498735D01*
X8651079Y38498728D01*
X8630271Y38354004D01*
X8630271Y38353997D01*
X8651079Y38209273D01*
X8651081Y38209266D01*
X8711824Y38076257D01*
X8807579Y37965750D01*
X8930589Y37886696D01*
X9070889Y37845500D01*
X9070895Y37845500D01*
X9078529Y37844402D01*
X9143111Y37814913D01*
X9149698Y37808779D01*
X9150893Y37807584D01*
X9184919Y37745272D01*
X9179854Y37674457D01*
X9137307Y37617621D01*
X9079732Y37593772D01*
X9070891Y37592501D01*
X8930589Y37551304D01*
X8930587Y37551303D01*
X8807579Y37472251D01*
X8711824Y37361744D01*
X8651081Y37228735D01*
X8651079Y37228728D01*
X8630271Y37084004D01*
X8630271Y37083997D01*
X8651079Y36939273D01*
X8651081Y36939266D01*
X8711824Y36806257D01*
X8807579Y36695750D01*
X8930589Y36616696D01*
X9050039Y36581622D01*
X9070885Y36575501D01*
X9070886Y36575501D01*
X9070889Y36575500D01*
X9070892Y36575500D01*
X9217108Y36575500D01*
X9217111Y36575500D01*
X9357411Y36616696D01*
X9357412Y36616698D01*
X9363001Y36618338D01*
X9433998Y36618338D01*
X9493724Y36579955D01*
X9523217Y36515374D01*
X9524500Y36497442D01*
X9524500Y36400559D01*
X9504498Y36332438D01*
X9450842Y36285945D01*
X9380568Y36275841D01*
X9363002Y36279663D01*
X9217116Y36322499D01*
X9217113Y36322500D01*
X9217111Y36322500D01*
X9070889Y36322500D01*
X9070885Y36322500D01*
X8930589Y36281304D01*
X8930587Y36281303D01*
X8807579Y36202251D01*
X8711824Y36091744D01*
X8651081Y35958735D01*
X8651079Y35958728D01*
X8630271Y35814004D01*
X8630271Y35813997D01*
X8651079Y35669273D01*
X8651081Y35669266D01*
X8711824Y35536257D01*
X8807579Y35425750D01*
X8930589Y35346696D01*
X9050039Y35311622D01*
X9070885Y35305501D01*
X9070886Y35305501D01*
X9070889Y35305500D01*
X9070892Y35305500D01*
X9217108Y35305500D01*
X9217111Y35305500D01*
X9357411Y35346696D01*
X9357412Y35346698D01*
X9363001Y35348338D01*
X9433998Y35348338D01*
X9493724Y35309955D01*
X9523217Y35245374D01*
X9524500Y35227442D01*
X9524500Y35130559D01*
X9504498Y35062438D01*
X9450842Y35015945D01*
X9380568Y35005841D01*
X9363002Y35009663D01*
X9217116Y35052499D01*
X9217113Y35052500D01*
X9217111Y35052500D01*
X9070889Y35052500D01*
X9070885Y35052500D01*
X8930589Y35011304D01*
X8930587Y35011303D01*
X8807578Y34932250D01*
X8804473Y34929559D01*
X8800737Y34927854D01*
X8799998Y34927378D01*
X8799929Y34927485D01*
X8739891Y34900069D01*
X8669617Y34910175D01*
X8615963Y34956670D01*
X8607350Y34972445D01*
X8592099Y35005841D01*
X8560176Y35075743D01*
X8464421Y35186250D01*
X8464420Y35186251D01*
X8400325Y35227442D01*
X8341411Y35265304D01*
X8306336Y35275603D01*
X8201114Y35306500D01*
X8201111Y35306500D01*
X8054889Y35306500D01*
X8054885Y35306500D01*
X7914589Y35265304D01*
X7914587Y35265303D01*
X7791579Y35186251D01*
X7695824Y35075744D01*
X7635081Y34942735D01*
X7635079Y34942728D01*
X7614271Y34798004D01*
X7614271Y34797997D01*
X7635079Y34653273D01*
X7635081Y34653266D01*
X7695824Y34520257D01*
X7715723Y34497292D01*
X7745217Y34432713D01*
X7746500Y34414779D01*
X7746500Y34239777D01*
X7746499Y34239777D01*
X7772498Y34142749D01*
X7772501Y34142742D01*
X7810633Y34076696D01*
X7810635Y34076693D01*
X7822723Y34055754D01*
X7939530Y33938947D01*
X7973556Y33876635D01*
X7968491Y33805820D01*
X7925944Y33748984D01*
X7918556Y33743854D01*
X7791579Y33662251D01*
X7695824Y33551744D01*
X7635081Y33418735D01*
X7635079Y33418728D01*
X7614271Y33274004D01*
X7614271Y33273997D01*
X7635079Y33129273D01*
X7635081Y33129266D01*
X7695824Y32996257D01*
X7715723Y32973292D01*
X7745217Y32908713D01*
X7746500Y32890779D01*
X7746500Y31733523D01*
X7726498Y31665402D01*
X7672842Y31618909D01*
X7602568Y31608805D01*
X7537988Y31638299D01*
X7526864Y31649213D01*
X7490114Y31690028D01*
X7330338Y31806113D01*
X7149921Y31886439D01*
X6956745Y31927500D01*
X6759255Y31927500D01*
X6566078Y31886439D01*
X6385662Y31806113D01*
X6225886Y31690029D01*
X6093747Y31543274D01*
X6093743Y31543267D01*
X5994994Y31372233D01*
X5933967Y31184410D01*
X5913325Y30988000D01*
X5933967Y30791591D01*
X5994994Y30603768D01*
X6040228Y30525421D01*
X6093742Y30432734D01*
X6093744Y30432731D01*
X6093747Y30432727D01*
X6225885Y30285973D01*
X6225888Y30285971D01*
X6225889Y30285970D01*
X6385662Y30169887D01*
X6566079Y30089561D01*
X6759255Y30048500D01*
X6956745Y30048500D01*
X7149921Y30089561D01*
X7330338Y30169887D01*
X7490111Y30285970D01*
X7526863Y30326787D01*
X7587309Y30364028D01*
X7658292Y30362677D01*
X7717277Y30323164D01*
X7745536Y30258033D01*
X7746500Y30242478D01*
X7746500Y29193523D01*
X7726498Y29125402D01*
X7672842Y29078909D01*
X7602568Y29068805D01*
X7537988Y29098299D01*
X7526864Y29109213D01*
X7490114Y29150028D01*
X7330338Y29266113D01*
X7149921Y29346439D01*
X6956745Y29387500D01*
X6759255Y29387500D01*
X6566078Y29346439D01*
X6385662Y29266113D01*
X6225886Y29150029D01*
X6093747Y29003274D01*
X6093743Y29003267D01*
X5994994Y28832233D01*
X5933967Y28644410D01*
X5913325Y28448000D01*
X5933967Y28251591D01*
X5994994Y28063768D01*
X6040228Y27985421D01*
X6093742Y27892734D01*
X6093744Y27892731D01*
X6093747Y27892727D01*
X6225885Y27745973D01*
X6225888Y27745971D01*
X6225889Y27745970D01*
X6385662Y27629887D01*
X6566079Y27549561D01*
X6759255Y27508500D01*
X6956745Y27508500D01*
X7149921Y27549561D01*
X7330338Y27629887D01*
X7490111Y27745970D01*
X7526863Y27786787D01*
X7587309Y27824028D01*
X7658292Y27822677D01*
X7717277Y27783164D01*
X7745536Y27718033D01*
X7746500Y27702478D01*
X7746500Y26653523D01*
X7726498Y26585402D01*
X7672842Y26538909D01*
X7602568Y26528805D01*
X7537988Y26558299D01*
X7526864Y26569213D01*
X7490114Y26610028D01*
X7330338Y26726113D01*
X7149921Y26806439D01*
X6956745Y26847500D01*
X6759255Y26847500D01*
X6566078Y26806439D01*
X6385662Y26726113D01*
X6225886Y26610029D01*
X6093747Y26463274D01*
X6093743Y26463267D01*
X5994994Y26292233D01*
X5933967Y26104410D01*
X5913325Y25908000D01*
X5933967Y25711591D01*
X5994994Y25523768D01*
X6040228Y25445421D01*
X6093742Y25352734D01*
X6093744Y25352731D01*
X6093747Y25352727D01*
X6225885Y25205973D01*
X6225888Y25205971D01*
X6225889Y25205970D01*
X6385662Y25089887D01*
X6566079Y25009561D01*
X6759255Y24968500D01*
X6956745Y24968500D01*
X7149921Y25009561D01*
X7330338Y25089887D01*
X7490111Y25205970D01*
X7526863Y25246787D01*
X7587309Y25284028D01*
X7658292Y25282677D01*
X7717277Y25243164D01*
X7745536Y25178033D01*
X7746500Y25162478D01*
X7746500Y24113523D01*
X7726498Y24045402D01*
X7672842Y23998909D01*
X7602568Y23988805D01*
X7537988Y24018299D01*
X7526864Y24029213D01*
X7490114Y24070028D01*
X7330338Y24186113D01*
X7149921Y24266439D01*
X6956745Y24307500D01*
X6759255Y24307500D01*
X6566078Y24266439D01*
X6385662Y24186113D01*
X6225886Y24070029D01*
X6093747Y23923274D01*
X6093743Y23923267D01*
X5994994Y23752233D01*
X5933967Y23564410D01*
X5913325Y23368000D01*
X5933967Y23171591D01*
X5994994Y22983768D01*
X6040228Y22905421D01*
X6093742Y22812734D01*
X6093744Y22812731D01*
X6093747Y22812727D01*
X6225885Y22665973D01*
X6225888Y22665971D01*
X6225889Y22665970D01*
X6385662Y22549887D01*
X6566079Y22469561D01*
X6759255Y22428500D01*
X6956745Y22428500D01*
X7149921Y22469561D01*
X7330338Y22549887D01*
X7490111Y22665970D01*
X7526863Y22706787D01*
X7587309Y22744028D01*
X7658292Y22742677D01*
X7717277Y22703164D01*
X7745536Y22638033D01*
X7746500Y22622478D01*
X7746500Y21573523D01*
X7726498Y21505402D01*
X7672842Y21458909D01*
X7602568Y21448805D01*
X7537988Y21478299D01*
X7526864Y21489213D01*
X7490114Y21530028D01*
X7330338Y21646113D01*
X7149921Y21726439D01*
X6956745Y21767500D01*
X6759255Y21767500D01*
X6566078Y21726439D01*
X6385662Y21646113D01*
X6225886Y21530029D01*
X6093747Y21383274D01*
X6093743Y21383267D01*
X5994994Y21212233D01*
X5933967Y21024410D01*
X5913325Y20828000D01*
X5933967Y20631591D01*
X5994994Y20443768D01*
X6040228Y20365421D01*
X6093742Y20272734D01*
X6093744Y20272731D01*
X6093747Y20272727D01*
X6225885Y20125973D01*
X6225888Y20125971D01*
X6225889Y20125970D01*
X6385662Y20009887D01*
X6566079Y19929561D01*
X6759255Y19888500D01*
X6956745Y19888500D01*
X7149921Y19929561D01*
X7330338Y20009887D01*
X7490111Y20125970D01*
X7526863Y20166787D01*
X7587309Y20204028D01*
X7658292Y20202677D01*
X7717277Y20163164D01*
X7745536Y20098033D01*
X7746500Y20082478D01*
X7746500Y19033523D01*
X7726498Y18965402D01*
X7672842Y18918909D01*
X7602568Y18908805D01*
X7537988Y18938299D01*
X7526864Y18949213D01*
X7490114Y18990028D01*
X7330338Y19106113D01*
X7149921Y19186439D01*
X6956745Y19227500D01*
X6759255Y19227500D01*
X6566078Y19186439D01*
X6385662Y19106113D01*
X6225886Y18990029D01*
X6093747Y18843274D01*
X6093743Y18843267D01*
X5994994Y18672233D01*
X5933967Y18484410D01*
X5913325Y18288000D01*
X5933967Y18091591D01*
X5994994Y17903768D01*
X6023105Y17855080D01*
X6093742Y17732734D01*
X6093744Y17732731D01*
X6093747Y17732727D01*
X6225885Y17585973D01*
X6225888Y17585971D01*
X6225889Y17585970D01*
X6385662Y17469887D01*
X6566079Y17389561D01*
X6759255Y17348500D01*
X6956745Y17348500D01*
X7149921Y17389561D01*
X7330338Y17469887D01*
X7490111Y17585970D01*
X7526863Y17626787D01*
X7587309Y17664028D01*
X7658292Y17662677D01*
X7717277Y17623164D01*
X7745536Y17558033D01*
X7746500Y17542478D01*
X7746500Y16493523D01*
X7726498Y16425402D01*
X7672842Y16378909D01*
X7602568Y16368805D01*
X7537988Y16398299D01*
X7526864Y16409213D01*
X7490114Y16450028D01*
X7330338Y16566113D01*
X7149921Y16646439D01*
X6956745Y16687500D01*
X6759255Y16687500D01*
X6566078Y16646439D01*
X6385662Y16566113D01*
X6225886Y16450029D01*
X6093747Y16303274D01*
X6093743Y16303267D01*
X5994994Y16132233D01*
X5933967Y15944410D01*
X5913325Y15748000D01*
X5933967Y15551591D01*
X5994994Y15363768D01*
X6040228Y15285421D01*
X6093742Y15192734D01*
X6093744Y15192731D01*
X6093747Y15192727D01*
X6225885Y15045973D01*
X6225888Y15045971D01*
X6225889Y15045970D01*
X6385662Y14929887D01*
X6566079Y14849561D01*
X6759255Y14808500D01*
X6956745Y14808500D01*
X7149921Y14849561D01*
X7330338Y14929887D01*
X7490111Y15045970D01*
X7526863Y15086787D01*
X7587309Y15124028D01*
X7658292Y15122677D01*
X7717277Y15083164D01*
X7745536Y15018033D01*
X7746500Y15002478D01*
X7746500Y13953523D01*
X7726498Y13885402D01*
X7672842Y13838909D01*
X7602568Y13828805D01*
X7537988Y13858299D01*
X7526864Y13869213D01*
X7490114Y13910028D01*
X7330338Y14026113D01*
X7149921Y14106439D01*
X6956745Y14147500D01*
X6759255Y14147500D01*
X6566078Y14106439D01*
X6385662Y14026113D01*
X6225886Y13910029D01*
X6093747Y13763274D01*
X6093743Y13763267D01*
X5994994Y13592233D01*
X5933967Y13404410D01*
X5913325Y13208000D01*
X5933967Y13011591D01*
X5994994Y12823768D01*
X6013918Y12790992D01*
X6093742Y12652734D01*
X6093744Y12652731D01*
X6093747Y12652727D01*
X6225885Y12505973D01*
X6225888Y12505971D01*
X6225889Y12505970D01*
X6385662Y12389887D01*
X6566079Y12309561D01*
X6759255Y12268500D01*
X6956745Y12268500D01*
X7149921Y12309561D01*
X7330338Y12389887D01*
X7490111Y12505970D01*
X7526863Y12546787D01*
X7587309Y12584028D01*
X7658292Y12582677D01*
X7717277Y12543164D01*
X7745536Y12478033D01*
X7746500Y12462478D01*
X7746500Y11000852D01*
X7726498Y10932731D01*
X7672842Y10886238D01*
X7664939Y10883291D01*
X7660587Y10881303D01*
X7537579Y10802251D01*
X7441824Y10691744D01*
X7381081Y10558735D01*
X7381079Y10558728D01*
X7360271Y10414004D01*
X7360271Y10413997D01*
X7381079Y10269273D01*
X7381081Y10269266D01*
X7407306Y10211842D01*
X7417409Y10141568D01*
X7387916Y10076987D01*
X7328190Y10038604D01*
X7292692Y10033500D01*
X5537775Y10033500D01*
X5478390Y10017588D01*
X5440741Y10007500D01*
X5353756Y9957279D01*
X5353751Y9957275D01*
X5326221Y9929744D01*
X5282724Y9886247D01*
X5282722Y9886245D01*
X1021698Y5625222D01*
X959386Y5591196D01*
X950536Y5589600D01*
X942892Y5588501D01*
X802589Y5547304D01*
X802587Y5547303D01*
X679579Y5468251D01*
X583824Y5357744D01*
X523081Y5224735D01*
X523079Y5224728D01*
X502271Y5080004D01*
X76700Y5080004D01*
X76700Y8890004D01*
X2026271Y8890004D01*
X2026271Y8889997D01*
X2047079Y8745273D01*
X2047081Y8745266D01*
X2107824Y8612257D01*
X2203579Y8501750D01*
X2326589Y8422696D01*
X2446039Y8387622D01*
X2466885Y8381501D01*
X2466886Y8381501D01*
X2466889Y8381500D01*
X2466892Y8381500D01*
X2613108Y8381500D01*
X2613111Y8381500D01*
X2753411Y8422696D01*
X2876421Y8501750D01*
X2972176Y8612257D01*
X3032919Y8745266D01*
X3053729Y8890000D01*
X3053729Y8890004D01*
X3032920Y9034728D01*
X3032919Y9034729D01*
X3032919Y9034734D01*
X2972176Y9167743D01*
X2876421Y9278250D01*
X2876420Y9278251D01*
X2814916Y9317777D01*
X2753411Y9357304D01*
X2695675Y9374257D01*
X2613114Y9398500D01*
X2613111Y9398500D01*
X2466889Y9398500D01*
X2466885Y9398500D01*
X2326589Y9357304D01*
X2326587Y9357303D01*
X2203579Y9278251D01*
X2107824Y9167744D01*
X2047081Y9034735D01*
X2047079Y9034728D01*
X2026271Y8890004D01*
X76700Y8890004D01*
X76700Y30988000D01*
X3373325Y30988000D01*
X3393967Y30791591D01*
X3454995Y30603767D01*
X3454996Y30603765D01*
X3538619Y30458927D01*
X3555500Y30395927D01*
X3555500Y29040074D01*
X3538619Y28977074D01*
X3454996Y28832236D01*
X3454995Y28832234D01*
X3393967Y28644410D01*
X3373325Y28448000D01*
X3393967Y28251591D01*
X3454995Y28063767D01*
X3454996Y28063765D01*
X3538619Y27918927D01*
X3555500Y27855927D01*
X3555500Y26500074D01*
X3538619Y26437074D01*
X3454996Y26292236D01*
X3454995Y26292234D01*
X3393967Y26104410D01*
X3373325Y25908000D01*
X3393967Y25711591D01*
X3454995Y25523767D01*
X3454996Y25523765D01*
X3538619Y25378927D01*
X3555500Y25315927D01*
X3555500Y23960074D01*
X3538619Y23897074D01*
X3454996Y23752236D01*
X3454995Y23752234D01*
X3393967Y23564410D01*
X3373325Y23368000D01*
X3393967Y23171591D01*
X3454995Y22983767D01*
X3454996Y22983765D01*
X3538619Y22838927D01*
X3555500Y22775927D01*
X3555500Y21420074D01*
X3538619Y21357074D01*
X3454996Y21212236D01*
X3454995Y21212234D01*
X3393967Y21024410D01*
X3373325Y20828000D01*
X3393967Y20631591D01*
X3454995Y20443767D01*
X3454996Y20443765D01*
X3538619Y20298927D01*
X3555500Y20235927D01*
X3555500Y18880074D01*
X3538619Y18817074D01*
X3454996Y18672236D01*
X3454995Y18672234D01*
X3393967Y18484410D01*
X3373325Y18288000D01*
X3393967Y18091591D01*
X3454995Y17903767D01*
X3454996Y17903765D01*
X3538619Y17758927D01*
X3555500Y17695927D01*
X3555500Y16340074D01*
X3538619Y16277074D01*
X3454996Y16132236D01*
X3454995Y16132234D01*
X3393967Y15944410D01*
X3373325Y15748000D01*
X3393967Y15551591D01*
X3454995Y15363767D01*
X3454996Y15363765D01*
X3538619Y15218927D01*
X3555500Y15155927D01*
X3555500Y13800074D01*
X3538619Y13737074D01*
X3454996Y13592236D01*
X3454995Y13592234D01*
X3393967Y13404410D01*
X3373325Y13208000D01*
X3393967Y13011591D01*
X3454994Y12823768D01*
X3473918Y12790992D01*
X3553742Y12652734D01*
X3553744Y12652731D01*
X3553747Y12652727D01*
X3685885Y12505973D01*
X3685888Y12505971D01*
X3685889Y12505970D01*
X3845662Y12389887D01*
X4026079Y12309561D01*
X4219255Y12268500D01*
X4416745Y12268500D01*
X4609921Y12309561D01*
X4790338Y12389887D01*
X4950111Y12505970D01*
X5016994Y12580251D01*
X5082252Y12652727D01*
X5082252Y12652728D01*
X5082258Y12652734D01*
X5181004Y12823766D01*
X5193424Y12861989D01*
X5242032Y13011591D01*
X5262675Y13208000D01*
X5242032Y13404409D01*
X5181004Y13592234D01*
X5181003Y13592236D01*
X5097381Y13737074D01*
X5080500Y13800074D01*
X5080500Y15155927D01*
X5097381Y15218927D01*
X5181003Y15363765D01*
X5181004Y15363766D01*
X5242032Y15551591D01*
X5262675Y15748000D01*
X5242032Y15944409D01*
X5181004Y16132234D01*
X5181003Y16132236D01*
X5097381Y16277074D01*
X5080500Y16340074D01*
X5080500Y17695927D01*
X5097381Y17758927D01*
X5181003Y17903765D01*
X5181004Y17903766D01*
X5242032Y18091591D01*
X5262675Y18288000D01*
X5242032Y18484409D01*
X5181004Y18672234D01*
X5181003Y18672236D01*
X5097381Y18817074D01*
X5080500Y18880074D01*
X5080500Y20235927D01*
X5097381Y20298927D01*
X5181003Y20443765D01*
X5181004Y20443766D01*
X5242032Y20631591D01*
X5262675Y20828000D01*
X5242032Y21024409D01*
X5181004Y21212234D01*
X5181003Y21212236D01*
X5097381Y21357074D01*
X5080500Y21420074D01*
X5080500Y22775927D01*
X5097381Y22838927D01*
X5181003Y22983765D01*
X5181004Y22983766D01*
X5242032Y23171591D01*
X5262675Y23368000D01*
X5242032Y23564409D01*
X5181004Y23752234D01*
X5181003Y23752236D01*
X5097381Y23897074D01*
X5080500Y23960074D01*
X5080500Y25315927D01*
X5097381Y25378927D01*
X5181003Y25523765D01*
X5181004Y25523766D01*
X5242032Y25711591D01*
X5262675Y25908000D01*
X5242032Y26104409D01*
X5181004Y26292234D01*
X5181003Y26292236D01*
X5097381Y26437074D01*
X5080500Y26500074D01*
X5080500Y27855927D01*
X5097381Y27918927D01*
X5181003Y28063765D01*
X5181004Y28063766D01*
X5242032Y28251591D01*
X5262675Y28448000D01*
X5242032Y28644409D01*
X5181004Y28832234D01*
X5181003Y28832236D01*
X5097381Y28977074D01*
X5080500Y29040074D01*
X5080500Y30395927D01*
X5097381Y30458927D01*
X5181003Y30603765D01*
X5181004Y30603766D01*
X5242032Y30791591D01*
X5262675Y30988000D01*
X5242032Y31184409D01*
X5242032Y31184410D01*
X5181005Y31372233D01*
X5158387Y31411407D01*
X5082258Y31543266D01*
X5082254Y31543271D01*
X5082252Y31543274D01*
X4950114Y31690028D01*
X4790338Y31806113D01*
X4609921Y31886439D01*
X4416745Y31927500D01*
X4219255Y31927500D01*
X4026078Y31886439D01*
X3845662Y31806113D01*
X3685886Y31690029D01*
X3553747Y31543274D01*
X3553743Y31543267D01*
X3454994Y31372233D01*
X3393967Y31184410D01*
X3373325Y30988000D01*
X76700Y30988000D01*
X76700Y33274004D01*
X5836271Y33274004D01*
X5836271Y33273997D01*
X5857079Y33129273D01*
X5857081Y33129266D01*
X5917824Y32996257D01*
X6013579Y32885750D01*
X6136589Y32806696D01*
X6256039Y32771622D01*
X6276885Y32765501D01*
X6276886Y32765501D01*
X6276889Y32765500D01*
X6276892Y32765500D01*
X6423108Y32765500D01*
X6423111Y32765500D01*
X6563411Y32806696D01*
X6686421Y32885750D01*
X6782176Y32996257D01*
X6842919Y33129266D01*
X6863729Y33274000D01*
X6863729Y33274004D01*
X6842920Y33418728D01*
X6842919Y33418729D01*
X6842919Y33418734D01*
X6782176Y33551743D01*
X6686421Y33662250D01*
X6686420Y33662251D01*
X6624916Y33701777D01*
X6563411Y33741304D01*
X6528336Y33751603D01*
X6423114Y33782500D01*
X6423111Y33782500D01*
X6276889Y33782500D01*
X6276885Y33782500D01*
X6136589Y33741304D01*
X6136587Y33741303D01*
X6013579Y33662251D01*
X5917824Y33551744D01*
X5857081Y33418735D01*
X5857079Y33418728D01*
X5836271Y33274004D01*
X76700Y33274004D01*
X76700Y34798004D01*
X5836271Y34798004D01*
X5836271Y34797997D01*
X5857079Y34653273D01*
X5857081Y34653266D01*
X5917824Y34520257D01*
X6013579Y34409750D01*
X6136589Y34330696D01*
X6256039Y34295622D01*
X6276885Y34289501D01*
X6276886Y34289501D01*
X6276889Y34289500D01*
X6276892Y34289500D01*
X6423108Y34289500D01*
X6423111Y34289500D01*
X6563411Y34330696D01*
X6686421Y34409750D01*
X6782176Y34520257D01*
X6842919Y34653266D01*
X6863729Y34798000D01*
X6863729Y34798004D01*
X6842920Y34942728D01*
X6842919Y34942729D01*
X6842919Y34942734D01*
X6782176Y35075743D01*
X6686421Y35186250D01*
X6686420Y35186251D01*
X6622325Y35227442D01*
X6563411Y35265304D01*
X6528336Y35275603D01*
X6423114Y35306500D01*
X6423111Y35306500D01*
X6276889Y35306500D01*
X6276885Y35306500D01*
X6136589Y35265304D01*
X6136587Y35265303D01*
X6013579Y35186251D01*
X5917824Y35075744D01*
X5857081Y34942735D01*
X5857079Y34942728D01*
X5836271Y34798004D01*
X76700Y34798004D01*
X76700Y36322004D01*
X5836271Y36322004D01*
X5836271Y36321997D01*
X5857079Y36177273D01*
X5857081Y36177266D01*
X5917824Y36044257D01*
X6013579Y35933750D01*
X6136589Y35854696D01*
X6256039Y35819622D01*
X6276885Y35813501D01*
X6276886Y35813501D01*
X6276889Y35813500D01*
X6276892Y35813500D01*
X6423108Y35813500D01*
X6423111Y35813500D01*
X6563411Y35854696D01*
X6686421Y35933750D01*
X6782176Y36044257D01*
X6842919Y36177266D01*
X6846511Y36202251D01*
X6863729Y36321997D01*
X6863729Y36322004D01*
X6842920Y36466728D01*
X6842919Y36466729D01*
X6842919Y36466734D01*
X6782176Y36599743D01*
X6686421Y36710250D01*
X6686420Y36710251D01*
X6624916Y36749777D01*
X6563411Y36789304D01*
X6505675Y36806257D01*
X6423114Y36830500D01*
X6423111Y36830500D01*
X6276889Y36830500D01*
X6276885Y36830500D01*
X6136589Y36789304D01*
X6136587Y36789303D01*
X6013579Y36710251D01*
X5917824Y36599744D01*
X5857081Y36466735D01*
X5857079Y36466728D01*
X5836271Y36322004D01*
X76700Y36322004D01*
X76700Y37846004D01*
X5836271Y37846004D01*
X5836271Y37845997D01*
X5857079Y37701273D01*
X5857081Y37701266D01*
X5917824Y37568257D01*
X6013579Y37457750D01*
X6136589Y37378696D01*
X6256039Y37343622D01*
X6276885Y37337501D01*
X6276886Y37337501D01*
X6276889Y37337500D01*
X6276892Y37337500D01*
X6423108Y37337500D01*
X6423111Y37337500D01*
X6563411Y37378696D01*
X6686421Y37457750D01*
X6782176Y37568257D01*
X6842919Y37701266D01*
X6858206Y37807584D01*
X6863729Y37845997D01*
X6863729Y37846004D01*
X6842920Y37990728D01*
X6842919Y37990729D01*
X6842919Y37990734D01*
X6782176Y38123743D01*
X6686421Y38234250D01*
X6686420Y38234251D01*
X6624916Y38273777D01*
X6563411Y38313304D01*
X6528336Y38323603D01*
X6423114Y38354500D01*
X6423111Y38354500D01*
X6276889Y38354500D01*
X6276885Y38354500D01*
X6136589Y38313304D01*
X6136587Y38313303D01*
X6013579Y38234251D01*
X5917824Y38123744D01*
X5857081Y37990735D01*
X5857079Y37990728D01*
X5836271Y37846004D01*
X76700Y37846004D01*
X76700Y41961300D01*
X96702Y42029421D01*
X150358Y42075914D01*
X202700Y42087300D01*
X48565300Y42087300D01*
X48633421Y42067298D01*
G37*
%TD.AperFunction*%
%TD*%
M02*
