%TF.GenerationSoftware,KiCad,Pcbnew,8.0.4*%
%TF.CreationDate,2024-09-05T11:54:57-04:00*%
%TF.ProjectId,ESP32-RC_R0,45535033-322d-4524-935f-52302e6b6963,0*%
%TF.SameCoordinates,Original*%
%TF.FileFunction,Paste,Top*%
%TF.FilePolarity,Positive*%
%FSLAX46Y46*%
G04 Gerber Fmt 4.6, Leading zero omitted, Abs format (unit mm)*
G04 Created by KiCad (PCBNEW 8.0.4) date 2024-09-05 11:54:57*
%MOMM*%
%LPD*%
G01*
G04 APERTURE LIST*
%ADD10C,0.010000*%
%ADD11R,0.800000X0.800000*%
%ADD12R,0.939800X0.812800*%
%ADD13R,0.812800X0.939800*%
%ADD14R,0.400000X0.480000*%
%ADD15R,1.397000X1.016000*%
%ADD16R,1.016000X1.397000*%
%ADD17R,1.803400X7.493000*%
%ADD18R,0.270000X0.990000*%
%ADD19R,0.990000X0.270000*%
%ADD20R,0.660400X1.549400*%
%ADD21R,1.295400X1.905000*%
%ADD22R,2.000000X0.900000*%
%ADD23R,0.900000X2.000000*%
%ADD24R,1.330000X1.330000*%
%ADD25R,1.500000X2.000000*%
%ADD26R,0.600000X0.800000*%
%ADD27R,0.400000X1.350000*%
%ADD28R,1.800000X1.900000*%
%ADD29R,1.900000X1.900000*%
%ADD30R,0.600000X1.150000*%
%ADD31R,5.500000X1.000000*%
%ADD32R,3.000000X1.600000*%
%ADD33R,0.460000X1.040000*%
G04 APERTURE END LIST*
D10*
%TO.C,U1*%
X135139740Y-99833740D02*
X133084260Y-99833740D01*
X133084260Y-97778260D01*
X135139740Y-97778260D01*
X135139740Y-99833740D01*
G36*
X135139740Y-99833740D02*
G01*
X133084260Y-99833740D01*
X133084260Y-97778260D01*
X135139740Y-97778260D01*
X135139740Y-99833740D01*
G37*
%TD*%
D11*
%TO.C,D5*%
X155194000Y-112560000D03*
X155194000Y-110960000D03*
%TD*%
D12*
%TO.C,R8*%
X138430000Y-101142800D03*
X138430000Y-99517200D03*
%TD*%
D13*
%TO.C,R9*%
X122478800Y-76708000D03*
X120853200Y-76708000D03*
%TD*%
D14*
%TO.C,D2*%
X132842000Y-106578000D03*
X132842000Y-105258000D03*
%TD*%
D13*
%TO.C,C7*%
X145592800Y-101092000D03*
X143967200Y-101092000D03*
%TD*%
%TO.C,R3*%
X122478800Y-79756000D03*
X120853200Y-79756000D03*
%TD*%
%TO.C,C10*%
X151841200Y-104902000D03*
X153466800Y-104902000D03*
%TD*%
D12*
%TO.C,R18*%
X150114000Y-107137200D03*
X150114000Y-108762800D03*
%TD*%
D14*
%TO.C,D3*%
X131318000Y-106578000D03*
X131318000Y-105258000D03*
%TD*%
D13*
%TO.C,R1*%
X115976400Y-113030000D03*
X117602000Y-113030000D03*
%TD*%
D15*
%TO.C,C4*%
X120650000Y-75082400D03*
X120650000Y-73253600D03*
%TD*%
D12*
%TO.C,C2*%
X134874000Y-103327200D03*
X134874000Y-104952800D03*
%TD*%
%TO.C,R15*%
X125222000Y-99618800D03*
X125222000Y-97993200D03*
%TD*%
D14*
%TO.C,D4*%
X129794000Y-106578000D03*
X129794000Y-105258000D03*
%TD*%
D13*
%TO.C,C8*%
X155143200Y-108966000D03*
X156768800Y-108966000D03*
%TD*%
D12*
%TO.C,R12*%
X141478000Y-99364800D03*
X141478000Y-97739200D03*
%TD*%
D13*
%TO.C,R7*%
X119430800Y-81280000D03*
X117805200Y-81280000D03*
%TD*%
D16*
%TO.C,C9*%
X151739600Y-103124000D03*
X153568400Y-103124000D03*
%TD*%
D13*
%TO.C,R17*%
X156768800Y-107188000D03*
X155143200Y-107188000D03*
%TD*%
D15*
%TO.C,C12*%
X159004000Y-107289600D03*
X159004000Y-109118400D03*
%TD*%
D12*
%TO.C,R20*%
X156718000Y-112572800D03*
X156718000Y-110947200D03*
%TD*%
%TO.C,C3*%
X122428000Y-74980800D03*
X122428000Y-73355200D03*
%TD*%
%TO.C,R11*%
X139954000Y-97739200D03*
X139954000Y-99364800D03*
%TD*%
D13*
%TO.C,R22*%
X115976400Y-110236000D03*
X117602000Y-110236000D03*
%TD*%
%TO.C,C6*%
X139903200Y-101092000D03*
X141528800Y-101092000D03*
%TD*%
D17*
%TO.C,L1*%
X156210000Y-102108000D03*
X161798000Y-102108000D03*
%TD*%
D12*
%TO.C,R10*%
X138430000Y-97840800D03*
X138430000Y-96215200D03*
%TD*%
D13*
%TO.C,C5*%
X119430800Y-76708000D03*
X117805200Y-76708000D03*
%TD*%
D18*
%TO.C,U1*%
X132612000Y-101166000D03*
X133112000Y-101166000D03*
X133612000Y-101166000D03*
X134112000Y-101166000D03*
X134612000Y-101166000D03*
X135112000Y-101166000D03*
X135612000Y-101166000D03*
D19*
X136472000Y-100306000D03*
X136472000Y-99806000D03*
X136472000Y-99306000D03*
X136472000Y-98806000D03*
X136472000Y-98306000D03*
X136472000Y-97806000D03*
X136472000Y-97306000D03*
D18*
X135612000Y-96446000D03*
X135112000Y-96446000D03*
X134612000Y-96446000D03*
X134112000Y-96446000D03*
X133612000Y-96446000D03*
X133112000Y-96446000D03*
X132612000Y-96446000D03*
D19*
X131752000Y-97306000D03*
X131752000Y-97806000D03*
X131752000Y-98306000D03*
X131752000Y-98806000D03*
X131752000Y-99306000D03*
X131752000Y-99806000D03*
X131752000Y-100306000D03*
%TD*%
D13*
%TO.C,R4*%
X122478800Y-81280000D03*
X120853200Y-81280000D03*
%TD*%
D15*
%TO.C,C11*%
X161036000Y-107289600D03*
X161036000Y-109118400D03*
%TD*%
D12*
%TO.C,C1*%
X136398000Y-103327200D03*
X136398000Y-104952800D03*
%TD*%
D20*
%TO.C,J3*%
X148106000Y-76558201D03*
X149106001Y-76558201D03*
X150105999Y-76558201D03*
X151106000Y-76558201D03*
D21*
X146806001Y-73978201D03*
X152405999Y-73978201D03*
%TD*%
D12*
%TO.C,R16*%
X126746000Y-97993200D03*
X126746000Y-99618800D03*
%TD*%
D22*
%TO.C,U2*%
X125612000Y-73472000D03*
X125612000Y-74742000D03*
X125612000Y-76012000D03*
X125612000Y-77282000D03*
X125612000Y-78552000D03*
X125612000Y-79822000D03*
X125612000Y-81092000D03*
X125612000Y-82362000D03*
X125612000Y-83632000D03*
X125612000Y-84902000D03*
X125612000Y-86172000D03*
X125612000Y-87442000D03*
X125612000Y-88712000D03*
X125612000Y-89982000D03*
D23*
X128397000Y-90982000D03*
X129667000Y-90982000D03*
X130937000Y-90982000D03*
X132207000Y-90982000D03*
X133477000Y-90982000D03*
X134747000Y-90982000D03*
X136017000Y-90982000D03*
X137287000Y-90982000D03*
X138557000Y-90982000D03*
X139827000Y-90982000D03*
D22*
X142612000Y-89982000D03*
X142612000Y-88712000D03*
X142612000Y-87442000D03*
X142612000Y-86172000D03*
X142612000Y-84902000D03*
X142612000Y-83632000D03*
X142612000Y-82362000D03*
X142612000Y-81092000D03*
X142612000Y-79822000D03*
X142612000Y-78552000D03*
X142612000Y-77282000D03*
X142612000Y-76012000D03*
X142612000Y-74742000D03*
X142612000Y-73472000D03*
D24*
X133112000Y-80472000D03*
X131277000Y-82307000D03*
X133112000Y-82307000D03*
X134947000Y-82307000D03*
X134947000Y-80472000D03*
X134947000Y-78637000D03*
X133112000Y-78637000D03*
X131277000Y-78637000D03*
X131277000Y-80472000D03*
%TD*%
D25*
%TO.C,S1*%
X139954000Y-112558000D03*
X139954000Y-104358000D03*
%TD*%
D12*
%TO.C,R14*%
X128270000Y-99618800D03*
X128270000Y-97993200D03*
%TD*%
%TO.C,R13*%
X129794000Y-99618800D03*
X129794000Y-97993200D03*
%TD*%
D26*
%TO.C,Q2*%
X126934000Y-101352000D03*
X125034000Y-101352000D03*
X125984000Y-103372000D03*
%TD*%
D13*
%TO.C,R5*%
X119430800Y-78232000D03*
X117805200Y-78232000D03*
%TD*%
D27*
%TO.C,J8*%
X129002000Y-109689000D03*
X129652000Y-109689000D03*
X130302000Y-109689000D03*
X130952000Y-109689000D03*
X131602000Y-109689000D03*
D28*
X126302000Y-112364000D03*
D29*
X129102000Y-112364000D03*
X131502000Y-112364000D03*
D28*
X134302000Y-112364000D03*
%TD*%
D20*
%TO.C,J4*%
X156742000Y-76558201D03*
X157742001Y-76558201D03*
X158741999Y-76558201D03*
X159742000Y-76558201D03*
D21*
X155442001Y-73978201D03*
X161041999Y-73978201D03*
%TD*%
D26*
%TO.C,Q1*%
X125034000Y-96260000D03*
X126934000Y-96260000D03*
X125984000Y-94240000D03*
%TD*%
D30*
%TO.C,U3*%
X153604000Y-106650000D03*
X152654000Y-106650000D03*
X151704000Y-106650000D03*
X151704000Y-109250000D03*
X152654000Y-109250000D03*
X153604000Y-109250000D03*
%TD*%
D13*
%TO.C,R6*%
X119430800Y-79756000D03*
X117805200Y-79756000D03*
%TD*%
D12*
%TO.C,R21*%
X151892000Y-110947200D03*
X151892000Y-112572800D03*
%TD*%
D31*
%TO.C,J6*%
X150586000Y-87598000D03*
X150586000Y-85598000D03*
X150586000Y-83598000D03*
D32*
X148336000Y-89998000D03*
X148336000Y-81198000D03*
%TD*%
D12*
%TO.C,R19*%
X153416000Y-112572800D03*
X153416000Y-110947200D03*
%TD*%
D33*
%TO.C,D1*%
X128016000Y-107362000D03*
X128016000Y-104982000D03*
%TD*%
D31*
%TO.C,J7*%
X160238000Y-87598000D03*
X160238000Y-85598000D03*
X160238000Y-83598000D03*
D32*
X157988000Y-89998000D03*
X157988000Y-81198000D03*
%TD*%
D12*
%TO.C,R23*%
X162814000Y-107340400D03*
X162814000Y-108966000D03*
%TD*%
D13*
%TO.C,R2*%
X122478800Y-78232000D03*
X120853200Y-78232000D03*
%TD*%
D25*
%TO.C,S2*%
X145542000Y-112558000D03*
X145542000Y-104358000D03*
%TD*%
M02*
