%TF.GenerationSoftware,KiCad,Pcbnew,8.0.4*%
%TF.CreationDate,2024-10-03T11:01:47-04:00*%
%TF.ProjectId,ESP32-RC_R1,45535033-322d-4524-935f-52312e6b6963,0*%
%TF.SameCoordinates,PX6dbb4f0PY6d3f490*%
%TF.FileFunction,Legend,Top*%
%TF.FilePolarity,Positive*%
%FSLAX46Y46*%
G04 Gerber Fmt 4.6, Leading zero omitted, Abs format (unit mm)*
G04 Created by KiCad (PCBNEW 8.0.4) date 2024-10-03 11:01:47*
%MOMM*%
%LPD*%
G01*
G04 APERTURE LIST*
%ADD10C,0.177800*%
%ADD11C,0.000000*%
%ADD12C,0.200000*%
G04 APERTURE END LIST*
D10*
X3773714Y6397226D02*
X4354286Y6397226D01*
X4064000Y5381226D02*
X4064000Y6397226D01*
X1330476Y5381226D02*
X991809Y5865035D01*
X749904Y5381226D02*
X749904Y6397226D01*
X749904Y6397226D02*
X1136952Y6397226D01*
X1136952Y6397226D02*
X1233714Y6348845D01*
X1233714Y6348845D02*
X1282095Y6300464D01*
X1282095Y6300464D02*
X1330476Y6203702D01*
X1330476Y6203702D02*
X1330476Y6058559D01*
X1330476Y6058559D02*
X1282095Y5961797D01*
X1282095Y5961797D02*
X1233714Y5913416D01*
X1233714Y5913416D02*
X1136952Y5865035D01*
X1136952Y5865035D02*
X749904Y5865035D01*
X29106923Y17925143D02*
X28090923Y17925143D01*
X28090923Y17925143D02*
X28090923Y18312191D01*
X28090923Y18312191D02*
X28139304Y18408953D01*
X28139304Y18408953D02*
X28187685Y18457334D01*
X28187685Y18457334D02*
X28284447Y18505715D01*
X28284447Y18505715D02*
X28429590Y18505715D01*
X28429590Y18505715D02*
X28526352Y18457334D01*
X28526352Y18457334D02*
X28574733Y18408953D01*
X28574733Y18408953D02*
X28623114Y18312191D01*
X28623114Y18312191D02*
X28623114Y17925143D01*
X29106923Y18941143D02*
X28090923Y18941143D01*
X28090923Y18941143D02*
X28816638Y19279810D01*
X28816638Y19279810D02*
X28090923Y19618477D01*
X28090923Y19618477D02*
X29106923Y19618477D01*
X28090923Y20295810D02*
X28090923Y20489334D01*
X28090923Y20489334D02*
X28139304Y20586096D01*
X28139304Y20586096D02*
X28236066Y20682858D01*
X28236066Y20682858D02*
X28429590Y20731239D01*
X28429590Y20731239D02*
X28768257Y20731239D01*
X28768257Y20731239D02*
X28961781Y20682858D01*
X28961781Y20682858D02*
X29058543Y20586096D01*
X29058543Y20586096D02*
X29106923Y20489334D01*
X29106923Y20489334D02*
X29106923Y20295810D01*
X29106923Y20295810D02*
X29058543Y20199048D01*
X29058543Y20199048D02*
X28961781Y20102286D01*
X28961781Y20102286D02*
X28768257Y20053905D01*
X28768257Y20053905D02*
X28429590Y20053905D01*
X28429590Y20053905D02*
X28236066Y20102286D01*
X28236066Y20102286D02*
X28139304Y20199048D01*
X28139304Y20199048D02*
X28090923Y20295810D01*
X29106923Y21166667D02*
X28090923Y21166667D01*
X28090923Y21166667D02*
X28090923Y21408572D01*
X28090923Y21408572D02*
X28139304Y21553715D01*
X28139304Y21553715D02*
X28236066Y21650477D01*
X28236066Y21650477D02*
X28332828Y21698858D01*
X28332828Y21698858D02*
X28526352Y21747239D01*
X28526352Y21747239D02*
X28671495Y21747239D01*
X28671495Y21747239D02*
X28865019Y21698858D01*
X28865019Y21698858D02*
X28961781Y21650477D01*
X28961781Y21650477D02*
X29058543Y21553715D01*
X29058543Y21553715D02*
X29106923Y21408572D01*
X29106923Y21408572D02*
X29106923Y21166667D01*
X29823388Y19086286D02*
X29775007Y19134667D01*
X29775007Y19134667D02*
X29726626Y19231429D01*
X29726626Y19231429D02*
X29726626Y19473334D01*
X29726626Y19473334D02*
X29775007Y19570096D01*
X29775007Y19570096D02*
X29823388Y19618477D01*
X29823388Y19618477D02*
X29920150Y19666858D01*
X29920150Y19666858D02*
X30016912Y19666858D01*
X30016912Y19666858D02*
X30162055Y19618477D01*
X30162055Y19618477D02*
X30742626Y19037905D01*
X30742626Y19037905D02*
X30742626Y19666858D01*
X30452341Y20053905D02*
X30452341Y20537715D01*
X30742626Y19957143D02*
X29726626Y20295810D01*
X29726626Y20295810D02*
X30742626Y20634477D01*
X27879524Y1935776D02*
X28024667Y1887395D01*
X28024667Y1887395D02*
X28073048Y1839014D01*
X28073048Y1839014D02*
X28121429Y1742252D01*
X28121429Y1742252D02*
X28121429Y1597109D01*
X28121429Y1597109D02*
X28073048Y1500347D01*
X28073048Y1500347D02*
X28024667Y1451966D01*
X28024667Y1451966D02*
X27927905Y1403586D01*
X27927905Y1403586D02*
X27540857Y1403586D01*
X27540857Y1403586D02*
X27540857Y2419586D01*
X27540857Y2419586D02*
X27879524Y2419586D01*
X27879524Y2419586D02*
X27976286Y2371205D01*
X27976286Y2371205D02*
X28024667Y2322824D01*
X28024667Y2322824D02*
X28073048Y2226062D01*
X28073048Y2226062D02*
X28073048Y2129300D01*
X28073048Y2129300D02*
X28024667Y2032538D01*
X28024667Y2032538D02*
X27976286Y1984157D01*
X27976286Y1984157D02*
X27879524Y1935776D01*
X27879524Y1935776D02*
X27540857Y1935776D01*
X28411714Y2419586D02*
X28992286Y2419586D01*
X28702000Y1403586D02*
X28702000Y2419586D01*
X21856095Y1935776D02*
X22194762Y1935776D01*
X22339905Y1403586D02*
X21856095Y1403586D01*
X21856095Y1403586D02*
X21856095Y2419586D01*
X21856095Y2419586D02*
X22339905Y2419586D01*
X22775333Y1403586D02*
X22775333Y2419586D01*
X22775333Y2419586D02*
X23355905Y1403586D01*
X23355905Y1403586D02*
X23355905Y2419586D01*
X29802129Y26682096D02*
X29802129Y27165906D01*
X30092414Y26585334D02*
X29076414Y26924001D01*
X29076414Y26924001D02*
X30092414Y27262668D01*
X29705367Y30600953D02*
X29705367Y31375048D01*
X29705367Y28568953D02*
X29705367Y29343048D01*
X30092414Y28956001D02*
X29318319Y28956001D01*
X35439047Y16243368D02*
X34664952Y16243368D01*
X32899047Y16243368D02*
X32124952Y16243368D01*
X32511999Y16630415D02*
X32511999Y15856320D01*
X9893367Y1390953D02*
X9893367Y2165048D01*
X9893367Y3930953D02*
X9893367Y4705048D01*
X10280414Y4318001D02*
X9506319Y4318001D01*
X7112000Y10541000D02*
X7366000Y10541000D01*
X7112000Y11303000D02*
X7112000Y10541000D01*
X6604000Y11303000D02*
X7112000Y11303000D01*
X6604000Y10541000D02*
X6604000Y11303000D01*
X6350000Y10541000D02*
X6604000Y10541000D01*
X3930952Y10934633D02*
X4705048Y10934633D01*
X4318000Y10547586D02*
X4318000Y11321681D01*
X1390952Y10934633D02*
X2165048Y10934633D01*
%TO.C,J8*%
X46482000Y22352000D02*
X46482000Y17272000D01*
X31242000Y17272000D02*
X46482000Y17272000D01*
X31242000Y17272000D02*
X31242000Y22352000D01*
X31242000Y22352000D02*
X46482000Y22352000D01*
%TO.C,D5*%
X39700200Y2590800D02*
X39039800Y2590800D01*
X39368738Y2697812D02*
X39038538Y2977212D01*
X39698938Y2977212D01*
X39368738Y2697812D01*
G36*
X39368738Y2697812D02*
G01*
X39038538Y2977212D01*
X39698938Y2977212D01*
X39368738Y2697812D01*
G37*
D11*
%TO.C,G1*%
G36*
X32278327Y35730327D02*
G01*
X32343660Y35710538D01*
X32402480Y35671144D01*
X32408086Y35666184D01*
X32452397Y35614214D01*
X32480942Y35550983D01*
X32494993Y35472895D01*
X32496979Y35414891D01*
X32494426Y35354831D01*
X32486735Y35309271D01*
X32472158Y35268807D01*
X32468320Y35260616D01*
X32423713Y35193649D01*
X32365324Y35144946D01*
X32296670Y35115952D01*
X32221269Y35108111D01*
X32142639Y35122866D01*
X32137245Y35124733D01*
X32075606Y35158855D01*
X32022038Y35212694D01*
X31992787Y35257952D01*
X31979828Y35286740D01*
X31971904Y35318647D01*
X31967908Y35360607D01*
X31966733Y35419558D01*
X31966730Y35421184D01*
X31967521Y35478928D01*
X31970965Y35520171D01*
X31978398Y35552518D01*
X31991153Y35583575D01*
X31997416Y35596121D01*
X32042384Y35660688D01*
X32100377Y35704947D01*
X32171194Y35728764D01*
X32200643Y35732371D01*
X32278327Y35730327D01*
G37*
G36*
X37856318Y34653237D02*
G01*
X37892454Y34633599D01*
X37909906Y34604132D01*
X37906666Y34567507D01*
X37892845Y34541601D01*
X37880313Y34519883D01*
X37883259Y34504454D01*
X37892845Y34492693D01*
X37909795Y34469582D01*
X37906706Y34457926D01*
X37887753Y34455148D01*
X37863706Y34465824D01*
X37849598Y34485329D01*
X37831263Y34508805D01*
X37810289Y34514730D01*
X37793807Y34502735D01*
X37789255Y34488470D01*
X37777927Y34465472D01*
X37764271Y34457404D01*
X37754007Y34457916D01*
X37747706Y34467178D01*
X37744431Y34489599D01*
X37743246Y34529589D01*
X37743145Y34556877D01*
X37743145Y34587943D01*
X37791434Y34587943D01*
X37793792Y34561922D01*
X37805266Y34553160D01*
X37824632Y34553942D01*
X37849500Y34561629D01*
X37857610Y34581220D01*
X37857831Y34587943D01*
X37852523Y34611160D01*
X37831999Y34620895D01*
X37824632Y34621943D01*
X37801553Y34621911D01*
X37792703Y34609859D01*
X37791434Y34587943D01*
X37743145Y34587943D01*
X37743145Y34660376D01*
X37803506Y34660376D01*
X37856318Y34653237D01*
G37*
G36*
X37891858Y34746038D02*
G01*
X37950922Y34714907D01*
X37995776Y34665988D01*
X38023505Y34601711D01*
X38027025Y34585711D01*
X38026708Y34526019D01*
X38006969Y34466190D01*
X37971530Y34412963D01*
X37924110Y34373081D01*
X37904053Y34362965D01*
X37859612Y34351153D01*
X37808905Y34347402D01*
X37762473Y34351867D01*
X37737108Y34360527D01*
X37679575Y34403521D01*
X37639484Y34457086D01*
X37617834Y34516995D01*
X37616616Y34551165D01*
X37664675Y34551165D01*
X37666138Y34508568D01*
X37672710Y34480559D01*
X37687668Y34457648D01*
X37702324Y34442107D01*
X37749970Y34408983D01*
X37805169Y34393153D01*
X37861170Y34395077D01*
X37911222Y34415213D01*
X37926347Y34426885D01*
X37964100Y34475300D01*
X37981425Y34529792D01*
X37979370Y34585408D01*
X37958986Y34637196D01*
X37921323Y34680203D01*
X37867429Y34709478D01*
X37866364Y34709833D01*
X37810663Y34716101D01*
X37754943Y34700212D01*
X37704116Y34663646D01*
X37700390Y34659853D01*
X37679644Y34635024D01*
X37668900Y34610107D01*
X37665021Y34575554D01*
X37664675Y34551165D01*
X37616616Y34551165D01*
X37615623Y34579020D01*
X37633850Y34638932D01*
X37661657Y34680077D01*
X37710857Y34725396D01*
X37763180Y34749964D01*
X37821496Y34756954D01*
X37891858Y34746038D01*
G37*
G36*
X37030882Y36510376D02*
G01*
X37184529Y36457763D01*
X37327596Y36385090D01*
X37458011Y36294113D01*
X37573701Y36186589D01*
X37672594Y36064272D01*
X37752617Y35928919D01*
X37775377Y35879733D01*
X37808263Y35797831D01*
X37831478Y35724214D01*
X37846837Y35650495D01*
X37856155Y35568286D01*
X37860676Y35485622D01*
X37858015Y35328193D01*
X37837010Y35183712D01*
X37796593Y35048263D01*
X37735695Y34917928D01*
X37681994Y34830150D01*
X37581722Y34701561D01*
X37464850Y34590040D01*
X37332814Y34496604D01*
X37187050Y34422266D01*
X37028994Y34368044D01*
X37028684Y34367962D01*
X36928268Y34341110D01*
X34927294Y34337460D01*
X32926319Y34333809D01*
X32926319Y35197283D01*
X32926319Y36060756D01*
X32987033Y36060756D01*
X33009155Y36003413D01*
X33017590Y35980919D01*
X33033391Y35938158D01*
X33055670Y35877551D01*
X33083541Y35801523D01*
X33116116Y35712494D01*
X33152507Y35612889D01*
X33191830Y35505131D01*
X33233195Y35391640D01*
X33241215Y35369620D01*
X33451153Y34793171D01*
X33658918Y34793171D01*
X33866682Y34793171D01*
X33920699Y34965200D01*
X33943944Y35039412D01*
X33971455Y35127525D01*
X34000373Y35220371D01*
X34027842Y35308780D01*
X34038282Y35342458D01*
X34059173Y35409164D01*
X34077971Y35467792D01*
X34093396Y35514467D01*
X34104173Y35545315D01*
X34108785Y35556279D01*
X34114066Y35547714D01*
X34125181Y35519054D01*
X34141092Y35473353D01*
X34160758Y35413660D01*
X34183141Y35343027D01*
X34199266Y35290690D01*
X34225277Y35205403D01*
X34251196Y35120564D01*
X34275445Y35041324D01*
X34296448Y34972831D01*
X34312629Y34920235D01*
X34317386Y34904839D01*
X34351963Y34793171D01*
X34560175Y34793171D01*
X34768388Y34793171D01*
X35280407Y34793171D01*
X35491671Y34793171D01*
X35702935Y34793171D01*
X35775369Y34793171D01*
X35986633Y34793171D01*
X36197897Y34793171D01*
X36197897Y35426964D01*
X36197897Y35474047D01*
X36275095Y35474047D01*
X36276208Y35355741D01*
X36295878Y35239526D01*
X36334441Y35129274D01*
X36376853Y35051445D01*
X36449724Y34959974D01*
X36537808Y34886995D01*
X36640358Y34832884D01*
X36756626Y34798016D01*
X36885865Y34782767D01*
X36913178Y34782104D01*
X37018810Y34781098D01*
X37018810Y34948457D01*
X37018810Y35115816D01*
X36939972Y35122144D01*
X36866319Y35135134D01*
X36809310Y35162730D01*
X36764393Y35207977D01*
X36733442Y35260285D01*
X36706426Y35338018D01*
X36696880Y35420443D01*
X36704060Y35502148D01*
X36727220Y35577721D01*
X36765615Y35641748D01*
X36789458Y35666991D01*
X36848574Y35706778D01*
X36915369Y35729294D01*
X36974300Y35732458D01*
X37012774Y35728770D01*
X37016123Y35900799D01*
X37019473Y36072829D01*
X36979907Y36074743D01*
X36842928Y36071431D01*
X36717678Y36047872D01*
X36604933Y36004336D01*
X36505469Y35941092D01*
X36449513Y35890778D01*
X36379748Y35802811D01*
X36327200Y35701453D01*
X36292204Y35590575D01*
X36275095Y35474047D01*
X36197897Y35474047D01*
X36197897Y36060756D01*
X35986633Y36060756D01*
X35775369Y36060756D01*
X35775369Y35426964D01*
X35775369Y34793171D01*
X35702935Y34793171D01*
X35702935Y35426964D01*
X35702935Y36060756D01*
X35491671Y36060756D01*
X35280407Y36060756D01*
X35280407Y35426964D01*
X35280407Y34793171D01*
X34768388Y34793171D01*
X34965928Y35333404D01*
X35000139Y35426964D01*
X35006999Y35445726D01*
X35046650Y35554166D01*
X35083880Y35655986D01*
X35117688Y35748447D01*
X35147072Y35828813D01*
X35171032Y35894343D01*
X35188565Y35942302D01*
X35197770Y35967481D01*
X35232072Y36061326D01*
X35025431Y36058023D01*
X34818790Y36054720D01*
X34697076Y35641246D01*
X34668843Y35545947D01*
X34642561Y35458405D01*
X34619038Y35381218D01*
X34599079Y35316982D01*
X34583490Y35268296D01*
X34573079Y35237757D01*
X34568735Y35227917D01*
X34563985Y35239128D01*
X34553406Y35270962D01*
X34537788Y35320821D01*
X34517921Y35386110D01*
X34494596Y35464231D01*
X34468603Y35552588D01*
X34441939Y35644409D01*
X34321769Y36060756D01*
X34119942Y36060756D01*
X33918116Y36060756D01*
X33905636Y36021521D01*
X33898750Y35998785D01*
X33885690Y35954561D01*
X33866955Y35890564D01*
X33843044Y35808512D01*
X33814456Y35710121D01*
X33781690Y35597106D01*
X33745246Y35471184D01*
X33705621Y35334071D01*
X33689210Y35277230D01*
X33670382Y35212002D01*
X33656305Y35253085D01*
X33649549Y35274422D01*
X33636933Y35315833D01*
X33619380Y35374225D01*
X33597817Y35446501D01*
X33573167Y35529566D01*
X33546356Y35620323D01*
X33529535Y35677463D01*
X33416841Y36060756D01*
X33201937Y36060756D01*
X32987033Y36060756D01*
X32926319Y36060756D01*
X32715055Y36060756D01*
X32503791Y36060756D01*
X32503791Y35988323D01*
X32501214Y35946294D01*
X32494400Y35920970D01*
X32484727Y35914729D01*
X32473569Y35929949D01*
X32472103Y35933573D01*
X32457394Y35951026D01*
X32427324Y35974960D01*
X32388205Y36001220D01*
X32346353Y36025653D01*
X32308082Y36044104D01*
X32298563Y36047740D01*
X32192278Y36073117D01*
X32083810Y36077136D01*
X31976737Y36061117D01*
X31874636Y36026381D01*
X31781086Y35974247D01*
X31699663Y35906036D01*
X31633947Y35823069D01*
X31618514Y35796761D01*
X31577062Y35698330D01*
X31550566Y35586638D01*
X31539020Y35467373D01*
X31542420Y35346225D01*
X31560760Y35228881D01*
X31594035Y35121032D01*
X31619185Y35066915D01*
X31661975Y35002402D01*
X31718586Y34938844D01*
X31781965Y34883126D01*
X31845058Y34842133D01*
X31854033Y34837692D01*
X31933316Y34806332D01*
X32013405Y34788299D01*
X32102675Y34782099D01*
X32159093Y34783207D01*
X32256499Y34794667D01*
X32338780Y34821135D01*
X32411237Y34864746D01*
X32454411Y34902162D01*
X32503791Y34950083D01*
X32503791Y34642254D01*
X32503791Y34334425D01*
X32295545Y34335620D01*
X32218188Y34336949D01*
X32140992Y34339836D01*
X32070677Y34343921D01*
X32013960Y34348847D01*
X31990316Y34351890D01*
X31834707Y34388018D01*
X31687657Y34445982D01*
X31550978Y34524437D01*
X31426479Y34622038D01*
X31315973Y34737439D01*
X31221271Y34869295D01*
X31169970Y34961339D01*
X31114934Y35097016D01*
X31079458Y35242310D01*
X31063548Y35392990D01*
X31067208Y35544824D01*
X31090444Y35693579D01*
X31133260Y35835025D01*
X31168901Y35915723D01*
X31254634Y36061734D01*
X31356047Y36189387D01*
X31473095Y36298647D01*
X31605730Y36389474D01*
X31753906Y36461834D01*
X31917578Y36515689D01*
X31921458Y36516693D01*
X31932071Y36519138D01*
X31944773Y36521386D01*
X31960568Y36523444D01*
X31980460Y36525322D01*
X32005451Y36527027D01*
X32036546Y36528568D01*
X32074747Y36529953D01*
X32121058Y36531190D01*
X32176483Y36532287D01*
X32242024Y36533253D01*
X32318684Y36534096D01*
X32407468Y36534824D01*
X32509379Y36535445D01*
X32625420Y36535968D01*
X32756593Y36536401D01*
X32903904Y36536752D01*
X33068354Y36537029D01*
X33250948Y36537241D01*
X33452688Y36537396D01*
X33674579Y36537502D01*
X33917623Y36537568D01*
X34182823Y36537601D01*
X34465530Y36537610D01*
X36928268Y36537610D01*
X37030882Y36510376D01*
G37*
D10*
%TO.C,D2*%
X16916400Y11201400D02*
X18135600Y11201400D01*
X18135600Y10134600D02*
X16916400Y10134600D01*
X19011900Y10668000D02*
G75*
G02*
X18834100Y10668000I-88900J0D01*
G01*
X18834100Y10668000D02*
G75*
G02*
X19011900Y10668000I88900J0D01*
G01*
%TO.C,D3*%
X16916400Y9677400D02*
X18135600Y9677400D01*
X18135600Y8610600D02*
X16916400Y8610600D01*
X19011900Y9144000D02*
G75*
G02*
X18834100Y9144000I-88900J0D01*
G01*
X18834100Y9144000D02*
G75*
G02*
X19011900Y9144000I88900J0D01*
G01*
%TO.C,D4*%
X14960600Y9296400D02*
X14960600Y10515600D01*
X16027400Y10515600D02*
X16027400Y9296400D01*
X15582900Y8509000D02*
G75*
G02*
X15405100Y8509000I-88900J0D01*
G01*
X15405100Y8509000D02*
G75*
G02*
X15582900Y8509000I88900J0D01*
G01*
D11*
%TO.C,G2*%
G36*
X40914327Y35730327D02*
G01*
X40979660Y35710538D01*
X41038480Y35671144D01*
X41044086Y35666184D01*
X41088397Y35614214D01*
X41116942Y35550983D01*
X41130993Y35472895D01*
X41132979Y35414891D01*
X41130426Y35354831D01*
X41122735Y35309271D01*
X41108158Y35268807D01*
X41104320Y35260616D01*
X41059713Y35193649D01*
X41001324Y35144946D01*
X40932670Y35115952D01*
X40857269Y35108111D01*
X40778639Y35122866D01*
X40773245Y35124733D01*
X40711606Y35158855D01*
X40658038Y35212694D01*
X40628787Y35257952D01*
X40615828Y35286740D01*
X40607904Y35318647D01*
X40603908Y35360607D01*
X40602733Y35419558D01*
X40602730Y35421184D01*
X40603521Y35478928D01*
X40606965Y35520171D01*
X40614398Y35552518D01*
X40627153Y35583575D01*
X40633416Y35596121D01*
X40678384Y35660688D01*
X40736377Y35704947D01*
X40807194Y35728764D01*
X40836643Y35732371D01*
X40914327Y35730327D01*
G37*
G36*
X46492318Y34653237D02*
G01*
X46528454Y34633599D01*
X46545906Y34604132D01*
X46542666Y34567507D01*
X46528845Y34541601D01*
X46516313Y34519883D01*
X46519259Y34504454D01*
X46528845Y34492693D01*
X46545795Y34469582D01*
X46542706Y34457926D01*
X46523753Y34455148D01*
X46499706Y34465824D01*
X46485598Y34485329D01*
X46467263Y34508805D01*
X46446289Y34514730D01*
X46429807Y34502735D01*
X46425255Y34488470D01*
X46413927Y34465472D01*
X46400271Y34457404D01*
X46390007Y34457916D01*
X46383706Y34467178D01*
X46380431Y34489599D01*
X46379246Y34529589D01*
X46379145Y34556877D01*
X46379145Y34587943D01*
X46427434Y34587943D01*
X46429792Y34561922D01*
X46441266Y34553160D01*
X46460632Y34553942D01*
X46485500Y34561629D01*
X46493610Y34581220D01*
X46493831Y34587943D01*
X46488523Y34611160D01*
X46467999Y34620895D01*
X46460632Y34621943D01*
X46437553Y34621911D01*
X46428703Y34609859D01*
X46427434Y34587943D01*
X46379145Y34587943D01*
X46379145Y34660376D01*
X46439506Y34660376D01*
X46492318Y34653237D01*
G37*
G36*
X46527858Y34746038D02*
G01*
X46586922Y34714907D01*
X46631776Y34665988D01*
X46659505Y34601711D01*
X46663025Y34585711D01*
X46662708Y34526019D01*
X46642969Y34466190D01*
X46607530Y34412963D01*
X46560110Y34373081D01*
X46540053Y34362965D01*
X46495612Y34351153D01*
X46444905Y34347402D01*
X46398473Y34351867D01*
X46373108Y34360527D01*
X46315575Y34403521D01*
X46275484Y34457086D01*
X46253834Y34516995D01*
X46252616Y34551165D01*
X46300675Y34551165D01*
X46302138Y34508568D01*
X46308710Y34480559D01*
X46323668Y34457648D01*
X46338324Y34442107D01*
X46385970Y34408983D01*
X46441169Y34393153D01*
X46497170Y34395077D01*
X46547222Y34415213D01*
X46562347Y34426885D01*
X46600100Y34475300D01*
X46617425Y34529792D01*
X46615370Y34585408D01*
X46594986Y34637196D01*
X46557323Y34680203D01*
X46503429Y34709478D01*
X46502364Y34709833D01*
X46446663Y34716101D01*
X46390943Y34700212D01*
X46340116Y34663646D01*
X46336390Y34659853D01*
X46315644Y34635024D01*
X46304900Y34610107D01*
X46301021Y34575554D01*
X46300675Y34551165D01*
X46252616Y34551165D01*
X46251623Y34579020D01*
X46269850Y34638932D01*
X46297657Y34680077D01*
X46346857Y34725396D01*
X46399180Y34749964D01*
X46457496Y34756954D01*
X46527858Y34746038D01*
G37*
G36*
X45666882Y36510376D02*
G01*
X45820529Y36457763D01*
X45963596Y36385090D01*
X46094011Y36294113D01*
X46209701Y36186589D01*
X46308594Y36064272D01*
X46388617Y35928919D01*
X46411377Y35879733D01*
X46444263Y35797831D01*
X46467478Y35724214D01*
X46482837Y35650495D01*
X46492155Y35568286D01*
X46496676Y35485622D01*
X46494015Y35328193D01*
X46473010Y35183712D01*
X46432593Y35048263D01*
X46371695Y34917928D01*
X46317994Y34830150D01*
X46217722Y34701561D01*
X46100850Y34590040D01*
X45968814Y34496604D01*
X45823050Y34422266D01*
X45664994Y34368044D01*
X45664684Y34367962D01*
X45564268Y34341110D01*
X43563294Y34337460D01*
X41562319Y34333809D01*
X41562319Y35197283D01*
X41562319Y36060756D01*
X41623033Y36060756D01*
X41645155Y36003413D01*
X41653590Y35980919D01*
X41669391Y35938158D01*
X41691670Y35877551D01*
X41719541Y35801523D01*
X41752116Y35712494D01*
X41788507Y35612889D01*
X41827830Y35505131D01*
X41869195Y35391640D01*
X41877215Y35369620D01*
X42087153Y34793171D01*
X42294918Y34793171D01*
X42502682Y34793171D01*
X42556699Y34965200D01*
X42579944Y35039412D01*
X42607455Y35127525D01*
X42636373Y35220371D01*
X42663842Y35308780D01*
X42674282Y35342458D01*
X42695173Y35409164D01*
X42713971Y35467792D01*
X42729396Y35514467D01*
X42740173Y35545315D01*
X42744785Y35556279D01*
X42750066Y35547714D01*
X42761181Y35519054D01*
X42777092Y35473353D01*
X42796758Y35413660D01*
X42819141Y35343027D01*
X42835266Y35290690D01*
X42861277Y35205403D01*
X42887196Y35120564D01*
X42911445Y35041324D01*
X42932448Y34972831D01*
X42948629Y34920235D01*
X42953386Y34904839D01*
X42987963Y34793171D01*
X43196175Y34793171D01*
X43404388Y34793171D01*
X43916407Y34793171D01*
X44127671Y34793171D01*
X44338935Y34793171D01*
X44411369Y34793171D01*
X44622633Y34793171D01*
X44833897Y34793171D01*
X44833897Y35426964D01*
X44833897Y35474047D01*
X44911095Y35474047D01*
X44912208Y35355741D01*
X44931878Y35239526D01*
X44970441Y35129274D01*
X45012853Y35051445D01*
X45085724Y34959974D01*
X45173808Y34886995D01*
X45276358Y34832884D01*
X45392626Y34798016D01*
X45521865Y34782767D01*
X45549178Y34782104D01*
X45654810Y34781098D01*
X45654810Y34948457D01*
X45654810Y35115816D01*
X45575972Y35122144D01*
X45502319Y35135134D01*
X45445310Y35162730D01*
X45400393Y35207977D01*
X45369442Y35260285D01*
X45342426Y35338018D01*
X45332880Y35420443D01*
X45340060Y35502148D01*
X45363220Y35577721D01*
X45401615Y35641748D01*
X45425458Y35666991D01*
X45484574Y35706778D01*
X45551369Y35729294D01*
X45610300Y35732458D01*
X45648774Y35728770D01*
X45652123Y35900799D01*
X45655473Y36072829D01*
X45615907Y36074743D01*
X45478928Y36071431D01*
X45353678Y36047872D01*
X45240933Y36004336D01*
X45141469Y35941092D01*
X45085513Y35890778D01*
X45015748Y35802811D01*
X44963200Y35701453D01*
X44928204Y35590575D01*
X44911095Y35474047D01*
X44833897Y35474047D01*
X44833897Y36060756D01*
X44622633Y36060756D01*
X44411369Y36060756D01*
X44411369Y35426964D01*
X44411369Y34793171D01*
X44338935Y34793171D01*
X44338935Y35426964D01*
X44338935Y36060756D01*
X44127671Y36060756D01*
X43916407Y36060756D01*
X43916407Y35426964D01*
X43916407Y34793171D01*
X43404388Y34793171D01*
X43601928Y35333404D01*
X43636139Y35426964D01*
X43642999Y35445726D01*
X43682650Y35554166D01*
X43719880Y35655986D01*
X43753688Y35748447D01*
X43783072Y35828813D01*
X43807032Y35894343D01*
X43824565Y35942302D01*
X43833770Y35967481D01*
X43868072Y36061326D01*
X43661431Y36058023D01*
X43454790Y36054720D01*
X43333076Y35641246D01*
X43304843Y35545947D01*
X43278561Y35458405D01*
X43255038Y35381218D01*
X43235079Y35316982D01*
X43219490Y35268296D01*
X43209079Y35237757D01*
X43204735Y35227917D01*
X43199985Y35239128D01*
X43189406Y35270962D01*
X43173788Y35320821D01*
X43153921Y35386110D01*
X43130596Y35464231D01*
X43104603Y35552588D01*
X43077939Y35644409D01*
X42957769Y36060756D01*
X42755942Y36060756D01*
X42554116Y36060756D01*
X42541636Y36021521D01*
X42534750Y35998785D01*
X42521690Y35954561D01*
X42502955Y35890564D01*
X42479044Y35808512D01*
X42450456Y35710121D01*
X42417690Y35597106D01*
X42381246Y35471184D01*
X42341621Y35334071D01*
X42325210Y35277230D01*
X42306382Y35212002D01*
X42292305Y35253085D01*
X42285549Y35274422D01*
X42272933Y35315833D01*
X42255380Y35374225D01*
X42233817Y35446501D01*
X42209167Y35529566D01*
X42182356Y35620323D01*
X42165535Y35677463D01*
X42052841Y36060756D01*
X41837937Y36060756D01*
X41623033Y36060756D01*
X41562319Y36060756D01*
X41351055Y36060756D01*
X41139791Y36060756D01*
X41139791Y35988323D01*
X41137214Y35946294D01*
X41130400Y35920970D01*
X41120727Y35914729D01*
X41109569Y35929949D01*
X41108103Y35933573D01*
X41093394Y35951026D01*
X41063324Y35974960D01*
X41024205Y36001220D01*
X40982353Y36025653D01*
X40944082Y36044104D01*
X40934563Y36047740D01*
X40828278Y36073117D01*
X40719810Y36077136D01*
X40612737Y36061117D01*
X40510636Y36026381D01*
X40417086Y35974247D01*
X40335663Y35906036D01*
X40269947Y35823069D01*
X40254514Y35796761D01*
X40213062Y35698330D01*
X40186566Y35586638D01*
X40175020Y35467373D01*
X40178420Y35346225D01*
X40196760Y35228881D01*
X40230035Y35121032D01*
X40255185Y35066915D01*
X40297975Y35002402D01*
X40354586Y34938844D01*
X40417965Y34883126D01*
X40481058Y34842133D01*
X40490033Y34837692D01*
X40569316Y34806332D01*
X40649405Y34788299D01*
X40738675Y34782099D01*
X40795093Y34783207D01*
X40892499Y34794667D01*
X40974780Y34821135D01*
X41047237Y34864746D01*
X41090411Y34902162D01*
X41139791Y34950083D01*
X41139791Y34642254D01*
X41139791Y34334425D01*
X40931545Y34335620D01*
X40854188Y34336949D01*
X40776992Y34339836D01*
X40706677Y34343921D01*
X40649960Y34348847D01*
X40626316Y34351890D01*
X40470707Y34388018D01*
X40323657Y34445982D01*
X40186978Y34524437D01*
X40062479Y34622038D01*
X39951973Y34737439D01*
X39857271Y34869295D01*
X39805970Y34961339D01*
X39750934Y35097016D01*
X39715458Y35242310D01*
X39699548Y35392990D01*
X39703208Y35544824D01*
X39726444Y35693579D01*
X39769260Y35835025D01*
X39804901Y35915723D01*
X39890634Y36061734D01*
X39992047Y36189387D01*
X40109095Y36298647D01*
X40241730Y36389474D01*
X40389906Y36461834D01*
X40553578Y36515689D01*
X40557458Y36516693D01*
X40568071Y36519138D01*
X40580773Y36521386D01*
X40596568Y36523444D01*
X40616460Y36525322D01*
X40641451Y36527027D01*
X40672546Y36528568D01*
X40710747Y36529953D01*
X40757058Y36531190D01*
X40812483Y36532287D01*
X40878024Y36533253D01*
X40954684Y36534096D01*
X41043468Y36534824D01*
X41145379Y36535445D01*
X41261420Y36535968D01*
X41392593Y36536401D01*
X41539904Y36536752D01*
X41704354Y36537029D01*
X41886948Y36537241D01*
X42088688Y36537396D01*
X42310579Y36537502D01*
X42553623Y36537568D01*
X42818823Y36537601D01*
X43101530Y36537610D01*
X45564268Y36537610D01*
X45666882Y36510376D01*
G37*
D10*
%TO.C,U1*%
X16560800Y18237200D02*
X17094200Y18237200D01*
X16560800Y17703800D02*
X16560800Y18237200D01*
X21539200Y18237200D02*
X21005800Y18237200D01*
X21539200Y18237200D02*
X21539200Y17703800D01*
X21539200Y13792200D02*
X21539200Y13258800D01*
X21539200Y13258800D02*
X21005800Y13258800D01*
X17094200Y13258800D02*
X16560800Y13258800D01*
X16560800Y13792200D01*
X17094200Y13258800D01*
G36*
X17094200Y13258800D02*
G01*
X16560800Y13258800D01*
X16560800Y13792200D01*
X17094200Y13258800D01*
G37*
D12*
%TO.C,J5*%
X6604000Y5588000D02*
X9144000Y5588000D01*
X6604000Y508000D02*
X6604000Y5588000D01*
X9144000Y508000D02*
X6604000Y508000D01*
X9144000Y508000D02*
X9144000Y5588000D01*
D10*
X7962900Y6223000D02*
G75*
G02*
X7785100Y6223000I-88900J0D01*
G01*
X7785100Y6223000D02*
G75*
G02*
X7962900Y6223000I88900J0D01*
G01*
%TO.C,J3*%
X31419800Y39290559D02*
X31419800Y38303200D01*
X31419800Y38303200D02*
X32381060Y38303200D01*
X36363559Y41452800D02*
X32724441Y41452800D01*
X36706940Y38303200D02*
X37668200Y38303200D01*
X37668200Y38303200D02*
X37668200Y39290559D01*
X32346900Y37846000D02*
G75*
G02*
X32169100Y37846000I-88900J0D01*
G01*
X32169100Y37846000D02*
G75*
G02*
X32346900Y37846000I88900J0D01*
G01*
%TO.C,S1*%
X23142000Y9096000D02*
X23142000Y3096000D01*
X23142000Y3096000D02*
X23892000Y3096000D01*
X23892000Y9096000D02*
X23142000Y9096000D01*
X25892000Y3096000D02*
X26642000Y3096000D01*
X26642000Y9096000D02*
X25892000Y9096000D01*
X26642000Y3096000D02*
X26642000Y9096000D01*
X24980900Y546000D02*
G75*
G02*
X24803100Y546000I-88900J0D01*
G01*
X24803100Y546000D02*
G75*
G02*
X24980900Y546000I88900J0D01*
G01*
%TO.C,Q2*%
X9474200Y11531600D02*
X9474200Y12471400D01*
X9474200Y11531600D02*
X10261600Y11531600D01*
X11582400Y11531600D02*
X12369800Y11531600D01*
X12369800Y12471400D02*
X12369800Y11531600D01*
X13042900Y13208000D02*
G75*
G02*
X12865100Y13208000I-88900J0D01*
G01*
X12865100Y13208000D02*
G75*
G02*
X13042900Y13208000I88900J0D01*
G01*
%TO.C,J1*%
X508000Y32258000D02*
X8128000Y32258000D01*
X508000Y29718000D02*
X8128000Y29718000D01*
X508000Y27178000D02*
X8128000Y27178000D01*
X508000Y24638000D02*
X8128000Y24638000D01*
X508000Y22098000D02*
X8128000Y22098000D01*
X508000Y19558000D02*
X8128000Y19558000D01*
X508000Y17018000D02*
X8128000Y17018000D01*
X508000Y14478000D02*
X8128000Y14478000D01*
X508000Y11938000D02*
X508000Y32258000D01*
X8128000Y11938000D02*
X508000Y11938000D01*
X8128000Y11938000D02*
X8128000Y32258000D01*
%TO.C,J4*%
X40055800Y39290559D02*
X40055800Y38303200D01*
X40055800Y38303200D02*
X41017060Y38303200D01*
X44999559Y41452800D02*
X41360441Y41452800D01*
X45342940Y38303200D02*
X46304200Y38303200D01*
X46304200Y38303200D02*
X46304200Y39290559D01*
X40982900Y37846000D02*
G75*
G02*
X40805100Y37846000I-88900J0D01*
G01*
X40805100Y37846000D02*
G75*
G02*
X40982900Y37846000I88900J0D01*
G01*
%TO.C,Q1*%
X9474200Y19024600D02*
X9474200Y19964400D01*
X10261600Y19964400D02*
X9474200Y19964400D01*
X12369800Y19964400D02*
X11582400Y19964400D01*
X12369800Y19964400D02*
X12369800Y19024600D01*
X8978900Y18288000D02*
G75*
G02*
X8801100Y18288000I-88900J0D01*
G01*
X8801100Y18288000D02*
G75*
G02*
X8978900Y18288000I88900J0D01*
G01*
%TO.C,U3*%
X35382200Y6985000D02*
X38277800Y6985000D01*
X35382200Y6223000D02*
X35382200Y6985000D01*
X38277800Y6985000D02*
X38277800Y6223000D01*
X38277800Y6223000D02*
X35382200Y6223000D01*
X38569900Y7904000D02*
G75*
G02*
X38392100Y7904000I-88900J0D01*
G01*
X38392100Y7904000D02*
G75*
G02*
X38569900Y7904000I88900J0D01*
G01*
%TO.C,J6*%
X30774000Y33931000D02*
X31274000Y33931000D01*
X30774000Y23981000D02*
X30774000Y33931000D01*
X31274000Y23981000D02*
X30774000Y23981000D01*
X38823900Y26956000D02*
G75*
G02*
X38646100Y26956000I-88900J0D01*
G01*
X38646100Y26956000D02*
G75*
G02*
X38823900Y26956000I88900J0D01*
G01*
%TO.C,J2*%
X12548000Y5898000D02*
X13598000Y5898000D01*
X12548000Y2738000D02*
X12548000Y5898000D01*
X13698000Y2738000D02*
X12548000Y2738000D01*
X20338000Y5898000D02*
X21488000Y5898000D01*
X21488000Y5898000D02*
X21488000Y2738000D01*
X21488000Y2738000D02*
X20438000Y2738000D01*
X12106900Y5183000D02*
G75*
G02*
X11929100Y5183000I-88900J0D01*
G01*
X11929100Y5183000D02*
G75*
G02*
X12106900Y5183000I88900J0D01*
G01*
%TO.C,D1*%
X13055600Y10744200D02*
X13055600Y9067800D01*
X14376400Y9067800D02*
X14376400Y10744200D01*
X13804900Y7721600D02*
G75*
G02*
X13627100Y7721600I-88900J0D01*
G01*
X13627100Y7721600D02*
G75*
G02*
X13804900Y7721600I88900J0D01*
G01*
%TO.C,J7*%
X40426000Y33931000D02*
X40926000Y33931000D01*
X40426000Y23981000D02*
X40426000Y33931000D01*
X40926000Y23981000D02*
X40426000Y23981000D01*
X48475900Y26956000D02*
G75*
G02*
X48298100Y26956000I-88900J0D01*
G01*
X48298100Y26956000D02*
G75*
G02*
X48475900Y26956000I88900J0D01*
G01*
%TO.C,S2*%
X28730000Y9096000D02*
X28730000Y3096000D01*
X28730000Y3096000D02*
X29480000Y3096000D01*
X29480000Y9096000D02*
X28730000Y9096000D01*
X31480000Y3096000D02*
X32230000Y3096000D01*
X32230000Y9096000D02*
X31480000Y9096000D01*
X32230000Y3096000D02*
X32230000Y9096000D01*
X30568900Y546000D02*
G75*
G02*
X30391100Y546000I-88900J0D01*
G01*
X30391100Y546000D02*
G75*
G02*
X30568900Y546000I88900J0D01*
G01*
%TO.C,U2*%
X9918700Y23860760D02*
X9918700Y23164800D01*
X9918700Y23164800D02*
X12557760Y23164800D01*
X25542240Y23164800D02*
X28181300Y23164800D01*
X28181300Y23164800D02*
X28181300Y23860760D01*
%TD*%
M02*
