%TF.GenerationSoftware,KiCad,Pcbnew,8.0.4*%
%TF.CreationDate,2024-09-05T11:54:57-04:00*%
%TF.ProjectId,ESP32-RC_R0,45535033-322d-4524-935f-52302e6b6963,0*%
%TF.SameCoordinates,Original*%
%TF.FileFunction,Legend,Top*%
%TF.FilePolarity,Positive*%
%FSLAX46Y46*%
G04 Gerber Fmt 4.6, Leading zero omitted, Abs format (unit mm)*
G04 Created by KiCad (PCBNEW 8.0.4) date 2024-09-05 11:54:57*
%MOMM*%
%LPD*%
G01*
G04 APERTURE LIST*
%ADD10C,0.177800*%
%ADD11C,0.000000*%
%ADD12C,0.200000*%
G04 APERTURE END LIST*
D10*
%TO.C,D5*%
X155524200Y-111963200D02*
X154863800Y-111963200D01*
X155192738Y-111856188D02*
X154862538Y-111576788D01*
X155522938Y-111576788D01*
X155192738Y-111856188D01*
G36*
X155192738Y-111856188D02*
G01*
X154862538Y-111576788D01*
X155522938Y-111576788D01*
X155192738Y-111856188D01*
G37*
%TO.C,D2*%
X132308600Y-106527600D02*
X132308600Y-105308400D01*
X133375400Y-105308400D02*
X133375400Y-106527600D01*
X132930900Y-107315000D02*
G75*
G02*
X132753100Y-107315000I-88900J0D01*
G01*
X132753100Y-107315000D02*
G75*
G02*
X132930900Y-107315000I88900J0D01*
G01*
D11*
%TO.C,G1*%
G36*
X147340327Y-78823673D02*
G01*
X147405660Y-78843462D01*
X147464480Y-78882856D01*
X147470086Y-78887816D01*
X147514397Y-78939786D01*
X147542942Y-79003017D01*
X147556993Y-79081105D01*
X147558979Y-79139109D01*
X147556426Y-79199169D01*
X147548735Y-79244729D01*
X147534158Y-79285193D01*
X147530320Y-79293384D01*
X147485713Y-79360351D01*
X147427324Y-79409054D01*
X147358670Y-79438048D01*
X147283269Y-79445889D01*
X147204639Y-79431134D01*
X147199245Y-79429267D01*
X147137606Y-79395145D01*
X147084038Y-79341306D01*
X147054787Y-79296048D01*
X147041828Y-79267260D01*
X147033904Y-79235353D01*
X147029908Y-79193393D01*
X147028733Y-79134442D01*
X147028730Y-79132816D01*
X147029521Y-79075072D01*
X147032965Y-79033829D01*
X147040398Y-79001482D01*
X147053153Y-78970425D01*
X147059416Y-78957879D01*
X147104384Y-78893312D01*
X147162377Y-78849053D01*
X147233194Y-78825236D01*
X147262643Y-78821629D01*
X147340327Y-78823673D01*
G37*
G36*
X152918318Y-79900763D02*
G01*
X152954454Y-79920401D01*
X152971906Y-79949868D01*
X152968666Y-79986493D01*
X152954845Y-80012399D01*
X152942313Y-80034117D01*
X152945259Y-80049546D01*
X152954845Y-80061307D01*
X152971795Y-80084418D01*
X152968706Y-80096074D01*
X152949753Y-80098852D01*
X152925706Y-80088176D01*
X152911598Y-80068671D01*
X152893263Y-80045195D01*
X152872289Y-80039270D01*
X152855807Y-80051265D01*
X152851255Y-80065530D01*
X152839927Y-80088528D01*
X152826271Y-80096596D01*
X152816007Y-80096084D01*
X152809706Y-80086822D01*
X152806431Y-80064401D01*
X152805246Y-80024411D01*
X152805145Y-79997123D01*
X152805145Y-79966057D01*
X152853434Y-79966057D01*
X152855792Y-79992078D01*
X152867266Y-80000840D01*
X152886632Y-80000058D01*
X152911500Y-79992371D01*
X152919610Y-79972780D01*
X152919831Y-79966057D01*
X152914523Y-79942840D01*
X152893999Y-79933105D01*
X152886632Y-79932057D01*
X152863553Y-79932089D01*
X152854703Y-79944141D01*
X152853434Y-79966057D01*
X152805145Y-79966057D01*
X152805145Y-79893624D01*
X152865506Y-79893624D01*
X152918318Y-79900763D01*
G37*
G36*
X152953858Y-79807962D02*
G01*
X153012922Y-79839093D01*
X153057776Y-79888012D01*
X153085505Y-79952289D01*
X153089025Y-79968289D01*
X153088708Y-80027981D01*
X153068969Y-80087810D01*
X153033530Y-80141037D01*
X152986110Y-80180919D01*
X152966053Y-80191035D01*
X152921612Y-80202847D01*
X152870905Y-80206598D01*
X152824473Y-80202133D01*
X152799108Y-80193473D01*
X152741575Y-80150479D01*
X152701484Y-80096914D01*
X152679834Y-80037005D01*
X152678616Y-80002835D01*
X152726675Y-80002835D01*
X152728138Y-80045432D01*
X152734710Y-80073441D01*
X152749668Y-80096352D01*
X152764324Y-80111893D01*
X152811970Y-80145017D01*
X152867169Y-80160847D01*
X152923170Y-80158923D01*
X152973222Y-80138787D01*
X152988347Y-80127115D01*
X153026100Y-80078700D01*
X153043425Y-80024208D01*
X153041370Y-79968592D01*
X153020986Y-79916804D01*
X152983323Y-79873797D01*
X152929429Y-79844522D01*
X152928364Y-79844167D01*
X152872663Y-79837899D01*
X152816943Y-79853788D01*
X152766116Y-79890354D01*
X152762390Y-79894147D01*
X152741644Y-79918976D01*
X152730900Y-79943893D01*
X152727021Y-79978446D01*
X152726675Y-80002835D01*
X152678616Y-80002835D01*
X152677623Y-79974980D01*
X152695850Y-79915068D01*
X152723657Y-79873923D01*
X152772857Y-79828604D01*
X152825180Y-79804036D01*
X152883496Y-79797046D01*
X152953858Y-79807962D01*
G37*
G36*
X152092882Y-78043624D02*
G01*
X152246529Y-78096237D01*
X152389596Y-78168910D01*
X152520011Y-78259887D01*
X152635701Y-78367411D01*
X152734594Y-78489728D01*
X152814617Y-78625081D01*
X152837377Y-78674267D01*
X152870263Y-78756169D01*
X152893478Y-78829786D01*
X152908837Y-78903505D01*
X152918155Y-78985714D01*
X152922676Y-79068378D01*
X152920015Y-79225807D01*
X152899010Y-79370288D01*
X152858593Y-79505737D01*
X152797695Y-79636072D01*
X152743994Y-79723850D01*
X152643722Y-79852439D01*
X152526850Y-79963960D01*
X152394814Y-80057396D01*
X152249050Y-80131734D01*
X152090994Y-80185956D01*
X152090684Y-80186038D01*
X151990268Y-80212890D01*
X149989294Y-80216540D01*
X147988319Y-80220191D01*
X147988319Y-79356717D01*
X147988319Y-78493244D01*
X148049033Y-78493244D01*
X148071155Y-78550587D01*
X148079590Y-78573081D01*
X148095391Y-78615842D01*
X148117670Y-78676449D01*
X148145541Y-78752477D01*
X148178116Y-78841506D01*
X148214507Y-78941111D01*
X148253830Y-79048869D01*
X148295195Y-79162360D01*
X148303215Y-79184380D01*
X148513153Y-79760829D01*
X148720918Y-79760829D01*
X148928682Y-79760829D01*
X148982699Y-79588800D01*
X149005944Y-79514588D01*
X149033455Y-79426475D01*
X149062373Y-79333629D01*
X149089842Y-79245220D01*
X149100282Y-79211542D01*
X149121173Y-79144836D01*
X149139971Y-79086208D01*
X149155396Y-79039533D01*
X149166173Y-79008685D01*
X149170785Y-78997721D01*
X149176066Y-79006286D01*
X149187181Y-79034946D01*
X149203092Y-79080647D01*
X149222758Y-79140340D01*
X149245141Y-79210973D01*
X149261266Y-79263310D01*
X149287277Y-79348597D01*
X149313196Y-79433436D01*
X149337445Y-79512676D01*
X149358448Y-79581169D01*
X149374629Y-79633765D01*
X149379386Y-79649161D01*
X149413963Y-79760829D01*
X149622175Y-79760829D01*
X149830388Y-79760829D01*
X150342407Y-79760829D01*
X150553671Y-79760829D01*
X150764935Y-79760829D01*
X150837369Y-79760829D01*
X151048633Y-79760829D01*
X151259897Y-79760829D01*
X151259897Y-79127036D01*
X151259897Y-79079953D01*
X151337095Y-79079953D01*
X151338208Y-79198259D01*
X151357878Y-79314474D01*
X151396441Y-79424726D01*
X151438853Y-79502555D01*
X151511724Y-79594026D01*
X151599808Y-79667005D01*
X151702358Y-79721116D01*
X151818626Y-79755984D01*
X151947865Y-79771233D01*
X151975178Y-79771896D01*
X152080810Y-79772902D01*
X152080810Y-79605543D01*
X152080810Y-79438184D01*
X152001972Y-79431856D01*
X151928319Y-79418866D01*
X151871310Y-79391270D01*
X151826393Y-79346023D01*
X151795442Y-79293715D01*
X151768426Y-79215982D01*
X151758880Y-79133557D01*
X151766060Y-79051852D01*
X151789220Y-78976279D01*
X151827615Y-78912252D01*
X151851458Y-78887009D01*
X151910574Y-78847222D01*
X151977369Y-78824706D01*
X152036300Y-78821542D01*
X152074774Y-78825230D01*
X152078123Y-78653201D01*
X152081473Y-78481171D01*
X152041907Y-78479257D01*
X151904928Y-78482569D01*
X151779678Y-78506128D01*
X151666933Y-78549664D01*
X151567469Y-78612908D01*
X151511513Y-78663222D01*
X151441748Y-78751189D01*
X151389200Y-78852547D01*
X151354204Y-78963425D01*
X151337095Y-79079953D01*
X151259897Y-79079953D01*
X151259897Y-78493244D01*
X151048633Y-78493244D01*
X150837369Y-78493244D01*
X150837369Y-79127036D01*
X150837369Y-79760829D01*
X150764935Y-79760829D01*
X150764935Y-79127036D01*
X150764935Y-78493244D01*
X150553671Y-78493244D01*
X150342407Y-78493244D01*
X150342407Y-79127036D01*
X150342407Y-79760829D01*
X149830388Y-79760829D01*
X150027928Y-79220596D01*
X150062139Y-79127036D01*
X150068999Y-79108274D01*
X150108650Y-78999834D01*
X150145880Y-78898014D01*
X150179688Y-78805553D01*
X150209072Y-78725187D01*
X150233032Y-78659657D01*
X150250565Y-78611698D01*
X150259770Y-78586519D01*
X150294072Y-78492674D01*
X150087431Y-78495977D01*
X149880790Y-78499280D01*
X149759076Y-78912754D01*
X149730843Y-79008053D01*
X149704561Y-79095595D01*
X149681038Y-79172782D01*
X149661079Y-79237018D01*
X149645490Y-79285704D01*
X149635079Y-79316243D01*
X149630735Y-79326083D01*
X149625985Y-79314872D01*
X149615406Y-79283038D01*
X149599788Y-79233179D01*
X149579921Y-79167890D01*
X149556596Y-79089769D01*
X149530603Y-79001412D01*
X149503939Y-78909591D01*
X149383769Y-78493244D01*
X149181942Y-78493244D01*
X148980116Y-78493244D01*
X148967636Y-78532479D01*
X148960750Y-78555215D01*
X148947690Y-78599439D01*
X148928955Y-78663436D01*
X148905044Y-78745488D01*
X148876456Y-78843879D01*
X148843690Y-78956894D01*
X148807246Y-79082816D01*
X148767621Y-79219929D01*
X148751210Y-79276770D01*
X148732382Y-79341998D01*
X148718305Y-79300915D01*
X148711549Y-79279578D01*
X148698933Y-79238167D01*
X148681380Y-79179775D01*
X148659817Y-79107499D01*
X148635167Y-79024434D01*
X148608356Y-78933677D01*
X148591535Y-78876537D01*
X148478841Y-78493244D01*
X148263937Y-78493244D01*
X148049033Y-78493244D01*
X147988319Y-78493244D01*
X147777055Y-78493244D01*
X147565791Y-78493244D01*
X147565791Y-78565677D01*
X147563214Y-78607706D01*
X147556400Y-78633030D01*
X147546727Y-78639271D01*
X147535569Y-78624051D01*
X147534103Y-78620427D01*
X147519394Y-78602974D01*
X147489324Y-78579040D01*
X147450205Y-78552780D01*
X147408353Y-78528347D01*
X147370082Y-78509896D01*
X147360563Y-78506260D01*
X147254278Y-78480883D01*
X147145810Y-78476864D01*
X147038737Y-78492883D01*
X146936636Y-78527619D01*
X146843086Y-78579753D01*
X146761663Y-78647964D01*
X146695947Y-78730931D01*
X146680514Y-78757239D01*
X146639062Y-78855670D01*
X146612566Y-78967362D01*
X146601020Y-79086627D01*
X146604420Y-79207775D01*
X146622760Y-79325119D01*
X146656035Y-79432968D01*
X146681185Y-79487085D01*
X146723975Y-79551598D01*
X146780586Y-79615156D01*
X146843965Y-79670874D01*
X146907058Y-79711867D01*
X146916033Y-79716308D01*
X146995316Y-79747668D01*
X147075405Y-79765701D01*
X147164675Y-79771901D01*
X147221093Y-79770793D01*
X147318499Y-79759333D01*
X147400780Y-79732865D01*
X147473237Y-79689254D01*
X147516411Y-79651838D01*
X147565791Y-79603917D01*
X147565791Y-79911746D01*
X147565791Y-80219575D01*
X147357545Y-80218380D01*
X147280188Y-80217051D01*
X147202992Y-80214164D01*
X147132677Y-80210079D01*
X147075960Y-80205153D01*
X147052316Y-80202110D01*
X146896707Y-80165982D01*
X146749657Y-80108018D01*
X146612978Y-80029563D01*
X146488479Y-79931962D01*
X146377973Y-79816561D01*
X146283271Y-79684705D01*
X146231970Y-79592661D01*
X146176934Y-79456984D01*
X146141458Y-79311690D01*
X146125548Y-79161010D01*
X146129208Y-79009176D01*
X146152444Y-78860421D01*
X146195260Y-78718975D01*
X146230901Y-78638277D01*
X146316634Y-78492266D01*
X146418047Y-78364613D01*
X146535095Y-78255353D01*
X146667730Y-78164526D01*
X146815906Y-78092166D01*
X146979578Y-78038311D01*
X146983458Y-78037307D01*
X146994071Y-78034862D01*
X147006773Y-78032614D01*
X147022568Y-78030556D01*
X147042460Y-78028678D01*
X147067451Y-78026973D01*
X147098546Y-78025432D01*
X147136747Y-78024047D01*
X147183058Y-78022810D01*
X147238483Y-78021713D01*
X147304024Y-78020747D01*
X147380684Y-78019904D01*
X147469468Y-78019176D01*
X147571379Y-78018555D01*
X147687420Y-78018032D01*
X147818593Y-78017599D01*
X147965904Y-78017248D01*
X148130354Y-78016971D01*
X148312948Y-78016759D01*
X148514688Y-78016604D01*
X148736579Y-78016498D01*
X148979623Y-78016432D01*
X149244823Y-78016399D01*
X149527530Y-78016390D01*
X151990268Y-78016390D01*
X152092882Y-78043624D01*
G37*
D10*
%TO.C,D3*%
X130784600Y-106527600D02*
X130784600Y-105308400D01*
X131851400Y-105308400D02*
X131851400Y-106527600D01*
X131406900Y-107315000D02*
G75*
G02*
X131229100Y-107315000I-88900J0D01*
G01*
X131229100Y-107315000D02*
G75*
G02*
X131406900Y-107315000I88900J0D01*
G01*
%TO.C,D4*%
X129260600Y-106527600D02*
X129260600Y-105308400D01*
X130327400Y-105308400D02*
X130327400Y-106527600D01*
X129882900Y-107315000D02*
G75*
G02*
X129705100Y-107315000I-88900J0D01*
G01*
X129705100Y-107315000D02*
G75*
G02*
X129882900Y-107315000I88900J0D01*
G01*
D11*
%TO.C,G2*%
G36*
X155976327Y-78823673D02*
G01*
X156041660Y-78843462D01*
X156100480Y-78882856D01*
X156106086Y-78887816D01*
X156150397Y-78939786D01*
X156178942Y-79003017D01*
X156192993Y-79081105D01*
X156194979Y-79139109D01*
X156192426Y-79199169D01*
X156184735Y-79244729D01*
X156170158Y-79285193D01*
X156166320Y-79293384D01*
X156121713Y-79360351D01*
X156063324Y-79409054D01*
X155994670Y-79438048D01*
X155919269Y-79445889D01*
X155840639Y-79431134D01*
X155835245Y-79429267D01*
X155773606Y-79395145D01*
X155720038Y-79341306D01*
X155690787Y-79296048D01*
X155677828Y-79267260D01*
X155669904Y-79235353D01*
X155665908Y-79193393D01*
X155664733Y-79134442D01*
X155664730Y-79132816D01*
X155665521Y-79075072D01*
X155668965Y-79033829D01*
X155676398Y-79001482D01*
X155689153Y-78970425D01*
X155695416Y-78957879D01*
X155740384Y-78893312D01*
X155798377Y-78849053D01*
X155869194Y-78825236D01*
X155898643Y-78821629D01*
X155976327Y-78823673D01*
G37*
G36*
X161554318Y-79900763D02*
G01*
X161590454Y-79920401D01*
X161607906Y-79949868D01*
X161604666Y-79986493D01*
X161590845Y-80012399D01*
X161578313Y-80034117D01*
X161581259Y-80049546D01*
X161590845Y-80061307D01*
X161607795Y-80084418D01*
X161604706Y-80096074D01*
X161585753Y-80098852D01*
X161561706Y-80088176D01*
X161547598Y-80068671D01*
X161529263Y-80045195D01*
X161508289Y-80039270D01*
X161491807Y-80051265D01*
X161487255Y-80065530D01*
X161475927Y-80088528D01*
X161462271Y-80096596D01*
X161452007Y-80096084D01*
X161445706Y-80086822D01*
X161442431Y-80064401D01*
X161441246Y-80024411D01*
X161441145Y-79997123D01*
X161441145Y-79966057D01*
X161489434Y-79966057D01*
X161491792Y-79992078D01*
X161503266Y-80000840D01*
X161522632Y-80000058D01*
X161547500Y-79992371D01*
X161555610Y-79972780D01*
X161555831Y-79966057D01*
X161550523Y-79942840D01*
X161529999Y-79933105D01*
X161522632Y-79932057D01*
X161499553Y-79932089D01*
X161490703Y-79944141D01*
X161489434Y-79966057D01*
X161441145Y-79966057D01*
X161441145Y-79893624D01*
X161501506Y-79893624D01*
X161554318Y-79900763D01*
G37*
G36*
X161589858Y-79807962D02*
G01*
X161648922Y-79839093D01*
X161693776Y-79888012D01*
X161721505Y-79952289D01*
X161725025Y-79968289D01*
X161724708Y-80027981D01*
X161704969Y-80087810D01*
X161669530Y-80141037D01*
X161622110Y-80180919D01*
X161602053Y-80191035D01*
X161557612Y-80202847D01*
X161506905Y-80206598D01*
X161460473Y-80202133D01*
X161435108Y-80193473D01*
X161377575Y-80150479D01*
X161337484Y-80096914D01*
X161315834Y-80037005D01*
X161314616Y-80002835D01*
X161362675Y-80002835D01*
X161364138Y-80045432D01*
X161370710Y-80073441D01*
X161385668Y-80096352D01*
X161400324Y-80111893D01*
X161447970Y-80145017D01*
X161503169Y-80160847D01*
X161559170Y-80158923D01*
X161609222Y-80138787D01*
X161624347Y-80127115D01*
X161662100Y-80078700D01*
X161679425Y-80024208D01*
X161677370Y-79968592D01*
X161656986Y-79916804D01*
X161619323Y-79873797D01*
X161565429Y-79844522D01*
X161564364Y-79844167D01*
X161508663Y-79837899D01*
X161452943Y-79853788D01*
X161402116Y-79890354D01*
X161398390Y-79894147D01*
X161377644Y-79918976D01*
X161366900Y-79943893D01*
X161363021Y-79978446D01*
X161362675Y-80002835D01*
X161314616Y-80002835D01*
X161313623Y-79974980D01*
X161331850Y-79915068D01*
X161359657Y-79873923D01*
X161408857Y-79828604D01*
X161461180Y-79804036D01*
X161519496Y-79797046D01*
X161589858Y-79807962D01*
G37*
G36*
X160728882Y-78043624D02*
G01*
X160882529Y-78096237D01*
X161025596Y-78168910D01*
X161156011Y-78259887D01*
X161271701Y-78367411D01*
X161370594Y-78489728D01*
X161450617Y-78625081D01*
X161473377Y-78674267D01*
X161506263Y-78756169D01*
X161529478Y-78829786D01*
X161544837Y-78903505D01*
X161554155Y-78985714D01*
X161558676Y-79068378D01*
X161556015Y-79225807D01*
X161535010Y-79370288D01*
X161494593Y-79505737D01*
X161433695Y-79636072D01*
X161379994Y-79723850D01*
X161279722Y-79852439D01*
X161162850Y-79963960D01*
X161030814Y-80057396D01*
X160885050Y-80131734D01*
X160726994Y-80185956D01*
X160726684Y-80186038D01*
X160626268Y-80212890D01*
X158625294Y-80216540D01*
X156624319Y-80220191D01*
X156624319Y-79356717D01*
X156624319Y-78493244D01*
X156685033Y-78493244D01*
X156707155Y-78550587D01*
X156715590Y-78573081D01*
X156731391Y-78615842D01*
X156753670Y-78676449D01*
X156781541Y-78752477D01*
X156814116Y-78841506D01*
X156850507Y-78941111D01*
X156889830Y-79048869D01*
X156931195Y-79162360D01*
X156939215Y-79184380D01*
X157149153Y-79760829D01*
X157356918Y-79760829D01*
X157564682Y-79760829D01*
X157618699Y-79588800D01*
X157641944Y-79514588D01*
X157669455Y-79426475D01*
X157698373Y-79333629D01*
X157725842Y-79245220D01*
X157736282Y-79211542D01*
X157757173Y-79144836D01*
X157775971Y-79086208D01*
X157791396Y-79039533D01*
X157802173Y-79008685D01*
X157806785Y-78997721D01*
X157812066Y-79006286D01*
X157823181Y-79034946D01*
X157839092Y-79080647D01*
X157858758Y-79140340D01*
X157881141Y-79210973D01*
X157897266Y-79263310D01*
X157923277Y-79348597D01*
X157949196Y-79433436D01*
X157973445Y-79512676D01*
X157994448Y-79581169D01*
X158010629Y-79633765D01*
X158015386Y-79649161D01*
X158049963Y-79760829D01*
X158258175Y-79760829D01*
X158466388Y-79760829D01*
X158978407Y-79760829D01*
X159189671Y-79760829D01*
X159400935Y-79760829D01*
X159473369Y-79760829D01*
X159684633Y-79760829D01*
X159895897Y-79760829D01*
X159895897Y-79127036D01*
X159895897Y-79079953D01*
X159973095Y-79079953D01*
X159974208Y-79198259D01*
X159993878Y-79314474D01*
X160032441Y-79424726D01*
X160074853Y-79502555D01*
X160147724Y-79594026D01*
X160235808Y-79667005D01*
X160338358Y-79721116D01*
X160454626Y-79755984D01*
X160583865Y-79771233D01*
X160611178Y-79771896D01*
X160716810Y-79772902D01*
X160716810Y-79605543D01*
X160716810Y-79438184D01*
X160637972Y-79431856D01*
X160564319Y-79418866D01*
X160507310Y-79391270D01*
X160462393Y-79346023D01*
X160431442Y-79293715D01*
X160404426Y-79215982D01*
X160394880Y-79133557D01*
X160402060Y-79051852D01*
X160425220Y-78976279D01*
X160463615Y-78912252D01*
X160487458Y-78887009D01*
X160546574Y-78847222D01*
X160613369Y-78824706D01*
X160672300Y-78821542D01*
X160710774Y-78825230D01*
X160714123Y-78653201D01*
X160717473Y-78481171D01*
X160677907Y-78479257D01*
X160540928Y-78482569D01*
X160415678Y-78506128D01*
X160302933Y-78549664D01*
X160203469Y-78612908D01*
X160147513Y-78663222D01*
X160077748Y-78751189D01*
X160025200Y-78852547D01*
X159990204Y-78963425D01*
X159973095Y-79079953D01*
X159895897Y-79079953D01*
X159895897Y-78493244D01*
X159684633Y-78493244D01*
X159473369Y-78493244D01*
X159473369Y-79127036D01*
X159473369Y-79760829D01*
X159400935Y-79760829D01*
X159400935Y-79127036D01*
X159400935Y-78493244D01*
X159189671Y-78493244D01*
X158978407Y-78493244D01*
X158978407Y-79127036D01*
X158978407Y-79760829D01*
X158466388Y-79760829D01*
X158663928Y-79220596D01*
X158698139Y-79127036D01*
X158704999Y-79108274D01*
X158744650Y-78999834D01*
X158781880Y-78898014D01*
X158815688Y-78805553D01*
X158845072Y-78725187D01*
X158869032Y-78659657D01*
X158886565Y-78611698D01*
X158895770Y-78586519D01*
X158930072Y-78492674D01*
X158723431Y-78495977D01*
X158516790Y-78499280D01*
X158395076Y-78912754D01*
X158366843Y-79008053D01*
X158340561Y-79095595D01*
X158317038Y-79172782D01*
X158297079Y-79237018D01*
X158281490Y-79285704D01*
X158271079Y-79316243D01*
X158266735Y-79326083D01*
X158261985Y-79314872D01*
X158251406Y-79283038D01*
X158235788Y-79233179D01*
X158215921Y-79167890D01*
X158192596Y-79089769D01*
X158166603Y-79001412D01*
X158139939Y-78909591D01*
X158019769Y-78493244D01*
X157817942Y-78493244D01*
X157616116Y-78493244D01*
X157603636Y-78532479D01*
X157596750Y-78555215D01*
X157583690Y-78599439D01*
X157564955Y-78663436D01*
X157541044Y-78745488D01*
X157512456Y-78843879D01*
X157479690Y-78956894D01*
X157443246Y-79082816D01*
X157403621Y-79219929D01*
X157387210Y-79276770D01*
X157368382Y-79341998D01*
X157354305Y-79300915D01*
X157347549Y-79279578D01*
X157334933Y-79238167D01*
X157317380Y-79179775D01*
X157295817Y-79107499D01*
X157271167Y-79024434D01*
X157244356Y-78933677D01*
X157227535Y-78876537D01*
X157114841Y-78493244D01*
X156899937Y-78493244D01*
X156685033Y-78493244D01*
X156624319Y-78493244D01*
X156413055Y-78493244D01*
X156201791Y-78493244D01*
X156201791Y-78565677D01*
X156199214Y-78607706D01*
X156192400Y-78633030D01*
X156182727Y-78639271D01*
X156171569Y-78624051D01*
X156170103Y-78620427D01*
X156155394Y-78602974D01*
X156125324Y-78579040D01*
X156086205Y-78552780D01*
X156044353Y-78528347D01*
X156006082Y-78509896D01*
X155996563Y-78506260D01*
X155890278Y-78480883D01*
X155781810Y-78476864D01*
X155674737Y-78492883D01*
X155572636Y-78527619D01*
X155479086Y-78579753D01*
X155397663Y-78647964D01*
X155331947Y-78730931D01*
X155316514Y-78757239D01*
X155275062Y-78855670D01*
X155248566Y-78967362D01*
X155237020Y-79086627D01*
X155240420Y-79207775D01*
X155258760Y-79325119D01*
X155292035Y-79432968D01*
X155317185Y-79487085D01*
X155359975Y-79551598D01*
X155416586Y-79615156D01*
X155479965Y-79670874D01*
X155543058Y-79711867D01*
X155552033Y-79716308D01*
X155631316Y-79747668D01*
X155711405Y-79765701D01*
X155800675Y-79771901D01*
X155857093Y-79770793D01*
X155954499Y-79759333D01*
X156036780Y-79732865D01*
X156109237Y-79689254D01*
X156152411Y-79651838D01*
X156201791Y-79603917D01*
X156201791Y-79911746D01*
X156201791Y-80219575D01*
X155993545Y-80218380D01*
X155916188Y-80217051D01*
X155838992Y-80214164D01*
X155768677Y-80210079D01*
X155711960Y-80205153D01*
X155688316Y-80202110D01*
X155532707Y-80165982D01*
X155385657Y-80108018D01*
X155248978Y-80029563D01*
X155124479Y-79931962D01*
X155013973Y-79816561D01*
X154919271Y-79684705D01*
X154867970Y-79592661D01*
X154812934Y-79456984D01*
X154777458Y-79311690D01*
X154761548Y-79161010D01*
X154765208Y-79009176D01*
X154788444Y-78860421D01*
X154831260Y-78718975D01*
X154866901Y-78638277D01*
X154952634Y-78492266D01*
X155054047Y-78364613D01*
X155171095Y-78255353D01*
X155303730Y-78164526D01*
X155451906Y-78092166D01*
X155615578Y-78038311D01*
X155619458Y-78037307D01*
X155630071Y-78034862D01*
X155642773Y-78032614D01*
X155658568Y-78030556D01*
X155678460Y-78028678D01*
X155703451Y-78026973D01*
X155734546Y-78025432D01*
X155772747Y-78024047D01*
X155819058Y-78022810D01*
X155874483Y-78021713D01*
X155940024Y-78020747D01*
X156016684Y-78019904D01*
X156105468Y-78019176D01*
X156207379Y-78018555D01*
X156323420Y-78018032D01*
X156454593Y-78017599D01*
X156601904Y-78017248D01*
X156766354Y-78016971D01*
X156948948Y-78016759D01*
X157150688Y-78016604D01*
X157372579Y-78016498D01*
X157615623Y-78016432D01*
X157880823Y-78016399D01*
X158163530Y-78016390D01*
X160626268Y-78016390D01*
X160728882Y-78043624D01*
G37*
D10*
%TO.C,U1*%
X131622800Y-96316800D02*
X132156200Y-96316800D01*
X131622800Y-96850200D02*
X131622800Y-96316800D01*
X131622800Y-101295200D02*
X131622800Y-100761800D01*
X132156200Y-101295200D02*
X131622800Y-101295200D01*
X136601200Y-96316800D02*
X136067800Y-96316800D01*
X136601200Y-96316800D02*
X136601200Y-96850200D01*
X136601200Y-100761800D02*
X136601200Y-101295200D01*
X136601200Y-101295200D02*
X136067800Y-101295200D01*
X132700900Y-102261000D02*
G75*
G02*
X132523100Y-102261000I-88900J0D01*
G01*
X132523100Y-102261000D02*
G75*
G02*
X132700900Y-102261000I88900J0D01*
G01*
D12*
%TO.C,J5*%
X121666000Y-108966000D02*
X124206000Y-108966000D01*
X121666000Y-114046000D02*
X121666000Y-108966000D01*
X124206000Y-114046000D02*
X121666000Y-114046000D01*
X124206000Y-114046000D02*
X124206000Y-108966000D01*
D10*
X123024900Y-108331000D02*
G75*
G02*
X122847100Y-108331000I-88900J0D01*
G01*
X122847100Y-108331000D02*
G75*
G02*
X123024900Y-108331000I88900J0D01*
G01*
%TO.C,J3*%
X146481800Y-75263441D02*
X146481800Y-76250800D01*
X146481800Y-76250800D02*
X147443060Y-76250800D01*
X151425559Y-73101200D02*
X147786441Y-73101200D01*
X151768940Y-76250800D02*
X152730200Y-76250800D01*
X152730200Y-76250800D02*
X152730200Y-75263441D01*
X147408900Y-76708000D02*
G75*
G02*
X147231100Y-76708000I-88900J0D01*
G01*
X147231100Y-76708000D02*
G75*
G02*
X147408900Y-76708000I88900J0D01*
G01*
%TO.C,U2*%
X124066300Y-73472000D02*
G75*
G02*
X123888500Y-73472000I-88900J0D01*
G01*
X123888500Y-73472000D02*
G75*
G02*
X124066300Y-73472000I88900J0D01*
G01*
%TO.C,S1*%
X138204000Y-105458000D02*
X138204000Y-111458000D01*
X138204000Y-111458000D02*
X138954000Y-111458000D01*
X138954000Y-105458000D02*
X138204000Y-105458000D01*
X140954000Y-111458000D02*
X141704000Y-111458000D01*
X141704000Y-105458000D02*
X140954000Y-105458000D01*
X141704000Y-111458000D02*
X141704000Y-105458000D01*
X140042900Y-114008000D02*
G75*
G02*
X139865100Y-114008000I-88900J0D01*
G01*
X139865100Y-114008000D02*
G75*
G02*
X140042900Y-114008000I88900J0D01*
G01*
%TO.C,Q2*%
X124536200Y-103022400D02*
X124536200Y-102082600D01*
X124536200Y-103022400D02*
X125323600Y-103022400D01*
X126644400Y-103022400D02*
X127431800Y-103022400D01*
X127431800Y-102082600D02*
X127431800Y-103022400D01*
X128104900Y-101346000D02*
G75*
G02*
X127927100Y-101346000I-88900J0D01*
G01*
X127927100Y-101346000D02*
G75*
G02*
X128104900Y-101346000I88900J0D01*
G01*
%TO.C,J8*%
X126502000Y-109414000D02*
X126502000Y-111114000D01*
X126502000Y-109414000D02*
X127762000Y-109414000D01*
X126502000Y-113614000D02*
X126502000Y-114300000D01*
X134102000Y-109414000D02*
X132842000Y-109414000D01*
X134102000Y-109414000D02*
X134102000Y-111114000D01*
X134102000Y-114300000D02*
X134102000Y-113614000D01*
%TO.C,J1*%
X115570000Y-82296000D02*
X123190000Y-82296000D01*
X115570000Y-84836000D02*
X123190000Y-84836000D01*
X115570000Y-87376000D02*
X123190000Y-87376000D01*
X115570000Y-89916000D02*
X123190000Y-89916000D01*
X115570000Y-92456000D02*
X123190000Y-92456000D01*
X115570000Y-94996000D02*
X123190000Y-94996000D01*
X115570000Y-97536000D02*
X123190000Y-97536000D01*
X115570000Y-100076000D02*
X123190000Y-100076000D01*
X115570000Y-102616000D02*
X115570000Y-82296000D01*
X123190000Y-102616000D02*
X115570000Y-102616000D01*
X123190000Y-102616000D02*
X123190000Y-82296000D01*
%TO.C,J4*%
X155117800Y-75263441D02*
X155117800Y-76250800D01*
X155117800Y-76250800D02*
X156079060Y-76250800D01*
X160061559Y-73101200D02*
X156422441Y-73101200D01*
X160404940Y-76250800D02*
X161366200Y-76250800D01*
X161366200Y-76250800D02*
X161366200Y-75263441D01*
X156044900Y-76708000D02*
G75*
G02*
X155867100Y-76708000I-88900J0D01*
G01*
X155867100Y-76708000D02*
G75*
G02*
X156044900Y-76708000I88900J0D01*
G01*
%TO.C,Q1*%
X124536200Y-95529400D02*
X124536200Y-94589600D01*
X125323600Y-94589600D02*
X124536200Y-94589600D01*
X127431800Y-94589600D02*
X126644400Y-94589600D01*
X127431800Y-94589600D02*
X127431800Y-95529400D01*
X124040900Y-96266000D02*
G75*
G02*
X123863100Y-96266000I-88900J0D01*
G01*
X123863100Y-96266000D02*
G75*
G02*
X124040900Y-96266000I88900J0D01*
G01*
%TO.C,U3*%
X151206200Y-107569000D02*
X154101800Y-107569000D01*
X151206200Y-108331000D02*
X151206200Y-107569000D01*
X154101800Y-107569000D02*
X154101800Y-108331000D01*
X154101800Y-108331000D02*
X151206200Y-108331000D01*
X154393900Y-106650000D02*
G75*
G02*
X154216100Y-106650000I-88900J0D01*
G01*
X154216100Y-106650000D02*
G75*
G02*
X154393900Y-106650000I88900J0D01*
G01*
%TO.C,J6*%
X145836000Y-80623000D02*
X146336000Y-80623000D01*
X145836000Y-90573000D02*
X145836000Y-80623000D01*
X146336000Y-90573000D02*
X145836000Y-90573000D01*
X153885900Y-87598000D02*
G75*
G02*
X153708100Y-87598000I-88900J0D01*
G01*
X153708100Y-87598000D02*
G75*
G02*
X153885900Y-87598000I88900J0D01*
G01*
%TO.C,D1*%
X127355600Y-105333800D02*
X127355600Y-107010200D01*
X128676400Y-107010200D02*
X128676400Y-105333800D01*
X128104900Y-103987600D02*
G75*
G02*
X127927100Y-103987600I-88900J0D01*
G01*
X127927100Y-103987600D02*
G75*
G02*
X128104900Y-103987600I88900J0D01*
G01*
%TO.C,J7*%
X155488000Y-80623000D02*
X155988000Y-80623000D01*
X155488000Y-90573000D02*
X155488000Y-80623000D01*
X155988000Y-90573000D02*
X155488000Y-90573000D01*
X163537900Y-87598000D02*
G75*
G02*
X163360100Y-87598000I-88900J0D01*
G01*
X163360100Y-87598000D02*
G75*
G02*
X163537900Y-87598000I88900J0D01*
G01*
D11*
%TO.C,G5*%
G36*
X150415782Y-101019065D02*
G01*
X150420810Y-101021730D01*
X150421518Y-101026155D01*
X150421323Y-101026970D01*
X150419219Y-101035281D01*
X150415335Y-101051186D01*
X150410234Y-101072354D01*
X150404825Y-101095015D01*
X150390776Y-101154134D01*
X150366217Y-101167939D01*
X150324788Y-101187472D01*
X150284562Y-101198302D01*
X150245047Y-101201199D01*
X150223656Y-101200345D01*
X150204118Y-101198538D01*
X150190505Y-101196160D01*
X150190062Y-101196036D01*
X150170521Y-101185549D01*
X150157814Y-101168041D01*
X150152807Y-101144766D01*
X150152763Y-101142152D01*
X150155833Y-101115018D01*
X150165435Y-101092013D01*
X150182158Y-101072751D01*
X150206590Y-101056843D01*
X150239320Y-101043903D01*
X150280936Y-101033542D01*
X150329514Y-101025699D01*
X150363302Y-101021478D01*
X150388177Y-101018955D01*
X150405288Y-101018146D01*
X150415782Y-101019065D01*
G37*
G36*
X149856684Y-93111917D02*
G01*
X149859663Y-93126348D01*
X149864021Y-93147703D01*
X149869445Y-93174446D01*
X149875621Y-93205036D01*
X149877513Y-93214430D01*
X149884378Y-93248370D01*
X149891099Y-93281278D01*
X149897226Y-93310972D01*
X149902307Y-93335273D01*
X149905895Y-93352001D01*
X149906190Y-93353338D01*
X149913827Y-93387688D01*
X150059989Y-93389041D01*
X150206151Y-93390394D01*
X150101676Y-93462340D01*
X150071536Y-93483065D01*
X150042986Y-93502640D01*
X150017485Y-93520068D01*
X149996493Y-93534353D01*
X149981470Y-93544499D01*
X149975525Y-93548450D01*
X149963183Y-93556887D01*
X149955332Y-93562973D01*
X149953848Y-93564700D01*
X149954784Y-93570355D01*
X149957253Y-93583347D01*
X149960749Y-93601020D01*
X149961259Y-93603550D01*
X149970297Y-93648815D01*
X149979039Y-93693393D01*
X149987272Y-93736135D01*
X149994785Y-93775892D01*
X150001364Y-93811514D01*
X150006799Y-93841852D01*
X150010876Y-93865755D01*
X150013385Y-93882075D01*
X150014113Y-93889662D01*
X150014078Y-93889900D01*
X150009735Y-93888685D01*
X149998100Y-93881784D01*
X149979960Y-93869740D01*
X149956103Y-93853093D01*
X149927314Y-93832386D01*
X149894382Y-93808161D01*
X149882658Y-93799426D01*
X149752815Y-93702395D01*
X149729646Y-93714976D01*
X149719411Y-93720598D01*
X149701586Y-93730459D01*
X149677489Y-93743828D01*
X149648437Y-93759972D01*
X149615747Y-93778160D01*
X149580738Y-93797660D01*
X149567445Y-93805069D01*
X149533183Y-93824141D01*
X149501878Y-93841510D01*
X149474615Y-93856578D01*
X149452479Y-93868749D01*
X149436552Y-93877426D01*
X149427920Y-93882010D01*
X149426684Y-93882582D01*
X149428513Y-93878226D01*
X149434498Y-93865858D01*
X149444110Y-93846527D01*
X149456822Y-93821284D01*
X149472105Y-93791178D01*
X149489432Y-93757259D01*
X149502755Y-93731303D01*
X149580555Y-93580024D01*
X149492129Y-93485209D01*
X149403704Y-93390394D01*
X149547440Y-93388993D01*
X149691177Y-93387593D01*
X149772751Y-93244810D01*
X149792486Y-93210439D01*
X149810567Y-93179281D01*
X149826391Y-93152345D01*
X149839359Y-93130641D01*
X149848870Y-93115178D01*
X149854322Y-93106966D01*
X149855398Y-93105949D01*
X149856684Y-93111917D01*
G37*
G36*
X150934818Y-93096843D02*
G01*
X150938155Y-93110361D01*
X150942905Y-93131346D01*
X150948791Y-93158526D01*
X150955532Y-93190632D01*
X150962848Y-93226393D01*
X150963779Y-93231006D01*
X150991780Y-93369992D01*
X151138886Y-93372542D01*
X151285992Y-93375092D01*
X151248544Y-93400821D01*
X151232455Y-93411868D01*
X151209988Y-93427282D01*
X151183183Y-93445665D01*
X151154078Y-93465620D01*
X151124712Y-93485747D01*
X151123115Y-93486842D01*
X151096833Y-93505168D01*
X151073682Y-93521914D01*
X151054910Y-93536127D01*
X151041764Y-93546856D01*
X151035489Y-93553150D01*
X151035133Y-93554013D01*
X151036105Y-93560956D01*
X151038913Y-93577038D01*
X151043392Y-93601396D01*
X151049377Y-93633167D01*
X151056704Y-93671488D01*
X151065209Y-93715496D01*
X151074727Y-93764327D01*
X151085093Y-93817117D01*
X151089289Y-93838381D01*
X151092749Y-93857245D01*
X151094921Y-93871837D01*
X151095448Y-93879641D01*
X151095262Y-93880258D01*
X151090858Y-93877810D01*
X151079324Y-93869957D01*
X151061676Y-93857430D01*
X151038931Y-93840963D01*
X151012106Y-93821286D01*
X150982218Y-93799133D01*
X150971154Y-93790880D01*
X150939913Y-93767602D01*
X150910933Y-93746137D01*
X150885326Y-93727297D01*
X150864205Y-93711897D01*
X150848682Y-93700750D01*
X150839869Y-93694672D01*
X150838700Y-93693958D01*
X150834531Y-93692861D01*
X150828264Y-93693681D01*
X150818880Y-93696896D01*
X150805360Y-93702988D01*
X150786686Y-93712436D01*
X150761837Y-93725723D01*
X150729796Y-93743327D01*
X150706090Y-93756500D01*
X150671422Y-93775801D01*
X150637419Y-93794708D01*
X150605776Y-93812279D01*
X150578189Y-93827573D01*
X150556353Y-93839650D01*
X150543442Y-93846759D01*
X150503136Y-93868854D01*
X150569889Y-93739282D01*
X150587715Y-93704731D01*
X150604577Y-93672142D01*
X150619750Y-93642909D01*
X150632507Y-93618429D01*
X150642124Y-93600096D01*
X150647874Y-93589306D01*
X150648198Y-93588714D01*
X150659754Y-93567717D01*
X150645262Y-93550461D01*
X150636895Y-93540938D01*
X150623052Y-93525671D01*
X150605264Y-93506328D01*
X150585063Y-93484578D01*
X150570904Y-93469450D01*
X150550014Y-93447095D01*
X150530577Y-93426099D01*
X150514104Y-93408107D01*
X150502104Y-93394765D01*
X150497278Y-93389199D01*
X150483518Y-93372702D01*
X150627575Y-93371347D01*
X150771632Y-93369992D01*
X150851104Y-93231048D01*
X150870682Y-93196955D01*
X150888673Y-93165892D01*
X150904449Y-93138921D01*
X150917384Y-93117102D01*
X150926850Y-93101497D01*
X150932221Y-93093167D01*
X150933177Y-93092062D01*
X150934818Y-93096843D01*
G37*
G36*
X152200776Y-92078316D02*
G01*
X152204037Y-92091139D01*
X152208690Y-92111279D01*
X152214431Y-92137392D01*
X152220955Y-92168137D01*
X152225597Y-92190576D01*
X152232766Y-92225555D01*
X152239544Y-92258568D01*
X152245564Y-92287843D01*
X152250463Y-92311606D01*
X152253876Y-92328087D01*
X152254957Y-92333258D01*
X152260041Y-92357407D01*
X152406229Y-92358760D01*
X152552416Y-92360113D01*
X152488704Y-92403113D01*
X152464148Y-92419754D01*
X152437327Y-92438043D01*
X152409640Y-92457015D01*
X152382484Y-92475704D01*
X152357255Y-92493145D01*
X152335351Y-92508373D01*
X152318170Y-92520424D01*
X152307108Y-92528331D01*
X152303849Y-92530802D01*
X152304081Y-92536170D01*
X152306009Y-92550151D01*
X152309380Y-92571344D01*
X152313940Y-92598349D01*
X152319434Y-92629767D01*
X152325608Y-92664197D01*
X152332208Y-92700239D01*
X152338980Y-92736494D01*
X152345670Y-92771561D01*
X152352023Y-92804041D01*
X152357785Y-92832533D01*
X152362702Y-92855637D01*
X152363379Y-92858677D01*
X152364620Y-92866193D01*
X152364417Y-92867602D01*
X152360248Y-92864675D01*
X152348894Y-92856379D01*
X152331345Y-92843447D01*
X152308591Y-92826613D01*
X152281624Y-92806607D01*
X152251434Y-92784163D01*
X152236109Y-92772753D01*
X152204443Y-92749232D01*
X152175256Y-92727674D01*
X152149591Y-92708840D01*
X152128490Y-92693492D01*
X152112997Y-92682390D01*
X152104154Y-92676295D01*
X152102616Y-92675386D01*
X152099972Y-92675066D01*
X152095561Y-92676051D01*
X152088576Y-92678761D01*
X152078206Y-92683618D01*
X152063642Y-92691042D01*
X152044077Y-92701454D01*
X152018699Y-92715276D01*
X151986701Y-92732929D01*
X151947273Y-92754833D01*
X151909852Y-92775692D01*
X151878808Y-92792983D01*
X151849820Y-92809073D01*
X151824379Y-92823140D01*
X151803973Y-92834362D01*
X151790091Y-92841916D01*
X151785529Y-92844337D01*
X151768315Y-92853223D01*
X151783563Y-92825985D01*
X151789982Y-92814135D01*
X151800246Y-92794721D01*
X151813560Y-92769265D01*
X151829132Y-92739287D01*
X151846170Y-92706311D01*
X151862889Y-92673787D01*
X151926966Y-92548827D01*
X151840628Y-92455991D01*
X151816886Y-92430259D01*
X151795641Y-92406842D01*
X151777835Y-92386811D01*
X151764410Y-92371236D01*
X151756308Y-92361189D01*
X151754290Y-92357888D01*
X151759364Y-92356078D01*
X151774491Y-92354525D01*
X151799524Y-92353235D01*
X151834319Y-92352215D01*
X151878729Y-92351471D01*
X151897671Y-92351266D01*
X152041053Y-92349912D01*
X152119078Y-92213086D01*
X152138458Y-92179152D01*
X152156218Y-92148148D01*
X152171730Y-92121165D01*
X152184364Y-92099294D01*
X152193493Y-92083625D01*
X152198486Y-92075248D01*
X152199213Y-92074152D01*
X152200776Y-92078316D01*
G37*
G36*
X152026075Y-93131370D02*
G01*
X152029453Y-93146972D01*
X152034386Y-93170458D01*
X152040438Y-93199710D01*
X152047170Y-93232607D01*
X152054144Y-93267029D01*
X152055619Y-93274360D01*
X152077411Y-93382743D01*
X152222967Y-93382743D01*
X152265736Y-93382804D01*
X152299266Y-93383020D01*
X152324522Y-93383439D01*
X152342466Y-93384111D01*
X152354062Y-93385083D01*
X152360270Y-93386404D01*
X152362056Y-93388123D01*
X152361055Y-93389717D01*
X152355009Y-93394344D01*
X152341696Y-93403902D01*
X152322277Y-93417577D01*
X152297915Y-93434555D01*
X152269773Y-93454023D01*
X152239012Y-93475169D01*
X152236278Y-93477043D01*
X152205793Y-93497929D01*
X152178207Y-93516841D01*
X152154595Y-93533041D01*
X152136032Y-93545789D01*
X152123596Y-93554348D01*
X152118360Y-93557979D01*
X152118264Y-93558051D01*
X152119044Y-93563021D01*
X152121580Y-93576826D01*
X152125648Y-93598295D01*
X152131023Y-93626257D01*
X152137481Y-93659540D01*
X152144796Y-93696973D01*
X152150120Y-93724067D01*
X152157864Y-93763694D01*
X152164848Y-93800015D01*
X152170856Y-93831849D01*
X152175668Y-93858016D01*
X152179066Y-93877335D01*
X152180833Y-93888626D01*
X152180994Y-93891113D01*
X152176546Y-93888850D01*
X152165567Y-93881467D01*
X152149615Y-93870056D01*
X152130247Y-93855711D01*
X152126186Y-93852650D01*
X152080404Y-93818171D01*
X152039062Y-93787284D01*
X152002707Y-93760382D01*
X151971882Y-93737863D01*
X151947132Y-93720122D01*
X151929001Y-93707553D01*
X151918034Y-93700554D01*
X151914952Y-93699177D01*
X151909463Y-93701612D01*
X151896126Y-93708488D01*
X151875983Y-93719241D01*
X151850075Y-93733305D01*
X151819441Y-93750117D01*
X151785124Y-93769111D01*
X151751739Y-93787722D01*
X151715160Y-93808118D01*
X151681481Y-93826777D01*
X151651713Y-93843148D01*
X151626868Y-93856678D01*
X151607957Y-93866817D01*
X151595994Y-93873014D01*
X151591991Y-93874759D01*
X151593858Y-93870069D01*
X151599909Y-93857405D01*
X151609608Y-93837835D01*
X151622419Y-93812424D01*
X151637803Y-93782242D01*
X151655224Y-93748356D01*
X151667640Y-93724359D01*
X151744925Y-93575357D01*
X151730181Y-93559381D01*
X151721851Y-93550358D01*
X151708085Y-93535449D01*
X151690367Y-93516259D01*
X151670180Y-93494397D01*
X151654208Y-93477100D01*
X151633447Y-93454599D01*
X151614335Y-93433848D01*
X151598267Y-93416364D01*
X151586638Y-93403666D01*
X151581532Y-93398044D01*
X151570084Y-93385293D01*
X151712323Y-93383940D01*
X151854561Y-93382587D01*
X151917817Y-93271731D01*
X151936417Y-93239158D01*
X151954439Y-93207641D01*
X151970916Y-93178868D01*
X151984880Y-93154528D01*
X151995363Y-93136312D01*
X151999698Y-93128820D01*
X152018323Y-93096764D01*
X152026075Y-93131370D01*
G37*
G36*
X153097882Y-93098967D02*
G01*
X153101128Y-93111898D01*
X153105787Y-93132327D01*
X153111580Y-93158996D01*
X153118229Y-93190650D01*
X153125456Y-93226034D01*
X153125994Y-93228705D01*
X153133300Y-93264844D01*
X153140038Y-93297841D01*
X153145926Y-93326331D01*
X153150678Y-93348952D01*
X153154011Y-93364340D01*
X153155641Y-93371131D01*
X153155662Y-93371190D01*
X153158975Y-93373165D01*
X153167900Y-93374785D01*
X153183259Y-93376090D01*
X153205876Y-93377125D01*
X153236573Y-93377931D01*
X153276172Y-93378551D01*
X153303400Y-93378840D01*
X153448868Y-93380193D01*
X153378115Y-93428503D01*
X153328520Y-93462473D01*
X153286763Y-93491306D01*
X153252965Y-93514913D01*
X153227249Y-93533208D01*
X153209738Y-93546105D01*
X153200556Y-93553516D01*
X153199112Y-93555175D01*
X153199781Y-93560855D01*
X153202208Y-93575340D01*
X153206170Y-93597428D01*
X153211447Y-93625917D01*
X153217816Y-93659605D01*
X153225056Y-93697290D01*
X153230092Y-93723195D01*
X153237705Y-93762602D01*
X153244498Y-93798600D01*
X153250265Y-93830024D01*
X153254799Y-93855709D01*
X153257892Y-93874493D01*
X153259338Y-93885210D01*
X153259286Y-93887298D01*
X153254639Y-93884242D01*
X153242877Y-93875772D01*
X153225011Y-93862636D01*
X153202053Y-93845586D01*
X153175016Y-93825371D01*
X153144912Y-93802740D01*
X153131398Y-93792545D01*
X153100094Y-93768971D01*
X153071244Y-93747374D01*
X153045897Y-93728528D01*
X153025101Y-93713208D01*
X153009905Y-93702190D01*
X153001359Y-93696248D01*
X153000026Y-93695462D01*
X152994118Y-93697166D01*
X152980463Y-93703291D01*
X152960203Y-93713256D01*
X152934481Y-93726479D01*
X152904439Y-93742380D01*
X152871221Y-93760377D01*
X152857214Y-93768079D01*
X152821694Y-93787696D01*
X152787764Y-93806431D01*
X152756816Y-93823518D01*
X152730241Y-93838188D01*
X152709428Y-93849674D01*
X152695768Y-93857208D01*
X152693434Y-93858494D01*
X152666053Y-93873578D01*
X152704275Y-93800299D01*
X152731003Y-93749017D01*
X152753360Y-93706018D01*
X152771717Y-93670558D01*
X152786444Y-93641888D01*
X152797915Y-93619263D01*
X152806500Y-93601935D01*
X152812571Y-93589159D01*
X152816500Y-93580187D01*
X152818659Y-93574273D01*
X152819419Y-93570671D01*
X152819331Y-93569180D01*
X152816598Y-93564579D01*
X152809274Y-93555383D01*
X152796970Y-93541164D01*
X152779302Y-93521493D01*
X152755880Y-93495941D01*
X152726319Y-93464081D01*
X152690232Y-93425483D01*
X152672937Y-93407055D01*
X152645461Y-93377804D01*
X152790247Y-93376448D01*
X152935033Y-93375092D01*
X153014545Y-93236075D01*
X153034143Y-93201864D01*
X153052128Y-93170566D01*
X153067876Y-93143263D01*
X153080760Y-93121037D01*
X153090154Y-93104971D01*
X153095430Y-93096145D01*
X153096327Y-93094788D01*
X153097882Y-93098967D01*
G37*
G36*
X151124134Y-92085142D02*
G01*
X151127563Y-92100204D01*
X151132366Y-92122559D01*
X151138256Y-92150847D01*
X151144947Y-92183710D01*
X151152151Y-92219787D01*
X151152416Y-92221127D01*
X151179389Y-92357562D01*
X151327762Y-92357562D01*
X151476135Y-92357562D01*
X151455825Y-92371114D01*
X151422855Y-92393285D01*
X151389222Y-92416217D01*
X151356008Y-92439140D01*
X151324298Y-92461287D01*
X151295176Y-92481887D01*
X151269726Y-92500171D01*
X151249031Y-92515371D01*
X151234177Y-92526718D01*
X151226246Y-92533442D01*
X151225247Y-92534688D01*
X151225503Y-92541309D01*
X151227535Y-92556685D01*
X151231133Y-92579564D01*
X151236086Y-92608695D01*
X151242185Y-92642826D01*
X151249220Y-92680707D01*
X151253532Y-92703303D01*
X151261023Y-92742423D01*
X151267790Y-92778196D01*
X151273614Y-92809432D01*
X151278276Y-92834936D01*
X151281556Y-92853517D01*
X151283237Y-92863981D01*
X151283389Y-92865866D01*
X151279165Y-92863233D01*
X151267761Y-92855197D01*
X151250159Y-92842476D01*
X151227341Y-92825785D01*
X151200288Y-92805842D01*
X151169984Y-92783363D01*
X151152630Y-92770435D01*
X151120766Y-92746791D01*
X151091405Y-92725252D01*
X151065569Y-92706549D01*
X151044281Y-92691412D01*
X151028563Y-92680572D01*
X151019438Y-92674758D01*
X151017635Y-92673965D01*
X151012059Y-92676412D01*
X150998636Y-92683294D01*
X150978410Y-92694046D01*
X150952426Y-92708102D01*
X150921727Y-92724898D01*
X150887360Y-92743870D01*
X150854069Y-92762386D01*
X150817470Y-92782743D01*
X150783760Y-92801362D01*
X150753955Y-92817691D01*
X150729069Y-92831180D01*
X150710115Y-92841280D01*
X150698109Y-92847440D01*
X150694071Y-92849155D01*
X150695887Y-92844453D01*
X150701909Y-92831787D01*
X150711601Y-92812226D01*
X150724425Y-92786837D01*
X150739842Y-92756686D01*
X150757316Y-92722842D01*
X150769726Y-92698976D01*
X150847267Y-92550272D01*
X150835101Y-92536799D01*
X150827821Y-92528814D01*
X150814964Y-92514790D01*
X150797867Y-92496183D01*
X150777872Y-92474452D01*
X150757114Y-92451920D01*
X150735574Y-92428535D01*
X150715626Y-92406849D01*
X150698614Y-92388325D01*
X150685884Y-92374427D01*
X150678931Y-92366787D01*
X150666569Y-92353061D01*
X150810762Y-92352621D01*
X150848165Y-92352426D01*
X150882231Y-92352093D01*
X150911631Y-92351648D01*
X150935034Y-92351116D01*
X150951110Y-92350523D01*
X150958527Y-92349894D01*
X150958821Y-92349792D01*
X150962216Y-92344924D01*
X150969993Y-92332273D01*
X150981510Y-92312932D01*
X150996124Y-92287994D01*
X151013192Y-92258552D01*
X151032071Y-92225699D01*
X151040988Y-92210090D01*
X151060347Y-92176492D01*
X151078159Y-92146247D01*
X151093798Y-92120367D01*
X151106638Y-92099862D01*
X151116052Y-92085745D01*
X151121413Y-92079026D01*
X151122367Y-92078734D01*
X151124134Y-92085142D01*
G37*
G36*
X153290658Y-92079733D02*
G01*
X153294176Y-92092351D01*
X153299076Y-92112547D01*
X153305078Y-92139102D01*
X153311897Y-92170799D01*
X153319253Y-92206420D01*
X153320707Y-92213621D01*
X153349132Y-92355012D01*
X153495872Y-92356366D01*
X153538290Y-92356777D01*
X153571511Y-92357190D01*
X153596539Y-92357683D01*
X153614379Y-92358337D01*
X153626034Y-92359232D01*
X153632508Y-92360447D01*
X153634805Y-92362063D01*
X153633929Y-92364159D01*
X153630884Y-92366814D01*
X153630549Y-92367074D01*
X153623203Y-92372394D01*
X153608674Y-92382597D01*
X153588211Y-92396820D01*
X153563061Y-92414198D01*
X153534468Y-92433868D01*
X153505002Y-92454063D01*
X153475042Y-92474662D01*
X153448048Y-92493419D01*
X153425109Y-92509562D01*
X153407315Y-92522317D01*
X153395755Y-92530910D01*
X153391521Y-92534569D01*
X153391518Y-92534591D01*
X153392456Y-92540127D01*
X153395113Y-92554450D01*
X153399255Y-92576338D01*
X153404650Y-92604565D01*
X153411064Y-92637908D01*
X153418263Y-92675143D01*
X153422121Y-92695025D01*
X153430921Y-92740355D01*
X153437938Y-92776668D01*
X153443330Y-92804963D01*
X153447259Y-92826238D01*
X153449882Y-92841490D01*
X153451360Y-92851718D01*
X153451853Y-92857918D01*
X153451521Y-92861089D01*
X153450522Y-92862229D01*
X153449018Y-92862335D01*
X153448898Y-92862329D01*
X153444018Y-92859332D01*
X153432025Y-92850929D01*
X153413943Y-92837865D01*
X153390796Y-92820890D01*
X153363605Y-92800750D01*
X153333394Y-92778194D01*
X153320113Y-92768226D01*
X153288831Y-92744848D01*
X153260018Y-92723576D01*
X153234719Y-92705162D01*
X153213980Y-92690357D01*
X153198846Y-92679911D01*
X153190362Y-92674576D01*
X153189049Y-92674041D01*
X153183187Y-92676378D01*
X153169618Y-92683110D01*
X153149513Y-92693611D01*
X153124048Y-92707259D01*
X153094394Y-92723430D01*
X153061727Y-92741500D01*
X153053888Y-92745872D01*
X153018949Y-92765381D01*
X152985228Y-92784199D01*
X152954238Y-92801482D01*
X152927494Y-92816386D01*
X152906510Y-92828066D01*
X152892800Y-92835679D01*
X152892092Y-92836071D01*
X152859353Y-92854185D01*
X152904216Y-92767811D01*
X152921506Y-92734541D01*
X152940217Y-92698564D01*
X152958660Y-92663127D01*
X152975145Y-92631478D01*
X152983666Y-92615133D01*
X153018251Y-92548827D01*
X152929695Y-92454470D01*
X152900989Y-92423790D01*
X152878725Y-92399736D01*
X152862286Y-92381572D01*
X152851052Y-92368561D01*
X152844405Y-92359968D01*
X152841727Y-92355056D01*
X152842399Y-92353089D01*
X152844500Y-92353066D01*
X152850413Y-92353203D01*
X152865180Y-92353286D01*
X152887454Y-92353315D01*
X152915889Y-92353291D01*
X152949138Y-92353212D01*
X152985856Y-92353080D01*
X152989230Y-92353066D01*
X153130134Y-92352462D01*
X153207732Y-92216026D01*
X153227109Y-92182034D01*
X153244941Y-92150896D01*
X153260588Y-92123722D01*
X153273406Y-92101623D01*
X153282753Y-92085709D01*
X153287986Y-92077090D01*
X153288806Y-92075910D01*
X153290658Y-92079733D01*
G37*
G36*
X154117500Y-91683034D02*
G01*
X154115578Y-91692324D01*
X154111747Y-91710965D01*
X154106138Y-91738315D01*
X154098884Y-91773730D01*
X154090115Y-91816567D01*
X154079964Y-91866183D01*
X154068562Y-91921936D01*
X154056039Y-91983181D01*
X154042529Y-92049277D01*
X154028162Y-92119579D01*
X154013070Y-92193445D01*
X153997384Y-92270231D01*
X153982673Y-92342261D01*
X153932910Y-92585932D01*
X153884915Y-92820943D01*
X153838413Y-93048630D01*
X153793134Y-93270329D01*
X153748803Y-93487375D01*
X153705148Y-93701104D01*
X153661896Y-93912850D01*
X153618775Y-94123950D01*
X153575512Y-94335739D01*
X153531833Y-94549553D01*
X153487466Y-94766726D01*
X153442139Y-94988594D01*
X153395578Y-95216494D01*
X153347511Y-95451759D01*
X153322665Y-95573366D01*
X153299034Y-95689025D01*
X153275131Y-95806020D01*
X153251100Y-95923644D01*
X153227085Y-96041195D01*
X153203229Y-96157967D01*
X153179676Y-96273257D01*
X153156570Y-96386360D01*
X153134056Y-96496572D01*
X153112276Y-96603190D01*
X153091376Y-96705508D01*
X153071497Y-96802822D01*
X153052786Y-96894428D01*
X153035384Y-96979623D01*
X153019437Y-97057701D01*
X153005088Y-97127959D01*
X152992481Y-97189692D01*
X152981759Y-97242196D01*
X152980922Y-97246297D01*
X152951924Y-97388304D01*
X152924892Y-97520663D01*
X152899754Y-97643721D01*
X152876438Y-97757827D01*
X152854873Y-97863327D01*
X152834987Y-97960570D01*
X152816708Y-98049902D01*
X152799965Y-98131671D01*
X152784686Y-98206225D01*
X152770799Y-98273912D01*
X152758232Y-98335077D01*
X152746914Y-98390070D01*
X152736773Y-98439238D01*
X152727738Y-98482927D01*
X152719737Y-98521487D01*
X152712697Y-98555263D01*
X152706548Y-98584604D01*
X152701218Y-98609857D01*
X152696635Y-98631369D01*
X152692727Y-98649489D01*
X152689422Y-98664563D01*
X152686650Y-98676939D01*
X152684338Y-98686965D01*
X152682415Y-98694987D01*
X152680808Y-98701354D01*
X152680518Y-98702462D01*
X152660177Y-98791643D01*
X152645156Y-98883740D01*
X152635521Y-98976951D01*
X152631338Y-99069477D01*
X152632670Y-99159515D01*
X152639585Y-99245265D01*
X152652147Y-99324926D01*
X152657095Y-99347663D01*
X152680220Y-99427257D01*
X152711213Y-99502472D01*
X152749521Y-99572440D01*
X152794587Y-99636297D01*
X152845856Y-99693177D01*
X152902771Y-99742215D01*
X152917181Y-99752701D01*
X152972906Y-99787374D01*
X153036629Y-99819031D01*
X153106387Y-99846852D01*
X153180216Y-99870021D01*
X153225755Y-99881371D01*
X153235710Y-99883560D01*
X153245278Y-99885456D01*
X153255251Y-99887084D01*
X153266421Y-99888470D01*
X153279580Y-99889638D01*
X153295520Y-99890614D01*
X153315032Y-99891422D01*
X153338909Y-99892088D01*
X153367943Y-99892636D01*
X153402925Y-99893092D01*
X153444648Y-99893481D01*
X153493903Y-99893826D01*
X153551483Y-99894155D01*
X153618179Y-99894491D01*
X153645263Y-99894622D01*
X153716683Y-99894990D01*
X153778547Y-99895369D01*
X153831502Y-99895776D01*
X153876193Y-99896224D01*
X153913267Y-99896730D01*
X153943368Y-99897310D01*
X153967142Y-99897980D01*
X153985236Y-99898753D01*
X153998294Y-99899647D01*
X154006964Y-99900677D01*
X154011889Y-99901858D01*
X154013717Y-99903206D01*
X154013767Y-99903508D01*
X154012736Y-99909760D01*
X154009777Y-99925012D01*
X154005090Y-99948287D01*
X153998879Y-99978610D01*
X153991343Y-100015004D01*
X153982684Y-100056494D01*
X153973104Y-100102101D01*
X153962805Y-100150852D01*
X153960413Y-100162133D01*
X153946742Y-100226599D01*
X153932175Y-100295334D01*
X153916839Y-100367725D01*
X153900866Y-100443159D01*
X153884384Y-100521025D01*
X153867523Y-100600709D01*
X153850411Y-100681600D01*
X153833179Y-100763084D01*
X153815956Y-100844550D01*
X153798871Y-100925384D01*
X153782053Y-101004975D01*
X153765632Y-101082710D01*
X153749737Y-101157977D01*
X153734497Y-101230162D01*
X153720042Y-101298654D01*
X153706502Y-101362840D01*
X153694005Y-101422107D01*
X153682681Y-101475844D01*
X153672659Y-101523437D01*
X153664069Y-101564275D01*
X153657040Y-101597744D01*
X153651701Y-101623232D01*
X153648182Y-101640127D01*
X153646612Y-101647816D01*
X153646539Y-101648233D01*
X153641483Y-101648359D01*
X153626497Y-101648484D01*
X153601850Y-101648606D01*
X153567811Y-101648726D01*
X153524652Y-101648844D01*
X153472641Y-101648960D01*
X153412049Y-101649072D01*
X153343146Y-101649182D01*
X153266201Y-101649289D01*
X153181485Y-101649393D01*
X153089267Y-101649493D01*
X152989817Y-101649589D01*
X152883406Y-101649682D01*
X152770303Y-101649771D01*
X152650777Y-101649855D01*
X152525100Y-101649935D01*
X152393541Y-101650011D01*
X152256369Y-101650082D01*
X152113856Y-101650147D01*
X151966270Y-101650208D01*
X151813881Y-101650264D01*
X151656960Y-101650314D01*
X151495776Y-101650358D01*
X151330600Y-101650396D01*
X151161701Y-101650428D01*
X150989349Y-101650455D01*
X150813814Y-101650474D01*
X150635366Y-101650487D01*
X150454276Y-101650494D01*
X150382282Y-101650494D01*
X150200224Y-101650488D01*
X150020703Y-101650469D01*
X149843988Y-101650437D01*
X149670350Y-101650394D01*
X149500059Y-101650340D01*
X149333384Y-101650274D01*
X149170596Y-101650197D01*
X149011964Y-101650110D01*
X148857758Y-101650012D01*
X148708248Y-101649905D01*
X148563704Y-101649788D01*
X148424396Y-101649662D01*
X148290594Y-101649527D01*
X148162568Y-101649384D01*
X148040587Y-101649232D01*
X147924922Y-101649073D01*
X147815843Y-101648906D01*
X147713619Y-101648732D01*
X147618520Y-101648552D01*
X147530817Y-101648365D01*
X147450779Y-101648171D01*
X147378676Y-101647972D01*
X147314778Y-101647768D01*
X147259355Y-101647559D01*
X147212678Y-101647345D01*
X147175014Y-101647126D01*
X147146636Y-101646904D01*
X147127812Y-101646678D01*
X147118813Y-101646448D01*
X147118025Y-101646357D01*
X147119044Y-101640698D01*
X147121970Y-101626019D01*
X147126605Y-101603280D01*
X147132748Y-101573442D01*
X147140203Y-101537465D01*
X147148770Y-101496310D01*
X147158250Y-101450938D01*
X147168445Y-101402309D01*
X147171018Y-101390062D01*
X147179059Y-101351783D01*
X147188990Y-101304480D01*
X147200609Y-101249115D01*
X147213716Y-101186646D01*
X147228107Y-101118036D01*
X147243583Y-101044243D01*
X147259941Y-100966230D01*
X147276981Y-100884956D01*
X147294501Y-100801381D01*
X147312299Y-100716467D01*
X147330174Y-100631173D01*
X147347924Y-100546461D01*
X147355634Y-100509665D01*
X147377354Y-100405996D01*
X148637944Y-100405996D01*
X148637982Y-100427673D01*
X148638219Y-100435964D01*
X148638897Y-100453662D01*
X148639981Y-100479987D01*
X148641436Y-100514157D01*
X148643228Y-100555388D01*
X148645323Y-100602901D01*
X148647687Y-100655913D01*
X148650284Y-100713642D01*
X148653081Y-100775306D01*
X148656043Y-100840124D01*
X148658361Y-100890534D01*
X148661408Y-100956643D01*
X148664318Y-101019780D01*
X148667056Y-101079209D01*
X148669589Y-101134194D01*
X148671882Y-101183999D01*
X148673902Y-101227888D01*
X148675615Y-101265126D01*
X148676986Y-101294976D01*
X148677983Y-101316703D01*
X148678571Y-101329571D01*
X148678725Y-101332994D01*
X148683611Y-101333331D01*
X148697378Y-101333632D01*
X148718704Y-101333887D01*
X148746270Y-101334082D01*
X148778754Y-101334206D01*
X148814836Y-101334246D01*
X148815183Y-101334246D01*
X148951619Y-101334223D01*
X149096973Y-101036120D01*
X149122041Y-100984853D01*
X149145830Y-100936481D01*
X149167963Y-100891756D01*
X149188061Y-100851427D01*
X149205747Y-100816244D01*
X149220642Y-100786960D01*
X149232368Y-100764324D01*
X149240547Y-100749086D01*
X149244802Y-100741998D01*
X149245308Y-100741595D01*
X149246190Y-100747231D01*
X149247613Y-100762088D01*
X149249508Y-100785205D01*
X149251804Y-100815619D01*
X149254433Y-100852371D01*
X149257324Y-100894497D01*
X149260407Y-100941038D01*
X149263613Y-100991031D01*
X149264828Y-101010394D01*
X149268095Y-101062464D01*
X149271259Y-101112280D01*
X149274249Y-101158754D01*
X149276993Y-101200797D01*
X149279419Y-101237320D01*
X149281455Y-101267235D01*
X149283029Y-101289454D01*
X149284069Y-101302887D01*
X149284257Y-101304942D01*
X149287148Y-101334269D01*
X149417757Y-101334261D01*
X149548366Y-101334253D01*
X149626236Y-101173752D01*
X149913045Y-101173752D01*
X149917277Y-101218539D01*
X149929922Y-101257579D01*
X149950898Y-101290756D01*
X149980125Y-101317955D01*
X150017523Y-101339060D01*
X150032031Y-101344808D01*
X150050924Y-101349341D01*
X150076860Y-101352560D01*
X150106756Y-101354382D01*
X150137529Y-101354727D01*
X150166096Y-101353513D01*
X150189375Y-101350657D01*
X150196117Y-101349145D01*
X150248100Y-101332037D01*
X150296322Y-101308995D01*
X150319917Y-101295000D01*
X150363180Y-101267839D01*
X150359651Y-101284478D01*
X150356068Y-101302358D01*
X150353217Y-101317792D01*
X150350312Y-101334468D01*
X150464216Y-101333093D01*
X150578119Y-101331719D01*
X150633593Y-101097100D01*
X150646546Y-101042207D01*
X150657322Y-100996173D01*
X150663083Y-100971148D01*
X150827276Y-100971148D01*
X150827495Y-101013555D01*
X150829770Y-101053851D01*
X150834030Y-101089221D01*
X150838907Y-101112402D01*
X150857959Y-101165127D01*
X150884505Y-101212356D01*
X150917818Y-101253040D01*
X150957168Y-101286133D01*
X150962139Y-101289464D01*
X150997131Y-101310343D01*
X151031849Y-101326550D01*
X151068211Y-101338555D01*
X151108134Y-101346828D01*
X151153536Y-101351841D01*
X151206335Y-101354062D01*
X151226398Y-101354266D01*
X151261239Y-101354182D01*
X151288595Y-101353490D01*
X151311176Y-101351956D01*
X151331689Y-101349348D01*
X151352844Y-101345432D01*
X151368336Y-101342050D01*
X151391027Y-101336191D01*
X151417612Y-101328206D01*
X151446120Y-101318817D01*
X151474585Y-101308742D01*
X151501036Y-101298702D01*
X151523504Y-101289417D01*
X151537700Y-101282703D01*
X151681090Y-101282703D01*
X151681120Y-101284059D01*
X151686880Y-101287655D01*
X151700384Y-101293413D01*
X151719590Y-101300621D01*
X151742456Y-101308567D01*
X151766937Y-101316541D01*
X151790992Y-101323831D01*
X151811240Y-101329385D01*
X151837335Y-101335412D01*
X151867565Y-101341451D01*
X151895935Y-101346318D01*
X151899336Y-101346826D01*
X151924056Y-101349479D01*
X151956345Y-101351540D01*
X151993828Y-101352991D01*
X152034130Y-101353811D01*
X152074877Y-101353981D01*
X152113694Y-101353480D01*
X152148208Y-101352288D01*
X152176042Y-101350385D01*
X152186180Y-101349235D01*
X152254894Y-101336416D01*
X152317211Y-101317705D01*
X152372612Y-101293400D01*
X152420579Y-101263798D01*
X152460595Y-101229194D01*
X152492141Y-101189887D01*
X152505959Y-101165844D01*
X152520874Y-101131192D01*
X152529955Y-101097098D01*
X152533883Y-101060062D01*
X152533672Y-101023485D01*
X152531938Y-100996831D01*
X152528873Y-100976510D01*
X152523684Y-100958670D01*
X152517045Y-100942650D01*
X152497490Y-100910070D01*
X152469552Y-100880433D01*
X152432866Y-100853493D01*
X152387067Y-100829005D01*
X152331790Y-100806723D01*
X152298897Y-100795839D01*
X152244574Y-100778890D01*
X152199176Y-100764429D01*
X152161843Y-100752071D01*
X152131711Y-100741432D01*
X152107918Y-100732127D01*
X152089603Y-100723774D01*
X152075904Y-100715986D01*
X152065957Y-100708380D01*
X152058901Y-100700573D01*
X152053874Y-100692178D01*
X152050939Y-100685324D01*
X152045935Y-100660417D01*
X152050730Y-100637018D01*
X152065496Y-100614505D01*
X152072566Y-100607184D01*
X152088292Y-100593785D01*
X152105035Y-100583579D01*
X152124425Y-100576176D01*
X152148094Y-100571184D01*
X152177672Y-100568212D01*
X152214792Y-100566868D01*
X152241378Y-100566680D01*
X152275197Y-100566860D01*
X152301101Y-100567521D01*
X152321369Y-100568873D01*
X152338282Y-100571124D01*
X152354122Y-100574485D01*
X152368353Y-100578343D01*
X152407775Y-100591552D01*
X152446704Y-100607868D01*
X152481880Y-100625794D01*
X152508934Y-100643007D01*
X152528343Y-100654746D01*
X152545627Y-100660589D01*
X152559025Y-100660259D01*
X152566774Y-100653485D01*
X152567283Y-100652090D01*
X152569048Y-100644895D01*
X152572453Y-100629885D01*
X152577097Y-100608915D01*
X152582582Y-100583837D01*
X152588509Y-100556504D01*
X152594477Y-100528768D01*
X152600087Y-100502482D01*
X152604942Y-100479498D01*
X152608640Y-100461671D01*
X152610784Y-100450851D01*
X152611157Y-100448500D01*
X152606532Y-100444453D01*
X152593901Y-100438528D01*
X152575129Y-100431414D01*
X152552081Y-100423801D01*
X152526625Y-100416380D01*
X152518465Y-100414208D01*
X152461839Y-100401525D01*
X152403565Y-100392728D01*
X152341044Y-100387528D01*
X152271675Y-100385634D01*
X152262879Y-100385615D01*
X152206915Y-100386531D01*
X152158715Y-100389455D01*
X152115988Y-100394689D01*
X152076440Y-100402535D01*
X152037781Y-100413297D01*
X152027301Y-100416706D01*
X151980884Y-100434508D01*
X151941627Y-100455004D01*
X151906530Y-100479997D01*
X151876277Y-100507570D01*
X151846504Y-100540803D01*
X151824876Y-100573695D01*
X151810583Y-100608423D01*
X151802812Y-100647163D01*
X151800751Y-100692093D01*
X151801193Y-100708815D01*
X151802734Y-100735289D01*
X151805253Y-100754841D01*
X151809391Y-100770742D01*
X151815795Y-100786265D01*
X151816876Y-100788526D01*
X151831676Y-100814895D01*
X151849651Y-100838474D01*
X151871732Y-100859820D01*
X151898847Y-100879491D01*
X151931926Y-100898042D01*
X151971899Y-100916032D01*
X152019694Y-100934016D01*
X152076241Y-100952552D01*
X152105445Y-100961416D01*
X152136143Y-100970796D01*
X152165770Y-100980296D01*
X152191958Y-100989127D01*
X152212340Y-100996495D01*
X152221782Y-101000314D01*
X152253065Y-101017406D01*
X152274422Y-101036712D01*
X152285903Y-101058326D01*
X152287560Y-101082340D01*
X152280464Y-101106606D01*
X152266934Y-101128899D01*
X152247714Y-101146540D01*
X152222081Y-101159767D01*
X152189312Y-101168818D01*
X152148685Y-101173932D01*
X152099476Y-101175349D01*
X152073906Y-101174829D01*
X152009874Y-101170064D01*
X151952710Y-101159799D01*
X151900290Y-101143350D01*
X151850489Y-101120035D01*
X151801183Y-101089169D01*
X151795796Y-101085353D01*
X151775425Y-101071482D01*
X151760614Y-101063350D01*
X151749264Y-101059956D01*
X151742364Y-101059851D01*
X151726715Y-101061398D01*
X151703032Y-101171056D01*
X151696210Y-101203148D01*
X151690318Y-101231838D01*
X151685643Y-101255646D01*
X151682471Y-101273094D01*
X151681090Y-101282703D01*
X151537700Y-101282703D01*
X151540022Y-101281605D01*
X151548400Y-101276214D01*
X151551317Y-101269690D01*
X151556073Y-101254829D01*
X151562216Y-101233236D01*
X151569292Y-101206511D01*
X151576849Y-101176259D01*
X151578107Y-101171056D01*
X151585562Y-101140144D01*
X151592325Y-101112239D01*
X151597991Y-101089005D01*
X151602152Y-101072109D01*
X151604402Y-101063216D01*
X151604551Y-101062673D01*
X151604252Y-101056280D01*
X151596911Y-101053906D01*
X151591747Y-101053747D01*
X151577462Y-101057360D01*
X151556315Y-101068104D01*
X151534024Y-101082159D01*
X151477522Y-101116516D01*
X151422865Y-101142790D01*
X151371230Y-101160420D01*
X151367014Y-101161503D01*
X151344085Y-101166604D01*
X151323070Y-101169554D01*
X151300204Y-101170665D01*
X151271721Y-101170252D01*
X151265006Y-101170014D01*
X151237723Y-101168686D01*
X151217792Y-101166771D01*
X151202366Y-101163746D01*
X151188595Y-101159089D01*
X151176853Y-101153833D01*
X151143775Y-101132566D01*
X151117727Y-101104152D01*
X151099515Y-101069528D01*
X151096414Y-101060443D01*
X151085642Y-101010481D01*
X151082133Y-100955857D01*
X151085666Y-100898837D01*
X151096019Y-100841691D01*
X151112968Y-100786683D01*
X151126343Y-100755374D01*
X151156494Y-100701910D01*
X151191546Y-100657331D01*
X151231667Y-100621483D01*
X151277024Y-100594216D01*
X151323032Y-100576720D01*
X151348943Y-100571804D01*
X151381173Y-100569556D01*
X151416400Y-100569843D01*
X151451304Y-100572534D01*
X151482564Y-100577500D01*
X151505114Y-100583910D01*
X151543303Y-100602295D01*
X151582953Y-100627957D01*
X151621113Y-100658977D01*
X151622763Y-100660482D01*
X151638759Y-100674457D01*
X151650297Y-100682354D01*
X151659883Y-100685548D01*
X151668485Y-100685580D01*
X151685071Y-100683968D01*
X151712064Y-100572218D01*
X151719737Y-100539992D01*
X151726377Y-100511220D01*
X151731670Y-100487332D01*
X151735304Y-100469759D01*
X151736966Y-100459933D01*
X151736954Y-100458366D01*
X151731657Y-100455573D01*
X151719104Y-100449760D01*
X151701429Y-100441899D01*
X151688882Y-100436445D01*
X151637497Y-100416661D01*
X151586423Y-100402153D01*
X151533378Y-100392543D01*
X151476083Y-100387452D01*
X151412256Y-100386504D01*
X151390560Y-100386999D01*
X151355245Y-100388301D01*
X151327623Y-100389967D01*
X151305190Y-100392291D01*
X151285438Y-100395571D01*
X151265862Y-100400103D01*
X151254992Y-100403032D01*
X151180552Y-100428738D01*
X151112272Y-100462440D01*
X151050467Y-100503773D01*
X150995452Y-100552372D01*
X150947541Y-100607873D01*
X150907050Y-100669911D01*
X150874293Y-100738123D01*
X150849585Y-100812143D01*
X150833292Y-100891260D01*
X150829184Y-100929444D01*
X150827276Y-100971148D01*
X150663083Y-100971148D01*
X150666124Y-100957937D01*
X150673155Y-100926440D01*
X150678621Y-100900621D01*
X150682724Y-100879421D01*
X150685668Y-100861780D01*
X150687658Y-100846636D01*
X150688896Y-100832931D01*
X150689586Y-100819604D01*
X150689933Y-100805595D01*
X150689961Y-100803827D01*
X150690141Y-100777434D01*
X150689515Y-100758747D01*
X150687762Y-100745283D01*
X150684557Y-100734556D01*
X150679577Y-100724085D01*
X150658702Y-100694511D01*
X150630199Y-100670031D01*
X150593521Y-100650295D01*
X150548123Y-100634953D01*
X150535514Y-100631802D01*
X150521159Y-100628839D01*
X150505537Y-100626588D01*
X150487071Y-100624966D01*
X150464187Y-100623891D01*
X150435309Y-100623279D01*
X150398860Y-100623048D01*
X150369531Y-100623064D01*
X150328221Y-100623253D01*
X150295054Y-100623697D01*
X150267973Y-100624537D01*
X150244921Y-100625916D01*
X150223841Y-100627974D01*
X150202675Y-100630853D01*
X150179366Y-100634695D01*
X150165951Y-100637078D01*
X150139412Y-100641958D01*
X150116655Y-100646324D01*
X150099467Y-100649818D01*
X150089631Y-100652085D01*
X150088022Y-100652652D01*
X150086456Y-100658047D01*
X150083464Y-100671421D01*
X150079446Y-100690716D01*
X150074801Y-100713873D01*
X150069928Y-100738835D01*
X150065225Y-100763545D01*
X150061093Y-100785945D01*
X150057930Y-100803977D01*
X150056135Y-100815582D01*
X150055875Y-100818389D01*
X150058760Y-100822473D01*
X150067932Y-100823451D01*
X150084120Y-100821201D01*
X150108051Y-100815602D01*
X150140455Y-100806532D01*
X150157864Y-100801325D01*
X150187159Y-100792778D01*
X150210829Y-100786988D01*
X150232797Y-100783300D01*
X150256986Y-100781063D01*
X150287319Y-100779622D01*
X150288509Y-100779579D01*
X150337277Y-100779257D01*
X150376915Y-100782303D01*
X150408014Y-100788985D01*
X150431161Y-100799572D01*
X150446946Y-100814331D01*
X150455958Y-100833532D01*
X150458788Y-100857128D01*
X150458788Y-100880333D01*
X150433140Y-100880333D01*
X150411811Y-100881101D01*
X150382889Y-100883221D01*
X150348852Y-100886418D01*
X150312179Y-100890416D01*
X150275348Y-100894941D01*
X150240835Y-100899716D01*
X150211120Y-100904467D01*
X150203499Y-100905849D01*
X150135934Y-100921762D01*
X150077368Y-100942445D01*
X150027768Y-100967929D01*
X149987102Y-100998243D01*
X149955334Y-101033420D01*
X149932432Y-101073491D01*
X149918361Y-101118486D01*
X149913089Y-101168436D01*
X149913045Y-101173752D01*
X149626236Y-101173752D01*
X149701166Y-101019311D01*
X149729385Y-100961157D01*
X149758237Y-100901712D01*
X149787095Y-100842268D01*
X149815332Y-100784117D01*
X149842320Y-100728551D01*
X149867432Y-100676860D01*
X149890040Y-100630338D01*
X149909518Y-100590276D01*
X149925237Y-100557965D01*
X149926634Y-100555094D01*
X149999301Y-100405819D01*
X149873433Y-100407183D01*
X149747566Y-100408546D01*
X149609713Y-100718868D01*
X149586262Y-100771518D01*
X149564032Y-100821155D01*
X149543364Y-100867036D01*
X149524598Y-100908417D01*
X149508075Y-100944554D01*
X149494136Y-100974704D01*
X149483123Y-100998123D01*
X149475375Y-101014067D01*
X149471234Y-101021792D01*
X149470623Y-101022342D01*
X149470184Y-101016161D01*
X149469359Y-101000893D01*
X149468198Y-100977642D01*
X149466748Y-100947512D01*
X149465060Y-100911608D01*
X149463183Y-100871034D01*
X149461166Y-100826895D01*
X149459058Y-100780294D01*
X149456908Y-100732335D01*
X149454766Y-100684124D01*
X149452681Y-100636765D01*
X149450702Y-100591361D01*
X149448879Y-100549017D01*
X149447260Y-100510838D01*
X149445896Y-100477928D01*
X149444834Y-100451390D01*
X149444124Y-100432330D01*
X149443817Y-100421851D01*
X149443808Y-100420886D01*
X149443808Y-100405815D01*
X149320379Y-100407180D01*
X149196951Y-100408546D01*
X149046233Y-100718139D01*
X148895514Y-101027731D01*
X148894200Y-100716864D01*
X148892886Y-100405996D01*
X148765415Y-100405996D01*
X148637944Y-100405996D01*
X147377354Y-100405996D01*
X147440035Y-100106813D01*
X147677535Y-100106813D01*
X147682292Y-100107424D01*
X147696651Y-100107992D01*
X147720009Y-100108518D01*
X147751768Y-100109002D01*
X147791328Y-100109444D01*
X147838087Y-100109845D01*
X147891446Y-100110205D01*
X147950804Y-100110525D01*
X148015562Y-100110804D01*
X148085120Y-100111043D01*
X148158876Y-100111243D01*
X148236232Y-100111404D01*
X148316587Y-100111525D01*
X148399340Y-100111608D01*
X148483892Y-100111653D01*
X148569643Y-100111659D01*
X148655992Y-100111628D01*
X148742339Y-100111560D01*
X148828084Y-100111455D01*
X148912627Y-100111313D01*
X148995367Y-100111135D01*
X149075705Y-100110921D01*
X149153041Y-100110672D01*
X149226774Y-100110387D01*
X149296304Y-100110067D01*
X149361031Y-100109712D01*
X149420355Y-100109324D01*
X149473676Y-100108901D01*
X149520393Y-100108445D01*
X149559906Y-100107955D01*
X149591616Y-100107433D01*
X149614922Y-100106877D01*
X149629224Y-100106290D01*
X149633906Y-100105729D01*
X149637637Y-100098015D01*
X149640774Y-100085195D01*
X149640954Y-100084078D01*
X149643168Y-100071442D01*
X149646865Y-100052116D01*
X149651407Y-100029392D01*
X149653675Y-100018366D01*
X149657078Y-100001925D01*
X149662218Y-99977019D01*
X149668781Y-99945174D01*
X149676451Y-99907918D01*
X149684915Y-99866777D01*
X149693858Y-99823277D01*
X149701456Y-99786297D01*
X149711530Y-99737306D01*
X149722244Y-99685289D01*
X149733108Y-99632620D01*
X149743633Y-99581669D01*
X149753329Y-99534808D01*
X149761707Y-99494410D01*
X149765175Y-99477723D01*
X149774373Y-99433424D01*
X149784751Y-99383281D01*
X149795520Y-99331116D01*
X149805891Y-99280751D01*
X149815075Y-99236007D01*
X149816233Y-99230353D01*
X149824341Y-99190847D01*
X149832842Y-99149623D01*
X149841176Y-99109374D01*
X149848786Y-99072793D01*
X149855113Y-99042571D01*
X149856923Y-99033988D01*
X149862621Y-99006895D01*
X149869819Y-98972440D01*
X149877972Y-98933253D01*
X149886532Y-98891965D01*
X149894952Y-98851208D01*
X149898276Y-98835072D01*
X149907415Y-98790754D01*
X149917790Y-98740589D01*
X149928607Y-98688402D01*
X149939074Y-98638022D01*
X149948396Y-98593274D01*
X149949559Y-98587703D01*
X149956934Y-98552309D01*
X149963846Y-98518986D01*
X149969942Y-98489441D01*
X149974870Y-98465383D01*
X149978280Y-98448519D01*
X149979493Y-98442341D01*
X149981540Y-98431996D01*
X149985379Y-98412991D01*
X149990738Y-98386659D01*
X149997345Y-98354330D01*
X150004929Y-98317335D01*
X150013216Y-98277007D01*
X150020131Y-98243426D01*
X150029705Y-98196968D01*
X150039607Y-98148896D01*
X150049400Y-98101334D01*
X150058647Y-98056410D01*
X150066909Y-98016247D01*
X150073749Y-97982970D01*
X150076300Y-97970554D01*
X150084353Y-97931444D01*
X150093623Y-97886613D01*
X150103224Y-97840323D01*
X150112275Y-97796836D01*
X150117005Y-97774189D01*
X150124956Y-97736089D01*
X150134165Y-97691813D01*
X150143840Y-97645176D01*
X150153188Y-97599997D01*
X150160393Y-97565072D01*
X150168805Y-97524231D01*
X150177863Y-97480273D01*
X150187299Y-97434493D01*
X150196846Y-97388187D01*
X150206238Y-97342649D01*
X150215206Y-97299174D01*
X150223484Y-97259057D01*
X150230806Y-97223593D01*
X150236902Y-97194078D01*
X150241507Y-97171805D01*
X150244354Y-97158070D01*
X150244568Y-97157040D01*
X150246864Y-97145982D01*
X150250901Y-97126507D01*
X150256354Y-97100187D01*
X150262896Y-97068595D01*
X150270203Y-97033303D01*
X150277846Y-96996378D01*
X150287444Y-96950016D01*
X150298301Y-96897604D01*
X150309660Y-96842792D01*
X150320764Y-96789229D01*
X150330857Y-96740565D01*
X150334397Y-96723506D01*
X150343245Y-96680807D01*
X150352693Y-96635094D01*
X150362153Y-96589227D01*
X150371034Y-96546069D01*
X150378746Y-96508483D01*
X150382232Y-96491438D01*
X150414002Y-96336492D01*
X150446541Y-96179059D01*
X150465908Y-96085956D01*
X150475029Y-96042226D01*
X150482339Y-96007197D01*
X150488109Y-95979583D01*
X150492612Y-95958097D01*
X150496118Y-95941454D01*
X150498901Y-95928370D01*
X150501231Y-95917557D01*
X150503380Y-95907730D01*
X150505620Y-95897604D01*
X150507400Y-95889590D01*
X150511815Y-95869249D01*
X150515645Y-95850765D01*
X150517981Y-95838586D01*
X150519790Y-95829067D01*
X150523445Y-95810633D01*
X150528726Y-95784360D01*
X150535413Y-95751321D01*
X150543285Y-95712592D01*
X150552123Y-95669248D01*
X150561707Y-95622364D01*
X150571817Y-95573014D01*
X150582232Y-95522273D01*
X150592734Y-95471217D01*
X150603101Y-95420919D01*
X150613114Y-95372455D01*
X150622553Y-95326900D01*
X150631197Y-95285328D01*
X150632289Y-95280092D01*
X150637927Y-95253003D01*
X150645079Y-95218552D01*
X150653200Y-95179371D01*
X150661745Y-95138088D01*
X150670169Y-95097335D01*
X150673506Y-95081177D01*
X150682603Y-95037126D01*
X150692866Y-94987471D01*
X150703519Y-94935965D01*
X150713784Y-94886362D01*
X150722886Y-94842416D01*
X150724142Y-94836358D01*
X150731541Y-94800634D01*
X150740498Y-94757344D01*
X150750514Y-94708909D01*
X150761086Y-94657753D01*
X150771715Y-94606299D01*
X150781898Y-94556970D01*
X150785290Y-94540534D01*
X150794558Y-94495688D01*
X150803894Y-94450651D01*
X150812917Y-94407250D01*
X150821247Y-94367309D01*
X150828504Y-94332655D01*
X150834306Y-94305113D01*
X150836845Y-94293165D01*
X150842812Y-94264982D01*
X150848417Y-94238069D01*
X150853105Y-94215126D01*
X150856318Y-94198857D01*
X150856773Y-94196437D01*
X150860792Y-94175378D01*
X150865386Y-94152259D01*
X150867047Y-94144158D01*
X150872643Y-94117201D01*
X151039765Y-94117201D01*
X151089480Y-94117322D01*
X151144279Y-94117663D01*
X151201092Y-94118191D01*
X151256846Y-94118873D01*
X151308468Y-94119676D01*
X151351904Y-94120545D01*
X151496922Y-94123889D01*
X151464611Y-94282483D01*
X151454962Y-94329792D01*
X151443878Y-94384037D01*
X151431987Y-94442161D01*
X151419913Y-94501109D01*
X151408282Y-94557826D01*
X151397720Y-94609255D01*
X151396644Y-94614490D01*
X151387904Y-94657091D01*
X151379513Y-94698181D01*
X151371773Y-94736267D01*
X151364985Y-94769854D01*
X151359452Y-94797448D01*
X151355476Y-94817557D01*
X151353822Y-94826157D01*
X151351016Y-94840652D01*
X151346465Y-94863573D01*
X151340485Y-94893355D01*
X151333392Y-94928433D01*
X151325501Y-94967242D01*
X151317128Y-95008217D01*
X151313149Y-95027623D01*
X151303637Y-95073999D01*
X151293538Y-95123331D01*
X151283367Y-95173085D01*
X151273642Y-95220730D01*
X151264881Y-95263733D01*
X151257600Y-95299563D01*
X151256894Y-95303044D01*
X151249084Y-95341416D01*
X151239840Y-95386579D01*
X151229817Y-95435343D01*
X151219673Y-95484514D01*
X151210064Y-95530902D01*
X151206007Y-95550414D01*
X151198444Y-95586840D01*
X151191487Y-95620545D01*
X151185433Y-95650072D01*
X151180581Y-95673960D01*
X151177228Y-95690751D01*
X151175684Y-95698910D01*
X151175068Y-95702379D01*
X151173933Y-95708337D01*
X151172182Y-95717271D01*
X151169715Y-95729667D01*
X151166433Y-95746011D01*
X151162237Y-95766788D01*
X151157029Y-95792485D01*
X151150709Y-95823587D01*
X151143180Y-95860580D01*
X151134341Y-95903951D01*
X151124095Y-95954185D01*
X151112341Y-96011768D01*
X151098982Y-96077186D01*
X151083919Y-96150925D01*
X151067052Y-96233471D01*
X151048283Y-96325310D01*
X151039347Y-96369028D01*
X151028683Y-96421231D01*
X151018543Y-96470937D01*
X151009126Y-96517152D01*
X151000635Y-96558886D01*
X150993272Y-96595146D01*
X150987237Y-96624939D01*
X150982733Y-96647274D01*
X150979962Y-96661157D01*
X150979245Y-96664851D01*
X150974381Y-96690394D01*
X150968149Y-96722300D01*
X150960771Y-96759492D01*
X150952469Y-96800894D01*
X150943466Y-96845430D01*
X150933984Y-96892023D01*
X150924246Y-96939597D01*
X150914473Y-96987075D01*
X150904888Y-97033381D01*
X150895713Y-97077439D01*
X150887171Y-97118173D01*
X150879484Y-97154505D01*
X150872873Y-97185360D01*
X150867563Y-97209661D01*
X150863773Y-97226332D01*
X150861728Y-97234296D01*
X150861547Y-97234752D01*
X150857506Y-97247120D01*
X150856619Y-97255502D01*
X150855615Y-97263067D01*
X150852757Y-97279436D01*
X150848273Y-97303428D01*
X150842391Y-97333859D01*
X150835341Y-97369550D01*
X150827350Y-97409317D01*
X150818649Y-97451979D01*
X150817871Y-97455762D01*
X150809046Y-97498674D01*
X150800792Y-97538829D01*
X150793354Y-97575037D01*
X150786975Y-97606109D01*
X150781899Y-97630854D01*
X150778372Y-97648084D01*
X150776638Y-97656607D01*
X150776583Y-97656880D01*
X150774619Y-97666770D01*
X150771168Y-97684183D01*
X150766721Y-97706633D01*
X150761930Y-97730835D01*
X150758464Y-97748192D01*
X150753212Y-97774272D01*
X150746433Y-97807805D01*
X150738384Y-97847520D01*
X150729323Y-97892146D01*
X150719508Y-97940413D01*
X150709196Y-97991051D01*
X150698646Y-98042787D01*
X150698294Y-98044510D01*
X150689210Y-98089040D01*
X150678678Y-98140693D01*
X150666863Y-98198658D01*
X150653931Y-98262123D01*
X150640047Y-98330277D01*
X150625376Y-98402308D01*
X150610083Y-98477404D01*
X150594334Y-98554754D01*
X150578293Y-98633547D01*
X150562126Y-98712971D01*
X150545997Y-98792215D01*
X150530072Y-98870466D01*
X150514517Y-98946914D01*
X150499496Y-99020746D01*
X150485174Y-99091152D01*
X150471717Y-99157320D01*
X150459290Y-99218438D01*
X150448057Y-99273695D01*
X150438185Y-99322279D01*
X150429838Y-99363379D01*
X150423181Y-99396184D01*
X150418380Y-99419880D01*
X150418028Y-99421619D01*
X150415987Y-99431609D01*
X150412133Y-99450370D01*
X150406718Y-99476683D01*
X150399993Y-99509329D01*
X150392208Y-99547090D01*
X150383616Y-99588746D01*
X150374467Y-99633078D01*
X150371791Y-99646036D01*
X150362633Y-99690409D01*
X150354047Y-99732029D01*
X150346270Y-99769750D01*
X150339538Y-99802430D01*
X150334086Y-99828925D01*
X150330149Y-99848092D01*
X150327964Y-99858787D01*
X150327669Y-99860253D01*
X150325950Y-99868860D01*
X150322551Y-99885829D01*
X150317802Y-99909519D01*
X150312031Y-99938291D01*
X150305566Y-99970504D01*
X150302707Y-99984745D01*
X150296198Y-100017464D01*
X150290430Y-100047019D01*
X150285695Y-100071877D01*
X150282282Y-100090504D01*
X150280481Y-100101368D01*
X150280273Y-100103329D01*
X150281751Y-100104761D01*
X150286636Y-100105987D01*
X150295608Y-100107022D01*
X150309344Y-100107880D01*
X150328525Y-100108576D01*
X150353828Y-100109125D01*
X150385933Y-100109541D01*
X150425518Y-100109839D01*
X150473262Y-100110034D01*
X150529844Y-100110140D01*
X150595942Y-100110173D01*
X150596498Y-100110173D01*
X150652252Y-100110142D01*
X150704872Y-100110052D01*
X150753491Y-100109909D01*
X150797241Y-100109718D01*
X150835255Y-100109484D01*
X150866666Y-100109214D01*
X150890608Y-100108913D01*
X150906212Y-100108585D01*
X150912611Y-100108237D01*
X150912723Y-100108184D01*
X150913705Y-100102670D01*
X150916350Y-100089393D01*
X150920214Y-100070569D01*
X150923271Y-100055905D01*
X150926122Y-100042222D01*
X150930699Y-100020133D01*
X150936721Y-99991010D01*
X150943905Y-99956225D01*
X150951968Y-99917151D01*
X150960627Y-99875160D01*
X150969600Y-99831624D01*
X150978603Y-99787915D01*
X150987355Y-99745406D01*
X150995573Y-99705468D01*
X151002973Y-99669475D01*
X151009273Y-99638798D01*
X151014190Y-99614810D01*
X151017443Y-99598882D01*
X151018223Y-99595032D01*
X151020313Y-99584525D01*
X151023774Y-99566985D01*
X151028019Y-99545390D01*
X151030287Y-99533827D01*
X151033163Y-99519382D01*
X151037854Y-99496099D01*
X151044127Y-99465135D01*
X151051745Y-99427645D01*
X151060473Y-99384784D01*
X151070078Y-99337708D01*
X151080322Y-99287572D01*
X151090971Y-99235531D01*
X151094122Y-99220153D01*
X151104613Y-99168918D01*
X151114582Y-99120175D01*
X151123822Y-99074939D01*
X151132127Y-99034224D01*
X151139290Y-98999044D01*
X151145104Y-98970415D01*
X151149362Y-98949350D01*
X151151858Y-98936865D01*
X151152312Y-98934530D01*
X151154614Y-98922743D01*
X151158737Y-98902088D01*
X151164452Y-98873688D01*
X151171530Y-98838667D01*
X151179742Y-98798150D01*
X151188860Y-98753261D01*
X151198655Y-98705125D01*
X151208899Y-98654864D01*
X151219364Y-98603605D01*
X151229820Y-98552470D01*
X151240040Y-98502584D01*
X151249265Y-98457643D01*
X151258768Y-98411309D01*
X151269144Y-98360552D01*
X151279776Y-98308400D01*
X151290048Y-98257884D01*
X151299342Y-98212031D01*
X151305361Y-98182221D01*
X151319327Y-98113025D01*
X151334877Y-98036234D01*
X151352095Y-97951432D01*
X151371066Y-97858203D01*
X151391874Y-97756131D01*
X151414605Y-97644799D01*
X151432986Y-97554872D01*
X151442994Y-97505908D01*
X151453232Y-97455770D01*
X151463320Y-97406333D01*
X151472874Y-97359468D01*
X151481514Y-97317049D01*
X151488857Y-97280949D01*
X151494339Y-97253948D01*
X151500080Y-97225693D01*
X151507494Y-97189319D01*
X151516198Y-97146699D01*
X151525809Y-97099706D01*
X151535944Y-97050212D01*
X151546220Y-97000090D01*
X151555882Y-96953024D01*
X151565067Y-96908274D01*
X151573737Y-96865961D01*
X151581647Y-96827285D01*
X151588552Y-96793445D01*
X151594208Y-96765642D01*
X151598369Y-96745076D01*
X151600791Y-96732948D01*
X151601138Y-96731157D01*
X151603588Y-96718618D01*
X151607883Y-96697071D01*
X151613823Y-96667502D01*
X151621208Y-96630896D01*
X151629838Y-96588239D01*
X151639512Y-96540517D01*
X151650032Y-96488715D01*
X151661196Y-96433820D01*
X151672805Y-96376816D01*
X151684659Y-96318690D01*
X151696558Y-96260427D01*
X151708250Y-96203265D01*
X151719447Y-96148432D01*
X151731879Y-96087320D01*
X151744953Y-96022859D01*
X151758075Y-95957978D01*
X151770654Y-95895607D01*
X151782096Y-95838674D01*
X151787731Y-95810534D01*
X151796426Y-95767450D01*
X151804685Y-95727298D01*
X151812260Y-95691228D01*
X151818902Y-95660393D01*
X151824363Y-95635945D01*
X151828393Y-95619035D01*
X151830745Y-95610816D01*
X151830933Y-95610413D01*
X151835007Y-95598035D01*
X151835896Y-95589699D01*
X151836898Y-95582143D01*
X151839753Y-95565781D01*
X151844232Y-95541796D01*
X151850107Y-95511369D01*
X151857150Y-95475682D01*
X151865131Y-95435915D01*
X151873823Y-95393251D01*
X151874606Y-95389439D01*
X151884886Y-95339405D01*
X151893345Y-95298231D01*
X151900214Y-95264784D01*
X151905723Y-95237931D01*
X151910102Y-95216541D01*
X151913582Y-95199479D01*
X151916393Y-95185614D01*
X151918767Y-95173813D01*
X151920932Y-95162944D01*
X151923121Y-95151873D01*
X151925564Y-95139469D01*
X151928002Y-95127080D01*
X151930881Y-95112633D01*
X151935568Y-95089347D01*
X151941827Y-95058378D01*
X151949423Y-95020881D01*
X151958123Y-94978014D01*
X151967692Y-94930931D01*
X151977896Y-94880788D01*
X151988499Y-94828742D01*
X151991626Y-94813406D01*
X152003749Y-94753957D01*
X152016732Y-94690291D01*
X152030143Y-94624521D01*
X152043553Y-94558758D01*
X152056530Y-94495117D01*
X152068643Y-94435709D01*
X152079461Y-94382648D01*
X152086267Y-94349269D01*
X152095277Y-94305102D01*
X152103746Y-94263639D01*
X152111437Y-94226041D01*
X152118110Y-94193472D01*
X152123527Y-94167094D01*
X152127451Y-94148070D01*
X152129642Y-94137561D01*
X152129908Y-94136327D01*
X152132994Y-94122301D01*
X152335098Y-94122314D01*
X152385260Y-94122409D01*
X152437128Y-94122672D01*
X152488671Y-94123083D01*
X152537855Y-94123619D01*
X152582647Y-94124259D01*
X152621014Y-94124982D01*
X152647247Y-94125650D01*
X152757292Y-94128973D01*
X152747548Y-94172816D01*
X152742426Y-94196606D01*
X152737633Y-94220139D01*
X152734053Y-94239052D01*
X152733515Y-94242161D01*
X152731497Y-94253090D01*
X152727694Y-94272669D01*
X152722374Y-94299556D01*
X152715805Y-94332408D01*
X152708255Y-94369883D01*
X152699993Y-94410639D01*
X152692750Y-94446177D01*
X152684196Y-94488095D01*
X152676203Y-94527372D01*
X152669025Y-94562757D01*
X152662912Y-94592999D01*
X152658120Y-94616849D01*
X152654900Y-94633054D01*
X152653568Y-94639992D01*
X152651965Y-94648358D01*
X152648579Y-94665512D01*
X152643653Y-94690243D01*
X152637429Y-94721342D01*
X152630149Y-94757598D01*
X152622055Y-94797801D01*
X152613389Y-94840741D01*
X152612729Y-94844008D01*
X152603795Y-94888305D01*
X152595218Y-94930993D01*
X152587278Y-94970670D01*
X152580253Y-95005931D01*
X152574424Y-95035373D01*
X152570070Y-95057593D01*
X152567510Y-95070976D01*
X152564367Y-95087401D01*
X152559577Y-95111728D01*
X152553559Y-95141869D01*
X152546731Y-95175736D01*
X152539509Y-95211242D01*
X152536901Y-95223988D01*
X152529655Y-95259514D01*
X152522667Y-95294097D01*
X152516351Y-95325662D01*
X152511122Y-95352138D01*
X152507393Y-95371449D01*
X152506491Y-95376284D01*
X152502178Y-95398861D01*
X152497637Y-95421178D01*
X152494059Y-95437489D01*
X152491818Y-95447793D01*
X152487852Y-95466833D01*
X152482418Y-95493341D01*
X152475773Y-95526047D01*
X152468176Y-95563681D01*
X152459885Y-95604975D01*
X152451157Y-95648659D01*
X152450407Y-95652422D01*
X152437882Y-95715249D01*
X152424362Y-95783001D01*
X152409968Y-95855070D01*
X152394823Y-95930845D01*
X152379049Y-96009718D01*
X152362769Y-96091080D01*
X152346104Y-96174321D01*
X152329177Y-96258832D01*
X152312110Y-96344005D01*
X152295026Y-96429228D01*
X152278046Y-96513895D01*
X152261294Y-96597395D01*
X152244891Y-96679119D01*
X152228960Y-96758457D01*
X152213623Y-96834802D01*
X152199001Y-96907543D01*
X152185219Y-96976071D01*
X152172397Y-97039778D01*
X152160659Y-97098053D01*
X152150125Y-97150288D01*
X152140920Y-97195874D01*
X152133164Y-97234201D01*
X152126981Y-97264660D01*
X152122492Y-97286642D01*
X152119820Y-97299538D01*
X152119201Y-97302402D01*
X152114072Y-97325894D01*
X152108849Y-97351513D01*
X152106536Y-97363607D01*
X152104145Y-97376066D01*
X152100015Y-97397057D01*
X152094439Y-97425112D01*
X152087709Y-97458767D01*
X152080118Y-97496555D01*
X152071959Y-97537011D01*
X152067315Y-97559972D01*
X152059161Y-97600251D01*
X152051571Y-97637768D01*
X152044806Y-97671239D01*
X152039124Y-97699378D01*
X152034786Y-97720902D01*
X152032049Y-97734526D01*
X152031262Y-97738486D01*
X152029725Y-97746240D01*
X152026419Y-97762815D01*
X152021581Y-97787030D01*
X152015447Y-97817704D01*
X152008253Y-97853657D01*
X152000236Y-97893706D01*
X151991632Y-97936672D01*
X151990464Y-97942502D01*
X151981722Y-97986153D01*
X151973471Y-98027378D01*
X151965959Y-98064935D01*
X151959434Y-98097583D01*
X151954144Y-98124078D01*
X151950338Y-98143180D01*
X151948263Y-98153646D01*
X151948160Y-98154169D01*
X151931466Y-98239158D01*
X151916071Y-98316689D01*
X151901462Y-98389343D01*
X151892138Y-98435198D01*
X151888700Y-98452128D01*
X151883390Y-98478404D01*
X151876339Y-98513370D01*
X151867679Y-98556370D01*
X151857543Y-98606749D01*
X151846062Y-98663850D01*
X151833368Y-98727017D01*
X151819592Y-98795595D01*
X151804866Y-98868928D01*
X151789323Y-98946360D01*
X151773094Y-99027234D01*
X151756310Y-99110895D01*
X151739104Y-99196688D01*
X151723151Y-99276257D01*
X151705898Y-99362307D01*
X151689085Y-99446133D01*
X151672834Y-99527138D01*
X151657263Y-99604725D01*
X151642493Y-99678298D01*
X151628643Y-99747260D01*
X151615833Y-99811014D01*
X151604185Y-99868962D01*
X151593816Y-99920509D01*
X151584848Y-99965057D01*
X151577400Y-100002009D01*
X151571593Y-100030769D01*
X151567545Y-100050740D01*
X151565378Y-100061325D01*
X151565341Y-100061503D01*
X151561317Y-100081686D01*
X151558496Y-100097679D01*
X151557267Y-100107177D01*
X151557374Y-100108772D01*
X151562777Y-100109162D01*
X151577720Y-100109504D01*
X151601541Y-100109800D01*
X151633580Y-100110052D01*
X151673175Y-100110261D01*
X151719666Y-100110429D01*
X151772391Y-100110557D01*
X151830689Y-100110646D01*
X151893899Y-100110698D01*
X151961360Y-100110713D01*
X152032411Y-100110695D01*
X152106391Y-100110643D01*
X152182638Y-100110560D01*
X152260493Y-100110447D01*
X152339293Y-100110305D01*
X152418377Y-100110135D01*
X152497085Y-100109939D01*
X152574756Y-100109719D01*
X152650728Y-100109476D01*
X152724340Y-100109210D01*
X152794931Y-100108925D01*
X152861840Y-100108620D01*
X152924407Y-100108297D01*
X152981969Y-100107959D01*
X153033867Y-100107605D01*
X153079438Y-100107239D01*
X153118022Y-100106860D01*
X153148957Y-100106470D01*
X153171583Y-100106072D01*
X153185239Y-100105665D01*
X153189305Y-100105310D01*
X153188841Y-100100942D01*
X153179314Y-100097338D01*
X153138474Y-100086651D01*
X153091878Y-100071383D01*
X153041923Y-100052567D01*
X152991007Y-100031233D01*
X152941528Y-100008415D01*
X152895883Y-99985144D01*
X152856471Y-99962453D01*
X152838125Y-99950459D01*
X152819659Y-99936808D01*
X152797919Y-99919359D01*
X152774164Y-99899274D01*
X152749651Y-99877717D01*
X152725639Y-99855851D01*
X152703388Y-99834840D01*
X152684154Y-99815846D01*
X152669198Y-99800033D01*
X152659777Y-99788565D01*
X152657061Y-99783099D01*
X152653849Y-99776890D01*
X152649198Y-99771512D01*
X152639091Y-99759410D01*
X152625452Y-99740283D01*
X152609523Y-99716125D01*
X152592545Y-99688926D01*
X152575760Y-99660679D01*
X152560408Y-99633374D01*
X152547733Y-99609004D01*
X152547135Y-99607783D01*
X152532304Y-99576083D01*
X152518603Y-99544423D01*
X152506715Y-99514604D01*
X152497322Y-99488425D01*
X152491107Y-99467686D01*
X152488752Y-99454188D01*
X152488747Y-99453795D01*
X152487191Y-99444683D01*
X152484523Y-99442020D01*
X152481003Y-99437212D01*
X152476346Y-99423756D01*
X152470846Y-99403104D01*
X152464793Y-99376709D01*
X152458480Y-99346023D01*
X152452199Y-99312498D01*
X152446241Y-99277586D01*
X152440900Y-99242740D01*
X152436467Y-99209413D01*
X152434776Y-99194651D01*
X152431659Y-99161369D01*
X152429610Y-99128187D01*
X152428563Y-99092609D01*
X152428446Y-99052137D01*
X152429190Y-99004274D01*
X152429326Y-98998285D01*
X152430089Y-98965290D01*
X152430832Y-98936933D01*
X152431719Y-98912014D01*
X152432913Y-98889334D01*
X152434578Y-98867694D01*
X152436878Y-98845895D01*
X152439977Y-98822737D01*
X152444039Y-98797020D01*
X152449227Y-98767547D01*
X152455706Y-98733118D01*
X152463638Y-98692532D01*
X152473189Y-98644592D01*
X152484521Y-98588098D01*
X152487160Y-98574952D01*
X152496493Y-98528403D01*
X152505831Y-98481773D01*
X152514831Y-98436778D01*
X152523150Y-98395137D01*
X152530443Y-98358567D01*
X152536369Y-98328786D01*
X152540145Y-98309731D01*
X152546383Y-98278247D01*
X152552934Y-98245344D01*
X152559069Y-98214675D01*
X152564058Y-98189893D01*
X152564579Y-98187321D01*
X152567836Y-98171190D01*
X152572796Y-98146520D01*
X152579167Y-98114777D01*
X152586655Y-98077425D01*
X152594966Y-98035931D01*
X152603806Y-97991758D01*
X152612882Y-97946372D01*
X152613146Y-97945052D01*
X152621931Y-97901240D01*
X152630261Y-97859969D01*
X152637885Y-97822451D01*
X152644555Y-97789899D01*
X152650024Y-97763524D01*
X152654041Y-97744540D01*
X152656360Y-97734158D01*
X152656554Y-97733386D01*
X152659945Y-97718634D01*
X152663949Y-97698704D01*
X152666914Y-97682382D01*
X152670789Y-97661314D01*
X152675951Y-97635206D01*
X152681425Y-97608966D01*
X152682648Y-97603325D01*
X152686987Y-97582863D01*
X152692679Y-97555106D01*
X152699175Y-97522785D01*
X152705925Y-97488627D01*
X152710897Y-97463064D01*
X152717164Y-97430841D01*
X152723291Y-97399806D01*
X152728818Y-97372248D01*
X152733287Y-97350457D01*
X152735927Y-97338104D01*
X152740851Y-97315349D01*
X152745863Y-97291158D01*
X152748189Y-97279450D01*
X152751655Y-97261800D01*
X152756368Y-97238101D01*
X152761541Y-97212302D01*
X152763944Y-97200394D01*
X152774014Y-97150583D01*
X152784337Y-97099450D01*
X152795128Y-97045942D01*
X152806597Y-96989003D01*
X152818957Y-96927580D01*
X152832421Y-96860619D01*
X152847199Y-96787065D01*
X152863504Y-96705865D01*
X152881548Y-96615964D01*
X152886067Y-96593446D01*
X152897679Y-96535594D01*
X152909280Y-96477826D01*
X152920993Y-96419537D01*
X152932940Y-96360121D01*
X152945242Y-96298974D01*
X152958023Y-96235489D01*
X152971403Y-96169062D01*
X152985504Y-96099089D01*
X153000450Y-96024962D01*
X153016362Y-95946078D01*
X153033361Y-95861832D01*
X153051571Y-95771617D01*
X153071112Y-95674829D01*
X153092108Y-95570863D01*
X153114680Y-95459114D01*
X153138949Y-95338975D01*
X153165039Y-95209843D01*
X153183308Y-95119430D01*
X153197326Y-95049999D01*
X153210896Y-94982682D01*
X153223865Y-94918246D01*
X153236077Y-94857459D01*
X153247381Y-94801089D01*
X153257622Y-94749906D01*
X153266647Y-94704676D01*
X153274301Y-94666168D01*
X153280432Y-94635151D01*
X153284885Y-94612392D01*
X153287508Y-94598660D01*
X153287875Y-94596639D01*
X153291879Y-94576398D01*
X153295900Y-94559954D01*
X153299259Y-94549961D01*
X153300189Y-94548440D01*
X153303483Y-94540243D01*
X153304812Y-94527795D01*
X153305866Y-94516655D01*
X153308734Y-94498186D01*
X153312970Y-94475005D01*
X153317850Y-94451034D01*
X153324238Y-94420639D01*
X153331025Y-94387491D01*
X153337242Y-94356359D01*
X153340593Y-94339068D01*
X153345148Y-94315453D01*
X153350657Y-94287397D01*
X153356682Y-94257072D01*
X153362787Y-94226648D01*
X153368533Y-94198298D01*
X153373485Y-94174193D01*
X153377204Y-94156505D01*
X153378764Y-94149435D01*
X153384383Y-94136677D01*
X153389030Y-94130619D01*
X153391096Y-94126461D01*
X153394137Y-94116940D01*
X153398240Y-94101665D01*
X153403489Y-94080245D01*
X153409970Y-94052290D01*
X153417768Y-94017408D01*
X153426969Y-93975208D01*
X153437657Y-93925300D01*
X153449918Y-93867293D01*
X153463838Y-93800795D01*
X153479501Y-93725417D01*
X153496993Y-93640767D01*
X153513882Y-93558707D01*
X153521260Y-93522871D01*
X153529052Y-93485127D01*
X153536598Y-93448669D01*
X153543238Y-93416687D01*
X153547125Y-93398044D01*
X153558699Y-93342651D01*
X153570046Y-93288279D01*
X153581421Y-93233696D01*
X153593080Y-93177672D01*
X153605280Y-93118974D01*
X153618275Y-93056373D01*
X153632322Y-92988635D01*
X153647676Y-92914530D01*
X153664593Y-92832827D01*
X153682201Y-92747743D01*
X153694670Y-92687495D01*
X153706894Y-92628457D01*
X153718659Y-92571666D01*
X153729747Y-92518160D01*
X153739946Y-92468978D01*
X153749038Y-92425157D01*
X153756809Y-92387736D01*
X153763044Y-92357753D01*
X153767527Y-92336246D01*
X153768936Y-92329510D01*
X153782385Y-92265239D01*
X153795379Y-92202888D01*
X153807761Y-92143236D01*
X153819372Y-92087058D01*
X153830052Y-92035132D01*
X153839644Y-91988235D01*
X153847988Y-91947145D01*
X153854926Y-91912639D01*
X153860298Y-91885494D01*
X153863946Y-91866488D01*
X153865712Y-91856396D01*
X153865856Y-91855074D01*
X153865016Y-91854349D01*
X153862283Y-91853673D01*
X153857333Y-91853045D01*
X153849844Y-91852462D01*
X153839492Y-91851924D01*
X153825955Y-91851429D01*
X153808910Y-91850977D01*
X153788034Y-91850566D01*
X153763005Y-91850194D01*
X153733499Y-91849861D01*
X153699194Y-91849564D01*
X153659768Y-91849304D01*
X153614896Y-91849078D01*
X153564257Y-91848885D01*
X153507527Y-91848724D01*
X153444384Y-91848594D01*
X153374505Y-91848493D01*
X153297567Y-91848421D01*
X153213248Y-91848375D01*
X153121224Y-91848355D01*
X153021173Y-91848359D01*
X152912771Y-91848386D01*
X152795697Y-91848435D01*
X152669627Y-91848505D01*
X152534239Y-91848594D01*
X152389209Y-91848700D01*
X152276572Y-91848789D01*
X150687289Y-91850072D01*
X150667198Y-91903627D01*
X150622429Y-92008600D01*
X150568842Y-92108628D01*
X150506722Y-92203369D01*
X150436354Y-92292482D01*
X150358023Y-92375626D01*
X150272013Y-92452459D01*
X150178610Y-92522641D01*
X150117061Y-92562695D01*
X150005390Y-92625516D01*
X149888278Y-92679947D01*
X149765588Y-92726033D01*
X149637186Y-92763820D01*
X149502936Y-92793352D01*
X149366046Y-92814271D01*
X149350527Y-92817098D01*
X149342473Y-92821633D01*
X149339344Y-92828384D01*
X149338101Y-92834835D01*
X149335145Y-92850648D01*
X149330600Y-92875152D01*
X149324589Y-92907675D01*
X149317236Y-92947546D01*
X149308665Y-92994092D01*
X149298999Y-93046642D01*
X149288362Y-93104524D01*
X149276877Y-93167066D01*
X149264668Y-93233598D01*
X149251859Y-93303446D01*
X149239663Y-93369992D01*
X149225992Y-93444574D01*
X149212517Y-93518010D01*
X149199393Y-93589470D01*
X149186773Y-93658121D01*
X149174809Y-93723132D01*
X149163656Y-93783672D01*
X149153466Y-93838908D01*
X149144392Y-93888009D01*
X149136589Y-93930144D01*
X149130209Y-93964480D01*
X149125405Y-93990187D01*
X149123093Y-94002442D01*
X149117327Y-94033472D01*
X149112444Y-94061078D01*
X149108700Y-94083701D01*
X149106350Y-94099780D01*
X149105651Y-94107758D01*
X149105746Y-94108275D01*
X149111086Y-94109003D01*
X149125681Y-94109685D01*
X149148585Y-94110309D01*
X149178853Y-94110861D01*
X149215539Y-94111329D01*
X149257698Y-94111698D01*
X149304383Y-94111956D01*
X149354649Y-94112090D01*
X149379079Y-94112106D01*
X149443133Y-94112185D01*
X149514250Y-94112409D01*
X149589776Y-94112760D01*
X149667058Y-94113222D01*
X149743442Y-94113779D01*
X149816274Y-94114413D01*
X149882901Y-94115109D01*
X149913396Y-94115478D01*
X150176419Y-94118845D01*
X150156723Y-94213655D01*
X150149074Y-94250408D01*
X150140758Y-94290266D01*
X150132532Y-94329595D01*
X150125158Y-94364760D01*
X150121443Y-94382422D01*
X150109802Y-94437703D01*
X150099302Y-94487638D01*
X150090123Y-94531371D01*
X150082445Y-94568042D01*
X150076446Y-94596794D01*
X150072308Y-94616769D01*
X150071207Y-94622141D01*
X150068366Y-94635614D01*
X150063859Y-94656443D01*
X150058252Y-94682030D01*
X150052113Y-94709778D01*
X150050617Y-94716498D01*
X150043220Y-94749778D01*
X150037488Y-94775874D01*
X150032839Y-94797551D01*
X150028694Y-94817575D01*
X150024470Y-94838711D01*
X150019586Y-94863727D01*
X150018465Y-94869510D01*
X150014648Y-94888720D01*
X150009266Y-94915125D01*
X150002892Y-94945945D01*
X149996101Y-94978403D01*
X149992167Y-94997020D01*
X149984629Y-95032556D01*
X149975823Y-95074067D01*
X149966600Y-95117546D01*
X149957809Y-95158991D01*
X149953218Y-95180635D01*
X149945445Y-95217278D01*
X149937098Y-95256620D01*
X149928909Y-95295218D01*
X149921606Y-95329630D01*
X149917506Y-95348948D01*
X149911288Y-95378405D01*
X149905139Y-95407821D01*
X149899716Y-95434037D01*
X149895675Y-95453894D01*
X149895243Y-95456056D01*
X149892051Y-95471792D01*
X149887177Y-95495434D01*
X149881053Y-95524909D01*
X149874108Y-95558146D01*
X149866775Y-95593071D01*
X149864479Y-95603968D01*
X149855955Y-95644441D01*
X149846590Y-95688971D01*
X149837129Y-95734020D01*
X149828314Y-95776051D01*
X149821096Y-95810534D01*
X149813933Y-95844723D01*
X149806589Y-95879655D01*
X149799668Y-95912459D01*
X149793776Y-95940264D01*
X149790442Y-95955896D01*
X149784974Y-95981545D01*
X149778295Y-96013078D01*
X149771272Y-96046388D01*
X149765110Y-96075755D01*
X149756252Y-96118079D01*
X149749121Y-96152083D01*
X149743359Y-96179434D01*
X149738612Y-96201798D01*
X149734522Y-96220842D01*
X149730733Y-96238233D01*
X149726890Y-96255636D01*
X149722636Y-96274718D01*
X149721506Y-96279771D01*
X149715771Y-96305915D01*
X149710433Y-96331160D01*
X149706165Y-96352269D01*
X149703987Y-96363928D01*
X149700939Y-96380287D01*
X149696430Y-96402877D01*
X149691214Y-96427968D01*
X149688544Y-96440434D01*
X149682404Y-96469041D01*
X149675729Y-96500555D01*
X149669689Y-96529439D01*
X149668057Y-96537341D01*
X149661810Y-96567562D01*
X149654688Y-96601763D01*
X149647065Y-96638169D01*
X149639316Y-96675008D01*
X149631815Y-96710505D01*
X149624938Y-96742886D01*
X149619058Y-96770378D01*
X149614551Y-96791206D01*
X149612029Y-96802562D01*
X149609330Y-96814836D01*
X149604950Y-96835320D01*
X149599264Y-96862234D01*
X149592647Y-96893797D01*
X149585475Y-96928229D01*
X149581392Y-96947924D01*
X149572756Y-96989557D01*
X149563244Y-97035242D01*
X149553564Y-97081585D01*
X149544425Y-97125195D01*
X149536536Y-97162680D01*
X149535573Y-97167241D01*
X149527234Y-97206752D01*
X149517852Y-97251292D01*
X149508302Y-97296699D01*
X149499458Y-97338816D01*
X149494797Y-97361056D01*
X149486815Y-97399143D01*
X149477604Y-97443050D01*
X149468036Y-97488618D01*
X149458986Y-97531686D01*
X149454109Y-97554872D01*
X149447336Y-97587068D01*
X149440967Y-97617360D01*
X149435422Y-97643755D01*
X149431119Y-97664259D01*
X149428477Y-97676878D01*
X149428393Y-97677281D01*
X149425598Y-97690625D01*
X149421230Y-97711417D01*
X149415821Y-97737128D01*
X149409903Y-97765225D01*
X149408013Y-97774189D01*
X149402249Y-97801662D01*
X149397042Y-97826729D01*
X149392855Y-97847140D01*
X149390152Y-97860650D01*
X149389621Y-97863446D01*
X149386646Y-97877090D01*
X149383927Y-97886398D01*
X149380890Y-97897407D01*
X149379105Y-97906799D01*
X149377219Y-97917277D01*
X149373767Y-97934764D01*
X149369340Y-97956302D01*
X149366874Y-97968004D01*
X149355243Y-98022835D01*
X149344181Y-98075238D01*
X149333997Y-98123734D01*
X149325002Y-98166842D01*
X149317503Y-98203084D01*
X149311812Y-98230979D01*
X149311360Y-98233225D01*
X149305378Y-98262118D01*
X149298364Y-98294737D01*
X149291654Y-98324884D01*
X149290453Y-98330133D01*
X149284422Y-98356563D01*
X149279644Y-98378326D01*
X149275316Y-98399289D01*
X149270633Y-98423321D01*
X149266075Y-98447442D01*
X149263049Y-98462774D01*
X149258405Y-98485345D01*
X149252712Y-98512430D01*
X149246539Y-98541305D01*
X149244778Y-98549450D01*
X149238110Y-98580425D01*
X149230154Y-98617734D01*
X149221684Y-98657718D01*
X149213478Y-98696720D01*
X149209079Y-98717763D01*
X149201130Y-98755848D01*
X149191947Y-98799754D01*
X149182400Y-98845321D01*
X149173362Y-98888388D01*
X149168486Y-98911578D01*
X149161718Y-98943774D01*
X149155363Y-98974065D01*
X149149838Y-99000460D01*
X149145561Y-99020964D01*
X149142949Y-99033584D01*
X149142866Y-99033988D01*
X149135727Y-99064413D01*
X149127165Y-99090475D01*
X149115763Y-99116964D01*
X149107516Y-99134690D01*
X149097052Y-99157311D01*
X149086397Y-99180443D01*
X149084556Y-99184450D01*
X149076421Y-99201334D01*
X149065703Y-99222400D01*
X149053441Y-99245742D01*
X149040672Y-99269453D01*
X149028434Y-99291630D01*
X149017766Y-99310366D01*
X149009706Y-99323755D01*
X149005382Y-99329811D01*
X149001277Y-99335767D01*
X148995377Y-99346388D01*
X148989079Y-99356229D01*
X148983969Y-99360412D01*
X148983910Y-99360414D01*
X148979878Y-99364397D01*
X148979671Y-99366172D01*
X148976621Y-99374083D01*
X148968128Y-99388553D01*
X148955180Y-99408225D01*
X148938767Y-99431739D01*
X148919875Y-99457735D01*
X148899492Y-99484856D01*
X148878608Y-99511742D01*
X148858209Y-99537034D01*
X148839285Y-99559374D01*
X148838764Y-99559969D01*
X148813904Y-99587107D01*
X148783765Y-99618107D01*
X148750545Y-99650858D01*
X148716444Y-99683249D01*
X148683664Y-99713170D01*
X148654403Y-99738510D01*
X148642722Y-99748054D01*
X148618765Y-99766694D01*
X148593417Y-99785654D01*
X148568154Y-99803913D01*
X148544452Y-99820450D01*
X148523784Y-99834244D01*
X148507626Y-99844275D01*
X148497454Y-99849521D01*
X148495329Y-99850052D01*
X148490212Y-99853137D01*
X148490033Y-99854206D01*
X148485958Y-99858970D01*
X148475730Y-99865974D01*
X148470906Y-99868722D01*
X148453579Y-99878278D01*
X148434977Y-99888772D01*
X148431378Y-99890837D01*
X148395109Y-99910565D01*
X148352074Y-99932083D01*
X148305207Y-99954033D01*
X148257446Y-99975057D01*
X148211725Y-99993797D01*
X148194209Y-100000521D01*
X148161750Y-100011913D01*
X148123676Y-100024012D01*
X148082264Y-100036208D01*
X148039790Y-100047889D01*
X147998530Y-100058444D01*
X147960761Y-100067262D01*
X147928758Y-100073732D01*
X147911137Y-100076519D01*
X147897112Y-100078415D01*
X147876414Y-100081300D01*
X147852465Y-100084694D01*
X147839731Y-100086520D01*
X147810695Y-100090231D01*
X147777202Y-100093797D01*
X147744986Y-100096626D01*
X147734265Y-100097386D01*
X147708315Y-100099595D01*
X147689532Y-100102323D01*
X147679150Y-100105366D01*
X147677535Y-100106813D01*
X147440035Y-100106813D01*
X147487256Y-99881427D01*
X147699196Y-99879320D01*
X147755838Y-99878702D01*
X147803668Y-99877964D01*
X147844075Y-99876943D01*
X147878449Y-99875479D01*
X147908178Y-99873409D01*
X147934651Y-99870572D01*
X147959257Y-99866807D01*
X147983386Y-99861951D01*
X148008425Y-99855842D01*
X148035765Y-99848320D01*
X148066795Y-99839222D01*
X148081519Y-99834814D01*
X148190299Y-99796988D01*
X148293866Y-99750501D01*
X148391969Y-99695605D01*
X148484359Y-99632549D01*
X148570787Y-99561587D01*
X148651002Y-99482967D01*
X148724754Y-99396942D01*
X148791795Y-99303763D01*
X148851873Y-99203680D01*
X148904739Y-99096945D01*
X148950144Y-98983808D01*
X148961736Y-98950269D01*
X148969487Y-98926678D01*
X148976591Y-98904108D01*
X148983293Y-98881529D01*
X148989835Y-98857911D01*
X148996462Y-98832222D01*
X149003417Y-98803435D01*
X149010945Y-98770517D01*
X149019287Y-98732440D01*
X149028690Y-98688173D01*
X149039395Y-98636687D01*
X149051647Y-98576950D01*
X149061402Y-98529048D01*
X149071665Y-98478581D01*
X149083613Y-98419886D01*
X149096886Y-98354730D01*
X149111123Y-98284881D01*
X149125965Y-98212104D01*
X149141051Y-98138167D01*
X149156020Y-98064835D01*
X149170513Y-97993875D01*
X149183096Y-97932301D01*
X149205877Y-97820861D01*
X149229538Y-97705116D01*
X149253986Y-97585518D01*
X149279129Y-97462521D01*
X149304874Y-97336578D01*
X149331127Y-97208142D01*
X149357797Y-97077667D01*
X149384791Y-96945606D01*
X149412017Y-96812412D01*
X149439381Y-96678539D01*
X149466791Y-96544439D01*
X149494154Y-96410566D01*
X149521378Y-96277373D01*
X149548370Y-96145313D01*
X149575038Y-96014840D01*
X149601288Y-95886407D01*
X149627029Y-95760467D01*
X149652167Y-95637473D01*
X149676610Y-95517879D01*
X149700265Y-95402138D01*
X149723040Y-95290703D01*
X149744841Y-95184027D01*
X149765577Y-95082564D01*
X149785155Y-94986767D01*
X149803482Y-94897089D01*
X149820465Y-94813984D01*
X149836012Y-94737904D01*
X149850030Y-94669302D01*
X149862427Y-94608633D01*
X149873109Y-94556350D01*
X149881985Y-94512905D01*
X149888961Y-94478752D01*
X149891952Y-94464107D01*
X149898875Y-94429878D01*
X149904971Y-94399118D01*
X149909980Y-94373184D01*
X149913645Y-94353433D01*
X149915705Y-94341223D01*
X149916023Y-94337796D01*
X149910837Y-94337597D01*
X149896112Y-94337392D01*
X149872511Y-94337184D01*
X149840697Y-94336976D01*
X149801331Y-94336770D01*
X149755077Y-94336570D01*
X149702596Y-94336378D01*
X149644551Y-94336196D01*
X149581604Y-94336027D01*
X149514418Y-94335874D01*
X149443655Y-94335740D01*
X149369978Y-94335626D01*
X149368768Y-94335624D01*
X149281941Y-94335496D01*
X149204759Y-94335356D01*
X149136663Y-94335195D01*
X149077097Y-94335003D01*
X149025503Y-94334773D01*
X148981325Y-94334494D01*
X148944006Y-94334157D01*
X148912988Y-94333754D01*
X148887715Y-94333276D01*
X148867629Y-94332712D01*
X148852173Y-94332056D01*
X148840791Y-94331296D01*
X148832925Y-94330425D01*
X148828018Y-94329433D01*
X148825513Y-94328310D01*
X148824854Y-94327049D01*
X148824895Y-94326774D01*
X148826092Y-94320921D01*
X148829153Y-94305615D01*
X148833969Y-94281412D01*
X148840431Y-94248867D01*
X148848428Y-94208535D01*
X148857850Y-94160971D01*
X148868588Y-94106731D01*
X148880532Y-94046369D01*
X148893572Y-93980441D01*
X148907598Y-93909502D01*
X148922500Y-93834108D01*
X148938168Y-93754813D01*
X148954492Y-93672173D01*
X148971363Y-93586743D01*
X148974885Y-93568908D01*
X148992348Y-93480463D01*
X149009589Y-93393142D01*
X149026474Y-93307632D01*
X149042866Y-93224619D01*
X149058629Y-93144792D01*
X149073628Y-93068835D01*
X149087728Y-92997437D01*
X149100792Y-92931283D01*
X149112685Y-92871061D01*
X149123272Y-92817458D01*
X149132416Y-92771160D01*
X149139983Y-92732854D01*
X149145836Y-92703227D01*
X149149638Y-92683988D01*
X149176356Y-92548827D01*
X149280755Y-92548140D01*
X149400834Y-92542967D01*
X149516353Y-92529142D01*
X149627069Y-92506788D01*
X149732742Y-92476031D01*
X149833128Y-92436995D01*
X149927986Y-92389806D01*
X150017072Y-92334588D01*
X150100146Y-92271466D01*
X150176964Y-92200564D01*
X150247285Y-92122008D01*
X150310866Y-92035922D01*
X150328881Y-92008185D01*
X150352402Y-91968153D01*
X150376962Y-91921569D01*
X150401475Y-91870880D01*
X150424855Y-91818534D01*
X150446015Y-91766978D01*
X150463868Y-91718659D01*
X150477328Y-91676025D01*
X150478898Y-91670283D01*
X150484683Y-91648607D01*
X152304707Y-91648607D01*
X154124731Y-91648607D01*
X154117500Y-91683034D01*
G37*
D10*
%TO.C,S2*%
X143792000Y-105458000D02*
X143792000Y-111458000D01*
X143792000Y-111458000D02*
X144542000Y-111458000D01*
X144542000Y-105458000D02*
X143792000Y-105458000D01*
X146542000Y-111458000D02*
X147292000Y-111458000D01*
X147292000Y-105458000D02*
X146542000Y-105458000D01*
X147292000Y-111458000D02*
X147292000Y-105458000D01*
X145630900Y-114008000D02*
G75*
G02*
X145453100Y-114008000I-88900J0D01*
G01*
X145453100Y-114008000D02*
G75*
G02*
X145630900Y-114008000I88900J0D01*
G01*
%TD*%
M02*
