%TF.GenerationSoftware,KiCad,Pcbnew,8.0.4*%
%TF.CreationDate,2024-09-05T11:54:57-04:00*%
%TF.ProjectId,ESP32-RC_R0,45535033-322d-4524-935f-52302e6b6963,0*%
%TF.SameCoordinates,Original*%
%TF.FileFunction,Copper,L1,Top*%
%TF.FilePolarity,Positive*%
%FSLAX46Y46*%
G04 Gerber Fmt 4.6, Leading zero omitted, Abs format (unit mm)*
G04 Created by KiCad (PCBNEW 8.0.4) date 2024-09-05 11:54:57*
%MOMM*%
%LPD*%
G01*
G04 APERTURE LIST*
%TA.AperFunction,SMDPad,CuDef*%
%ADD10R,0.800000X0.800000*%
%TD*%
%TA.AperFunction,SMDPad,CuDef*%
%ADD11R,0.939800X0.812800*%
%TD*%
%TA.AperFunction,SMDPad,CuDef*%
%ADD12R,0.812800X0.939800*%
%TD*%
%TA.AperFunction,SMDPad,CuDef*%
%ADD13R,0.400000X0.480000*%
%TD*%
%TA.AperFunction,SMDPad,CuDef*%
%ADD14R,1.397000X1.016000*%
%TD*%
%TA.AperFunction,SMDPad,CuDef*%
%ADD15R,1.016000X1.397000*%
%TD*%
%TA.AperFunction,SMDPad,CuDef*%
%ADD16R,1.803400X7.493000*%
%TD*%
%TA.AperFunction,SMDPad,CuDef*%
%ADD17R,0.270000X0.990000*%
%TD*%
%TA.AperFunction,SMDPad,CuDef*%
%ADD18R,0.990000X0.270000*%
%TD*%
%TA.AperFunction,SMDPad,CuDef*%
%ADD19R,3.250000X3.250000*%
%TD*%
%TA.AperFunction,ComponentPad*%
%ADD20R,1.370000X1.370000*%
%TD*%
%TA.AperFunction,ComponentPad*%
%ADD21C,1.370000*%
%TD*%
%TA.AperFunction,SMDPad,CuDef*%
%ADD22R,0.660400X1.549400*%
%TD*%
%TA.AperFunction,SMDPad,CuDef*%
%ADD23R,1.295400X1.905000*%
%TD*%
%TA.AperFunction,SMDPad,CuDef*%
%ADD24R,2.000000X0.900000*%
%TD*%
%TA.AperFunction,SMDPad,CuDef*%
%ADD25R,0.900000X2.000000*%
%TD*%
%TA.AperFunction,SMDPad,CuDef*%
%ADD26R,1.330000X1.330000*%
%TD*%
%TA.AperFunction,SMDPad,CuDef*%
%ADD27R,1.500000X2.000000*%
%TD*%
%TA.AperFunction,SMDPad,CuDef*%
%ADD28R,0.600000X0.800000*%
%TD*%
%TA.AperFunction,SMDPad,CuDef*%
%ADD29R,0.400000X1.350000*%
%TD*%
%TA.AperFunction,SMDPad,CuDef*%
%ADD30R,1.800000X1.900000*%
%TD*%
%TA.AperFunction,SMDPad,CuDef*%
%ADD31R,1.900000X1.900000*%
%TD*%
%TA.AperFunction,SMDPad,CuDef*%
%ADD32R,0.600000X1.150000*%
%TD*%
%TA.AperFunction,SMDPad,CuDef*%
%ADD33R,5.500000X1.000000*%
%TD*%
%TA.AperFunction,SMDPad,CuDef*%
%ADD34R,3.000000X1.600000*%
%TD*%
%TA.AperFunction,SMDPad,CuDef*%
%ADD35R,0.460000X1.040000*%
%TD*%
%TA.AperFunction,ViaPad*%
%ADD36C,0.508000*%
%TD*%
%TA.AperFunction,Conductor*%
%ADD37C,0.254000*%
%TD*%
%TA.AperFunction,Conductor*%
%ADD38C,0.508000*%
%TD*%
%TA.AperFunction,Conductor*%
%ADD39C,1.016000*%
%TD*%
G04 APERTURE END LIST*
D10*
%TO.P,D5,1*%
%TO.N,GND*%
X155194000Y-112560000D03*
%TO.P,D5,2*%
%TO.N,Net-(D5-Pad2)*%
X155194000Y-110960000D03*
%TD*%
D11*
%TO.P,R8,1*%
%TO.N,P3V3*%
X138430000Y-101142800D03*
%TO.P,R8,2*%
%TO.N,Net-(U1-~{RST})*%
X138430000Y-99517200D03*
%TD*%
D12*
%TO.P,R9,1*%
%TO.N,P3V3*%
X122478800Y-76708000D03*
%TO.P,R9,2*%
%TO.N,/ESP32/EN*%
X120853200Y-76708000D03*
%TD*%
D13*
%TO.P,D2,1*%
%TO.N,/ESP32/USB_DP*%
X132842000Y-106578000D03*
%TO.P,D2,2*%
%TO.N,GND*%
X132842000Y-105258000D03*
%TD*%
D12*
%TO.P,C7,1*%
%TO.N,/ESP32/IO00*%
X145592800Y-101092000D03*
%TO.P,C7,2*%
%TO.N,GND*%
X143967200Y-101092000D03*
%TD*%
%TO.P,R3,1*%
%TO.N,PVESC*%
X122478800Y-79756000D03*
%TO.P,R3,2*%
%TO.N,/VSNS2*%
X120853200Y-79756000D03*
%TD*%
%TO.P,C10,1*%
%TO.N,PVIN*%
X151841200Y-104902000D03*
%TO.P,C10,2*%
%TO.N,GND*%
X153466800Y-104902000D03*
%TD*%
D11*
%TO.P,R18,1*%
%TO.N,PVIN*%
X150114000Y-107137200D03*
%TO.P,R18,2*%
%TO.N,Net-(U3-EN)*%
X150114000Y-108762800D03*
%TD*%
D13*
%TO.P,D3,1*%
%TO.N,/ESP32/USB_DN*%
X131318000Y-106578000D03*
%TO.P,D3,2*%
%TO.N,GND*%
X131318000Y-105258000D03*
%TD*%
D12*
%TO.P,R1,1*%
%TO.N,PVESC*%
X115976400Y-113030000D03*
%TO.P,R1,2*%
%TO.N,/PVRC*%
X117602000Y-113030000D03*
%TO.P,R1,3*%
%TO.N,P3V3*%
X119227600Y-113030000D03*
%TD*%
D14*
%TO.P,C4,1*%
%TO.N,P3V3*%
X120650000Y-75082400D03*
%TO.P,C4,2*%
%TO.N,GND*%
X120650000Y-73253600D03*
%TD*%
D11*
%TO.P,C2,1*%
%TO.N,P3V3*%
X134874000Y-103327200D03*
%TO.P,C2,2*%
%TO.N,GND*%
X134874000Y-104952800D03*
%TD*%
%TO.P,R15,1*%
%TO.N,/ESP32/DTR*%
X125222000Y-99618800D03*
%TO.P,R15,2*%
%TO.N,Net-(Q1-Pad1)*%
X125222000Y-97993200D03*
%TD*%
D13*
%TO.P,D4,1*%
%TO.N,VBUS*%
X129794000Y-106578000D03*
%TO.P,D4,2*%
%TO.N,GND*%
X129794000Y-105258000D03*
%TD*%
D12*
%TO.P,C8,1*%
%TO.N,Net-(U3-BST)*%
X155143200Y-108966000D03*
%TO.P,C8,2*%
%TO.N,Net-(C8-Pad2)*%
X156768800Y-108966000D03*
%TD*%
D11*
%TO.P,R12,1*%
%TO.N,Net-(U1-VBUS)*%
X141478000Y-99364800D03*
%TO.P,R12,2*%
%TO.N,GND*%
X141478000Y-97739200D03*
%TD*%
D12*
%TO.P,R7,1*%
%TO.N,/VSNS3*%
X119430800Y-81280000D03*
%TO.P,R7,2*%
%TO.N,GND*%
X117805200Y-81280000D03*
%TD*%
D15*
%TO.P,C9,1*%
%TO.N,PVIN*%
X151739600Y-103124000D03*
%TO.P,C9,2*%
%TO.N,GND*%
X153568400Y-103124000D03*
%TD*%
D12*
%TO.P,R17,1*%
%TO.N,Net-(C8-Pad2)*%
X156768800Y-107188000D03*
%TO.P,R17,2*%
%TO.N,Net-(U3-SW)*%
X155143200Y-107188000D03*
%TD*%
D14*
%TO.P,C12,1*%
%TO.N,Net-(C11-Pad1)*%
X159004000Y-107289600D03*
%TO.P,C12,2*%
%TO.N,GND*%
X159004000Y-109118400D03*
%TD*%
D11*
%TO.P,R20,1*%
%TO.N,Net-(C11-Pad1)*%
X156718000Y-112572800D03*
%TO.P,R20,2*%
%TO.N,Net-(D5-Pad2)*%
X156718000Y-110947200D03*
%TD*%
%TO.P,C3,1*%
%TO.N,P3V3*%
X122428000Y-74980800D03*
%TO.P,C3,2*%
%TO.N,GND*%
X122428000Y-73355200D03*
%TD*%
%TO.P,R11,1*%
%TO.N,VBUS*%
X139954000Y-97739200D03*
%TO.P,R11,2*%
%TO.N,Net-(U1-VBUS)*%
X139954000Y-99364800D03*
%TD*%
D12*
%TO.P,R22,1*%
%TO.N,PVESC*%
X115976400Y-110236000D03*
%TO.P,R22,2*%
%TO.N,PVIN*%
X117602000Y-110236000D03*
%TO.P,R22,3*%
%TO.N,/PVBATT*%
X119227600Y-110236000D03*
%TD*%
%TO.P,C6,1*%
%TO.N,/ESP32/EN*%
X139903200Y-101092000D03*
%TO.P,C6,2*%
%TO.N,GND*%
X141528800Y-101092000D03*
%TD*%
D16*
%TO.P,L1,1,1*%
%TO.N,Net-(U3-SW)*%
X156210000Y-102108000D03*
%TO.P,L1,2,2*%
%TO.N,Net-(C11-Pad1)*%
X161798000Y-102108000D03*
%TD*%
D11*
%TO.P,R10,1*%
%TO.N,Net-(U1-~{SUSPEND})*%
X138430000Y-97840800D03*
%TO.P,R10,2*%
%TO.N,GND*%
X138430000Y-96215200D03*
%TD*%
D12*
%TO.P,C5,1*%
%TO.N,/ESP32/EN*%
X119430800Y-76708000D03*
%TO.P,C5,2*%
%TO.N,GND*%
X117805200Y-76708000D03*
%TD*%
D17*
%TO.P,U1,1,DCD*%
%TO.N,unconnected-(U1-DCD-Pad1)*%
X132612000Y-101166000D03*
%TO.P,U1,2,RI/CLK*%
%TO.N,unconnected-(U1-RI{slash}CLK-Pad2)*%
X133112000Y-101166000D03*
%TO.P,U1,3,GND*%
%TO.N,GND*%
X133612000Y-101166000D03*
%TO.P,U1,4,D+*%
%TO.N,/ESP32/USB_DP*%
X134112000Y-101166000D03*
%TO.P,U1,5,D-*%
%TO.N,/ESP32/USB_DN*%
X134612000Y-101166000D03*
%TO.P,U1,6,VDD*%
%TO.N,P3V3*%
X135112000Y-101166000D03*
%TO.P,U1,7,VREGIN*%
X135612000Y-101166000D03*
D18*
%TO.P,U1,8,VBUS*%
%TO.N,Net-(U1-VBUS)*%
X136472000Y-100306000D03*
%TO.P,U1,9,~{RST}*%
%TO.N,Net-(U1-~{RST})*%
X136472000Y-99806000D03*
%TO.P,U1,10,NC*%
%TO.N,unconnected-(U1-NC-Pad10)*%
X136472000Y-99306000D03*
%TO.P,U1,11,~{SUSPEND}*%
%TO.N,Net-(U1-~{SUSPEND})*%
X136472000Y-98806000D03*
%TO.P,U1,12,SUSPEND*%
%TO.N,unconnected-(U1-SUSPEND-Pad12)*%
X136472000Y-98306000D03*
%TO.P,U1,13,CHREN*%
%TO.N,unconnected-(U1-CHREN-Pad13)*%
X136472000Y-97806000D03*
%TO.P,U1,14,CHR1*%
%TO.N,unconnected-(U1-CHR1-Pad14)*%
X136472000Y-97306000D03*
D17*
%TO.P,U1,15,CHR0*%
%TO.N,unconnected-(U1-CHR0-Pad15)*%
X135612000Y-96446000D03*
%TO.P,U1,16,GPIO.3/WAKEUP*%
%TO.N,unconnected-(U1-GPIO.3{slash}WAKEUP-Pad16)*%
X135112000Y-96446000D03*
%TO.P,U1,17,GPIO.2/RS485*%
%TO.N,unconnected-(U1-GPIO.2{slash}RS485-Pad17)*%
X134612000Y-96446000D03*
%TO.P,U1,18,GPIO.1/RXT*%
%TO.N,unconnected-(U1-GPIO.1{slash}RXT-Pad18)*%
X134112000Y-96446000D03*
%TO.P,U1,19,GPIO.0/TXT*%
%TO.N,unconnected-(U1-GPIO.0{slash}TXT-Pad19)*%
X133612000Y-96446000D03*
%TO.P,U1,20,GPIO.6*%
%TO.N,unconnected-(U1-GPIO.6-Pad20)*%
X133112000Y-96446000D03*
%TO.P,U1,21,GPIO.5*%
%TO.N,unconnected-(U1-GPIO.5-Pad21)*%
X132612000Y-96446000D03*
D18*
%TO.P,U1,22,GPIO.4*%
%TO.N,unconnected-(U1-GPIO.4-Pad22)*%
X131752000Y-97306000D03*
%TO.P,U1,23,CTS*%
%TO.N,unconnected-(U1-CTS-Pad23)*%
X131752000Y-97806000D03*
%TO.P,U1,24,RTS*%
%TO.N,/ESP32/RTS*%
X131752000Y-98306000D03*
%TO.P,U1,25,RXD*%
%TO.N,/ESP32/RXD*%
X131752000Y-98806000D03*
%TO.P,U1,26,TXD*%
%TO.N,/ESP32/TXD*%
X131752000Y-99306000D03*
%TO.P,U1,27,DSR*%
%TO.N,unconnected-(U1-DSR-Pad27)*%
X131752000Y-99806000D03*
%TO.P,U1,28,DTR*%
%TO.N,/ESP32/DTR*%
X131752000Y-100306000D03*
D19*
%TO.P,U1,29,GND__1*%
%TO.N,GND*%
X134112000Y-98806000D03*
%TD*%
D12*
%TO.P,R4,1*%
%TO.N,/PVBATT*%
X122478800Y-81280000D03*
%TO.P,R4,2*%
%TO.N,/VSNS3*%
X120853200Y-81280000D03*
%TD*%
D14*
%TO.P,C11,1*%
%TO.N,Net-(C11-Pad1)*%
X161036000Y-107289600D03*
%TO.P,C11,2*%
%TO.N,GND*%
X161036000Y-109118400D03*
%TD*%
D20*
%TO.P,J5,01,01*%
%TO.N,/PVBATT*%
X122936000Y-110236000D03*
D21*
%TO.P,J5,02,02*%
%TO.N,GND*%
X122936000Y-112776000D03*
%TD*%
D11*
%TO.P,C1,1*%
%TO.N,P3V3*%
X136398000Y-103327200D03*
%TO.P,C1,2*%
%TO.N,GND*%
X136398000Y-104952800D03*
%TD*%
D22*
%TO.P,J3,1*%
%TO.N,GND*%
X148106000Y-76558201D03*
%TO.P,J3,2*%
%TO.N,P3V3*%
X149106001Y-76558201D03*
%TO.P,J3,3*%
%TO.N,/SDA*%
X150105999Y-76558201D03*
%TO.P,J3,4*%
%TO.N,/SCL*%
X151106000Y-76558201D03*
D23*
%TO.P,J3,MP1*%
%TO.N,GND*%
X146806001Y-73978201D03*
%TO.P,J3,MP2*%
X152405999Y-73978201D03*
%TD*%
D11*
%TO.P,R16,1*%
%TO.N,/ESP32/RTS*%
X126746000Y-97993200D03*
%TO.P,R16,2*%
%TO.N,Net-(Q2-Pad1)*%
X126746000Y-99618800D03*
%TD*%
D24*
%TO.P,U2,1,GND_1*%
%TO.N,GND*%
X125612000Y-73472000D03*
%TO.P,U2,2,3V3*%
%TO.N,P3V3*%
X125612000Y-74742000D03*
%TO.P,U2,3,EN*%
%TO.N,/ESP32/EN*%
X125612000Y-76012000D03*
%TO.P,U2,4,SENSOR_VP*%
%TO.N,/VSNS1*%
X125612000Y-77282000D03*
%TO.P,U2,5,SENSOR_VN*%
%TO.N,/VSNS2*%
X125612000Y-78552000D03*
%TO.P,U2,6,IO34*%
%TO.N,/VSNS3*%
X125612000Y-79822000D03*
%TO.P,U2,7,IO35*%
%TO.N,unconnected-(U2-IO35-Pad7)*%
X125612000Y-81092000D03*
%TO.P,U2,8,IO32*%
%TO.N,/RC1*%
X125612000Y-82362000D03*
%TO.P,U2,9,IO33*%
%TO.N,/RC2*%
X125612000Y-83632000D03*
%TO.P,U2,10,IO25*%
%TO.N,/RC3*%
X125612000Y-84902000D03*
%TO.P,U2,11,IO26*%
%TO.N,/RC4*%
X125612000Y-86172000D03*
%TO.P,U2,12,IO27*%
%TO.N,/RC5*%
X125612000Y-87442000D03*
%TO.P,U2,13,IO14*%
%TO.N,/RC6*%
X125612000Y-88712000D03*
%TO.P,U2,14,IO12*%
%TO.N,/RC7*%
X125612000Y-89982000D03*
D25*
%TO.P,U2,15,GND_2*%
%TO.N,GND*%
X128397000Y-90982000D03*
%TO.P,U2,16,IO13*%
%TO.N,/RC8*%
X129667000Y-90982000D03*
%TO.P,U2,17,NC_1*%
%TO.N,unconnected-(U2-NC_1-Pad17)*%
X130937000Y-90982000D03*
%TO.P,U2,18,NC_2*%
%TO.N,unconnected-(U2-NC_2-Pad18)*%
X132207000Y-90982000D03*
%TO.P,U2,19,NC_3*%
%TO.N,unconnected-(U2-NC_3-Pad19)*%
X133477000Y-90982000D03*
%TO.P,U2,20,NC_4*%
%TO.N,unconnected-(U2-NC_4-Pad20)*%
X134747000Y-90982000D03*
%TO.P,U2,21,NC_5*%
%TO.N,unconnected-(U2-NC_5-Pad21)*%
X136017000Y-90982000D03*
%TO.P,U2,22,NC_6*%
%TO.N,unconnected-(U2-NC_6-Pad22)*%
X137287000Y-90982000D03*
%TO.P,U2,23,IO15*%
%TO.N,unconnected-(U2-IO15-Pad23)*%
X138557000Y-90982000D03*
%TO.P,U2,24,IO2*%
%TO.N,unconnected-(U2-IO2-Pad24)*%
X139827000Y-90982000D03*
D24*
%TO.P,U2,25,IO0*%
%TO.N,/ESP32/IO00*%
X142612000Y-89982000D03*
%TO.P,U2,26,IO4*%
%TO.N,unconnected-(U2-IO4-Pad26)*%
X142612000Y-88712000D03*
%TO.P,U2,27,IO16*%
%TO.N,/IR_IN*%
X142612000Y-87442000D03*
%TO.P,U2,28,IO17*%
%TO.N,/IR_OUT*%
X142612000Y-86172000D03*
%TO.P,U2,29,IO5*%
%TO.N,/ESP32/IO5*%
X142612000Y-84902000D03*
%TO.P,U2,30,IO18*%
%TO.N,/ESP32/IO18*%
X142612000Y-83632000D03*
%TO.P,U2,31,IO19*%
%TO.N,/ESP32/IO19*%
X142612000Y-82362000D03*
%TO.P,U2,32,NC_7*%
%TO.N,unconnected-(U2-NC_7-Pad32)*%
X142612000Y-81092000D03*
%TO.P,U2,33,IO21*%
%TO.N,/SDA*%
X142612000Y-79822000D03*
%TO.P,U2,34,RXD0*%
%TO.N,/ESP32/RXD0*%
X142612000Y-78552000D03*
%TO.P,U2,35,TXD0*%
%TO.N,/ESP32/TXD0*%
X142612000Y-77282000D03*
%TO.P,U2,36,IO22*%
%TO.N,/SCL*%
X142612000Y-76012000D03*
%TO.P,U2,37,IO23*%
%TO.N,/ESP32/IO23*%
X142612000Y-74742000D03*
%TO.P,U2,38,GND_3*%
%TO.N,GND*%
X142612000Y-73472000D03*
D26*
%TO.P,U2,39,GND_4*%
X133112000Y-80472000D03*
%TO.P,U2,40,GND_5*%
X131277000Y-82307000D03*
%TO.P,U2,41,GND_6*%
X133112000Y-82307000D03*
%TO.P,U2,42,GND_7*%
X134947000Y-82307000D03*
%TO.P,U2,43,GND_8*%
X134947000Y-80472000D03*
%TO.P,U2,44,GND_9*%
X134947000Y-78637000D03*
%TO.P,U2,45,GND_10*%
X133112000Y-78637000D03*
%TO.P,U2,46,GND_11*%
X131277000Y-78637000D03*
%TO.P,U2,47,GND_12*%
X131277000Y-80472000D03*
%TD*%
D27*
%TO.P,S1,1*%
%TO.N,GND*%
X139954000Y-112558000D03*
%TO.P,S1,2*%
%TO.N,/ESP32/EN*%
X139954000Y-104358000D03*
%TD*%
D11*
%TO.P,R14,1*%
%TO.N,/ESP32/RXD*%
X128270000Y-99618800D03*
%TO.P,R14,2*%
%TO.N,/ESP32/TXD0*%
X128270000Y-97993200D03*
%TD*%
%TO.P,R13,1*%
%TO.N,/ESP32/TXD*%
X129794000Y-99618800D03*
%TO.P,R13,2*%
%TO.N,/ESP32/RXD0*%
X129794000Y-97993200D03*
%TD*%
D28*
%TO.P,Q2,1*%
%TO.N,Net-(Q2-Pad1)*%
X126934000Y-101352000D03*
%TO.P,Q2,2*%
%TO.N,/ESP32/DTR*%
X125034000Y-101352000D03*
%TO.P,Q2,3*%
%TO.N,/ESP32/IO00*%
X125984000Y-103372000D03*
%TD*%
D12*
%TO.P,R5,1*%
%TO.N,/VSNS1*%
X119430800Y-78232000D03*
%TO.P,R5,2*%
%TO.N,GND*%
X117805200Y-78232000D03*
%TD*%
D29*
%TO.P,J8,1,VBUS*%
%TO.N,VBUS*%
X129002000Y-109689000D03*
%TO.P,J8,2,D-*%
%TO.N,/ESP32/USB_DN*%
X129652000Y-109689000D03*
%TO.P,J8,3,D+*%
%TO.N,/ESP32/USB_DP*%
X130302000Y-109689000D03*
%TO.P,J8,4,ID*%
%TO.N,unconnected-(J8-ID-Pad4)*%
X130952000Y-109689000D03*
%TO.P,J8,5,GND*%
%TO.N,GND*%
X131602000Y-109689000D03*
D30*
%TO.P,J8,S1*%
X126302000Y-112364000D03*
D31*
%TO.P,J8,S2*%
X129102000Y-112364000D03*
%TO.P,J8,S3*%
X131502000Y-112364000D03*
D30*
%TO.P,J8,S4*%
X134302000Y-112364000D03*
%TD*%
D20*
%TO.P,J1,01,01*%
%TO.N,GND*%
X116840000Y-83566000D03*
D21*
%TO.P,J1,02,02*%
%TO.N,/PVRC*%
X119380000Y-83566000D03*
%TO.P,J1,03,03*%
%TO.N,/RC1*%
X121920000Y-83566000D03*
%TO.P,J1,04,04*%
%TO.N,GND*%
X116840000Y-86106000D03*
%TO.P,J1,05,05*%
%TO.N,/PVRC*%
X119380000Y-86106000D03*
%TO.P,J1,06,06*%
%TO.N,/RC2*%
X121920000Y-86106000D03*
%TO.P,J1,07,07*%
%TO.N,GND*%
X116840000Y-88646000D03*
%TO.P,J1,08,08*%
%TO.N,/PVRC*%
X119380000Y-88646000D03*
%TO.P,J1,09,09*%
%TO.N,/RC3*%
X121920000Y-88646000D03*
%TO.P,J1,10,10*%
%TO.N,GND*%
X116840000Y-91186000D03*
%TO.P,J1,11,11*%
%TO.N,/PVRC*%
X119380000Y-91186000D03*
%TO.P,J1,12,12*%
%TO.N,/RC4*%
X121920000Y-91186000D03*
%TO.P,J1,13,13*%
%TO.N,GND*%
X116840000Y-93726000D03*
%TO.P,J1,14,14*%
%TO.N,/PVRC*%
X119380000Y-93726000D03*
%TO.P,J1,15,15*%
%TO.N,/RC5*%
X121920000Y-93726000D03*
%TO.P,J1,16,16*%
%TO.N,GND*%
X116840000Y-96266000D03*
%TO.P,J1,17,17*%
%TO.N,/PVRC*%
X119380000Y-96266000D03*
%TO.P,J1,18,18*%
%TO.N,/RC6*%
X121920000Y-96266000D03*
%TO.P,J1,19,19*%
%TO.N,GND*%
X116840000Y-98806000D03*
%TO.P,J1,20,20*%
%TO.N,/PVRC*%
X119380000Y-98806000D03*
%TO.P,J1,21,21*%
%TO.N,/RC7*%
X121920000Y-98806000D03*
%TO.P,J1,22,22*%
%TO.N,GND*%
X116840000Y-101346000D03*
%TO.P,J1,23,23*%
%TO.N,/PVRC*%
X119380000Y-101346000D03*
%TO.P,J1,24,24*%
%TO.N,/RC8*%
X121920000Y-101346000D03*
%TD*%
D22*
%TO.P,J4,1*%
%TO.N,GND*%
X156742000Y-76558201D03*
%TO.P,J4,2*%
%TO.N,P3V3*%
X157742001Y-76558201D03*
%TO.P,J4,3*%
%TO.N,/SDA*%
X158741999Y-76558201D03*
%TO.P,J4,4*%
%TO.N,/SCL*%
X159742000Y-76558201D03*
D23*
%TO.P,J4,MP1*%
%TO.N,GND*%
X155442001Y-73978201D03*
%TO.P,J4,MP2*%
X161041999Y-73978201D03*
%TD*%
D28*
%TO.P,Q1,1*%
%TO.N,Net-(Q1-Pad1)*%
X125034000Y-96260000D03*
%TO.P,Q1,2*%
%TO.N,/ESP32/RTS*%
X126934000Y-96260000D03*
%TO.P,Q1,3*%
%TO.N,/ESP32/EN*%
X125984000Y-94240000D03*
%TD*%
D32*
%TO.P,U3,1,GND*%
%TO.N,GND*%
X153604000Y-106650000D03*
%TO.P,U3,2,SW*%
%TO.N,Net-(U3-SW)*%
X152654000Y-106650000D03*
%TO.P,U3,3,VIN*%
%TO.N,PVIN*%
X151704000Y-106650000D03*
%TO.P,U3,4,FB*%
%TO.N,Net-(U3-FB)*%
X151704000Y-109250000D03*
%TO.P,U3,5,EN*%
%TO.N,Net-(U3-EN)*%
X152654000Y-109250000D03*
%TO.P,U3,6,BST*%
%TO.N,Net-(U3-BST)*%
X153604000Y-109250000D03*
%TD*%
D12*
%TO.P,R6,1*%
%TO.N,/VSNS2*%
X119430800Y-79756000D03*
%TO.P,R6,2*%
%TO.N,GND*%
X117805200Y-79756000D03*
%TD*%
D11*
%TO.P,R21,1*%
%TO.N,Net-(U3-FB)*%
X151892000Y-110947200D03*
%TO.P,R21,2*%
%TO.N,GND*%
X151892000Y-112572800D03*
%TD*%
D33*
%TO.P,J6,1*%
%TO.N,/IR_OUT*%
X150586000Y-87598000D03*
%TO.P,J6,2*%
%TO.N,P3V3*%
X150586000Y-85598000D03*
%TO.P,J6,3*%
%TO.N,GND*%
X150586000Y-83598000D03*
D34*
%TO.P,J6,MP1*%
X148336000Y-89998000D03*
%TO.P,J6,MP2*%
X148336000Y-81198000D03*
%TD*%
D11*
%TO.P,R19,1*%
%TO.N,Net-(C11-Pad1)*%
X153416000Y-112572800D03*
%TO.P,R19,2*%
%TO.N,Net-(U3-FB)*%
X153416000Y-110947200D03*
%TD*%
D35*
%TO.P,D1,A*%
%TO.N,VBUS*%
X128016000Y-107362000D03*
%TO.P,D1,C*%
%TO.N,PVESC*%
X128016000Y-104982000D03*
%TD*%
D33*
%TO.P,J7,1*%
%TO.N,/IR_IN*%
X160238000Y-87598000D03*
%TO.P,J7,2*%
%TO.N,P3V3*%
X160238000Y-85598000D03*
%TO.P,J7,3*%
%TO.N,GND*%
X160238000Y-83598000D03*
D34*
%TO.P,J7,MP1*%
X157988000Y-89998000D03*
%TO.P,J7,MP2*%
X157988000Y-81198000D03*
%TD*%
D11*
%TO.P,R23,1*%
%TO.N,Net-(C11-Pad1)*%
X162814000Y-107340400D03*
%TO.P,R23,2*%
%TO.N,P3V3*%
X162814000Y-108966000D03*
%TD*%
D12*
%TO.P,R2,1*%
%TO.N,P3V3*%
X122478800Y-78232000D03*
%TO.P,R2,2*%
%TO.N,/VSNS1*%
X120853200Y-78232000D03*
%TD*%
D27*
%TO.P,S2,1*%
%TO.N,GND*%
X145542000Y-112558000D03*
%TO.P,S2,2*%
%TO.N,/ESP32/IO00*%
X145542000Y-104358000D03*
%TD*%
D36*
%TO.N,P3V3*%
X119380000Y-112268000D03*
X135636000Y-103378000D03*
X162814000Y-109728000D03*
X147574000Y-85598000D03*
X121666000Y-75184000D03*
X149098000Y-77724000D03*
X136906000Y-103632000D03*
X157734000Y-77724000D03*
%TO.N,GND*%
X126746000Y-73152000D03*
X116586000Y-73152000D03*
X157226000Y-93472000D03*
X156210000Y-76708000D03*
X136906000Y-83312000D03*
X134112000Y-98806000D03*
X147574000Y-77216000D03*
X121666000Y-108712000D03*
X126746000Y-113792000D03*
X147066000Y-113792000D03*
X152146000Y-98552000D03*
X116586000Y-103632000D03*
X126746000Y-93472000D03*
X157226000Y-83312000D03*
X141986000Y-108712000D03*
X136906000Y-113792000D03*
X162306000Y-78232000D03*
X157226000Y-73152000D03*
X157226000Y-113792000D03*
X131826000Y-108712000D03*
X131826000Y-88392000D03*
X136906000Y-73152000D03*
X136906000Y-93472000D03*
%TO.N,/ESP32/EN*%
X125984000Y-94996000D03*
X121412000Y-76708000D03*
X124206000Y-76200000D03*
X138938000Y-104394000D03*
%TO.N,/ESP32/IO00*%
X125984000Y-104140000D03*
X145542000Y-105664000D03*
%TO.N,PVESC*%
X116078000Y-109474000D03*
X128524000Y-104902000D03*
X123190000Y-79756000D03*
%TO.N,VBUS*%
X139954000Y-98298000D03*
X130302000Y-106426000D03*
%TO.N,/ESP32/USB_DN*%
X131826000Y-106426000D03*
X134620000Y-102362000D03*
%TO.N,/PVRC*%
X117602000Y-105664000D03*
X117602000Y-112268000D03*
%TO.N,/PVBATT*%
X123190000Y-81280000D03*
X122936000Y-104140000D03*
%TO.N,/ESP32/RXD0*%
X129794000Y-97282000D03*
X144018000Y-78740000D03*
%TO.N,/ESP32/TXD0*%
X144018000Y-77470000D03*
X128270000Y-97282000D03*
%TO.N,/VSNS1*%
X124206000Y-77470000D03*
X121412000Y-78232000D03*
%TO.N,/VSNS2*%
X121412000Y-79756000D03*
X124206000Y-78740000D03*
%TO.N,/VSNS3*%
X121412000Y-81280000D03*
X124206000Y-80010000D03*
%TO.N,PVIN*%
X118364000Y-109220000D03*
X146558000Y-107696000D03*
X150622000Y-103632000D03*
%TD*%
D37*
%TO.N,/ESP32/USB_DP*%
X133604000Y-102362000D02*
X134112000Y-101854000D01*
X134112000Y-101854000D02*
X134112000Y-101166000D01*
X133198000Y-106578000D02*
X133604000Y-106172000D01*
X133604000Y-106172000D02*
X133604000Y-102362000D01*
X132842000Y-106578000D02*
X133198000Y-106578000D01*
%TO.N,P3V3*%
X121666000Y-75184000D02*
X121767600Y-75082400D01*
X121564400Y-75082400D02*
X121666000Y-75184000D01*
X122478800Y-76708000D02*
X122478800Y-75031600D01*
X122326400Y-75082400D02*
X122428000Y-74980800D01*
X121767600Y-75082400D02*
X122326400Y-75082400D01*
X136398000Y-103327200D02*
X135612000Y-102541200D01*
X149098000Y-76566202D02*
X149106001Y-76558201D01*
X135612000Y-102541200D02*
X135612000Y-101166000D01*
X135112000Y-101166000D02*
X135612000Y-101166000D01*
X157734000Y-76566202D02*
X157742001Y-76558201D01*
X135612000Y-101166000D02*
X138406800Y-101166000D01*
X125612000Y-74742000D02*
X125373200Y-74980800D01*
X122478800Y-78232000D02*
X122478800Y-76708000D01*
X135636000Y-103378000D02*
X135686800Y-103327200D01*
X147574000Y-85598000D02*
X150586000Y-85598000D01*
X135686800Y-103327200D02*
X136398000Y-103327200D01*
D38*
X162814000Y-108966000D02*
X162814000Y-109728000D01*
D37*
X150586000Y-85598000D02*
X160238000Y-85598000D01*
X122478800Y-75031600D02*
X122428000Y-74980800D01*
X136448800Y-103378000D02*
X136398000Y-103327200D01*
X149098000Y-77724000D02*
X149098000Y-76566202D01*
X134874000Y-103327200D02*
X135585200Y-103327200D01*
X119380000Y-112268000D02*
X119380000Y-112877600D01*
X119380000Y-112877600D02*
X119227600Y-113030000D01*
X125373200Y-74980800D02*
X122428000Y-74980800D01*
X120650000Y-75082400D02*
X121564400Y-75082400D01*
X135585200Y-103327200D02*
X135636000Y-103378000D01*
X138406800Y-101166000D02*
X138430000Y-101142800D01*
X157734000Y-77724000D02*
X157734000Y-76566202D01*
%TO.N,GND*%
X133612000Y-101166000D02*
X133612000Y-99306000D01*
X133612000Y-99306000D02*
X134112000Y-98806000D01*
%TO.N,/ESP32/EN*%
X139954000Y-103124000D02*
X139954000Y-101142800D01*
X125984000Y-94240000D02*
X125984000Y-94996000D01*
X138974000Y-104358000D02*
X138938000Y-104394000D01*
X124394000Y-76012000D02*
X124206000Y-76200000D01*
X139954000Y-101142800D02*
X139903200Y-101092000D01*
X139954000Y-104358000D02*
X138974000Y-104358000D01*
X139954000Y-104358000D02*
X139954000Y-103124000D01*
X125612000Y-76012000D02*
X124394000Y-76012000D01*
X120853200Y-76708000D02*
X119430800Y-76708000D01*
%TO.N,/ESP32/IO00*%
X145592800Y-99618800D02*
X142612000Y-96638000D01*
X125984000Y-104140000D02*
X125984000Y-103372000D01*
X142612000Y-96638000D02*
X142612000Y-89982000D01*
X145592800Y-101092000D02*
X145592800Y-99618800D01*
X145542000Y-101142800D02*
X145592800Y-101092000D01*
X145542000Y-105664000D02*
X145542000Y-104358000D01*
X145542000Y-101854000D02*
X145542000Y-101142800D01*
X145542000Y-104358000D02*
X145542000Y-101854000D01*
%TO.N,Net-(U3-BST)*%
X153604000Y-109250000D02*
X154859200Y-109250000D01*
X154859200Y-109250000D02*
X155143200Y-108966000D01*
%TO.N,Net-(C8-Pad2)*%
X156768800Y-108966000D02*
X156768800Y-107188000D01*
%TO.N,PVESC*%
X115976400Y-110236000D02*
X115976400Y-109575600D01*
X128524000Y-104902000D02*
X128096000Y-104902000D01*
X115976400Y-110236000D02*
X115976400Y-113030000D01*
X128096000Y-104902000D02*
X128016000Y-104982000D01*
X115976400Y-109575600D02*
X116078000Y-109474000D01*
X123190000Y-79756000D02*
X122478800Y-79756000D01*
%TO.N,VBUS*%
X128016000Y-107362000D02*
X129010000Y-107362000D01*
X130150000Y-106578000D02*
X130302000Y-106426000D01*
X139954000Y-98298000D02*
X139954000Y-97739200D01*
X129002000Y-108348000D02*
X129002000Y-109689000D01*
X129010000Y-107362000D02*
X129794000Y-106578000D01*
X129002000Y-108348000D02*
X128016000Y-107362000D01*
X129794000Y-106578000D02*
X130150000Y-106578000D01*
%TO.N,/ESP32/USB_DP*%
X131318000Y-107696000D02*
X131699000Y-107696000D01*
X131699000Y-107696000D02*
X132817000Y-106578000D01*
X130302000Y-108712000D02*
X131318000Y-107696000D01*
X130302000Y-109689000D02*
X130302000Y-108712000D01*
X132817000Y-106578000D02*
X132842000Y-106578000D01*
%TO.N,/ESP32/USB_DN*%
X131318000Y-106578000D02*
X131674000Y-106578000D01*
X131674000Y-106578000D02*
X131826000Y-106426000D01*
X134612000Y-101166000D02*
X134612000Y-102116000D01*
X131318000Y-106680000D02*
X131318000Y-106578000D01*
X129652000Y-109689000D02*
X129652000Y-108346000D01*
X129652000Y-108346000D02*
X131318000Y-106680000D01*
%TO.N,Net-(D5-Pad2)*%
X156718000Y-110947200D02*
X155206800Y-110947200D01*
X155206800Y-110947200D02*
X155194000Y-110960000D01*
%TO.N,/PVRC*%
X119380000Y-103886000D02*
X119380000Y-101346000D01*
D39*
X119380000Y-83566000D02*
X119380000Y-86106000D01*
D37*
X117602000Y-112522000D02*
X117602000Y-113030000D01*
D39*
X119380000Y-96266000D02*
X119380000Y-98806000D01*
X119380000Y-86106000D02*
X119380000Y-88646000D01*
D37*
X119380000Y-103886000D02*
X117602000Y-105664000D01*
D39*
X119380000Y-91186000D02*
X119380000Y-96266000D01*
X119380000Y-98806000D02*
X119380000Y-101346000D01*
X119380000Y-88646000D02*
X119380000Y-91186000D01*
D37*
%TO.N,/RC3*%
X121920000Y-87884000D02*
X121920000Y-88646000D01*
X124902000Y-84902000D02*
X121920000Y-87884000D01*
X125612000Y-84902000D02*
X124902000Y-84902000D01*
%TO.N,/RC2*%
X124902000Y-83632000D02*
X122428000Y-86106000D01*
X122428000Y-86106000D02*
X121920000Y-86106000D01*
X125612000Y-83632000D02*
X124902000Y-83632000D01*
%TO.N,/RC4*%
X125612000Y-86172000D02*
X124902000Y-86172000D01*
X123190000Y-89916000D02*
X121920000Y-91186000D01*
X124902000Y-86172000D02*
X123190000Y-87884000D01*
X123190000Y-87884000D02*
X123190000Y-89916000D01*
%TO.N,/RC1*%
X123698000Y-83566000D02*
X121920000Y-83566000D01*
X125612000Y-82362000D02*
X124902000Y-82362000D01*
X124902000Y-82362000D02*
X123698000Y-83566000D01*
%TO.N,/RC6*%
X124902000Y-88712000D02*
X124206000Y-89408000D01*
X124206000Y-89408000D02*
X124206000Y-91440000D01*
X124206000Y-91440000D02*
X123190000Y-92456000D01*
X123190000Y-94234000D02*
X121920000Y-95504000D01*
X121920000Y-95504000D02*
X121920000Y-96266000D01*
X125612000Y-88712000D02*
X124902000Y-88712000D01*
X123190000Y-92456000D02*
X123190000Y-94234000D01*
%TO.N,/RC7*%
X121920000Y-98044000D02*
X121920000Y-98806000D01*
X124714000Y-91694000D02*
X123698000Y-92710000D01*
X124714000Y-90424000D02*
X124714000Y-91694000D01*
X123698000Y-96266000D02*
X121920000Y-98044000D01*
X125156000Y-89982000D02*
X124714000Y-90424000D01*
X123698000Y-92710000D02*
X123698000Y-96266000D01*
X125612000Y-89982000D02*
X125156000Y-89982000D01*
%TO.N,/RC5*%
X123698000Y-91186000D02*
X121920000Y-92964000D01*
X121920000Y-92964000D02*
X121920000Y-93726000D01*
X124902000Y-87442000D02*
X123698000Y-88646000D01*
X123698000Y-88646000D02*
X123698000Y-91186000D01*
X125612000Y-87442000D02*
X124902000Y-87442000D01*
%TO.N,/RC8*%
X121920000Y-101346000D02*
X124206000Y-99060000D01*
X129286000Y-92456000D02*
X129667000Y-92075000D01*
X129667000Y-92075000D02*
X129667000Y-90982000D01*
X124206000Y-92964000D02*
X124714000Y-92456000D01*
X124714000Y-92456000D02*
X129286000Y-92456000D01*
X124206000Y-99060000D02*
X124206000Y-92964000D01*
%TO.N,/SDA*%
X158741999Y-77732001D02*
X157734000Y-78740000D01*
X150105999Y-78740000D02*
X150105999Y-76558201D01*
X157734000Y-78740000D02*
X150105999Y-78740000D01*
X143952000Y-79822000D02*
X145034000Y-78740000D01*
X145034000Y-78740000D02*
X150105999Y-78740000D01*
X158741999Y-76558201D02*
X158741999Y-77732001D01*
X142612000Y-79822000D02*
X143952000Y-79822000D01*
%TO.N,/SCL*%
X151106000Y-75451901D02*
X151130000Y-75427901D01*
X159742000Y-76558201D02*
X159742000Y-75922000D01*
X144536099Y-75427901D02*
X143952000Y-76012000D01*
X151106000Y-76558201D02*
X151106000Y-75451901D01*
X151130000Y-75427901D02*
X144536099Y-75427901D01*
X159247901Y-75427901D02*
X151130000Y-75427901D01*
X143952000Y-76012000D02*
X142612000Y-76012000D01*
X159742000Y-75922000D02*
X159247901Y-75427901D01*
%TO.N,/PVBATT*%
X122936000Y-104140000D02*
X122936000Y-110236000D01*
X123190000Y-81280000D02*
X122478800Y-81280000D01*
D38*
X122936000Y-110236000D02*
X119227600Y-110236000D01*
D37*
%TO.N,/IR_OUT*%
X142612000Y-86172000D02*
X143798000Y-86172000D01*
X143798000Y-86172000D02*
X145224000Y-87598000D01*
X145224000Y-87598000D02*
X150586000Y-87598000D01*
%TO.N,/IR_IN*%
X143830000Y-87442000D02*
X145034000Y-88646000D01*
X145034000Y-88646000D02*
X159190000Y-88646000D01*
X142612000Y-87442000D02*
X143830000Y-87442000D01*
X159190000Y-88646000D02*
X160238000Y-87598000D01*
D38*
%TO.N,Net-(U3-SW)*%
X152654000Y-107442000D02*
X153162000Y-107950000D01*
X154381200Y-107950000D02*
X155143200Y-107188000D01*
X156210000Y-104902000D02*
X156210000Y-102108000D01*
X153162000Y-107950000D02*
X154381200Y-107950000D01*
X152654000Y-106650000D02*
X152654000Y-107442000D01*
X155143200Y-107188000D02*
X155143200Y-105968800D01*
X155143200Y-105968800D02*
X156210000Y-104902000D01*
D37*
%TO.N,Net-(Q1-Pad1)*%
X125034000Y-97805200D02*
X125222000Y-97993200D01*
X125034000Y-96260000D02*
X125034000Y-97805200D01*
%TO.N,/ESP32/RTS*%
X131097400Y-98306000D02*
X130632200Y-97840800D01*
X129635600Y-96260000D02*
X126934000Y-96260000D01*
X126934000Y-97805200D02*
X126746000Y-97993200D01*
X130632200Y-97256600D02*
X129635600Y-96260000D01*
X131752000Y-98306000D02*
X131097400Y-98306000D01*
X126934000Y-96260000D02*
X126934000Y-97805200D01*
X130632200Y-97840800D02*
X130632200Y-97256600D01*
%TO.N,Net-(Q2-Pad1)*%
X126746000Y-99618800D02*
X126934000Y-99806800D01*
X126934000Y-99806800D02*
X126934000Y-101352000D01*
%TO.N,/ESP32/DTR*%
X128778000Y-102108000D02*
X125790000Y-102108000D01*
X131752000Y-100306000D02*
X130580000Y-100306000D01*
X125034000Y-99806800D02*
X125222000Y-99618800D01*
X125034000Y-101352000D02*
X125034000Y-99806800D01*
X125790000Y-102108000D02*
X125034000Y-101352000D01*
X130580000Y-100306000D02*
X128778000Y-102108000D01*
%TO.N,Net-(U1-~{RST})*%
X136472000Y-99806000D02*
X138141200Y-99806000D01*
X138141200Y-99806000D02*
X138430000Y-99517200D01*
%TO.N,Net-(U1-~{SUSPEND})*%
X137769600Y-98806000D02*
X138430000Y-98145600D01*
X136472000Y-98806000D02*
X137769600Y-98806000D01*
%TO.N,Net-(U1-VBUS)*%
X139954000Y-99364800D02*
X141478000Y-99364800D01*
X136472000Y-100306000D02*
X139216000Y-100306000D01*
X139954000Y-99568000D02*
X139954000Y-99517200D01*
X139216000Y-100306000D02*
X139954000Y-99568000D01*
%TO.N,/ESP32/TXD*%
X131752000Y-99306000D02*
X130106800Y-99306000D01*
X130106800Y-99306000D02*
X129794000Y-99618800D01*
%TO.N,/ESP32/RXD0*%
X142800000Y-78740000D02*
X142612000Y-78552000D01*
X129794000Y-97993200D02*
X129794000Y-97282000D01*
X144018000Y-78740000D02*
X142800000Y-78740000D01*
%TO.N,/ESP32/TXD0*%
X128270000Y-97993200D02*
X128270000Y-97282000D01*
X142800000Y-77470000D02*
X142612000Y-77282000D01*
X144018000Y-77470000D02*
X142800000Y-77470000D01*
%TO.N,/ESP32/RXD*%
X129082800Y-98806000D02*
X128270000Y-99618800D01*
X131752000Y-98806000D02*
X129082800Y-98806000D01*
%TO.N,Net-(U3-EN)*%
X150114000Y-108762800D02*
X150672800Y-108204000D01*
X152400000Y-108204000D02*
X152654000Y-108458000D01*
X152654000Y-108458000D02*
X152654000Y-109250000D01*
X150672800Y-108204000D02*
X152400000Y-108204000D01*
%TO.N,Net-(U3-FB)*%
X151704000Y-110759200D02*
X151892000Y-110947200D01*
X153416000Y-110947200D02*
X151892000Y-110947200D01*
X151704000Y-109250000D02*
X151704000Y-110759200D01*
%TO.N,/VSNS1*%
X120853200Y-78232000D02*
X119430800Y-78232000D01*
X124394000Y-77282000D02*
X124206000Y-77470000D01*
X125612000Y-77282000D02*
X124394000Y-77282000D01*
%TO.N,/VSNS2*%
X120853200Y-79756000D02*
X119430800Y-79756000D01*
X125612000Y-78552000D02*
X124394000Y-78552000D01*
X124394000Y-78552000D02*
X124206000Y-78740000D01*
%TO.N,/VSNS3*%
X125612000Y-79822000D02*
X124394000Y-79822000D01*
X120853200Y-81280000D02*
X119430800Y-81280000D01*
X124394000Y-79822000D02*
X124206000Y-80010000D01*
%TO.N,PVIN*%
X151739600Y-103124000D02*
X151841200Y-103225600D01*
X151841200Y-103225600D02*
X151841200Y-104902000D01*
X151704000Y-106650000D02*
X151704000Y-105039200D01*
X117602000Y-110236000D02*
X118364000Y-109474000D01*
X150601200Y-106650000D02*
X151704000Y-106650000D01*
X151739600Y-103124000D02*
X151231600Y-103632000D01*
X151704000Y-105039200D02*
X151841200Y-104902000D01*
X150114000Y-107137200D02*
X150601200Y-106650000D01*
X151231600Y-103632000D02*
X150622000Y-103632000D01*
%TO.N,Net-(C11-Pad1)*%
X156718000Y-112572800D02*
X156718000Y-112522000D01*
X157734000Y-111556800D02*
X157734000Y-108559600D01*
X156718000Y-112572800D02*
X157734000Y-111556800D01*
X156718000Y-112522000D02*
X155956000Y-111760000D01*
X157734000Y-108559600D02*
X159004000Y-107289600D01*
X154228800Y-111760000D02*
X153416000Y-112572800D01*
X155956000Y-111760000D02*
X154228800Y-111760000D01*
%TD*%
%TA.AperFunction,Conductor*%
%TO.N,Net-(C11-Pad1)*%
G36*
X163695421Y-98318002D02*
G01*
X163741914Y-98371658D01*
X163753300Y-98424000D01*
X163753300Y-107824000D01*
X163733298Y-107892121D01*
X163679642Y-107938614D01*
X163627300Y-107950000D01*
X158368000Y-107950000D01*
X158299879Y-107929998D01*
X158253386Y-107876342D01*
X158242000Y-107824000D01*
X158242000Y-98424000D01*
X158262002Y-98355879D01*
X158315658Y-98309386D01*
X158368000Y-98298000D01*
X163627300Y-98298000D01*
X163695421Y-98318002D01*
G37*
%TD.AperFunction*%
%TD*%
%TA.AperFunction,Conductor*%
%TO.N,GND*%
G36*
X132951933Y-97195500D02*
G01*
X133272066Y-97195499D01*
X133337422Y-97182500D01*
X133386577Y-97182500D01*
X133451933Y-97195500D01*
X133772066Y-97195499D01*
X133837422Y-97182500D01*
X133886577Y-97182500D01*
X133951933Y-97195500D01*
X134272066Y-97195499D01*
X134337422Y-97182500D01*
X134386577Y-97182500D01*
X134451933Y-97195500D01*
X134772066Y-97195499D01*
X134837422Y-97182500D01*
X134886577Y-97182500D01*
X134951933Y-97195500D01*
X135272066Y-97195499D01*
X135337422Y-97182500D01*
X135386577Y-97182500D01*
X135451933Y-97195500D01*
X135596500Y-97195499D01*
X135664620Y-97215501D01*
X135711113Y-97269156D01*
X135722500Y-97321498D01*
X135722500Y-97466063D01*
X135722502Y-97466075D01*
X135735499Y-97531421D01*
X135735499Y-97580582D01*
X135722500Y-97645929D01*
X135722500Y-97966063D01*
X135722502Y-97966075D01*
X135735499Y-98031421D01*
X135735499Y-98080582D01*
X135722500Y-98145929D01*
X135722500Y-98466063D01*
X135722502Y-98466075D01*
X135735499Y-98531421D01*
X135735499Y-98580582D01*
X135722500Y-98645929D01*
X135722500Y-98966063D01*
X135722502Y-98966075D01*
X135735499Y-99031421D01*
X135735499Y-99080582D01*
X135722500Y-99145929D01*
X135722500Y-99466063D01*
X135722502Y-99466075D01*
X135735499Y-99531421D01*
X135735499Y-99580582D01*
X135722500Y-99645929D01*
X135722500Y-99966063D01*
X135722502Y-99966075D01*
X135735499Y-100031421D01*
X135735499Y-100080582D01*
X135722500Y-100145929D01*
X135722500Y-100290500D01*
X135702498Y-100358621D01*
X135648842Y-100405114D01*
X135596501Y-100416500D01*
X135451936Y-100416500D01*
X135451924Y-100416502D01*
X135386578Y-100429499D01*
X135337418Y-100429499D01*
X135272067Y-100416500D01*
X134951936Y-100416500D01*
X134951924Y-100416502D01*
X134886578Y-100429499D01*
X134837418Y-100429499D01*
X134772067Y-100416500D01*
X134451936Y-100416500D01*
X134451924Y-100416502D01*
X134386578Y-100429499D01*
X134337418Y-100429499D01*
X134272067Y-100416500D01*
X133951936Y-100416500D01*
X133951926Y-100416501D01*
X133877699Y-100431265D01*
X133793515Y-100487516D01*
X133737265Y-100571697D01*
X133737265Y-100571699D01*
X133735577Y-100580185D01*
X133702667Y-100643094D01*
X133640971Y-100678223D01*
X133570076Y-100674420D01*
X133512492Y-100632892D01*
X133488420Y-100580178D01*
X133486734Y-100571699D01*
X133430484Y-100487516D01*
X133430483Y-100487515D01*
X133346302Y-100431266D01*
X133272068Y-100416500D01*
X132951936Y-100416500D01*
X132951924Y-100416502D01*
X132886578Y-100429499D01*
X132837418Y-100429499D01*
X132821302Y-100426293D01*
X132772069Y-100416500D01*
X132772067Y-100416500D01*
X132627499Y-100416500D01*
X132559378Y-100396498D01*
X132512885Y-100342842D01*
X132501499Y-100290500D01*
X132501499Y-100145936D01*
X132501498Y-100145929D01*
X132497236Y-100124500D01*
X132488500Y-100080578D01*
X132488500Y-100031421D01*
X132501500Y-99966067D01*
X132501499Y-99645934D01*
X132488500Y-99580578D01*
X132488500Y-99531421D01*
X132501500Y-99466067D01*
X132501499Y-99145934D01*
X132488500Y-99080578D01*
X132488500Y-99031421D01*
X132501500Y-98966067D01*
X132501499Y-98645934D01*
X132488500Y-98580578D01*
X132488500Y-98531421D01*
X132501500Y-98466067D01*
X132501499Y-98145934D01*
X132488500Y-98080578D01*
X132488500Y-98031421D01*
X132501500Y-97966067D01*
X132501499Y-97645934D01*
X132488500Y-97580578D01*
X132488500Y-97531421D01*
X132501500Y-97466067D01*
X132501499Y-97321498D01*
X132521501Y-97253379D01*
X132575156Y-97206886D01*
X132627499Y-97195499D01*
X132772064Y-97195499D01*
X132772066Y-97195499D01*
X132837422Y-97182500D01*
X132886577Y-97182500D01*
X132951933Y-97195500D01*
G37*
%TD.AperFunction*%
%TA.AperFunction,Conductor*%
G36*
X148463422Y-75829403D02*
G01*
X148509915Y-75883059D01*
X148521301Y-75935401D01*
X148521301Y-77357964D01*
X148521302Y-77357974D01*
X148536066Y-77432200D01*
X148536066Y-77432201D01*
X148536067Y-77432202D01*
X148583437Y-77503096D01*
X148604652Y-77570847D01*
X148603389Y-77591029D01*
X148584271Y-77723996D01*
X148584271Y-77724003D01*
X148605079Y-77868727D01*
X148605081Y-77868734D01*
X148665824Y-78001743D01*
X148730977Y-78076934D01*
X148761580Y-78112251D01*
X148783756Y-78126503D01*
X148830248Y-78180159D01*
X148840351Y-78250433D01*
X148810858Y-78315013D01*
X148751131Y-78353396D01*
X148715634Y-78358500D01*
X144983775Y-78358500D01*
X144924390Y-78374412D01*
X144886741Y-78384500D01*
X144812244Y-78427512D01*
X144799756Y-78434721D01*
X144799750Y-78434726D01*
X144679461Y-78555015D01*
X144617149Y-78589040D01*
X144546333Y-78583974D01*
X144489498Y-78541428D01*
X144475752Y-78518261D01*
X144450176Y-78462257D01*
X144354421Y-78351750D01*
X144354420Y-78351749D01*
X144250310Y-78284842D01*
X144231411Y-78272696D01*
X144196336Y-78262397D01*
X144091114Y-78231500D01*
X144091111Y-78231500D01*
X143992499Y-78231500D01*
X143924378Y-78211498D01*
X143877885Y-78157842D01*
X143866499Y-78105500D01*
X143866499Y-78104500D01*
X143886501Y-78036379D01*
X143940157Y-77989886D01*
X143992499Y-77978500D01*
X144091108Y-77978500D01*
X144091111Y-77978500D01*
X144231411Y-77937304D01*
X144354421Y-77858250D01*
X144450176Y-77747743D01*
X144510919Y-77614734D01*
X144517655Y-77567886D01*
X144531729Y-77470003D01*
X144531729Y-77469996D01*
X144510920Y-77325272D01*
X144510919Y-77325271D01*
X144510919Y-77325266D01*
X144450176Y-77192257D01*
X144354421Y-77081750D01*
X144354420Y-77081749D01*
X144252215Y-77016066D01*
X144231411Y-77002696D01*
X144196336Y-76992397D01*
X144091114Y-76961500D01*
X144091111Y-76961500D01*
X143992499Y-76961500D01*
X143924378Y-76941498D01*
X143877885Y-76887842D01*
X143866499Y-76835500D01*
X143866499Y-76806936D01*
X143866498Y-76806927D01*
X143851734Y-76732700D01*
X143851734Y-76732699D01*
X143841245Y-76717001D01*
X143820030Y-76649251D01*
X143838812Y-76580784D01*
X143841218Y-76577038D01*
X143851734Y-76561301D01*
X143856725Y-76536206D01*
X143864939Y-76494918D01*
X143897847Y-76432008D01*
X143959542Y-76396877D01*
X143988518Y-76393500D01*
X144002223Y-76393500D01*
X144002225Y-76393500D01*
X144099254Y-76367501D01*
X144099257Y-76367499D01*
X144099258Y-76367499D01*
X144170270Y-76326500D01*
X144186247Y-76317276D01*
X144257276Y-76246247D01*
X144657217Y-75846306D01*
X144719529Y-75812280D01*
X144746312Y-75809401D01*
X148395301Y-75809401D01*
X148463422Y-75829403D01*
G37*
%TD.AperFunction*%
%TA.AperFunction,Conductor*%
G36*
X157099422Y-75829403D02*
G01*
X157145915Y-75883059D01*
X157157301Y-75935401D01*
X157157301Y-77357964D01*
X157157302Y-77357974D01*
X157172066Y-77432200D01*
X157172066Y-77432201D01*
X157172067Y-77432202D01*
X157219437Y-77503096D01*
X157240652Y-77570847D01*
X157239389Y-77591029D01*
X157220271Y-77723996D01*
X157220271Y-77724003D01*
X157241079Y-77868727D01*
X157241081Y-77868734D01*
X157301824Y-78001743D01*
X157366977Y-78076934D01*
X157397580Y-78112251D01*
X157419756Y-78126503D01*
X157466248Y-78180159D01*
X157476351Y-78250433D01*
X157446858Y-78315013D01*
X157387131Y-78353396D01*
X157351634Y-78358500D01*
X150613499Y-78358500D01*
X150545378Y-78338498D01*
X150498885Y-78284842D01*
X150487499Y-78232500D01*
X150487499Y-77682079D01*
X150507501Y-77613958D01*
X150561157Y-77567465D01*
X150631431Y-77557361D01*
X150664191Y-77569915D01*
X150665032Y-77567886D01*
X150676496Y-77572634D01*
X150676498Y-77572634D01*
X150676499Y-77572635D01*
X150750733Y-77587401D01*
X151461266Y-77587400D01*
X151461269Y-77587399D01*
X151461273Y-77587399D01*
X151510526Y-77577602D01*
X151535501Y-77572635D01*
X151619684Y-77516385D01*
X151675934Y-77432202D01*
X151690700Y-77357968D01*
X151690699Y-75935400D01*
X151710701Y-75867280D01*
X151764357Y-75820787D01*
X151816699Y-75809401D01*
X157031301Y-75809401D01*
X157099422Y-75829403D01*
G37*
%TD.AperFunction*%
%TA.AperFunction,Conductor*%
G36*
X163695421Y-72486702D02*
G01*
X163741914Y-72540358D01*
X163753300Y-72592700D01*
X163753300Y-97912500D01*
X163733298Y-97980621D01*
X163679642Y-98027114D01*
X163627300Y-98038500D01*
X158367993Y-98038500D01*
X158312838Y-98044430D01*
X158260516Y-98055812D01*
X158260510Y-98055813D01*
X158260499Y-98055816D01*
X158247707Y-98059325D01*
X158233710Y-98063165D01*
X158233709Y-98063166D01*
X158162971Y-98103446D01*
X158145720Y-98113270D01*
X158145713Y-98113275D01*
X158092076Y-98159752D01*
X158092058Y-98159769D01*
X158059944Y-98193049D01*
X158059944Y-98193050D01*
X158013014Y-98282767D01*
X158013013Y-98282770D01*
X157993011Y-98350891D01*
X157982821Y-98421766D01*
X157982500Y-98424002D01*
X157982500Y-107719387D01*
X157962498Y-107787508D01*
X157945595Y-107808482D01*
X157499753Y-108254324D01*
X157490584Y-108263493D01*
X157481419Y-108272657D01*
X157419105Y-108306679D01*
X157348289Y-108301610D01*
X157322325Y-108288321D01*
X157274502Y-108256366D01*
X157251718Y-108251834D01*
X157188808Y-108218926D01*
X157153677Y-108157231D01*
X157150300Y-108128255D01*
X157150300Y-108025744D01*
X157170302Y-107957623D01*
X157223958Y-107911130D01*
X157251721Y-107902165D01*
X157261973Y-107900125D01*
X157274501Y-107897634D01*
X157358684Y-107841384D01*
X157414934Y-107757201D01*
X157429700Y-107682967D01*
X157429699Y-106693034D01*
X157429698Y-106693030D01*
X157429698Y-106693026D01*
X157414934Y-106618799D01*
X157394020Y-106587500D01*
X157358684Y-106534616D01*
X157353000Y-106530818D01*
X157274502Y-106478366D01*
X157200268Y-106463600D01*
X156337336Y-106463600D01*
X156337326Y-106463601D01*
X156263099Y-106478365D01*
X156178915Y-106534616D01*
X156122666Y-106618797D01*
X156107900Y-106693030D01*
X156107900Y-107682963D01*
X156107901Y-107682973D01*
X156122665Y-107757200D01*
X156178916Y-107841384D01*
X156263097Y-107897634D01*
X156278128Y-107900623D01*
X156285879Y-107902165D01*
X156348789Y-107935071D01*
X156383922Y-107996765D01*
X156387300Y-108025744D01*
X156387300Y-108128255D01*
X156367298Y-108196376D01*
X156313642Y-108242869D01*
X156285883Y-108251834D01*
X156263098Y-108256366D01*
X156178915Y-108312616D01*
X156122666Y-108396797D01*
X156107900Y-108471030D01*
X156107900Y-109460963D01*
X156107901Y-109460973D01*
X156122665Y-109535200D01*
X156178916Y-109619384D01*
X156263097Y-109675633D01*
X156263099Y-109675634D01*
X156337333Y-109690400D01*
X157200266Y-109690399D01*
X157201914Y-109690071D01*
X157202793Y-109690149D01*
X157206428Y-109689792D01*
X157206495Y-109690480D01*
X157272627Y-109696396D01*
X157328696Y-109739947D01*
X157352319Y-109806899D01*
X157352500Y-109813649D01*
X157352500Y-110161022D01*
X157332498Y-110229143D01*
X157278842Y-110275636D01*
X157219157Y-110285585D01*
X157219157Y-110286300D01*
X157214872Y-110286300D01*
X157214171Y-110286417D01*
X157212981Y-110286300D01*
X156223036Y-110286300D01*
X156223026Y-110286301D01*
X156148799Y-110301065D01*
X156064615Y-110357316D01*
X156019399Y-110424985D01*
X155964921Y-110470512D01*
X155894478Y-110479359D01*
X155830435Y-110448717D01*
X155809870Y-110424985D01*
X155777484Y-110376516D01*
X155777482Y-110376515D01*
X155777482Y-110376514D01*
X155693302Y-110320266D01*
X155619068Y-110305500D01*
X154768936Y-110305500D01*
X154768926Y-110305501D01*
X154694699Y-110320265D01*
X154610515Y-110376516D01*
X154554266Y-110460697D01*
X154539500Y-110534930D01*
X154539500Y-110534933D01*
X154539500Y-110950165D01*
X154539501Y-111252500D01*
X154519499Y-111320621D01*
X154465843Y-111367114D01*
X154413501Y-111378500D01*
X154286759Y-111378500D01*
X154286743Y-111378499D01*
X154279025Y-111378499D01*
X154266400Y-111378499D01*
X154198279Y-111358497D01*
X154151786Y-111304841D01*
X154140400Y-111252499D01*
X154140399Y-110515736D01*
X154140398Y-110515726D01*
X154125634Y-110441499D01*
X154117926Y-110429963D01*
X154069384Y-110357316D01*
X154050499Y-110344697D01*
X153974882Y-110294170D01*
X153976207Y-110292186D01*
X153934084Y-110258240D01*
X153911665Y-110190876D01*
X153929225Y-110122085D01*
X153981188Y-110073708D01*
X153992045Y-110069988D01*
X153991836Y-110069483D01*
X154003299Y-110064734D01*
X154003301Y-110064734D01*
X154087484Y-110008484D01*
X154143734Y-109924301D01*
X154158500Y-109850067D01*
X154158500Y-109757500D01*
X154178502Y-109689379D01*
X154232158Y-109642886D01*
X154284500Y-109631500D01*
X154533227Y-109631500D01*
X154601348Y-109651502D01*
X154603220Y-109652729D01*
X154637499Y-109675634D01*
X154711733Y-109690400D01*
X155574666Y-109690399D01*
X155574669Y-109690398D01*
X155574673Y-109690398D01*
X155623926Y-109680601D01*
X155648901Y-109675634D01*
X155733084Y-109619384D01*
X155789334Y-109535201D01*
X155804100Y-109460967D01*
X155804099Y-108471034D01*
X155804098Y-108471030D01*
X155804098Y-108471026D01*
X155789334Y-108396799D01*
X155745588Y-108331330D01*
X155733084Y-108312616D01*
X155724199Y-108306679D01*
X155648902Y-108256366D01*
X155574669Y-108241600D01*
X155574667Y-108241600D01*
X155112916Y-108241600D01*
X155044795Y-108221598D01*
X154998302Y-108167942D01*
X154988198Y-108097668D01*
X155017692Y-108033088D01*
X155023821Y-108026505D01*
X155101022Y-107949304D01*
X155163334Y-107915278D01*
X155190117Y-107912399D01*
X155574664Y-107912399D01*
X155574666Y-107912399D01*
X155574669Y-107912398D01*
X155574672Y-107912398D01*
X155626120Y-107902165D01*
X155648901Y-107897634D01*
X155733084Y-107841384D01*
X155789334Y-107757201D01*
X155804100Y-107682967D01*
X155804099Y-106693034D01*
X155804098Y-106693030D01*
X155804098Y-106693026D01*
X155789334Y-106618799D01*
X155768420Y-106587500D01*
X155733084Y-106534616D01*
X155733083Y-106534615D01*
X155707697Y-106517652D01*
X155662170Y-106463175D01*
X155651700Y-106412888D01*
X155651700Y-106234999D01*
X155671702Y-106166878D01*
X155725358Y-106120385D01*
X155777700Y-106108999D01*
X157136764Y-106108999D01*
X157136766Y-106108999D01*
X157136769Y-106108998D01*
X157136772Y-106108998D01*
X157193308Y-106097753D01*
X157211001Y-106094234D01*
X157295184Y-106037984D01*
X157351434Y-105953801D01*
X157366200Y-105879567D01*
X157366199Y-98336434D01*
X157363093Y-98320819D01*
X157351434Y-98262199D01*
X157339876Y-98244901D01*
X157295184Y-98178016D01*
X157284186Y-98170667D01*
X157211002Y-98121766D01*
X157136767Y-98107000D01*
X155283236Y-98107000D01*
X155283226Y-98107001D01*
X155208999Y-98121765D01*
X155124815Y-98178016D01*
X155068566Y-98262197D01*
X155053800Y-98336430D01*
X155053800Y-105286880D01*
X155033798Y-105355001D01*
X155016896Y-105375975D01*
X154736298Y-105656573D01*
X154687131Y-105741734D01*
X154669354Y-105772523D01*
X154669353Y-105772524D01*
X154669353Y-105772526D01*
X154634700Y-105901855D01*
X154634700Y-105901856D01*
X154634700Y-106412888D01*
X154614698Y-106481009D01*
X154578703Y-106517652D01*
X154553315Y-106534615D01*
X154497066Y-106618797D01*
X154482300Y-106693030D01*
X154482300Y-107077582D01*
X154462298Y-107145703D01*
X154445395Y-107166677D01*
X154207477Y-107404595D01*
X154145165Y-107438621D01*
X154118382Y-107441500D01*
X153424818Y-107441500D01*
X153356697Y-107421498D01*
X153335723Y-107404595D01*
X153245404Y-107314276D01*
X153211378Y-107251964D01*
X153208499Y-107225190D01*
X153208499Y-106049934D01*
X153208498Y-106049930D01*
X153208498Y-106049926D01*
X153193734Y-105975699D01*
X153137483Y-105891515D01*
X153053302Y-105835266D01*
X152979069Y-105820500D01*
X152449675Y-105820500D01*
X152381554Y-105800498D01*
X152335061Y-105746842D01*
X152324957Y-105676568D01*
X152354451Y-105611988D01*
X152379666Y-105589740D01*
X152431084Y-105555384D01*
X152487334Y-105471201D01*
X152502100Y-105396967D01*
X152502099Y-104407034D01*
X152502098Y-104407030D01*
X152502098Y-104407026D01*
X152487334Y-104332799D01*
X152487333Y-104332797D01*
X152431084Y-104248616D01*
X152431082Y-104248615D01*
X152431082Y-104248614D01*
X152406312Y-104232062D01*
X152360785Y-104177584D01*
X152351939Y-104107141D01*
X152382582Y-104043098D01*
X152406312Y-104022535D01*
X152431084Y-104005984D01*
X152487334Y-103921801D01*
X152502100Y-103847567D01*
X152502099Y-102400434D01*
X152502098Y-102400430D01*
X152502098Y-102400426D01*
X152487334Y-102326199D01*
X152460139Y-102285500D01*
X152431084Y-102242016D01*
X152431083Y-102242015D01*
X152346902Y-102185766D01*
X152272667Y-102171000D01*
X151206536Y-102171000D01*
X151206526Y-102171001D01*
X151132299Y-102185765D01*
X151048115Y-102242016D01*
X150991866Y-102326197D01*
X150977100Y-102400430D01*
X150977100Y-103037983D01*
X150957098Y-103106104D01*
X150903442Y-103152597D01*
X150833168Y-103162701D01*
X150815602Y-103158879D01*
X150695116Y-103123501D01*
X150695113Y-103123500D01*
X150695111Y-103123500D01*
X150548889Y-103123500D01*
X150548885Y-103123500D01*
X150408589Y-103164696D01*
X150408587Y-103164697D01*
X150285579Y-103243749D01*
X150189824Y-103354256D01*
X150129081Y-103487265D01*
X150129079Y-103487272D01*
X150108271Y-103631996D01*
X150108271Y-103632003D01*
X150129079Y-103776727D01*
X150129081Y-103776734D01*
X150189824Y-103909743D01*
X150285579Y-104020250D01*
X150408589Y-104099304D01*
X150528039Y-104134378D01*
X150548885Y-104140499D01*
X150548886Y-104140499D01*
X150548889Y-104140500D01*
X150548892Y-104140500D01*
X150695108Y-104140500D01*
X150695111Y-104140500D01*
X150835411Y-104099304D01*
X150922869Y-104043098D01*
X150937801Y-104033502D01*
X151005922Y-104013500D01*
X151021142Y-104013500D01*
X151089263Y-104033502D01*
X151091145Y-104034736D01*
X151132297Y-104062233D01*
X151132299Y-104062234D01*
X151162328Y-104068207D01*
X151225238Y-104101113D01*
X151260371Y-104162808D01*
X151256571Y-104233703D01*
X151242513Y-104261788D01*
X151195066Y-104332797D01*
X151180300Y-104407030D01*
X151180300Y-105396963D01*
X151180301Y-105396973D01*
X151195065Y-105471200D01*
X151242028Y-105541484D01*
X151251316Y-105555384D01*
X151266503Y-105565532D01*
X151312029Y-105620006D01*
X151322500Y-105670295D01*
X151322500Y-105756023D01*
X151302498Y-105824144D01*
X151266503Y-105860787D01*
X151220515Y-105891515D01*
X151164266Y-105975697D01*
X151149500Y-106049930D01*
X151149500Y-106142500D01*
X151129498Y-106210621D01*
X151075842Y-106257114D01*
X151023500Y-106268500D01*
X150651425Y-106268500D01*
X150550975Y-106268500D01*
X150508189Y-106279964D01*
X150453942Y-106294499D01*
X150366956Y-106344721D01*
X150366950Y-106344726D01*
X150272280Y-106439396D01*
X150209968Y-106473421D01*
X150183185Y-106476300D01*
X149619036Y-106476300D01*
X149619026Y-106476301D01*
X149544799Y-106491065D01*
X149460615Y-106547316D01*
X149404366Y-106631497D01*
X149389600Y-106705730D01*
X149389600Y-107568663D01*
X149389601Y-107568673D01*
X149404365Y-107642900D01*
X149460616Y-107727084D01*
X149544797Y-107783333D01*
X149544799Y-107783334D01*
X149619033Y-107798100D01*
X150234988Y-107798099D01*
X150303108Y-107818101D01*
X150349601Y-107871757D01*
X150359705Y-107942030D01*
X150330212Y-108006611D01*
X150324082Y-108013194D01*
X150272281Y-108064995D01*
X150209969Y-108099021D01*
X150183186Y-108101900D01*
X149619036Y-108101900D01*
X149619026Y-108101901D01*
X149544799Y-108116665D01*
X149460615Y-108172916D01*
X149404366Y-108257097D01*
X149389600Y-108331330D01*
X149389600Y-109194263D01*
X149389601Y-109194273D01*
X149404365Y-109268500D01*
X149460616Y-109352684D01*
X149544797Y-109408933D01*
X149544799Y-109408934D01*
X149619033Y-109423700D01*
X150608966Y-109423699D01*
X150608969Y-109423698D01*
X150608973Y-109423698D01*
X150658226Y-109413901D01*
X150683201Y-109408934D01*
X150767384Y-109352684D01*
X150823634Y-109268501D01*
X150838400Y-109194267D01*
X150838399Y-108711499D01*
X150858401Y-108643379D01*
X150912056Y-108596886D01*
X150964399Y-108585500D01*
X151023500Y-108585500D01*
X151091621Y-108605502D01*
X151138114Y-108659158D01*
X151149500Y-108711500D01*
X151149500Y-109850063D01*
X151149501Y-109850073D01*
X151164265Y-109924300D01*
X151164267Y-109924302D01*
X151220516Y-110008484D01*
X151266502Y-110039211D01*
X151312030Y-110093688D01*
X151322500Y-110143976D01*
X151322500Y-110233917D01*
X151302498Y-110302038D01*
X151266504Y-110338681D01*
X151238617Y-110357315D01*
X151238615Y-110357316D01*
X151182366Y-110441497D01*
X151167600Y-110515730D01*
X151167600Y-111378663D01*
X151167601Y-111378673D01*
X151182365Y-111452900D01*
X151238616Y-111537084D01*
X151322797Y-111593333D01*
X151322799Y-111593334D01*
X151397033Y-111608100D01*
X152386966Y-111608099D01*
X152386969Y-111608098D01*
X152386973Y-111608098D01*
X152436226Y-111598301D01*
X152461201Y-111593334D01*
X152545384Y-111537084D01*
X152549234Y-111531321D01*
X152603710Y-111485793D01*
X152674153Y-111476944D01*
X152738198Y-111507584D01*
X152758766Y-111531322D01*
X152762616Y-111537084D01*
X152846797Y-111593333D01*
X152846799Y-111593334D01*
X152921033Y-111608100D01*
X153536987Y-111608099D01*
X153605107Y-111628101D01*
X153651600Y-111681757D01*
X153661704Y-111752030D01*
X153632211Y-111816611D01*
X153626081Y-111823194D01*
X153574280Y-111874995D01*
X153511968Y-111909021D01*
X153485185Y-111911900D01*
X152921036Y-111911900D01*
X152921026Y-111911901D01*
X152846799Y-111926665D01*
X152762615Y-111982916D01*
X152706366Y-112067097D01*
X152691600Y-112141330D01*
X152691600Y-113004263D01*
X152691601Y-113004273D01*
X152706365Y-113078500D01*
X152762616Y-113162684D01*
X152846797Y-113218933D01*
X152846799Y-113218934D01*
X152921033Y-113233700D01*
X153910966Y-113233699D01*
X153910969Y-113233698D01*
X153910973Y-113233698D01*
X153960226Y-113223901D01*
X153985201Y-113218934D01*
X154069384Y-113162684D01*
X154125634Y-113078501D01*
X154140400Y-113004267D01*
X154140399Y-112440113D01*
X154160401Y-112371993D01*
X154177304Y-112351018D01*
X154349919Y-112178404D01*
X154412231Y-112144379D01*
X154439014Y-112141500D01*
X155745787Y-112141500D01*
X155813908Y-112161502D01*
X155834882Y-112178405D01*
X155956695Y-112300218D01*
X155990721Y-112362530D01*
X155993600Y-112389313D01*
X155993600Y-113004263D01*
X155993601Y-113004273D01*
X156008365Y-113078500D01*
X156064616Y-113162684D01*
X156148797Y-113218933D01*
X156148799Y-113218934D01*
X156223033Y-113233700D01*
X157212966Y-113233699D01*
X157212969Y-113233698D01*
X157212973Y-113233698D01*
X157262226Y-113223901D01*
X157287201Y-113218934D01*
X157371384Y-113162684D01*
X157427634Y-113078501D01*
X157442400Y-113004267D01*
X157442399Y-112440112D01*
X157462401Y-112371992D01*
X157479299Y-112351022D01*
X158039276Y-111791047D01*
X158089501Y-111704054D01*
X158115500Y-111607025D01*
X158115500Y-108769813D01*
X158135502Y-108701692D01*
X158152405Y-108680718D01*
X158586718Y-108246405D01*
X158649030Y-108212379D01*
X158675813Y-108209500D01*
X162036215Y-108209500D01*
X162104336Y-108229502D01*
X162150829Y-108283158D01*
X162160933Y-108353432D01*
X162140980Y-108405502D01*
X162104366Y-108460297D01*
X162089600Y-108534530D01*
X162089600Y-109397463D01*
X162089601Y-109397473D01*
X162104365Y-109471700D01*
X162154632Y-109546928D01*
X162160616Y-109555884D01*
X162244593Y-109611996D01*
X162290121Y-109666473D01*
X162297196Y-109718988D01*
X162300271Y-109718988D01*
X162300271Y-109728000D01*
X162302145Y-109741036D01*
X162304217Y-109755442D01*
X162305500Y-109773376D01*
X162305500Y-109794944D01*
X162313045Y-109823106D01*
X162316054Y-109837779D01*
X162321080Y-109872730D01*
X162321081Y-109872733D01*
X162329444Y-109891048D01*
X162336534Y-109910770D01*
X162340152Y-109924274D01*
X162358516Y-109956080D01*
X162364006Y-109966728D01*
X162381824Y-110005743D01*
X162381825Y-110005744D01*
X162390023Y-110015205D01*
X162403918Y-110034717D01*
X162407096Y-110040222D01*
X162407098Y-110040225D01*
X162407099Y-110040226D01*
X162438413Y-110071540D01*
X162444532Y-110078111D01*
X162476505Y-110115011D01*
X162477580Y-110116251D01*
X162477581Y-110116252D01*
X162481698Y-110118898D01*
X162497199Y-110131390D01*
X162501769Y-110134896D01*
X162501774Y-110134901D01*
X162546699Y-110160839D01*
X162551774Y-110163932D01*
X162600589Y-110195304D01*
X162600591Y-110195304D01*
X162600592Y-110195305D01*
X162601650Y-110195788D01*
X162611445Y-110199244D01*
X162617717Y-110201842D01*
X162617726Y-110201847D01*
X162635861Y-110206706D01*
X162675108Y-110217222D01*
X162678001Y-110218033D01*
X162740889Y-110236500D01*
X162740892Y-110236500D01*
X162887109Y-110236500D01*
X162887111Y-110236500D01*
X162950050Y-110218018D01*
X162952795Y-110217247D01*
X163010274Y-110201847D01*
X163010281Y-110201842D01*
X163016552Y-110199245D01*
X163026346Y-110195790D01*
X163027407Y-110195304D01*
X163027411Y-110195304D01*
X163076225Y-110163932D01*
X163081300Y-110160838D01*
X163126226Y-110134901D01*
X163126229Y-110134897D01*
X163130816Y-110131378D01*
X163146307Y-110118893D01*
X163150421Y-110116250D01*
X163183482Y-110078094D01*
X163189570Y-110071555D01*
X163220901Y-110040226D01*
X163224079Y-110034720D01*
X163237977Y-110015203D01*
X163246176Y-110005743D01*
X163263992Y-109966727D01*
X163269484Y-109956078D01*
X163274799Y-109946871D01*
X163287847Y-109924274D01*
X163291463Y-109910775D01*
X163298559Y-109891038D01*
X163306919Y-109872734D01*
X163311946Y-109837766D01*
X163314954Y-109823106D01*
X163322500Y-109794945D01*
X163322500Y-109773376D01*
X163323783Y-109755442D01*
X163325855Y-109741036D01*
X163327729Y-109728000D01*
X163327729Y-109718988D01*
X163330956Y-109718988D01*
X163338776Y-109664459D01*
X163383403Y-109611998D01*
X163467384Y-109555884D01*
X163522536Y-109473344D01*
X163577013Y-109427818D01*
X163647456Y-109418971D01*
X163711500Y-109449612D01*
X163748811Y-109510014D01*
X163753300Y-109543348D01*
X163753300Y-114351300D01*
X163733298Y-114419421D01*
X163679642Y-114465914D01*
X163627300Y-114477300D01*
X115264700Y-114477300D01*
X115196579Y-114457298D01*
X115150086Y-114403642D01*
X115138700Y-114351300D01*
X115138700Y-113727867D01*
X115158702Y-113659746D01*
X115212358Y-113613253D01*
X115282632Y-113603149D01*
X115347212Y-113632643D01*
X115369465Y-113657866D01*
X115386515Y-113683384D01*
X115470697Y-113739633D01*
X115470699Y-113739634D01*
X115544933Y-113754400D01*
X116407866Y-113754399D01*
X116407869Y-113754398D01*
X116407873Y-113754398D01*
X116457126Y-113744601D01*
X116482101Y-113739634D01*
X116566284Y-113683384D01*
X116622534Y-113599201D01*
X116637300Y-113524967D01*
X116637299Y-112535034D01*
X116637298Y-112535030D01*
X116941100Y-112535030D01*
X116941100Y-113524963D01*
X116941101Y-113524973D01*
X116955865Y-113599200D01*
X117012116Y-113683384D01*
X117096297Y-113739633D01*
X117096299Y-113739634D01*
X117170533Y-113754400D01*
X118033466Y-113754399D01*
X118033469Y-113754398D01*
X118033473Y-113754398D01*
X118082726Y-113744601D01*
X118107701Y-113739634D01*
X118191884Y-113683384D01*
X118248134Y-113599201D01*
X118262900Y-113524967D01*
X118262899Y-112535034D01*
X118262898Y-112535030D01*
X118566700Y-112535030D01*
X118566700Y-113524963D01*
X118566701Y-113524973D01*
X118581465Y-113599200D01*
X118637716Y-113683384D01*
X118721897Y-113739633D01*
X118721899Y-113739634D01*
X118796133Y-113754400D01*
X119659066Y-113754399D01*
X119659069Y-113754398D01*
X119659073Y-113754398D01*
X119708326Y-113744601D01*
X119733301Y-113739634D01*
X119817484Y-113683384D01*
X119873734Y-113599201D01*
X119888500Y-113524967D01*
X119888499Y-112535034D01*
X119873734Y-112460799D01*
X119873733Y-112460797D01*
X119873458Y-112459414D01*
X119872320Y-112416901D01*
X119893729Y-112268003D01*
X119893729Y-112267996D01*
X119872920Y-112123272D01*
X119872919Y-112123271D01*
X119872919Y-112123266D01*
X119812176Y-111990257D01*
X119716421Y-111879750D01*
X119716420Y-111879749D01*
X119618175Y-111816611D01*
X119593411Y-111800696D01*
X119558336Y-111790397D01*
X119453114Y-111759500D01*
X119453111Y-111759500D01*
X119306889Y-111759500D01*
X119306885Y-111759500D01*
X119166589Y-111800696D01*
X119166587Y-111800697D01*
X119043579Y-111879749D01*
X118947824Y-111990256D01*
X118887081Y-112123265D01*
X118887079Y-112123272D01*
X118875459Y-112204093D01*
X118845966Y-112268674D01*
X118786240Y-112307057D01*
X118775322Y-112309740D01*
X118721899Y-112320365D01*
X118637715Y-112376616D01*
X118581466Y-112460797D01*
X118566700Y-112535030D01*
X118262898Y-112535030D01*
X118262898Y-112535029D01*
X118262898Y-112535026D01*
X118248134Y-112460799D01*
X118191884Y-112376616D01*
X118171628Y-112363081D01*
X118126101Y-112308603D01*
X118116914Y-112276249D01*
X118115728Y-112268003D01*
X118115729Y-112268000D01*
X118094919Y-112123266D01*
X118034176Y-111990257D01*
X117938421Y-111879750D01*
X117938420Y-111879749D01*
X117840175Y-111816611D01*
X117815411Y-111800696D01*
X117780336Y-111790397D01*
X117675114Y-111759500D01*
X117675111Y-111759500D01*
X117528889Y-111759500D01*
X117528885Y-111759500D01*
X117388589Y-111800696D01*
X117388587Y-111800697D01*
X117265579Y-111879749D01*
X117169824Y-111990256D01*
X117109081Y-112123265D01*
X117109079Y-112123272D01*
X117087084Y-112276249D01*
X117057591Y-112340830D01*
X117032372Y-112363080D01*
X117012118Y-112376613D01*
X117012115Y-112376616D01*
X116955866Y-112460797D01*
X116941100Y-112535030D01*
X116637298Y-112535030D01*
X116637298Y-112535029D01*
X116637298Y-112535026D01*
X116622534Y-112460799D01*
X116613756Y-112447662D01*
X116566284Y-112376616D01*
X116566280Y-112376613D01*
X116482102Y-112320366D01*
X116459318Y-112315834D01*
X116396408Y-112282926D01*
X116361277Y-112221231D01*
X116357900Y-112192255D01*
X116357900Y-111073744D01*
X116377902Y-111005623D01*
X116431558Y-110959130D01*
X116459321Y-110950165D01*
X116469573Y-110948125D01*
X116482101Y-110945634D01*
X116566284Y-110889384D01*
X116622534Y-110805201D01*
X116637300Y-110730967D01*
X116637299Y-109741034D01*
X116637298Y-109741030D01*
X116941100Y-109741030D01*
X116941100Y-110730963D01*
X116941101Y-110730973D01*
X116955865Y-110805200D01*
X117012116Y-110889384D01*
X117096297Y-110945633D01*
X117096299Y-110945634D01*
X117170533Y-110960400D01*
X118033466Y-110960399D01*
X118033469Y-110960398D01*
X118033473Y-110960398D01*
X118084920Y-110950165D01*
X118107701Y-110945634D01*
X118191884Y-110889384D01*
X118248134Y-110805201D01*
X118262900Y-110730967D01*
X118262899Y-110166811D01*
X118282901Y-110098691D01*
X118299799Y-110077722D01*
X118351607Y-110025914D01*
X118413917Y-109991890D01*
X118484732Y-109996955D01*
X118541568Y-110039502D01*
X118566379Y-110106022D01*
X118566700Y-110115011D01*
X118566700Y-110730963D01*
X118566701Y-110730973D01*
X118581465Y-110805200D01*
X118637716Y-110889384D01*
X118721897Y-110945633D01*
X118721899Y-110945634D01*
X118796133Y-110960400D01*
X119659066Y-110960399D01*
X119659069Y-110960398D01*
X119659073Y-110960398D01*
X119710520Y-110950165D01*
X119733301Y-110945634D01*
X119817484Y-110889384D01*
X119873734Y-110805201D01*
X119873734Y-110805200D01*
X119876877Y-110800497D01*
X119931355Y-110754970D01*
X119981642Y-110744500D01*
X121870501Y-110744500D01*
X121938622Y-110764502D01*
X121985115Y-110818158D01*
X121996501Y-110870500D01*
X121996501Y-110946072D01*
X122011265Y-111020300D01*
X122067516Y-111104484D01*
X122151697Y-111160733D01*
X122151699Y-111160734D01*
X122225933Y-111175500D01*
X123646066Y-111175499D01*
X123646069Y-111175498D01*
X123646073Y-111175498D01*
X123695326Y-111165701D01*
X123720301Y-111160734D01*
X123804484Y-111104484D01*
X123860734Y-111020301D01*
X123875500Y-110946067D01*
X123875499Y-109525934D01*
X123875498Y-109525930D01*
X123875498Y-109525926D01*
X123860734Y-109451699D01*
X123839884Y-109420495D01*
X123804484Y-109367516D01*
X123804483Y-109367515D01*
X123720302Y-109311266D01*
X123646069Y-109296500D01*
X123646067Y-109296500D01*
X123443500Y-109296500D01*
X123375379Y-109276498D01*
X123328886Y-109222842D01*
X123317500Y-109170500D01*
X123317500Y-104523221D01*
X123337502Y-104455100D01*
X123348273Y-104440711D01*
X123368176Y-104417743D01*
X123428919Y-104284734D01*
X123446450Y-104162808D01*
X123449729Y-104140003D01*
X123449729Y-104139996D01*
X123428920Y-103995272D01*
X123428919Y-103995271D01*
X123428919Y-103995266D01*
X123368176Y-103862257D01*
X123272421Y-103751750D01*
X123272420Y-103751749D01*
X123210916Y-103712223D01*
X123149411Y-103672696D01*
X123114336Y-103662397D01*
X123009114Y-103631500D01*
X123009111Y-103631500D01*
X122862889Y-103631500D01*
X122862885Y-103631500D01*
X122722589Y-103672696D01*
X122722587Y-103672697D01*
X122599579Y-103751749D01*
X122503824Y-103862256D01*
X122443081Y-103995265D01*
X122443079Y-103995272D01*
X122422271Y-104139996D01*
X122422271Y-104140003D01*
X122443079Y-104284727D01*
X122443081Y-104284734D01*
X122503824Y-104417743D01*
X122523723Y-104440708D01*
X122553217Y-104505287D01*
X122554500Y-104523221D01*
X122554500Y-109170500D01*
X122534498Y-109238621D01*
X122480842Y-109285114D01*
X122428501Y-109296500D01*
X122225936Y-109296500D01*
X122225926Y-109296501D01*
X122151699Y-109311265D01*
X122067515Y-109367516D01*
X122011266Y-109451697D01*
X121996500Y-109525930D01*
X121996500Y-109601500D01*
X121976498Y-109669621D01*
X121922842Y-109716114D01*
X121870500Y-109727500D01*
X119981641Y-109727500D01*
X119913520Y-109707498D01*
X119876876Y-109671502D01*
X119873732Y-109666797D01*
X119817484Y-109582616D01*
X119804624Y-109574023D01*
X119733302Y-109526366D01*
X119659069Y-109511600D01*
X118981214Y-109511600D01*
X118913093Y-109491598D01*
X118866600Y-109437942D01*
X118856496Y-109367668D01*
X118856497Y-109367668D01*
X118857557Y-109360300D01*
X118869606Y-109276498D01*
X118877729Y-109220003D01*
X118877729Y-109219996D01*
X118856920Y-109075272D01*
X118856919Y-109075271D01*
X118856919Y-109075266D01*
X118796176Y-108942257D01*
X118700421Y-108831750D01*
X118700420Y-108831749D01*
X118587998Y-108759500D01*
X118577411Y-108752696D01*
X118532463Y-108739498D01*
X118437114Y-108711500D01*
X118437111Y-108711500D01*
X118290889Y-108711500D01*
X118290885Y-108711500D01*
X118150589Y-108752696D01*
X118150587Y-108752697D01*
X118027579Y-108831749D01*
X117931824Y-108942256D01*
X117871081Y-109075265D01*
X117871079Y-109075272D01*
X117850271Y-109219996D01*
X117850271Y-109220003D01*
X117869981Y-109357089D01*
X117859878Y-109427363D01*
X117834359Y-109464116D01*
X117823780Y-109474695D01*
X117761468Y-109508721D01*
X117734685Y-109511600D01*
X117170536Y-109511600D01*
X117170526Y-109511601D01*
X117096299Y-109526365D01*
X117012115Y-109582616D01*
X116955866Y-109666797D01*
X116941100Y-109741030D01*
X116637298Y-109741030D01*
X116637298Y-109741026D01*
X116622534Y-109666801D01*
X116622534Y-109666799D01*
X116601193Y-109634861D01*
X116579979Y-109567114D01*
X116581241Y-109546938D01*
X116591729Y-109474000D01*
X116591729Y-109473996D01*
X116570920Y-109329272D01*
X116570919Y-109329271D01*
X116570919Y-109329266D01*
X116510176Y-109196257D01*
X116414421Y-109085750D01*
X116414420Y-109085749D01*
X116352916Y-109046223D01*
X116291411Y-109006696D01*
X116256336Y-108996397D01*
X116151114Y-108965500D01*
X116151111Y-108965500D01*
X116004889Y-108965500D01*
X116004885Y-108965500D01*
X115864589Y-109006696D01*
X115864587Y-109006697D01*
X115741579Y-109085749D01*
X115645824Y-109196256D01*
X115585081Y-109329265D01*
X115585079Y-109329271D01*
X115571963Y-109420495D01*
X115542470Y-109485075D01*
X115482743Y-109523458D01*
X115471833Y-109526140D01*
X115470699Y-109526365D01*
X115386516Y-109582615D01*
X115369464Y-109608135D01*
X115314986Y-109653662D01*
X115244542Y-109662508D01*
X115180499Y-109631866D01*
X115143189Y-109571463D01*
X115138700Y-109538131D01*
X115138700Y-105663996D01*
X117088271Y-105663996D01*
X117088271Y-105664003D01*
X117109079Y-105808727D01*
X117109081Y-105808734D01*
X117169824Y-105941743D01*
X117265579Y-106052250D01*
X117388589Y-106131304D01*
X117497523Y-106163290D01*
X117528885Y-106172499D01*
X117528886Y-106172499D01*
X117528889Y-106172500D01*
X117528892Y-106172500D01*
X117675108Y-106172500D01*
X117675111Y-106172500D01*
X117815411Y-106131304D01*
X117938421Y-106052250D01*
X118034176Y-105941743D01*
X118094919Y-105808734D01*
X118105429Y-105735630D01*
X118134921Y-105671053D01*
X118141023Y-105664498D01*
X119685276Y-104120247D01*
X119735502Y-104033253D01*
X119761501Y-103936225D01*
X119761501Y-103835775D01*
X119761501Y-103828058D01*
X119761500Y-103828040D01*
X119761500Y-102286381D01*
X119781502Y-102218260D01*
X119835158Y-102171767D01*
X119836069Y-102171356D01*
X119852338Y-102164113D01*
X120012111Y-102048030D01*
X120062801Y-101991733D01*
X120144252Y-101901273D01*
X120144252Y-101901272D01*
X120144258Y-101901266D01*
X120243004Y-101730234D01*
X120244218Y-101726500D01*
X120304032Y-101542409D01*
X120324675Y-101346000D01*
X120304032Y-101149591D01*
X120243004Y-100961766D01*
X120222893Y-100926933D01*
X120159381Y-100816926D01*
X120142500Y-100753926D01*
X120142500Y-99398073D01*
X120159381Y-99335073D01*
X120243003Y-99190235D01*
X120243004Y-99190234D01*
X120304032Y-99002409D01*
X120324675Y-98806000D01*
X120304032Y-98609591D01*
X120303254Y-98607198D01*
X120243004Y-98421766D01*
X120243003Y-98421764D01*
X120159381Y-98276926D01*
X120142500Y-98213926D01*
X120142500Y-96858073D01*
X120159381Y-96795073D01*
X120221071Y-96688223D01*
X120243004Y-96650234D01*
X120304032Y-96462409D01*
X120324675Y-96266000D01*
X120304032Y-96069591D01*
X120304031Y-96069589D01*
X120243004Y-95881766D01*
X120243003Y-95881764D01*
X120159381Y-95736926D01*
X120142500Y-95673926D01*
X120142500Y-94318073D01*
X120159381Y-94255073D01*
X120243003Y-94110235D01*
X120243004Y-94110234D01*
X120304032Y-93922409D01*
X120324675Y-93726000D01*
X120304032Y-93529591D01*
X120243004Y-93341766D01*
X120243003Y-93341764D01*
X120159381Y-93196926D01*
X120142500Y-93133926D01*
X120142500Y-91778073D01*
X120159381Y-91715073D01*
X120243003Y-91570235D01*
X120243004Y-91570234D01*
X120304032Y-91382409D01*
X120324675Y-91186000D01*
X120304032Y-90989591D01*
X120281763Y-90921055D01*
X120243004Y-90801766D01*
X120243003Y-90801764D01*
X120159381Y-90656926D01*
X120142500Y-90593926D01*
X120142500Y-89238073D01*
X120159381Y-89175073D01*
X120243003Y-89030235D01*
X120243004Y-89030234D01*
X120304032Y-88842409D01*
X120324675Y-88646000D01*
X120304032Y-88449591D01*
X120273420Y-88355378D01*
X120243004Y-88261766D01*
X120243003Y-88261764D01*
X120159381Y-88116926D01*
X120142500Y-88053926D01*
X120142500Y-86698073D01*
X120159381Y-86635073D01*
X120243003Y-86490235D01*
X120243004Y-86490234D01*
X120304032Y-86302409D01*
X120324675Y-86106000D01*
X120304032Y-85909591D01*
X120290104Y-85866726D01*
X120243004Y-85721766D01*
X120243003Y-85721764D01*
X120159381Y-85576926D01*
X120142500Y-85513926D01*
X120142500Y-84158073D01*
X120159381Y-84095073D01*
X120243003Y-83950235D01*
X120243004Y-83950234D01*
X120304032Y-83762409D01*
X120324675Y-83566000D01*
X120304032Y-83369591D01*
X120304032Y-83369590D01*
X120243005Y-83181767D01*
X120208210Y-83121501D01*
X120144258Y-83010734D01*
X120144254Y-83010729D01*
X120144252Y-83010726D01*
X120012114Y-82863972D01*
X119852338Y-82747887D01*
X119671921Y-82667561D01*
X119478745Y-82626500D01*
X119281255Y-82626500D01*
X119088078Y-82667561D01*
X118907662Y-82747887D01*
X118747886Y-82863971D01*
X118615747Y-83010726D01*
X118615743Y-83010733D01*
X118516994Y-83181767D01*
X118455967Y-83369590D01*
X118435325Y-83566000D01*
X118455967Y-83762409D01*
X118516995Y-83950233D01*
X118516996Y-83950235D01*
X118600619Y-84095073D01*
X118617500Y-84158073D01*
X118617500Y-85513926D01*
X118600619Y-85576926D01*
X118516996Y-85721764D01*
X118516995Y-85721766D01*
X118455967Y-85909590D01*
X118435325Y-86106000D01*
X118455967Y-86302409D01*
X118516995Y-86490233D01*
X118516996Y-86490235D01*
X118600619Y-86635073D01*
X118617500Y-86698073D01*
X118617500Y-88053926D01*
X118600619Y-88116926D01*
X118516996Y-88261764D01*
X118516995Y-88261766D01*
X118455967Y-88449590D01*
X118435325Y-88646000D01*
X118455967Y-88842409D01*
X118516995Y-89030233D01*
X118516996Y-89030235D01*
X118600619Y-89175073D01*
X118617500Y-89238073D01*
X118617500Y-90593926D01*
X118600619Y-90656926D01*
X118516996Y-90801764D01*
X118516995Y-90801766D01*
X118455967Y-90989590D01*
X118435325Y-91186000D01*
X118455967Y-91382409D01*
X118516995Y-91570233D01*
X118516996Y-91570235D01*
X118600619Y-91715073D01*
X118617500Y-91778073D01*
X118617500Y-93133926D01*
X118600619Y-93196926D01*
X118516996Y-93341764D01*
X118516995Y-93341766D01*
X118455967Y-93529590D01*
X118435325Y-93726000D01*
X118455967Y-93922409D01*
X118516995Y-94110233D01*
X118516996Y-94110235D01*
X118600619Y-94255073D01*
X118617500Y-94318073D01*
X118617500Y-95673926D01*
X118600619Y-95736926D01*
X118516996Y-95881764D01*
X118516995Y-95881766D01*
X118455967Y-96069590D01*
X118435325Y-96266000D01*
X118455967Y-96462409D01*
X118516995Y-96650233D01*
X118516996Y-96650235D01*
X118600619Y-96795073D01*
X118617500Y-96858073D01*
X118617500Y-98213926D01*
X118600619Y-98276926D01*
X118516996Y-98421764D01*
X118516995Y-98421766D01*
X118455967Y-98609590D01*
X118435325Y-98806000D01*
X118455967Y-99002409D01*
X118516995Y-99190233D01*
X118516996Y-99190235D01*
X118600619Y-99335073D01*
X118617500Y-99398073D01*
X118617500Y-100753926D01*
X118600619Y-100816926D01*
X118516996Y-100961764D01*
X118516995Y-100961766D01*
X118455967Y-101149590D01*
X118435325Y-101346000D01*
X118455967Y-101542409D01*
X118516994Y-101730232D01*
X118558218Y-101801633D01*
X118615742Y-101901266D01*
X118615744Y-101901269D01*
X118615747Y-101901273D01*
X118747885Y-102048027D01*
X118747888Y-102048029D01*
X118747889Y-102048030D01*
X118907662Y-102164113D01*
X118923746Y-102171274D01*
X118977842Y-102217250D01*
X118998494Y-102285177D01*
X118998500Y-102286381D01*
X118998500Y-103675787D01*
X118978498Y-103743908D01*
X118961595Y-103764882D01*
X117607698Y-105118778D01*
X117545386Y-105152804D01*
X117536536Y-105154400D01*
X117528892Y-105155499D01*
X117388589Y-105196696D01*
X117388587Y-105196697D01*
X117265579Y-105275749D01*
X117169824Y-105386256D01*
X117109081Y-105519265D01*
X117109079Y-105519272D01*
X117088271Y-105663996D01*
X115138700Y-105663996D01*
X115138700Y-76213030D01*
X118769900Y-76213030D01*
X118769900Y-77202963D01*
X118769901Y-77202973D01*
X118784665Y-77277200D01*
X118840916Y-77361384D01*
X118846680Y-77365236D01*
X118892207Y-77419714D01*
X118901054Y-77490157D01*
X118870412Y-77554200D01*
X118846680Y-77574764D01*
X118840915Y-77578615D01*
X118784666Y-77662797D01*
X118769900Y-77737030D01*
X118769900Y-78726963D01*
X118769901Y-78726973D01*
X118784665Y-78801200D01*
X118840916Y-78885384D01*
X118846680Y-78889236D01*
X118892207Y-78943714D01*
X118901054Y-79014157D01*
X118870412Y-79078200D01*
X118846680Y-79098764D01*
X118840915Y-79102615D01*
X118784666Y-79186797D01*
X118769900Y-79261030D01*
X118769900Y-80250963D01*
X118769901Y-80250973D01*
X118784665Y-80325200D01*
X118840916Y-80409384D01*
X118846680Y-80413236D01*
X118892207Y-80467714D01*
X118901054Y-80538157D01*
X118870412Y-80602200D01*
X118846680Y-80622764D01*
X118840915Y-80626615D01*
X118784666Y-80710797D01*
X118769900Y-80785030D01*
X118769900Y-81774963D01*
X118769901Y-81774973D01*
X118784665Y-81849200D01*
X118840916Y-81933384D01*
X118925097Y-81989633D01*
X118925099Y-81989634D01*
X118999333Y-82004400D01*
X119862266Y-82004399D01*
X119862269Y-82004398D01*
X119862273Y-82004398D01*
X119911526Y-81994601D01*
X119936501Y-81989634D01*
X120020684Y-81933384D01*
X120037235Y-81908614D01*
X120091712Y-81863086D01*
X120162156Y-81854239D01*
X120226199Y-81884880D01*
X120246765Y-81908614D01*
X120263316Y-81933384D01*
X120347497Y-81989633D01*
X120347499Y-81989634D01*
X120421733Y-82004400D01*
X121284666Y-82004399D01*
X121284669Y-82004398D01*
X121284673Y-82004398D01*
X121333926Y-81994601D01*
X121358901Y-81989634D01*
X121443084Y-81933384D01*
X121499334Y-81849201D01*
X121499334Y-81849200D01*
X121504082Y-81837738D01*
X121506686Y-81838816D01*
X121531058Y-81792217D01*
X121586238Y-81758806D01*
X121625411Y-81747304D01*
X121635589Y-81740762D01*
X121703708Y-81720759D01*
X121771830Y-81740759D01*
X121818324Y-81794414D01*
X121827291Y-81822178D01*
X121832666Y-81849201D01*
X121888916Y-81933384D01*
X121973097Y-81989633D01*
X121973099Y-81989634D01*
X122047333Y-82004400D01*
X122910266Y-82004399D01*
X122910269Y-82004398D01*
X122910273Y-82004398D01*
X122959526Y-81994601D01*
X122984501Y-81989634D01*
X123068684Y-81933384D01*
X123124934Y-81849201D01*
X123124934Y-81849200D01*
X123128077Y-81844497D01*
X123182555Y-81798970D01*
X123232842Y-81788500D01*
X123263108Y-81788500D01*
X123263111Y-81788500D01*
X123403411Y-81747304D01*
X123526421Y-81668250D01*
X123622176Y-81557743D01*
X123682919Y-81424734D01*
X123703729Y-81280000D01*
X123703729Y-81279996D01*
X123682920Y-81135272D01*
X123682919Y-81135271D01*
X123682919Y-81135266D01*
X123622176Y-81002257D01*
X123526421Y-80891750D01*
X123526420Y-80891749D01*
X123433545Y-80832062D01*
X123403411Y-80812696D01*
X123362669Y-80800733D01*
X123263114Y-80771500D01*
X123263111Y-80771500D01*
X123232841Y-80771500D01*
X123164720Y-80751498D01*
X123128076Y-80715502D01*
X123124932Y-80710797D01*
X123068684Y-80626616D01*
X123068683Y-80626615D01*
X123062917Y-80622762D01*
X123017391Y-80568284D01*
X123008545Y-80497840D01*
X123039188Y-80433797D01*
X123062918Y-80413236D01*
X123068684Y-80409384D01*
X123124934Y-80325201D01*
X123124934Y-80325200D01*
X123128077Y-80320497D01*
X123182555Y-80274970D01*
X123232842Y-80264500D01*
X123263108Y-80264500D01*
X123263111Y-80264500D01*
X123403411Y-80223304D01*
X123526421Y-80144250D01*
X123526426Y-80144244D01*
X123529516Y-80141567D01*
X123533249Y-80139861D01*
X123534002Y-80139378D01*
X123534071Y-80139486D01*
X123594095Y-80112070D01*
X123664369Y-80122169D01*
X123718028Y-80168658D01*
X123726649Y-80184444D01*
X123773824Y-80287743D01*
X123869579Y-80398250D01*
X123992589Y-80477304D01*
X124112039Y-80512378D01*
X124132885Y-80518499D01*
X124132886Y-80518499D01*
X124132889Y-80518500D01*
X124132892Y-80518500D01*
X124231500Y-80518500D01*
X124299621Y-80538502D01*
X124346114Y-80592158D01*
X124357500Y-80644500D01*
X124357500Y-81567063D01*
X124357501Y-81567073D01*
X124372265Y-81641299D01*
X124372265Y-81641300D01*
X124372266Y-81641301D01*
X124382754Y-81656998D01*
X124403969Y-81724749D01*
X124385187Y-81793216D01*
X124382755Y-81797000D01*
X124372266Y-81812697D01*
X124357500Y-81886930D01*
X124357500Y-82314785D01*
X124337498Y-82382906D01*
X124320596Y-82403880D01*
X123576882Y-83147595D01*
X123514569Y-83181620D01*
X123487786Y-83184500D01*
X122857329Y-83184500D01*
X122789208Y-83164498D01*
X122748210Y-83121501D01*
X122725806Y-83082697D01*
X122684258Y-83010734D01*
X122684254Y-83010729D01*
X122684252Y-83010726D01*
X122552114Y-82863972D01*
X122392338Y-82747887D01*
X122211921Y-82667561D01*
X122018745Y-82626500D01*
X121821255Y-82626500D01*
X121628078Y-82667561D01*
X121447662Y-82747887D01*
X121287886Y-82863971D01*
X121155747Y-83010726D01*
X121155743Y-83010733D01*
X121056994Y-83181767D01*
X120995967Y-83369590D01*
X120975325Y-83566000D01*
X120995967Y-83762409D01*
X121056994Y-83950232D01*
X121091790Y-84010499D01*
X121155742Y-84121266D01*
X121155744Y-84121269D01*
X121155747Y-84121273D01*
X121287885Y-84268027D01*
X121287888Y-84268029D01*
X121287889Y-84268030D01*
X121447662Y-84384113D01*
X121628079Y-84464439D01*
X121821255Y-84505500D01*
X122018745Y-84505500D01*
X122211921Y-84464439D01*
X122392338Y-84384113D01*
X122552111Y-84268030D01*
X122552114Y-84268027D01*
X122684252Y-84121273D01*
X122684252Y-84121272D01*
X122684258Y-84121266D01*
X122748210Y-84010499D01*
X122799593Y-83961506D01*
X122857329Y-83947500D01*
X123742787Y-83947500D01*
X123810908Y-83967502D01*
X123857401Y-84021158D01*
X123867505Y-84091432D01*
X123838011Y-84156012D01*
X123831885Y-84162590D01*
X123150976Y-84843500D01*
X122650444Y-85344032D01*
X122588132Y-85378058D01*
X122517316Y-85372993D01*
X122487288Y-85356873D01*
X122392338Y-85287887D01*
X122211921Y-85207561D01*
X122018745Y-85166500D01*
X121821255Y-85166500D01*
X121628078Y-85207561D01*
X121447662Y-85287887D01*
X121287886Y-85403971D01*
X121155747Y-85550726D01*
X121155743Y-85550733D01*
X121056994Y-85721767D01*
X120995967Y-85909590D01*
X120975325Y-86106000D01*
X120995967Y-86302409D01*
X121056994Y-86490232D01*
X121102228Y-86568579D01*
X121155742Y-86661266D01*
X121155744Y-86661269D01*
X121155747Y-86661273D01*
X121287885Y-86808027D01*
X121287888Y-86808029D01*
X121287889Y-86808030D01*
X121447662Y-86924113D01*
X121628079Y-87004439D01*
X121821255Y-87045500D01*
X121914785Y-87045500D01*
X121982906Y-87065502D01*
X122029399Y-87119158D01*
X122039503Y-87189432D01*
X122010009Y-87254012D01*
X122003881Y-87260595D01*
X121685753Y-87578724D01*
X121685752Y-87578724D01*
X121614729Y-87649746D01*
X121614723Y-87649754D01*
X121564497Y-87736749D01*
X121563863Y-87738281D01*
X121562982Y-87739372D01*
X121560371Y-87743897D01*
X121559665Y-87743489D01*
X121519310Y-87793558D01*
X121498708Y-87805159D01*
X121447669Y-87827883D01*
X121447663Y-87827887D01*
X121287886Y-87943971D01*
X121155747Y-88090726D01*
X121155743Y-88090733D01*
X121056994Y-88261767D01*
X120995967Y-88449590D01*
X120975325Y-88646000D01*
X120995967Y-88842409D01*
X121056994Y-89030232D01*
X121102228Y-89108579D01*
X121155742Y-89201266D01*
X121155744Y-89201269D01*
X121155747Y-89201273D01*
X121287885Y-89348027D01*
X121287888Y-89348029D01*
X121287889Y-89348030D01*
X121447662Y-89464113D01*
X121628079Y-89544439D01*
X121821255Y-89585500D01*
X122018745Y-89585500D01*
X122211921Y-89544439D01*
X122392338Y-89464113D01*
X122552111Y-89348030D01*
X122588863Y-89307213D01*
X122649309Y-89269972D01*
X122720292Y-89271323D01*
X122779277Y-89310836D01*
X122807536Y-89375967D01*
X122808500Y-89391522D01*
X122808500Y-89705785D01*
X122788498Y-89773906D01*
X122771595Y-89794881D01*
X122315545Y-90250930D01*
X122253233Y-90284955D01*
X122200253Y-90285080D01*
X122018745Y-90246500D01*
X121821255Y-90246500D01*
X121628078Y-90287561D01*
X121447662Y-90367887D01*
X121287886Y-90483971D01*
X121155747Y-90630726D01*
X121155743Y-90630733D01*
X121056994Y-90801767D01*
X120995967Y-90989590D01*
X120975325Y-91186000D01*
X120995967Y-91382409D01*
X121056994Y-91570232D01*
X121102228Y-91648579D01*
X121155742Y-91741266D01*
X121155744Y-91741269D01*
X121155747Y-91741273D01*
X121287885Y-91888027D01*
X121287888Y-91888029D01*
X121287889Y-91888030D01*
X121447662Y-92004113D01*
X121628079Y-92084439D01*
X121821255Y-92125500D01*
X121914785Y-92125500D01*
X121982906Y-92145502D01*
X122029399Y-92199158D01*
X122039503Y-92269432D01*
X122010009Y-92334012D01*
X122003881Y-92340595D01*
X121685753Y-92658724D01*
X121685752Y-92658724D01*
X121614729Y-92729746D01*
X121614723Y-92729754D01*
X121564497Y-92816749D01*
X121563863Y-92818281D01*
X121562982Y-92819372D01*
X121560371Y-92823897D01*
X121559665Y-92823489D01*
X121519310Y-92873558D01*
X121498708Y-92885159D01*
X121447669Y-92907883D01*
X121447663Y-92907887D01*
X121287886Y-93023971D01*
X121155747Y-93170726D01*
X121155743Y-93170733D01*
X121056994Y-93341767D01*
X120995967Y-93529590D01*
X120975325Y-93726000D01*
X120995967Y-93922409D01*
X121056994Y-94110232D01*
X121102228Y-94188579D01*
X121155742Y-94281266D01*
X121155744Y-94281269D01*
X121155747Y-94281273D01*
X121287885Y-94428027D01*
X121287888Y-94428029D01*
X121287889Y-94428030D01*
X121447662Y-94544113D01*
X121628079Y-94624439D01*
X121821255Y-94665500D01*
X121914785Y-94665500D01*
X121982906Y-94685502D01*
X122029399Y-94739158D01*
X122039503Y-94809432D01*
X122010009Y-94874012D01*
X122003881Y-94880595D01*
X121685753Y-95198724D01*
X121685752Y-95198724D01*
X121614729Y-95269746D01*
X121614723Y-95269754D01*
X121564497Y-95356749D01*
X121563863Y-95358281D01*
X121562982Y-95359372D01*
X121560371Y-95363897D01*
X121559665Y-95363489D01*
X121519310Y-95413558D01*
X121498708Y-95425159D01*
X121447669Y-95447883D01*
X121447663Y-95447887D01*
X121287886Y-95563971D01*
X121155747Y-95710726D01*
X121155743Y-95710732D01*
X121155742Y-95710734D01*
X121155435Y-95711266D01*
X121056994Y-95881767D01*
X120995967Y-96069590D01*
X120975325Y-96266000D01*
X120995967Y-96462409D01*
X121056994Y-96650232D01*
X121077106Y-96685066D01*
X121155742Y-96821266D01*
X121155744Y-96821269D01*
X121155747Y-96821273D01*
X121287885Y-96968027D01*
X121287888Y-96968029D01*
X121287889Y-96968030D01*
X121447662Y-97084113D01*
X121628079Y-97164439D01*
X121821255Y-97205500D01*
X121914785Y-97205500D01*
X121982906Y-97225502D01*
X122029399Y-97279158D01*
X122039503Y-97349432D01*
X122010009Y-97414012D01*
X122003881Y-97420595D01*
X121685753Y-97738724D01*
X121685752Y-97738724D01*
X121614729Y-97809746D01*
X121614723Y-97809754D01*
X121564497Y-97896749D01*
X121563863Y-97898281D01*
X121562982Y-97899372D01*
X121560371Y-97903897D01*
X121559665Y-97903489D01*
X121519310Y-97953558D01*
X121498708Y-97965159D01*
X121447669Y-97987883D01*
X121447663Y-97987887D01*
X121287886Y-98103971D01*
X121155747Y-98250726D01*
X121155744Y-98250731D01*
X121155742Y-98250734D01*
X121143310Y-98272267D01*
X121056994Y-98421767D01*
X120995967Y-98609590D01*
X120975325Y-98806000D01*
X120995967Y-99002409D01*
X121056994Y-99190232D01*
X121102228Y-99268579D01*
X121155742Y-99361266D01*
X121155744Y-99361269D01*
X121155747Y-99361273D01*
X121287885Y-99508027D01*
X121287888Y-99508029D01*
X121287889Y-99508030D01*
X121447662Y-99624113D01*
X121628079Y-99704439D01*
X121821255Y-99745500D01*
X122018745Y-99745500D01*
X122211921Y-99704439D01*
X122392338Y-99624113D01*
X122552111Y-99508030D01*
X122569255Y-99488990D01*
X122684252Y-99361273D01*
X122684252Y-99361272D01*
X122684258Y-99361266D01*
X122783004Y-99190234D01*
X122783893Y-99187500D01*
X122844032Y-99002409D01*
X122847851Y-98966075D01*
X122864675Y-98806000D01*
X122844032Y-98609591D01*
X122844032Y-98609590D01*
X122783005Y-98421767D01*
X122733737Y-98336434D01*
X122684258Y-98250734D01*
X122559835Y-98112548D01*
X122529119Y-98048542D01*
X122537883Y-97978088D01*
X122564374Y-97939147D01*
X123609406Y-96894115D01*
X123671717Y-96860091D01*
X123742533Y-96865156D01*
X123799368Y-96907703D01*
X123824179Y-96974223D01*
X123824500Y-96983212D01*
X123824500Y-98849786D01*
X123804498Y-98917907D01*
X123787595Y-98938881D01*
X122315546Y-100410929D01*
X122253234Y-100444955D01*
X122200254Y-100445081D01*
X122018745Y-100406500D01*
X121821255Y-100406500D01*
X121628078Y-100447561D01*
X121447662Y-100527887D01*
X121287886Y-100643971D01*
X121155747Y-100790726D01*
X121155743Y-100790733D01*
X121056994Y-100961767D01*
X120995967Y-101149590D01*
X120975325Y-101346000D01*
X120995967Y-101542409D01*
X121056994Y-101730232D01*
X121098218Y-101801633D01*
X121155742Y-101901266D01*
X121155744Y-101901269D01*
X121155747Y-101901273D01*
X121287885Y-102048027D01*
X121287888Y-102048029D01*
X121287889Y-102048030D01*
X121447662Y-102164113D01*
X121628079Y-102244439D01*
X121821255Y-102285500D01*
X122018745Y-102285500D01*
X122211921Y-102244439D01*
X122392338Y-102164113D01*
X122552111Y-102048030D01*
X122602801Y-101991733D01*
X122684252Y-101901273D01*
X122684252Y-101901272D01*
X122684258Y-101901266D01*
X122783004Y-101730234D01*
X122784218Y-101726500D01*
X122844032Y-101542409D01*
X122864675Y-101346000D01*
X122844032Y-101149591D01*
X122821761Y-101081052D01*
X122819734Y-101010086D01*
X122852498Y-100953023D01*
X124282507Y-99523014D01*
X124344817Y-99488990D01*
X124415632Y-99494055D01*
X124472468Y-99536602D01*
X124497279Y-99603122D01*
X124497600Y-99612111D01*
X124497600Y-100050263D01*
X124497601Y-100050273D01*
X124512365Y-100124500D01*
X124528431Y-100148544D01*
X124568616Y-100208684D01*
X124596503Y-100227318D01*
X124642030Y-100281793D01*
X124652500Y-100332081D01*
X124652500Y-100633023D01*
X124632498Y-100701144D01*
X124596503Y-100737787D01*
X124550515Y-100768515D01*
X124494266Y-100852697D01*
X124479500Y-100926930D01*
X124479500Y-101777063D01*
X124479501Y-101777073D01*
X124494265Y-101851300D01*
X124550516Y-101935484D01*
X124634697Y-101991733D01*
X124634699Y-101991734D01*
X124708933Y-102006500D01*
X125096785Y-102006499D01*
X125164905Y-102026501D01*
X125185880Y-102043403D01*
X125480318Y-102337840D01*
X125480339Y-102337863D01*
X125555746Y-102413270D01*
X125555751Y-102413274D01*
X125555753Y-102413276D01*
X125555754Y-102413277D01*
X125555756Y-102413278D01*
X125642742Y-102463499D01*
X125642746Y-102463501D01*
X125671730Y-102471267D01*
X125732351Y-102508217D01*
X125763373Y-102572077D01*
X125754945Y-102642572D01*
X125709743Y-102697319D01*
X125663699Y-102716552D01*
X125584698Y-102732266D01*
X125500515Y-102788516D01*
X125444266Y-102872697D01*
X125429500Y-102946930D01*
X125429500Y-103797063D01*
X125429501Y-103797073D01*
X125444266Y-103871301D01*
X125444266Y-103871303D01*
X125470634Y-103910765D01*
X125491849Y-103978517D01*
X125490587Y-103998697D01*
X125470271Y-104140002D01*
X125470271Y-104140003D01*
X125491079Y-104284727D01*
X125491081Y-104284734D01*
X125551824Y-104417743D01*
X125647579Y-104528250D01*
X125770589Y-104607304D01*
X125890039Y-104642378D01*
X125910885Y-104648499D01*
X125910886Y-104648499D01*
X125910889Y-104648500D01*
X125910892Y-104648500D01*
X126057108Y-104648500D01*
X126057111Y-104648500D01*
X126197411Y-104607304D01*
X126320421Y-104528250D01*
X126399550Y-104436930D01*
X127531500Y-104436930D01*
X127531500Y-105527063D01*
X127531501Y-105527073D01*
X127546265Y-105601300D01*
X127602516Y-105685484D01*
X127686697Y-105741733D01*
X127686699Y-105741734D01*
X127760933Y-105756500D01*
X128271066Y-105756499D01*
X128271069Y-105756498D01*
X128271073Y-105756498D01*
X128320326Y-105746701D01*
X128345301Y-105741734D01*
X128429484Y-105685484D01*
X128485734Y-105601301D01*
X128500500Y-105527067D01*
X128500500Y-105527058D01*
X128501106Y-105520911D01*
X128504021Y-105521198D01*
X128520502Y-105465069D01*
X128574158Y-105418576D01*
X128591001Y-105412294D01*
X128597111Y-105410500D01*
X128737411Y-105369304D01*
X128860421Y-105290250D01*
X128956176Y-105179743D01*
X129016919Y-105046734D01*
X129032387Y-104939153D01*
X129037729Y-104902003D01*
X129037729Y-104901996D01*
X129016920Y-104757272D01*
X129016919Y-104757271D01*
X129016919Y-104757266D01*
X128956176Y-104624257D01*
X128860421Y-104513750D01*
X128860420Y-104513749D01*
X128746764Y-104440707D01*
X128737411Y-104434696D01*
X128679675Y-104417743D01*
X128597114Y-104393500D01*
X128597111Y-104393500D01*
X128573663Y-104393500D01*
X128505542Y-104373498D01*
X128468898Y-104337503D01*
X128465755Y-104332799D01*
X128429484Y-104278516D01*
X128429482Y-104278515D01*
X128429482Y-104278514D01*
X128345302Y-104222266D01*
X128271068Y-104207500D01*
X127760936Y-104207500D01*
X127760926Y-104207501D01*
X127686699Y-104222265D01*
X127602515Y-104278516D01*
X127546266Y-104362697D01*
X127531500Y-104436930D01*
X126399550Y-104436930D01*
X126416176Y-104417743D01*
X126476919Y-104284734D01*
X126494450Y-104162808D01*
X126497729Y-104140003D01*
X126497729Y-104139996D01*
X126477413Y-103998699D01*
X126487516Y-103928425D01*
X126497366Y-103910764D01*
X126517289Y-103880947D01*
X126523734Y-103871301D01*
X126538500Y-103797067D01*
X126538499Y-102946934D01*
X126538498Y-102946930D01*
X126538498Y-102946926D01*
X126523734Y-102872699D01*
X126467483Y-102788515D01*
X126383303Y-102732266D01*
X126382440Y-102731909D01*
X126380847Y-102730625D01*
X126372982Y-102725370D01*
X126373452Y-102724666D01*
X126327159Y-102687361D01*
X126304738Y-102619997D01*
X126322296Y-102551206D01*
X126374258Y-102502828D01*
X126430658Y-102489500D01*
X128828223Y-102489500D01*
X128828225Y-102489500D01*
X128925254Y-102463501D01*
X128925257Y-102463499D01*
X128925258Y-102463499D01*
X128968750Y-102438388D01*
X129012247Y-102413276D01*
X129083276Y-102342247D01*
X129083277Y-102342246D01*
X130701118Y-100724405D01*
X130763430Y-100690379D01*
X130790213Y-100687500D01*
X131179304Y-100687500D01*
X131203884Y-100689920D01*
X131231933Y-100695500D01*
X132096500Y-100695499D01*
X132164621Y-100715501D01*
X132211114Y-100769157D01*
X132222500Y-100821499D01*
X132222500Y-101686063D01*
X132222501Y-101686073D01*
X132237265Y-101760300D01*
X132293516Y-101844484D01*
X132377697Y-101900733D01*
X132377699Y-101900734D01*
X132451933Y-101915500D01*
X132772066Y-101915499D01*
X132837422Y-101902500D01*
X132886577Y-101902500D01*
X132951933Y-101915500D01*
X133206786Y-101915499D01*
X133274906Y-101935501D01*
X133321399Y-101989156D01*
X133331504Y-102059430D01*
X133303413Y-102120940D01*
X133303752Y-102121201D01*
X133302621Y-102122674D01*
X133302011Y-102124011D01*
X133299648Y-102126549D01*
X133298721Y-102127756D01*
X133248500Y-102214741D01*
X133247557Y-102218260D01*
X133229541Y-102285500D01*
X133222500Y-102311776D01*
X133222500Y-105960885D01*
X133202498Y-106029006D01*
X133148842Y-106075499D01*
X133078568Y-106085603D01*
X133071926Y-106084466D01*
X133067068Y-106083500D01*
X132616936Y-106083500D01*
X132616926Y-106083501D01*
X132542699Y-106098265D01*
X132458513Y-106154517D01*
X132449741Y-106163290D01*
X132446535Y-106160084D01*
X132410666Y-106189998D01*
X132340214Y-106198773D01*
X132276202Y-106168065D01*
X132264696Y-106154531D01*
X132264078Y-106155068D01*
X132172980Y-106049936D01*
X132162421Y-106037750D01*
X132162420Y-106037749D01*
X132042817Y-105960885D01*
X132039411Y-105958696D01*
X131981675Y-105941743D01*
X131899114Y-105917500D01*
X131899111Y-105917500D01*
X131752889Y-105917500D01*
X131752885Y-105917500D01*
X131612589Y-105958696D01*
X131612587Y-105958697D01*
X131489578Y-106037750D01*
X131489576Y-106037751D01*
X131487611Y-106040020D01*
X131485089Y-106041640D01*
X131482770Y-106043650D01*
X131482480Y-106043316D01*
X131427882Y-106078399D01*
X131392393Y-106083500D01*
X131092936Y-106083500D01*
X131092926Y-106083501D01*
X131018699Y-106098265D01*
X130934513Y-106154517D01*
X130925741Y-106163290D01*
X130922535Y-106160084D01*
X130886666Y-106189998D01*
X130816214Y-106198773D01*
X130752202Y-106168065D01*
X130740696Y-106154531D01*
X130740078Y-106155068D01*
X130648980Y-106049936D01*
X130638421Y-106037750D01*
X130638420Y-106037749D01*
X130518817Y-105960885D01*
X130515411Y-105958696D01*
X130457675Y-105941743D01*
X130375114Y-105917500D01*
X130375111Y-105917500D01*
X130228889Y-105917500D01*
X130228885Y-105917500D01*
X130088589Y-105958696D01*
X130088587Y-105958697D01*
X129965578Y-106037750D01*
X129965576Y-106037751D01*
X129963611Y-106040020D01*
X129961089Y-106041640D01*
X129958770Y-106043650D01*
X129958480Y-106043316D01*
X129903882Y-106078399D01*
X129868393Y-106083500D01*
X129568936Y-106083500D01*
X129568926Y-106083501D01*
X129494699Y-106098265D01*
X129410515Y-106154516D01*
X129354266Y-106238697D01*
X129339500Y-106312930D01*
X129339500Y-106440787D01*
X129319498Y-106508908D01*
X129302595Y-106529882D01*
X128888882Y-106943595D01*
X128826570Y-106977621D01*
X128799787Y-106980500D01*
X128626499Y-106980500D01*
X128558378Y-106960498D01*
X128511885Y-106906842D01*
X128500499Y-106854500D01*
X128500499Y-106816936D01*
X128500498Y-106816927D01*
X128485734Y-106742699D01*
X128429483Y-106658515D01*
X128345302Y-106602266D01*
X128271068Y-106587500D01*
X127760936Y-106587500D01*
X127760926Y-106587501D01*
X127686699Y-106602265D01*
X127602515Y-106658516D01*
X127546266Y-106742697D01*
X127531500Y-106816930D01*
X127531500Y-107907063D01*
X127531501Y-107907073D01*
X127546265Y-107981300D01*
X127602516Y-108065484D01*
X127686697Y-108121733D01*
X127686699Y-108121734D01*
X127760933Y-108136500D01*
X128198785Y-108136499D01*
X128266906Y-108156501D01*
X128287880Y-108173403D01*
X128583595Y-108469117D01*
X128617620Y-108531430D01*
X128620500Y-108558213D01*
X128620500Y-108789324D01*
X128600498Y-108857445D01*
X128599265Y-108859327D01*
X128562266Y-108914699D01*
X128547500Y-108988930D01*
X128547500Y-109262439D01*
X128527498Y-109330560D01*
X128473842Y-109377053D01*
X128403568Y-109387157D01*
X128388892Y-109384146D01*
X128299896Y-109360300D01*
X128154104Y-109360300D01*
X128015411Y-109397463D01*
X128013280Y-109398034D01*
X128013275Y-109398036D01*
X127887023Y-109470927D01*
X127887013Y-109470935D01*
X127783935Y-109574013D01*
X127783927Y-109574023D01*
X127711036Y-109700275D01*
X127711034Y-109700280D01*
X127673300Y-109841104D01*
X127673300Y-109986896D01*
X127701915Y-110093688D01*
X127711034Y-110127719D01*
X127711036Y-110127724D01*
X127783927Y-110253976D01*
X127783935Y-110253986D01*
X127887013Y-110357064D01*
X127887018Y-110357068D01*
X127887020Y-110357070D01*
X127887021Y-110357071D01*
X127887023Y-110357072D01*
X127942444Y-110389069D01*
X128013280Y-110429966D01*
X128154104Y-110467700D01*
X128154107Y-110467700D01*
X128299895Y-110467700D01*
X128299896Y-110467700D01*
X128437704Y-110430774D01*
X128508680Y-110432463D01*
X128567476Y-110472256D01*
X128575080Y-110482478D01*
X128618516Y-110547484D01*
X128702697Y-110603733D01*
X128702699Y-110603734D01*
X128776933Y-110618500D01*
X129227066Y-110618499D01*
X129301301Y-110603734D01*
X129301302Y-110603732D01*
X129302418Y-110603511D01*
X129351581Y-110603511D01*
X129352697Y-110603733D01*
X129352699Y-110603734D01*
X129426933Y-110618500D01*
X129877066Y-110618499D01*
X129951301Y-110603734D01*
X129951302Y-110603732D01*
X129952418Y-110603511D01*
X130001581Y-110603511D01*
X130002697Y-110603733D01*
X130002699Y-110603734D01*
X130076933Y-110618500D01*
X130527066Y-110618499D01*
X130601301Y-110603734D01*
X130601302Y-110603732D01*
X130602418Y-110603511D01*
X130651581Y-110603511D01*
X130652697Y-110603733D01*
X130652699Y-110603734D01*
X130726933Y-110618500D01*
X131177066Y-110618499D01*
X131177069Y-110618498D01*
X131177073Y-110618498D01*
X131226326Y-110608701D01*
X131251301Y-110603734D01*
X131335484Y-110547484D01*
X131391734Y-110463301D01*
X131406500Y-110389067D01*
X131406500Y-109841104D01*
X131823300Y-109841104D01*
X131823300Y-109986896D01*
X131851915Y-110093688D01*
X131861034Y-110127719D01*
X131861036Y-110127724D01*
X131933927Y-110253976D01*
X131933935Y-110253986D01*
X132037013Y-110357064D01*
X132037018Y-110357068D01*
X132037020Y-110357070D01*
X132037021Y-110357071D01*
X132037023Y-110357072D01*
X132092444Y-110389069D01*
X132163280Y-110429966D01*
X132304104Y-110467700D01*
X132304107Y-110467700D01*
X132449893Y-110467700D01*
X132449896Y-110467700D01*
X132590720Y-110429966D01*
X132716980Y-110357070D01*
X132820070Y-110253980D01*
X132892966Y-110127720D01*
X132930700Y-109986896D01*
X132930700Y-109841104D01*
X132892966Y-109700280D01*
X132849045Y-109624207D01*
X132820072Y-109574023D01*
X132820064Y-109574013D01*
X132716986Y-109470935D01*
X132716976Y-109470927D01*
X132590724Y-109398036D01*
X132590722Y-109398035D01*
X132590720Y-109398034D01*
X132449896Y-109360300D01*
X132304104Y-109360300D01*
X132165411Y-109397463D01*
X132163280Y-109398034D01*
X132163275Y-109398036D01*
X132037023Y-109470927D01*
X132037013Y-109470935D01*
X131933935Y-109574013D01*
X131933927Y-109574023D01*
X131861036Y-109700275D01*
X131861034Y-109700280D01*
X131823300Y-109841104D01*
X131406500Y-109841104D01*
X131406499Y-108988934D01*
X131406498Y-108988930D01*
X131406498Y-108988926D01*
X131391734Y-108914699D01*
X131354735Y-108859327D01*
X131335484Y-108830516D01*
X131273837Y-108789324D01*
X131251302Y-108774266D01*
X131177069Y-108759500D01*
X131177067Y-108759500D01*
X131098213Y-108759500D01*
X131030092Y-108739498D01*
X130983599Y-108685842D01*
X130973495Y-108615568D01*
X131002989Y-108550988D01*
X131009118Y-108544404D01*
X131148021Y-108405502D01*
X131439119Y-108114404D01*
X131501431Y-108080379D01*
X131528214Y-108077500D01*
X131749223Y-108077500D01*
X131749225Y-108077500D01*
X131846254Y-108051501D01*
X131846257Y-108051499D01*
X131846258Y-108051499D01*
X131924006Y-108006611D01*
X131933247Y-108001276D01*
X132004276Y-107930247D01*
X132238527Y-107695996D01*
X146044271Y-107695996D01*
X146044271Y-107696003D01*
X146065079Y-107840727D01*
X146065081Y-107840734D01*
X146125824Y-107973743D01*
X146221579Y-108084250D01*
X146344589Y-108163304D01*
X146464039Y-108198378D01*
X146484885Y-108204499D01*
X146484886Y-108204499D01*
X146484889Y-108204500D01*
X146484892Y-108204500D01*
X146631108Y-108204500D01*
X146631111Y-108204500D01*
X146771411Y-108163304D01*
X146894421Y-108084250D01*
X146990176Y-107973743D01*
X147050919Y-107840734D01*
X147057049Y-107798099D01*
X147071729Y-107696003D01*
X147071729Y-107695996D01*
X147050920Y-107551272D01*
X147050919Y-107551271D01*
X147050919Y-107551266D01*
X146990176Y-107418257D01*
X146894421Y-107307750D01*
X146894420Y-107307749D01*
X146832916Y-107268223D01*
X146771411Y-107228696D01*
X146736336Y-107218397D01*
X146631114Y-107187500D01*
X146631111Y-107187500D01*
X146484889Y-107187500D01*
X146484885Y-107187500D01*
X146344589Y-107228696D01*
X146344587Y-107228697D01*
X146221579Y-107307749D01*
X146125824Y-107418256D01*
X146065081Y-107551265D01*
X146065079Y-107551272D01*
X146044271Y-107695996D01*
X132238527Y-107695996D01*
X132825119Y-107109404D01*
X132887431Y-107075378D01*
X132914214Y-107072499D01*
X133067064Y-107072499D01*
X133067066Y-107072499D01*
X133067069Y-107072498D01*
X133067072Y-107072498D01*
X133103663Y-107065219D01*
X133141301Y-107057734D01*
X133225484Y-107001484D01*
X133228346Y-106997200D01*
X133282817Y-106951672D01*
X133300492Y-106945494D01*
X133345254Y-106933501D01*
X133432247Y-106883276D01*
X133503276Y-106812247D01*
X133909276Y-106406247D01*
X133959502Y-106319253D01*
X133985501Y-106222225D01*
X133985501Y-106121775D01*
X133985501Y-106114058D01*
X133985500Y-106114040D01*
X133985500Y-103980574D01*
X134005502Y-103912453D01*
X134059158Y-103865960D01*
X134129432Y-103855856D01*
X134194012Y-103885350D01*
X134216263Y-103910570D01*
X134217522Y-103912453D01*
X134220617Y-103917085D01*
X134304797Y-103973333D01*
X134304799Y-103973334D01*
X134379033Y-103988100D01*
X135368966Y-103988099D01*
X135368969Y-103988098D01*
X135368973Y-103988098D01*
X135418226Y-103978301D01*
X135443201Y-103973334D01*
X135527384Y-103917084D01*
X135527384Y-103917083D01*
X135537703Y-103910189D01*
X135539724Y-103913215D01*
X135583376Y-103889379D01*
X135610159Y-103886500D01*
X135661841Y-103886500D01*
X135729962Y-103906502D01*
X135735699Y-103911125D01*
X135744615Y-103917082D01*
X135744616Y-103917084D01*
X135828799Y-103973334D01*
X135903033Y-103988100D01*
X136485479Y-103988099D01*
X136553600Y-104008101D01*
X136567992Y-104018875D01*
X136569578Y-104020249D01*
X136569579Y-104020250D01*
X136692589Y-104099304D01*
X136812039Y-104134378D01*
X136832885Y-104140499D01*
X136832886Y-104140499D01*
X136832889Y-104140500D01*
X136832892Y-104140500D01*
X136979108Y-104140500D01*
X136979111Y-104140500D01*
X137119411Y-104099304D01*
X137242421Y-104020250D01*
X137338176Y-103909743D01*
X137398919Y-103776734D01*
X137405929Y-103727977D01*
X137419729Y-103632003D01*
X137419729Y-103631996D01*
X137398920Y-103487272D01*
X137398919Y-103487271D01*
X137398919Y-103487266D01*
X137338176Y-103354257D01*
X137242421Y-103243750D01*
X137242420Y-103243749D01*
X137242419Y-103243748D01*
X137180277Y-103203811D01*
X137133785Y-103150155D01*
X137122399Y-103097814D01*
X137122399Y-102895736D01*
X137122398Y-102895727D01*
X137107634Y-102821499D01*
X137085595Y-102788516D01*
X137051384Y-102737316D01*
X137051383Y-102737315D01*
X136967202Y-102681066D01*
X136892969Y-102666300D01*
X136892967Y-102666300D01*
X136328813Y-102666300D01*
X136260692Y-102646298D01*
X136239718Y-102629395D01*
X136030405Y-102420082D01*
X135996379Y-102357770D01*
X135993500Y-102330987D01*
X135993500Y-101738696D01*
X135995921Y-101714113D01*
X135997436Y-101706498D01*
X136001500Y-101686067D01*
X136001500Y-101673500D01*
X136021502Y-101605379D01*
X136075158Y-101558886D01*
X136127500Y-101547500D01*
X137596870Y-101547500D01*
X137664991Y-101567502D01*
X137711484Y-101621158D01*
X137720133Y-101647940D01*
X137720365Y-101648500D01*
X137776616Y-101732684D01*
X137860797Y-101788933D01*
X137860799Y-101788934D01*
X137935033Y-101803700D01*
X138924966Y-101803699D01*
X138924969Y-101803698D01*
X138924973Y-101803698D01*
X138974226Y-101793901D01*
X138999201Y-101788934D01*
X139083384Y-101732684D01*
X139089342Y-101723766D01*
X139143818Y-101678240D01*
X139214262Y-101669391D01*
X139278306Y-101700032D01*
X139298872Y-101723767D01*
X139313316Y-101745384D01*
X139397497Y-101801633D01*
X139397499Y-101801634D01*
X139471081Y-101816270D01*
X139533990Y-101849177D01*
X139569123Y-101910872D01*
X139572500Y-101939849D01*
X139572500Y-102977500D01*
X139552498Y-103045621D01*
X139498842Y-103092114D01*
X139446500Y-103103500D01*
X139178936Y-103103500D01*
X139178926Y-103103501D01*
X139104699Y-103118265D01*
X139020515Y-103174516D01*
X138964266Y-103258697D01*
X138949500Y-103332930D01*
X138949500Y-103766333D01*
X138929498Y-103834454D01*
X138875842Y-103880947D01*
X138858999Y-103887229D01*
X138724589Y-103926696D01*
X138724587Y-103926697D01*
X138601579Y-104005749D01*
X138505824Y-104116256D01*
X138445081Y-104249265D01*
X138445079Y-104249272D01*
X138424271Y-104393996D01*
X138424271Y-104394003D01*
X138445079Y-104538727D01*
X138445081Y-104538734D01*
X138505824Y-104671743D01*
X138601579Y-104782250D01*
X138724589Y-104861304D01*
X138859000Y-104900770D01*
X138918725Y-104939153D01*
X138948218Y-105003734D01*
X138949501Y-105021666D01*
X138949501Y-105383072D01*
X138964265Y-105457300D01*
X139020516Y-105541484D01*
X139104697Y-105597733D01*
X139104699Y-105597734D01*
X139178933Y-105612500D01*
X140729066Y-105612499D01*
X140729069Y-105612498D01*
X140729073Y-105612498D01*
X140785372Y-105601300D01*
X140803301Y-105597734D01*
X140887484Y-105541484D01*
X140943734Y-105457301D01*
X140958500Y-105383067D01*
X140958499Y-103332934D01*
X140958498Y-103332930D01*
X140958498Y-103332926D01*
X140943734Y-103258699D01*
X140933744Y-103243748D01*
X140887484Y-103174516D01*
X140887483Y-103174515D01*
X140803302Y-103118266D01*
X140729069Y-103103500D01*
X140729067Y-103103500D01*
X140461500Y-103103500D01*
X140393379Y-103083498D01*
X140346886Y-103029842D01*
X140335500Y-102977500D01*
X140335500Y-101916228D01*
X140355502Y-101848107D01*
X140399533Y-101809953D01*
X140398582Y-101808529D01*
X140408902Y-101801633D01*
X140493084Y-101745384D01*
X140549334Y-101661201D01*
X140564100Y-101586967D01*
X140564099Y-100597034D01*
X140564098Y-100597030D01*
X140564098Y-100597026D01*
X140549334Y-100522799D01*
X140497404Y-100445081D01*
X140493084Y-100438616D01*
X140493083Y-100438615D01*
X140408902Y-100382366D01*
X140334669Y-100367600D01*
X140334667Y-100367600D01*
X139998112Y-100367600D01*
X139929991Y-100347598D01*
X139883498Y-100293942D01*
X139873394Y-100223668D01*
X139902888Y-100159088D01*
X139909017Y-100152505D01*
X139998918Y-100062604D01*
X140061230Y-100028578D01*
X140088013Y-100025699D01*
X140448964Y-100025699D01*
X140448966Y-100025699D01*
X140448969Y-100025698D01*
X140448972Y-100025698D01*
X140485563Y-100018419D01*
X140523201Y-100010934D01*
X140607384Y-99954684D01*
X140611234Y-99948921D01*
X140665710Y-99903393D01*
X140736153Y-99894544D01*
X140800198Y-99925184D01*
X140820766Y-99948922D01*
X140824616Y-99954684D01*
X140908797Y-100010933D01*
X140908799Y-100010934D01*
X140983033Y-100025700D01*
X141972966Y-100025699D01*
X141972969Y-100025698D01*
X141972973Y-100025698D01*
X142022226Y-100015901D01*
X142047201Y-100010934D01*
X142131384Y-99954684D01*
X142187634Y-99870501D01*
X142202400Y-99796267D01*
X142202399Y-98933334D01*
X142202398Y-98933331D01*
X142202398Y-98933326D01*
X142187634Y-98859099D01*
X142136546Y-98782642D01*
X142131384Y-98774916D01*
X142131383Y-98774915D01*
X142047202Y-98718666D01*
X141972967Y-98703900D01*
X140983036Y-98703900D01*
X140983026Y-98703901D01*
X140908799Y-98718665D01*
X140824614Y-98774916D01*
X140820760Y-98780685D01*
X140766281Y-98826210D01*
X140695837Y-98835053D01*
X140631795Y-98804409D01*
X140611235Y-98780679D01*
X140607384Y-98774916D01*
X140607382Y-98774915D01*
X140607382Y-98774914D01*
X140523203Y-98718666D01*
X140493934Y-98712844D01*
X140431025Y-98679935D01*
X140395894Y-98618240D01*
X140399695Y-98547345D01*
X140403891Y-98536950D01*
X140441344Y-98454941D01*
X140487834Y-98401289D01*
X140512286Y-98391418D01*
X140511734Y-98390084D01*
X140523197Y-98385334D01*
X140523201Y-98385334D01*
X140607384Y-98329084D01*
X140663634Y-98244901D01*
X140678400Y-98170667D01*
X140678399Y-97307734D01*
X140678398Y-97307731D01*
X140678398Y-97307726D01*
X140663634Y-97233499D01*
X140607384Y-97149316D01*
X140602323Y-97145934D01*
X140523202Y-97093066D01*
X140448967Y-97078300D01*
X139459036Y-97078300D01*
X139459026Y-97078301D01*
X139384799Y-97093065D01*
X139300616Y-97149315D01*
X139256632Y-97215140D01*
X139202154Y-97260667D01*
X139131711Y-97269513D01*
X139081866Y-97249901D01*
X138999202Y-97194666D01*
X138924967Y-97179900D01*
X137935036Y-97179900D01*
X137935026Y-97179901D01*
X137860799Y-97194665D01*
X137776615Y-97250916D01*
X137720366Y-97335097D01*
X137705600Y-97409330D01*
X137705600Y-98278284D01*
X137685598Y-98346405D01*
X137668700Y-98367375D01*
X137648486Y-98387591D01*
X137586175Y-98421619D01*
X137559386Y-98424500D01*
X137347500Y-98424500D01*
X137279379Y-98404498D01*
X137232886Y-98350842D01*
X137221500Y-98298501D01*
X137221499Y-98145936D01*
X137221498Y-98145929D01*
X137213755Y-98107000D01*
X137208500Y-98080578D01*
X137208500Y-98031421D01*
X137221500Y-97966067D01*
X137221499Y-97645934D01*
X137208500Y-97580578D01*
X137208500Y-97531421D01*
X137221500Y-97466067D01*
X137221499Y-97145934D01*
X137221498Y-97145931D01*
X137221498Y-97145926D01*
X137206734Y-97071699D01*
X137150484Y-96987516D01*
X137150483Y-96987515D01*
X137066302Y-96931266D01*
X136992069Y-96916500D01*
X136992067Y-96916500D01*
X136127499Y-96916500D01*
X136059378Y-96896498D01*
X136012885Y-96842842D01*
X136001499Y-96790500D01*
X136001499Y-95925936D01*
X136001498Y-95925927D01*
X135986734Y-95851699D01*
X135930483Y-95767515D01*
X135846302Y-95711266D01*
X135772068Y-95696500D01*
X135451936Y-95696500D01*
X135451924Y-95696502D01*
X135386578Y-95709499D01*
X135337418Y-95709499D01*
X135272067Y-95696500D01*
X134951936Y-95696500D01*
X134951924Y-95696502D01*
X134886578Y-95709499D01*
X134837418Y-95709499D01*
X134772067Y-95696500D01*
X134451936Y-95696500D01*
X134451924Y-95696502D01*
X134386578Y-95709499D01*
X134337418Y-95709499D01*
X134272067Y-95696500D01*
X133951936Y-95696500D01*
X133951924Y-95696502D01*
X133886578Y-95709499D01*
X133837418Y-95709499D01*
X133772067Y-95696500D01*
X133451936Y-95696500D01*
X133451924Y-95696502D01*
X133386578Y-95709499D01*
X133337418Y-95709499D01*
X133272067Y-95696500D01*
X132951936Y-95696500D01*
X132951924Y-95696502D01*
X132886578Y-95709499D01*
X132837418Y-95709499D01*
X132772067Y-95696500D01*
X132451936Y-95696500D01*
X132451926Y-95696501D01*
X132377699Y-95711265D01*
X132293515Y-95767516D01*
X132237266Y-95851697D01*
X132222500Y-95925930D01*
X132222500Y-96790500D01*
X132202498Y-96858621D01*
X132148842Y-96905114D01*
X132096500Y-96916500D01*
X131231936Y-96916500D01*
X131231926Y-96916501D01*
X131157699Y-96931265D01*
X131063197Y-96994411D01*
X131061767Y-96992271D01*
X131014848Y-97017886D01*
X130944033Y-97012814D01*
X130898983Y-96983860D01*
X130883150Y-96968027D01*
X130866447Y-96951324D01*
X130369692Y-96454569D01*
X129869853Y-95954729D01*
X129869843Y-95954721D01*
X129782858Y-95904500D01*
X129771392Y-95901427D01*
X129685825Y-95878500D01*
X129685823Y-95878500D01*
X127600571Y-95878500D01*
X127532450Y-95858498D01*
X127485957Y-95804842D01*
X127476992Y-95777079D01*
X127473734Y-95760699D01*
X127447712Y-95721755D01*
X127417484Y-95676516D01*
X127413608Y-95673926D01*
X127333302Y-95620266D01*
X127259068Y-95605500D01*
X126608936Y-95605500D01*
X126608926Y-95605501D01*
X126534699Y-95620265D01*
X126450515Y-95676516D01*
X126394266Y-95760697D01*
X126379500Y-95834930D01*
X126379500Y-96685063D01*
X126379501Y-96685073D01*
X126394265Y-96759300D01*
X126450515Y-96843482D01*
X126450516Y-96843484D01*
X126493573Y-96872254D01*
X126496502Y-96874211D01*
X126542030Y-96928688D01*
X126552500Y-96978976D01*
X126552500Y-97206300D01*
X126532498Y-97274421D01*
X126478842Y-97320914D01*
X126426501Y-97332300D01*
X126251036Y-97332300D01*
X126251026Y-97332301D01*
X126176799Y-97347065D01*
X126092614Y-97403316D01*
X126088760Y-97409085D01*
X126034281Y-97454610D01*
X125963837Y-97463453D01*
X125899795Y-97432809D01*
X125879235Y-97409079D01*
X125875384Y-97403316D01*
X125875382Y-97403315D01*
X125875382Y-97403314D01*
X125791202Y-97347066D01*
X125716969Y-97332300D01*
X125716967Y-97332300D01*
X125541500Y-97332300D01*
X125473379Y-97312298D01*
X125426886Y-97258642D01*
X125415500Y-97206300D01*
X125415500Y-96978976D01*
X125435502Y-96910855D01*
X125471498Y-96874211D01*
X125474427Y-96872254D01*
X125517484Y-96843484D01*
X125573734Y-96759301D01*
X125588500Y-96685067D01*
X125588499Y-95834934D01*
X125588498Y-95834930D01*
X125588498Y-95834926D01*
X125573734Y-95760699D01*
X125547712Y-95721755D01*
X125517484Y-95676516D01*
X125513608Y-95673926D01*
X125433302Y-95620266D01*
X125359069Y-95605500D01*
X124713500Y-95605500D01*
X124645379Y-95585498D01*
X124598886Y-95531842D01*
X124587500Y-95479500D01*
X124587500Y-93814930D01*
X125429500Y-93814930D01*
X125429500Y-94665063D01*
X125429501Y-94665073D01*
X125444265Y-94739299D01*
X125444265Y-94739300D01*
X125444266Y-94739301D01*
X125469215Y-94776640D01*
X125490430Y-94844391D01*
X125489167Y-94864573D01*
X125470271Y-94995996D01*
X125470271Y-94996003D01*
X125491079Y-95140727D01*
X125491081Y-95140734D01*
X125551824Y-95273743D01*
X125647579Y-95384250D01*
X125770589Y-95463304D01*
X125890039Y-95498378D01*
X125910885Y-95504499D01*
X125910886Y-95504499D01*
X125910889Y-95504500D01*
X125910892Y-95504500D01*
X126057108Y-95504500D01*
X126057111Y-95504500D01*
X126197411Y-95463304D01*
X126320421Y-95384250D01*
X126416176Y-95273743D01*
X126476919Y-95140734D01*
X126497729Y-94996000D01*
X126497728Y-94995996D01*
X126481136Y-94880595D01*
X126478832Y-94864572D01*
X126488935Y-94794300D01*
X126498779Y-94776647D01*
X126523734Y-94739301D01*
X126538500Y-94665067D01*
X126538499Y-93814934D01*
X126538498Y-93814930D01*
X126538498Y-93814926D01*
X126523734Y-93740699D01*
X126467483Y-93656515D01*
X126383302Y-93600266D01*
X126309068Y-93585500D01*
X125658936Y-93585500D01*
X125658926Y-93585501D01*
X125584699Y-93600265D01*
X125500515Y-93656516D01*
X125444266Y-93740697D01*
X125429500Y-93814930D01*
X124587500Y-93814930D01*
X124587500Y-93174212D01*
X124607502Y-93106091D01*
X124624405Y-93085117D01*
X124835117Y-92874405D01*
X124897429Y-92840379D01*
X124924212Y-92837500D01*
X129336223Y-92837500D01*
X129336225Y-92837500D01*
X129433254Y-92811501D01*
X129433257Y-92811499D01*
X129433258Y-92811499D01*
X129476750Y-92786388D01*
X129520247Y-92761276D01*
X129591276Y-92690247D01*
X129608996Y-92672527D01*
X129608998Y-92672524D01*
X129894064Y-92387458D01*
X129894071Y-92387452D01*
X129972272Y-92309251D01*
X129972276Y-92309247D01*
X129977902Y-92299501D01*
X130029283Y-92250507D01*
X130087023Y-92236499D01*
X130142064Y-92236499D01*
X130142066Y-92236499D01*
X130142069Y-92236498D01*
X130142072Y-92236498D01*
X130160239Y-92232884D01*
X130216301Y-92221734D01*
X130231998Y-92211245D01*
X130299746Y-92190030D01*
X130368213Y-92208811D01*
X130371997Y-92211242D01*
X130387699Y-92221734D01*
X130461933Y-92236500D01*
X131412066Y-92236499D01*
X131412069Y-92236498D01*
X131412073Y-92236498D01*
X131441514Y-92230641D01*
X131486301Y-92221734D01*
X131501998Y-92211245D01*
X131569746Y-92190030D01*
X131638213Y-92208811D01*
X131641997Y-92211242D01*
X131657699Y-92221734D01*
X131731933Y-92236500D01*
X132682066Y-92236499D01*
X132682069Y-92236498D01*
X132682073Y-92236498D01*
X132711514Y-92230641D01*
X132756301Y-92221734D01*
X132771998Y-92211245D01*
X132839746Y-92190030D01*
X132908213Y-92208811D01*
X132911997Y-92211242D01*
X132927699Y-92221734D01*
X133001933Y-92236500D01*
X133952066Y-92236499D01*
X133952069Y-92236498D01*
X133952073Y-92236498D01*
X133981514Y-92230641D01*
X134026301Y-92221734D01*
X134041998Y-92211245D01*
X134109746Y-92190030D01*
X134178213Y-92208811D01*
X134181997Y-92211242D01*
X134197699Y-92221734D01*
X134271933Y-92236500D01*
X135222066Y-92236499D01*
X135222069Y-92236498D01*
X135222073Y-92236498D01*
X135251514Y-92230641D01*
X135296301Y-92221734D01*
X135311998Y-92211245D01*
X135379746Y-92190030D01*
X135448213Y-92208811D01*
X135451997Y-92211242D01*
X135467699Y-92221734D01*
X135541933Y-92236500D01*
X136492066Y-92236499D01*
X136492069Y-92236498D01*
X136492073Y-92236498D01*
X136521514Y-92230641D01*
X136566301Y-92221734D01*
X136581998Y-92211245D01*
X136649746Y-92190030D01*
X136718213Y-92208811D01*
X136721997Y-92211242D01*
X136737699Y-92221734D01*
X136811933Y-92236500D01*
X137762066Y-92236499D01*
X137762069Y-92236498D01*
X137762073Y-92236498D01*
X137791514Y-92230641D01*
X137836301Y-92221734D01*
X137851998Y-92211245D01*
X137919746Y-92190030D01*
X137988213Y-92208811D01*
X137991997Y-92211242D01*
X138007699Y-92221734D01*
X138081933Y-92236500D01*
X139032066Y-92236499D01*
X139032069Y-92236498D01*
X139032073Y-92236498D01*
X139061514Y-92230641D01*
X139106301Y-92221734D01*
X139121998Y-92211245D01*
X139189746Y-92190030D01*
X139258213Y-92208811D01*
X139261997Y-92211242D01*
X139277699Y-92221734D01*
X139351933Y-92236500D01*
X140302066Y-92236499D01*
X140302069Y-92236498D01*
X140302073Y-92236498D01*
X140351326Y-92226701D01*
X140376301Y-92221734D01*
X140460484Y-92165484D01*
X140516734Y-92081301D01*
X140531500Y-92007067D01*
X140531499Y-89956934D01*
X140531498Y-89956930D01*
X140531498Y-89956926D01*
X140516734Y-89882699D01*
X140460483Y-89798515D01*
X140376302Y-89742266D01*
X140302067Y-89727500D01*
X139351936Y-89727500D01*
X139351926Y-89727501D01*
X139277699Y-89742265D01*
X139262001Y-89752755D01*
X139194248Y-89773969D01*
X139125781Y-89755185D01*
X139121997Y-89752754D01*
X139106300Y-89742265D01*
X139032067Y-89727500D01*
X138081936Y-89727500D01*
X138081926Y-89727501D01*
X138007699Y-89742265D01*
X137992001Y-89752755D01*
X137924248Y-89773969D01*
X137855781Y-89755185D01*
X137851997Y-89752754D01*
X137836300Y-89742265D01*
X137762067Y-89727500D01*
X136811936Y-89727500D01*
X136811926Y-89727501D01*
X136737699Y-89742265D01*
X136722001Y-89752755D01*
X136654248Y-89773969D01*
X136585781Y-89755185D01*
X136581997Y-89752754D01*
X136566300Y-89742265D01*
X136492067Y-89727500D01*
X135541936Y-89727500D01*
X135541926Y-89727501D01*
X135467699Y-89742265D01*
X135452001Y-89752755D01*
X135384248Y-89773969D01*
X135315781Y-89755185D01*
X135311997Y-89752754D01*
X135296300Y-89742265D01*
X135222067Y-89727500D01*
X134271936Y-89727500D01*
X134271926Y-89727501D01*
X134197699Y-89742265D01*
X134182001Y-89752755D01*
X134114248Y-89773969D01*
X134045781Y-89755185D01*
X134041997Y-89752754D01*
X134026300Y-89742265D01*
X133952067Y-89727500D01*
X133001936Y-89727500D01*
X133001926Y-89727501D01*
X132927699Y-89742265D01*
X132912001Y-89752755D01*
X132844248Y-89773969D01*
X132775781Y-89755185D01*
X132771997Y-89752754D01*
X132756300Y-89742265D01*
X132682067Y-89727500D01*
X131731936Y-89727500D01*
X131731926Y-89727501D01*
X131657699Y-89742265D01*
X131642001Y-89752755D01*
X131574248Y-89773969D01*
X131505781Y-89755185D01*
X131501997Y-89752754D01*
X131486300Y-89742265D01*
X131412067Y-89727500D01*
X130461936Y-89727500D01*
X130461926Y-89727501D01*
X130387699Y-89742265D01*
X130372001Y-89752755D01*
X130304248Y-89773969D01*
X130235781Y-89755185D01*
X130231997Y-89752754D01*
X130216300Y-89742265D01*
X130142067Y-89727500D01*
X129191936Y-89727500D01*
X129191926Y-89727501D01*
X129117699Y-89742265D01*
X129033515Y-89798516D01*
X128977266Y-89882697D01*
X128962500Y-89956930D01*
X128962500Y-89956933D01*
X128962500Y-90975785D01*
X128962501Y-91948500D01*
X128942499Y-92016621D01*
X128888843Y-92063114D01*
X128836501Y-92074500D01*
X125153075Y-92074500D01*
X125084954Y-92054498D01*
X125038461Y-92000842D01*
X125028357Y-91930568D01*
X125043956Y-91885499D01*
X125069501Y-91841254D01*
X125095500Y-91744225D01*
X125095500Y-90812499D01*
X125115502Y-90744378D01*
X125169158Y-90697885D01*
X125221500Y-90686499D01*
X126637064Y-90686499D01*
X126637066Y-90686499D01*
X126637069Y-90686498D01*
X126637072Y-90686498D01*
X126673663Y-90679219D01*
X126711301Y-90671734D01*
X126795484Y-90615484D01*
X126851734Y-90531301D01*
X126866500Y-90457067D01*
X126866499Y-89506934D01*
X126866498Y-89506930D01*
X126866498Y-89506926D01*
X126851734Y-89432700D01*
X126851734Y-89432699D01*
X126841245Y-89417001D01*
X126820030Y-89349251D01*
X126838812Y-89280784D01*
X126841218Y-89277038D01*
X126851734Y-89261301D01*
X126866500Y-89187067D01*
X126866499Y-88236934D01*
X126866498Y-88236930D01*
X126866498Y-88236926D01*
X126851734Y-88162700D01*
X126851734Y-88162699D01*
X126841245Y-88147001D01*
X126820030Y-88079251D01*
X126838812Y-88010784D01*
X126841218Y-88007038D01*
X126851734Y-87991301D01*
X126866500Y-87917067D01*
X126866499Y-86966934D01*
X126866498Y-86966930D01*
X126866498Y-86966926D01*
X126851734Y-86892700D01*
X126851734Y-86892699D01*
X126841245Y-86877001D01*
X126820030Y-86809251D01*
X126838812Y-86740784D01*
X126841218Y-86737038D01*
X126851734Y-86721301D01*
X126866500Y-86647067D01*
X126866499Y-85696934D01*
X126866498Y-85696927D01*
X126866498Y-85696926D01*
X126851734Y-85622700D01*
X126851734Y-85622699D01*
X126841245Y-85607001D01*
X126820030Y-85539251D01*
X126838812Y-85470784D01*
X126841218Y-85467038D01*
X126851734Y-85451301D01*
X126866500Y-85377067D01*
X126866499Y-84426934D01*
X126866498Y-84426930D01*
X126866498Y-84426926D01*
X126851734Y-84352700D01*
X126851734Y-84352699D01*
X126841245Y-84337001D01*
X126820030Y-84269251D01*
X126838812Y-84200784D01*
X126841218Y-84197038D01*
X126851734Y-84181301D01*
X126866500Y-84107067D01*
X126866499Y-83156934D01*
X126866498Y-83156930D01*
X126866498Y-83156926D01*
X126851734Y-83082700D01*
X126851734Y-83082699D01*
X126841245Y-83067001D01*
X126820030Y-82999251D01*
X126838812Y-82930784D01*
X126841218Y-82927038D01*
X126851734Y-82911301D01*
X126866500Y-82837067D01*
X126866499Y-81886934D01*
X126866498Y-81886930D01*
X126866498Y-81886926D01*
X126851734Y-81812700D01*
X126851734Y-81812699D01*
X126841245Y-81797001D01*
X126820030Y-81729251D01*
X126838812Y-81660784D01*
X126841218Y-81657038D01*
X126851734Y-81641301D01*
X126866500Y-81567067D01*
X126866499Y-80616934D01*
X126866498Y-80616930D01*
X126866498Y-80616926D01*
X126851734Y-80542700D01*
X126851734Y-80542699D01*
X126841245Y-80527001D01*
X126820030Y-80459251D01*
X126838812Y-80390784D01*
X126841218Y-80387038D01*
X126851734Y-80371301D01*
X126866500Y-80297067D01*
X126866499Y-79346934D01*
X126866498Y-79346930D01*
X126866498Y-79346926D01*
X126851734Y-79272700D01*
X126851734Y-79272699D01*
X126841245Y-79257001D01*
X126820030Y-79189251D01*
X126838812Y-79120784D01*
X126841218Y-79117038D01*
X126851734Y-79101301D01*
X126866500Y-79027067D01*
X126866499Y-78076934D01*
X126866498Y-78076930D01*
X126866498Y-78076926D01*
X126851734Y-78002700D01*
X126851734Y-78002699D01*
X126841245Y-77987001D01*
X126820030Y-77919251D01*
X126838812Y-77850784D01*
X126841218Y-77847038D01*
X126851734Y-77831301D01*
X126866500Y-77757067D01*
X126866499Y-76806934D01*
X126866498Y-76806927D01*
X126866498Y-76806926D01*
X126851734Y-76732700D01*
X126851734Y-76732699D01*
X126841245Y-76717001D01*
X126820030Y-76649251D01*
X126838812Y-76580784D01*
X126841218Y-76577038D01*
X126851734Y-76561301D01*
X126866500Y-76487067D01*
X126866499Y-75536934D01*
X126866498Y-75536930D01*
X126866498Y-75536926D01*
X126855450Y-75481386D01*
X126851734Y-75462699D01*
X126841245Y-75447001D01*
X126820030Y-75379251D01*
X126838812Y-75310784D01*
X126841218Y-75307038D01*
X126851734Y-75291301D01*
X126866500Y-75217067D01*
X126866499Y-74266934D01*
X126866498Y-74266930D01*
X141357500Y-74266930D01*
X141357500Y-75217063D01*
X141357501Y-75217073D01*
X141372265Y-75291299D01*
X141372265Y-75291300D01*
X141372266Y-75291301D01*
X141382754Y-75306998D01*
X141403969Y-75374749D01*
X141385187Y-75443216D01*
X141382755Y-75447000D01*
X141372266Y-75462697D01*
X141357500Y-75536930D01*
X141357500Y-76487063D01*
X141357501Y-76487073D01*
X141372265Y-76561299D01*
X141372265Y-76561300D01*
X141372266Y-76561301D01*
X141382754Y-76576998D01*
X141403969Y-76644749D01*
X141385187Y-76713216D01*
X141382755Y-76717000D01*
X141372266Y-76732697D01*
X141357500Y-76806930D01*
X141357500Y-77757063D01*
X141357501Y-77757073D01*
X141372265Y-77831299D01*
X141372265Y-77831300D01*
X141372266Y-77831301D01*
X141382754Y-77846998D01*
X141403969Y-77914749D01*
X141385187Y-77983216D01*
X141382755Y-77987000D01*
X141372266Y-78002697D01*
X141357500Y-78076930D01*
X141357500Y-79027063D01*
X141357501Y-79027073D01*
X141372265Y-79101299D01*
X141372265Y-79101300D01*
X141372266Y-79101301D01*
X141382754Y-79116998D01*
X141403969Y-79184749D01*
X141385187Y-79253216D01*
X141382755Y-79257000D01*
X141372266Y-79272697D01*
X141357500Y-79346930D01*
X141357500Y-80297063D01*
X141357501Y-80297073D01*
X141372265Y-80371299D01*
X141372265Y-80371300D01*
X141372266Y-80371301D01*
X141382754Y-80386998D01*
X141403969Y-80454749D01*
X141385187Y-80523216D01*
X141382755Y-80527000D01*
X141372266Y-80542697D01*
X141357500Y-80616930D01*
X141357500Y-81567063D01*
X141357501Y-81567073D01*
X141372265Y-81641299D01*
X141372265Y-81641300D01*
X141372266Y-81641301D01*
X141382754Y-81656998D01*
X141403969Y-81724749D01*
X141385187Y-81793216D01*
X141382755Y-81797000D01*
X141372266Y-81812697D01*
X141357500Y-81886930D01*
X141357500Y-82837063D01*
X141357501Y-82837073D01*
X141372265Y-82911299D01*
X141372265Y-82911300D01*
X141372266Y-82911301D01*
X141382754Y-82926998D01*
X141403969Y-82994749D01*
X141385187Y-83063216D01*
X141382755Y-83067000D01*
X141372266Y-83082697D01*
X141357500Y-83156930D01*
X141357500Y-84107063D01*
X141357501Y-84107073D01*
X141372265Y-84181299D01*
X141372265Y-84181300D01*
X141372266Y-84181301D01*
X141382754Y-84196998D01*
X141403969Y-84264749D01*
X141385187Y-84333216D01*
X141382755Y-84337000D01*
X141372266Y-84352697D01*
X141357500Y-84426930D01*
X141357500Y-85377063D01*
X141357501Y-85377073D01*
X141372265Y-85451299D01*
X141372265Y-85451300D01*
X141372266Y-85451301D01*
X141382754Y-85466998D01*
X141403969Y-85534749D01*
X141385187Y-85603216D01*
X141382755Y-85607000D01*
X141372266Y-85622697D01*
X141357500Y-85696930D01*
X141357500Y-86647063D01*
X141357501Y-86647073D01*
X141372265Y-86721299D01*
X141372265Y-86721300D01*
X141372266Y-86721301D01*
X141382754Y-86736998D01*
X141403969Y-86804749D01*
X141385187Y-86873216D01*
X141382755Y-86877000D01*
X141372266Y-86892697D01*
X141357500Y-86966930D01*
X141357500Y-87917063D01*
X141357501Y-87917073D01*
X141372265Y-87991299D01*
X141372265Y-87991300D01*
X141372266Y-87991301D01*
X141382754Y-88006998D01*
X141403969Y-88074749D01*
X141385187Y-88143216D01*
X141382755Y-88147000D01*
X141372266Y-88162697D01*
X141357500Y-88236930D01*
X141357500Y-89187063D01*
X141357501Y-89187073D01*
X141372265Y-89261299D01*
X141372265Y-89261300D01*
X141372266Y-89261301D01*
X141382754Y-89276998D01*
X141403969Y-89344749D01*
X141385187Y-89413216D01*
X141382755Y-89417000D01*
X141372266Y-89432697D01*
X141357500Y-89506930D01*
X141357500Y-90457063D01*
X141357501Y-90457073D01*
X141372265Y-90531300D01*
X141428516Y-90615484D01*
X141512697Y-90671733D01*
X141512699Y-90671734D01*
X141586933Y-90686500D01*
X142104500Y-90686499D01*
X142172621Y-90706501D01*
X142219114Y-90760156D01*
X142230500Y-90812499D01*
X142230500Y-96688223D01*
X142230499Y-96688223D01*
X142256498Y-96785251D01*
X142256501Y-96785258D01*
X142278417Y-96823218D01*
X142290118Y-96843484D01*
X142306724Y-96872247D01*
X142306730Y-96872254D01*
X145174395Y-99739918D01*
X145208421Y-99802230D01*
X145211300Y-99829013D01*
X145211300Y-100254255D01*
X145191298Y-100322376D01*
X145137642Y-100368869D01*
X145109883Y-100377834D01*
X145087098Y-100382366D01*
X145002915Y-100438616D01*
X144946666Y-100522797D01*
X144931900Y-100597030D01*
X144931900Y-101586963D01*
X144931901Y-101586973D01*
X144946665Y-101661200D01*
X145002916Y-101745384D01*
X145097418Y-101808530D01*
X145096055Y-101810569D01*
X145137993Y-101844359D01*
X145160419Y-101911720D01*
X145160500Y-101916228D01*
X145160500Y-102977500D01*
X145140498Y-103045621D01*
X145086842Y-103092114D01*
X145034500Y-103103500D01*
X144766936Y-103103500D01*
X144766926Y-103103501D01*
X144692699Y-103118265D01*
X144608515Y-103174516D01*
X144552266Y-103258697D01*
X144537500Y-103332930D01*
X144537500Y-105383063D01*
X144537501Y-105383073D01*
X144552265Y-105457300D01*
X144608516Y-105541484D01*
X144692697Y-105597733D01*
X144692699Y-105597734D01*
X144766933Y-105612500D01*
X144911686Y-105612499D01*
X144979806Y-105632501D01*
X145026299Y-105686156D01*
X145036403Y-105720566D01*
X145049079Y-105808728D01*
X145049081Y-105808734D01*
X145109824Y-105941743D01*
X145205579Y-106052250D01*
X145328589Y-106131304D01*
X145437523Y-106163290D01*
X145468885Y-106172499D01*
X145468886Y-106172499D01*
X145468889Y-106172500D01*
X145468892Y-106172500D01*
X145615108Y-106172500D01*
X145615111Y-106172500D01*
X145755411Y-106131304D01*
X145878421Y-106052250D01*
X145974176Y-105941743D01*
X146034919Y-105808734D01*
X146047596Y-105720564D01*
X146077089Y-105655987D01*
X146136815Y-105617603D01*
X146172313Y-105612499D01*
X146317064Y-105612499D01*
X146317066Y-105612499D01*
X146317069Y-105612498D01*
X146317072Y-105612498D01*
X146365086Y-105602948D01*
X146391301Y-105597734D01*
X146475484Y-105541484D01*
X146531734Y-105457301D01*
X146546500Y-105383067D01*
X146546499Y-103332934D01*
X146546498Y-103332930D01*
X146546498Y-103332926D01*
X146531734Y-103258699D01*
X146521744Y-103243748D01*
X146475484Y-103174516D01*
X146475483Y-103174515D01*
X146391302Y-103118266D01*
X146317069Y-103103500D01*
X146317067Y-103103500D01*
X146049500Y-103103500D01*
X145981379Y-103083498D01*
X145934886Y-103029842D01*
X145923500Y-102977500D01*
X145923500Y-101939848D01*
X145943502Y-101871727D01*
X145997158Y-101825234D01*
X146024920Y-101816269D01*
X146030218Y-101815215D01*
X146098501Y-101801634D01*
X146182684Y-101745384D01*
X146238934Y-101661201D01*
X146253700Y-101586967D01*
X146253699Y-100597034D01*
X146253698Y-100597030D01*
X146253698Y-100597026D01*
X146238934Y-100522799D01*
X146187004Y-100445081D01*
X146182684Y-100438616D01*
X146182683Y-100438615D01*
X146098502Y-100382366D01*
X146075718Y-100377834D01*
X146012808Y-100344926D01*
X145977677Y-100283231D01*
X145974300Y-100254255D01*
X145974300Y-99679188D01*
X145974301Y-99679175D01*
X145974301Y-99568576D01*
X145966725Y-99540301D01*
X145948302Y-99471547D01*
X145926580Y-99433923D01*
X145898078Y-99384556D01*
X145898070Y-99384546D01*
X143030405Y-96516881D01*
X142996379Y-96454569D01*
X142993500Y-96427786D01*
X142993500Y-90812499D01*
X143013502Y-90744378D01*
X143067158Y-90697885D01*
X143119500Y-90686499D01*
X143637064Y-90686499D01*
X143637066Y-90686499D01*
X143637069Y-90686498D01*
X143637072Y-90686498D01*
X143673663Y-90679219D01*
X143711301Y-90671734D01*
X143795484Y-90615484D01*
X143851734Y-90531301D01*
X143866500Y-90457067D01*
X143866499Y-89506934D01*
X143866498Y-89506930D01*
X143866498Y-89506926D01*
X143851734Y-89432700D01*
X143851734Y-89432699D01*
X143841245Y-89417001D01*
X143820030Y-89349251D01*
X143838812Y-89280784D01*
X143841218Y-89277038D01*
X143851734Y-89261301D01*
X143866500Y-89187067D01*
X143866499Y-88322211D01*
X143886501Y-88254091D01*
X143940157Y-88207598D01*
X144010431Y-88197494D01*
X144075011Y-88226987D01*
X144081594Y-88233117D01*
X144728724Y-88880247D01*
X144799753Y-88951276D01*
X144799754Y-88951277D01*
X144799756Y-88951278D01*
X144886741Y-89001499D01*
X144886743Y-89001499D01*
X144886746Y-89001501D01*
X144983775Y-89027500D01*
X144983777Y-89027500D01*
X159240223Y-89027500D01*
X159240225Y-89027500D01*
X159337254Y-89001501D01*
X159337257Y-89001499D01*
X159337258Y-89001499D01*
X159380750Y-88976388D01*
X159424247Y-88951276D01*
X159495276Y-88880247D01*
X159986119Y-88389404D01*
X160048431Y-88355378D01*
X160075214Y-88352499D01*
X163013064Y-88352499D01*
X163013066Y-88352499D01*
X163013069Y-88352498D01*
X163013072Y-88352498D01*
X163049663Y-88345219D01*
X163087301Y-88337734D01*
X163171484Y-88281484D01*
X163227734Y-88197301D01*
X163242500Y-88123067D01*
X163242499Y-87072934D01*
X163242498Y-87072930D01*
X163242498Y-87072926D01*
X163227734Y-86998699D01*
X163205767Y-86965823D01*
X163171484Y-86914516D01*
X163171483Y-86914515D01*
X163087302Y-86858266D01*
X163013067Y-86843500D01*
X157462936Y-86843500D01*
X157462927Y-86843501D01*
X157388699Y-86858265D01*
X157304515Y-86914516D01*
X157248266Y-86998697D01*
X157233500Y-87072930D01*
X157233500Y-88123067D01*
X157233805Y-88126156D01*
X157233500Y-88127758D01*
X157233501Y-88129256D01*
X157233217Y-88129256D01*
X157220573Y-88195909D01*
X157171730Y-88247434D01*
X157108411Y-88264500D01*
X153715590Y-88264500D01*
X153647469Y-88244498D01*
X153600976Y-88190842D01*
X153590713Y-88129257D01*
X153590500Y-88129257D01*
X153590499Y-88127979D01*
X153590196Y-88126155D01*
X153590498Y-88123076D01*
X153590500Y-88123067D01*
X153590499Y-87072934D01*
X153590498Y-87072930D01*
X153590498Y-87072926D01*
X153575734Y-86998699D01*
X153553767Y-86965823D01*
X153519484Y-86914516D01*
X153519483Y-86914515D01*
X153435302Y-86858266D01*
X153361067Y-86843500D01*
X147810936Y-86843500D01*
X147810927Y-86843501D01*
X147736699Y-86858265D01*
X147652515Y-86914516D01*
X147596266Y-86998697D01*
X147581500Y-87072930D01*
X147581500Y-87090500D01*
X147561498Y-87158621D01*
X147507842Y-87205114D01*
X147455500Y-87216500D01*
X145434212Y-87216500D01*
X145366091Y-87196498D01*
X145345121Y-87179599D01*
X144032247Y-85866724D01*
X143945254Y-85816499D01*
X143945250Y-85816498D01*
X143945247Y-85816496D01*
X143944275Y-85816093D01*
X143943580Y-85815533D01*
X143938103Y-85812371D01*
X143938596Y-85811516D01*
X143888996Y-85771542D01*
X143866579Y-85704178D01*
X143866499Y-85699687D01*
X143866499Y-85696936D01*
X143866498Y-85696927D01*
X143851734Y-85622700D01*
X143851734Y-85622699D01*
X143841245Y-85607001D01*
X143838425Y-85597996D01*
X147060271Y-85597996D01*
X147060271Y-85598003D01*
X147081079Y-85742727D01*
X147081081Y-85742734D01*
X147141824Y-85875743D01*
X147237579Y-85986250D01*
X147360589Y-86065304D01*
X147500889Y-86106500D01*
X147509536Y-86109039D01*
X147508464Y-86112686D01*
X147556722Y-86134673D01*
X147590057Y-86186440D01*
X147591517Y-86185836D01*
X147594850Y-86193884D01*
X147595160Y-86194365D01*
X147595321Y-86195021D01*
X147596265Y-86197300D01*
X147652516Y-86281484D01*
X147736697Y-86337733D01*
X147736699Y-86337734D01*
X147810933Y-86352500D01*
X153361066Y-86352499D01*
X153361069Y-86352498D01*
X153361072Y-86352498D01*
X153397663Y-86345219D01*
X153435301Y-86337734D01*
X153519484Y-86281484D01*
X153575734Y-86197301D01*
X153590500Y-86123067D01*
X153590500Y-86105500D01*
X153610502Y-86037379D01*
X153664158Y-85990886D01*
X153716500Y-85979500D01*
X157107501Y-85979500D01*
X157175622Y-85999502D01*
X157222115Y-86053158D01*
X157233501Y-86105500D01*
X157233501Y-86123072D01*
X157248265Y-86197300D01*
X157304516Y-86281484D01*
X157388697Y-86337733D01*
X157388699Y-86337734D01*
X157462933Y-86352500D01*
X163013066Y-86352499D01*
X163013069Y-86352498D01*
X163013072Y-86352498D01*
X163049663Y-86345219D01*
X163087301Y-86337734D01*
X163171484Y-86281484D01*
X163227734Y-86197301D01*
X163242500Y-86123067D01*
X163242499Y-85072934D01*
X163242498Y-85072927D01*
X163242498Y-85072926D01*
X163227734Y-84998699D01*
X163171483Y-84914515D01*
X163087302Y-84858266D01*
X163013067Y-84843500D01*
X157462936Y-84843500D01*
X157462927Y-84843501D01*
X157388699Y-84858265D01*
X157304515Y-84914516D01*
X157248266Y-84998697D01*
X157233500Y-85072930D01*
X157233500Y-85090500D01*
X157213498Y-85158621D01*
X157159842Y-85205114D01*
X157107500Y-85216500D01*
X153716499Y-85216500D01*
X153648378Y-85196498D01*
X153601885Y-85142842D01*
X153590499Y-85090500D01*
X153590499Y-85072936D01*
X153590498Y-85072927D01*
X153575734Y-84998699D01*
X153519483Y-84914515D01*
X153435302Y-84858266D01*
X153361067Y-84843500D01*
X147810936Y-84843500D01*
X147810927Y-84843501D01*
X147736699Y-84858265D01*
X147652515Y-84914516D01*
X147596265Y-84998697D01*
X147591517Y-85010163D01*
X147588336Y-85008845D01*
X147564963Y-85053523D01*
X147509063Y-85085350D01*
X147509536Y-85086961D01*
X147360589Y-85130696D01*
X147360587Y-85130697D01*
X147237579Y-85209749D01*
X147141824Y-85320256D01*
X147081081Y-85453265D01*
X147081079Y-85453272D01*
X147060271Y-85597996D01*
X143838425Y-85597996D01*
X143820030Y-85539251D01*
X143838812Y-85470784D01*
X143841218Y-85467038D01*
X143851734Y-85451301D01*
X143866500Y-85377067D01*
X143866499Y-84426934D01*
X143866498Y-84426930D01*
X143866498Y-84426926D01*
X143851734Y-84352700D01*
X143851734Y-84352699D01*
X143841245Y-84337001D01*
X143820030Y-84269251D01*
X143838812Y-84200784D01*
X143841218Y-84197038D01*
X143851734Y-84181301D01*
X143866500Y-84107067D01*
X143866499Y-83156934D01*
X143866498Y-83156930D01*
X143866498Y-83156926D01*
X143851734Y-83082700D01*
X143851734Y-83082699D01*
X143841245Y-83067001D01*
X143820030Y-82999251D01*
X143838812Y-82930784D01*
X143841218Y-82927038D01*
X143851734Y-82911301D01*
X143866500Y-82837067D01*
X143866499Y-81886934D01*
X143866498Y-81886930D01*
X143866498Y-81886926D01*
X143851734Y-81812700D01*
X143851734Y-81812699D01*
X143841245Y-81797001D01*
X143820030Y-81729251D01*
X143838812Y-81660784D01*
X143841218Y-81657038D01*
X143851734Y-81641301D01*
X143866500Y-81567067D01*
X143866499Y-80616934D01*
X143866498Y-80616930D01*
X143866498Y-80616926D01*
X143851734Y-80542700D01*
X143851734Y-80542699D01*
X143841245Y-80527001D01*
X143820030Y-80459251D01*
X143838812Y-80390784D01*
X143841218Y-80387038D01*
X143851734Y-80371301D01*
X143856725Y-80346206D01*
X143864939Y-80304918D01*
X143897847Y-80242008D01*
X143959542Y-80206877D01*
X143988518Y-80203500D01*
X144002223Y-80203500D01*
X144002225Y-80203500D01*
X144099254Y-80177501D01*
X144099257Y-80177499D01*
X144099258Y-80177499D01*
X144165098Y-80139486D01*
X144186247Y-80127276D01*
X144257276Y-80056247D01*
X145155118Y-79158405D01*
X145217430Y-79124379D01*
X145244213Y-79121500D01*
X157784223Y-79121500D01*
X157784225Y-79121500D01*
X157881254Y-79095501D01*
X157881257Y-79095499D01*
X157881258Y-79095499D01*
X157966359Y-79046366D01*
X157968247Y-79045276D01*
X158039276Y-78974247D01*
X159047275Y-77966248D01*
X159097501Y-77879254D01*
X159123499Y-77782226D01*
X159123499Y-77682079D01*
X159143501Y-77613958D01*
X159197157Y-77567465D01*
X159267431Y-77557361D01*
X159300191Y-77569915D01*
X159301032Y-77567886D01*
X159312496Y-77572634D01*
X159312498Y-77572634D01*
X159312499Y-77572635D01*
X159386733Y-77587401D01*
X160097266Y-77587400D01*
X160097269Y-77587399D01*
X160097273Y-77587399D01*
X160146526Y-77577602D01*
X160171501Y-77572635D01*
X160255684Y-77516385D01*
X160311934Y-77432202D01*
X160326700Y-77357968D01*
X160326699Y-75758435D01*
X160326698Y-75758432D01*
X160326698Y-75758427D01*
X160311934Y-75684200D01*
X160296900Y-75661701D01*
X160255684Y-75600017D01*
X160211785Y-75570684D01*
X160171502Y-75543767D01*
X160097269Y-75529001D01*
X160097267Y-75529001D01*
X159940714Y-75529001D01*
X159872593Y-75508999D01*
X159851618Y-75492096D01*
X159670306Y-75310784D01*
X159482148Y-75122625D01*
X159482146Y-75122624D01*
X159482144Y-75122622D01*
X159395159Y-75072401D01*
X159383693Y-75069328D01*
X159298126Y-75046401D01*
X159298124Y-75046401D01*
X144594058Y-75046401D01*
X144594042Y-75046400D01*
X144586324Y-75046400D01*
X144485874Y-75046400D01*
X144437360Y-75059399D01*
X144388844Y-75072399D01*
X144301855Y-75122622D01*
X144301849Y-75122627D01*
X144075559Y-75348916D01*
X144013247Y-75382941D01*
X143942431Y-75377875D01*
X143885595Y-75335329D01*
X143860785Y-75268808D01*
X143862886Y-75235235D01*
X143866499Y-75217072D01*
X143866500Y-75217067D01*
X143866499Y-74266934D01*
X143866498Y-74266930D01*
X143866498Y-74266926D01*
X143851734Y-74192699D01*
X143795483Y-74108515D01*
X143711302Y-74052266D01*
X143637067Y-74037500D01*
X141586936Y-74037500D01*
X141586926Y-74037501D01*
X141512699Y-74052265D01*
X141428515Y-74108516D01*
X141372266Y-74192697D01*
X141357500Y-74266930D01*
X126866498Y-74266930D01*
X126866498Y-74266926D01*
X126851734Y-74192699D01*
X126795483Y-74108515D01*
X126711302Y-74052266D01*
X126637067Y-74037500D01*
X124586936Y-74037500D01*
X124586926Y-74037501D01*
X124512699Y-74052265D01*
X124428515Y-74108516D01*
X124372266Y-74192697D01*
X124357500Y-74266930D01*
X124357500Y-74473300D01*
X124337498Y-74541421D01*
X124283842Y-74587914D01*
X124231500Y-74599300D01*
X123265744Y-74599300D01*
X123197623Y-74579298D01*
X123151130Y-74525642D01*
X123142165Y-74497879D01*
X123137634Y-74475099D01*
X123081383Y-74390915D01*
X122997202Y-74334666D01*
X122922967Y-74319900D01*
X121933036Y-74319900D01*
X121933026Y-74319901D01*
X121858799Y-74334665D01*
X121774614Y-74390916D01*
X121758061Y-74415689D01*
X121703583Y-74461215D01*
X121633139Y-74470060D01*
X121569096Y-74439416D01*
X121548534Y-74415685D01*
X121531983Y-74390915D01*
X121447802Y-74334666D01*
X121373567Y-74319900D01*
X119926436Y-74319900D01*
X119926426Y-74319901D01*
X119852199Y-74334665D01*
X119768015Y-74390916D01*
X119711766Y-74475097D01*
X119697000Y-74549330D01*
X119697000Y-75615463D01*
X119697001Y-75615473D01*
X119711765Y-75689700D01*
X119774911Y-75784203D01*
X119772197Y-75786015D01*
X119796662Y-75830817D01*
X119791597Y-75901632D01*
X119749050Y-75958468D01*
X119682530Y-75983279D01*
X119673541Y-75983600D01*
X118999336Y-75983600D01*
X118999326Y-75983601D01*
X118925099Y-75998365D01*
X118840915Y-76054616D01*
X118784666Y-76138797D01*
X118769900Y-76213030D01*
X115138700Y-76213030D01*
X115138700Y-72592700D01*
X115158702Y-72524579D01*
X115212358Y-72478086D01*
X115264700Y-72466700D01*
X163627300Y-72466700D01*
X163695421Y-72486702D01*
G37*
%TD.AperFunction*%
%TD*%
M02*
