M48
; DRILL file {KiCad 8.0.4} date 2024-10-03T11:01:57-0400
; FORMAT={-:-/ absolute / inch / decimal}
; #@! TF.CreationDate,2024-10-03T11:01:57-04:00
; #@! TF.GenerationSoftware,Kicad,Pcbnew,8.0.4
; #@! TF.FileFunction,MixedPlating,1,4
FMAT,2
INCH
; #@! TA.AperFunction,Plated,PTH,ViaDrill
T1C0.0100
; #@! TA.AperFunction,Plated,PTH,ComponentDrill
T2C0.0256
; #@! TA.AperFunction,Plated,PTH,ComponentDrill
T3C0.0400
; #@! TA.AperFunction,Plated,PTH,ComponentDrill
T4C0.0402
; #@! TA.AperFunction,NonPlated,NPTH,ComponentDrill
T5C0.0224
%
G90
G05
T1
X0.04Y0.2
X0.06Y1.63
X0.06Y0.43
X0.07Y1.49
X0.07Y1.43
X0.07Y1.37
X0.07Y1.31
X0.1Y0.35
X0.1Y0.09
X0.12Y1.22
X0.12Y1.12
X0.12Y1.02
X0.12Y0.92
X0.12Y0.82
X0.12Y0.72
X0.12Y0.62
X0.12Y0.52
X0.13Y0.21
X0.17Y1.62
X0.19Y0.05
X0.25Y1.49
X0.25Y1.43
X0.25Y1.37
X0.25Y1.31
X0.26Y1.55
X0.26Y0.23
X0.27Y0.11
X0.3Y1.27
X0.31Y0.41
X0.32Y1.37
X0.34Y1.62
X0.35Y0.11
X0.36Y1.51
X0.36Y1.46
X0.36Y1.41
X0.36Y1.36
X0.36Y1.32
X0.39Y0.84
X0.4Y0.2
X0.4Y0.15
X0.43Y0.83
X0.43Y0.41
X0.46Y1.62
X0.48Y0.93
X0.48Y0.2
X0.48Y0.15
X0.51Y0.31
X0.52Y0.68
X0.58Y0.68
X0.59Y0.2
X0.59Y0.14
X0.61Y0.45
X0.62Y0.17
X0.62Y0.07
X0.63Y0.37
X0.6357Y1.365
X0.6357Y1.31
X0.65Y0.25
X0.65Y0.09
X0.66Y1.03
X0.663Y1.3922
X0.663Y1.3371
X0.663Y1.282
X0.67Y0.48
X0.69Y0.25
X0.69Y0.09
X0.6908Y1.365
X0.6908Y1.31
X0.719Y1.3922
X0.719Y1.3371
X0.719Y1.282
X0.7459Y1.365
X0.7459Y1.31
X0.75Y0.62
X0.75Y0.2
X0.75Y0.14
X0.86Y1.63
X0.86Y1.23
X0.87Y0.44
X0.88Y0.4
X0.92Y0.8
X0.93Y0.88
X0.94Y0.77
X0.94Y0.4
X0.98Y0.88
X0.98Y0.64
X0.98Y0.14
X1.05Y0.74
X1.06Y0.71
X1.06Y0.23
X1.09Y0.66
X1.09Y0.53
X1.14Y1.46
X1.14Y1.41
X1.15Y1.62
X1.15Y1.57
X1.15Y1.27
X1.15Y1.22
X1.15Y1.17
X1.15Y1.02
X1.19Y1.42
X1.2Y0.35
X1.2Y0.14
X1.23Y1.31
X1.23Y0.97
X1.25Y0.31
X1.26Y0.03
X1.27Y1.48
X1.28Y1.14
X1.28Y0.44
X1.3Y1.6
X1.33Y0.83
X1.33Y0.73
X1.34Y1.45
X1.36Y0.04
X1.38Y0.78
X1.38Y0.43
X1.39Y1.31
X1.39Y0.97
X1.4Y1.26
X1.4Y1.18
X1.42Y1.6
X1.43Y0.73
X1.48Y1.37
X1.52Y0.39
X1.52Y0.35
X1.53Y0.46
X1.55Y0.04
X1.58Y1.37
X1.61Y1.48
X1.61Y1.31
X1.61Y0.97
X1.64Y1.6
X1.66Y0.03
X1.68Y1.45
X1.68Y1.37
X1.71Y0.17
X1.76Y1.6
X1.77Y1.31
X1.77Y0.97
X1.78Y1.26
X1.78Y1.18
X1.8Y0.17
X1.86Y1.43
X1.88Y0.19
T3
X0.07Y1.22
X0.07Y1.12
X0.07Y1.02
X0.07Y0.92
X0.07Y0.82
X0.07Y0.72
X0.07Y0.62
X0.07Y0.52
X0.17Y1.22
X0.17Y1.12
X0.17Y1.02
X0.17Y0.92
X0.17Y0.82
X0.17Y0.72
X0.17Y0.62
X0.17Y0.52
X0.27Y1.22
X0.27Y1.12
X0.27Y1.02
X0.27Y0.92
X0.27Y0.82
X0.27Y0.72
X0.27Y0.62
X0.27Y0.52
X0.31Y0.17
X0.31Y0.07
X1.78Y0.83
T4
X1.28Y0.83
X1.28Y0.73
X1.38Y0.83
X1.38Y0.73
X1.48Y0.83
X1.48Y0.73
X1.58Y0.83
X1.58Y0.73
X1.68Y0.83
X1.68Y0.73
X1.78Y0.73
T5
X0.5224Y0.17
T2
G00X0.5706Y0.2546
M15
G01X0.5804Y0.2546
M16
G05
G00X0.5706Y0.0854
M15
G01X0.5804Y0.0854
M16
G05
G00X0.7596Y0.2546
M15
G01X0.7694Y0.2546
M16
G05
G00X0.7596Y0.0854
M15
G01X0.7694Y0.0854
M16
G05
M30
