%TF.GenerationSoftware,KiCad,Pcbnew,8.0.4*%
%TF.CreationDate,2024-09-05T11:54:57-04:00*%
%TF.ProjectId,ESP32-RC_R0,45535033-322d-4524-935f-52302e6b6963,0*%
%TF.SameCoordinates,Original*%
%TF.FileFunction,Soldermask,Top*%
%TF.FilePolarity,Negative*%
%FSLAX46Y46*%
G04 Gerber Fmt 4.6, Leading zero omitted, Abs format (unit mm)*
G04 Created by KiCad (PCBNEW 8.0.4) date 2024-09-05 11:54:57*
%MOMM*%
%LPD*%
G01*
G04 APERTURE LIST*
G04 Aperture macros list*
%AMRoundRect*
0 Rectangle with rounded corners*
0 $1 Rounding radius*
0 $2 $3 $4 $5 $6 $7 $8 $9 X,Y pos of 4 corners*
0 Add a 4 corners polygon primitive as box body*
4,1,4,$2,$3,$4,$5,$6,$7,$8,$9,$2,$3,0*
0 Add four circle primitives for the rounded corners*
1,1,$1+$1,$2,$3*
1,1,$1+$1,$4,$5*
1,1,$1+$1,$6,$7*
1,1,$1+$1,$8,$9*
0 Add four rect primitives between the rounded corners*
20,1,$1+$1,$2,$3,$4,$5,0*
20,1,$1+$1,$4,$5,$6,$7,0*
20,1,$1+$1,$6,$7,$8,$9,0*
20,1,$1+$1,$8,$9,$2,$3,0*%
G04 Aperture macros list end*
%ADD10RoundRect,0.102000X0.400000X-0.400000X0.400000X0.400000X-0.400000X0.400000X-0.400000X-0.400000X0*%
%ADD11RoundRect,0.076200X0.469900X-0.406400X0.469900X0.406400X-0.469900X0.406400X-0.469900X-0.406400X0*%
%ADD12RoundRect,0.076200X0.406400X0.469900X-0.406400X0.469900X-0.406400X-0.469900X0.406400X-0.469900X0*%
%ADD13RoundRect,0.102000X0.200000X-0.240000X0.200000X0.240000X-0.200000X0.240000X-0.200000X-0.240000X0*%
%ADD14RoundRect,0.076200X-0.406400X-0.469900X0.406400X-0.469900X0.406400X0.469900X-0.406400X0.469900X0*%
%ADD15RoundRect,0.076200X-0.469900X0.406400X-0.469900X-0.406400X0.469900X-0.406400X0.469900X0.406400X0*%
%ADD16RoundRect,0.076200X0.698500X-0.508000X0.698500X0.508000X-0.698500X0.508000X-0.698500X-0.508000X0*%
%ADD17RoundRect,0.076200X-0.508000X-0.698500X0.508000X-0.698500X0.508000X0.698500X-0.508000X0.698500X0*%
%ADD18RoundRect,0.076200X-0.698500X0.508000X-0.698500X-0.508000X0.698500X-0.508000X0.698500X0.508000X0*%
%ADD19RoundRect,0.076200X-0.901700X-3.746500X0.901700X-3.746500X0.901700X3.746500X-0.901700X3.746500X0*%
%ADD20RoundRect,0.102000X0.135000X-0.495000X0.135000X0.495000X-0.135000X0.495000X-0.135000X-0.495000X0*%
%ADD21RoundRect,0.102000X0.495000X-0.135000X0.495000X0.135000X-0.495000X0.135000X-0.495000X-0.135000X0*%
%ADD22RoundRect,0.102000X1.625000X-1.625000X1.625000X1.625000X-1.625000X1.625000X-1.625000X-1.625000X0*%
%ADD23RoundRect,0.102000X-0.685000X0.685000X-0.685000X-0.685000X0.685000X-0.685000X0.685000X0.685000X0*%
%ADD24C,1.574000*%
%ADD25RoundRect,0.076200X-0.330200X-0.774700X0.330200X-0.774700X0.330200X0.774700X-0.330200X0.774700X0*%
%ADD26RoundRect,0.076200X-0.647700X-0.952500X0.647700X-0.952500X0.647700X0.952500X-0.647700X0.952500X0*%
%ADD27RoundRect,0.076200X1.000000X-0.450000X1.000000X0.450000X-1.000000X0.450000X-1.000000X-0.450000X0*%
%ADD28RoundRect,0.076200X-0.450000X-1.000000X0.450000X-1.000000X0.450000X1.000000X-0.450000X1.000000X0*%
%ADD29RoundRect,0.076200X0.665000X-0.665000X0.665000X0.665000X-0.665000X0.665000X-0.665000X-0.665000X0*%
%ADD30RoundRect,0.076200X0.750000X1.000000X-0.750000X1.000000X-0.750000X-1.000000X0.750000X-1.000000X0*%
%ADD31RoundRect,0.102000X-0.300000X0.400000X-0.300000X-0.400000X0.300000X-0.400000X0.300000X0.400000X0*%
%ADD32C,0.852400*%
%ADD33RoundRect,0.102000X-0.200000X-0.675000X0.200000X-0.675000X0.200000X0.675000X-0.200000X0.675000X0*%
%ADD34RoundRect,0.102000X-0.900000X-0.950000X0.900000X-0.950000X0.900000X0.950000X-0.900000X0.950000X0*%
%ADD35RoundRect,0.102000X-0.950000X-0.950000X0.950000X-0.950000X0.950000X0.950000X-0.950000X0.950000X0*%
%ADD36RoundRect,0.102000X0.300000X-0.400000X0.300000X0.400000X-0.300000X0.400000X-0.300000X-0.400000X0*%
%ADD37RoundRect,0.076200X-0.300000X-0.575000X0.300000X-0.575000X0.300000X0.575000X-0.300000X0.575000X0*%
%ADD38RoundRect,0.076200X2.750000X-0.500000X2.750000X0.500000X-2.750000X0.500000X-2.750000X-0.500000X0*%
%ADD39RoundRect,0.076200X1.500000X-0.800000X1.500000X0.800000X-1.500000X0.800000X-1.500000X-0.800000X0*%
%ADD40RoundRect,0.102000X-0.230000X0.520000X-0.230000X-0.520000X0.230000X-0.520000X0.230000X0.520000X0*%
G04 APERTURE END LIST*
D10*
%TO.C,D5*%
X155194000Y-112560000D03*
X155194000Y-110960000D03*
%TD*%
D11*
%TO.C,R8*%
X138430000Y-101142800D03*
X138430000Y-99517200D03*
%TD*%
D12*
%TO.C,R9*%
X122478800Y-76708000D03*
X120853200Y-76708000D03*
%TD*%
D13*
%TO.C,D2*%
X132842000Y-106578000D03*
X132842000Y-105258000D03*
%TD*%
D12*
%TO.C,C7*%
X145592800Y-101092000D03*
X143967200Y-101092000D03*
%TD*%
%TO.C,R3*%
X122478800Y-79756000D03*
X120853200Y-79756000D03*
%TD*%
D14*
%TO.C,C10*%
X151841200Y-104902000D03*
X153466800Y-104902000D03*
%TD*%
D15*
%TO.C,R18*%
X150114000Y-107137200D03*
X150114000Y-108762800D03*
%TD*%
D13*
%TO.C,D3*%
X131318000Y-106578000D03*
X131318000Y-105258000D03*
%TD*%
D14*
%TO.C,R1*%
X115976400Y-113030000D03*
X117602000Y-113030000D03*
X119227600Y-113030000D03*
%TD*%
D16*
%TO.C,C4*%
X120650000Y-75082400D03*
X120650000Y-73253600D03*
%TD*%
D15*
%TO.C,C2*%
X134874000Y-103327200D03*
X134874000Y-104952800D03*
%TD*%
D11*
%TO.C,R15*%
X125222000Y-99618800D03*
X125222000Y-97993200D03*
%TD*%
D13*
%TO.C,D4*%
X129794000Y-106578000D03*
X129794000Y-105258000D03*
%TD*%
D14*
%TO.C,C8*%
X155143200Y-108966000D03*
X156768800Y-108966000D03*
%TD*%
D11*
%TO.C,R12*%
X141478000Y-99364800D03*
X141478000Y-97739200D03*
%TD*%
D12*
%TO.C,R7*%
X119430800Y-81280000D03*
X117805200Y-81280000D03*
%TD*%
D17*
%TO.C,C9*%
X151739600Y-103124000D03*
X153568400Y-103124000D03*
%TD*%
D12*
%TO.C,R17*%
X156768800Y-107188000D03*
X155143200Y-107188000D03*
%TD*%
D18*
%TO.C,C12*%
X159004000Y-107289600D03*
X159004000Y-109118400D03*
%TD*%
D11*
%TO.C,R20*%
X156718000Y-112572800D03*
X156718000Y-110947200D03*
%TD*%
%TO.C,C3*%
X122428000Y-74980800D03*
X122428000Y-73355200D03*
%TD*%
D15*
%TO.C,R11*%
X139954000Y-97739200D03*
X139954000Y-99364800D03*
%TD*%
D14*
%TO.C,R22*%
X115976400Y-110236000D03*
X117602000Y-110236000D03*
X119227600Y-110236000D03*
%TD*%
%TO.C,C6*%
X139903200Y-101092000D03*
X141528800Y-101092000D03*
%TD*%
D19*
%TO.C,L1*%
X156210000Y-102108000D03*
X161798000Y-102108000D03*
%TD*%
D11*
%TO.C,R10*%
X138430000Y-97840800D03*
X138430000Y-96215200D03*
%TD*%
D12*
%TO.C,C5*%
X119430800Y-76708000D03*
X117805200Y-76708000D03*
%TD*%
D20*
%TO.C,U1*%
X132612000Y-101166000D03*
X133112000Y-101166000D03*
X133612000Y-101166000D03*
X134112000Y-101166000D03*
X134612000Y-101166000D03*
X135112000Y-101166000D03*
X135612000Y-101166000D03*
D21*
X136472000Y-100306000D03*
X136472000Y-99806000D03*
X136472000Y-99306000D03*
X136472000Y-98806000D03*
X136472000Y-98306000D03*
X136472000Y-97806000D03*
X136472000Y-97306000D03*
D20*
X135612000Y-96446000D03*
X135112000Y-96446000D03*
X134612000Y-96446000D03*
X134112000Y-96446000D03*
X133612000Y-96446000D03*
X133112000Y-96446000D03*
X132612000Y-96446000D03*
D21*
X131752000Y-97306000D03*
X131752000Y-97806000D03*
X131752000Y-98306000D03*
X131752000Y-98806000D03*
X131752000Y-99306000D03*
X131752000Y-99806000D03*
X131752000Y-100306000D03*
D22*
X134112000Y-98806000D03*
%TD*%
D12*
%TO.C,R4*%
X122478800Y-81280000D03*
X120853200Y-81280000D03*
%TD*%
D18*
%TO.C,C11*%
X161036000Y-107289600D03*
X161036000Y-109118400D03*
%TD*%
D23*
%TO.C,J5*%
X122936000Y-110236000D03*
D24*
X122936000Y-112776000D03*
%TD*%
D15*
%TO.C,C1*%
X136398000Y-103327200D03*
X136398000Y-104952800D03*
%TD*%
D25*
%TO.C,J3*%
X148106000Y-76558201D03*
X149106001Y-76558201D03*
X150105999Y-76558201D03*
X151106000Y-76558201D03*
D26*
X146806001Y-73978201D03*
X152405999Y-73978201D03*
%TD*%
D15*
%TO.C,R16*%
X126746000Y-97993200D03*
X126746000Y-99618800D03*
%TD*%
D27*
%TO.C,U2*%
X125612000Y-73472000D03*
X125612000Y-74742000D03*
X125612000Y-76012000D03*
X125612000Y-77282000D03*
X125612000Y-78552000D03*
X125612000Y-79822000D03*
X125612000Y-81092000D03*
X125612000Y-82362000D03*
X125612000Y-83632000D03*
X125612000Y-84902000D03*
X125612000Y-86172000D03*
X125612000Y-87442000D03*
X125612000Y-88712000D03*
X125612000Y-89982000D03*
D28*
X128397000Y-90982000D03*
X129667000Y-90982000D03*
X130937000Y-90982000D03*
X132207000Y-90982000D03*
X133477000Y-90982000D03*
X134747000Y-90982000D03*
X136017000Y-90982000D03*
X137287000Y-90982000D03*
X138557000Y-90982000D03*
X139827000Y-90982000D03*
D27*
X142612000Y-89982000D03*
X142612000Y-88712000D03*
X142612000Y-87442000D03*
X142612000Y-86172000D03*
X142612000Y-84902000D03*
X142612000Y-83632000D03*
X142612000Y-82362000D03*
X142612000Y-81092000D03*
X142612000Y-79822000D03*
X142612000Y-78552000D03*
X142612000Y-77282000D03*
X142612000Y-76012000D03*
X142612000Y-74742000D03*
X142612000Y-73472000D03*
D29*
X133112000Y-80472000D03*
X131277000Y-82307000D03*
X133112000Y-82307000D03*
X134947000Y-82307000D03*
X134947000Y-80472000D03*
X134947000Y-78637000D03*
X133112000Y-78637000D03*
X131277000Y-78637000D03*
X131277000Y-80472000D03*
%TD*%
D30*
%TO.C,S1*%
X139954000Y-112558000D03*
X139954000Y-104358000D03*
%TD*%
D11*
%TO.C,R14*%
X128270000Y-99618800D03*
X128270000Y-97993200D03*
%TD*%
%TO.C,R13*%
X129794000Y-99618800D03*
X129794000Y-97993200D03*
%TD*%
D31*
%TO.C,Q2*%
X126934000Y-101352000D03*
X125034000Y-101352000D03*
X125984000Y-103372000D03*
%TD*%
D12*
%TO.C,R5*%
X119430800Y-78232000D03*
X117805200Y-78232000D03*
%TD*%
D32*
%TO.C,J8*%
X128227000Y-109914000D03*
X132377000Y-109914000D03*
D33*
X129002000Y-109689000D03*
X129652000Y-109689000D03*
X130302000Y-109689000D03*
X130952000Y-109689000D03*
X131602000Y-109689000D03*
D34*
X126302000Y-112364000D03*
D35*
X129102000Y-112364000D03*
X131502000Y-112364000D03*
D34*
X134302000Y-112364000D03*
%TD*%
D23*
%TO.C,J1*%
X116840000Y-83566000D03*
D24*
X119380000Y-83566000D03*
X121920000Y-83566000D03*
X116840000Y-86106000D03*
X119380000Y-86106000D03*
X121920000Y-86106000D03*
X116840000Y-88646000D03*
X119380000Y-88646000D03*
X121920000Y-88646000D03*
X116840000Y-91186000D03*
X119380000Y-91186000D03*
X121920000Y-91186000D03*
X116840000Y-93726000D03*
X119380000Y-93726000D03*
X121920000Y-93726000D03*
X116840000Y-96266000D03*
X119380000Y-96266000D03*
X121920000Y-96266000D03*
X116840000Y-98806000D03*
X119380000Y-98806000D03*
X121920000Y-98806000D03*
X116840000Y-101346000D03*
X119380000Y-101346000D03*
X121920000Y-101346000D03*
%TD*%
D25*
%TO.C,J4*%
X156742000Y-76558201D03*
X157742001Y-76558201D03*
X158741999Y-76558201D03*
X159742000Y-76558201D03*
D26*
X155442001Y-73978201D03*
X161041999Y-73978201D03*
%TD*%
D36*
%TO.C,Q1*%
X125034000Y-96260000D03*
X126934000Y-96260000D03*
X125984000Y-94240000D03*
%TD*%
D37*
%TO.C,U3*%
X153604000Y-106650000D03*
X152654000Y-106650000D03*
X151704000Y-106650000D03*
X151704000Y-109250000D03*
X152654000Y-109250000D03*
X153604000Y-109250000D03*
%TD*%
D12*
%TO.C,R6*%
X119430800Y-79756000D03*
X117805200Y-79756000D03*
%TD*%
D15*
%TO.C,R21*%
X151892000Y-110947200D03*
X151892000Y-112572800D03*
%TD*%
D38*
%TO.C,J6*%
X150586000Y-87598000D03*
X150586000Y-85598000D03*
X150586000Y-83598000D03*
D39*
X148336000Y-89998000D03*
X148336000Y-81198000D03*
%TD*%
D11*
%TO.C,R19*%
X153416000Y-112572800D03*
X153416000Y-110947200D03*
%TD*%
D40*
%TO.C,D1*%
X128016000Y-107362000D03*
X128016000Y-104982000D03*
%TD*%
D38*
%TO.C,J7*%
X160238000Y-87598000D03*
X160238000Y-85598000D03*
X160238000Y-83598000D03*
D39*
X157988000Y-89998000D03*
X157988000Y-81198000D03*
%TD*%
D15*
%TO.C,R23*%
X162814000Y-107340400D03*
X162814000Y-108966000D03*
%TD*%
D12*
%TO.C,R2*%
X122478800Y-78232000D03*
X120853200Y-78232000D03*
%TD*%
D30*
%TO.C,S2*%
X145542000Y-112558000D03*
X145542000Y-104358000D03*
%TD*%
M02*
