%TF.GenerationSoftware,KiCad,Pcbnew,8.0.4*%
%TF.CreationDate,2024-10-03T11:01:47-04:00*%
%TF.ProjectId,ESP32-RC_R1,45535033-322d-4524-935f-52312e6b6963,0*%
%TF.SameCoordinates,PX6dbb4f0PY6d3f490*%
%TF.FileFunction,Copper,L3,Inr*%
%TF.FilePolarity,Positive*%
%FSLAX46Y46*%
G04 Gerber Fmt 4.6, Leading zero omitted, Abs format (unit mm)*
G04 Created by KiCad (PCBNEW 8.0.4) date 2024-10-03 11:01:47*
%MOMM*%
%LPD*%
G01*
G04 APERTURE LIST*
%TA.AperFunction,ComponentPad*%
%ADD10R,1.371600X1.371600*%
%TD*%
%TA.AperFunction,ComponentPad*%
%ADD11C,1.370000*%
%TD*%
%TA.AperFunction,ComponentPad*%
%ADD12C,1.371600*%
%TD*%
%TA.AperFunction,ComponentPad*%
%ADD13O,1.400000X1.150000*%
%TD*%
%TA.AperFunction,ViaPad*%
%ADD14C,0.508000*%
%TD*%
%TA.AperFunction,Conductor*%
%ADD15C,0.254000*%
%TD*%
%TA.AperFunction,Conductor*%
%ADD16C,1.016000*%
%TD*%
%TA.AperFunction,Conductor*%
%ADD17C,0.203200*%
%TD*%
G04 APERTURE END LIST*
D10*
%TO.N,/CS*%
%TO.C,J8*%
X45212000Y21082000D03*
D11*
%TO.N,/INT*%
X45212000Y18542000D03*
%TO.N,/MOSI*%
X42672000Y21082000D03*
%TO.N,/RST*%
X42672000Y18542000D03*
%TO.N,/MISO*%
X40132000Y21082000D03*
%TO.N,/CS2*%
X40132000Y18542000D03*
%TO.N,/SCK*%
X37592000Y21082000D03*
%TO.N,/CS3*%
X37592000Y18542000D03*
%TO.N,GND*%
X35052000Y21082000D03*
X35052000Y18542000D03*
%TO.N,P3V3*%
X32512000Y21082000D03*
X32512000Y18542000D03*
%TD*%
D10*
%TO.N,/PVBATT*%
%TO.C,J5*%
X7874000Y4318000D03*
D12*
%TO.N,GND*%
X7874000Y1778000D03*
%TD*%
D10*
%TO.N,GND*%
%TO.C,J1*%
X1778000Y30988000D03*
D12*
%TO.N,/PVRC*%
X4318000Y30988000D03*
%TO.N,/RC1*%
X6858000Y30988000D03*
%TO.N,GND*%
X1778000Y28448000D03*
%TO.N,/PVRC*%
X4318000Y28448000D03*
%TO.N,/RC2*%
X6858000Y28448000D03*
%TO.N,GND*%
X1778000Y25908000D03*
%TO.N,/PVRC*%
X4318000Y25908000D03*
%TO.N,/RC3*%
X6858000Y25908000D03*
%TO.N,GND*%
X1778000Y23368000D03*
%TO.N,/PVRC*%
X4318000Y23368000D03*
%TO.N,/RC4*%
X6858000Y23368000D03*
%TO.N,GND*%
X1778000Y20828000D03*
%TO.N,/PVRC*%
X4318000Y20828000D03*
%TO.N,/RC5*%
X6858000Y20828000D03*
%TO.N,GND*%
X1778000Y18288000D03*
%TO.N,/PVRC*%
X4318000Y18288000D03*
%TO.N,/RC6*%
X6858000Y18288000D03*
%TO.N,GND*%
X1778000Y15748000D03*
%TO.N,/PVRC*%
X4318000Y15748000D03*
%TO.N,/RC7*%
X6858000Y15748000D03*
%TO.N,GND*%
X1778000Y13208000D03*
%TO.N,/PVRC*%
X4318000Y13208000D03*
%TO.N,/RC8*%
X6858000Y13208000D03*
%TD*%
D13*
%TO.N,GND*%
%TO.C,J2*%
X14618000Y6468000D03*
X19418000Y6468000D03*
X14618000Y2168000D03*
X19418000Y2168000D03*
%TD*%
D14*
%TO.N,GND*%
X12192000Y5080000D03*
X12192000Y3810000D03*
X15748000Y1778000D03*
X36322000Y18542000D03*
X33782000Y18542000D03*
X33782000Y21082000D03*
X35052000Y19812000D03*
X35560000Y29972000D03*
X45212000Y29972000D03*
X40894000Y33274000D03*
X31242000Y33274000D03*
X31242000Y24638000D03*
X40894000Y24638000D03*
%TO.N,/SCK*%
X37592000Y34798000D03*
%TO.N,/MISO*%
X40132000Y34798000D03*
%TO.N,/MOSI*%
X42672000Y34798000D03*
X30226000Y36068000D03*
%TO.N,/INT*%
X9906000Y21336000D03*
%TO.N,/RST*%
X23622000Y22352000D03*
%TO.N,/CS2*%
X24892000Y22352000D03*
%TO.N,/CS3*%
X29210000Y25908000D03*
%TO.N,/CS*%
X29210000Y29718000D03*
%TO.N,/SCK*%
X29210000Y30988000D03*
%TO.N,/MISO*%
X29210000Y32258000D03*
%TO.N,/MOSI*%
X29210000Y39878000D03*
%TO.N,/INT*%
X9144000Y33528000D03*
%TO.N,P3V3*%
X4826000Y1270000D03*
X47752000Y4826000D03*
X32512000Y28956000D03*
X32512000Y11176000D03*
X6604000Y39370000D03*
X34036000Y36830000D03*
X22098000Y11176000D03*
X42672000Y36830000D03*
%TO.N,GND*%
X16840200Y35361800D03*
X11684000Y41148000D03*
X22352000Y10160000D03*
X39370000Y1016000D03*
X30480000Y3556000D03*
X16840200Y33961800D03*
X33020000Y40640000D03*
X18945700Y34671000D03*
X3048000Y28448000D03*
X18262600Y32561800D03*
X27686000Y16764000D03*
X17545700Y34671000D03*
X44958000Y33274000D03*
X1524000Y41402000D03*
X38862000Y11684000D03*
X4318000Y41148000D03*
X40894000Y37592000D03*
X18262600Y35361800D03*
X21844000Y31242000D03*
X19050000Y15748000D03*
X8636000Y41148000D03*
X10160000Y3810000D03*
X14986000Y5080000D03*
X19050000Y3556000D03*
X35306000Y24638000D03*
X24892000Y3556000D03*
X18262600Y33961800D03*
X1778000Y33274000D03*
X3048000Y15748000D03*
X29210000Y41148000D03*
X32258000Y37592000D03*
X6858000Y2794000D03*
X6604000Y5842000D03*
X16145700Y34671000D03*
X32004000Y762000D03*
X18945700Y33274000D03*
X14986000Y3556000D03*
X35306000Y33274000D03*
X3048000Y18288000D03*
X1778000Y36322000D03*
X3048000Y20828000D03*
X44704000Y40640000D03*
X1524000Y10922000D03*
X34544000Y1016000D03*
X8890000Y2794000D03*
X3048000Y25908000D03*
X15494000Y11430000D03*
X17545700Y33274000D03*
X27686000Y13462000D03*
X10160000Y5080000D03*
X45212000Y32004000D03*
X3048000Y23368000D03*
X26924000Y5842000D03*
X3048000Y13208000D03*
X38608000Y9906000D03*
X44958000Y24638000D03*
X19050000Y5080000D03*
X3048000Y30988000D03*
X47244000Y36322000D03*
X36068000Y40640000D03*
X41656000Y40640000D03*
X17018000Y12192000D03*
X42164000Y762000D03*
X43434000Y4318000D03*
X1778000Y34798000D03*
X16840200Y32561800D03*
X1778000Y37846000D03*
X16764000Y26162000D03*
X38608000Y8890000D03*
X16145700Y33274000D03*
X45720000Y4318000D03*
X21844000Y41402000D03*
X23368000Y20320000D03*
X12192000Y23622000D03*
%TO.N,/ESP32/EN*%
X10922000Y21082000D03*
X23876000Y19558000D03*
X6350000Y37846000D03*
X9144000Y38354000D03*
X23876000Y10160000D03*
%TO.N,/ESP32/IO00*%
X10922000Y10414000D03*
X30480000Y8890000D03*
%TO.N,PVESC*%
X1016000Y5080000D03*
X8128000Y34798000D03*
%TO.N,VBUS*%
X16002000Y9398000D03*
X15748000Y4318000D03*
X24892000Y16256000D03*
%TO.N,/ESP32/USB_DP*%
X17526000Y2286000D03*
X16510000Y6350000D03*
%TO.N,/ESP32/USB_DN*%
X17526000Y6350000D03*
X16510000Y2286000D03*
%TO.N,/PVRC*%
X2540000Y8890000D03*
X2540000Y2286000D03*
%TO.N,/PVBATT*%
X7620000Y32258000D03*
X7874000Y10414000D03*
%TO.N,/ESP32/RXD0*%
X14732000Y17272000D03*
X26924000Y18034000D03*
X28956000Y35814000D03*
%TO.N,/ESP32/TXD0*%
X28956000Y37084000D03*
X26670000Y18796000D03*
X13208000Y17272000D03*
%TO.N,/VSNS1*%
X9144000Y37084000D03*
X6350000Y36322000D03*
%TO.N,/VSNS2*%
X6350000Y34798000D03*
X9144000Y35814000D03*
%TO.N,/VSNS3*%
X6350000Y33274000D03*
X9144000Y34544000D03*
%TO.N,PVIN*%
X12954000Y7874000D03*
X35052000Y10922000D03*
X3302000Y5334000D03*
X31750000Y7874000D03*
%TO.N,GND*%
X35560000Y32004000D03*
%TD*%
D15*
%TO.N,PVIN*%
X5842000Y7874000D02*
X3302000Y5334000D01*
X12954000Y7874000D02*
X5842000Y7874000D01*
X31750000Y7874000D02*
X12954000Y7874000D01*
%TO.N,/ESP32/EN*%
X9906000Y37592000D02*
X9144000Y38354000D01*
X10922000Y21336000D02*
X9906000Y22352000D01*
X10922000Y21082000D02*
X10922000Y21336000D01*
X9906000Y22352000D02*
X9906000Y37592000D01*
%TO.N,/SCK*%
X37592000Y34798000D02*
X37592000Y21082000D01*
%TO.N,/MOSI*%
X30226000Y36068000D02*
X30226000Y38862000D01*
X30226000Y38862000D02*
X29210000Y39878000D01*
X42672000Y34798000D02*
X42672000Y21082000D01*
%TO.N,/MISO*%
X40132000Y34798000D02*
X40132000Y21082000D01*
%TO.N,/ESP32/RXD0*%
X28448000Y35306000D02*
X28956000Y35814000D01*
X28448000Y19558000D02*
X28448000Y35306000D01*
X26924000Y18034000D02*
X28448000Y19558000D01*
%TO.N,/INT*%
X9144000Y22098000D02*
X9144000Y33528000D01*
X9906000Y21336000D02*
X9144000Y22098000D01*
%TO.N,PVESC*%
X8636000Y10160000D02*
X8128000Y9652000D01*
X8636000Y10668000D02*
X8636000Y10160000D01*
X8382000Y10922000D02*
X8636000Y10668000D01*
X8128000Y9652000D02*
X5588000Y9652000D01*
X8382000Y34544000D02*
X8382000Y10922000D01*
X8128000Y34798000D02*
X8382000Y34544000D01*
X5588000Y9652000D02*
X1016000Y5080000D01*
%TO.N,P3V3*%
X32512000Y3048000D02*
X45974000Y3048000D01*
X5334000Y762000D02*
X4826000Y1270000D01*
X30226000Y762000D02*
X5334000Y762000D01*
X32512000Y3048000D02*
X30226000Y762000D01*
X32512000Y11176000D02*
X32512000Y3048000D01*
X45974000Y3048000D02*
X47752000Y4826000D01*
X32512000Y35306000D02*
X34036000Y36830000D01*
X32512000Y28956000D02*
X32512000Y35306000D01*
X34036000Y36830000D02*
X42672000Y36830000D01*
X32512000Y28956000D02*
X32512000Y11176000D01*
%TO.N,/ESP32/EN*%
X23876000Y10160000D02*
X23876000Y19558000D01*
%TO.N,/ESP32/IO00*%
X10922000Y10414000D02*
X12700000Y8636000D01*
X30226000Y8636000D02*
X30480000Y8890000D01*
X12700000Y8636000D02*
X30226000Y8636000D01*
%TO.N,VBUS*%
X24130000Y9398000D02*
X24892000Y10160000D01*
X16002000Y9398000D02*
X24130000Y9398000D01*
X24892000Y10160000D02*
X24892000Y16256000D01*
D16*
%TO.N,/PVRC*%
X4318000Y30988000D02*
X4318000Y13208000D01*
D15*
%TO.N,/ESP32/TXD0*%
X27940000Y36068000D02*
X28956000Y37084000D01*
X26670000Y18796000D02*
X27940000Y20066000D01*
X27940000Y20066000D02*
X27940000Y36068000D01*
%TO.N,/PVBATT*%
X7620000Y32258000D02*
X7874000Y32004000D01*
X7874000Y32004000D02*
X7874000Y10414000D01*
D17*
%TO.N,/ESP32/USB_DP*%
X16510000Y6350000D02*
X16510000Y4826000D01*
X17526000Y3810000D02*
X17526000Y2286000D01*
X16510000Y4826000D02*
X17526000Y3810000D01*
%TD*%
%TA.AperFunction,Conductor*%
%TO.N,GND*%
G36*
X48633421Y42067298D02*
G01*
X48679914Y42013642D01*
X48691300Y41961300D01*
X48691300Y202700D01*
X48671298Y134579D01*
X48617642Y88086D01*
X48565300Y76700D01*
X202700Y76700D01*
X134579Y96702D01*
X88086Y150358D01*
X76700Y202700D01*
X76700Y2286004D01*
X2026271Y2286004D01*
X2026271Y2285997D01*
X2047079Y2141273D01*
X2047081Y2141266D01*
X2107824Y2008257D01*
X2203579Y1897750D01*
X2326589Y1818696D01*
X2446039Y1783622D01*
X2466885Y1777501D01*
X2466886Y1777501D01*
X2466889Y1777500D01*
X2466892Y1777500D01*
X2613108Y1777500D01*
X2613111Y1777500D01*
X2753411Y1818696D01*
X2876421Y1897750D01*
X2972176Y2008257D01*
X3032919Y2141266D01*
X3048000Y2246155D01*
X3053729Y2285997D01*
X3053729Y2286004D01*
X3032920Y2430728D01*
X3032919Y2430729D01*
X3032919Y2430734D01*
X2972176Y2563743D01*
X2876421Y2674250D01*
X2876420Y2674251D01*
X2808656Y2717800D01*
X2753411Y2753304D01*
X2718336Y2763603D01*
X2613114Y2794500D01*
X2613111Y2794500D01*
X2466889Y2794500D01*
X2466885Y2794500D01*
X2326589Y2753304D01*
X2326587Y2753303D01*
X2203579Y2674251D01*
X2107824Y2563744D01*
X2047081Y2430735D01*
X2047079Y2430728D01*
X2026271Y2286004D01*
X76700Y2286004D01*
X76700Y5080004D01*
X502271Y5080004D01*
X502271Y5079997D01*
X523079Y4935273D01*
X523081Y4935266D01*
X583824Y4802257D01*
X679579Y4691750D01*
X802589Y4612696D01*
X922039Y4577622D01*
X942885Y4571501D01*
X942886Y4571501D01*
X942889Y4571500D01*
X942892Y4571500D01*
X1089108Y4571500D01*
X1089111Y4571500D01*
X1229411Y4612696D01*
X1352421Y4691750D01*
X1448176Y4802257D01*
X1508919Y4935266D01*
X1519429Y5008370D01*
X1548921Y5072947D01*
X1555037Y5079516D01*
X1809525Y5334004D01*
X2788271Y5334004D01*
X2788271Y5333997D01*
X2809079Y5189273D01*
X2809081Y5189266D01*
X2869824Y5056257D01*
X2965579Y4945750D01*
X3088589Y4866696D01*
X3203159Y4833055D01*
X3228885Y4825501D01*
X3228886Y4825501D01*
X3228889Y4825500D01*
X3228892Y4825500D01*
X3375108Y4825500D01*
X3375111Y4825500D01*
X3515411Y4866696D01*
X3638421Y4945750D01*
X3710445Y5028870D01*
X6933700Y5028870D01*
X6933700Y3607137D01*
X6933701Y3607127D01*
X6948465Y3532900D01*
X7004716Y3448716D01*
X7088897Y3392467D01*
X7088899Y3392466D01*
X7163133Y3377700D01*
X8584866Y3377701D01*
X8584869Y3377702D01*
X8584873Y3377702D01*
X8634126Y3387499D01*
X8659101Y3392466D01*
X8743284Y3448716D01*
X8799534Y3532899D01*
X8814300Y3607133D01*
X8814299Y4382339D01*
X12779300Y4382339D01*
X12779300Y4253661D01*
X12779308Y4253632D01*
X12812603Y4129372D01*
X12812606Y4129365D01*
X12876940Y4017935D01*
X12876948Y4017925D01*
X12967924Y3926949D01*
X12967929Y3926945D01*
X12967931Y3926943D01*
X13079369Y3862604D01*
X13203661Y3829300D01*
X13203663Y3829300D01*
X13332337Y3829300D01*
X13332339Y3829300D01*
X13456631Y3862604D01*
X13568069Y3926943D01*
X13659057Y4017931D01*
X13723396Y4129369D01*
X13756700Y4253661D01*
X13756700Y4318004D01*
X15234271Y4318004D01*
X15234271Y4317997D01*
X15255079Y4173273D01*
X15255081Y4173266D01*
X15315824Y4040257D01*
X15411579Y3929750D01*
X15534589Y3850696D01*
X15654039Y3815622D01*
X15674885Y3809501D01*
X15674886Y3809501D01*
X15674889Y3809500D01*
X15674892Y3809500D01*
X15821108Y3809500D01*
X15821111Y3809500D01*
X15961411Y3850696D01*
X16084421Y3929750D01*
X16180176Y4040257D01*
X16240919Y4173266D01*
X16257668Y4289758D01*
X16287160Y4354335D01*
X16346887Y4392719D01*
X16417883Y4392719D01*
X16471480Y4360918D01*
X17132995Y3699403D01*
X17167021Y3637091D01*
X17169900Y3610308D01*
X17169900Y2698536D01*
X17149898Y2630415D01*
X17139123Y2616021D01*
X17113222Y2586131D01*
X17053495Y2547749D01*
X16982498Y2547751D01*
X16922775Y2586133D01*
X16846420Y2674251D01*
X16778656Y2717800D01*
X16723411Y2753304D01*
X16688336Y2763603D01*
X16583114Y2794500D01*
X16583111Y2794500D01*
X16436889Y2794500D01*
X16436885Y2794500D01*
X16296589Y2753304D01*
X16296587Y2753303D01*
X16173579Y2674251D01*
X16077824Y2563744D01*
X16017081Y2430735D01*
X16017079Y2430728D01*
X15996271Y2286004D01*
X15996271Y2285997D01*
X16017079Y2141273D01*
X16017081Y2141266D01*
X16077824Y2008257D01*
X16173579Y1897750D01*
X16296589Y1818696D01*
X16416039Y1783622D01*
X16436885Y1777501D01*
X16436886Y1777501D01*
X16436889Y1777500D01*
X16436892Y1777500D01*
X16583108Y1777500D01*
X16583111Y1777500D01*
X16723411Y1818696D01*
X16846421Y1897750D01*
X16922776Y1985870D01*
X16982501Y2024252D01*
X17053498Y2024252D01*
X17113222Y1985870D01*
X17189579Y1897750D01*
X17312589Y1818696D01*
X17432039Y1783622D01*
X17452885Y1777501D01*
X17452886Y1777501D01*
X17452889Y1777500D01*
X17452892Y1777500D01*
X17599108Y1777500D01*
X17599111Y1777500D01*
X17739411Y1818696D01*
X17862421Y1897750D01*
X17958176Y2008257D01*
X18018919Y2141266D01*
X18034000Y2246155D01*
X18039729Y2285997D01*
X18039729Y2286004D01*
X18018920Y2430728D01*
X18018919Y2430729D01*
X18018919Y2430734D01*
X17958176Y2563743D01*
X17929901Y2596374D01*
X17912875Y2616024D01*
X17883382Y2680605D01*
X17882100Y2698536D01*
X17882100Y3856879D01*
X17882100Y3856881D01*
X17857833Y3947450D01*
X17810999Y4028568D01*
X17810953Y4028648D01*
X17810949Y4028653D01*
X17799345Y4040257D01*
X17744651Y4094951D01*
X17473983Y4365619D01*
X20306300Y4365619D01*
X20306300Y4342921D01*
X20306300Y4318000D01*
X20306300Y4270381D01*
X20310780Y4253663D01*
X20330948Y4178392D01*
X20330951Y4178385D01*
X20378565Y4095915D01*
X20378573Y4095905D01*
X20445904Y4028574D01*
X20445909Y4028570D01*
X20445911Y4028568D01*
X20445912Y4028567D01*
X20445914Y4028566D01*
X20464345Y4017925D01*
X20528389Y3980949D01*
X20620381Y3956300D01*
X20620383Y3956300D01*
X20915617Y3956300D01*
X20915619Y3956300D01*
X21007611Y3980949D01*
X21090089Y4028568D01*
X21157432Y4095911D01*
X21205051Y4178389D01*
X21229700Y4270381D01*
X21229700Y4318000D01*
X21229700Y4342921D01*
X21229700Y4365619D01*
X21205051Y4457611D01*
X21157432Y4540089D01*
X21157430Y4540091D01*
X21157426Y4540096D01*
X21090095Y4607427D01*
X21090085Y4607435D01*
X21007615Y4655049D01*
X21007612Y4655050D01*
X21007611Y4655051D01*
X21007609Y4655052D01*
X21007608Y4655052D01*
X20982958Y4661657D01*
X20915619Y4679700D01*
X20883257Y4679700D01*
X20692921Y4679700D01*
X20668000Y4679700D01*
X20620381Y4679700D01*
X20571085Y4666492D01*
X20528391Y4655052D01*
X20528384Y4655049D01*
X20445914Y4607435D01*
X20445904Y4607427D01*
X20378573Y4540096D01*
X20378565Y4540086D01*
X20330951Y4457616D01*
X20330949Y4457611D01*
X20306300Y4365619D01*
X17473983Y4365619D01*
X16903005Y4936597D01*
X16868979Y4998909D01*
X16866100Y5025692D01*
X16866100Y5937466D01*
X16886102Y6005587D01*
X16896868Y6019970D01*
X16922777Y6049870D01*
X16982499Y6088252D01*
X17053495Y6088253D01*
X17113223Y6049870D01*
X17189579Y5961750D01*
X17312589Y5882696D01*
X17432039Y5847622D01*
X17452885Y5841501D01*
X17452886Y5841501D01*
X17452889Y5841500D01*
X17452892Y5841500D01*
X17599108Y5841500D01*
X17599111Y5841500D01*
X17739411Y5882696D01*
X17862421Y5961750D01*
X17958176Y6072257D01*
X18018919Y6205266D01*
X18021927Y6226185D01*
X18039729Y6349997D01*
X18039729Y6350004D01*
X18018920Y6494728D01*
X18018919Y6494729D01*
X18018919Y6494734D01*
X17958176Y6627743D01*
X17862421Y6738250D01*
X17862420Y6738251D01*
X17800916Y6777777D01*
X17739411Y6817304D01*
X17704336Y6827603D01*
X17599114Y6858500D01*
X17599111Y6858500D01*
X17452889Y6858500D01*
X17452885Y6858500D01*
X17312589Y6817304D01*
X17312587Y6817303D01*
X17189579Y6738251D01*
X17113224Y6650132D01*
X17053498Y6611749D01*
X16982501Y6611749D01*
X16922776Y6650132D01*
X16846420Y6738251D01*
X16784916Y6777777D01*
X16723411Y6817304D01*
X16688336Y6827603D01*
X16583114Y6858500D01*
X16583111Y6858500D01*
X16436889Y6858500D01*
X16436885Y6858500D01*
X16296589Y6817304D01*
X16296587Y6817303D01*
X16173579Y6738251D01*
X16077824Y6627744D01*
X16017081Y6494735D01*
X16017079Y6494728D01*
X15996271Y6350004D01*
X15996271Y6349997D01*
X16017079Y6205273D01*
X16017081Y6205266D01*
X16077824Y6072257D01*
X16123124Y6019978D01*
X16152617Y5955399D01*
X16153900Y5937466D01*
X16153900Y4892351D01*
X16133898Y4824230D01*
X16080242Y4777737D01*
X16009968Y4767633D01*
X15970050Y4782522D01*
X15969611Y4781559D01*
X15961413Y4785303D01*
X15961411Y4785304D01*
X15903675Y4802257D01*
X15821114Y4826500D01*
X15821111Y4826500D01*
X15674889Y4826500D01*
X15674885Y4826500D01*
X15534589Y4785304D01*
X15534587Y4785303D01*
X15411579Y4706251D01*
X15315824Y4595744D01*
X15255081Y4462735D01*
X15255079Y4462728D01*
X15234271Y4318004D01*
X13756700Y4318004D01*
X13756700Y4382339D01*
X13723396Y4506631D01*
X13671947Y4595743D01*
X13659059Y4618066D01*
X13659051Y4618076D01*
X13568075Y4709052D01*
X13568065Y4709060D01*
X13456635Y4773394D01*
X13456632Y4773395D01*
X13456631Y4773396D01*
X13456629Y4773397D01*
X13456628Y4773397D01*
X13422572Y4782522D01*
X13332339Y4806700D01*
X13203661Y4806700D01*
X13137055Y4788853D01*
X13079371Y4773397D01*
X13079364Y4773394D01*
X12967934Y4709060D01*
X12967924Y4709052D01*
X12876948Y4618076D01*
X12876940Y4618066D01*
X12812606Y4506636D01*
X12812603Y4506629D01*
X12794867Y4440436D01*
X12779300Y4382339D01*
X8814299Y4382339D01*
X8814299Y5028866D01*
X8814298Y5028870D01*
X8814298Y5028874D01*
X8799534Y5103101D01*
X8743283Y5187285D01*
X8659102Y5243534D01*
X8584867Y5258300D01*
X7163136Y5258300D01*
X7163126Y5258299D01*
X7088899Y5243535D01*
X7004715Y5187284D01*
X6948466Y5103103D01*
X6933700Y5028870D01*
X3710445Y5028870D01*
X3734176Y5056257D01*
X3794919Y5189266D01*
X3805429Y5262370D01*
X3834921Y5326947D01*
X3841037Y5333516D01*
X5963117Y7455595D01*
X6025429Y7489621D01*
X6052212Y7492500D01*
X12570078Y7492500D01*
X12638199Y7472498D01*
X12740589Y7406696D01*
X12860039Y7371622D01*
X12880885Y7365501D01*
X12880886Y7365501D01*
X12880889Y7365500D01*
X12880892Y7365500D01*
X13027108Y7365500D01*
X13027111Y7365500D01*
X13167411Y7406696D01*
X13269801Y7472498D01*
X13337922Y7492500D01*
X14166636Y7492500D01*
X14234757Y7472498D01*
X14281250Y7418842D01*
X14291354Y7348568D01*
X14261860Y7283988D01*
X14214854Y7250091D01*
X14100320Y7202650D01*
X13964547Y7111929D01*
X13964540Y7111924D01*
X13849076Y6996460D01*
X13849071Y6996453D01*
X13758350Y6860679D01*
X13695860Y6709816D01*
X13695858Y6709811D01*
X13673021Y6595000D01*
X14191047Y6595000D01*
X14190149Y6593445D01*
X14168000Y6510787D01*
X14168000Y6425213D01*
X14190149Y6342555D01*
X14191047Y6341000D01*
X13673021Y6341000D01*
X13695858Y6226190D01*
X13695860Y6226185D01*
X13758350Y6075322D01*
X13849071Y5939548D01*
X13849076Y5939541D01*
X13964540Y5824077D01*
X13964547Y5824072D01*
X14100321Y5733351D01*
X14251184Y5670861D01*
X14251189Y5670859D01*
X14411348Y5639001D01*
X14411352Y5639000D01*
X14491000Y5639000D01*
X14491000Y6143000D01*
X14745000Y6143000D01*
X14745000Y5639000D01*
X14824648Y5639000D01*
X14824651Y5639001D01*
X14984810Y5670859D01*
X14984815Y5670861D01*
X15135678Y5733351D01*
X15271452Y5824072D01*
X15271459Y5824077D01*
X15386923Y5939541D01*
X15386928Y5939548D01*
X15477649Y6075322D01*
X15540139Y6226185D01*
X15540141Y6226190D01*
X15562979Y6341000D01*
X15044953Y6341000D01*
X15045851Y6342555D01*
X15068000Y6425213D01*
X15068000Y6510787D01*
X15045851Y6593445D01*
X15044953Y6595000D01*
X15562978Y6595000D01*
X15540141Y6709811D01*
X15540139Y6709816D01*
X15477649Y6860679D01*
X15386928Y6996453D01*
X15386923Y6996460D01*
X15271459Y7111924D01*
X15271452Y7111929D01*
X15135679Y7202650D01*
X15021146Y7250091D01*
X14965865Y7294639D01*
X14943444Y7362003D01*
X14961002Y7430794D01*
X15012964Y7479172D01*
X15069364Y7492500D01*
X18966636Y7492500D01*
X19034757Y7472498D01*
X19081250Y7418842D01*
X19091354Y7348568D01*
X19061860Y7283988D01*
X19014854Y7250091D01*
X18900320Y7202650D01*
X18764547Y7111929D01*
X18764540Y7111924D01*
X18649076Y6996460D01*
X18649071Y6996453D01*
X18558350Y6860679D01*
X18495860Y6709816D01*
X18495858Y6709811D01*
X18473021Y6595000D01*
X18991047Y6595000D01*
X18990149Y6593445D01*
X18968000Y6510787D01*
X18968000Y6425213D01*
X18990149Y6342555D01*
X18991047Y6341000D01*
X18473021Y6341000D01*
X18495858Y6226190D01*
X18495860Y6226185D01*
X18558350Y6075322D01*
X18649071Y5939548D01*
X18649076Y5939541D01*
X18764540Y5824077D01*
X18764547Y5824072D01*
X18900321Y5733351D01*
X19051184Y5670861D01*
X19051189Y5670859D01*
X19211348Y5639001D01*
X19211352Y5639000D01*
X19291000Y5639000D01*
X19291000Y6143000D01*
X19545000Y6143000D01*
X19545000Y5639000D01*
X19624648Y5639000D01*
X19624651Y5639001D01*
X19784810Y5670859D01*
X19784815Y5670861D01*
X19935678Y5733351D01*
X20071452Y5824072D01*
X20071459Y5824077D01*
X20186923Y5939541D01*
X20186928Y5939548D01*
X20277649Y6075322D01*
X20340139Y6226185D01*
X20340141Y6226190D01*
X20362979Y6341000D01*
X19844953Y6341000D01*
X19845851Y6342555D01*
X19868000Y6425213D01*
X19868000Y6510787D01*
X19845851Y6593445D01*
X19844953Y6595000D01*
X20362978Y6595000D01*
X20340141Y6709811D01*
X20340139Y6709816D01*
X20277649Y6860679D01*
X20186928Y6996453D01*
X20186923Y6996460D01*
X20071459Y7111924D01*
X20071452Y7111929D01*
X19935679Y7202650D01*
X19821146Y7250091D01*
X19765865Y7294639D01*
X19743444Y7362003D01*
X19761002Y7430794D01*
X19812964Y7479172D01*
X19869364Y7492500D01*
X31366078Y7492500D01*
X31434199Y7472498D01*
X31536589Y7406696D01*
X31656039Y7371622D01*
X31676885Y7365501D01*
X31676886Y7365501D01*
X31676889Y7365500D01*
X31676892Y7365500D01*
X31823108Y7365500D01*
X31823111Y7365500D01*
X31963411Y7406696D01*
X31963412Y7406698D01*
X31969001Y7408338D01*
X32039998Y7408338D01*
X32099724Y7369955D01*
X32129217Y7305374D01*
X32130500Y7287442D01*
X32130500Y3258213D01*
X32110498Y3190092D01*
X32093595Y3169118D01*
X30104882Y1180405D01*
X30042570Y1146379D01*
X30015787Y1143500D01*
X19869364Y1143500D01*
X19801243Y1163502D01*
X19754750Y1217158D01*
X19744646Y1287432D01*
X19774140Y1352012D01*
X19821146Y1385909D01*
X19935679Y1433351D01*
X20071452Y1524072D01*
X20071459Y1524077D01*
X20186923Y1639541D01*
X20186928Y1639548D01*
X20277649Y1775322D01*
X20340139Y1926185D01*
X20340141Y1926190D01*
X20362979Y2041000D01*
X19844953Y2041000D01*
X19845851Y2042555D01*
X19868000Y2125213D01*
X19868000Y2210787D01*
X19845851Y2293445D01*
X19844953Y2295000D01*
X20362978Y2295000D01*
X20340141Y2409811D01*
X20340139Y2409816D01*
X20277649Y2560679D01*
X20186928Y2696453D01*
X20186923Y2696460D01*
X20071459Y2811924D01*
X20071452Y2811929D01*
X19935678Y2902650D01*
X19784815Y2965140D01*
X19784810Y2965142D01*
X19624651Y2997000D01*
X19545000Y2997000D01*
X19545000Y2493000D01*
X19291000Y2493000D01*
X19291000Y2997000D01*
X19211348Y2997000D01*
X19051189Y2965142D01*
X19051184Y2965140D01*
X18900321Y2902650D01*
X18764547Y2811929D01*
X18764540Y2811924D01*
X18649076Y2696460D01*
X18649071Y2696453D01*
X18558350Y2560679D01*
X18495860Y2409816D01*
X18495858Y2409811D01*
X18473021Y2295000D01*
X18991047Y2295000D01*
X18990149Y2293445D01*
X18968000Y2210787D01*
X18968000Y2125213D01*
X18990149Y2042555D01*
X18991047Y2041000D01*
X18473021Y2041000D01*
X18495858Y1926190D01*
X18495860Y1926185D01*
X18558350Y1775322D01*
X18649071Y1639548D01*
X18649076Y1639541D01*
X18764540Y1524077D01*
X18764547Y1524072D01*
X18900320Y1433351D01*
X19014854Y1385909D01*
X19070135Y1341361D01*
X19092556Y1273997D01*
X19074998Y1205206D01*
X19023036Y1156828D01*
X18966636Y1143500D01*
X15069364Y1143500D01*
X15001243Y1163502D01*
X14954750Y1217158D01*
X14944646Y1287432D01*
X14974140Y1352012D01*
X15021146Y1385909D01*
X15135679Y1433351D01*
X15271452Y1524072D01*
X15271459Y1524077D01*
X15386923Y1639541D01*
X15386928Y1639548D01*
X15477649Y1775322D01*
X15540139Y1926185D01*
X15540141Y1926190D01*
X15562979Y2041000D01*
X15044953Y2041000D01*
X15045851Y2042555D01*
X15068000Y2125213D01*
X15068000Y2210787D01*
X15045851Y2293445D01*
X15044953Y2295000D01*
X15562978Y2295000D01*
X15540141Y2409811D01*
X15540139Y2409816D01*
X15477649Y2560679D01*
X15386928Y2696453D01*
X15386923Y2696460D01*
X15271459Y2811924D01*
X15271452Y2811929D01*
X15135678Y2902650D01*
X14984815Y2965140D01*
X14984810Y2965142D01*
X14824651Y2997000D01*
X14745000Y2997000D01*
X14745000Y2493000D01*
X14491000Y2493000D01*
X14491000Y2997000D01*
X14411348Y2997000D01*
X14251189Y2965142D01*
X14251184Y2965140D01*
X14100321Y2902650D01*
X13964547Y2811929D01*
X13964540Y2811924D01*
X13849076Y2696460D01*
X13849071Y2696453D01*
X13758350Y2560679D01*
X13695860Y2409816D01*
X13695858Y2409811D01*
X13673021Y2295000D01*
X14191047Y2295000D01*
X14190149Y2293445D01*
X14168000Y2210787D01*
X14168000Y2125213D01*
X14190149Y2042555D01*
X14191047Y2041000D01*
X13673021Y2041000D01*
X13695858Y1926190D01*
X13695860Y1926185D01*
X13758350Y1775322D01*
X13849071Y1639548D01*
X13849076Y1639541D01*
X13964540Y1524077D01*
X13964547Y1524072D01*
X14100320Y1433351D01*
X14214854Y1385909D01*
X14270135Y1341361D01*
X14292556Y1273997D01*
X14274998Y1205206D01*
X14223036Y1156828D01*
X14166636Y1143500D01*
X8811098Y1143500D01*
X8742977Y1163502D01*
X8696484Y1217158D01*
X8686380Y1287432D01*
X8701978Y1332499D01*
X8737277Y1393641D01*
X8737278Y1393645D01*
X8798327Y1581529D01*
X8818976Y1778000D01*
X8798327Y1974472D01*
X8737278Y2162356D01*
X8737275Y2162363D01*
X8638504Y2333441D01*
X8638501Y2333445D01*
X8624547Y2348943D01*
X8624545Y2348943D01*
X8311621Y2036019D01*
X8280502Y2089920D01*
X8185920Y2184502D01*
X8132016Y2215623D01*
X8442796Y2526403D01*
X8442796Y2526404D01*
X8346489Y2596374D01*
X8346490Y2596374D01*
X8166013Y2676728D01*
X7972778Y2717800D01*
X7775222Y2717800D01*
X7581989Y2676728D01*
X7401510Y2596374D01*
X7401509Y2596373D01*
X7305203Y2526403D01*
X7305203Y2526401D01*
X7615981Y2215623D01*
X7562080Y2184502D01*
X7467498Y2089920D01*
X7436377Y2036018D01*
X7123452Y2348943D01*
X7123450Y2348943D01*
X7109505Y2333454D01*
X7109497Y2333443D01*
X7010724Y2162363D01*
X7010721Y2162356D01*
X6949672Y1974472D01*
X6929023Y1778000D01*
X6949672Y1581529D01*
X7010721Y1393645D01*
X7010722Y1393641D01*
X7046022Y1332499D01*
X7062759Y1263504D01*
X7039538Y1196412D01*
X6983730Y1152525D01*
X6936902Y1143500D01*
X5544212Y1143500D01*
X5476091Y1163502D01*
X5455117Y1180405D01*
X5365051Y1270471D01*
X5331025Y1332783D01*
X5329432Y1341612D01*
X5318919Y1414734D01*
X5258176Y1547743D01*
X5162421Y1658250D01*
X5162420Y1658251D01*
X5080154Y1711120D01*
X5039411Y1737304D01*
X5004336Y1747603D01*
X4899114Y1778500D01*
X4899111Y1778500D01*
X4752889Y1778500D01*
X4752885Y1778500D01*
X4612589Y1737304D01*
X4612587Y1737303D01*
X4489579Y1658251D01*
X4393824Y1547744D01*
X4333081Y1414735D01*
X4333079Y1414728D01*
X4312271Y1270004D01*
X4312271Y1269997D01*
X4333079Y1125273D01*
X4333081Y1125266D01*
X4393824Y992257D01*
X4489579Y881750D01*
X4612589Y802696D01*
X4752889Y761500D01*
X4752895Y761500D01*
X4760529Y760402D01*
X4825111Y730912D01*
X4831697Y724780D01*
X5024318Y532160D01*
X5024339Y532137D01*
X5099746Y456730D01*
X5099751Y456726D01*
X5099753Y456724D01*
X5099754Y456723D01*
X5099756Y456722D01*
X5186741Y406501D01*
X5186743Y406501D01*
X5186746Y406499D01*
X5283775Y380500D01*
X5283777Y380500D01*
X30276223Y380500D01*
X30276225Y380500D01*
X30373254Y406499D01*
X30373257Y406501D01*
X30373258Y406501D01*
X30416750Y431612D01*
X30460247Y456724D01*
X30531276Y527753D01*
X30531277Y527754D01*
X32633118Y2629595D01*
X32695430Y2663621D01*
X32722213Y2666500D01*
X46024223Y2666500D01*
X46024225Y2666500D01*
X46121254Y2692499D01*
X46121257Y2692501D01*
X46121258Y2692501D01*
X46165077Y2717800D01*
X46208247Y2742724D01*
X46279276Y2813753D01*
X47746303Y4280781D01*
X47808613Y4314804D01*
X47817472Y4316403D01*
X47825102Y4317500D01*
X47825111Y4317500D01*
X47965411Y4358696D01*
X48088421Y4437750D01*
X48184176Y4548257D01*
X48244919Y4681266D01*
X48257337Y4767633D01*
X48265729Y4825997D01*
X48265729Y4826004D01*
X48244920Y4970728D01*
X48244919Y4970729D01*
X48244919Y4970734D01*
X48184176Y5103743D01*
X48088421Y5214250D01*
X48088420Y5214251D01*
X48013551Y5262366D01*
X47965411Y5293304D01*
X47929410Y5303875D01*
X47825114Y5334500D01*
X47825111Y5334500D01*
X47678889Y5334500D01*
X47678885Y5334500D01*
X47538589Y5293304D01*
X47538587Y5293303D01*
X47415579Y5214251D01*
X47319824Y5103744D01*
X47259081Y4970735D01*
X47259079Y4970729D01*
X47248570Y4897635D01*
X47219077Y4833055D01*
X47212948Y4826473D01*
X45852880Y3466404D01*
X45790570Y3432380D01*
X45763787Y3429500D01*
X33019500Y3429500D01*
X32951379Y3449502D01*
X32904886Y3503158D01*
X32893500Y3555500D01*
X32893500Y10792779D01*
X32913502Y10860900D01*
X32924273Y10875289D01*
X32944176Y10898257D01*
X32955021Y10922004D01*
X34538271Y10922004D01*
X34538271Y10921997D01*
X34559079Y10777273D01*
X34559081Y10777266D01*
X34619824Y10644257D01*
X34715579Y10533750D01*
X34838589Y10454696D01*
X34958039Y10419622D01*
X34978885Y10413501D01*
X34978886Y10413501D01*
X34978889Y10413500D01*
X34978892Y10413500D01*
X35125108Y10413500D01*
X35125111Y10413500D01*
X35265411Y10454696D01*
X35388421Y10533750D01*
X35484176Y10644257D01*
X35544919Y10777266D01*
X35546426Y10787750D01*
X35565729Y10921997D01*
X35565729Y10922004D01*
X35544920Y11066728D01*
X35544919Y11066729D01*
X35544919Y11066734D01*
X35484176Y11199743D01*
X35388421Y11310250D01*
X35388420Y11310251D01*
X35326916Y11349777D01*
X35265411Y11389304D01*
X35230336Y11399603D01*
X35125114Y11430500D01*
X35125111Y11430500D01*
X34978889Y11430500D01*
X34978885Y11430500D01*
X34838589Y11389304D01*
X34838587Y11389303D01*
X34715579Y11310251D01*
X34619824Y11199744D01*
X34559081Y11066735D01*
X34559079Y11066728D01*
X34538271Y10922004D01*
X32955021Y10922004D01*
X33004919Y11031266D01*
X33011929Y11080023D01*
X33025729Y11175997D01*
X33025729Y11176004D01*
X33004920Y11320728D01*
X33004919Y11320729D01*
X33004919Y11320734D01*
X32944176Y11453743D01*
X32924273Y11476712D01*
X32894782Y11541292D01*
X32893500Y11559222D01*
X32893500Y17601619D01*
X32913502Y17669740D01*
X32967158Y17716233D01*
X32968069Y17716644D01*
X32984338Y17723887D01*
X33144111Y17839970D01*
X33181503Y17881498D01*
X33276252Y17986727D01*
X33276252Y17986728D01*
X33276258Y17986734D01*
X33375004Y18157766D01*
X33375072Y18157973D01*
X33436032Y18345591D01*
X33442565Y18407750D01*
X33456675Y18542000D01*
X34107828Y18542000D01*
X34128459Y18345697D01*
X34189456Y18157973D01*
X34189459Y18157966D01*
X34288145Y17987036D01*
X34288147Y17987033D01*
X34302019Y17971626D01*
X34612913Y18282521D01*
X34643898Y18228853D01*
X34738853Y18133898D01*
X34792518Y18102915D01*
X34483776Y17794173D01*
X34483776Y17794172D01*
X34579913Y17724324D01*
X34760234Y17644040D01*
X34953311Y17603000D01*
X35150689Y17603000D01*
X35343765Y17644040D01*
X35524082Y17724322D01*
X35620222Y17794173D01*
X35620222Y17794174D01*
X35311481Y18102915D01*
X35365147Y18133898D01*
X35460102Y18228853D01*
X35491085Y18282519D01*
X35801979Y17971625D01*
X35815850Y17987030D01*
X35815852Y17987032D01*
X35914540Y18157966D01*
X35914543Y18157973D01*
X35975540Y18345697D01*
X35996171Y18542000D01*
X36647325Y18542000D01*
X36667967Y18345591D01*
X36728994Y18157768D01*
X36767013Y18091919D01*
X36827742Y17986734D01*
X36827744Y17986731D01*
X36827747Y17986727D01*
X36959885Y17839973D01*
X36959888Y17839971D01*
X36959889Y17839970D01*
X37119662Y17723887D01*
X37300079Y17643561D01*
X37493255Y17602500D01*
X37690745Y17602500D01*
X37883921Y17643561D01*
X38064338Y17723887D01*
X38224111Y17839970D01*
X38261503Y17881498D01*
X38356252Y17986727D01*
X38356252Y17986728D01*
X38356258Y17986734D01*
X38455004Y18157766D01*
X38455072Y18157973D01*
X38516032Y18345591D01*
X38522565Y18407750D01*
X38536675Y18542000D01*
X39187325Y18542000D01*
X39207967Y18345591D01*
X39268994Y18157768D01*
X39307013Y18091919D01*
X39367742Y17986734D01*
X39367744Y17986731D01*
X39367747Y17986727D01*
X39499885Y17839973D01*
X39499888Y17839971D01*
X39499889Y17839970D01*
X39659662Y17723887D01*
X39840079Y17643561D01*
X40033255Y17602500D01*
X40230745Y17602500D01*
X40423921Y17643561D01*
X40604338Y17723887D01*
X40764111Y17839970D01*
X40801503Y17881498D01*
X40896252Y17986727D01*
X40896252Y17986728D01*
X40896258Y17986734D01*
X40995004Y18157766D01*
X40995072Y18157973D01*
X41056032Y18345591D01*
X41062565Y18407750D01*
X41076675Y18542000D01*
X41727325Y18542000D01*
X41747967Y18345591D01*
X41808994Y18157768D01*
X41847013Y18091919D01*
X41907742Y17986734D01*
X41907744Y17986731D01*
X41907747Y17986727D01*
X42039885Y17839973D01*
X42039888Y17839971D01*
X42039889Y17839970D01*
X42199662Y17723887D01*
X42380079Y17643561D01*
X42573255Y17602500D01*
X42770745Y17602500D01*
X42963921Y17643561D01*
X43144338Y17723887D01*
X43304111Y17839970D01*
X43341503Y17881498D01*
X43436252Y17986727D01*
X43436252Y17986728D01*
X43436258Y17986734D01*
X43535004Y18157766D01*
X43535072Y18157973D01*
X43596032Y18345591D01*
X43602565Y18407750D01*
X43616675Y18542000D01*
X44267325Y18542000D01*
X44287967Y18345591D01*
X44348994Y18157768D01*
X44387013Y18091919D01*
X44447742Y17986734D01*
X44447744Y17986731D01*
X44447747Y17986727D01*
X44579885Y17839973D01*
X44579888Y17839971D01*
X44579889Y17839970D01*
X44739662Y17723887D01*
X44920079Y17643561D01*
X45113255Y17602500D01*
X45310745Y17602500D01*
X45503921Y17643561D01*
X45684338Y17723887D01*
X45844111Y17839970D01*
X45881503Y17881498D01*
X45976252Y17986727D01*
X45976252Y17986728D01*
X45976258Y17986734D01*
X46075004Y18157766D01*
X46075072Y18157973D01*
X46136032Y18345591D01*
X46142565Y18407750D01*
X46156675Y18542000D01*
X46136032Y18738409D01*
X46117320Y18796000D01*
X46075005Y18926233D01*
X46022458Y19017245D01*
X45976258Y19097266D01*
X45976254Y19097271D01*
X45976252Y19097274D01*
X45844114Y19244028D01*
X45684338Y19360113D01*
X45503921Y19440439D01*
X45310745Y19481500D01*
X45113255Y19481500D01*
X44920078Y19440439D01*
X44739662Y19360113D01*
X44579886Y19244029D01*
X44447747Y19097274D01*
X44447743Y19097268D01*
X44447742Y19097266D01*
X44434161Y19073743D01*
X44348994Y18926233D01*
X44287967Y18738410D01*
X44267325Y18542000D01*
X43616675Y18542000D01*
X43596032Y18738409D01*
X43577320Y18796000D01*
X43535005Y18926233D01*
X43482458Y19017245D01*
X43436258Y19097266D01*
X43436254Y19097271D01*
X43436252Y19097274D01*
X43304114Y19244028D01*
X43144338Y19360113D01*
X42963921Y19440439D01*
X42770745Y19481500D01*
X42573255Y19481500D01*
X42380078Y19440439D01*
X42199662Y19360113D01*
X42039886Y19244029D01*
X41907747Y19097274D01*
X41907743Y19097268D01*
X41907742Y19097266D01*
X41894161Y19073743D01*
X41808994Y18926233D01*
X41747967Y18738410D01*
X41727325Y18542000D01*
X41076675Y18542000D01*
X41056032Y18738409D01*
X41037320Y18796000D01*
X40995005Y18926233D01*
X40942458Y19017245D01*
X40896258Y19097266D01*
X40896254Y19097271D01*
X40896252Y19097274D01*
X40764114Y19244028D01*
X40604338Y19360113D01*
X40423921Y19440439D01*
X40230745Y19481500D01*
X40033255Y19481500D01*
X39840078Y19440439D01*
X39659662Y19360113D01*
X39499886Y19244029D01*
X39367747Y19097274D01*
X39367743Y19097268D01*
X39367742Y19097266D01*
X39354161Y19073743D01*
X39268994Y18926233D01*
X39207967Y18738410D01*
X39187325Y18542000D01*
X38536675Y18542000D01*
X38516032Y18738409D01*
X38497320Y18796000D01*
X38455005Y18926233D01*
X38402458Y19017245D01*
X38356258Y19097266D01*
X38356254Y19097271D01*
X38356252Y19097274D01*
X38224114Y19244028D01*
X38064338Y19360113D01*
X37883921Y19440439D01*
X37690745Y19481500D01*
X37493255Y19481500D01*
X37300078Y19440439D01*
X37119662Y19360113D01*
X36959886Y19244029D01*
X36827747Y19097274D01*
X36827743Y19097268D01*
X36827742Y19097266D01*
X36814161Y19073743D01*
X36728994Y18926233D01*
X36667967Y18738410D01*
X36647325Y18542000D01*
X35996171Y18542000D01*
X35975540Y18738304D01*
X35914543Y18926028D01*
X35914540Y18926035D01*
X35815853Y19096967D01*
X35815850Y19096971D01*
X35801979Y19112376D01*
X35491085Y18801483D01*
X35460102Y18855147D01*
X35365147Y18950102D01*
X35311480Y18981087D01*
X35620222Y19289829D01*
X35620222Y19289830D01*
X35524086Y19359677D01*
X35343765Y19439961D01*
X35150689Y19481000D01*
X34953311Y19481000D01*
X34760234Y19439961D01*
X34579912Y19359677D01*
X34579911Y19359676D01*
X34483776Y19289830D01*
X34483776Y19289828D01*
X34792518Y18981086D01*
X34738853Y18950102D01*
X34643898Y18855147D01*
X34612913Y18801481D01*
X34302018Y19112376D01*
X34288149Y19096972D01*
X34189459Y18926035D01*
X34189456Y18926028D01*
X34128459Y18738304D01*
X34107828Y18542000D01*
X33456675Y18542000D01*
X33436032Y18738409D01*
X33417320Y18796000D01*
X33375005Y18926233D01*
X33322458Y19017245D01*
X33276258Y19097266D01*
X33276254Y19097271D01*
X33276252Y19097274D01*
X33144114Y19244028D01*
X32984337Y19360114D01*
X32984334Y19360115D01*
X32968249Y19367277D01*
X32914154Y19413258D01*
X32893506Y19481186D01*
X32893500Y19482383D01*
X32893500Y20141619D01*
X32913502Y20209740D01*
X32967158Y20256233D01*
X32968069Y20256644D01*
X32984338Y20263887D01*
X33144111Y20379970D01*
X33201438Y20443638D01*
X33276252Y20526727D01*
X33276252Y20526728D01*
X33276258Y20526734D01*
X33375004Y20697766D01*
X33375072Y20697973D01*
X33436032Y20885591D01*
X33437798Y20902395D01*
X33456675Y21082000D01*
X34107828Y21082000D01*
X34128459Y20885697D01*
X34189456Y20697973D01*
X34189459Y20697966D01*
X34288145Y20527036D01*
X34288147Y20527033D01*
X34302019Y20511626D01*
X34612913Y20822521D01*
X34643898Y20768853D01*
X34738853Y20673898D01*
X34792518Y20642915D01*
X34483776Y20334173D01*
X34483776Y20334172D01*
X34579913Y20264324D01*
X34760234Y20184040D01*
X34953311Y20143000D01*
X35150689Y20143000D01*
X35343765Y20184040D01*
X35524082Y20264322D01*
X35620222Y20334173D01*
X35620222Y20334174D01*
X35311481Y20642915D01*
X35365147Y20673898D01*
X35460102Y20768853D01*
X35491085Y20822519D01*
X35801979Y20511625D01*
X35815850Y20527030D01*
X35815852Y20527032D01*
X35914540Y20697966D01*
X35914543Y20697973D01*
X35975540Y20885697D01*
X35996171Y21082000D01*
X36647325Y21082000D01*
X36667967Y20885591D01*
X36728994Y20697768D01*
X36767013Y20631919D01*
X36827742Y20526734D01*
X36827744Y20526731D01*
X36827747Y20526727D01*
X36959885Y20379973D01*
X36959888Y20379971D01*
X36959889Y20379970D01*
X37119662Y20263887D01*
X37300079Y20183561D01*
X37493255Y20142500D01*
X37690745Y20142500D01*
X37883921Y20183561D01*
X38064338Y20263887D01*
X38224111Y20379970D01*
X38281438Y20443638D01*
X38356252Y20526727D01*
X38356252Y20526728D01*
X38356258Y20526734D01*
X38455004Y20697766D01*
X38455072Y20697973D01*
X38516032Y20885591D01*
X38517798Y20902395D01*
X38536675Y21082000D01*
X39187325Y21082000D01*
X39207967Y20885591D01*
X39268994Y20697768D01*
X39307013Y20631919D01*
X39367742Y20526734D01*
X39367744Y20526731D01*
X39367747Y20526727D01*
X39499885Y20379973D01*
X39499888Y20379971D01*
X39499889Y20379970D01*
X39659662Y20263887D01*
X39840079Y20183561D01*
X40033255Y20142500D01*
X40230745Y20142500D01*
X40423921Y20183561D01*
X40604338Y20263887D01*
X40764111Y20379970D01*
X40821438Y20443638D01*
X40896252Y20526727D01*
X40896252Y20526728D01*
X40896258Y20526734D01*
X40995004Y20697766D01*
X40995072Y20697973D01*
X41056032Y20885591D01*
X41057798Y20902395D01*
X41076675Y21082000D01*
X41727325Y21082000D01*
X41747967Y20885591D01*
X41808994Y20697768D01*
X41847013Y20631919D01*
X41907742Y20526734D01*
X41907744Y20526731D01*
X41907747Y20526727D01*
X42039885Y20379973D01*
X42039888Y20379971D01*
X42039889Y20379970D01*
X42199662Y20263887D01*
X42380079Y20183561D01*
X42573255Y20142500D01*
X42770745Y20142500D01*
X42963921Y20183561D01*
X43144338Y20263887D01*
X43304111Y20379970D01*
X43361438Y20443638D01*
X43436252Y20526727D01*
X43436252Y20526728D01*
X43436258Y20526734D01*
X43535004Y20697766D01*
X43535072Y20697973D01*
X43596032Y20885591D01*
X43597798Y20902395D01*
X43616675Y21082000D01*
X43596032Y21278409D01*
X43569605Y21359744D01*
X43535005Y21466233D01*
X43474953Y21570244D01*
X43436258Y21637266D01*
X43436254Y21637271D01*
X43436252Y21637274D01*
X43304114Y21784028D01*
X43291944Y21792870D01*
X44271700Y21792870D01*
X44271700Y20371137D01*
X44271701Y20371127D01*
X44286465Y20296900D01*
X44342716Y20212716D01*
X44426897Y20156467D01*
X44426899Y20156466D01*
X44501133Y20141700D01*
X45922866Y20141701D01*
X45922869Y20141702D01*
X45922873Y20141702D01*
X45972126Y20151499D01*
X45997101Y20156466D01*
X46081284Y20212716D01*
X46137534Y20296899D01*
X46152300Y20371133D01*
X46152299Y21792866D01*
X46152298Y21792870D01*
X46152298Y21792874D01*
X46137534Y21867101D01*
X46110360Y21907769D01*
X46081284Y21951284D01*
X46078330Y21953258D01*
X45997102Y22007534D01*
X45922867Y22022300D01*
X44501136Y22022300D01*
X44501126Y22022299D01*
X44426899Y22007535D01*
X44342715Y21951284D01*
X44286466Y21867103D01*
X44271700Y21792870D01*
X43291944Y21792870D01*
X43144337Y21900114D01*
X43144334Y21900115D01*
X43128249Y21907277D01*
X43074154Y21953258D01*
X43053506Y22021186D01*
X43053500Y22022383D01*
X43053500Y34414779D01*
X43073502Y34482900D01*
X43084273Y34497289D01*
X43104176Y34520257D01*
X43164919Y34653266D01*
X43185729Y34798000D01*
X43185729Y34798004D01*
X43164920Y34942728D01*
X43164919Y34942729D01*
X43164919Y34942734D01*
X43104176Y35075743D01*
X43008421Y35186250D01*
X43008420Y35186251D01*
X42944325Y35227442D01*
X42885411Y35265304D01*
X42850336Y35275603D01*
X42745114Y35306500D01*
X42745111Y35306500D01*
X42598889Y35306500D01*
X42598885Y35306500D01*
X42458589Y35265304D01*
X42458587Y35265303D01*
X42335579Y35186251D01*
X42239824Y35075744D01*
X42179081Y34942735D01*
X42179079Y34942728D01*
X42158271Y34798004D01*
X42158271Y34797997D01*
X42179079Y34653273D01*
X42179081Y34653266D01*
X42239824Y34520257D01*
X42259723Y34497292D01*
X42289217Y34432713D01*
X42290500Y34414779D01*
X42290500Y22022383D01*
X42270498Y21954262D01*
X42216842Y21907769D01*
X42215753Y21907278D01*
X42199668Y21900117D01*
X42199663Y21900113D01*
X42039886Y21784029D01*
X41907747Y21637274D01*
X41907743Y21637268D01*
X41907742Y21637266D01*
X41906311Y21634787D01*
X41808994Y21466233D01*
X41747967Y21278410D01*
X41727325Y21082000D01*
X41076675Y21082000D01*
X41056032Y21278409D01*
X41029605Y21359744D01*
X40995005Y21466233D01*
X40934953Y21570244D01*
X40896258Y21637266D01*
X40896254Y21637271D01*
X40896252Y21637274D01*
X40764114Y21784028D01*
X40604337Y21900114D01*
X40604334Y21900115D01*
X40588249Y21907277D01*
X40534154Y21953258D01*
X40513506Y22021186D01*
X40513500Y22022383D01*
X40513500Y34414779D01*
X40533502Y34482900D01*
X40544273Y34497289D01*
X40564176Y34520257D01*
X40624919Y34653266D01*
X40645729Y34798000D01*
X40645729Y34798004D01*
X40624920Y34942728D01*
X40624919Y34942729D01*
X40624919Y34942734D01*
X40564176Y35075743D01*
X40468421Y35186250D01*
X40468420Y35186251D01*
X40404325Y35227442D01*
X40345411Y35265304D01*
X40310336Y35275603D01*
X40205114Y35306500D01*
X40205111Y35306500D01*
X40058889Y35306500D01*
X40058885Y35306500D01*
X39918589Y35265304D01*
X39918587Y35265303D01*
X39795579Y35186251D01*
X39699824Y35075744D01*
X39639081Y34942735D01*
X39639079Y34942728D01*
X39618271Y34798004D01*
X39618271Y34797997D01*
X39639079Y34653273D01*
X39639081Y34653266D01*
X39699824Y34520257D01*
X39719723Y34497292D01*
X39749217Y34432713D01*
X39750500Y34414779D01*
X39750500Y22022383D01*
X39730498Y21954262D01*
X39676842Y21907769D01*
X39675753Y21907278D01*
X39659668Y21900117D01*
X39659663Y21900113D01*
X39499886Y21784029D01*
X39367747Y21637274D01*
X39367743Y21637268D01*
X39367742Y21637266D01*
X39366311Y21634787D01*
X39268994Y21466233D01*
X39207967Y21278410D01*
X39187325Y21082000D01*
X38536675Y21082000D01*
X38516032Y21278409D01*
X38489605Y21359744D01*
X38455005Y21466233D01*
X38394953Y21570244D01*
X38356258Y21637266D01*
X38356254Y21637271D01*
X38356252Y21637274D01*
X38224114Y21784028D01*
X38064337Y21900114D01*
X38064334Y21900115D01*
X38048249Y21907277D01*
X37994154Y21953258D01*
X37973506Y22021186D01*
X37973500Y22022383D01*
X37973500Y34414779D01*
X37993502Y34482900D01*
X38004273Y34497289D01*
X38024176Y34520257D01*
X38084919Y34653266D01*
X38105729Y34798000D01*
X38105729Y34798004D01*
X38084920Y34942728D01*
X38084919Y34942729D01*
X38084919Y34942734D01*
X38024176Y35075743D01*
X37928421Y35186250D01*
X37928420Y35186251D01*
X37864325Y35227442D01*
X37805411Y35265304D01*
X37770336Y35275603D01*
X37665114Y35306500D01*
X37665111Y35306500D01*
X37518889Y35306500D01*
X37518885Y35306500D01*
X37378589Y35265304D01*
X37378587Y35265303D01*
X37255579Y35186251D01*
X37159824Y35075744D01*
X37099081Y34942735D01*
X37099079Y34942728D01*
X37078271Y34798004D01*
X37078271Y34797997D01*
X37099079Y34653273D01*
X37099081Y34653266D01*
X37159824Y34520257D01*
X37179723Y34497292D01*
X37209217Y34432713D01*
X37210500Y34414779D01*
X37210500Y22022383D01*
X37190498Y21954262D01*
X37136842Y21907769D01*
X37135753Y21907278D01*
X37119668Y21900117D01*
X37119663Y21900113D01*
X36959886Y21784029D01*
X36827747Y21637274D01*
X36827743Y21637268D01*
X36827742Y21637266D01*
X36826311Y21634787D01*
X36728994Y21466233D01*
X36667967Y21278410D01*
X36647325Y21082000D01*
X35996171Y21082000D01*
X35975540Y21278304D01*
X35914543Y21466028D01*
X35914540Y21466035D01*
X35815853Y21636967D01*
X35815850Y21636971D01*
X35801979Y21652376D01*
X35491085Y21341483D01*
X35460102Y21395147D01*
X35365147Y21490102D01*
X35311480Y21521087D01*
X35620222Y21829829D01*
X35620222Y21829830D01*
X35524086Y21899677D01*
X35343765Y21979961D01*
X35150689Y22021000D01*
X34953311Y22021000D01*
X34760234Y21979961D01*
X34579912Y21899677D01*
X34579911Y21899676D01*
X34483776Y21829830D01*
X34483776Y21829828D01*
X34792518Y21521086D01*
X34738853Y21490102D01*
X34643898Y21395147D01*
X34612913Y21341481D01*
X34302018Y21652376D01*
X34288149Y21636972D01*
X34189459Y21466035D01*
X34189456Y21466028D01*
X34128459Y21278304D01*
X34107828Y21082000D01*
X33456675Y21082000D01*
X33436032Y21278409D01*
X33409605Y21359744D01*
X33375005Y21466233D01*
X33314953Y21570244D01*
X33276258Y21637266D01*
X33276254Y21637271D01*
X33276252Y21637274D01*
X33144114Y21784028D01*
X32984337Y21900114D01*
X32984334Y21900115D01*
X32968249Y21907277D01*
X32914154Y21953258D01*
X32893506Y22021186D01*
X32893500Y22022383D01*
X32893500Y28572779D01*
X32913502Y28640900D01*
X32924273Y28655289D01*
X32944176Y28678257D01*
X33004919Y28811266D01*
X33011136Y28854502D01*
X33025729Y28955997D01*
X33025729Y28956004D01*
X33004920Y29100728D01*
X33004919Y29100729D01*
X33004919Y29100734D01*
X32944176Y29233743D01*
X32924273Y29256712D01*
X32894782Y29321292D01*
X32893500Y29339222D01*
X32893500Y35095788D01*
X32913502Y35163909D01*
X32930405Y35184883D01*
X33464545Y35719023D01*
X34030301Y36284780D01*
X34092611Y36318803D01*
X34101464Y36320401D01*
X34109106Y36321500D01*
X34109111Y36321500D01*
X34249411Y36362696D01*
X34351801Y36428498D01*
X34419922Y36448500D01*
X42288078Y36448500D01*
X42356199Y36428498D01*
X42458589Y36362696D01*
X42561638Y36332438D01*
X42598885Y36321501D01*
X42598886Y36321501D01*
X42598889Y36321500D01*
X42598892Y36321500D01*
X42745108Y36321500D01*
X42745111Y36321500D01*
X42885411Y36362696D01*
X43008421Y36441750D01*
X43104176Y36552257D01*
X43164919Y36685266D01*
X43179878Y36789304D01*
X43185729Y36829997D01*
X43185729Y36830004D01*
X43164920Y36974728D01*
X43164919Y36974729D01*
X43164919Y36974734D01*
X43104176Y37107743D01*
X43008421Y37218250D01*
X43008420Y37218251D01*
X42946916Y37257777D01*
X42885411Y37297304D01*
X42850336Y37307603D01*
X42745114Y37338500D01*
X42745111Y37338500D01*
X42598889Y37338500D01*
X42598885Y37338500D01*
X42458589Y37297304D01*
X42458587Y37297303D01*
X42356199Y37231502D01*
X42288078Y37211500D01*
X34419922Y37211500D01*
X34351801Y37231502D01*
X34306384Y37260690D01*
X34249411Y37297304D01*
X34214336Y37307603D01*
X34109114Y37338500D01*
X34109111Y37338500D01*
X33962889Y37338500D01*
X33962885Y37338500D01*
X33822589Y37297304D01*
X33822587Y37297303D01*
X33699579Y37218251D01*
X33603824Y37107744D01*
X33543081Y36974735D01*
X33543079Y36974728D01*
X33532570Y36901635D01*
X33503077Y36837054D01*
X33496948Y36830472D01*
X32260030Y35593555D01*
X32260028Y35593552D01*
X32206729Y35540254D01*
X32206721Y35540244D01*
X32156500Y35453259D01*
X32130500Y35356224D01*
X32130500Y29339222D01*
X32110498Y29271101D01*
X32099728Y29256715D01*
X32094515Y29250697D01*
X32079824Y29233743D01*
X32019081Y29100734D01*
X32019079Y29100728D01*
X31998271Y28956004D01*
X31998271Y28955997D01*
X32019079Y28811273D01*
X32019081Y28811266D01*
X32079824Y28678257D01*
X32099723Y28655292D01*
X32129217Y28590713D01*
X32130500Y28572779D01*
X32130500Y22022383D01*
X32110498Y21954262D01*
X32056842Y21907769D01*
X32055753Y21907278D01*
X32039668Y21900117D01*
X32039663Y21900113D01*
X31879886Y21784029D01*
X31747747Y21637274D01*
X31747743Y21637268D01*
X31747742Y21637266D01*
X31746311Y21634787D01*
X31648994Y21466233D01*
X31587967Y21278410D01*
X31567325Y21082000D01*
X31587967Y20885591D01*
X31648994Y20697768D01*
X31687013Y20631919D01*
X31747742Y20526734D01*
X31747744Y20526731D01*
X31747747Y20526727D01*
X31879885Y20379973D01*
X31879888Y20379971D01*
X31879889Y20379970D01*
X32039662Y20263887D01*
X32055746Y20256726D01*
X32109842Y20210750D01*
X32130494Y20142823D01*
X32130500Y20141619D01*
X32130500Y19482383D01*
X32110498Y19414262D01*
X32056842Y19367769D01*
X32055753Y19367278D01*
X32039668Y19360117D01*
X32039663Y19360113D01*
X31879886Y19244029D01*
X31747747Y19097274D01*
X31747743Y19097268D01*
X31747742Y19097266D01*
X31734161Y19073743D01*
X31648994Y18926233D01*
X31587967Y18738410D01*
X31567325Y18542000D01*
X31587967Y18345591D01*
X31648994Y18157768D01*
X31687013Y18091919D01*
X31747742Y17986734D01*
X31747744Y17986731D01*
X31747747Y17986727D01*
X31879885Y17839973D01*
X31879888Y17839971D01*
X31879889Y17839970D01*
X32039662Y17723887D01*
X32055746Y17716726D01*
X32109842Y17670750D01*
X32130494Y17602823D01*
X32130500Y17601619D01*
X32130500Y11559222D01*
X32110498Y11491101D01*
X32099726Y11476711D01*
X32079824Y11453743D01*
X32019081Y11320734D01*
X32019079Y11320728D01*
X31998271Y11176004D01*
X31998271Y11175997D01*
X32019079Y11031273D01*
X32019081Y11031266D01*
X32079824Y10898257D01*
X32099723Y10875292D01*
X32129217Y10810713D01*
X32130500Y10792779D01*
X32130500Y8460559D01*
X32110498Y8392438D01*
X32056842Y8345945D01*
X31986568Y8335841D01*
X31969002Y8339663D01*
X31823116Y8382499D01*
X31823113Y8382500D01*
X31823111Y8382500D01*
X31676889Y8382500D01*
X31676885Y8382500D01*
X31536589Y8341304D01*
X31536587Y8341303D01*
X31434199Y8275502D01*
X31366078Y8255500D01*
X30862366Y8255500D01*
X30794245Y8275502D01*
X30747752Y8329158D01*
X30737648Y8399432D01*
X30767142Y8464012D01*
X30794244Y8487497D01*
X30816419Y8501749D01*
X30816420Y8501749D01*
X30816421Y8501750D01*
X30912176Y8612257D01*
X30972919Y8745266D01*
X30993729Y8890000D01*
X30993729Y8890004D01*
X30972920Y9034728D01*
X30972919Y9034729D01*
X30972919Y9034734D01*
X30912176Y9167743D01*
X30816421Y9278250D01*
X30816420Y9278251D01*
X30754916Y9317777D01*
X30693411Y9357304D01*
X30658336Y9367603D01*
X30553114Y9398500D01*
X30553111Y9398500D01*
X30406889Y9398500D01*
X30406885Y9398500D01*
X30266589Y9357304D01*
X30266587Y9357303D01*
X30143579Y9278251D01*
X30047824Y9167744D01*
X30012849Y9091158D01*
X29966356Y9037502D01*
X29898235Y9017500D01*
X24593213Y9017500D01*
X24525092Y9037502D01*
X24478599Y9091158D01*
X24468495Y9161432D01*
X24497989Y9226012D01*
X24504104Y9232582D01*
X25197276Y9925753D01*
X25247502Y10012747D01*
X25273501Y10109775D01*
X25273501Y10210225D01*
X25273501Y10217942D01*
X25273500Y10217960D01*
X25273500Y15872779D01*
X25293502Y15940900D01*
X25304273Y15955289D01*
X25324176Y15978257D01*
X25384919Y16111266D01*
X25391136Y16154502D01*
X25405729Y16255997D01*
X25405729Y16256004D01*
X25384920Y16400728D01*
X25384919Y16400729D01*
X25384919Y16400734D01*
X25324176Y16533743D01*
X25228421Y16644250D01*
X25228420Y16644251D01*
X25159081Y16688812D01*
X25105411Y16723304D01*
X25070336Y16733603D01*
X24965114Y16764500D01*
X24965111Y16764500D01*
X24818889Y16764500D01*
X24818885Y16764500D01*
X24678589Y16723304D01*
X24678587Y16723303D01*
X24555579Y16644251D01*
X24478724Y16555555D01*
X24418998Y16517172D01*
X24348001Y16517172D01*
X24288275Y16555556D01*
X24258782Y16620137D01*
X24257500Y16638068D01*
X24257500Y18796004D01*
X26156271Y18796004D01*
X26156271Y18795997D01*
X26177079Y18651273D01*
X26177081Y18651266D01*
X26237824Y18518257D01*
X26333579Y18407750D01*
X26397967Y18366370D01*
X26444460Y18312714D01*
X26454563Y18242440D01*
X26444460Y18208031D01*
X26431082Y18178738D01*
X26431079Y18178728D01*
X26410271Y18034004D01*
X26410271Y18033997D01*
X26431079Y17889273D01*
X26431081Y17889266D01*
X26491824Y17756257D01*
X26587579Y17645750D01*
X26710589Y17566696D01*
X26830039Y17531622D01*
X26850885Y17525501D01*
X26850886Y17525501D01*
X26850889Y17525500D01*
X26850892Y17525500D01*
X26997108Y17525500D01*
X26997111Y17525500D01*
X27137411Y17566696D01*
X27260421Y17645750D01*
X27356176Y17756257D01*
X27416919Y17889266D01*
X27427429Y17962370D01*
X27456921Y18026947D01*
X27463037Y18033516D01*
X28671870Y19242350D01*
X28671880Y19242357D01*
X28753270Y19323747D01*
X28753276Y19323753D01*
X28778688Y19367769D01*
X28803499Y19410742D01*
X28803499Y19410743D01*
X28803501Y19410746D01*
X28829500Y19507775D01*
X28829500Y25321442D01*
X28849502Y25389563D01*
X28903158Y25436056D01*
X28973432Y25446160D01*
X28990999Y25442338D01*
X28996587Y25440698D01*
X28996589Y25440696D01*
X29104834Y25408913D01*
X29136885Y25399501D01*
X29136886Y25399501D01*
X29136889Y25399500D01*
X29136892Y25399500D01*
X29283108Y25399500D01*
X29283111Y25399500D01*
X29423411Y25440696D01*
X29546421Y25519750D01*
X29642176Y25630257D01*
X29702919Y25763266D01*
X29723729Y25908000D01*
X29723729Y25908001D01*
X29723729Y25908004D01*
X29702920Y26052728D01*
X29702919Y26052729D01*
X29702919Y26052734D01*
X29642176Y26185743D01*
X29546421Y26296250D01*
X29546420Y26296251D01*
X29425964Y26373663D01*
X29423411Y26375304D01*
X29388336Y26385603D01*
X29283114Y26416500D01*
X29283111Y26416500D01*
X29136889Y26416500D01*
X29136887Y26416500D01*
X29136883Y26416499D01*
X28990998Y26373663D01*
X28920002Y26373663D01*
X28860275Y26412047D01*
X28830782Y26476627D01*
X28829500Y26494559D01*
X28829500Y29131442D01*
X28849502Y29199563D01*
X28903158Y29246056D01*
X28973432Y29256160D01*
X28990999Y29252338D01*
X28996587Y29250698D01*
X28996589Y29250696D01*
X29104834Y29218913D01*
X29136885Y29209501D01*
X29136886Y29209501D01*
X29136889Y29209500D01*
X29136892Y29209500D01*
X29283108Y29209500D01*
X29283111Y29209500D01*
X29423411Y29250696D01*
X29546421Y29329750D01*
X29642176Y29440257D01*
X29702919Y29573266D01*
X29723729Y29718000D01*
X29723729Y29718004D01*
X29702920Y29862728D01*
X29702919Y29862729D01*
X29702919Y29862734D01*
X29642176Y29995743D01*
X29546421Y30106250D01*
X29546420Y30106251D01*
X29448483Y30169191D01*
X29423411Y30185304D01*
X29362828Y30203093D01*
X29283114Y30226500D01*
X29283111Y30226500D01*
X29136889Y30226500D01*
X29136887Y30226500D01*
X29136883Y30226499D01*
X28990998Y30183663D01*
X28920002Y30183663D01*
X28860275Y30222047D01*
X28830782Y30286627D01*
X28829500Y30304559D01*
X28829500Y30401442D01*
X28849502Y30469563D01*
X28903158Y30516056D01*
X28973432Y30526160D01*
X28990999Y30522338D01*
X28996587Y30520698D01*
X28996589Y30520696D01*
X29104834Y30488913D01*
X29136885Y30479501D01*
X29136886Y30479501D01*
X29136889Y30479500D01*
X29136892Y30479500D01*
X29283108Y30479500D01*
X29283111Y30479500D01*
X29423411Y30520696D01*
X29546421Y30599750D01*
X29642176Y30710257D01*
X29702919Y30843266D01*
X29723729Y30988000D01*
X29723729Y30988004D01*
X29702920Y31132728D01*
X29702919Y31132729D01*
X29702919Y31132734D01*
X29642176Y31265743D01*
X29546421Y31376250D01*
X29546420Y31376251D01*
X29425964Y31453663D01*
X29423411Y31455304D01*
X29388336Y31465603D01*
X29283114Y31496500D01*
X29283111Y31496500D01*
X29136889Y31496500D01*
X29136887Y31496500D01*
X29136883Y31496499D01*
X28990998Y31453663D01*
X28920002Y31453663D01*
X28860275Y31492047D01*
X28830782Y31556627D01*
X28829500Y31574559D01*
X28829500Y31671442D01*
X28849502Y31739563D01*
X28903158Y31786056D01*
X28973432Y31796160D01*
X28990999Y31792338D01*
X28996587Y31790698D01*
X28996589Y31790696D01*
X29082497Y31765471D01*
X29136885Y31749501D01*
X29136886Y31749501D01*
X29136889Y31749500D01*
X29136892Y31749500D01*
X29283108Y31749500D01*
X29283111Y31749500D01*
X29423411Y31790696D01*
X29546421Y31869750D01*
X29642176Y31980257D01*
X29702919Y32113266D01*
X29723729Y32258000D01*
X29723729Y32258004D01*
X29702920Y32402728D01*
X29702919Y32402729D01*
X29702919Y32402734D01*
X29642176Y32535743D01*
X29546421Y32646250D01*
X29546420Y32646251D01*
X29484916Y32685777D01*
X29423411Y32725304D01*
X29388336Y32735603D01*
X29283114Y32766500D01*
X29283111Y32766500D01*
X29136889Y32766500D01*
X29136887Y32766500D01*
X29136883Y32766499D01*
X28990998Y32723663D01*
X28920002Y32723663D01*
X28860275Y32762047D01*
X28830782Y32826627D01*
X28829500Y32844559D01*
X28829500Y35095788D01*
X28849502Y35163909D01*
X28866399Y35184878D01*
X28950302Y35268781D01*
X29012610Y35302803D01*
X29021464Y35304401D01*
X29029106Y35305500D01*
X29029111Y35305500D01*
X29169411Y35346696D01*
X29292421Y35425750D01*
X29388176Y35536257D01*
X29448919Y35669266D01*
X29456073Y35719023D01*
X29469729Y35813997D01*
X29469729Y35814004D01*
X29448920Y35958728D01*
X29448919Y35958729D01*
X29448919Y35958734D01*
X29388176Y36091743D01*
X29292421Y36202250D01*
X29292420Y36202251D01*
X29230916Y36241777D01*
X29169411Y36281304D01*
X29029111Y36322500D01*
X29029110Y36322500D01*
X29029107Y36322501D01*
X29020268Y36323772D01*
X28955687Y36353266D01*
X28917304Y36412992D01*
X28917305Y36483989D01*
X28949104Y36537582D01*
X28950303Y36538781D01*
X29012613Y36572805D01*
X29021472Y36574403D01*
X29029102Y36575500D01*
X29029111Y36575500D01*
X29169411Y36616696D01*
X29292421Y36695750D01*
X29388176Y36806257D01*
X29448919Y36939266D01*
X29469729Y37084000D01*
X29469729Y37084004D01*
X29448920Y37228728D01*
X29448919Y37228729D01*
X29448919Y37228734D01*
X29388176Y37361743D01*
X29292421Y37472250D01*
X29292420Y37472251D01*
X29184238Y37541775D01*
X29169411Y37551304D01*
X29111675Y37568257D01*
X29029114Y37592500D01*
X29029111Y37592500D01*
X28882889Y37592500D01*
X28882885Y37592500D01*
X28742589Y37551304D01*
X28742587Y37551303D01*
X28619579Y37472251D01*
X28523824Y37361744D01*
X28463081Y37228735D01*
X28463079Y37228729D01*
X28452570Y37155636D01*
X28423077Y37091056D01*
X28416949Y37084474D01*
X27705753Y36373276D01*
X27705752Y36373276D01*
X27634729Y36302254D01*
X27634721Y36302244D01*
X27584500Y36215259D01*
X27558500Y36118224D01*
X27558500Y20276213D01*
X27538498Y20208092D01*
X27521599Y20187123D01*
X27037212Y19702735D01*
X26675698Y19341221D01*
X26613386Y19307196D01*
X26604536Y19305600D01*
X26596892Y19304501D01*
X26456589Y19263304D01*
X26456587Y19263303D01*
X26333579Y19184251D01*
X26237824Y19073744D01*
X26177081Y18940735D01*
X26177079Y18940728D01*
X26156271Y18796004D01*
X24257500Y18796004D01*
X24257500Y19174779D01*
X24277502Y19242900D01*
X24288273Y19257289D01*
X24308176Y19280257D01*
X24368919Y19413266D01*
X24389729Y19558000D01*
X24389729Y19558004D01*
X24368920Y19702728D01*
X24368919Y19702729D01*
X24368919Y19702734D01*
X24308176Y19835743D01*
X24212421Y19946250D01*
X24212420Y19946251D01*
X24114483Y20009191D01*
X24089411Y20025304D01*
X24054336Y20035603D01*
X23949114Y20066500D01*
X23949111Y20066500D01*
X23802889Y20066500D01*
X23802885Y20066500D01*
X23662589Y20025304D01*
X23662587Y20025303D01*
X23539579Y19946251D01*
X23443824Y19835744D01*
X23383081Y19702735D01*
X23383079Y19702728D01*
X23362271Y19558004D01*
X23362271Y19557997D01*
X23383079Y19413273D01*
X23383081Y19413266D01*
X23443824Y19280257D01*
X23463723Y19257292D01*
X23493217Y19192713D01*
X23494500Y19174779D01*
X23494500Y10543222D01*
X23474498Y10475101D01*
X23463728Y10460715D01*
X23458515Y10454697D01*
X23443824Y10437743D01*
X23383081Y10304734D01*
X23383079Y10304728D01*
X23362271Y10160004D01*
X23362271Y10159997D01*
X23383079Y10015273D01*
X23383081Y10015266D01*
X23409306Y9957842D01*
X23419409Y9887568D01*
X23389916Y9822987D01*
X23330190Y9784604D01*
X23294692Y9779500D01*
X16385922Y9779500D01*
X16317801Y9799502D01*
X16272384Y9828690D01*
X16215411Y9865304D01*
X16157675Y9882257D01*
X16075114Y9906500D01*
X16075111Y9906500D01*
X15928889Y9906500D01*
X15928885Y9906500D01*
X15788589Y9865304D01*
X15788587Y9865303D01*
X15665579Y9786251D01*
X15569824Y9675744D01*
X15509081Y9542735D01*
X15509079Y9542728D01*
X15488271Y9398004D01*
X15488271Y9397997D01*
X15509079Y9253273D01*
X15509081Y9253266D01*
X15521527Y9226012D01*
X15535306Y9195842D01*
X15545409Y9125568D01*
X15515916Y9060987D01*
X15456190Y9022604D01*
X15420692Y9017500D01*
X12910213Y9017500D01*
X12842092Y9037502D01*
X12821118Y9054405D01*
X11461051Y10414472D01*
X11427025Y10476784D01*
X11425432Y10485614D01*
X11414919Y10558734D01*
X11354176Y10691743D01*
X11258421Y10802250D01*
X11258420Y10802251D01*
X11144764Y10875293D01*
X11135411Y10881304D01*
X11077675Y10898257D01*
X10995114Y10922500D01*
X10995111Y10922500D01*
X10848889Y10922500D01*
X10848885Y10922500D01*
X10708589Y10881304D01*
X10708587Y10881303D01*
X10585579Y10802251D01*
X10489824Y10691744D01*
X10429081Y10558735D01*
X10429079Y10558728D01*
X10408271Y10414004D01*
X10408271Y10413997D01*
X10429079Y10269273D01*
X10429081Y10269266D01*
X10489824Y10136257D01*
X10585579Y10025750D01*
X10708589Y9946696D01*
X10848889Y9905500D01*
X10848895Y9905500D01*
X10856529Y9904402D01*
X10921111Y9874913D01*
X10927698Y9868779D01*
X12325881Y8470595D01*
X12359907Y8408283D01*
X12354842Y8337467D01*
X12312295Y8280632D01*
X12245775Y8255821D01*
X12236786Y8255500D01*
X5791775Y8255500D01*
X5732390Y8239588D01*
X5694741Y8229500D01*
X5607756Y8179279D01*
X5607751Y8179275D01*
X5572238Y8143761D01*
X5536724Y8108247D01*
X5536722Y8108245D01*
X3307698Y5879222D01*
X3245386Y5845196D01*
X3236536Y5843600D01*
X3228892Y5842501D01*
X3088589Y5801304D01*
X3088587Y5801303D01*
X2965579Y5722251D01*
X2869824Y5611744D01*
X2809081Y5478735D01*
X2809079Y5478728D01*
X2788271Y5334004D01*
X1809525Y5334004D01*
X5709117Y9233595D01*
X5771429Y9267621D01*
X5798212Y9270500D01*
X8178223Y9270500D01*
X8178225Y9270500D01*
X8275254Y9296499D01*
X8275257Y9296501D01*
X8275258Y9296501D01*
X8318750Y9321612D01*
X8362247Y9346724D01*
X8433276Y9417753D01*
X8450985Y9435462D01*
X8450991Y9435470D01*
X8859871Y9844351D01*
X8859881Y9844358D01*
X8941270Y9925747D01*
X8941276Y9925753D01*
X8966388Y9969250D01*
X8991499Y10012742D01*
X8991499Y10012743D01*
X8991501Y10012746D01*
X9017500Y10109775D01*
X9017500Y10718225D01*
X8991501Y10815254D01*
X8991499Y10815257D01*
X8991499Y10815259D01*
X8941278Y10902244D01*
X8941274Y10902249D01*
X8921023Y10922500D01*
X8870247Y10973276D01*
X8800405Y11043118D01*
X8766379Y11105430D01*
X8763500Y11132213D01*
X8763500Y11176004D01*
X21584271Y11176004D01*
X21584271Y11175997D01*
X21605079Y11031273D01*
X21605081Y11031266D01*
X21665824Y10898257D01*
X21761579Y10787750D01*
X21884589Y10708696D01*
X22004039Y10673622D01*
X22024885Y10667501D01*
X22024886Y10667501D01*
X22024889Y10667500D01*
X22024892Y10667500D01*
X22171108Y10667500D01*
X22171111Y10667500D01*
X22311411Y10708696D01*
X22434421Y10787750D01*
X22530176Y10898257D01*
X22590919Y11031266D01*
X22597929Y11080023D01*
X22611729Y11175997D01*
X22611729Y11176004D01*
X22590920Y11320728D01*
X22590919Y11320729D01*
X22590919Y11320734D01*
X22530176Y11453743D01*
X22434421Y11564250D01*
X22434420Y11564251D01*
X22372916Y11603777D01*
X22311411Y11643304D01*
X22276336Y11653603D01*
X22171114Y11684500D01*
X22171111Y11684500D01*
X22024889Y11684500D01*
X22024885Y11684500D01*
X21884589Y11643304D01*
X21884587Y11643303D01*
X21761579Y11564251D01*
X21665824Y11453744D01*
X21605081Y11320735D01*
X21605079Y11320728D01*
X21584271Y11176004D01*
X8763500Y11176004D01*
X8763500Y17272004D01*
X12694271Y17272004D01*
X12694271Y17271997D01*
X12715079Y17127273D01*
X12715081Y17127266D01*
X12775824Y16994257D01*
X12871579Y16883750D01*
X12994589Y16804696D01*
X13114039Y16769622D01*
X13134885Y16763501D01*
X13134886Y16763501D01*
X13134889Y16763500D01*
X13134892Y16763500D01*
X13281108Y16763500D01*
X13281111Y16763500D01*
X13421411Y16804696D01*
X13544421Y16883750D01*
X13640176Y16994257D01*
X13700919Y17127266D01*
X13721729Y17272000D01*
X13721729Y17272004D01*
X14218271Y17272004D01*
X14218271Y17271997D01*
X14239079Y17127273D01*
X14239081Y17127266D01*
X14299824Y16994257D01*
X14395579Y16883750D01*
X14518589Y16804696D01*
X14638039Y16769622D01*
X14658885Y16763501D01*
X14658886Y16763501D01*
X14658889Y16763500D01*
X14658892Y16763500D01*
X14805108Y16763500D01*
X14805111Y16763500D01*
X14945411Y16804696D01*
X15068421Y16883750D01*
X15164176Y16994257D01*
X15224919Y17127266D01*
X15245729Y17272000D01*
X15245729Y17272004D01*
X15224920Y17416728D01*
X15224919Y17416729D01*
X15224919Y17416734D01*
X15164176Y17549743D01*
X15068421Y17660250D01*
X15068420Y17660251D01*
X14969400Y17723887D01*
X14945411Y17739304D01*
X14887675Y17756257D01*
X14805114Y17780500D01*
X14805111Y17780500D01*
X14658889Y17780500D01*
X14658885Y17780500D01*
X14518589Y17739304D01*
X14518587Y17739303D01*
X14395579Y17660251D01*
X14299824Y17549744D01*
X14239081Y17416735D01*
X14239079Y17416728D01*
X14218271Y17272004D01*
X13721729Y17272004D01*
X13700920Y17416728D01*
X13700919Y17416729D01*
X13700919Y17416734D01*
X13640176Y17549743D01*
X13544421Y17660250D01*
X13544420Y17660251D01*
X13445400Y17723887D01*
X13421411Y17739304D01*
X13363675Y17756257D01*
X13281114Y17780500D01*
X13281111Y17780500D01*
X13134889Y17780500D01*
X13134885Y17780500D01*
X12994589Y17739304D01*
X12994587Y17739303D01*
X12871579Y17660251D01*
X12775824Y17549744D01*
X12715081Y17416735D01*
X12715079Y17416728D01*
X12694271Y17272004D01*
X8763500Y17272004D01*
X8763500Y21634787D01*
X8783502Y21702908D01*
X8837158Y21749401D01*
X8907432Y21759505D01*
X8972012Y21730011D01*
X8978595Y21723882D01*
X9366948Y21335529D01*
X9400974Y21273217D01*
X9402570Y21264366D01*
X9413079Y21191273D01*
X9413081Y21191266D01*
X9473824Y21058257D01*
X9569579Y20947750D01*
X9692589Y20868696D01*
X9812039Y20833622D01*
X9832885Y20827501D01*
X9832886Y20827501D01*
X9832889Y20827500D01*
X9832892Y20827500D01*
X9979108Y20827500D01*
X9979111Y20827500D01*
X10119411Y20868696D01*
X10242421Y20947750D01*
X10242426Y20947756D01*
X10245516Y20950433D01*
X10249249Y20952139D01*
X10250002Y20952622D01*
X10250071Y20952514D01*
X10310095Y20979930D01*
X10380369Y20969831D01*
X10434028Y20923342D01*
X10442649Y20907556D01*
X10478981Y20828000D01*
X10489824Y20804257D01*
X10585579Y20693750D01*
X10708589Y20614696D01*
X10828039Y20579622D01*
X10848885Y20573501D01*
X10848886Y20573501D01*
X10848889Y20573500D01*
X10848892Y20573500D01*
X10995108Y20573500D01*
X10995111Y20573500D01*
X11135411Y20614696D01*
X11258421Y20693750D01*
X11354176Y20804257D01*
X11414919Y20937266D01*
X11421053Y20979930D01*
X11435729Y21081997D01*
X11435729Y21082004D01*
X11414920Y21226728D01*
X11414919Y21226729D01*
X11414919Y21226734D01*
X11354176Y21359743D01*
X11310067Y21410647D01*
X11283584Y21460550D01*
X11277501Y21483254D01*
X11273547Y21490102D01*
X11227278Y21570244D01*
X11227274Y21570249D01*
X11205523Y21592000D01*
X11156247Y21641276D01*
X10445519Y22352004D01*
X23108271Y22352004D01*
X23108271Y22351997D01*
X23129079Y22207273D01*
X23129081Y22207266D01*
X23189824Y22074257D01*
X23285579Y21963750D01*
X23408589Y21884696D01*
X23528039Y21849622D01*
X23548885Y21843501D01*
X23548886Y21843501D01*
X23548889Y21843500D01*
X23548892Y21843500D01*
X23695108Y21843500D01*
X23695111Y21843500D01*
X23835411Y21884696D01*
X23958421Y21963750D01*
X24054176Y22074257D01*
X24114919Y22207266D01*
X24119718Y22240643D01*
X24132283Y22328030D01*
X24143229Y22352001D01*
X24370770Y22352001D01*
X24381717Y22328030D01*
X24399079Y22207273D01*
X24399081Y22207266D01*
X24459824Y22074257D01*
X24555579Y21963750D01*
X24678589Y21884696D01*
X24798039Y21849622D01*
X24818885Y21843501D01*
X24818886Y21843501D01*
X24818889Y21843500D01*
X24818892Y21843500D01*
X24965108Y21843500D01*
X24965111Y21843500D01*
X25105411Y21884696D01*
X25228421Y21963750D01*
X25324176Y22074257D01*
X25384919Y22207266D01*
X25405729Y22352000D01*
X25405729Y22352001D01*
X25405729Y22352004D01*
X25384920Y22496728D01*
X25384919Y22496729D01*
X25384919Y22496734D01*
X25324176Y22629743D01*
X25228421Y22740250D01*
X25228420Y22740251D01*
X25115911Y22812556D01*
X25105411Y22819304D01*
X25070336Y22829603D01*
X24965114Y22860500D01*
X24965111Y22860500D01*
X24818889Y22860500D01*
X24818885Y22860500D01*
X24678589Y22819304D01*
X24678587Y22819303D01*
X24555579Y22740251D01*
X24459824Y22629744D01*
X24399081Y22496735D01*
X24399079Y22496728D01*
X24381717Y22375971D01*
X24370770Y22352001D01*
X24143229Y22352001D01*
X24132283Y22375971D01*
X24114920Y22496728D01*
X24114919Y22496729D01*
X24114919Y22496734D01*
X24054176Y22629743D01*
X23958421Y22740250D01*
X23958420Y22740251D01*
X23845911Y22812556D01*
X23835411Y22819304D01*
X23800336Y22829603D01*
X23695114Y22860500D01*
X23695111Y22860500D01*
X23548889Y22860500D01*
X23548885Y22860500D01*
X23408589Y22819304D01*
X23408587Y22819303D01*
X23285579Y22740251D01*
X23189824Y22629744D01*
X23129081Y22496735D01*
X23129079Y22496728D01*
X23108271Y22352004D01*
X10445519Y22352004D01*
X10324405Y22473118D01*
X10290379Y22535430D01*
X10287500Y22562213D01*
X10287500Y37531612D01*
X10287501Y37531625D01*
X10287501Y37642224D01*
X10278864Y37674457D01*
X10261502Y37739253D01*
X10211276Y37826247D01*
X9683049Y38354474D01*
X9649026Y38416784D01*
X9647432Y38425614D01*
X9636919Y38498734D01*
X9576176Y38631743D01*
X9480421Y38742250D01*
X9480420Y38742251D01*
X9418916Y38781777D01*
X9357411Y38821304D01*
X9322336Y38831603D01*
X9217114Y38862500D01*
X9217111Y38862500D01*
X9070889Y38862500D01*
X9070885Y38862500D01*
X8930589Y38821304D01*
X8930587Y38821303D01*
X8807579Y38742251D01*
X8711824Y38631744D01*
X8651081Y38498735D01*
X8651079Y38498728D01*
X8630271Y38354004D01*
X8630271Y38353997D01*
X8651079Y38209273D01*
X8651081Y38209266D01*
X8711824Y38076257D01*
X8807579Y37965750D01*
X8930589Y37886696D01*
X9070889Y37845500D01*
X9070895Y37845500D01*
X9078529Y37844402D01*
X9143111Y37814913D01*
X9149698Y37808779D01*
X9150893Y37807584D01*
X9184919Y37745272D01*
X9179854Y37674457D01*
X9137307Y37617621D01*
X9079732Y37593772D01*
X9070891Y37592501D01*
X8930589Y37551304D01*
X8930587Y37551303D01*
X8807579Y37472251D01*
X8711824Y37361744D01*
X8651081Y37228735D01*
X8651079Y37228728D01*
X8630271Y37084004D01*
X8630271Y37083997D01*
X8651079Y36939273D01*
X8651081Y36939266D01*
X8711824Y36806257D01*
X8807579Y36695750D01*
X8930589Y36616696D01*
X9050039Y36581622D01*
X9070885Y36575501D01*
X9070886Y36575501D01*
X9070889Y36575500D01*
X9070892Y36575500D01*
X9217108Y36575500D01*
X9217111Y36575500D01*
X9357411Y36616696D01*
X9357412Y36616698D01*
X9363001Y36618338D01*
X9433998Y36618338D01*
X9493724Y36579955D01*
X9523217Y36515374D01*
X9524500Y36497442D01*
X9524500Y36400559D01*
X9504498Y36332438D01*
X9450842Y36285945D01*
X9380568Y36275841D01*
X9363002Y36279663D01*
X9217116Y36322499D01*
X9217113Y36322500D01*
X9217111Y36322500D01*
X9070889Y36322500D01*
X9070885Y36322500D01*
X8930589Y36281304D01*
X8930587Y36281303D01*
X8807579Y36202251D01*
X8711824Y36091744D01*
X8651081Y35958735D01*
X8651079Y35958728D01*
X8630271Y35814004D01*
X8630271Y35813997D01*
X8651079Y35669273D01*
X8651081Y35669266D01*
X8711824Y35536257D01*
X8807579Y35425750D01*
X8930589Y35346696D01*
X9050039Y35311622D01*
X9070885Y35305501D01*
X9070886Y35305501D01*
X9070889Y35305500D01*
X9070892Y35305500D01*
X9217108Y35305500D01*
X9217111Y35305500D01*
X9357411Y35346696D01*
X9357412Y35346698D01*
X9363001Y35348338D01*
X9433998Y35348338D01*
X9493724Y35309955D01*
X9523217Y35245374D01*
X9524500Y35227442D01*
X9524500Y35130559D01*
X9504498Y35062438D01*
X9450842Y35015945D01*
X9380568Y35005841D01*
X9363002Y35009663D01*
X9217116Y35052499D01*
X9217113Y35052500D01*
X9217111Y35052500D01*
X9070889Y35052500D01*
X9070885Y35052500D01*
X8930589Y35011304D01*
X8930587Y35011303D01*
X8807578Y34932250D01*
X8804473Y34929559D01*
X8800737Y34927854D01*
X8799998Y34927378D01*
X8799929Y34927485D01*
X8739891Y34900069D01*
X8669617Y34910175D01*
X8615963Y34956670D01*
X8607350Y34972445D01*
X8592099Y35005841D01*
X8560176Y35075743D01*
X8464421Y35186250D01*
X8464420Y35186251D01*
X8400325Y35227442D01*
X8341411Y35265304D01*
X8306336Y35275603D01*
X8201114Y35306500D01*
X8201111Y35306500D01*
X8054889Y35306500D01*
X8054885Y35306500D01*
X7914589Y35265304D01*
X7914587Y35265303D01*
X7791579Y35186251D01*
X7695824Y35075744D01*
X7635081Y34942735D01*
X7635079Y34942728D01*
X7614271Y34798004D01*
X7614271Y34797997D01*
X7635079Y34653273D01*
X7635081Y34653266D01*
X7695824Y34520257D01*
X7791579Y34409750D01*
X7914589Y34330696D01*
X7914596Y34330694D01*
X7922783Y34326955D01*
X7921677Y34324535D01*
X7969712Y34293676D01*
X7999215Y34229099D01*
X8000500Y34211149D01*
X8000500Y32844559D01*
X7980498Y32776438D01*
X7926842Y32729945D01*
X7856568Y32719841D01*
X7839002Y32723663D01*
X7693116Y32766499D01*
X7693113Y32766500D01*
X7693111Y32766500D01*
X7546889Y32766500D01*
X7546885Y32766500D01*
X7406589Y32725304D01*
X7406587Y32725303D01*
X7283579Y32646251D01*
X7187824Y32535744D01*
X7127081Y32402735D01*
X7127079Y32402728D01*
X7106271Y32258004D01*
X7106271Y32257997D01*
X7127079Y32113273D01*
X7127082Y32113263D01*
X7134989Y32095949D01*
X7145092Y32025675D01*
X7115598Y31961094D01*
X7055872Y31922711D01*
X6994180Y31920361D01*
X6979975Y31923381D01*
X6956829Y31928300D01*
X6759171Y31928300D01*
X6604499Y31895424D01*
X6565830Y31887204D01*
X6385256Y31806807D01*
X6225348Y31690627D01*
X6093091Y31543740D01*
X5994261Y31372561D01*
X5994259Y31372556D01*
X5933181Y31184577D01*
X5912521Y30988000D01*
X5933181Y30791424D01*
X5994259Y30603445D01*
X5994261Y30603440D01*
X6093091Y30432261D01*
X6225348Y30285374D01*
X6225351Y30285372D01*
X6385260Y30169191D01*
X6565831Y30088796D01*
X6759171Y30047700D01*
X6759175Y30047700D01*
X6956825Y30047700D01*
X6956829Y30047700D01*
X7150169Y30088796D01*
X7315254Y30162297D01*
X7385618Y30171730D01*
X7449915Y30141624D01*
X7487728Y30081535D01*
X7492500Y30047189D01*
X7492500Y29388812D01*
X7472498Y29320691D01*
X7418842Y29274198D01*
X7348568Y29264094D01*
X7315251Y29273705D01*
X7208368Y29321292D01*
X7150169Y29347204D01*
X6956829Y29388300D01*
X6759171Y29388300D01*
X6604499Y29355424D01*
X6565830Y29347204D01*
X6385256Y29266807D01*
X6225348Y29150627D01*
X6093091Y29003740D01*
X5994261Y28832561D01*
X5994259Y28832556D01*
X5933181Y28644577D01*
X5912521Y28448000D01*
X5933181Y28251424D01*
X5994259Y28063445D01*
X5994261Y28063440D01*
X6093091Y27892261D01*
X6225348Y27745374D01*
X6225351Y27745372D01*
X6385260Y27629191D01*
X6565831Y27548796D01*
X6759171Y27507700D01*
X6759175Y27507700D01*
X6956825Y27507700D01*
X6956829Y27507700D01*
X7150169Y27548796D01*
X7315254Y27622297D01*
X7385618Y27631730D01*
X7449915Y27601624D01*
X7487728Y27541535D01*
X7492500Y27507189D01*
X7492500Y26848812D01*
X7472498Y26780691D01*
X7418842Y26734198D01*
X7348568Y26724094D01*
X7315251Y26733705D01*
X7150169Y26807204D01*
X6956829Y26848300D01*
X6759171Y26848300D01*
X6604499Y26815424D01*
X6565830Y26807204D01*
X6385256Y26726807D01*
X6225348Y26610627D01*
X6093091Y26463740D01*
X5994261Y26292561D01*
X5994259Y26292556D01*
X5933181Y26104577D01*
X5912521Y25908000D01*
X5933181Y25711424D01*
X5994259Y25523445D01*
X5994261Y25523440D01*
X6093091Y25352261D01*
X6225348Y25205374D01*
X6225351Y25205372D01*
X6385260Y25089191D01*
X6565831Y25008796D01*
X6759171Y24967700D01*
X6759175Y24967700D01*
X6956825Y24967700D01*
X6956829Y24967700D01*
X7150169Y25008796D01*
X7315254Y25082297D01*
X7385618Y25091730D01*
X7449915Y25061624D01*
X7487728Y25001535D01*
X7492500Y24967189D01*
X7492500Y24308812D01*
X7472498Y24240691D01*
X7418842Y24194198D01*
X7348568Y24184094D01*
X7315251Y24193705D01*
X7150169Y24267204D01*
X6956829Y24308300D01*
X6759171Y24308300D01*
X6604499Y24275424D01*
X6565830Y24267204D01*
X6385256Y24186807D01*
X6225348Y24070627D01*
X6093091Y23923740D01*
X5994261Y23752561D01*
X5994259Y23752556D01*
X5933181Y23564577D01*
X5912521Y23368000D01*
X5933181Y23171424D01*
X5994259Y22983445D01*
X5994261Y22983440D01*
X6093091Y22812261D01*
X6225348Y22665374D01*
X6225351Y22665372D01*
X6385260Y22549191D01*
X6565831Y22468796D01*
X6759171Y22427700D01*
X6759175Y22427700D01*
X6956825Y22427700D01*
X6956829Y22427700D01*
X7150169Y22468796D01*
X7315254Y22542297D01*
X7385618Y22551730D01*
X7449915Y22521624D01*
X7487728Y22461535D01*
X7492500Y22427189D01*
X7492500Y21768812D01*
X7472498Y21700691D01*
X7418842Y21654198D01*
X7348568Y21644094D01*
X7315251Y21653705D01*
X7150169Y21727204D01*
X7136963Y21730011D01*
X6956829Y21768300D01*
X6759171Y21768300D01*
X6604499Y21735424D01*
X6565830Y21727204D01*
X6385256Y21646807D01*
X6225348Y21530627D01*
X6093091Y21383740D01*
X5994261Y21212561D01*
X5994259Y21212556D01*
X5933181Y21024577D01*
X5912521Y20828000D01*
X5933181Y20631424D01*
X5994259Y20443445D01*
X5994261Y20443440D01*
X6093091Y20272261D01*
X6225348Y20125374D01*
X6225351Y20125372D01*
X6385260Y20009191D01*
X6565831Y19928796D01*
X6759171Y19887700D01*
X6759175Y19887700D01*
X6956825Y19887700D01*
X6956829Y19887700D01*
X7150169Y19928796D01*
X7315254Y20002297D01*
X7385618Y20011730D01*
X7449915Y19981624D01*
X7487728Y19921535D01*
X7492500Y19887189D01*
X7492500Y19228812D01*
X7472498Y19160691D01*
X7418842Y19114198D01*
X7348568Y19104094D01*
X7315251Y19113705D01*
X7150169Y19187204D01*
X7124251Y19192713D01*
X6956829Y19228300D01*
X6759171Y19228300D01*
X6604499Y19195424D01*
X6565830Y19187204D01*
X6385256Y19106807D01*
X6225348Y18990627D01*
X6093091Y18843740D01*
X5994261Y18672561D01*
X5994259Y18672556D01*
X5933181Y18484577D01*
X5912521Y18288000D01*
X5933181Y18091424D01*
X5994259Y17903445D01*
X5994261Y17903440D01*
X6093091Y17732261D01*
X6225348Y17585374D01*
X6225351Y17585372D01*
X6385260Y17469191D01*
X6565831Y17388796D01*
X6759171Y17347700D01*
X6759175Y17347700D01*
X6956825Y17347700D01*
X6956829Y17347700D01*
X7150169Y17388796D01*
X7315254Y17462297D01*
X7385618Y17471730D01*
X7449915Y17441624D01*
X7487728Y17381535D01*
X7492500Y17347189D01*
X7492500Y16688812D01*
X7472498Y16620691D01*
X7418842Y16574198D01*
X7348568Y16564094D01*
X7315251Y16573705D01*
X7150169Y16647204D01*
X6956829Y16688300D01*
X6759171Y16688300D01*
X6604499Y16655424D01*
X6565830Y16647204D01*
X6385256Y16566807D01*
X6225348Y16450627D01*
X6093091Y16303740D01*
X5994261Y16132561D01*
X5994259Y16132556D01*
X5933181Y15944577D01*
X5912521Y15748000D01*
X5933181Y15551424D01*
X5994259Y15363445D01*
X5994261Y15363440D01*
X6093091Y15192261D01*
X6225348Y15045374D01*
X6225351Y15045372D01*
X6385260Y14929191D01*
X6565831Y14848796D01*
X6759171Y14807700D01*
X6759175Y14807700D01*
X6956825Y14807700D01*
X6956829Y14807700D01*
X7150169Y14848796D01*
X7315254Y14922297D01*
X7385618Y14931730D01*
X7449915Y14901624D01*
X7487728Y14841535D01*
X7492500Y14807189D01*
X7492500Y14148812D01*
X7472498Y14080691D01*
X7418842Y14034198D01*
X7348568Y14024094D01*
X7315251Y14033705D01*
X7150169Y14107204D01*
X6956829Y14148300D01*
X6759171Y14148300D01*
X6604499Y14115424D01*
X6565830Y14107204D01*
X6385256Y14026807D01*
X6225348Y13910627D01*
X6093091Y13763740D01*
X5994261Y13592561D01*
X5994259Y13592556D01*
X5933181Y13404577D01*
X5912521Y13208000D01*
X5933181Y13011424D01*
X5994259Y12823445D01*
X5994261Y12823440D01*
X6093091Y12652261D01*
X6225348Y12505374D01*
X6225351Y12505372D01*
X6385260Y12389191D01*
X6565831Y12308796D01*
X6759171Y12267700D01*
X6759175Y12267700D01*
X6956825Y12267700D01*
X6956829Y12267700D01*
X7150169Y12308796D01*
X7315254Y12382297D01*
X7385618Y12391730D01*
X7449915Y12361624D01*
X7487728Y12301535D01*
X7492500Y12267189D01*
X7492500Y10797222D01*
X7472498Y10729101D01*
X7461728Y10714715D01*
X7456515Y10708697D01*
X7441824Y10691743D01*
X7381081Y10558734D01*
X7381079Y10558728D01*
X7360271Y10414004D01*
X7360271Y10413997D01*
X7381079Y10269273D01*
X7381081Y10269266D01*
X7407306Y10211842D01*
X7417409Y10141568D01*
X7387916Y10076987D01*
X7328190Y10038604D01*
X7292692Y10033500D01*
X5537775Y10033500D01*
X5478390Y10017588D01*
X5440741Y10007500D01*
X5353756Y9957279D01*
X5353751Y9957275D01*
X5322234Y9925757D01*
X5282724Y9886247D01*
X5282722Y9886245D01*
X1021698Y5625222D01*
X959386Y5591196D01*
X950536Y5589600D01*
X942892Y5588501D01*
X802589Y5547304D01*
X802587Y5547303D01*
X679579Y5468251D01*
X583824Y5357744D01*
X523081Y5224735D01*
X523079Y5224728D01*
X502271Y5080004D01*
X76700Y5080004D01*
X76700Y8890004D01*
X2026271Y8890004D01*
X2026271Y8889997D01*
X2047079Y8745273D01*
X2047081Y8745266D01*
X2107824Y8612257D01*
X2203579Y8501750D01*
X2326589Y8422696D01*
X2429638Y8392438D01*
X2466885Y8381501D01*
X2466886Y8381501D01*
X2466889Y8381500D01*
X2466892Y8381500D01*
X2613108Y8381500D01*
X2613111Y8381500D01*
X2753411Y8422696D01*
X2876421Y8501750D01*
X2972176Y8612257D01*
X3032919Y8745266D01*
X3053729Y8890000D01*
X3053729Y8890004D01*
X3032920Y9034728D01*
X3032919Y9034729D01*
X3032919Y9034734D01*
X2972176Y9167743D01*
X2876421Y9278250D01*
X2876420Y9278251D01*
X2814916Y9317777D01*
X2753411Y9357304D01*
X2718336Y9367603D01*
X2613114Y9398500D01*
X2613111Y9398500D01*
X2466889Y9398500D01*
X2466885Y9398500D01*
X2326589Y9357304D01*
X2326587Y9357303D01*
X2203579Y9278251D01*
X2107824Y9167744D01*
X2047081Y9034735D01*
X2047079Y9034728D01*
X2026271Y8890004D01*
X76700Y8890004D01*
X76700Y13208000D01*
X833023Y13208000D01*
X853672Y13011529D01*
X914721Y12823645D01*
X914724Y12823638D01*
X1013495Y12652560D01*
X1013498Y12652556D01*
X1027452Y12637059D01*
X1340377Y12949984D01*
X1371498Y12896080D01*
X1466080Y12801498D01*
X1519982Y12770378D01*
X1209202Y12459599D01*
X1209202Y12459598D01*
X1305508Y12389628D01*
X1305509Y12389627D01*
X1485986Y12309273D01*
X1679222Y12268200D01*
X1876778Y12268200D01*
X2070013Y12309273D01*
X2250489Y12389627D01*
X2346796Y12459599D01*
X2346796Y12459600D01*
X2036018Y12770378D01*
X2089920Y12801498D01*
X2184502Y12896080D01*
X2215622Y12949982D01*
X2528545Y12637059D01*
X2528547Y12637059D01*
X2542498Y12652552D01*
X2542501Y12652557D01*
X2641275Y12823638D01*
X2641278Y12823645D01*
X2702327Y13011529D01*
X2722976Y13208000D01*
X2702327Y13404472D01*
X2641278Y13592356D01*
X2641275Y13592363D01*
X2542504Y13763441D01*
X2542501Y13763445D01*
X2528546Y13778943D01*
X2215621Y13466019D01*
X2184502Y13519920D01*
X2089920Y13614502D01*
X2036016Y13645623D01*
X2346796Y13956403D01*
X2346796Y13956404D01*
X2250489Y14026374D01*
X2250490Y14026374D01*
X2070013Y14106728D01*
X1876778Y14147800D01*
X1679222Y14147800D01*
X1485989Y14106728D01*
X1305510Y14026374D01*
X1305509Y14026373D01*
X1209203Y13956403D01*
X1209203Y13956401D01*
X1519981Y13645623D01*
X1466080Y13614502D01*
X1371498Y13519920D01*
X1340377Y13466019D01*
X1027453Y13778943D01*
X1027450Y13778943D01*
X1013505Y13763454D01*
X1013497Y13763443D01*
X914724Y13592363D01*
X914721Y13592356D01*
X853672Y13404472D01*
X833023Y13208000D01*
X76700Y13208000D01*
X76700Y15748000D01*
X833023Y15748000D01*
X853672Y15551529D01*
X914721Y15363645D01*
X914724Y15363638D01*
X1013495Y15192560D01*
X1013498Y15192556D01*
X1027452Y15177059D01*
X1340377Y15489984D01*
X1371498Y15436080D01*
X1466080Y15341498D01*
X1519982Y15310378D01*
X1209202Y14999599D01*
X1209202Y14999598D01*
X1305508Y14929628D01*
X1305509Y14929627D01*
X1485986Y14849273D01*
X1679222Y14808200D01*
X1876778Y14808200D01*
X2070013Y14849273D01*
X2250489Y14929627D01*
X2346796Y14999599D01*
X2346796Y14999600D01*
X2036018Y15310378D01*
X2089920Y15341498D01*
X2184502Y15436080D01*
X2215622Y15489982D01*
X2528545Y15177059D01*
X2528547Y15177059D01*
X2542498Y15192552D01*
X2542501Y15192557D01*
X2641275Y15363638D01*
X2641278Y15363645D01*
X2702327Y15551529D01*
X2722976Y15748000D01*
X2702327Y15944472D01*
X2641278Y16132356D01*
X2641275Y16132363D01*
X2542504Y16303441D01*
X2542501Y16303445D01*
X2528546Y16318943D01*
X2215621Y16006019D01*
X2184502Y16059920D01*
X2089920Y16154502D01*
X2036016Y16185623D01*
X2346796Y16496403D01*
X2346796Y16496404D01*
X2250489Y16566374D01*
X2250490Y16566374D01*
X2070013Y16646728D01*
X1876778Y16687800D01*
X1679222Y16687800D01*
X1485989Y16646728D01*
X1305510Y16566374D01*
X1305509Y16566373D01*
X1209203Y16496403D01*
X1209203Y16496401D01*
X1519981Y16185623D01*
X1466080Y16154502D01*
X1371498Y16059920D01*
X1340377Y16006019D01*
X1027453Y16318943D01*
X1027450Y16318943D01*
X1013505Y16303454D01*
X1013497Y16303443D01*
X914724Y16132363D01*
X914721Y16132356D01*
X853672Y15944472D01*
X833023Y15748000D01*
X76700Y15748000D01*
X76700Y18288000D01*
X833023Y18288000D01*
X853672Y18091529D01*
X914721Y17903645D01*
X914724Y17903638D01*
X1013495Y17732560D01*
X1013498Y17732556D01*
X1027452Y17717059D01*
X1340377Y18029984D01*
X1371498Y17976080D01*
X1466080Y17881498D01*
X1519982Y17850378D01*
X1209202Y17539599D01*
X1209202Y17539598D01*
X1305508Y17469628D01*
X1305509Y17469627D01*
X1485986Y17389273D01*
X1679222Y17348200D01*
X1876778Y17348200D01*
X2070013Y17389273D01*
X2250489Y17469627D01*
X2346796Y17539599D01*
X2346796Y17539600D01*
X2036018Y17850378D01*
X2089920Y17881498D01*
X2184502Y17976080D01*
X2215622Y18029982D01*
X2528545Y17717059D01*
X2528547Y17717059D01*
X2542498Y17732552D01*
X2542501Y17732557D01*
X2641275Y17903638D01*
X2641278Y17903645D01*
X2702327Y18091529D01*
X2722976Y18288000D01*
X2702327Y18484472D01*
X2641278Y18672356D01*
X2641275Y18672363D01*
X2542504Y18843441D01*
X2542501Y18843445D01*
X2528546Y18858943D01*
X2215621Y18546019D01*
X2184502Y18599920D01*
X2089920Y18694502D01*
X2036016Y18725623D01*
X2346796Y19036403D01*
X2346796Y19036404D01*
X2250489Y19106374D01*
X2250490Y19106374D01*
X2070013Y19186728D01*
X1876778Y19227800D01*
X1679222Y19227800D01*
X1485989Y19186728D01*
X1305510Y19106374D01*
X1305509Y19106373D01*
X1209203Y19036403D01*
X1209203Y19036401D01*
X1519981Y18725623D01*
X1466080Y18694502D01*
X1371498Y18599920D01*
X1340377Y18546019D01*
X1027453Y18858943D01*
X1027450Y18858943D01*
X1013505Y18843454D01*
X1013497Y18843443D01*
X914724Y18672363D01*
X914721Y18672356D01*
X853672Y18484472D01*
X833023Y18288000D01*
X76700Y18288000D01*
X76700Y20828000D01*
X833023Y20828000D01*
X853672Y20631529D01*
X914721Y20443645D01*
X914724Y20443638D01*
X1013495Y20272560D01*
X1013498Y20272556D01*
X1027452Y20257059D01*
X1340377Y20569984D01*
X1371498Y20516080D01*
X1466080Y20421498D01*
X1519982Y20390378D01*
X1209202Y20079599D01*
X1209202Y20079598D01*
X1305508Y20009628D01*
X1305509Y20009627D01*
X1485986Y19929273D01*
X1679222Y19888200D01*
X1876778Y19888200D01*
X2070013Y19929273D01*
X2250489Y20009627D01*
X2346796Y20079599D01*
X2346796Y20079600D01*
X2036018Y20390378D01*
X2089920Y20421498D01*
X2184502Y20516080D01*
X2215622Y20569982D01*
X2528545Y20257059D01*
X2528547Y20257059D01*
X2542498Y20272552D01*
X2542501Y20272557D01*
X2641275Y20443638D01*
X2641278Y20443645D01*
X2702327Y20631529D01*
X2722976Y20828000D01*
X2702327Y21024472D01*
X2641278Y21212356D01*
X2641275Y21212363D01*
X2542504Y21383441D01*
X2542501Y21383445D01*
X2528546Y21398943D01*
X2215621Y21086019D01*
X2184502Y21139920D01*
X2089920Y21234502D01*
X2036016Y21265623D01*
X2346796Y21576403D01*
X2346796Y21576404D01*
X2250489Y21646374D01*
X2250490Y21646374D01*
X2070013Y21726728D01*
X1876778Y21767800D01*
X1679222Y21767800D01*
X1485989Y21726728D01*
X1305510Y21646374D01*
X1305509Y21646373D01*
X1209203Y21576403D01*
X1209203Y21576401D01*
X1519981Y21265623D01*
X1466080Y21234502D01*
X1371498Y21139920D01*
X1340377Y21086019D01*
X1027453Y21398943D01*
X1027450Y21398943D01*
X1013505Y21383454D01*
X1013497Y21383443D01*
X914724Y21212363D01*
X914721Y21212356D01*
X853672Y21024472D01*
X833023Y20828000D01*
X76700Y20828000D01*
X76700Y23368000D01*
X833023Y23368000D01*
X853672Y23171529D01*
X914721Y22983645D01*
X914724Y22983638D01*
X1013495Y22812560D01*
X1013498Y22812556D01*
X1027452Y22797059D01*
X1340377Y23109984D01*
X1371498Y23056080D01*
X1466080Y22961498D01*
X1519982Y22930378D01*
X1209202Y22619599D01*
X1209202Y22619598D01*
X1305508Y22549628D01*
X1305509Y22549627D01*
X1485986Y22469273D01*
X1679222Y22428200D01*
X1876778Y22428200D01*
X2070013Y22469273D01*
X2250489Y22549627D01*
X2346796Y22619599D01*
X2346796Y22619600D01*
X2036018Y22930378D01*
X2089920Y22961498D01*
X2184502Y23056080D01*
X2215622Y23109982D01*
X2528545Y22797059D01*
X2528547Y22797059D01*
X2542498Y22812552D01*
X2542501Y22812557D01*
X2641275Y22983638D01*
X2641278Y22983645D01*
X2702327Y23171529D01*
X2722976Y23368000D01*
X2702327Y23564472D01*
X2641278Y23752356D01*
X2641275Y23752363D01*
X2542504Y23923441D01*
X2542501Y23923445D01*
X2528546Y23938943D01*
X2215621Y23626019D01*
X2184502Y23679920D01*
X2089920Y23774502D01*
X2036016Y23805623D01*
X2346796Y24116403D01*
X2346796Y24116404D01*
X2250489Y24186374D01*
X2250490Y24186374D01*
X2070013Y24266728D01*
X1876778Y24307800D01*
X1679222Y24307800D01*
X1485989Y24266728D01*
X1305510Y24186374D01*
X1305509Y24186373D01*
X1209203Y24116403D01*
X1209203Y24116401D01*
X1519981Y23805623D01*
X1466080Y23774502D01*
X1371498Y23679920D01*
X1340377Y23626019D01*
X1027453Y23938943D01*
X1027450Y23938943D01*
X1013505Y23923454D01*
X1013497Y23923443D01*
X914724Y23752363D01*
X914721Y23752356D01*
X853672Y23564472D01*
X833023Y23368000D01*
X76700Y23368000D01*
X76700Y25908000D01*
X833023Y25908000D01*
X853672Y25711529D01*
X914721Y25523645D01*
X914724Y25523638D01*
X1013495Y25352560D01*
X1013498Y25352556D01*
X1027452Y25337059D01*
X1340377Y25649984D01*
X1371498Y25596080D01*
X1466080Y25501498D01*
X1519982Y25470378D01*
X1209202Y25159599D01*
X1209202Y25159598D01*
X1305508Y25089628D01*
X1305509Y25089627D01*
X1485986Y25009273D01*
X1679222Y24968200D01*
X1876778Y24968200D01*
X2070013Y25009273D01*
X2250489Y25089627D01*
X2346796Y25159599D01*
X2346796Y25159600D01*
X2036018Y25470378D01*
X2089920Y25501498D01*
X2184502Y25596080D01*
X2215622Y25649982D01*
X2528545Y25337059D01*
X2528547Y25337059D01*
X2542498Y25352552D01*
X2542501Y25352557D01*
X2641275Y25523638D01*
X2641278Y25523645D01*
X2702327Y25711529D01*
X2722976Y25908000D01*
X2702327Y26104472D01*
X2641278Y26292356D01*
X2641275Y26292363D01*
X2542504Y26463441D01*
X2542501Y26463445D01*
X2528546Y26478943D01*
X2215621Y26166019D01*
X2184502Y26219920D01*
X2089920Y26314502D01*
X2036016Y26345623D01*
X2346796Y26656403D01*
X2346796Y26656404D01*
X2250489Y26726374D01*
X2250490Y26726374D01*
X2070013Y26806728D01*
X1876778Y26847800D01*
X1679222Y26847800D01*
X1485989Y26806728D01*
X1305510Y26726374D01*
X1305509Y26726373D01*
X1209203Y26656403D01*
X1209203Y26656401D01*
X1519981Y26345623D01*
X1466080Y26314502D01*
X1371498Y26219920D01*
X1340377Y26166019D01*
X1027453Y26478943D01*
X1027450Y26478943D01*
X1013505Y26463454D01*
X1013497Y26463443D01*
X914724Y26292363D01*
X914721Y26292356D01*
X853672Y26104472D01*
X833023Y25908000D01*
X76700Y25908000D01*
X76700Y28448000D01*
X833023Y28448000D01*
X853672Y28251529D01*
X914721Y28063645D01*
X914724Y28063638D01*
X1013495Y27892560D01*
X1013498Y27892556D01*
X1027452Y27877059D01*
X1340377Y28189984D01*
X1371498Y28136080D01*
X1466080Y28041498D01*
X1519982Y28010378D01*
X1209202Y27699599D01*
X1209202Y27699598D01*
X1305508Y27629628D01*
X1305509Y27629627D01*
X1485986Y27549273D01*
X1679222Y27508200D01*
X1876778Y27508200D01*
X2070013Y27549273D01*
X2250489Y27629627D01*
X2346796Y27699599D01*
X2346796Y27699600D01*
X2036018Y28010378D01*
X2089920Y28041498D01*
X2184502Y28136080D01*
X2215622Y28189982D01*
X2528545Y27877059D01*
X2528547Y27877059D01*
X2542498Y27892552D01*
X2542501Y27892557D01*
X2641275Y28063638D01*
X2641278Y28063645D01*
X2702327Y28251529D01*
X2722976Y28448000D01*
X2702327Y28644472D01*
X2641278Y28832356D01*
X2641275Y28832363D01*
X2542504Y29003441D01*
X2542501Y29003445D01*
X2528546Y29018943D01*
X2215621Y28706019D01*
X2184502Y28759920D01*
X2089920Y28854502D01*
X2036016Y28885623D01*
X2346796Y29196403D01*
X2346796Y29196404D01*
X2250489Y29266374D01*
X2250490Y29266374D01*
X2070013Y29346728D01*
X1876778Y29387800D01*
X1679222Y29387800D01*
X1485989Y29346728D01*
X1305510Y29266374D01*
X1305509Y29266373D01*
X1209203Y29196403D01*
X1209203Y29196401D01*
X1519981Y28885623D01*
X1466080Y28854502D01*
X1371498Y28759920D01*
X1340377Y28706019D01*
X1027453Y29018943D01*
X1027450Y29018943D01*
X1013505Y29003454D01*
X1013497Y29003443D01*
X914724Y28832363D01*
X914721Y28832356D01*
X853672Y28644472D01*
X833023Y28448000D01*
X76700Y28448000D01*
X76700Y31698823D01*
X838200Y31698823D01*
X838200Y31115000D01*
X1286109Y31115000D01*
X1270000Y31054880D01*
X1270000Y30921120D01*
X1286109Y30861000D01*
X838201Y30861000D01*
X838201Y30277178D01*
X852937Y30203095D01*
X852937Y30203093D01*
X909075Y30119076D01*
X993093Y30062938D01*
X993094Y30062937D01*
X1067180Y30048201D01*
X1651000Y30048201D01*
X1651000Y30496109D01*
X1711120Y30480000D01*
X1844880Y30480000D01*
X1905000Y30496109D01*
X1905000Y30048201D01*
X2488814Y30048201D01*
X2488822Y30048202D01*
X2562905Y30062938D01*
X2562907Y30062938D01*
X2646924Y30119076D01*
X2703062Y30203094D01*
X2703063Y30203095D01*
X2717799Y30277178D01*
X2717800Y30277185D01*
X2717800Y30861000D01*
X2269891Y30861000D01*
X2286000Y30921120D01*
X2286000Y30988000D01*
X3372521Y30988000D01*
X3393181Y30791424D01*
X3454259Y30603445D01*
X3454262Y30603438D01*
X3538619Y30457328D01*
X3555500Y30394328D01*
X3555500Y29041673D01*
X3538619Y28978673D01*
X3454263Y28832564D01*
X3454259Y28832556D01*
X3393181Y28644577D01*
X3372521Y28448000D01*
X3393181Y28251424D01*
X3454259Y28063445D01*
X3454262Y28063438D01*
X3538619Y27917328D01*
X3555500Y27854328D01*
X3555500Y26501673D01*
X3538619Y26438673D01*
X3454263Y26292564D01*
X3454259Y26292556D01*
X3393181Y26104577D01*
X3372521Y25908000D01*
X3393181Y25711424D01*
X3454259Y25523445D01*
X3454262Y25523438D01*
X3538619Y25377328D01*
X3555500Y25314328D01*
X3555500Y23961673D01*
X3538619Y23898673D01*
X3454263Y23752564D01*
X3454259Y23752556D01*
X3393181Y23564577D01*
X3372521Y23368000D01*
X3393181Y23171424D01*
X3454259Y22983445D01*
X3454262Y22983438D01*
X3505542Y22894619D01*
X3525240Y22860500D01*
X3538619Y22837328D01*
X3555500Y22774328D01*
X3555500Y21421673D01*
X3538619Y21358673D01*
X3454263Y21212564D01*
X3454259Y21212556D01*
X3393181Y21024577D01*
X3372521Y20828000D01*
X3393181Y20631424D01*
X3454259Y20443445D01*
X3454262Y20443438D01*
X3538619Y20297328D01*
X3555500Y20234328D01*
X3555500Y18881673D01*
X3538619Y18818673D01*
X3454263Y18672564D01*
X3454259Y18672556D01*
X3393181Y18484577D01*
X3372521Y18288000D01*
X3393181Y18091424D01*
X3454259Y17903445D01*
X3454262Y17903438D01*
X3505542Y17814619D01*
X3525240Y17780500D01*
X3538619Y17757328D01*
X3555500Y17694328D01*
X3555500Y16341673D01*
X3538619Y16278673D01*
X3454263Y16132564D01*
X3454259Y16132556D01*
X3393181Y15944577D01*
X3372521Y15748000D01*
X3393181Y15551424D01*
X3454259Y15363445D01*
X3454262Y15363438D01*
X3538619Y15217328D01*
X3555500Y15154328D01*
X3555500Y13801673D01*
X3538619Y13738673D01*
X3454263Y13592564D01*
X3454259Y13592556D01*
X3393181Y13404577D01*
X3372521Y13208000D01*
X3393181Y13011424D01*
X3454259Y12823445D01*
X3454261Y12823440D01*
X3553091Y12652261D01*
X3685348Y12505374D01*
X3685351Y12505372D01*
X3845260Y12389191D01*
X4025831Y12308796D01*
X4219171Y12267700D01*
X4219175Y12267700D01*
X4416825Y12267700D01*
X4416829Y12267700D01*
X4610169Y12308796D01*
X4790740Y12389191D01*
X4950649Y12505372D01*
X5082909Y12652261D01*
X5181738Y12823439D01*
X5205341Y12896080D01*
X5242818Y13011424D01*
X5244602Y13028395D01*
X5263479Y13208000D01*
X5242818Y13404576D01*
X5242818Y13404577D01*
X5181740Y13592556D01*
X5181736Y13592564D01*
X5097381Y13738673D01*
X5080500Y13801673D01*
X5080500Y15154328D01*
X5097381Y15217328D01*
X5181737Y15363438D01*
X5181738Y15363439D01*
X5205341Y15436080D01*
X5242818Y15551424D01*
X5244602Y15568395D01*
X5263479Y15748000D01*
X5242818Y15944576D01*
X5234831Y15969157D01*
X5181740Y16132556D01*
X5181736Y16132564D01*
X5097381Y16278673D01*
X5080500Y16341673D01*
X5080500Y17694328D01*
X5097381Y17757328D01*
X5110471Y17780000D01*
X5181738Y17903439D01*
X5205341Y17976080D01*
X5242818Y18091424D01*
X5247282Y18133898D01*
X5263479Y18288000D01*
X5242818Y18484576D01*
X5242818Y18484577D01*
X5181740Y18672556D01*
X5181736Y18672564D01*
X5143781Y18738304D01*
X5097381Y18818673D01*
X5080500Y18881673D01*
X5080500Y20234328D01*
X5097381Y20297328D01*
X5118653Y20334172D01*
X5181738Y20443439D01*
X5205341Y20516080D01*
X5242818Y20631424D01*
X5247282Y20673898D01*
X5263479Y20828000D01*
X5242818Y21024576D01*
X5242818Y21024577D01*
X5181740Y21212556D01*
X5181736Y21212564D01*
X5173554Y21226735D01*
X5129275Y21303431D01*
X5097381Y21358673D01*
X5080500Y21421673D01*
X5080500Y22774328D01*
X5097381Y22837328D01*
X5110471Y22860000D01*
X5181738Y22983439D01*
X5205341Y23056080D01*
X5242818Y23171424D01*
X5244602Y23188395D01*
X5263479Y23368000D01*
X5242818Y23564576D01*
X5242818Y23564577D01*
X5181740Y23752556D01*
X5181736Y23752564D01*
X5097381Y23898673D01*
X5080500Y23961673D01*
X5080500Y25314328D01*
X5097381Y25377328D01*
X5110182Y25399500D01*
X5181738Y25523439D01*
X5205341Y25596080D01*
X5242818Y25711424D01*
X5248267Y25763266D01*
X5263479Y25908000D01*
X5242818Y26104576D01*
X5242818Y26104577D01*
X5181740Y26292556D01*
X5181736Y26292564D01*
X5179607Y26296251D01*
X5097381Y26438673D01*
X5080500Y26501673D01*
X5080500Y27854328D01*
X5097381Y27917328D01*
X5181737Y28063438D01*
X5181738Y28063439D01*
X5205341Y28136080D01*
X5242818Y28251424D01*
X5244602Y28268395D01*
X5263479Y28448000D01*
X5242818Y28644576D01*
X5239336Y28655293D01*
X5181740Y28832556D01*
X5181736Y28832564D01*
X5097381Y28978673D01*
X5080500Y29041673D01*
X5080500Y30394328D01*
X5097381Y30457328D01*
X5110182Y30479500D01*
X5181738Y30603439D01*
X5205341Y30676080D01*
X5242818Y30791424D01*
X5248267Y30843266D01*
X5263479Y30988000D01*
X5242818Y31184576D01*
X5242818Y31184577D01*
X5181740Y31372556D01*
X5181738Y31372561D01*
X5133967Y31455303D01*
X5082909Y31543739D01*
X5071305Y31556627D01*
X4950651Y31690627D01*
X4790740Y31806809D01*
X4610169Y31887204D01*
X4416829Y31928300D01*
X4219171Y31928300D01*
X4064499Y31895424D01*
X4025830Y31887204D01*
X3845256Y31806807D01*
X3685348Y31690627D01*
X3553091Y31543740D01*
X3454261Y31372561D01*
X3454259Y31372556D01*
X3393181Y31184577D01*
X3372521Y30988000D01*
X2286000Y30988000D01*
X2286000Y31054880D01*
X2269891Y31115000D01*
X2717799Y31115000D01*
X2717799Y31698814D01*
X2717798Y31698823D01*
X2703062Y31772906D01*
X2703062Y31772908D01*
X2646924Y31856925D01*
X2562906Y31913063D01*
X2562905Y31913064D01*
X2488822Y31927800D01*
X1905000Y31927800D01*
X1905000Y31479892D01*
X1844880Y31496000D01*
X1711120Y31496000D01*
X1651000Y31479892D01*
X1651000Y31927800D01*
X1067186Y31927800D01*
X1067176Y31927799D01*
X993094Y31913063D01*
X993092Y31913063D01*
X909075Y31856925D01*
X852937Y31772907D01*
X852936Y31772906D01*
X838200Y31698823D01*
X76700Y31698823D01*
X76700Y33274004D01*
X5836271Y33274004D01*
X5836271Y33273997D01*
X5857079Y33129273D01*
X5857081Y33129266D01*
X5917824Y32996257D01*
X6013579Y32885750D01*
X6136589Y32806696D01*
X6239638Y32776438D01*
X6276885Y32765501D01*
X6276886Y32765501D01*
X6276889Y32765500D01*
X6276892Y32765500D01*
X6423108Y32765500D01*
X6423111Y32765500D01*
X6563411Y32806696D01*
X6686421Y32885750D01*
X6782176Y32996257D01*
X6842919Y33129266D01*
X6863729Y33274000D01*
X6863729Y33274004D01*
X6842920Y33418728D01*
X6842919Y33418729D01*
X6842919Y33418734D01*
X6782176Y33551743D01*
X6686421Y33662250D01*
X6686420Y33662251D01*
X6624916Y33701777D01*
X6563411Y33741304D01*
X6528336Y33751603D01*
X6423114Y33782500D01*
X6423111Y33782500D01*
X6276889Y33782500D01*
X6276885Y33782500D01*
X6136589Y33741304D01*
X6136587Y33741303D01*
X6013579Y33662251D01*
X5917824Y33551744D01*
X5857081Y33418735D01*
X5857079Y33418728D01*
X5836271Y33274004D01*
X76700Y33274004D01*
X76700Y34798004D01*
X5836271Y34798004D01*
X5836271Y34797997D01*
X5857079Y34653273D01*
X5857081Y34653266D01*
X5917824Y34520257D01*
X6013579Y34409750D01*
X6136589Y34330696D01*
X6256039Y34295622D01*
X6276885Y34289501D01*
X6276886Y34289501D01*
X6276889Y34289500D01*
X6276892Y34289500D01*
X6423108Y34289500D01*
X6423111Y34289500D01*
X6563411Y34330696D01*
X6686421Y34409750D01*
X6782176Y34520257D01*
X6842919Y34653266D01*
X6863729Y34798000D01*
X6863729Y34798004D01*
X6842920Y34942728D01*
X6842919Y34942729D01*
X6842919Y34942734D01*
X6782176Y35075743D01*
X6686421Y35186250D01*
X6686420Y35186251D01*
X6622325Y35227442D01*
X6563411Y35265304D01*
X6528336Y35275603D01*
X6423114Y35306500D01*
X6423111Y35306500D01*
X6276889Y35306500D01*
X6276885Y35306500D01*
X6136589Y35265304D01*
X6136587Y35265303D01*
X6013579Y35186251D01*
X5917824Y35075744D01*
X5857081Y34942735D01*
X5857079Y34942728D01*
X5836271Y34798004D01*
X76700Y34798004D01*
X76700Y36322004D01*
X5836271Y36322004D01*
X5836271Y36321997D01*
X5857079Y36177273D01*
X5857081Y36177266D01*
X5917824Y36044257D01*
X6013579Y35933750D01*
X6136589Y35854696D01*
X6256039Y35819622D01*
X6276885Y35813501D01*
X6276886Y35813501D01*
X6276889Y35813500D01*
X6276892Y35813500D01*
X6423108Y35813500D01*
X6423111Y35813500D01*
X6563411Y35854696D01*
X6686421Y35933750D01*
X6782176Y36044257D01*
X6842919Y36177266D01*
X6848382Y36215259D01*
X6863729Y36321997D01*
X6863729Y36322004D01*
X6842920Y36466728D01*
X6842919Y36466729D01*
X6842919Y36466734D01*
X6782176Y36599743D01*
X6686421Y36710250D01*
X6686420Y36710251D01*
X6624916Y36749777D01*
X6563411Y36789304D01*
X6505675Y36806257D01*
X6423114Y36830500D01*
X6423111Y36830500D01*
X6276889Y36830500D01*
X6276885Y36830500D01*
X6136589Y36789304D01*
X6136587Y36789303D01*
X6013579Y36710251D01*
X5917824Y36599744D01*
X5857081Y36466735D01*
X5857079Y36466728D01*
X5836271Y36322004D01*
X76700Y36322004D01*
X76700Y37846004D01*
X5836271Y37846004D01*
X5836271Y37845997D01*
X5857079Y37701273D01*
X5857081Y37701266D01*
X5917824Y37568257D01*
X6013579Y37457750D01*
X6136589Y37378696D01*
X6256039Y37343622D01*
X6276885Y37337501D01*
X6276886Y37337501D01*
X6276889Y37337500D01*
X6276892Y37337500D01*
X6423108Y37337500D01*
X6423111Y37337500D01*
X6563411Y37378696D01*
X6686421Y37457750D01*
X6782176Y37568257D01*
X6842919Y37701266D01*
X6858206Y37807584D01*
X6863729Y37845997D01*
X6863729Y37846004D01*
X6842920Y37990728D01*
X6842919Y37990729D01*
X6842919Y37990734D01*
X6782176Y38123743D01*
X6686421Y38234250D01*
X6686420Y38234251D01*
X6624916Y38273777D01*
X6563411Y38313304D01*
X6528336Y38323603D01*
X6423114Y38354500D01*
X6423111Y38354500D01*
X6276889Y38354500D01*
X6276885Y38354500D01*
X6136589Y38313304D01*
X6136587Y38313303D01*
X6013579Y38234251D01*
X5917824Y38123744D01*
X5857081Y37990735D01*
X5857079Y37990728D01*
X5836271Y37846004D01*
X76700Y37846004D01*
X76700Y39370004D01*
X6090271Y39370004D01*
X6090271Y39369997D01*
X6111079Y39225273D01*
X6111081Y39225266D01*
X6171824Y39092257D01*
X6267579Y38981750D01*
X6390589Y38902696D01*
X6510039Y38867622D01*
X6530885Y38861501D01*
X6530886Y38861501D01*
X6530889Y38861500D01*
X6530892Y38861500D01*
X6677108Y38861500D01*
X6677111Y38861500D01*
X6817411Y38902696D01*
X6940421Y38981750D01*
X7036176Y39092257D01*
X7096919Y39225266D01*
X7097227Y39227411D01*
X7117729Y39369997D01*
X7117729Y39370004D01*
X7096920Y39514728D01*
X7096919Y39514729D01*
X7096919Y39514734D01*
X7036176Y39647743D01*
X6940421Y39758250D01*
X6940420Y39758251D01*
X6878916Y39797777D01*
X6817411Y39837304D01*
X6782336Y39847603D01*
X6678803Y39878004D01*
X28696271Y39878004D01*
X28696271Y39877997D01*
X28717079Y39733273D01*
X28717081Y39733266D01*
X28777824Y39600257D01*
X28873579Y39489750D01*
X28996589Y39410696D01*
X29136889Y39369500D01*
X29136895Y39369500D01*
X29144529Y39368402D01*
X29209111Y39338913D01*
X29215698Y39332779D01*
X29807595Y38740882D01*
X29841621Y38678570D01*
X29844500Y38651787D01*
X29844500Y36451222D01*
X29824498Y36383101D01*
X29813728Y36368715D01*
X29808515Y36362697D01*
X29793824Y36345743D01*
X29733081Y36212734D01*
X29733079Y36212728D01*
X29712271Y36068004D01*
X29712271Y36067997D01*
X29733079Y35923273D01*
X29733081Y35923266D01*
X29793824Y35790257D01*
X29889579Y35679750D01*
X30012589Y35600696D01*
X30132039Y35565622D01*
X30152885Y35559501D01*
X30152886Y35559501D01*
X30152889Y35559500D01*
X30152892Y35559500D01*
X30299108Y35559500D01*
X30299111Y35559500D01*
X30439411Y35600696D01*
X30562421Y35679750D01*
X30658176Y35790257D01*
X30718919Y35923266D01*
X30724019Y35958735D01*
X30739729Y36067997D01*
X30739729Y36068004D01*
X30718920Y36212728D01*
X30718919Y36212729D01*
X30718919Y36212734D01*
X30658176Y36345743D01*
X30638273Y36368712D01*
X30608782Y36433292D01*
X30607500Y36451222D01*
X30607500Y38912224D01*
X30607500Y38912225D01*
X30581501Y39009254D01*
X30581499Y39009257D01*
X30581499Y39009259D01*
X30531278Y39096244D01*
X30531274Y39096249D01*
X30460247Y39167276D01*
X29749051Y39878472D01*
X29715025Y39940784D01*
X29713432Y39949614D01*
X29702919Y40022734D01*
X29642176Y40155743D01*
X29546421Y40266250D01*
X29546420Y40266251D01*
X29484916Y40305777D01*
X29423411Y40345304D01*
X29388336Y40355603D01*
X29283114Y40386500D01*
X29283111Y40386500D01*
X29136889Y40386500D01*
X29136885Y40386500D01*
X28996589Y40345304D01*
X28996587Y40345303D01*
X28873579Y40266251D01*
X28777824Y40155744D01*
X28717081Y40022735D01*
X28717079Y40022728D01*
X28696271Y39878004D01*
X6678803Y39878004D01*
X6677114Y39878500D01*
X6677111Y39878500D01*
X6530889Y39878500D01*
X6530885Y39878500D01*
X6390589Y39837304D01*
X6390587Y39837303D01*
X6267579Y39758251D01*
X6171824Y39647744D01*
X6111081Y39514735D01*
X6111079Y39514728D01*
X6090271Y39370004D01*
X76700Y39370004D01*
X76700Y41961300D01*
X96702Y42029421D01*
X150358Y42075914D01*
X202700Y42087300D01*
X48565300Y42087300D01*
X48633421Y42067298D01*
G37*
%TD.AperFunction*%
%TD*%
M02*
