%TF.GenerationSoftware,KiCad,Pcbnew,8.0.4*%
%TF.CreationDate,2024-09-05T11:54:57-04:00*%
%TF.ProjectId,ESP32-RC_R0,45535033-322d-4524-935f-52302e6b6963,0*%
%TF.SameCoordinates,Original*%
%TF.FileFunction,Copper,L4,Bot*%
%TF.FilePolarity,Positive*%
%FSLAX46Y46*%
G04 Gerber Fmt 4.6, Leading zero omitted, Abs format (unit mm)*
G04 Created by KiCad (PCBNEW 8.0.4) date 2024-09-05 11:54:57*
%MOMM*%
%LPD*%
G01*
G04 APERTURE LIST*
%TA.AperFunction,ComponentPad*%
%ADD10R,1.370000X1.370000*%
%TD*%
%TA.AperFunction,ComponentPad*%
%ADD11C,1.370000*%
%TD*%
%TA.AperFunction,ViaPad*%
%ADD12C,0.508000*%
%TD*%
G04 APERTURE END LIST*
D10*
%TO.P,J5,01,01*%
%TO.N,/PVBATT*%
X122936000Y-110236000D03*
D11*
%TO.P,J5,02,02*%
%TO.N,GND*%
X122936000Y-112776000D03*
%TD*%
D10*
%TO.P,J1,01,01*%
%TO.N,GND*%
X116840000Y-83566000D03*
D11*
%TO.P,J1,02,02*%
%TO.N,/PVRC*%
X119380000Y-83566000D03*
%TO.P,J1,03,03*%
%TO.N,/RC1*%
X121920000Y-83566000D03*
%TO.P,J1,04,04*%
%TO.N,GND*%
X116840000Y-86106000D03*
%TO.P,J1,05,05*%
%TO.N,/PVRC*%
X119380000Y-86106000D03*
%TO.P,J1,06,06*%
%TO.N,/RC2*%
X121920000Y-86106000D03*
%TO.P,J1,07,07*%
%TO.N,GND*%
X116840000Y-88646000D03*
%TO.P,J1,08,08*%
%TO.N,/PVRC*%
X119380000Y-88646000D03*
%TO.P,J1,09,09*%
%TO.N,/RC3*%
X121920000Y-88646000D03*
%TO.P,J1,10,10*%
%TO.N,GND*%
X116840000Y-91186000D03*
%TO.P,J1,11,11*%
%TO.N,/PVRC*%
X119380000Y-91186000D03*
%TO.P,J1,12,12*%
%TO.N,/RC4*%
X121920000Y-91186000D03*
%TO.P,J1,13,13*%
%TO.N,GND*%
X116840000Y-93726000D03*
%TO.P,J1,14,14*%
%TO.N,/PVRC*%
X119380000Y-93726000D03*
%TO.P,J1,15,15*%
%TO.N,/RC5*%
X121920000Y-93726000D03*
%TO.P,J1,16,16*%
%TO.N,GND*%
X116840000Y-96266000D03*
%TO.P,J1,17,17*%
%TO.N,/PVRC*%
X119380000Y-96266000D03*
%TO.P,J1,18,18*%
%TO.N,/RC6*%
X121920000Y-96266000D03*
%TO.P,J1,19,19*%
%TO.N,GND*%
X116840000Y-98806000D03*
%TO.P,J1,20,20*%
%TO.N,/PVRC*%
X119380000Y-98806000D03*
%TO.P,J1,21,21*%
%TO.N,/RC7*%
X121920000Y-98806000D03*
%TO.P,J1,22,22*%
%TO.N,GND*%
X116840000Y-101346000D03*
%TO.P,J1,23,23*%
%TO.N,/PVRC*%
X119380000Y-101346000D03*
%TO.P,J1,24,24*%
%TO.N,/RC8*%
X121920000Y-101346000D03*
%TD*%
D12*
%TO.N,P3V3*%
X119380000Y-112268000D03*
X135636000Y-103378000D03*
X162814000Y-109728000D03*
X147574000Y-85598000D03*
X121666000Y-75184000D03*
X149098000Y-77724000D03*
X136906000Y-103632000D03*
X157734000Y-77724000D03*
%TO.N,GND*%
X126746000Y-73152000D03*
X116586000Y-73152000D03*
X157226000Y-93472000D03*
X156210000Y-76708000D03*
X136906000Y-83312000D03*
X134112000Y-98806000D03*
X147574000Y-77216000D03*
X121666000Y-108712000D03*
X126746000Y-113792000D03*
X147066000Y-113792000D03*
X152146000Y-98552000D03*
X116586000Y-103632000D03*
X126746000Y-93472000D03*
X157226000Y-83312000D03*
X141986000Y-108712000D03*
X136906000Y-113792000D03*
X162306000Y-78232000D03*
X157226000Y-73152000D03*
X157226000Y-113792000D03*
X131826000Y-108712000D03*
X131826000Y-88392000D03*
X136906000Y-73152000D03*
X136906000Y-93472000D03*
%TO.N,/ESP32/EN*%
X125984000Y-94996000D03*
X121412000Y-76708000D03*
X124206000Y-76200000D03*
X138938000Y-104394000D03*
%TO.N,/ESP32/IO00*%
X125984000Y-104140000D03*
X145542000Y-105664000D03*
%TO.N,PVESC*%
X116078000Y-109474000D03*
X128524000Y-104902000D03*
X123190000Y-79756000D03*
%TO.N,VBUS*%
X139954000Y-98298000D03*
X130302000Y-106426000D03*
%TO.N,/ESP32/USB_DN*%
X131826000Y-106426000D03*
X134620000Y-102362000D03*
%TO.N,/PVRC*%
X117602000Y-105664000D03*
X117602000Y-112268000D03*
%TO.N,/PVBATT*%
X123190000Y-81280000D03*
X122936000Y-104140000D03*
%TO.N,/ESP32/RXD0*%
X129794000Y-97282000D03*
X144018000Y-78740000D03*
%TO.N,/ESP32/TXD0*%
X144018000Y-77470000D03*
X128270000Y-97282000D03*
%TO.N,/VSNS1*%
X124206000Y-77470000D03*
X121412000Y-78232000D03*
%TO.N,/VSNS2*%
X121412000Y-79756000D03*
X124206000Y-78740000D03*
%TO.N,/VSNS3*%
X121412000Y-81280000D03*
X124206000Y-80010000D03*
%TO.N,PVIN*%
X118364000Y-109220000D03*
X146558000Y-107696000D03*
X150622000Y-103632000D03*
%TD*%
%TA.AperFunction,Conductor*%
%TO.N,GND*%
G36*
X163695421Y-72486702D02*
G01*
X163741914Y-72540358D01*
X163753300Y-72592700D01*
X163753300Y-114351300D01*
X163733298Y-114419421D01*
X163679642Y-114465914D01*
X163627300Y-114477300D01*
X115264700Y-114477300D01*
X115196579Y-114457298D01*
X115150086Y-114403642D01*
X115138700Y-114351300D01*
X115138700Y-112267996D01*
X117088271Y-112267996D01*
X117088271Y-112268003D01*
X117109079Y-112412727D01*
X117109081Y-112412734D01*
X117169824Y-112545743D01*
X117265579Y-112656250D01*
X117388589Y-112735304D01*
X117508039Y-112770378D01*
X117528885Y-112776499D01*
X117528886Y-112776499D01*
X117528889Y-112776500D01*
X117528892Y-112776500D01*
X117675108Y-112776500D01*
X117675111Y-112776500D01*
X117815411Y-112735304D01*
X117938421Y-112656250D01*
X118034176Y-112545743D01*
X118094919Y-112412734D01*
X118115729Y-112268000D01*
X118115729Y-112267996D01*
X118866271Y-112267996D01*
X118866271Y-112268003D01*
X118887079Y-112412727D01*
X118887081Y-112412734D01*
X118947824Y-112545743D01*
X119043579Y-112656250D01*
X119166589Y-112735304D01*
X119286039Y-112770378D01*
X119306885Y-112776499D01*
X119306886Y-112776499D01*
X119306889Y-112776500D01*
X119306892Y-112776500D01*
X119453108Y-112776500D01*
X119453111Y-112776500D01*
X119593411Y-112735304D01*
X119716421Y-112656250D01*
X119812176Y-112545743D01*
X119872919Y-112412734D01*
X119893729Y-112268000D01*
X119893729Y-112267996D01*
X119872920Y-112123272D01*
X119872919Y-112123271D01*
X119872919Y-112123266D01*
X119812176Y-111990257D01*
X119716421Y-111879750D01*
X119716420Y-111879749D01*
X119654916Y-111840223D01*
X119593411Y-111800696D01*
X119558336Y-111790397D01*
X119453114Y-111759500D01*
X119453111Y-111759500D01*
X119306889Y-111759500D01*
X119306885Y-111759500D01*
X119166589Y-111800696D01*
X119166587Y-111800697D01*
X119043579Y-111879749D01*
X118947824Y-111990256D01*
X118887081Y-112123265D01*
X118887079Y-112123272D01*
X118866271Y-112267996D01*
X118115729Y-112267996D01*
X118094920Y-112123272D01*
X118094919Y-112123271D01*
X118094919Y-112123266D01*
X118034176Y-111990257D01*
X117938421Y-111879750D01*
X117938420Y-111879749D01*
X117876916Y-111840223D01*
X117815411Y-111800696D01*
X117780336Y-111790397D01*
X117675114Y-111759500D01*
X117675111Y-111759500D01*
X117528889Y-111759500D01*
X117528885Y-111759500D01*
X117388589Y-111800696D01*
X117388587Y-111800697D01*
X117265579Y-111879749D01*
X117169824Y-111990256D01*
X117109081Y-112123265D01*
X117109079Y-112123272D01*
X117088271Y-112267996D01*
X115138700Y-112267996D01*
X115138700Y-109473996D01*
X115564271Y-109473996D01*
X115564271Y-109474003D01*
X115585079Y-109618727D01*
X115585081Y-109618734D01*
X115645824Y-109751743D01*
X115741579Y-109862250D01*
X115864589Y-109941304D01*
X115984039Y-109976378D01*
X116004885Y-109982499D01*
X116004886Y-109982499D01*
X116004889Y-109982500D01*
X116004892Y-109982500D01*
X116151108Y-109982500D01*
X116151111Y-109982500D01*
X116291411Y-109941304D01*
X116414421Y-109862250D01*
X116510176Y-109751743D01*
X116570919Y-109618734D01*
X116584262Y-109525933D01*
X116591729Y-109474003D01*
X116591729Y-109473996D01*
X116570920Y-109329272D01*
X116570919Y-109329271D01*
X116570919Y-109329266D01*
X116521017Y-109219996D01*
X117850271Y-109219996D01*
X117850271Y-109220003D01*
X117871079Y-109364727D01*
X117871081Y-109364734D01*
X117931824Y-109497743D01*
X118027579Y-109608250D01*
X118150589Y-109687304D01*
X118270039Y-109722378D01*
X118290885Y-109728499D01*
X118290886Y-109728499D01*
X118290889Y-109728500D01*
X118290892Y-109728500D01*
X118437108Y-109728500D01*
X118437111Y-109728500D01*
X118577411Y-109687304D01*
X118700421Y-109608250D01*
X118771752Y-109525930D01*
X121996500Y-109525930D01*
X121996500Y-110946063D01*
X121996501Y-110946073D01*
X122011265Y-111020300D01*
X122067516Y-111104484D01*
X122151697Y-111160733D01*
X122151699Y-111160734D01*
X122225933Y-111175500D01*
X123646066Y-111175499D01*
X123646069Y-111175498D01*
X123646073Y-111175498D01*
X123695326Y-111165701D01*
X123720301Y-111160734D01*
X123804484Y-111104484D01*
X123860734Y-111020301D01*
X123875500Y-110946067D01*
X123875499Y-109841104D01*
X127673300Y-109841104D01*
X127673300Y-109986896D01*
X127707961Y-110116250D01*
X127711034Y-110127719D01*
X127711036Y-110127724D01*
X127783927Y-110253976D01*
X127783935Y-110253986D01*
X127887013Y-110357064D01*
X127887018Y-110357068D01*
X127887020Y-110357070D01*
X128013280Y-110429966D01*
X128154104Y-110467700D01*
X128154107Y-110467700D01*
X128299893Y-110467700D01*
X128299896Y-110467700D01*
X128440720Y-110429966D01*
X128566980Y-110357070D01*
X128670070Y-110253980D01*
X128742966Y-110127720D01*
X128780700Y-109986896D01*
X128780700Y-109841104D01*
X131823300Y-109841104D01*
X131823300Y-109986896D01*
X131857961Y-110116250D01*
X131861034Y-110127719D01*
X131861036Y-110127724D01*
X131933927Y-110253976D01*
X131933935Y-110253986D01*
X132037013Y-110357064D01*
X132037018Y-110357068D01*
X132037020Y-110357070D01*
X132163280Y-110429966D01*
X132304104Y-110467700D01*
X132304107Y-110467700D01*
X132449893Y-110467700D01*
X132449896Y-110467700D01*
X132590720Y-110429966D01*
X132716980Y-110357070D01*
X132820070Y-110253980D01*
X132892966Y-110127720D01*
X132930700Y-109986896D01*
X132930700Y-109841104D01*
X132900393Y-109727996D01*
X162300271Y-109727996D01*
X162300271Y-109728003D01*
X162321079Y-109872727D01*
X162321081Y-109872734D01*
X162381824Y-110005743D01*
X162477579Y-110116250D01*
X162600589Y-110195304D01*
X162720039Y-110230378D01*
X162740885Y-110236499D01*
X162740886Y-110236499D01*
X162740889Y-110236500D01*
X162740892Y-110236500D01*
X162887108Y-110236500D01*
X162887111Y-110236500D01*
X163027411Y-110195304D01*
X163150421Y-110116250D01*
X163246176Y-110005743D01*
X163306919Y-109872734D01*
X163311467Y-109841104D01*
X163327729Y-109728003D01*
X163327729Y-109727996D01*
X163306920Y-109583272D01*
X163306919Y-109583271D01*
X163306919Y-109583266D01*
X163246176Y-109450257D01*
X163150421Y-109339750D01*
X163150420Y-109339749D01*
X163083123Y-109296500D01*
X163027411Y-109260696D01*
X162992336Y-109250397D01*
X162887114Y-109219500D01*
X162887111Y-109219500D01*
X162740889Y-109219500D01*
X162740885Y-109219500D01*
X162600589Y-109260696D01*
X162600587Y-109260697D01*
X162477579Y-109339749D01*
X162381824Y-109450256D01*
X162321081Y-109583265D01*
X162321079Y-109583272D01*
X162300271Y-109727996D01*
X132900393Y-109727996D01*
X132892966Y-109700280D01*
X132820070Y-109574020D01*
X132820068Y-109574018D01*
X132820064Y-109574013D01*
X132716986Y-109470935D01*
X132716976Y-109470927D01*
X132590724Y-109398036D01*
X132590722Y-109398035D01*
X132590720Y-109398034D01*
X132449896Y-109360300D01*
X132304104Y-109360300D01*
X132163280Y-109398034D01*
X132163275Y-109398036D01*
X132037023Y-109470927D01*
X132037013Y-109470935D01*
X131933935Y-109574013D01*
X131933927Y-109574023D01*
X131861036Y-109700275D01*
X131861034Y-109700280D01*
X131823300Y-109841104D01*
X128780700Y-109841104D01*
X128742966Y-109700280D01*
X128670070Y-109574020D01*
X128670068Y-109574018D01*
X128670064Y-109574013D01*
X128566986Y-109470935D01*
X128566976Y-109470927D01*
X128440724Y-109398036D01*
X128440722Y-109398035D01*
X128440720Y-109398034D01*
X128299896Y-109360300D01*
X128154104Y-109360300D01*
X128013280Y-109398034D01*
X128013275Y-109398036D01*
X127887023Y-109470927D01*
X127887013Y-109470935D01*
X127783935Y-109574013D01*
X127783927Y-109574023D01*
X127711036Y-109700275D01*
X127711034Y-109700280D01*
X127673300Y-109841104D01*
X123875499Y-109841104D01*
X123875499Y-109525934D01*
X123875498Y-109525930D01*
X123875498Y-109525926D01*
X123860734Y-109451699D01*
X123804483Y-109367515D01*
X123720302Y-109311266D01*
X123646067Y-109296500D01*
X122225936Y-109296500D01*
X122225926Y-109296501D01*
X122151699Y-109311265D01*
X122067515Y-109367516D01*
X122011266Y-109451697D01*
X121996500Y-109525930D01*
X118771752Y-109525930D01*
X118796176Y-109497743D01*
X118856919Y-109364734D01*
X118877729Y-109220000D01*
X118877729Y-109219996D01*
X118856920Y-109075272D01*
X118856919Y-109075271D01*
X118856919Y-109075266D01*
X118796176Y-108942257D01*
X118700421Y-108831750D01*
X118700420Y-108831749D01*
X118638916Y-108792223D01*
X118577411Y-108752696D01*
X118542336Y-108742397D01*
X118437114Y-108711500D01*
X118437111Y-108711500D01*
X118290889Y-108711500D01*
X118290885Y-108711500D01*
X118150589Y-108752696D01*
X118150587Y-108752697D01*
X118027579Y-108831749D01*
X117931824Y-108942256D01*
X117871081Y-109075265D01*
X117871079Y-109075272D01*
X117850271Y-109219996D01*
X116521017Y-109219996D01*
X116510176Y-109196257D01*
X116414421Y-109085750D01*
X116414420Y-109085749D01*
X116352916Y-109046223D01*
X116291411Y-109006696D01*
X116256336Y-108996397D01*
X116151114Y-108965500D01*
X116151111Y-108965500D01*
X116004889Y-108965500D01*
X116004885Y-108965500D01*
X115864589Y-109006696D01*
X115864587Y-109006697D01*
X115741579Y-109085749D01*
X115645824Y-109196256D01*
X115585081Y-109329265D01*
X115585079Y-109329272D01*
X115564271Y-109473996D01*
X115138700Y-109473996D01*
X115138700Y-107695996D01*
X146044271Y-107695996D01*
X146044271Y-107696003D01*
X146065079Y-107840727D01*
X146065081Y-107840734D01*
X146125824Y-107973743D01*
X146221579Y-108084250D01*
X146344589Y-108163304D01*
X146464039Y-108198378D01*
X146484885Y-108204499D01*
X146484886Y-108204499D01*
X146484889Y-108204500D01*
X146484892Y-108204500D01*
X146631108Y-108204500D01*
X146631111Y-108204500D01*
X146771411Y-108163304D01*
X146894421Y-108084250D01*
X146990176Y-107973743D01*
X147050919Y-107840734D01*
X147071729Y-107696000D01*
X147071729Y-107695996D01*
X147050920Y-107551272D01*
X147050919Y-107551271D01*
X147050919Y-107551266D01*
X146990176Y-107418257D01*
X146894421Y-107307750D01*
X146894420Y-107307749D01*
X146832916Y-107268223D01*
X146771411Y-107228696D01*
X146736336Y-107218397D01*
X146631114Y-107187500D01*
X146631111Y-107187500D01*
X146484889Y-107187500D01*
X146484885Y-107187500D01*
X146344589Y-107228696D01*
X146344587Y-107228697D01*
X146221579Y-107307749D01*
X146125824Y-107418256D01*
X146065081Y-107551265D01*
X146065079Y-107551272D01*
X146044271Y-107695996D01*
X115138700Y-107695996D01*
X115138700Y-106425996D01*
X129788271Y-106425996D01*
X129788271Y-106426003D01*
X129809079Y-106570727D01*
X129809081Y-106570734D01*
X129869824Y-106703743D01*
X129965579Y-106814250D01*
X130088589Y-106893304D01*
X130208039Y-106928378D01*
X130228885Y-106934499D01*
X130228886Y-106934499D01*
X130228889Y-106934500D01*
X130228892Y-106934500D01*
X130375108Y-106934500D01*
X130375111Y-106934500D01*
X130515411Y-106893304D01*
X130638421Y-106814250D01*
X130734176Y-106703743D01*
X130794919Y-106570734D01*
X130815729Y-106426000D01*
X130815729Y-106425996D01*
X131312271Y-106425996D01*
X131312271Y-106426003D01*
X131333079Y-106570727D01*
X131333081Y-106570734D01*
X131393824Y-106703743D01*
X131489579Y-106814250D01*
X131612589Y-106893304D01*
X131732039Y-106928378D01*
X131752885Y-106934499D01*
X131752886Y-106934499D01*
X131752889Y-106934500D01*
X131752892Y-106934500D01*
X131899108Y-106934500D01*
X131899111Y-106934500D01*
X132039411Y-106893304D01*
X132162421Y-106814250D01*
X132258176Y-106703743D01*
X132318919Y-106570734D01*
X132339729Y-106426000D01*
X132339729Y-106425996D01*
X132318920Y-106281272D01*
X132318919Y-106281271D01*
X132318919Y-106281266D01*
X132258176Y-106148257D01*
X132162421Y-106037750D01*
X132162420Y-106037749D01*
X132100916Y-105998223D01*
X132039411Y-105958696D01*
X131981675Y-105941743D01*
X131899114Y-105917500D01*
X131899111Y-105917500D01*
X131752889Y-105917500D01*
X131752885Y-105917500D01*
X131612589Y-105958696D01*
X131612587Y-105958697D01*
X131489579Y-106037749D01*
X131393824Y-106148256D01*
X131333081Y-106281265D01*
X131333079Y-106281272D01*
X131312271Y-106425996D01*
X130815729Y-106425996D01*
X130794920Y-106281272D01*
X130794919Y-106281271D01*
X130794919Y-106281266D01*
X130734176Y-106148257D01*
X130638421Y-106037750D01*
X130638420Y-106037749D01*
X130576916Y-105998223D01*
X130515411Y-105958696D01*
X130457675Y-105941743D01*
X130375114Y-105917500D01*
X130375111Y-105917500D01*
X130228889Y-105917500D01*
X130228885Y-105917500D01*
X130088589Y-105958696D01*
X130088587Y-105958697D01*
X129965579Y-106037749D01*
X129869824Y-106148256D01*
X129809081Y-106281265D01*
X129809079Y-106281272D01*
X129788271Y-106425996D01*
X115138700Y-106425996D01*
X115138700Y-105663996D01*
X117088271Y-105663996D01*
X117088271Y-105664003D01*
X117109079Y-105808727D01*
X117109081Y-105808734D01*
X117169824Y-105941743D01*
X117265579Y-106052250D01*
X117388589Y-106131304D01*
X117508039Y-106166378D01*
X117528885Y-106172499D01*
X117528886Y-106172499D01*
X117528889Y-106172500D01*
X117528892Y-106172500D01*
X117675108Y-106172500D01*
X117675111Y-106172500D01*
X117815411Y-106131304D01*
X117938421Y-106052250D01*
X118034176Y-105941743D01*
X118094919Y-105808734D01*
X118115729Y-105664000D01*
X118115729Y-105663996D01*
X145028271Y-105663996D01*
X145028271Y-105664003D01*
X145049079Y-105808727D01*
X145049081Y-105808734D01*
X145109824Y-105941743D01*
X145205579Y-106052250D01*
X145328589Y-106131304D01*
X145448039Y-106166378D01*
X145468885Y-106172499D01*
X145468886Y-106172499D01*
X145468889Y-106172500D01*
X145468892Y-106172500D01*
X145615108Y-106172500D01*
X145615111Y-106172500D01*
X145755411Y-106131304D01*
X145878421Y-106052250D01*
X145974176Y-105941743D01*
X146034919Y-105808734D01*
X146055729Y-105664000D01*
X146055729Y-105663996D01*
X146034920Y-105519272D01*
X146034919Y-105519271D01*
X146034919Y-105519266D01*
X145974176Y-105386257D01*
X145878421Y-105275750D01*
X145878420Y-105275749D01*
X145816916Y-105236223D01*
X145755411Y-105196696D01*
X145697675Y-105179743D01*
X145615114Y-105155500D01*
X145615111Y-105155500D01*
X145468889Y-105155500D01*
X145468885Y-105155500D01*
X145328589Y-105196696D01*
X145328587Y-105196697D01*
X145205579Y-105275749D01*
X145109824Y-105386256D01*
X145049081Y-105519265D01*
X145049079Y-105519272D01*
X145028271Y-105663996D01*
X118115729Y-105663996D01*
X118094920Y-105519272D01*
X118094919Y-105519271D01*
X118094919Y-105519266D01*
X118034176Y-105386257D01*
X117938421Y-105275750D01*
X117938420Y-105275749D01*
X117876916Y-105236223D01*
X117815411Y-105196696D01*
X117757675Y-105179743D01*
X117675114Y-105155500D01*
X117675111Y-105155500D01*
X117528889Y-105155500D01*
X117528885Y-105155500D01*
X117388589Y-105196696D01*
X117388587Y-105196697D01*
X117265579Y-105275749D01*
X117169824Y-105386256D01*
X117109081Y-105519265D01*
X117109079Y-105519272D01*
X117088271Y-105663996D01*
X115138700Y-105663996D01*
X115138700Y-104901996D01*
X128010271Y-104901996D01*
X128010271Y-104902003D01*
X128031079Y-105046727D01*
X128031081Y-105046734D01*
X128091824Y-105179743D01*
X128187579Y-105290250D01*
X128310589Y-105369304D01*
X128430039Y-105404378D01*
X128450885Y-105410499D01*
X128450886Y-105410499D01*
X128450889Y-105410500D01*
X128450892Y-105410500D01*
X128597108Y-105410500D01*
X128597111Y-105410500D01*
X128737411Y-105369304D01*
X128860421Y-105290250D01*
X128956176Y-105179743D01*
X129016919Y-105046734D01*
X129017227Y-105044589D01*
X129037729Y-104902003D01*
X129037729Y-104901996D01*
X129016920Y-104757272D01*
X129016919Y-104757271D01*
X129016919Y-104757266D01*
X128956176Y-104624257D01*
X128860421Y-104513750D01*
X128860420Y-104513749D01*
X128798916Y-104474223D01*
X128737411Y-104434696D01*
X128679675Y-104417743D01*
X128598803Y-104393996D01*
X138424271Y-104393996D01*
X138424271Y-104394003D01*
X138445079Y-104538727D01*
X138445081Y-104538734D01*
X138505824Y-104671743D01*
X138601579Y-104782250D01*
X138724589Y-104861304D01*
X138844039Y-104896378D01*
X138864885Y-104902499D01*
X138864886Y-104902499D01*
X138864889Y-104902500D01*
X138864892Y-104902500D01*
X139011108Y-104902500D01*
X139011111Y-104902500D01*
X139151411Y-104861304D01*
X139274421Y-104782250D01*
X139370176Y-104671743D01*
X139430919Y-104538734D01*
X139445878Y-104434696D01*
X139451729Y-104394003D01*
X139451729Y-104393996D01*
X139430920Y-104249272D01*
X139430919Y-104249271D01*
X139430919Y-104249266D01*
X139370176Y-104116257D01*
X139274421Y-104005750D01*
X139274420Y-104005749D01*
X139212916Y-103966223D01*
X139151411Y-103926696D01*
X139093675Y-103909743D01*
X139011114Y-103885500D01*
X139011111Y-103885500D01*
X138864889Y-103885500D01*
X138864885Y-103885500D01*
X138724589Y-103926696D01*
X138724587Y-103926697D01*
X138601579Y-104005749D01*
X138505824Y-104116256D01*
X138445081Y-104249265D01*
X138445079Y-104249272D01*
X138424271Y-104393996D01*
X128598803Y-104393996D01*
X128597114Y-104393500D01*
X128597111Y-104393500D01*
X128450889Y-104393500D01*
X128450885Y-104393500D01*
X128310589Y-104434696D01*
X128310587Y-104434697D01*
X128187579Y-104513749D01*
X128091824Y-104624256D01*
X128031081Y-104757265D01*
X128031079Y-104757272D01*
X128010271Y-104901996D01*
X115138700Y-104901996D01*
X115138700Y-104139996D01*
X122422271Y-104139996D01*
X122422271Y-104140003D01*
X122443079Y-104284727D01*
X122443081Y-104284734D01*
X122503824Y-104417743D01*
X122599579Y-104528250D01*
X122722589Y-104607304D01*
X122842039Y-104642378D01*
X122862885Y-104648499D01*
X122862886Y-104648499D01*
X122862889Y-104648500D01*
X122862892Y-104648500D01*
X123009108Y-104648500D01*
X123009111Y-104648500D01*
X123149411Y-104607304D01*
X123272421Y-104528250D01*
X123368176Y-104417743D01*
X123428919Y-104284734D01*
X123434019Y-104249265D01*
X123449729Y-104140003D01*
X123449729Y-104139996D01*
X125470271Y-104139996D01*
X125470271Y-104140003D01*
X125491079Y-104284727D01*
X125491081Y-104284734D01*
X125551824Y-104417743D01*
X125647579Y-104528250D01*
X125770589Y-104607304D01*
X125890039Y-104642378D01*
X125910885Y-104648499D01*
X125910886Y-104648499D01*
X125910889Y-104648500D01*
X125910892Y-104648500D01*
X126057108Y-104648500D01*
X126057111Y-104648500D01*
X126197411Y-104607304D01*
X126320421Y-104528250D01*
X126416176Y-104417743D01*
X126476919Y-104284734D01*
X126482019Y-104249265D01*
X126497729Y-104140003D01*
X126497729Y-104139996D01*
X126476920Y-103995272D01*
X126476919Y-103995271D01*
X126476919Y-103995266D01*
X126416176Y-103862257D01*
X126320421Y-103751750D01*
X126320420Y-103751749D01*
X126258916Y-103712223D01*
X126197411Y-103672696D01*
X126139675Y-103655743D01*
X126057114Y-103631500D01*
X126057111Y-103631500D01*
X125910889Y-103631500D01*
X125910885Y-103631500D01*
X125770589Y-103672696D01*
X125770587Y-103672697D01*
X125647579Y-103751749D01*
X125551824Y-103862256D01*
X125491081Y-103995265D01*
X125491079Y-103995272D01*
X125470271Y-104139996D01*
X123449729Y-104139996D01*
X123428920Y-103995272D01*
X123428919Y-103995271D01*
X123428919Y-103995266D01*
X123368176Y-103862257D01*
X123272421Y-103751750D01*
X123272420Y-103751749D01*
X123210916Y-103712223D01*
X123149411Y-103672696D01*
X123091675Y-103655743D01*
X123009114Y-103631500D01*
X123009111Y-103631500D01*
X122862889Y-103631500D01*
X122862885Y-103631500D01*
X122722589Y-103672696D01*
X122722587Y-103672697D01*
X122599579Y-103751749D01*
X122503824Y-103862256D01*
X122443081Y-103995265D01*
X122443079Y-103995272D01*
X122422271Y-104139996D01*
X115138700Y-104139996D01*
X115138700Y-103377996D01*
X135122271Y-103377996D01*
X135122271Y-103378003D01*
X135143079Y-103522727D01*
X135143081Y-103522734D01*
X135203824Y-103655743D01*
X135299579Y-103766250D01*
X135422589Y-103845304D01*
X135542039Y-103880378D01*
X135562885Y-103886499D01*
X135562886Y-103886499D01*
X135562889Y-103886500D01*
X135562892Y-103886500D01*
X135709108Y-103886500D01*
X135709111Y-103886500D01*
X135849411Y-103845304D01*
X135972421Y-103766250D01*
X136068176Y-103655743D01*
X136079021Y-103631996D01*
X136392271Y-103631996D01*
X136392271Y-103632003D01*
X136413079Y-103776727D01*
X136413081Y-103776734D01*
X136473824Y-103909743D01*
X136569579Y-104020250D01*
X136692589Y-104099304D01*
X136812039Y-104134378D01*
X136832885Y-104140499D01*
X136832886Y-104140499D01*
X136832889Y-104140500D01*
X136832892Y-104140500D01*
X136979108Y-104140500D01*
X136979111Y-104140500D01*
X137119411Y-104099304D01*
X137242421Y-104020250D01*
X137338176Y-103909743D01*
X137398919Y-103776734D01*
X137413878Y-103672696D01*
X137419729Y-103632003D01*
X137419729Y-103631996D01*
X150108271Y-103631996D01*
X150108271Y-103632003D01*
X150129079Y-103776727D01*
X150129081Y-103776734D01*
X150189824Y-103909743D01*
X150285579Y-104020250D01*
X150408589Y-104099304D01*
X150528039Y-104134378D01*
X150548885Y-104140499D01*
X150548886Y-104140499D01*
X150548889Y-104140500D01*
X150548892Y-104140500D01*
X150695108Y-104140500D01*
X150695111Y-104140500D01*
X150835411Y-104099304D01*
X150958421Y-104020250D01*
X151054176Y-103909743D01*
X151114919Y-103776734D01*
X151129878Y-103672696D01*
X151135729Y-103632003D01*
X151135729Y-103631996D01*
X151114920Y-103487272D01*
X151114919Y-103487271D01*
X151114919Y-103487266D01*
X151054176Y-103354257D01*
X150958421Y-103243750D01*
X150958420Y-103243749D01*
X150896916Y-103204223D01*
X150835411Y-103164696D01*
X150800336Y-103154397D01*
X150695114Y-103123500D01*
X150695111Y-103123500D01*
X150548889Y-103123500D01*
X150548885Y-103123500D01*
X150408589Y-103164696D01*
X150408587Y-103164697D01*
X150285579Y-103243749D01*
X150189824Y-103354256D01*
X150129081Y-103487265D01*
X150129079Y-103487272D01*
X150108271Y-103631996D01*
X137419729Y-103631996D01*
X137398920Y-103487272D01*
X137398919Y-103487271D01*
X137398919Y-103487266D01*
X137338176Y-103354257D01*
X137242421Y-103243750D01*
X137242420Y-103243749D01*
X137180916Y-103204223D01*
X137119411Y-103164696D01*
X137084336Y-103154397D01*
X136979114Y-103123500D01*
X136979111Y-103123500D01*
X136832889Y-103123500D01*
X136832885Y-103123500D01*
X136692589Y-103164696D01*
X136692587Y-103164697D01*
X136569579Y-103243749D01*
X136473824Y-103354256D01*
X136413081Y-103487265D01*
X136413079Y-103487272D01*
X136392271Y-103631996D01*
X136079021Y-103631996D01*
X136128919Y-103522734D01*
X136149729Y-103378000D01*
X136149729Y-103377996D01*
X136128920Y-103233272D01*
X136128919Y-103233271D01*
X136128919Y-103233266D01*
X136068176Y-103100257D01*
X135972421Y-102989750D01*
X135972420Y-102989749D01*
X135910916Y-102950223D01*
X135849411Y-102910696D01*
X135814336Y-102900397D01*
X135709114Y-102869500D01*
X135709111Y-102869500D01*
X135562889Y-102869500D01*
X135562885Y-102869500D01*
X135422589Y-102910696D01*
X135422587Y-102910697D01*
X135299579Y-102989749D01*
X135203824Y-103100256D01*
X135143081Y-103233265D01*
X135143079Y-103233272D01*
X135122271Y-103377996D01*
X115138700Y-103377996D01*
X115138700Y-102361996D01*
X134106271Y-102361996D01*
X134106271Y-102362003D01*
X134127079Y-102506727D01*
X134127081Y-102506734D01*
X134187824Y-102639743D01*
X134283579Y-102750250D01*
X134406589Y-102829304D01*
X134526039Y-102864378D01*
X134546885Y-102870499D01*
X134546886Y-102870499D01*
X134546889Y-102870500D01*
X134546892Y-102870500D01*
X134693108Y-102870500D01*
X134693111Y-102870500D01*
X134833411Y-102829304D01*
X134956421Y-102750250D01*
X135052176Y-102639743D01*
X135112919Y-102506734D01*
X135133729Y-102362000D01*
X135133729Y-102361996D01*
X135112920Y-102217272D01*
X135112919Y-102217271D01*
X135112919Y-102217266D01*
X135052176Y-102084257D01*
X134956421Y-101973750D01*
X134956420Y-101973749D01*
X134843634Y-101901266D01*
X134833411Y-101894696D01*
X134798336Y-101884397D01*
X134693114Y-101853500D01*
X134693111Y-101853500D01*
X134546889Y-101853500D01*
X134546885Y-101853500D01*
X134406589Y-101894696D01*
X134406587Y-101894697D01*
X134283579Y-101973749D01*
X134187824Y-102084256D01*
X134127081Y-102217265D01*
X134127079Y-102217272D01*
X134106271Y-102361996D01*
X115138700Y-102361996D01*
X115138700Y-101346000D01*
X118435325Y-101346000D01*
X118455967Y-101542409D01*
X118516994Y-101730232D01*
X118562228Y-101808579D01*
X118615742Y-101901266D01*
X118615744Y-101901269D01*
X118615747Y-101901273D01*
X118747885Y-102048027D01*
X118747888Y-102048029D01*
X118747889Y-102048030D01*
X118907662Y-102164113D01*
X119088079Y-102244439D01*
X119281255Y-102285500D01*
X119478745Y-102285500D01*
X119671921Y-102244439D01*
X119852338Y-102164113D01*
X120012111Y-102048030D01*
X120144258Y-101901266D01*
X120243004Y-101730234D01*
X120304032Y-101542409D01*
X120324675Y-101346000D01*
X120975325Y-101346000D01*
X120995967Y-101542409D01*
X121056994Y-101730232D01*
X121102228Y-101808579D01*
X121155742Y-101901266D01*
X121155744Y-101901269D01*
X121155747Y-101901273D01*
X121287885Y-102048027D01*
X121287888Y-102048029D01*
X121287889Y-102048030D01*
X121447662Y-102164113D01*
X121628079Y-102244439D01*
X121821255Y-102285500D01*
X122018745Y-102285500D01*
X122211921Y-102244439D01*
X122392338Y-102164113D01*
X122552111Y-102048030D01*
X122684258Y-101901266D01*
X122783004Y-101730234D01*
X122844032Y-101542409D01*
X122864675Y-101346000D01*
X122844032Y-101149591D01*
X122844032Y-101149590D01*
X122783005Y-100961767D01*
X122760387Y-100922593D01*
X122684258Y-100790734D01*
X122684254Y-100790729D01*
X122684252Y-100790726D01*
X122552114Y-100643972D01*
X122392338Y-100527887D01*
X122211921Y-100447561D01*
X122018745Y-100406500D01*
X121821255Y-100406500D01*
X121628078Y-100447561D01*
X121447662Y-100527887D01*
X121287886Y-100643971D01*
X121155747Y-100790726D01*
X121155743Y-100790733D01*
X121056994Y-100961767D01*
X120995967Y-101149590D01*
X120975325Y-101346000D01*
X120324675Y-101346000D01*
X120304032Y-101149591D01*
X120304032Y-101149590D01*
X120243005Y-100961767D01*
X120220387Y-100922593D01*
X120144258Y-100790734D01*
X120144254Y-100790729D01*
X120144252Y-100790726D01*
X120012114Y-100643972D01*
X119852338Y-100527887D01*
X119671921Y-100447561D01*
X119478745Y-100406500D01*
X119281255Y-100406500D01*
X119088078Y-100447561D01*
X118907662Y-100527887D01*
X118747886Y-100643971D01*
X118615747Y-100790726D01*
X118615743Y-100790733D01*
X118516994Y-100961767D01*
X118455967Y-101149590D01*
X118435325Y-101346000D01*
X115138700Y-101346000D01*
X115138700Y-98806000D01*
X118435325Y-98806000D01*
X118455967Y-99002409D01*
X118516994Y-99190232D01*
X118562228Y-99268579D01*
X118615742Y-99361266D01*
X118615744Y-99361269D01*
X118615747Y-99361273D01*
X118747885Y-99508027D01*
X118747888Y-99508029D01*
X118747889Y-99508030D01*
X118907662Y-99624113D01*
X119088079Y-99704439D01*
X119281255Y-99745500D01*
X119478745Y-99745500D01*
X119671921Y-99704439D01*
X119852338Y-99624113D01*
X120012111Y-99508030D01*
X120144258Y-99361266D01*
X120243004Y-99190234D01*
X120304032Y-99002409D01*
X120324675Y-98806000D01*
X120975325Y-98806000D01*
X120995967Y-99002409D01*
X121056994Y-99190232D01*
X121102228Y-99268579D01*
X121155742Y-99361266D01*
X121155744Y-99361269D01*
X121155747Y-99361273D01*
X121287885Y-99508027D01*
X121287888Y-99508029D01*
X121287889Y-99508030D01*
X121447662Y-99624113D01*
X121628079Y-99704439D01*
X121821255Y-99745500D01*
X122018745Y-99745500D01*
X122211921Y-99704439D01*
X122392338Y-99624113D01*
X122552111Y-99508030D01*
X122684258Y-99361266D01*
X122783004Y-99190234D01*
X122844032Y-99002409D01*
X122864675Y-98806000D01*
X122844032Y-98609591D01*
X122844032Y-98609590D01*
X122783005Y-98421767D01*
X122760387Y-98382593D01*
X122711545Y-98297996D01*
X139440271Y-98297996D01*
X139440271Y-98298003D01*
X139461079Y-98442727D01*
X139461081Y-98442734D01*
X139521824Y-98575743D01*
X139617579Y-98686250D01*
X139740589Y-98765304D01*
X139860039Y-98800378D01*
X139880885Y-98806499D01*
X139880886Y-98806499D01*
X139880889Y-98806500D01*
X139880892Y-98806500D01*
X140027108Y-98806500D01*
X140027111Y-98806500D01*
X140167411Y-98765304D01*
X140290421Y-98686250D01*
X140386176Y-98575743D01*
X140446919Y-98442734D01*
X140467729Y-98298000D01*
X140467729Y-98297996D01*
X140446920Y-98153272D01*
X140446919Y-98153271D01*
X140446919Y-98153266D01*
X140386176Y-98020257D01*
X140290421Y-97909750D01*
X140290420Y-97909749D01*
X140223123Y-97866500D01*
X140167411Y-97830696D01*
X140132336Y-97820397D01*
X140027114Y-97789500D01*
X140027111Y-97789500D01*
X139880889Y-97789500D01*
X139880885Y-97789500D01*
X139740589Y-97830696D01*
X139740587Y-97830697D01*
X139617579Y-97909749D01*
X139521824Y-98020256D01*
X139461081Y-98153265D01*
X139461079Y-98153272D01*
X139440271Y-98297996D01*
X122711545Y-98297996D01*
X122684258Y-98250734D01*
X122684254Y-98250729D01*
X122684252Y-98250726D01*
X122552114Y-98103972D01*
X122392338Y-97987887D01*
X122211921Y-97907561D01*
X122018745Y-97866500D01*
X121821255Y-97866500D01*
X121628078Y-97907561D01*
X121447662Y-97987887D01*
X121287886Y-98103971D01*
X121155747Y-98250726D01*
X121155743Y-98250733D01*
X121056994Y-98421767D01*
X120995967Y-98609590D01*
X120975325Y-98806000D01*
X120324675Y-98806000D01*
X120304032Y-98609591D01*
X120304032Y-98609590D01*
X120243005Y-98421767D01*
X120220387Y-98382593D01*
X120144258Y-98250734D01*
X120144254Y-98250729D01*
X120144252Y-98250726D01*
X120012114Y-98103972D01*
X119852338Y-97987887D01*
X119671921Y-97907561D01*
X119478745Y-97866500D01*
X119281255Y-97866500D01*
X119088078Y-97907561D01*
X118907662Y-97987887D01*
X118747886Y-98103971D01*
X118615747Y-98250726D01*
X118615743Y-98250733D01*
X118516994Y-98421767D01*
X118455967Y-98609590D01*
X118435325Y-98806000D01*
X115138700Y-98806000D01*
X115138700Y-97281996D01*
X127756271Y-97281996D01*
X127756271Y-97282003D01*
X127777079Y-97426727D01*
X127777081Y-97426734D01*
X127837824Y-97559743D01*
X127933579Y-97670250D01*
X128056589Y-97749304D01*
X128176039Y-97784378D01*
X128196885Y-97790499D01*
X128196886Y-97790499D01*
X128196889Y-97790500D01*
X128196892Y-97790500D01*
X128343108Y-97790500D01*
X128343111Y-97790500D01*
X128483411Y-97749304D01*
X128606421Y-97670250D01*
X128702176Y-97559743D01*
X128762919Y-97426734D01*
X128783729Y-97282000D01*
X128783729Y-97281996D01*
X129280271Y-97281996D01*
X129280271Y-97282003D01*
X129301079Y-97426727D01*
X129301081Y-97426734D01*
X129361824Y-97559743D01*
X129457579Y-97670250D01*
X129580589Y-97749304D01*
X129700039Y-97784378D01*
X129720885Y-97790499D01*
X129720886Y-97790499D01*
X129720889Y-97790500D01*
X129720892Y-97790500D01*
X129867108Y-97790500D01*
X129867111Y-97790500D01*
X130007411Y-97749304D01*
X130130421Y-97670250D01*
X130226176Y-97559743D01*
X130286919Y-97426734D01*
X130307729Y-97282000D01*
X130307729Y-97281996D01*
X130286920Y-97137272D01*
X130286919Y-97137271D01*
X130286919Y-97137266D01*
X130226176Y-97004257D01*
X130130421Y-96893750D01*
X130130420Y-96893749D01*
X130017634Y-96821266D01*
X130007411Y-96814696D01*
X129972336Y-96804397D01*
X129867114Y-96773500D01*
X129867111Y-96773500D01*
X129720889Y-96773500D01*
X129720885Y-96773500D01*
X129580589Y-96814696D01*
X129580587Y-96814697D01*
X129457579Y-96893749D01*
X129361824Y-97004256D01*
X129301081Y-97137265D01*
X129301079Y-97137272D01*
X129280271Y-97281996D01*
X128783729Y-97281996D01*
X128762920Y-97137272D01*
X128762919Y-97137271D01*
X128762919Y-97137266D01*
X128702176Y-97004257D01*
X128606421Y-96893750D01*
X128606420Y-96893749D01*
X128493634Y-96821266D01*
X128483411Y-96814696D01*
X128448336Y-96804397D01*
X128343114Y-96773500D01*
X128343111Y-96773500D01*
X128196889Y-96773500D01*
X128196885Y-96773500D01*
X128056589Y-96814696D01*
X128056587Y-96814697D01*
X127933579Y-96893749D01*
X127837824Y-97004256D01*
X127777081Y-97137265D01*
X127777079Y-97137272D01*
X127756271Y-97281996D01*
X115138700Y-97281996D01*
X115138700Y-96266000D01*
X118435325Y-96266000D01*
X118455967Y-96462409D01*
X118516994Y-96650232D01*
X118562228Y-96728579D01*
X118615742Y-96821266D01*
X118615744Y-96821269D01*
X118615747Y-96821273D01*
X118747885Y-96968027D01*
X118747888Y-96968029D01*
X118747889Y-96968030D01*
X118907662Y-97084113D01*
X119088079Y-97164439D01*
X119281255Y-97205500D01*
X119478745Y-97205500D01*
X119671921Y-97164439D01*
X119852338Y-97084113D01*
X120012111Y-96968030D01*
X120144258Y-96821266D01*
X120243004Y-96650234D01*
X120304032Y-96462409D01*
X120324675Y-96266000D01*
X120975325Y-96266000D01*
X120995967Y-96462409D01*
X121056994Y-96650232D01*
X121102228Y-96728579D01*
X121155742Y-96821266D01*
X121155744Y-96821269D01*
X121155747Y-96821273D01*
X121287885Y-96968027D01*
X121287888Y-96968029D01*
X121287889Y-96968030D01*
X121447662Y-97084113D01*
X121628079Y-97164439D01*
X121821255Y-97205500D01*
X122018745Y-97205500D01*
X122211921Y-97164439D01*
X122392338Y-97084113D01*
X122552111Y-96968030D01*
X122684258Y-96821266D01*
X122783004Y-96650234D01*
X122844032Y-96462409D01*
X122864675Y-96266000D01*
X122844032Y-96069591D01*
X122844032Y-96069590D01*
X122783005Y-95881767D01*
X122760387Y-95842593D01*
X122684258Y-95710734D01*
X122684254Y-95710729D01*
X122684252Y-95710726D01*
X122552114Y-95563972D01*
X122392338Y-95447887D01*
X122211921Y-95367561D01*
X122018745Y-95326500D01*
X121821255Y-95326500D01*
X121628078Y-95367561D01*
X121447662Y-95447887D01*
X121287886Y-95563971D01*
X121155747Y-95710726D01*
X121155743Y-95710733D01*
X121056994Y-95881767D01*
X120995967Y-96069590D01*
X120975325Y-96266000D01*
X120324675Y-96266000D01*
X120304032Y-96069591D01*
X120304032Y-96069590D01*
X120243005Y-95881767D01*
X120220387Y-95842593D01*
X120144258Y-95710734D01*
X120144254Y-95710729D01*
X120144252Y-95710726D01*
X120012114Y-95563972D01*
X119852338Y-95447887D01*
X119671921Y-95367561D01*
X119478745Y-95326500D01*
X119281255Y-95326500D01*
X119088078Y-95367561D01*
X118907662Y-95447887D01*
X118747886Y-95563971D01*
X118615747Y-95710726D01*
X118615743Y-95710733D01*
X118516994Y-95881767D01*
X118455967Y-96069590D01*
X118435325Y-96266000D01*
X115138700Y-96266000D01*
X115138700Y-94995996D01*
X125470271Y-94995996D01*
X125470271Y-94996003D01*
X125491079Y-95140727D01*
X125491081Y-95140734D01*
X125551824Y-95273743D01*
X125647579Y-95384250D01*
X125770589Y-95463304D01*
X125890039Y-95498378D01*
X125910885Y-95504499D01*
X125910886Y-95504499D01*
X125910889Y-95504500D01*
X125910892Y-95504500D01*
X126057108Y-95504500D01*
X126057111Y-95504500D01*
X126197411Y-95463304D01*
X126320421Y-95384250D01*
X126416176Y-95273743D01*
X126476919Y-95140734D01*
X126497729Y-94996000D01*
X126497729Y-94995996D01*
X126476920Y-94851272D01*
X126476919Y-94851271D01*
X126476919Y-94851266D01*
X126416176Y-94718257D01*
X126320421Y-94607750D01*
X126320420Y-94607749D01*
X126221400Y-94544113D01*
X126197411Y-94528696D01*
X126162336Y-94518397D01*
X126057114Y-94487500D01*
X126057111Y-94487500D01*
X125910889Y-94487500D01*
X125910885Y-94487500D01*
X125770589Y-94528696D01*
X125770587Y-94528697D01*
X125647579Y-94607749D01*
X125551824Y-94718256D01*
X125491081Y-94851265D01*
X125491079Y-94851272D01*
X125470271Y-94995996D01*
X115138700Y-94995996D01*
X115138700Y-93726000D01*
X118435325Y-93726000D01*
X118455967Y-93922409D01*
X118516994Y-94110232D01*
X118562228Y-94188579D01*
X118615742Y-94281266D01*
X118615744Y-94281269D01*
X118615747Y-94281273D01*
X118747885Y-94428027D01*
X118747888Y-94428029D01*
X118747889Y-94428030D01*
X118907662Y-94544113D01*
X119088079Y-94624439D01*
X119281255Y-94665500D01*
X119478745Y-94665500D01*
X119671921Y-94624439D01*
X119852338Y-94544113D01*
X120012111Y-94428030D01*
X120144258Y-94281266D01*
X120243004Y-94110234D01*
X120304032Y-93922409D01*
X120324675Y-93726000D01*
X120975325Y-93726000D01*
X120995967Y-93922409D01*
X121056994Y-94110232D01*
X121102228Y-94188579D01*
X121155742Y-94281266D01*
X121155744Y-94281269D01*
X121155747Y-94281273D01*
X121287885Y-94428027D01*
X121287888Y-94428029D01*
X121287889Y-94428030D01*
X121447662Y-94544113D01*
X121628079Y-94624439D01*
X121821255Y-94665500D01*
X122018745Y-94665500D01*
X122211921Y-94624439D01*
X122392338Y-94544113D01*
X122552111Y-94428030D01*
X122684258Y-94281266D01*
X122783004Y-94110234D01*
X122844032Y-93922409D01*
X122864675Y-93726000D01*
X122844032Y-93529591D01*
X122844032Y-93529590D01*
X122783005Y-93341767D01*
X122760387Y-93302593D01*
X122684258Y-93170734D01*
X122684254Y-93170729D01*
X122684252Y-93170726D01*
X122552114Y-93023972D01*
X122392338Y-92907887D01*
X122211921Y-92827561D01*
X122018745Y-92786500D01*
X121821255Y-92786500D01*
X121628078Y-92827561D01*
X121447662Y-92907887D01*
X121287886Y-93023971D01*
X121155747Y-93170726D01*
X121155743Y-93170733D01*
X121056994Y-93341767D01*
X120995967Y-93529590D01*
X120975325Y-93726000D01*
X120324675Y-93726000D01*
X120304032Y-93529591D01*
X120304032Y-93529590D01*
X120243005Y-93341767D01*
X120220387Y-93302593D01*
X120144258Y-93170734D01*
X120144254Y-93170729D01*
X120144252Y-93170726D01*
X120012114Y-93023972D01*
X119852338Y-92907887D01*
X119671921Y-92827561D01*
X119478745Y-92786500D01*
X119281255Y-92786500D01*
X119088078Y-92827561D01*
X118907662Y-92907887D01*
X118747886Y-93023971D01*
X118615747Y-93170726D01*
X118615743Y-93170733D01*
X118516994Y-93341767D01*
X118455967Y-93529590D01*
X118435325Y-93726000D01*
X115138700Y-93726000D01*
X115138700Y-91186000D01*
X118435325Y-91186000D01*
X118455967Y-91382409D01*
X118516994Y-91570232D01*
X118562228Y-91648579D01*
X118615742Y-91741266D01*
X118615744Y-91741269D01*
X118615747Y-91741273D01*
X118747885Y-91888027D01*
X118747888Y-91888029D01*
X118747889Y-91888030D01*
X118907662Y-92004113D01*
X119088079Y-92084439D01*
X119281255Y-92125500D01*
X119478745Y-92125500D01*
X119671921Y-92084439D01*
X119852338Y-92004113D01*
X120012111Y-91888030D01*
X120144258Y-91741266D01*
X120243004Y-91570234D01*
X120304032Y-91382409D01*
X120324675Y-91186000D01*
X120975325Y-91186000D01*
X120995967Y-91382409D01*
X121056994Y-91570232D01*
X121102228Y-91648579D01*
X121155742Y-91741266D01*
X121155744Y-91741269D01*
X121155747Y-91741273D01*
X121287885Y-91888027D01*
X121287888Y-91888029D01*
X121287889Y-91888030D01*
X121447662Y-92004113D01*
X121628079Y-92084439D01*
X121821255Y-92125500D01*
X122018745Y-92125500D01*
X122211921Y-92084439D01*
X122392338Y-92004113D01*
X122552111Y-91888030D01*
X122684258Y-91741266D01*
X122783004Y-91570234D01*
X122844032Y-91382409D01*
X122864675Y-91186000D01*
X122844032Y-90989591D01*
X122844032Y-90989590D01*
X122783005Y-90801767D01*
X122760387Y-90762593D01*
X122684258Y-90630734D01*
X122684254Y-90630729D01*
X122684252Y-90630726D01*
X122552114Y-90483972D01*
X122392338Y-90367887D01*
X122211921Y-90287561D01*
X122018745Y-90246500D01*
X121821255Y-90246500D01*
X121628078Y-90287561D01*
X121447662Y-90367887D01*
X121287886Y-90483971D01*
X121155747Y-90630726D01*
X121155743Y-90630733D01*
X121056994Y-90801767D01*
X120995967Y-90989590D01*
X120975325Y-91186000D01*
X120324675Y-91186000D01*
X120304032Y-90989591D01*
X120304032Y-90989590D01*
X120243005Y-90801767D01*
X120220387Y-90762593D01*
X120144258Y-90630734D01*
X120144254Y-90630729D01*
X120144252Y-90630726D01*
X120012114Y-90483972D01*
X119852338Y-90367887D01*
X119671921Y-90287561D01*
X119478745Y-90246500D01*
X119281255Y-90246500D01*
X119088078Y-90287561D01*
X118907662Y-90367887D01*
X118747886Y-90483971D01*
X118615747Y-90630726D01*
X118615743Y-90630733D01*
X118516994Y-90801767D01*
X118455967Y-90989590D01*
X118435325Y-91186000D01*
X115138700Y-91186000D01*
X115138700Y-88646000D01*
X118435325Y-88646000D01*
X118455967Y-88842409D01*
X118516994Y-89030232D01*
X118562228Y-89108579D01*
X118615742Y-89201266D01*
X118615744Y-89201269D01*
X118615747Y-89201273D01*
X118747885Y-89348027D01*
X118747888Y-89348029D01*
X118747889Y-89348030D01*
X118907662Y-89464113D01*
X119088079Y-89544439D01*
X119281255Y-89585500D01*
X119478745Y-89585500D01*
X119671921Y-89544439D01*
X119852338Y-89464113D01*
X120012111Y-89348030D01*
X120144258Y-89201266D01*
X120243004Y-89030234D01*
X120304032Y-88842409D01*
X120324675Y-88646000D01*
X120975325Y-88646000D01*
X120995967Y-88842409D01*
X121056994Y-89030232D01*
X121102228Y-89108579D01*
X121155742Y-89201266D01*
X121155744Y-89201269D01*
X121155747Y-89201273D01*
X121287885Y-89348027D01*
X121287888Y-89348029D01*
X121287889Y-89348030D01*
X121447662Y-89464113D01*
X121628079Y-89544439D01*
X121821255Y-89585500D01*
X122018745Y-89585500D01*
X122211921Y-89544439D01*
X122392338Y-89464113D01*
X122552111Y-89348030D01*
X122684258Y-89201266D01*
X122783004Y-89030234D01*
X122844032Y-88842409D01*
X122864675Y-88646000D01*
X122844032Y-88449591D01*
X122844032Y-88449590D01*
X122783005Y-88261767D01*
X122760387Y-88222593D01*
X122684258Y-88090734D01*
X122684254Y-88090729D01*
X122684252Y-88090726D01*
X122552114Y-87943972D01*
X122392338Y-87827887D01*
X122211921Y-87747561D01*
X122018745Y-87706500D01*
X121821255Y-87706500D01*
X121628078Y-87747561D01*
X121447662Y-87827887D01*
X121287886Y-87943971D01*
X121155747Y-88090726D01*
X121155743Y-88090733D01*
X121056994Y-88261767D01*
X120995967Y-88449590D01*
X120975325Y-88646000D01*
X120324675Y-88646000D01*
X120304032Y-88449591D01*
X120304032Y-88449590D01*
X120243005Y-88261767D01*
X120220387Y-88222593D01*
X120144258Y-88090734D01*
X120144254Y-88090729D01*
X120144252Y-88090726D01*
X120012114Y-87943972D01*
X119852338Y-87827887D01*
X119671921Y-87747561D01*
X119478745Y-87706500D01*
X119281255Y-87706500D01*
X119088078Y-87747561D01*
X118907662Y-87827887D01*
X118747886Y-87943971D01*
X118615747Y-88090726D01*
X118615743Y-88090733D01*
X118516994Y-88261767D01*
X118455967Y-88449590D01*
X118435325Y-88646000D01*
X115138700Y-88646000D01*
X115138700Y-86106000D01*
X118435325Y-86106000D01*
X118455967Y-86302409D01*
X118516994Y-86490232D01*
X118562228Y-86568579D01*
X118615742Y-86661266D01*
X118615744Y-86661269D01*
X118615747Y-86661273D01*
X118747885Y-86808027D01*
X118747888Y-86808029D01*
X118747889Y-86808030D01*
X118907662Y-86924113D01*
X119088079Y-87004439D01*
X119281255Y-87045500D01*
X119478745Y-87045500D01*
X119671921Y-87004439D01*
X119852338Y-86924113D01*
X120012111Y-86808030D01*
X120144258Y-86661266D01*
X120243004Y-86490234D01*
X120304032Y-86302409D01*
X120324675Y-86106000D01*
X120975325Y-86106000D01*
X120995967Y-86302409D01*
X121056994Y-86490232D01*
X121102228Y-86568579D01*
X121155742Y-86661266D01*
X121155744Y-86661269D01*
X121155747Y-86661273D01*
X121287885Y-86808027D01*
X121287888Y-86808029D01*
X121287889Y-86808030D01*
X121447662Y-86924113D01*
X121628079Y-87004439D01*
X121821255Y-87045500D01*
X122018745Y-87045500D01*
X122211921Y-87004439D01*
X122392338Y-86924113D01*
X122552111Y-86808030D01*
X122684258Y-86661266D01*
X122783004Y-86490234D01*
X122844032Y-86302409D01*
X122864675Y-86106000D01*
X122844032Y-85909591D01*
X122844032Y-85909590D01*
X122783005Y-85721767D01*
X122760387Y-85682593D01*
X122711545Y-85597996D01*
X147060271Y-85597996D01*
X147060271Y-85598003D01*
X147081079Y-85742727D01*
X147081081Y-85742734D01*
X147141824Y-85875743D01*
X147237579Y-85986250D01*
X147360589Y-86065304D01*
X147480039Y-86100378D01*
X147500885Y-86106499D01*
X147500886Y-86106499D01*
X147500889Y-86106500D01*
X147500892Y-86106500D01*
X147647108Y-86106500D01*
X147647111Y-86106500D01*
X147787411Y-86065304D01*
X147910421Y-85986250D01*
X148006176Y-85875743D01*
X148066919Y-85742734D01*
X148087729Y-85598000D01*
X148087729Y-85597996D01*
X148066920Y-85453272D01*
X148066919Y-85453271D01*
X148066919Y-85453266D01*
X148006176Y-85320257D01*
X147910421Y-85209750D01*
X147910420Y-85209749D01*
X147843123Y-85166500D01*
X147787411Y-85130696D01*
X147752336Y-85120397D01*
X147647114Y-85089500D01*
X147647111Y-85089500D01*
X147500889Y-85089500D01*
X147500885Y-85089500D01*
X147360589Y-85130696D01*
X147360587Y-85130697D01*
X147237579Y-85209749D01*
X147141824Y-85320256D01*
X147081081Y-85453265D01*
X147081079Y-85453272D01*
X147060271Y-85597996D01*
X122711545Y-85597996D01*
X122684258Y-85550734D01*
X122684254Y-85550729D01*
X122684252Y-85550726D01*
X122552114Y-85403972D01*
X122392338Y-85287887D01*
X122211921Y-85207561D01*
X122018745Y-85166500D01*
X121821255Y-85166500D01*
X121628078Y-85207561D01*
X121447662Y-85287887D01*
X121287886Y-85403971D01*
X121155747Y-85550726D01*
X121155743Y-85550733D01*
X121056994Y-85721767D01*
X120995967Y-85909590D01*
X120975325Y-86106000D01*
X120324675Y-86106000D01*
X120304032Y-85909591D01*
X120304032Y-85909590D01*
X120243005Y-85721767D01*
X120220387Y-85682593D01*
X120144258Y-85550734D01*
X120144254Y-85550729D01*
X120144252Y-85550726D01*
X120012114Y-85403972D01*
X119852338Y-85287887D01*
X119671921Y-85207561D01*
X119478745Y-85166500D01*
X119281255Y-85166500D01*
X119088078Y-85207561D01*
X118907662Y-85287887D01*
X118747886Y-85403971D01*
X118615747Y-85550726D01*
X118615743Y-85550733D01*
X118516994Y-85721767D01*
X118455967Y-85909590D01*
X118435325Y-86106000D01*
X115138700Y-86106000D01*
X115138700Y-83566000D01*
X118435325Y-83566000D01*
X118455967Y-83762409D01*
X118516994Y-83950232D01*
X118562228Y-84028579D01*
X118615742Y-84121266D01*
X118615744Y-84121269D01*
X118615747Y-84121273D01*
X118747885Y-84268027D01*
X118747888Y-84268029D01*
X118747889Y-84268030D01*
X118907662Y-84384113D01*
X119088079Y-84464439D01*
X119281255Y-84505500D01*
X119478745Y-84505500D01*
X119671921Y-84464439D01*
X119852338Y-84384113D01*
X120012111Y-84268030D01*
X120144258Y-84121266D01*
X120243004Y-83950234D01*
X120304032Y-83762409D01*
X120324675Y-83566000D01*
X120975325Y-83566000D01*
X120995967Y-83762409D01*
X121056994Y-83950232D01*
X121102228Y-84028579D01*
X121155742Y-84121266D01*
X121155744Y-84121269D01*
X121155747Y-84121273D01*
X121287885Y-84268027D01*
X121287888Y-84268029D01*
X121287889Y-84268030D01*
X121447662Y-84384113D01*
X121628079Y-84464439D01*
X121821255Y-84505500D01*
X122018745Y-84505500D01*
X122211921Y-84464439D01*
X122392338Y-84384113D01*
X122552111Y-84268030D01*
X122684258Y-84121266D01*
X122783004Y-83950234D01*
X122844032Y-83762409D01*
X122864675Y-83566000D01*
X122844032Y-83369591D01*
X122844032Y-83369590D01*
X122783005Y-83181767D01*
X122760387Y-83142593D01*
X122684258Y-83010734D01*
X122684254Y-83010729D01*
X122684252Y-83010726D01*
X122552114Y-82863972D01*
X122392338Y-82747887D01*
X122211921Y-82667561D01*
X122018745Y-82626500D01*
X121821255Y-82626500D01*
X121628078Y-82667561D01*
X121447662Y-82747887D01*
X121287886Y-82863971D01*
X121155747Y-83010726D01*
X121155743Y-83010733D01*
X121056994Y-83181767D01*
X120995967Y-83369590D01*
X120975325Y-83566000D01*
X120324675Y-83566000D01*
X120304032Y-83369591D01*
X120304032Y-83369590D01*
X120243005Y-83181767D01*
X120220387Y-83142593D01*
X120144258Y-83010734D01*
X120144254Y-83010729D01*
X120144252Y-83010726D01*
X120012114Y-82863972D01*
X119852338Y-82747887D01*
X119671921Y-82667561D01*
X119478745Y-82626500D01*
X119281255Y-82626500D01*
X119088078Y-82667561D01*
X118907662Y-82747887D01*
X118747886Y-82863971D01*
X118615747Y-83010726D01*
X118615743Y-83010733D01*
X118516994Y-83181767D01*
X118455967Y-83369590D01*
X118435325Y-83566000D01*
X115138700Y-83566000D01*
X115138700Y-81279996D01*
X120898271Y-81279996D01*
X120898271Y-81280003D01*
X120919079Y-81424727D01*
X120919081Y-81424734D01*
X120979824Y-81557743D01*
X121075579Y-81668250D01*
X121198589Y-81747304D01*
X121318039Y-81782378D01*
X121338885Y-81788499D01*
X121338886Y-81788499D01*
X121338889Y-81788500D01*
X121338892Y-81788500D01*
X121485108Y-81788500D01*
X121485111Y-81788500D01*
X121625411Y-81747304D01*
X121748421Y-81668250D01*
X121844176Y-81557743D01*
X121904919Y-81424734D01*
X121925729Y-81280000D01*
X121925729Y-81279996D01*
X122676271Y-81279996D01*
X122676271Y-81280003D01*
X122697079Y-81424727D01*
X122697081Y-81424734D01*
X122757824Y-81557743D01*
X122853579Y-81668250D01*
X122976589Y-81747304D01*
X123096039Y-81782378D01*
X123116885Y-81788499D01*
X123116886Y-81788499D01*
X123116889Y-81788500D01*
X123116892Y-81788500D01*
X123263108Y-81788500D01*
X123263111Y-81788500D01*
X123403411Y-81747304D01*
X123526421Y-81668250D01*
X123622176Y-81557743D01*
X123682919Y-81424734D01*
X123703729Y-81280000D01*
X123703729Y-81279996D01*
X123682920Y-81135272D01*
X123682919Y-81135271D01*
X123682919Y-81135266D01*
X123622176Y-81002257D01*
X123526421Y-80891750D01*
X123526420Y-80891749D01*
X123464916Y-80852223D01*
X123403411Y-80812696D01*
X123368336Y-80802397D01*
X123263114Y-80771500D01*
X123263111Y-80771500D01*
X123116889Y-80771500D01*
X123116885Y-80771500D01*
X122976589Y-80812696D01*
X122976587Y-80812697D01*
X122853579Y-80891749D01*
X122757824Y-81002256D01*
X122697081Y-81135265D01*
X122697079Y-81135272D01*
X122676271Y-81279996D01*
X121925729Y-81279996D01*
X121904920Y-81135272D01*
X121904919Y-81135271D01*
X121904919Y-81135266D01*
X121844176Y-81002257D01*
X121748421Y-80891750D01*
X121748420Y-80891749D01*
X121686916Y-80852223D01*
X121625411Y-80812696D01*
X121590336Y-80802397D01*
X121485114Y-80771500D01*
X121485111Y-80771500D01*
X121338889Y-80771500D01*
X121338885Y-80771500D01*
X121198589Y-80812696D01*
X121198587Y-80812697D01*
X121075579Y-80891749D01*
X120979824Y-81002256D01*
X120919081Y-81135265D01*
X120919079Y-81135272D01*
X120898271Y-81279996D01*
X115138700Y-81279996D01*
X115138700Y-79755996D01*
X120898271Y-79755996D01*
X120898271Y-79756003D01*
X120919079Y-79900727D01*
X120919081Y-79900734D01*
X120979824Y-80033743D01*
X121075579Y-80144250D01*
X121198589Y-80223304D01*
X121318039Y-80258378D01*
X121338885Y-80264499D01*
X121338886Y-80264499D01*
X121338889Y-80264500D01*
X121338892Y-80264500D01*
X121485108Y-80264500D01*
X121485111Y-80264500D01*
X121625411Y-80223304D01*
X121748421Y-80144250D01*
X121844176Y-80033743D01*
X121904919Y-79900734D01*
X121925729Y-79756000D01*
X121925729Y-79755996D01*
X122676271Y-79755996D01*
X122676271Y-79756003D01*
X122697079Y-79900727D01*
X122697081Y-79900734D01*
X122757824Y-80033743D01*
X122853579Y-80144250D01*
X122976589Y-80223304D01*
X123096039Y-80258378D01*
X123116885Y-80264499D01*
X123116886Y-80264499D01*
X123116889Y-80264500D01*
X123116892Y-80264500D01*
X123263108Y-80264500D01*
X123263111Y-80264500D01*
X123403411Y-80223304D01*
X123526421Y-80144250D01*
X123526426Y-80144244D01*
X123529516Y-80141567D01*
X123533249Y-80139861D01*
X123534002Y-80139378D01*
X123534071Y-80139486D01*
X123594095Y-80112070D01*
X123664369Y-80122169D01*
X123718028Y-80168658D01*
X123726649Y-80184444D01*
X123773824Y-80287743D01*
X123869579Y-80398250D01*
X123992589Y-80477304D01*
X124112039Y-80512378D01*
X124132885Y-80518499D01*
X124132886Y-80518499D01*
X124132889Y-80518500D01*
X124132892Y-80518500D01*
X124279108Y-80518500D01*
X124279111Y-80518500D01*
X124419411Y-80477304D01*
X124542421Y-80398250D01*
X124638176Y-80287743D01*
X124698919Y-80154734D01*
X124705053Y-80112070D01*
X124719729Y-80010003D01*
X124719729Y-80009996D01*
X124698920Y-79865272D01*
X124698919Y-79865271D01*
X124698919Y-79865266D01*
X124638176Y-79732257D01*
X124542421Y-79621750D01*
X124542420Y-79621749D01*
X124479877Y-79581555D01*
X124419411Y-79542696D01*
X124384336Y-79532397D01*
X124279114Y-79501500D01*
X124279111Y-79501500D01*
X124132889Y-79501500D01*
X124132885Y-79501500D01*
X123992589Y-79542696D01*
X123992587Y-79542697D01*
X123869578Y-79621750D01*
X123866473Y-79624441D01*
X123862737Y-79626146D01*
X123861998Y-79626622D01*
X123861929Y-79626515D01*
X123801891Y-79653931D01*
X123731617Y-79643825D01*
X123677963Y-79597330D01*
X123669350Y-79581555D01*
X123622176Y-79478257D01*
X123526421Y-79367750D01*
X123526420Y-79367749D01*
X123464916Y-79328223D01*
X123403411Y-79288696D01*
X123368336Y-79278397D01*
X123263114Y-79247500D01*
X123263111Y-79247500D01*
X123116889Y-79247500D01*
X123116885Y-79247500D01*
X122976589Y-79288696D01*
X122976587Y-79288697D01*
X122853579Y-79367749D01*
X122757824Y-79478256D01*
X122697081Y-79611265D01*
X122697079Y-79611272D01*
X122676271Y-79755996D01*
X121925729Y-79755996D01*
X121904920Y-79611272D01*
X121904919Y-79611271D01*
X121904919Y-79611266D01*
X121844176Y-79478257D01*
X121748421Y-79367750D01*
X121748420Y-79367749D01*
X121686916Y-79328223D01*
X121625411Y-79288696D01*
X121590336Y-79278397D01*
X121485114Y-79247500D01*
X121485111Y-79247500D01*
X121338889Y-79247500D01*
X121338885Y-79247500D01*
X121198589Y-79288696D01*
X121198587Y-79288697D01*
X121075579Y-79367749D01*
X120979824Y-79478256D01*
X120919081Y-79611265D01*
X120919079Y-79611272D01*
X120898271Y-79755996D01*
X115138700Y-79755996D01*
X115138700Y-78231996D01*
X120898271Y-78231996D01*
X120898271Y-78232003D01*
X120919079Y-78376727D01*
X120919081Y-78376734D01*
X120979824Y-78509743D01*
X121075579Y-78620250D01*
X121198589Y-78699304D01*
X121318039Y-78734378D01*
X121338885Y-78740499D01*
X121338886Y-78740499D01*
X121338889Y-78740500D01*
X121338892Y-78740500D01*
X121485108Y-78740500D01*
X121485111Y-78740500D01*
X121486827Y-78739996D01*
X123692271Y-78739996D01*
X123692271Y-78740003D01*
X123713079Y-78884727D01*
X123713081Y-78884734D01*
X123773824Y-79017743D01*
X123869579Y-79128250D01*
X123992589Y-79207304D01*
X124112039Y-79242378D01*
X124132885Y-79248499D01*
X124132886Y-79248499D01*
X124132889Y-79248500D01*
X124132892Y-79248500D01*
X124279108Y-79248500D01*
X124279111Y-79248500D01*
X124419411Y-79207304D01*
X124542421Y-79128250D01*
X124638176Y-79017743D01*
X124698919Y-78884734D01*
X124699227Y-78882589D01*
X124719729Y-78740003D01*
X124719729Y-78739996D01*
X143504271Y-78739996D01*
X143504271Y-78740003D01*
X143525079Y-78884727D01*
X143525081Y-78884734D01*
X143585824Y-79017743D01*
X143681579Y-79128250D01*
X143804589Y-79207304D01*
X143924039Y-79242378D01*
X143944885Y-79248499D01*
X143944886Y-79248499D01*
X143944889Y-79248500D01*
X143944892Y-79248500D01*
X144091108Y-79248500D01*
X144091111Y-79248500D01*
X144231411Y-79207304D01*
X144354421Y-79128250D01*
X144450176Y-79017743D01*
X144510919Y-78884734D01*
X144511227Y-78882589D01*
X144531729Y-78740003D01*
X144531729Y-78739996D01*
X144510920Y-78595272D01*
X144510919Y-78595271D01*
X144510919Y-78595266D01*
X144450176Y-78462257D01*
X144354421Y-78351750D01*
X144354420Y-78351749D01*
X144292916Y-78312223D01*
X144231411Y-78272696D01*
X144196336Y-78262397D01*
X144091114Y-78231500D01*
X144091111Y-78231500D01*
X143944889Y-78231500D01*
X143944885Y-78231500D01*
X143804589Y-78272696D01*
X143804587Y-78272697D01*
X143681579Y-78351749D01*
X143585824Y-78462256D01*
X143525081Y-78595265D01*
X143525079Y-78595272D01*
X143504271Y-78739996D01*
X124719729Y-78739996D01*
X124698920Y-78595272D01*
X124698919Y-78595271D01*
X124698919Y-78595266D01*
X124638176Y-78462257D01*
X124542421Y-78351750D01*
X124542420Y-78351749D01*
X124480916Y-78312223D01*
X124419411Y-78272696D01*
X124384336Y-78262397D01*
X124279114Y-78231500D01*
X124279111Y-78231500D01*
X124132889Y-78231500D01*
X124132885Y-78231500D01*
X123992589Y-78272696D01*
X123992587Y-78272697D01*
X123869579Y-78351749D01*
X123773824Y-78462256D01*
X123713081Y-78595265D01*
X123713079Y-78595272D01*
X123692271Y-78739996D01*
X121486827Y-78739996D01*
X121625411Y-78699304D01*
X121748421Y-78620250D01*
X121844176Y-78509743D01*
X121904919Y-78376734D01*
X121919878Y-78272696D01*
X121925729Y-78232003D01*
X121925729Y-78231996D01*
X121904920Y-78087272D01*
X121904919Y-78087271D01*
X121904919Y-78087266D01*
X121844176Y-77954257D01*
X121748421Y-77843750D01*
X121748420Y-77843749D01*
X121686916Y-77804223D01*
X121625411Y-77764696D01*
X121567675Y-77747743D01*
X121485114Y-77723500D01*
X121485111Y-77723500D01*
X121338889Y-77723500D01*
X121338885Y-77723500D01*
X121198589Y-77764696D01*
X121198587Y-77764697D01*
X121075579Y-77843749D01*
X120979824Y-77954256D01*
X120919081Y-78087265D01*
X120919079Y-78087272D01*
X120898271Y-78231996D01*
X115138700Y-78231996D01*
X115138700Y-77469996D01*
X123692271Y-77469996D01*
X123692271Y-77470003D01*
X123713079Y-77614727D01*
X123713081Y-77614734D01*
X123773824Y-77747743D01*
X123869579Y-77858250D01*
X123992589Y-77937304D01*
X124112039Y-77972378D01*
X124132885Y-77978499D01*
X124132886Y-77978499D01*
X124132889Y-77978500D01*
X124132892Y-77978500D01*
X124279108Y-77978500D01*
X124279111Y-77978500D01*
X124419411Y-77937304D01*
X124542421Y-77858250D01*
X124638176Y-77747743D01*
X124698919Y-77614734D01*
X124719729Y-77470000D01*
X124719729Y-77469996D01*
X143504271Y-77469996D01*
X143504271Y-77470003D01*
X143525079Y-77614727D01*
X143525081Y-77614734D01*
X143585824Y-77747743D01*
X143681579Y-77858250D01*
X143804589Y-77937304D01*
X143924039Y-77972378D01*
X143944885Y-77978499D01*
X143944886Y-77978499D01*
X143944889Y-77978500D01*
X143944892Y-77978500D01*
X144091108Y-77978500D01*
X144091111Y-77978500D01*
X144231411Y-77937304D01*
X144354421Y-77858250D01*
X144450176Y-77747743D01*
X144461021Y-77723996D01*
X148584271Y-77723996D01*
X148584271Y-77724003D01*
X148605079Y-77868727D01*
X148605081Y-77868734D01*
X148665824Y-78001743D01*
X148761579Y-78112250D01*
X148884589Y-78191304D01*
X149004039Y-78226378D01*
X149024885Y-78232499D01*
X149024886Y-78232499D01*
X149024889Y-78232500D01*
X149024892Y-78232500D01*
X149171108Y-78232500D01*
X149171111Y-78232500D01*
X149311411Y-78191304D01*
X149434421Y-78112250D01*
X149530176Y-78001743D01*
X149590919Y-77868734D01*
X149605878Y-77764696D01*
X149611729Y-77724003D01*
X149611729Y-77723996D01*
X157220271Y-77723996D01*
X157220271Y-77724003D01*
X157241079Y-77868727D01*
X157241081Y-77868734D01*
X157301824Y-78001743D01*
X157397579Y-78112250D01*
X157520589Y-78191304D01*
X157640039Y-78226378D01*
X157660885Y-78232499D01*
X157660886Y-78232499D01*
X157660889Y-78232500D01*
X157660892Y-78232500D01*
X157807108Y-78232500D01*
X157807111Y-78232500D01*
X157947411Y-78191304D01*
X158070421Y-78112250D01*
X158166176Y-78001743D01*
X158226919Y-77868734D01*
X158241878Y-77764696D01*
X158247729Y-77724003D01*
X158247729Y-77723996D01*
X158226920Y-77579272D01*
X158226919Y-77579271D01*
X158226919Y-77579266D01*
X158166176Y-77446257D01*
X158070421Y-77335750D01*
X158070420Y-77335749D01*
X158008916Y-77296223D01*
X157947411Y-77256696D01*
X157912336Y-77246397D01*
X157807114Y-77215500D01*
X157807111Y-77215500D01*
X157660889Y-77215500D01*
X157660885Y-77215500D01*
X157520589Y-77256696D01*
X157520587Y-77256697D01*
X157397579Y-77335749D01*
X157301824Y-77446256D01*
X157241081Y-77579265D01*
X157241079Y-77579272D01*
X157220271Y-77723996D01*
X149611729Y-77723996D01*
X149590920Y-77579272D01*
X149590919Y-77579271D01*
X149590919Y-77579266D01*
X149530176Y-77446257D01*
X149434421Y-77335750D01*
X149434420Y-77335749D01*
X149372916Y-77296223D01*
X149311411Y-77256696D01*
X149276336Y-77246397D01*
X149171114Y-77215500D01*
X149171111Y-77215500D01*
X149024889Y-77215500D01*
X149024885Y-77215500D01*
X148884589Y-77256696D01*
X148884587Y-77256697D01*
X148761579Y-77335749D01*
X148665824Y-77446256D01*
X148605081Y-77579265D01*
X148605079Y-77579272D01*
X148584271Y-77723996D01*
X144461021Y-77723996D01*
X144510919Y-77614734D01*
X144531729Y-77470000D01*
X144531729Y-77469996D01*
X144510920Y-77325272D01*
X144510919Y-77325271D01*
X144510919Y-77325266D01*
X144450176Y-77192257D01*
X144354421Y-77081750D01*
X144354420Y-77081749D01*
X144292916Y-77042223D01*
X144231411Y-77002696D01*
X144173675Y-76985743D01*
X144091114Y-76961500D01*
X144091111Y-76961500D01*
X143944889Y-76961500D01*
X143944885Y-76961500D01*
X143804589Y-77002696D01*
X143804587Y-77002697D01*
X143681579Y-77081749D01*
X143585824Y-77192256D01*
X143525081Y-77325265D01*
X143525079Y-77325272D01*
X143504271Y-77469996D01*
X124719729Y-77469996D01*
X124698920Y-77325272D01*
X124698919Y-77325271D01*
X124698919Y-77325266D01*
X124638176Y-77192257D01*
X124542421Y-77081750D01*
X124542420Y-77081749D01*
X124480916Y-77042223D01*
X124419411Y-77002696D01*
X124361675Y-76985743D01*
X124279114Y-76961500D01*
X124279111Y-76961500D01*
X124132889Y-76961500D01*
X124132885Y-76961500D01*
X123992589Y-77002696D01*
X123992587Y-77002697D01*
X123869579Y-77081749D01*
X123773824Y-77192256D01*
X123713081Y-77325265D01*
X123713079Y-77325272D01*
X123692271Y-77469996D01*
X115138700Y-77469996D01*
X115138700Y-76707996D01*
X120898271Y-76707996D01*
X120898271Y-76708003D01*
X120919079Y-76852727D01*
X120919081Y-76852734D01*
X120979824Y-76985743D01*
X121075579Y-77096250D01*
X121198589Y-77175304D01*
X121318039Y-77210378D01*
X121338885Y-77216499D01*
X121338886Y-77216499D01*
X121338889Y-77216500D01*
X121338892Y-77216500D01*
X121485108Y-77216500D01*
X121485111Y-77216500D01*
X121625411Y-77175304D01*
X121748421Y-77096250D01*
X121844176Y-76985743D01*
X121904919Y-76852734D01*
X121905227Y-76850589D01*
X121925729Y-76708003D01*
X121925729Y-76707996D01*
X121904920Y-76563272D01*
X121904919Y-76563271D01*
X121904919Y-76563266D01*
X121844176Y-76430257D01*
X121748421Y-76319750D01*
X121748420Y-76319749D01*
X121686916Y-76280223D01*
X121625411Y-76240696D01*
X121590336Y-76230397D01*
X121486803Y-76199996D01*
X123692271Y-76199996D01*
X123692271Y-76200003D01*
X123713079Y-76344727D01*
X123713081Y-76344734D01*
X123773824Y-76477743D01*
X123869579Y-76588250D01*
X123992589Y-76667304D01*
X124112039Y-76702378D01*
X124132885Y-76708499D01*
X124132886Y-76708499D01*
X124132889Y-76708500D01*
X124132892Y-76708500D01*
X124279108Y-76708500D01*
X124279111Y-76708500D01*
X124419411Y-76667304D01*
X124542421Y-76588250D01*
X124638176Y-76477743D01*
X124698919Y-76344734D01*
X124719729Y-76200000D01*
X124719729Y-76199996D01*
X124698920Y-76055272D01*
X124698919Y-76055271D01*
X124698919Y-76055266D01*
X124638176Y-75922257D01*
X124542421Y-75811750D01*
X124542420Y-75811749D01*
X124480916Y-75772223D01*
X124419411Y-75732696D01*
X124384336Y-75722397D01*
X124279114Y-75691500D01*
X124279111Y-75691500D01*
X124132889Y-75691500D01*
X124132885Y-75691500D01*
X123992589Y-75732696D01*
X123992587Y-75732697D01*
X123869579Y-75811749D01*
X123773824Y-75922256D01*
X123713081Y-76055265D01*
X123713079Y-76055272D01*
X123692271Y-76199996D01*
X121486803Y-76199996D01*
X121485114Y-76199500D01*
X121485111Y-76199500D01*
X121338889Y-76199500D01*
X121338885Y-76199500D01*
X121198589Y-76240696D01*
X121198587Y-76240697D01*
X121075579Y-76319749D01*
X120979824Y-76430256D01*
X120919081Y-76563265D01*
X120919079Y-76563272D01*
X120898271Y-76707996D01*
X115138700Y-76707996D01*
X115138700Y-75183996D01*
X121152271Y-75183996D01*
X121152271Y-75184003D01*
X121173079Y-75328727D01*
X121173081Y-75328734D01*
X121233824Y-75461743D01*
X121329579Y-75572250D01*
X121452589Y-75651304D01*
X121572039Y-75686378D01*
X121592885Y-75692499D01*
X121592886Y-75692499D01*
X121592889Y-75692500D01*
X121592892Y-75692500D01*
X121739108Y-75692500D01*
X121739111Y-75692500D01*
X121879411Y-75651304D01*
X122002421Y-75572250D01*
X122098176Y-75461743D01*
X122158919Y-75328734D01*
X122179729Y-75184000D01*
X122179729Y-75183996D01*
X122158920Y-75039272D01*
X122158919Y-75039271D01*
X122158919Y-75039266D01*
X122098176Y-74906257D01*
X122002421Y-74795750D01*
X122002420Y-74795749D01*
X121940916Y-74756223D01*
X121879411Y-74716696D01*
X121844336Y-74706397D01*
X121739114Y-74675500D01*
X121739111Y-74675500D01*
X121592889Y-74675500D01*
X121592885Y-74675500D01*
X121452589Y-74716696D01*
X121452587Y-74716697D01*
X121329579Y-74795749D01*
X121233824Y-74906256D01*
X121173081Y-75039265D01*
X121173079Y-75039272D01*
X121152271Y-75183996D01*
X115138700Y-75183996D01*
X115138700Y-72592700D01*
X115158702Y-72524579D01*
X115212358Y-72478086D01*
X115264700Y-72466700D01*
X163627300Y-72466700D01*
X163695421Y-72486702D01*
G37*
%TD.AperFunction*%
%TD*%
M02*
