%TF.GenerationSoftware,KiCad,Pcbnew,8.0.4*%
%TF.CreationDate,2024-10-03T11:01:47-04:00*%
%TF.ProjectId,ESP32-RC_R1,45535033-322d-4524-935f-52312e6b6963,0*%
%TF.SameCoordinates,PX6dbb4f0PY6d3f490*%
%TF.FileFunction,Copper,L4,Bot*%
%TF.FilePolarity,Positive*%
%FSLAX46Y46*%
G04 Gerber Fmt 4.6, Leading zero omitted, Abs format (unit mm)*
G04 Created by KiCad (PCBNEW 8.0.4) date 2024-10-03 11:01:47*
%MOMM*%
%LPD*%
G01*
G04 APERTURE LIST*
%TA.AperFunction,ComponentPad*%
%ADD10R,1.371600X1.371600*%
%TD*%
%TA.AperFunction,ComponentPad*%
%ADD11C,1.370000*%
%TD*%
%TA.AperFunction,ComponentPad*%
%ADD12C,1.371600*%
%TD*%
%TA.AperFunction,ComponentPad*%
%ADD13O,1.400000X1.150000*%
%TD*%
%TA.AperFunction,ViaPad*%
%ADD14C,0.508000*%
%TD*%
G04 APERTURE END LIST*
D10*
%TO.P,J8,01,01*%
%TO.N,/CS*%
X45212000Y21082000D03*
D11*
%TO.P,J8,02,02*%
%TO.N,/INT*%
X45212000Y18542000D03*
%TO.P,J8,03,03*%
%TO.N,/MOSI*%
X42672000Y21082000D03*
%TO.P,J8,04,04*%
%TO.N,/RST*%
X42672000Y18542000D03*
%TO.P,J8,05,05*%
%TO.N,/MISO*%
X40132000Y21082000D03*
%TO.P,J8,06,06*%
%TO.N,/CS2*%
X40132000Y18542000D03*
%TO.P,J8,07,07*%
%TO.N,/SCK*%
X37592000Y21082000D03*
%TO.P,J8,08,08*%
%TO.N,/CS3*%
X37592000Y18542000D03*
%TO.P,J8,09,09*%
%TO.N,GND*%
X35052000Y21082000D03*
%TO.P,J8,10,10*%
X35052000Y18542000D03*
%TO.P,J8,11,11*%
%TO.N,P3V3*%
X32512000Y21082000D03*
%TO.P,J8,12,12*%
X32512000Y18542000D03*
%TD*%
D10*
%TO.P,J5,01,01*%
%TO.N,/PVBATT*%
X7874000Y4318000D03*
D12*
%TO.P,J5,02,02*%
%TO.N,GND*%
X7874000Y1778000D03*
%TD*%
D10*
%TO.P,J1,01,01*%
%TO.N,GND*%
X1778000Y30988000D03*
D12*
%TO.P,J1,02,02*%
%TO.N,/PVRC*%
X4318000Y30988000D03*
%TO.P,J1,03,03*%
%TO.N,/RC1*%
X6858000Y30988000D03*
%TO.P,J1,04,04*%
%TO.N,GND*%
X1778000Y28448000D03*
%TO.P,J1,05,05*%
%TO.N,/PVRC*%
X4318000Y28448000D03*
%TO.P,J1,06,06*%
%TO.N,/RC2*%
X6858000Y28448000D03*
%TO.P,J1,07,07*%
%TO.N,GND*%
X1778000Y25908000D03*
%TO.P,J1,08,08*%
%TO.N,/PVRC*%
X4318000Y25908000D03*
%TO.P,J1,09,09*%
%TO.N,/RC3*%
X6858000Y25908000D03*
%TO.P,J1,10,10*%
%TO.N,GND*%
X1778000Y23368000D03*
%TO.P,J1,11,11*%
%TO.N,/PVRC*%
X4318000Y23368000D03*
%TO.P,J1,12,12*%
%TO.N,/RC4*%
X6858000Y23368000D03*
%TO.P,J1,13,13*%
%TO.N,GND*%
X1778000Y20828000D03*
%TO.P,J1,14,14*%
%TO.N,/PVRC*%
X4318000Y20828000D03*
%TO.P,J1,15,15*%
%TO.N,/RC5*%
X6858000Y20828000D03*
%TO.P,J1,16,16*%
%TO.N,GND*%
X1778000Y18288000D03*
%TO.P,J1,17,17*%
%TO.N,/PVRC*%
X4318000Y18288000D03*
%TO.P,J1,18,18*%
%TO.N,/RC6*%
X6858000Y18288000D03*
%TO.P,J1,19,19*%
%TO.N,GND*%
X1778000Y15748000D03*
%TO.P,J1,20,20*%
%TO.N,/PVRC*%
X4318000Y15748000D03*
%TO.P,J1,21,21*%
%TO.N,/RC7*%
X6858000Y15748000D03*
%TO.P,J1,22,22*%
%TO.N,GND*%
X1778000Y13208000D03*
%TO.P,J1,23,23*%
%TO.N,/PVRC*%
X4318000Y13208000D03*
%TO.P,J1,24,24*%
%TO.N,/RC8*%
X6858000Y13208000D03*
%TD*%
D13*
%TO.P,J2,SH1,SHIELD*%
%TO.N,GND*%
X14618000Y6468000D03*
%TO.P,J2,SH2,SHIELD_1*%
X19418000Y6468000D03*
%TO.P,J2,SH3,SHIELD_2*%
X14618000Y2168000D03*
%TO.P,J2,SH4,SHIELD_3*%
X19418000Y2168000D03*
%TD*%
D14*
%TO.N,GND*%
X12192000Y5080000D03*
X12192000Y3810000D03*
X15748000Y1778000D03*
X36322000Y18542000D03*
X33782000Y18542000D03*
X33782000Y21082000D03*
X35052000Y19812000D03*
X35560000Y29972000D03*
X45212000Y29972000D03*
X40894000Y33274000D03*
X31242000Y33274000D03*
X31242000Y24638000D03*
X40894000Y24638000D03*
%TO.N,/SCK*%
X37592000Y34798000D03*
%TO.N,/MISO*%
X40132000Y34798000D03*
%TO.N,/MOSI*%
X42672000Y34798000D03*
X30226000Y36068000D03*
%TO.N,/INT*%
X9906000Y21336000D03*
%TO.N,/RST*%
X23622000Y22352000D03*
%TO.N,/CS2*%
X24892000Y22352000D03*
%TO.N,/CS3*%
X29210000Y25908000D03*
%TO.N,/CS*%
X29210000Y29718000D03*
%TO.N,/SCK*%
X29210000Y30988000D03*
%TO.N,/MISO*%
X29210000Y32258000D03*
%TO.N,/MOSI*%
X29210000Y39878000D03*
%TO.N,/INT*%
X9144000Y33528000D03*
%TO.N,P3V3*%
X4826000Y1270000D03*
X47752000Y4826000D03*
X32512000Y28956000D03*
X32512000Y11176000D03*
X6604000Y39370000D03*
X34036000Y36830000D03*
X22098000Y11176000D03*
X42672000Y36830000D03*
%TO.N,GND*%
X16840200Y35361800D03*
X11684000Y41148000D03*
X22352000Y10160000D03*
X39370000Y1016000D03*
X30480000Y3556000D03*
X16840200Y33961800D03*
X33020000Y40640000D03*
X18945700Y34671000D03*
X3048000Y28448000D03*
X18262600Y32561800D03*
X27686000Y16764000D03*
X17545700Y34671000D03*
X44958000Y33274000D03*
X1524000Y41402000D03*
X38862000Y11684000D03*
X4318000Y41148000D03*
X40894000Y37592000D03*
X18262600Y35361800D03*
X21844000Y31242000D03*
X19050000Y15748000D03*
X8636000Y41148000D03*
X10160000Y3810000D03*
X14986000Y5080000D03*
X19050000Y3556000D03*
X35306000Y24638000D03*
X24892000Y3556000D03*
X18262600Y33961800D03*
X1778000Y33274000D03*
X3048000Y15748000D03*
X29210000Y41148000D03*
X32258000Y37592000D03*
X6858000Y2794000D03*
X6604000Y5842000D03*
X16145700Y34671000D03*
X32004000Y762000D03*
X18945700Y33274000D03*
X14986000Y3556000D03*
X35306000Y33274000D03*
X3048000Y18288000D03*
X1778000Y36322000D03*
X3048000Y20828000D03*
X44704000Y40640000D03*
X1524000Y10922000D03*
X34544000Y1016000D03*
X8890000Y2794000D03*
X3048000Y25908000D03*
X15494000Y11430000D03*
X17545700Y33274000D03*
X27686000Y13462000D03*
X10160000Y5080000D03*
X45212000Y32004000D03*
X3048000Y23368000D03*
X26924000Y5842000D03*
X3048000Y13208000D03*
X38608000Y9906000D03*
X44958000Y24638000D03*
X19050000Y5080000D03*
X3048000Y30988000D03*
X47244000Y36322000D03*
X36068000Y40640000D03*
X41656000Y40640000D03*
X17018000Y12192000D03*
X42164000Y762000D03*
X43434000Y4318000D03*
X1778000Y34798000D03*
X16840200Y32561800D03*
X1778000Y37846000D03*
X16764000Y26162000D03*
X38608000Y8890000D03*
X16145700Y33274000D03*
X45720000Y4318000D03*
X21844000Y41402000D03*
X23368000Y20320000D03*
X12192000Y23622000D03*
%TO.N,/ESP32/EN*%
X10922000Y21082000D03*
X23876000Y19558000D03*
X6350000Y37846000D03*
X9144000Y38354000D03*
X23876000Y10160000D03*
%TO.N,/ESP32/IO00*%
X10922000Y10414000D03*
X30480000Y8890000D03*
%TO.N,PVESC*%
X1016000Y5080000D03*
X8128000Y34798000D03*
%TO.N,VBUS*%
X16002000Y9398000D03*
X15748000Y4318000D03*
X24892000Y16256000D03*
%TO.N,/ESP32/USB_DP*%
X17526000Y2286000D03*
X16510000Y6350000D03*
%TO.N,/ESP32/USB_DN*%
X17526000Y6350000D03*
X16510000Y2286000D03*
%TO.N,/PVRC*%
X2540000Y8890000D03*
X2540000Y2286000D03*
%TO.N,/PVBATT*%
X7620000Y32258000D03*
X7874000Y10414000D03*
%TO.N,/ESP32/RXD0*%
X14732000Y17272000D03*
X26924000Y18034000D03*
X28956000Y35814000D03*
%TO.N,/ESP32/TXD0*%
X28956000Y37084000D03*
X26670000Y18796000D03*
X13208000Y17272000D03*
%TO.N,/VSNS1*%
X9144000Y37084000D03*
X6350000Y36322000D03*
%TO.N,/VSNS2*%
X6350000Y34798000D03*
X9144000Y35814000D03*
%TO.N,/VSNS3*%
X6350000Y33274000D03*
X9144000Y34544000D03*
%TO.N,PVIN*%
X12954000Y7874000D03*
X35052000Y10922000D03*
X3302000Y5334000D03*
X31750000Y7874000D03*
%TO.N,GND*%
X35560000Y32004000D03*
%TD*%
%TA.AperFunction,Conductor*%
%TO.N,GND*%
G36*
X48633421Y42067298D02*
G01*
X48679914Y42013642D01*
X48691300Y41961300D01*
X48691300Y202700D01*
X48671298Y134579D01*
X48617642Y88086D01*
X48565300Y76700D01*
X202700Y76700D01*
X134579Y96702D01*
X88086Y150358D01*
X76700Y202700D01*
X76700Y1270004D01*
X4312271Y1270004D01*
X4312271Y1269997D01*
X4333079Y1125273D01*
X4333081Y1125266D01*
X4393824Y992257D01*
X4489579Y881750D01*
X4612589Y802696D01*
X4732039Y767622D01*
X4752885Y761501D01*
X4752886Y761501D01*
X4752889Y761500D01*
X4752892Y761500D01*
X4899108Y761500D01*
X4899111Y761500D01*
X5039411Y802696D01*
X5162421Y881750D01*
X5258176Y992257D01*
X5318919Y1125266D01*
X5319227Y1127411D01*
X5339729Y1269997D01*
X5339729Y1270004D01*
X5318920Y1414728D01*
X5318919Y1414729D01*
X5318919Y1414734D01*
X5258176Y1547743D01*
X5162421Y1658250D01*
X5162420Y1658251D01*
X5080154Y1711120D01*
X5039411Y1737304D01*
X5004336Y1747603D01*
X4900817Y1778000D01*
X6929023Y1778000D01*
X6949672Y1581529D01*
X7010721Y1393645D01*
X7010724Y1393638D01*
X7109495Y1222560D01*
X7109498Y1222556D01*
X7123452Y1207059D01*
X7436377Y1519984D01*
X7467498Y1466080D01*
X7562080Y1371498D01*
X7615982Y1340378D01*
X7305202Y1029599D01*
X7305202Y1029598D01*
X7401508Y959628D01*
X7401509Y959627D01*
X7581986Y879273D01*
X7775222Y838200D01*
X7972778Y838200D01*
X8166013Y879273D01*
X8346489Y959627D01*
X8442796Y1029599D01*
X8442796Y1029600D01*
X8132018Y1340378D01*
X8185920Y1371498D01*
X8280502Y1466080D01*
X8311622Y1519982D01*
X8624545Y1207059D01*
X8624547Y1207059D01*
X8638498Y1222552D01*
X8638501Y1222557D01*
X8737275Y1393638D01*
X8737278Y1393645D01*
X8798327Y1581529D01*
X8818976Y1778000D01*
X8798327Y1974472D01*
X8737278Y2162356D01*
X8737275Y2162363D01*
X8660698Y2295000D01*
X13673021Y2295000D01*
X14191047Y2295000D01*
X14190149Y2293445D01*
X14168000Y2210787D01*
X14168000Y2125213D01*
X14190149Y2042555D01*
X14191047Y2041000D01*
X13673021Y2041000D01*
X13695858Y1926190D01*
X13695860Y1926185D01*
X13758350Y1775322D01*
X13849071Y1639548D01*
X13849076Y1639541D01*
X13964540Y1524077D01*
X13964547Y1524072D01*
X14100321Y1433351D01*
X14251184Y1370861D01*
X14251189Y1370859D01*
X14411348Y1339001D01*
X14411352Y1339000D01*
X14491000Y1339000D01*
X14491000Y1843000D01*
X14745000Y1843000D01*
X14745000Y1339000D01*
X14824648Y1339000D01*
X14824651Y1339001D01*
X14984810Y1370859D01*
X14984815Y1370861D01*
X15135678Y1433351D01*
X15271452Y1524072D01*
X15271459Y1524077D01*
X15386923Y1639541D01*
X15386928Y1639548D01*
X15477649Y1775322D01*
X15540139Y1926185D01*
X15540141Y1926190D01*
X15562979Y2041000D01*
X15044953Y2041000D01*
X15045851Y2042555D01*
X15068000Y2125213D01*
X15068000Y2210787D01*
X15047845Y2286004D01*
X15996271Y2286004D01*
X15996271Y2285997D01*
X16017079Y2141273D01*
X16017081Y2141266D01*
X16077824Y2008257D01*
X16173579Y1897750D01*
X16296589Y1818696D01*
X16416039Y1783622D01*
X16436885Y1777501D01*
X16436886Y1777501D01*
X16436889Y1777500D01*
X16436892Y1777500D01*
X16583108Y1777500D01*
X16583111Y1777500D01*
X16723411Y1818696D01*
X16846421Y1897750D01*
X16922776Y1985870D01*
X16982501Y2024252D01*
X17053498Y2024252D01*
X17113222Y1985870D01*
X17189579Y1897750D01*
X17312589Y1818696D01*
X17432039Y1783622D01*
X17452885Y1777501D01*
X17452886Y1777501D01*
X17452889Y1777500D01*
X17452892Y1777500D01*
X17599108Y1777500D01*
X17599111Y1777500D01*
X17739411Y1818696D01*
X17862421Y1897750D01*
X17958176Y2008257D01*
X18018919Y2141266D01*
X18034000Y2246155D01*
X18039729Y2285997D01*
X18039729Y2286004D01*
X18038436Y2295000D01*
X18473021Y2295000D01*
X18991047Y2295000D01*
X18990149Y2293445D01*
X18968000Y2210787D01*
X18968000Y2125213D01*
X18990149Y2042555D01*
X18991047Y2041000D01*
X18473021Y2041000D01*
X18495858Y1926190D01*
X18495860Y1926185D01*
X18558350Y1775322D01*
X18649071Y1639548D01*
X18649076Y1639541D01*
X18764540Y1524077D01*
X18764547Y1524072D01*
X18900321Y1433351D01*
X19051184Y1370861D01*
X19051189Y1370859D01*
X19211348Y1339001D01*
X19211352Y1339000D01*
X19291000Y1339000D01*
X19291000Y1843000D01*
X19545000Y1843000D01*
X19545000Y1339000D01*
X19624648Y1339000D01*
X19624651Y1339001D01*
X19784810Y1370859D01*
X19784815Y1370861D01*
X19935678Y1433351D01*
X20071452Y1524072D01*
X20071459Y1524077D01*
X20186923Y1639541D01*
X20186928Y1639548D01*
X20277649Y1775322D01*
X20340139Y1926185D01*
X20340141Y1926190D01*
X20362979Y2041000D01*
X19844953Y2041000D01*
X19845851Y2042555D01*
X19868000Y2125213D01*
X19868000Y2210787D01*
X19845851Y2293445D01*
X19844953Y2295000D01*
X20362978Y2295000D01*
X20340141Y2409811D01*
X20340139Y2409816D01*
X20277649Y2560679D01*
X20186928Y2696453D01*
X20186923Y2696460D01*
X20071459Y2811924D01*
X20071452Y2811929D01*
X19935678Y2902650D01*
X19784815Y2965140D01*
X19784810Y2965142D01*
X19624651Y2997000D01*
X19545000Y2997000D01*
X19545000Y2493000D01*
X19291000Y2493000D01*
X19291000Y2997000D01*
X19211348Y2997000D01*
X19051189Y2965142D01*
X19051184Y2965140D01*
X18900321Y2902650D01*
X18764547Y2811929D01*
X18764540Y2811924D01*
X18649076Y2696460D01*
X18649071Y2696453D01*
X18558350Y2560679D01*
X18495860Y2409816D01*
X18495858Y2409811D01*
X18473021Y2295000D01*
X18038436Y2295000D01*
X18018920Y2430728D01*
X18018919Y2430729D01*
X18018919Y2430734D01*
X17958176Y2563743D01*
X17862421Y2674250D01*
X17862420Y2674251D01*
X17794656Y2717800D01*
X17739411Y2753304D01*
X17704336Y2763603D01*
X17599114Y2794500D01*
X17599111Y2794500D01*
X17452889Y2794500D01*
X17452885Y2794500D01*
X17312589Y2753304D01*
X17312587Y2753303D01*
X17189579Y2674251D01*
X17113224Y2586132D01*
X17053498Y2547749D01*
X16982501Y2547749D01*
X16922776Y2586132D01*
X16846420Y2674251D01*
X16778656Y2717800D01*
X16723411Y2753304D01*
X16688336Y2763603D01*
X16583114Y2794500D01*
X16583111Y2794500D01*
X16436889Y2794500D01*
X16436885Y2794500D01*
X16296589Y2753304D01*
X16296587Y2753303D01*
X16173579Y2674251D01*
X16077824Y2563744D01*
X16017081Y2430735D01*
X16017079Y2430728D01*
X15996271Y2286004D01*
X15047845Y2286004D01*
X15045851Y2293445D01*
X15044953Y2295000D01*
X15562978Y2295000D01*
X15540141Y2409811D01*
X15540139Y2409816D01*
X15477649Y2560679D01*
X15386928Y2696453D01*
X15386923Y2696460D01*
X15271459Y2811924D01*
X15271452Y2811929D01*
X15135678Y2902650D01*
X14984815Y2965140D01*
X14984810Y2965142D01*
X14824651Y2997000D01*
X14745000Y2997000D01*
X14745000Y2493000D01*
X14491000Y2493000D01*
X14491000Y2997000D01*
X14411348Y2997000D01*
X14251189Y2965142D01*
X14251184Y2965140D01*
X14100321Y2902650D01*
X13964547Y2811929D01*
X13964540Y2811924D01*
X13849076Y2696460D01*
X13849071Y2696453D01*
X13758350Y2560679D01*
X13695860Y2409816D01*
X13695858Y2409811D01*
X13673021Y2295000D01*
X8660698Y2295000D01*
X8638504Y2333441D01*
X8638501Y2333445D01*
X8624546Y2348943D01*
X8311621Y2036019D01*
X8280502Y2089920D01*
X8185920Y2184502D01*
X8132016Y2215623D01*
X8442796Y2526403D01*
X8442796Y2526404D01*
X8346489Y2596374D01*
X8346490Y2596374D01*
X8166013Y2676728D01*
X7972778Y2717800D01*
X7775222Y2717800D01*
X7581989Y2676728D01*
X7401510Y2596374D01*
X7401509Y2596373D01*
X7305203Y2526403D01*
X7305203Y2526401D01*
X7615981Y2215623D01*
X7562080Y2184502D01*
X7467498Y2089920D01*
X7436377Y2036019D01*
X7123453Y2348943D01*
X7123450Y2348943D01*
X7109505Y2333454D01*
X7109497Y2333443D01*
X7010724Y2162363D01*
X7010721Y2162356D01*
X6949672Y1974472D01*
X6929023Y1778000D01*
X4900817Y1778000D01*
X4899114Y1778500D01*
X4899111Y1778500D01*
X4752889Y1778500D01*
X4752885Y1778500D01*
X4612589Y1737304D01*
X4612587Y1737303D01*
X4489579Y1658251D01*
X4393824Y1547744D01*
X4333081Y1414735D01*
X4333079Y1414728D01*
X4312271Y1270004D01*
X76700Y1270004D01*
X76700Y2286004D01*
X2026271Y2286004D01*
X2026271Y2285997D01*
X2047079Y2141273D01*
X2047081Y2141266D01*
X2107824Y2008257D01*
X2203579Y1897750D01*
X2326589Y1818696D01*
X2446039Y1783622D01*
X2466885Y1777501D01*
X2466886Y1777501D01*
X2466889Y1777500D01*
X2466892Y1777500D01*
X2613108Y1777500D01*
X2613111Y1777500D01*
X2753411Y1818696D01*
X2876421Y1897750D01*
X2972176Y2008257D01*
X3032919Y2141266D01*
X3048000Y2246155D01*
X3053729Y2285997D01*
X3053729Y2286004D01*
X3032920Y2430728D01*
X3032919Y2430729D01*
X3032919Y2430734D01*
X2972176Y2563743D01*
X2876421Y2674250D01*
X2876420Y2674251D01*
X2808656Y2717800D01*
X2753411Y2753304D01*
X2718336Y2763603D01*
X2613114Y2794500D01*
X2613111Y2794500D01*
X2466889Y2794500D01*
X2466885Y2794500D01*
X2326589Y2753304D01*
X2326587Y2753303D01*
X2203579Y2674251D01*
X2107824Y2563744D01*
X2047081Y2430735D01*
X2047079Y2430728D01*
X2026271Y2286004D01*
X76700Y2286004D01*
X76700Y5080004D01*
X502271Y5080004D01*
X502271Y5079997D01*
X523079Y4935273D01*
X523081Y4935266D01*
X583824Y4802257D01*
X679579Y4691750D01*
X802589Y4612696D01*
X922039Y4577622D01*
X942885Y4571501D01*
X942886Y4571501D01*
X942889Y4571500D01*
X942892Y4571500D01*
X1089108Y4571500D01*
X1089111Y4571500D01*
X1229411Y4612696D01*
X1352421Y4691750D01*
X1448176Y4802257D01*
X1508919Y4935266D01*
X1522377Y5028867D01*
X1529729Y5079997D01*
X1529729Y5080004D01*
X1508920Y5224728D01*
X1508919Y5224729D01*
X1508919Y5224734D01*
X1459017Y5334004D01*
X2788271Y5334004D01*
X2788271Y5333997D01*
X2809079Y5189273D01*
X2809081Y5189266D01*
X2869824Y5056257D01*
X2965579Y4945750D01*
X3088589Y4866696D01*
X3208039Y4831622D01*
X3228885Y4825501D01*
X3228886Y4825501D01*
X3228889Y4825500D01*
X3228892Y4825500D01*
X3375108Y4825500D01*
X3375111Y4825500D01*
X3515411Y4866696D01*
X3638421Y4945750D01*
X3710445Y5028870D01*
X6933700Y5028870D01*
X6933700Y3607137D01*
X6933701Y3607127D01*
X6948465Y3532900D01*
X7004716Y3448716D01*
X7088897Y3392467D01*
X7088899Y3392466D01*
X7163133Y3377700D01*
X8584866Y3377701D01*
X8584869Y3377702D01*
X8584873Y3377702D01*
X8634126Y3387499D01*
X8659101Y3392466D01*
X8743284Y3448716D01*
X8799534Y3532899D01*
X8814300Y3607133D01*
X8814299Y4382339D01*
X12779300Y4382339D01*
X12779300Y4253661D01*
X12779308Y4253632D01*
X12812603Y4129372D01*
X12812606Y4129365D01*
X12876940Y4017935D01*
X12876948Y4017925D01*
X12967924Y3926949D01*
X12967929Y3926945D01*
X12967931Y3926943D01*
X13079369Y3862604D01*
X13203661Y3829300D01*
X13203663Y3829300D01*
X13332337Y3829300D01*
X13332339Y3829300D01*
X13456631Y3862604D01*
X13568069Y3926943D01*
X13659057Y4017931D01*
X13723396Y4129369D01*
X13756700Y4253661D01*
X13756700Y4318004D01*
X15234271Y4318004D01*
X15234271Y4317997D01*
X15255079Y4173273D01*
X15255081Y4173266D01*
X15315824Y4040257D01*
X15411579Y3929750D01*
X15534589Y3850696D01*
X15654039Y3815622D01*
X15674885Y3809501D01*
X15674886Y3809501D01*
X15674889Y3809500D01*
X15674892Y3809500D01*
X15821108Y3809500D01*
X15821111Y3809500D01*
X15961411Y3850696D01*
X16084421Y3929750D01*
X16180176Y4040257D01*
X16240919Y4173266D01*
X16252474Y4253632D01*
X16261729Y4317997D01*
X16261729Y4318004D01*
X16254883Y4365619D01*
X20306300Y4365619D01*
X20306300Y4342921D01*
X20306300Y4318000D01*
X20306300Y4270381D01*
X20310780Y4253663D01*
X20330948Y4178392D01*
X20330951Y4178385D01*
X20378565Y4095915D01*
X20378573Y4095905D01*
X20445904Y4028574D01*
X20445909Y4028570D01*
X20445911Y4028568D01*
X20445912Y4028567D01*
X20445914Y4028566D01*
X20464345Y4017925D01*
X20528389Y3980949D01*
X20620381Y3956300D01*
X20620383Y3956300D01*
X20915617Y3956300D01*
X20915619Y3956300D01*
X21007611Y3980949D01*
X21090089Y4028568D01*
X21157432Y4095911D01*
X21205051Y4178389D01*
X21229700Y4270381D01*
X21229700Y4318000D01*
X21229700Y4342921D01*
X21229700Y4365619D01*
X21205051Y4457611D01*
X21157432Y4540089D01*
X21157430Y4540091D01*
X21157426Y4540096D01*
X21090095Y4607427D01*
X21090085Y4607435D01*
X21007615Y4655049D01*
X21007612Y4655050D01*
X21007611Y4655051D01*
X21007609Y4655052D01*
X21007608Y4655052D01*
X20982958Y4661657D01*
X20915619Y4679700D01*
X20883257Y4679700D01*
X20692921Y4679700D01*
X20668000Y4679700D01*
X20620381Y4679700D01*
X20571085Y4666492D01*
X20528391Y4655052D01*
X20528384Y4655049D01*
X20445914Y4607435D01*
X20445904Y4607427D01*
X20378573Y4540096D01*
X20378565Y4540086D01*
X20330951Y4457616D01*
X20330949Y4457611D01*
X20306300Y4365619D01*
X16254883Y4365619D01*
X16240920Y4462728D01*
X16240919Y4462729D01*
X16240919Y4462734D01*
X16180176Y4595743D01*
X16084421Y4706250D01*
X16084420Y4706251D01*
X15979940Y4773396D01*
X15961411Y4785304D01*
X15903675Y4802257D01*
X15822803Y4826004D01*
X47238271Y4826004D01*
X47238271Y4825997D01*
X47259079Y4681273D01*
X47259081Y4681266D01*
X47319824Y4548257D01*
X47415579Y4437750D01*
X47538589Y4358696D01*
X47658039Y4323622D01*
X47678885Y4317501D01*
X47678886Y4317501D01*
X47678889Y4317500D01*
X47678892Y4317500D01*
X47825108Y4317500D01*
X47825111Y4317500D01*
X47965411Y4358696D01*
X48088421Y4437750D01*
X48184176Y4548257D01*
X48244919Y4681266D01*
X48248915Y4709060D01*
X48265729Y4825997D01*
X48265729Y4826004D01*
X48244920Y4970728D01*
X48244919Y4970729D01*
X48244919Y4970734D01*
X48184176Y5103743D01*
X48088421Y5214250D01*
X48088420Y5214251D01*
X48019878Y5258300D01*
X47965411Y5293304D01*
X47930336Y5303603D01*
X47825114Y5334500D01*
X47825111Y5334500D01*
X47678889Y5334500D01*
X47678885Y5334500D01*
X47538589Y5293304D01*
X47538587Y5293303D01*
X47415579Y5214251D01*
X47319824Y5103744D01*
X47259081Y4970735D01*
X47259079Y4970728D01*
X47238271Y4826004D01*
X15822803Y4826004D01*
X15821114Y4826500D01*
X15821111Y4826500D01*
X15674889Y4826500D01*
X15674885Y4826500D01*
X15534589Y4785304D01*
X15534587Y4785303D01*
X15411579Y4706251D01*
X15315824Y4595744D01*
X15255081Y4462735D01*
X15255079Y4462728D01*
X15234271Y4318004D01*
X13756700Y4318004D01*
X13756700Y4382339D01*
X13723396Y4506631D01*
X13671947Y4595743D01*
X13659059Y4618066D01*
X13659051Y4618076D01*
X13568075Y4709052D01*
X13568065Y4709060D01*
X13456635Y4773394D01*
X13456632Y4773395D01*
X13456631Y4773396D01*
X13456629Y4773397D01*
X13456628Y4773397D01*
X13423324Y4782321D01*
X13332339Y4806700D01*
X13203661Y4806700D01*
X13137055Y4788853D01*
X13079371Y4773397D01*
X13079364Y4773394D01*
X12967934Y4709060D01*
X12967924Y4709052D01*
X12876948Y4618076D01*
X12876940Y4618066D01*
X12812606Y4506636D01*
X12812603Y4506629D01*
X12794867Y4440436D01*
X12779300Y4382339D01*
X8814299Y4382339D01*
X8814299Y5028866D01*
X8814298Y5028870D01*
X8814298Y5028874D01*
X8799534Y5103101D01*
X8743283Y5187285D01*
X8659102Y5243534D01*
X8584867Y5258300D01*
X7163136Y5258300D01*
X7163126Y5258299D01*
X7088899Y5243535D01*
X7004715Y5187284D01*
X6948466Y5103103D01*
X6933700Y5028870D01*
X3710445Y5028870D01*
X3734176Y5056257D01*
X3794919Y5189266D01*
X3815729Y5334000D01*
X3815729Y5334004D01*
X3794920Y5478728D01*
X3794919Y5478729D01*
X3794919Y5478734D01*
X3734176Y5611743D01*
X3638421Y5722250D01*
X3638420Y5722251D01*
X3576916Y5761777D01*
X3515411Y5801304D01*
X3480336Y5811603D01*
X3375114Y5842500D01*
X3375111Y5842500D01*
X3228889Y5842500D01*
X3228885Y5842500D01*
X3088589Y5801304D01*
X3088587Y5801303D01*
X2965579Y5722251D01*
X2869824Y5611744D01*
X2809081Y5478735D01*
X2809079Y5478728D01*
X2788271Y5334004D01*
X1459017Y5334004D01*
X1448176Y5357743D01*
X1352421Y5468250D01*
X1352420Y5468251D01*
X1290916Y5507777D01*
X1229411Y5547304D01*
X1194336Y5557603D01*
X1089114Y5588500D01*
X1089111Y5588500D01*
X942889Y5588500D01*
X942885Y5588500D01*
X802589Y5547304D01*
X802587Y5547303D01*
X679579Y5468251D01*
X583824Y5357744D01*
X523081Y5224735D01*
X523079Y5224728D01*
X502271Y5080004D01*
X76700Y5080004D01*
X76700Y6595000D01*
X13673021Y6595000D01*
X14191047Y6595000D01*
X14190149Y6593445D01*
X14168000Y6510787D01*
X14168000Y6425213D01*
X14190149Y6342555D01*
X14191047Y6341000D01*
X13673021Y6341000D01*
X13695858Y6226190D01*
X13695860Y6226185D01*
X13758350Y6075322D01*
X13849071Y5939548D01*
X13849076Y5939541D01*
X13964540Y5824077D01*
X13964547Y5824072D01*
X14100321Y5733351D01*
X14251184Y5670861D01*
X14251189Y5670859D01*
X14411348Y5639001D01*
X14411352Y5639000D01*
X14491000Y5639000D01*
X14491000Y6143000D01*
X14745000Y6143000D01*
X14745000Y5639000D01*
X14824648Y5639000D01*
X14824651Y5639001D01*
X14984810Y5670859D01*
X14984815Y5670861D01*
X15135678Y5733351D01*
X15271452Y5824072D01*
X15271459Y5824077D01*
X15386923Y5939541D01*
X15386928Y5939548D01*
X15477649Y6075322D01*
X15540139Y6226185D01*
X15540141Y6226190D01*
X15562979Y6341000D01*
X15044953Y6341000D01*
X15045851Y6342555D01*
X15047847Y6350004D01*
X15996271Y6350004D01*
X15996271Y6349997D01*
X16017079Y6205273D01*
X16017081Y6205266D01*
X16077824Y6072257D01*
X16173579Y5961750D01*
X16296589Y5882696D01*
X16416039Y5847622D01*
X16436885Y5841501D01*
X16436886Y5841501D01*
X16436889Y5841500D01*
X16436892Y5841500D01*
X16583108Y5841500D01*
X16583111Y5841500D01*
X16723411Y5882696D01*
X16846421Y5961750D01*
X16922776Y6049870D01*
X16982501Y6088252D01*
X17053498Y6088252D01*
X17113222Y6049870D01*
X17189579Y5961750D01*
X17312589Y5882696D01*
X17432039Y5847622D01*
X17452885Y5841501D01*
X17452886Y5841501D01*
X17452889Y5841500D01*
X17452892Y5841500D01*
X17599108Y5841500D01*
X17599111Y5841500D01*
X17739411Y5882696D01*
X17862421Y5961750D01*
X17958176Y6072257D01*
X18018919Y6205266D01*
X18021927Y6226185D01*
X18039729Y6349997D01*
X18039729Y6350004D01*
X18018920Y6494728D01*
X18018919Y6494729D01*
X18018919Y6494734D01*
X17973129Y6595000D01*
X18473021Y6595000D01*
X18991047Y6595000D01*
X18990149Y6593445D01*
X18968000Y6510787D01*
X18968000Y6425213D01*
X18990149Y6342555D01*
X18991047Y6341000D01*
X18473021Y6341000D01*
X18495858Y6226190D01*
X18495860Y6226185D01*
X18558350Y6075322D01*
X18649071Y5939548D01*
X18649076Y5939541D01*
X18764540Y5824077D01*
X18764547Y5824072D01*
X18900321Y5733351D01*
X19051184Y5670861D01*
X19051189Y5670859D01*
X19211348Y5639001D01*
X19211352Y5639000D01*
X19291000Y5639000D01*
X19291000Y6143000D01*
X19545000Y6143000D01*
X19545000Y5639000D01*
X19624648Y5639000D01*
X19624651Y5639001D01*
X19784810Y5670859D01*
X19784815Y5670861D01*
X19935678Y5733351D01*
X20071452Y5824072D01*
X20071459Y5824077D01*
X20186923Y5939541D01*
X20186928Y5939548D01*
X20277649Y6075322D01*
X20340139Y6226185D01*
X20340141Y6226190D01*
X20362979Y6341000D01*
X19844953Y6341000D01*
X19845851Y6342555D01*
X19868000Y6425213D01*
X19868000Y6510787D01*
X19845851Y6593445D01*
X19844953Y6595000D01*
X20362978Y6595000D01*
X20340141Y6709811D01*
X20340139Y6709816D01*
X20277649Y6860679D01*
X20186928Y6996453D01*
X20186923Y6996460D01*
X20071459Y7111924D01*
X20071452Y7111929D01*
X19935678Y7202650D01*
X19784815Y7265140D01*
X19784810Y7265142D01*
X19624651Y7297000D01*
X19545000Y7297000D01*
X19545000Y6793000D01*
X19291000Y6793000D01*
X19291000Y7297000D01*
X19211348Y7297000D01*
X19051189Y7265142D01*
X19051184Y7265140D01*
X18900321Y7202650D01*
X18764547Y7111929D01*
X18764540Y7111924D01*
X18649076Y6996460D01*
X18649071Y6996453D01*
X18558350Y6860679D01*
X18495860Y6709816D01*
X18495858Y6709811D01*
X18473021Y6595000D01*
X17973129Y6595000D01*
X17958176Y6627743D01*
X17862421Y6738250D01*
X17862420Y6738251D01*
X17800916Y6777777D01*
X17739411Y6817304D01*
X17704336Y6827603D01*
X17599114Y6858500D01*
X17599111Y6858500D01*
X17452889Y6858500D01*
X17452885Y6858500D01*
X17312589Y6817304D01*
X17312587Y6817303D01*
X17189579Y6738251D01*
X17113224Y6650132D01*
X17053498Y6611749D01*
X16982501Y6611749D01*
X16922776Y6650132D01*
X16846420Y6738251D01*
X16784916Y6777777D01*
X16723411Y6817304D01*
X16688336Y6827603D01*
X16583114Y6858500D01*
X16583111Y6858500D01*
X16436889Y6858500D01*
X16436885Y6858500D01*
X16296589Y6817304D01*
X16296587Y6817303D01*
X16173579Y6738251D01*
X16077824Y6627744D01*
X16017081Y6494735D01*
X16017079Y6494728D01*
X15996271Y6350004D01*
X15047847Y6350004D01*
X15068000Y6425213D01*
X15068000Y6510787D01*
X15045851Y6593445D01*
X15044953Y6595000D01*
X15562978Y6595000D01*
X15540141Y6709811D01*
X15540139Y6709816D01*
X15477649Y6860679D01*
X15386928Y6996453D01*
X15386923Y6996460D01*
X15271459Y7111924D01*
X15271452Y7111929D01*
X15135678Y7202650D01*
X14984815Y7265140D01*
X14984810Y7265142D01*
X14824651Y7297000D01*
X14745000Y7297000D01*
X14745000Y6793000D01*
X14491000Y6793000D01*
X14491000Y7297000D01*
X14411348Y7297000D01*
X14251189Y7265142D01*
X14251184Y7265140D01*
X14100321Y7202650D01*
X13964547Y7111929D01*
X13964540Y7111924D01*
X13849076Y6996460D01*
X13849071Y6996453D01*
X13758350Y6860679D01*
X13695860Y6709816D01*
X13695858Y6709811D01*
X13673021Y6595000D01*
X76700Y6595000D01*
X76700Y7874004D01*
X12440271Y7874004D01*
X12440271Y7873997D01*
X12461079Y7729273D01*
X12461081Y7729266D01*
X12521824Y7596257D01*
X12617579Y7485750D01*
X12740589Y7406696D01*
X12860039Y7371622D01*
X12880885Y7365501D01*
X12880886Y7365501D01*
X12880889Y7365500D01*
X12880892Y7365500D01*
X13027108Y7365500D01*
X13027111Y7365500D01*
X13167411Y7406696D01*
X13290421Y7485750D01*
X13386176Y7596257D01*
X13446919Y7729266D01*
X13467729Y7874000D01*
X13467729Y7874004D01*
X31236271Y7874004D01*
X31236271Y7873997D01*
X31257079Y7729273D01*
X31257081Y7729266D01*
X31317824Y7596257D01*
X31413579Y7485750D01*
X31536589Y7406696D01*
X31656039Y7371622D01*
X31676885Y7365501D01*
X31676886Y7365501D01*
X31676889Y7365500D01*
X31676892Y7365500D01*
X31823108Y7365500D01*
X31823111Y7365500D01*
X31963411Y7406696D01*
X32086421Y7485750D01*
X32182176Y7596257D01*
X32242919Y7729266D01*
X32263729Y7874000D01*
X32263729Y7874004D01*
X32242920Y8018728D01*
X32242919Y8018729D01*
X32242919Y8018734D01*
X32182176Y8151743D01*
X32086421Y8262250D01*
X32086420Y8262251D01*
X32024916Y8301777D01*
X31963411Y8341304D01*
X31928336Y8351603D01*
X31823114Y8382500D01*
X31823111Y8382500D01*
X31676889Y8382500D01*
X31676885Y8382500D01*
X31536589Y8341304D01*
X31536587Y8341303D01*
X31413579Y8262251D01*
X31317824Y8151744D01*
X31257081Y8018735D01*
X31257079Y8018728D01*
X31236271Y7874004D01*
X13467729Y7874004D01*
X13446920Y8018728D01*
X13446919Y8018729D01*
X13446919Y8018734D01*
X13386176Y8151743D01*
X13290421Y8262250D01*
X13290420Y8262251D01*
X13228916Y8301777D01*
X13167411Y8341304D01*
X13132336Y8351603D01*
X13027114Y8382500D01*
X13027111Y8382500D01*
X12880889Y8382500D01*
X12880885Y8382500D01*
X12740589Y8341304D01*
X12740587Y8341303D01*
X12617579Y8262251D01*
X12521824Y8151744D01*
X12461081Y8018735D01*
X12461079Y8018728D01*
X12440271Y7874004D01*
X76700Y7874004D01*
X76700Y8890004D01*
X2026271Y8890004D01*
X2026271Y8889997D01*
X2047079Y8745273D01*
X2047081Y8745266D01*
X2107824Y8612257D01*
X2203579Y8501750D01*
X2326589Y8422696D01*
X2446039Y8387622D01*
X2466885Y8381501D01*
X2466886Y8381501D01*
X2466889Y8381500D01*
X2466892Y8381500D01*
X2613108Y8381500D01*
X2613111Y8381500D01*
X2753411Y8422696D01*
X2876421Y8501750D01*
X2972176Y8612257D01*
X3032919Y8745266D01*
X3033227Y8747411D01*
X3053729Y8889997D01*
X3053729Y8890004D01*
X3032920Y9034728D01*
X3032919Y9034729D01*
X3032919Y9034734D01*
X2972176Y9167743D01*
X2876421Y9278250D01*
X2876420Y9278251D01*
X2814916Y9317777D01*
X2753411Y9357304D01*
X2718336Y9367603D01*
X2614803Y9398004D01*
X15488271Y9398004D01*
X15488271Y9397997D01*
X15509079Y9253273D01*
X15509081Y9253266D01*
X15569824Y9120257D01*
X15665579Y9009750D01*
X15788589Y8930696D01*
X15908039Y8895622D01*
X15928885Y8889501D01*
X15928886Y8889501D01*
X15928889Y8889500D01*
X15928892Y8889500D01*
X16075108Y8889500D01*
X16075111Y8889500D01*
X16076827Y8890004D01*
X29966271Y8890004D01*
X29966271Y8889997D01*
X29987079Y8745273D01*
X29987081Y8745266D01*
X30047824Y8612257D01*
X30143579Y8501750D01*
X30266589Y8422696D01*
X30386039Y8387622D01*
X30406885Y8381501D01*
X30406886Y8381501D01*
X30406889Y8381500D01*
X30406892Y8381500D01*
X30553108Y8381500D01*
X30553111Y8381500D01*
X30693411Y8422696D01*
X30816421Y8501750D01*
X30912176Y8612257D01*
X30972919Y8745266D01*
X30973227Y8747411D01*
X30993729Y8889997D01*
X30993729Y8890004D01*
X30972920Y9034728D01*
X30972919Y9034729D01*
X30972919Y9034734D01*
X30912176Y9167743D01*
X30816421Y9278250D01*
X30816420Y9278251D01*
X30754916Y9317777D01*
X30693411Y9357304D01*
X30658336Y9367603D01*
X30553114Y9398500D01*
X30553111Y9398500D01*
X30406889Y9398500D01*
X30406885Y9398500D01*
X30266589Y9357304D01*
X30266587Y9357303D01*
X30143579Y9278251D01*
X30047824Y9167744D01*
X29987081Y9034735D01*
X29987079Y9034728D01*
X29966271Y8890004D01*
X16076827Y8890004D01*
X16215411Y8930696D01*
X16338421Y9009750D01*
X16434176Y9120257D01*
X16494919Y9253266D01*
X16515729Y9398000D01*
X16515729Y9398004D01*
X16494920Y9542728D01*
X16494919Y9542729D01*
X16494919Y9542734D01*
X16434176Y9675743D01*
X16338421Y9786250D01*
X16338420Y9786251D01*
X16276916Y9825777D01*
X16215411Y9865304D01*
X16157675Y9882257D01*
X16075114Y9906500D01*
X16075111Y9906500D01*
X15928889Y9906500D01*
X15928885Y9906500D01*
X15788589Y9865304D01*
X15788587Y9865303D01*
X15665579Y9786251D01*
X15569824Y9675744D01*
X15509081Y9542735D01*
X15509079Y9542728D01*
X15488271Y9398004D01*
X2614803Y9398004D01*
X2613114Y9398500D01*
X2613111Y9398500D01*
X2466889Y9398500D01*
X2466885Y9398500D01*
X2326589Y9357304D01*
X2326587Y9357303D01*
X2203579Y9278251D01*
X2107824Y9167744D01*
X2047081Y9034735D01*
X2047079Y9034728D01*
X2026271Y8890004D01*
X76700Y8890004D01*
X76700Y10414004D01*
X7360271Y10414004D01*
X7360271Y10413997D01*
X7381079Y10269273D01*
X7381081Y10269266D01*
X7441824Y10136257D01*
X7537579Y10025750D01*
X7660589Y9946696D01*
X7780039Y9911622D01*
X7800885Y9905501D01*
X7800886Y9905501D01*
X7800889Y9905500D01*
X7800892Y9905500D01*
X7947108Y9905500D01*
X7947111Y9905500D01*
X8087411Y9946696D01*
X8210421Y10025750D01*
X8306176Y10136257D01*
X8366919Y10269266D01*
X8372019Y10304735D01*
X8387729Y10413997D01*
X8387729Y10414004D01*
X10408271Y10414004D01*
X10408271Y10413997D01*
X10429079Y10269273D01*
X10429081Y10269266D01*
X10489824Y10136257D01*
X10585579Y10025750D01*
X10708589Y9946696D01*
X10828039Y9911622D01*
X10848885Y9905501D01*
X10848886Y9905501D01*
X10848889Y9905500D01*
X10848892Y9905500D01*
X10995108Y9905500D01*
X10995111Y9905500D01*
X11135411Y9946696D01*
X11258421Y10025750D01*
X11354176Y10136257D01*
X11365021Y10160004D01*
X23362271Y10160004D01*
X23362271Y10159997D01*
X23383079Y10015273D01*
X23383081Y10015266D01*
X23443824Y9882257D01*
X23539579Y9771750D01*
X23662589Y9692696D01*
X23782039Y9657622D01*
X23802885Y9651501D01*
X23802886Y9651501D01*
X23802889Y9651500D01*
X23802892Y9651500D01*
X23949108Y9651500D01*
X23949111Y9651500D01*
X24089411Y9692696D01*
X24212421Y9771750D01*
X24308176Y9882257D01*
X24368919Y10015266D01*
X24370426Y10025750D01*
X24389729Y10159997D01*
X24389729Y10160004D01*
X24368920Y10304728D01*
X24368919Y10304729D01*
X24368919Y10304734D01*
X24308176Y10437743D01*
X24212421Y10548250D01*
X24212420Y10548251D01*
X24150916Y10587777D01*
X24089411Y10627304D01*
X24031675Y10644257D01*
X23949114Y10668500D01*
X23949111Y10668500D01*
X23802889Y10668500D01*
X23802885Y10668500D01*
X23662589Y10627304D01*
X23662587Y10627303D01*
X23539579Y10548251D01*
X23443824Y10437744D01*
X23383081Y10304735D01*
X23383079Y10304728D01*
X23362271Y10160004D01*
X11365021Y10160004D01*
X11414919Y10269266D01*
X11420019Y10304735D01*
X11435729Y10413997D01*
X11435729Y10414004D01*
X11414920Y10558728D01*
X11414919Y10558729D01*
X11414919Y10558734D01*
X11354176Y10691743D01*
X11258421Y10802250D01*
X11258420Y10802251D01*
X11196916Y10841777D01*
X11135411Y10881304D01*
X11077675Y10898257D01*
X10995114Y10922500D01*
X10995111Y10922500D01*
X10848889Y10922500D01*
X10848885Y10922500D01*
X10708589Y10881304D01*
X10708587Y10881303D01*
X10585579Y10802251D01*
X10489824Y10691744D01*
X10429081Y10558735D01*
X10429079Y10558728D01*
X10408271Y10414004D01*
X8387729Y10414004D01*
X8366920Y10558728D01*
X8366919Y10558729D01*
X8366919Y10558734D01*
X8306176Y10691743D01*
X8210421Y10802250D01*
X8210420Y10802251D01*
X8148916Y10841777D01*
X8087411Y10881304D01*
X8029675Y10898257D01*
X7947114Y10922500D01*
X7947111Y10922500D01*
X7800889Y10922500D01*
X7800885Y10922500D01*
X7660589Y10881304D01*
X7660587Y10881303D01*
X7537579Y10802251D01*
X7441824Y10691744D01*
X7381081Y10558735D01*
X7381079Y10558728D01*
X7360271Y10414004D01*
X76700Y10414004D01*
X76700Y11176004D01*
X21584271Y11176004D01*
X21584271Y11175997D01*
X21605079Y11031273D01*
X21605081Y11031266D01*
X21665824Y10898257D01*
X21761579Y10787750D01*
X21884589Y10708696D01*
X22004039Y10673622D01*
X22024885Y10667501D01*
X22024886Y10667501D01*
X22024889Y10667500D01*
X22024892Y10667500D01*
X22171108Y10667500D01*
X22171111Y10667500D01*
X22311411Y10708696D01*
X22434421Y10787750D01*
X22530176Y10898257D01*
X22590919Y11031266D01*
X22611729Y11176000D01*
X22611729Y11176004D01*
X31998271Y11176004D01*
X31998271Y11175997D01*
X32019079Y11031273D01*
X32019081Y11031266D01*
X32079824Y10898257D01*
X32175579Y10787750D01*
X32298589Y10708696D01*
X32418039Y10673622D01*
X32438885Y10667501D01*
X32438886Y10667501D01*
X32438889Y10667500D01*
X32438892Y10667500D01*
X32585108Y10667500D01*
X32585111Y10667500D01*
X32725411Y10708696D01*
X32848421Y10787750D01*
X32944176Y10898257D01*
X32955021Y10922004D01*
X34538271Y10922004D01*
X34538271Y10921997D01*
X34559079Y10777273D01*
X34559081Y10777266D01*
X34619824Y10644257D01*
X34715579Y10533750D01*
X34838589Y10454696D01*
X34958039Y10419622D01*
X34978885Y10413501D01*
X34978886Y10413501D01*
X34978889Y10413500D01*
X34978892Y10413500D01*
X35125108Y10413500D01*
X35125111Y10413500D01*
X35265411Y10454696D01*
X35388421Y10533750D01*
X35484176Y10644257D01*
X35544919Y10777266D01*
X35559878Y10881304D01*
X35565729Y10921997D01*
X35565729Y10922004D01*
X35544920Y11066728D01*
X35544919Y11066729D01*
X35544919Y11066734D01*
X35484176Y11199743D01*
X35388421Y11310250D01*
X35388420Y11310251D01*
X35326916Y11349777D01*
X35265411Y11389304D01*
X35230336Y11399603D01*
X35125114Y11430500D01*
X35125111Y11430500D01*
X34978889Y11430500D01*
X34978885Y11430500D01*
X34838589Y11389304D01*
X34838587Y11389303D01*
X34715579Y11310251D01*
X34619824Y11199744D01*
X34559081Y11066735D01*
X34559079Y11066728D01*
X34538271Y10922004D01*
X32955021Y10922004D01*
X33004919Y11031266D01*
X33025729Y11176000D01*
X33025729Y11176004D01*
X33004920Y11320728D01*
X33004919Y11320729D01*
X33004919Y11320734D01*
X32944176Y11453743D01*
X32848421Y11564250D01*
X32848420Y11564251D01*
X32786916Y11603777D01*
X32725411Y11643304D01*
X32690336Y11653603D01*
X32585114Y11684500D01*
X32585111Y11684500D01*
X32438889Y11684500D01*
X32438885Y11684500D01*
X32298589Y11643304D01*
X32298587Y11643303D01*
X32175579Y11564251D01*
X32079824Y11453744D01*
X32019081Y11320735D01*
X32019079Y11320728D01*
X31998271Y11176004D01*
X22611729Y11176004D01*
X22590920Y11320728D01*
X22590919Y11320729D01*
X22590919Y11320734D01*
X22530176Y11453743D01*
X22434421Y11564250D01*
X22434420Y11564251D01*
X22372916Y11603777D01*
X22311411Y11643304D01*
X22276336Y11653603D01*
X22171114Y11684500D01*
X22171111Y11684500D01*
X22024889Y11684500D01*
X22024885Y11684500D01*
X21884589Y11643304D01*
X21884587Y11643303D01*
X21761579Y11564251D01*
X21665824Y11453744D01*
X21605081Y11320735D01*
X21605079Y11320728D01*
X21584271Y11176004D01*
X76700Y11176004D01*
X76700Y13208000D01*
X833023Y13208000D01*
X853672Y13011529D01*
X914721Y12823645D01*
X914724Y12823638D01*
X1013495Y12652560D01*
X1013498Y12652556D01*
X1027452Y12637059D01*
X1340377Y12949984D01*
X1371498Y12896080D01*
X1466080Y12801498D01*
X1519982Y12770378D01*
X1209202Y12459599D01*
X1209202Y12459598D01*
X1305508Y12389628D01*
X1305509Y12389627D01*
X1485986Y12309273D01*
X1679222Y12268200D01*
X1876778Y12268200D01*
X2070013Y12309273D01*
X2250489Y12389627D01*
X2346796Y12459599D01*
X2346796Y12459600D01*
X2036018Y12770378D01*
X2089920Y12801498D01*
X2184502Y12896080D01*
X2215622Y12949982D01*
X2528545Y12637059D01*
X2528547Y12637059D01*
X2542498Y12652552D01*
X2542501Y12652557D01*
X2641275Y12823638D01*
X2641278Y12823645D01*
X2702327Y13011529D01*
X2722976Y13208000D01*
X3372521Y13208000D01*
X3393181Y13011424D01*
X3454259Y12823445D01*
X3454261Y12823440D01*
X3553091Y12652261D01*
X3685348Y12505374D01*
X3685351Y12505372D01*
X3845260Y12389191D01*
X4025831Y12308796D01*
X4219171Y12267700D01*
X4219175Y12267700D01*
X4416825Y12267700D01*
X4416829Y12267700D01*
X4610169Y12308796D01*
X4790740Y12389191D01*
X4950649Y12505372D01*
X5082909Y12652261D01*
X5181738Y12823439D01*
X5205341Y12896080D01*
X5242818Y13011424D01*
X5244602Y13028395D01*
X5263479Y13208000D01*
X5912521Y13208000D01*
X5933181Y13011424D01*
X5994259Y12823445D01*
X5994261Y12823440D01*
X6093091Y12652261D01*
X6225348Y12505374D01*
X6225351Y12505372D01*
X6385260Y12389191D01*
X6565831Y12308796D01*
X6759171Y12267700D01*
X6759175Y12267700D01*
X6956825Y12267700D01*
X6956829Y12267700D01*
X7150169Y12308796D01*
X7330740Y12389191D01*
X7490649Y12505372D01*
X7622909Y12652261D01*
X7721738Y12823439D01*
X7745341Y12896080D01*
X7782818Y13011424D01*
X7784602Y13028395D01*
X7803479Y13208000D01*
X7782818Y13404576D01*
X7782818Y13404577D01*
X7721740Y13592556D01*
X7721738Y13592561D01*
X7623081Y13763441D01*
X7622909Y13763739D01*
X7609219Y13778943D01*
X7490651Y13910627D01*
X7330740Y14026809D01*
X7150169Y14107204D01*
X6956829Y14148300D01*
X6759171Y14148300D01*
X6604499Y14115424D01*
X6565830Y14107204D01*
X6385256Y14026807D01*
X6225348Y13910627D01*
X6093091Y13763740D01*
X5994261Y13592561D01*
X5994259Y13592556D01*
X5933181Y13404577D01*
X5912521Y13208000D01*
X5263479Y13208000D01*
X5242818Y13404576D01*
X5242818Y13404577D01*
X5181740Y13592556D01*
X5181738Y13592561D01*
X5083081Y13763441D01*
X5082909Y13763739D01*
X5069219Y13778943D01*
X4950651Y13910627D01*
X4790740Y14026809D01*
X4610169Y14107204D01*
X4416829Y14148300D01*
X4219171Y14148300D01*
X4064499Y14115424D01*
X4025830Y14107204D01*
X3845256Y14026807D01*
X3685348Y13910627D01*
X3553091Y13763740D01*
X3454261Y13592561D01*
X3454259Y13592556D01*
X3393181Y13404577D01*
X3372521Y13208000D01*
X2722976Y13208000D01*
X2702327Y13404472D01*
X2641278Y13592356D01*
X2641275Y13592363D01*
X2542504Y13763441D01*
X2542501Y13763445D01*
X2528546Y13778943D01*
X2215621Y13466019D01*
X2184502Y13519920D01*
X2089920Y13614502D01*
X2036016Y13645623D01*
X2346796Y13956403D01*
X2346796Y13956404D01*
X2250489Y14026374D01*
X2250490Y14026374D01*
X2070013Y14106728D01*
X1876778Y14147800D01*
X1679222Y14147800D01*
X1485989Y14106728D01*
X1305510Y14026374D01*
X1305509Y14026373D01*
X1209203Y13956403D01*
X1209203Y13956401D01*
X1519981Y13645623D01*
X1466080Y13614502D01*
X1371498Y13519920D01*
X1340377Y13466019D01*
X1027453Y13778943D01*
X1027450Y13778943D01*
X1013505Y13763454D01*
X1013497Y13763443D01*
X914724Y13592363D01*
X914721Y13592356D01*
X853672Y13404472D01*
X833023Y13208000D01*
X76700Y13208000D01*
X76700Y15748000D01*
X833023Y15748000D01*
X853672Y15551529D01*
X914721Y15363645D01*
X914724Y15363638D01*
X1013495Y15192560D01*
X1013498Y15192556D01*
X1027452Y15177059D01*
X1340377Y15489984D01*
X1371498Y15436080D01*
X1466080Y15341498D01*
X1519982Y15310378D01*
X1209202Y14999599D01*
X1209202Y14999598D01*
X1305508Y14929628D01*
X1305509Y14929627D01*
X1485986Y14849273D01*
X1679222Y14808200D01*
X1876778Y14808200D01*
X2070013Y14849273D01*
X2250489Y14929627D01*
X2346796Y14999599D01*
X2346796Y14999600D01*
X2036018Y15310378D01*
X2089920Y15341498D01*
X2184502Y15436080D01*
X2215622Y15489982D01*
X2528545Y15177059D01*
X2528547Y15177059D01*
X2542498Y15192552D01*
X2542501Y15192557D01*
X2641275Y15363638D01*
X2641278Y15363645D01*
X2702327Y15551529D01*
X2722976Y15748000D01*
X3372521Y15748000D01*
X3393181Y15551424D01*
X3454259Y15363445D01*
X3454261Y15363440D01*
X3553091Y15192261D01*
X3685348Y15045374D01*
X3685351Y15045372D01*
X3845260Y14929191D01*
X4025831Y14848796D01*
X4219171Y14807700D01*
X4219175Y14807700D01*
X4416825Y14807700D01*
X4416829Y14807700D01*
X4610169Y14848796D01*
X4790740Y14929191D01*
X4950649Y15045372D01*
X5082909Y15192261D01*
X5181738Y15363439D01*
X5205341Y15436080D01*
X5242818Y15551424D01*
X5244602Y15568395D01*
X5263479Y15748000D01*
X5912521Y15748000D01*
X5933181Y15551424D01*
X5994259Y15363445D01*
X5994261Y15363440D01*
X6093091Y15192261D01*
X6225348Y15045374D01*
X6225351Y15045372D01*
X6385260Y14929191D01*
X6565831Y14848796D01*
X6759171Y14807700D01*
X6759175Y14807700D01*
X6956825Y14807700D01*
X6956829Y14807700D01*
X7150169Y14848796D01*
X7330740Y14929191D01*
X7490649Y15045372D01*
X7622909Y15192261D01*
X7721738Y15363439D01*
X7745341Y15436080D01*
X7782818Y15551424D01*
X7784602Y15568395D01*
X7803479Y15748000D01*
X7782818Y15944576D01*
X7782818Y15944577D01*
X7721740Y16132556D01*
X7721738Y16132561D01*
X7670458Y16221381D01*
X7650469Y16256004D01*
X24378271Y16256004D01*
X24378271Y16255997D01*
X24399079Y16111273D01*
X24399081Y16111266D01*
X24459824Y15978257D01*
X24555579Y15867750D01*
X24678589Y15788696D01*
X24798039Y15753622D01*
X24818885Y15747501D01*
X24818886Y15747501D01*
X24818889Y15747500D01*
X24818892Y15747500D01*
X24965108Y15747500D01*
X24965111Y15747500D01*
X25105411Y15788696D01*
X25228421Y15867750D01*
X25324176Y15978257D01*
X25384919Y16111266D01*
X25391136Y16154502D01*
X25405729Y16255997D01*
X25405729Y16256004D01*
X25384920Y16400728D01*
X25384919Y16400729D01*
X25384919Y16400734D01*
X25324176Y16533743D01*
X25228421Y16644250D01*
X25228420Y16644251D01*
X25159878Y16688300D01*
X25105411Y16723304D01*
X25070336Y16733603D01*
X24965114Y16764500D01*
X24965111Y16764500D01*
X24818889Y16764500D01*
X24818885Y16764500D01*
X24678589Y16723304D01*
X24678587Y16723303D01*
X24555579Y16644251D01*
X24459824Y16533744D01*
X24399081Y16400735D01*
X24399079Y16400728D01*
X24378271Y16256004D01*
X7650469Y16256004D01*
X7622909Y16303739D01*
X7609219Y16318943D01*
X7490651Y16450627D01*
X7330740Y16566809D01*
X7150169Y16647204D01*
X6956829Y16688300D01*
X6759171Y16688300D01*
X6604499Y16655424D01*
X6565830Y16647204D01*
X6385256Y16566807D01*
X6225348Y16450627D01*
X6093091Y16303740D01*
X5994261Y16132561D01*
X5994259Y16132556D01*
X5933181Y15944577D01*
X5912521Y15748000D01*
X5263479Y15748000D01*
X5242818Y15944576D01*
X5242818Y15944577D01*
X5181740Y16132556D01*
X5181738Y16132561D01*
X5130458Y16221381D01*
X5082909Y16303739D01*
X5069219Y16318943D01*
X4950651Y16450627D01*
X4790740Y16566809D01*
X4610169Y16647204D01*
X4416829Y16688300D01*
X4219171Y16688300D01*
X4064499Y16655424D01*
X4025830Y16647204D01*
X3845256Y16566807D01*
X3685348Y16450627D01*
X3553091Y16303740D01*
X3454261Y16132561D01*
X3454259Y16132556D01*
X3393181Y15944577D01*
X3372521Y15748000D01*
X2722976Y15748000D01*
X2702327Y15944472D01*
X2641278Y16132356D01*
X2641275Y16132363D01*
X2542504Y16303441D01*
X2542501Y16303445D01*
X2528546Y16318943D01*
X2215621Y16006019D01*
X2184502Y16059920D01*
X2089920Y16154502D01*
X2036016Y16185623D01*
X2346796Y16496403D01*
X2346796Y16496404D01*
X2250489Y16566374D01*
X2250490Y16566374D01*
X2070013Y16646728D01*
X1876778Y16687800D01*
X1679222Y16687800D01*
X1485989Y16646728D01*
X1305510Y16566374D01*
X1305509Y16566373D01*
X1209203Y16496403D01*
X1209203Y16496401D01*
X1519981Y16185623D01*
X1466080Y16154502D01*
X1371498Y16059920D01*
X1340377Y16006019D01*
X1027453Y16318943D01*
X1027450Y16318943D01*
X1013505Y16303454D01*
X1013497Y16303443D01*
X914724Y16132363D01*
X914721Y16132356D01*
X853672Y15944472D01*
X833023Y15748000D01*
X76700Y15748000D01*
X76700Y17272004D01*
X12694271Y17272004D01*
X12694271Y17271997D01*
X12715079Y17127273D01*
X12715081Y17127266D01*
X12775824Y16994257D01*
X12871579Y16883750D01*
X12994589Y16804696D01*
X13114039Y16769622D01*
X13134885Y16763501D01*
X13134886Y16763501D01*
X13134889Y16763500D01*
X13134892Y16763500D01*
X13281108Y16763500D01*
X13281111Y16763500D01*
X13421411Y16804696D01*
X13544421Y16883750D01*
X13640176Y16994257D01*
X13700919Y17127266D01*
X13721729Y17272000D01*
X13721729Y17272004D01*
X14218271Y17272004D01*
X14218271Y17271997D01*
X14239079Y17127273D01*
X14239081Y17127266D01*
X14299824Y16994257D01*
X14395579Y16883750D01*
X14518589Y16804696D01*
X14638039Y16769622D01*
X14658885Y16763501D01*
X14658886Y16763501D01*
X14658889Y16763500D01*
X14658892Y16763500D01*
X14805108Y16763500D01*
X14805111Y16763500D01*
X14945411Y16804696D01*
X15068421Y16883750D01*
X15164176Y16994257D01*
X15224919Y17127266D01*
X15245729Y17272000D01*
X15245729Y17272004D01*
X15224920Y17416728D01*
X15224919Y17416729D01*
X15224919Y17416734D01*
X15164176Y17549743D01*
X15068421Y17660250D01*
X15068420Y17660251D01*
X14969400Y17723887D01*
X14945411Y17739304D01*
X14887675Y17756257D01*
X14805114Y17780500D01*
X14805111Y17780500D01*
X14658889Y17780500D01*
X14658885Y17780500D01*
X14518589Y17739304D01*
X14518587Y17739303D01*
X14395579Y17660251D01*
X14299824Y17549744D01*
X14239081Y17416735D01*
X14239079Y17416728D01*
X14218271Y17272004D01*
X13721729Y17272004D01*
X13700920Y17416728D01*
X13700919Y17416729D01*
X13700919Y17416734D01*
X13640176Y17549743D01*
X13544421Y17660250D01*
X13544420Y17660251D01*
X13445400Y17723887D01*
X13421411Y17739304D01*
X13363675Y17756257D01*
X13281114Y17780500D01*
X13281111Y17780500D01*
X13134889Y17780500D01*
X13134885Y17780500D01*
X12994589Y17739304D01*
X12994587Y17739303D01*
X12871579Y17660251D01*
X12775824Y17549744D01*
X12715081Y17416735D01*
X12715079Y17416728D01*
X12694271Y17272004D01*
X76700Y17272004D01*
X76700Y18288000D01*
X833023Y18288000D01*
X853672Y18091529D01*
X914721Y17903645D01*
X914724Y17903638D01*
X1013495Y17732560D01*
X1013498Y17732556D01*
X1027452Y17717059D01*
X1340377Y18029984D01*
X1371498Y17976080D01*
X1466080Y17881498D01*
X1519982Y17850378D01*
X1209202Y17539599D01*
X1209202Y17539598D01*
X1305508Y17469628D01*
X1305509Y17469627D01*
X1485986Y17389273D01*
X1679222Y17348200D01*
X1876778Y17348200D01*
X2070013Y17389273D01*
X2250489Y17469627D01*
X2346796Y17539599D01*
X2346796Y17539600D01*
X2036018Y17850378D01*
X2089920Y17881498D01*
X2184502Y17976080D01*
X2215622Y18029982D01*
X2528545Y17717059D01*
X2528547Y17717059D01*
X2542498Y17732552D01*
X2542501Y17732557D01*
X2641275Y17903638D01*
X2641278Y17903645D01*
X2702327Y18091529D01*
X2722976Y18288000D01*
X3372521Y18288000D01*
X3393181Y18091424D01*
X3454259Y17903445D01*
X3454261Y17903440D01*
X3553091Y17732261D01*
X3685348Y17585374D01*
X3685351Y17585372D01*
X3845260Y17469191D01*
X4025831Y17388796D01*
X4219171Y17347700D01*
X4219175Y17347700D01*
X4416825Y17347700D01*
X4416829Y17347700D01*
X4610169Y17388796D01*
X4790740Y17469191D01*
X4950649Y17585372D01*
X5082909Y17732261D01*
X5181738Y17903439D01*
X5205341Y17976080D01*
X5242818Y18091424D01*
X5247282Y18133898D01*
X5263479Y18288000D01*
X5912521Y18288000D01*
X5933181Y18091424D01*
X5994259Y17903445D01*
X5994261Y17903440D01*
X6093091Y17732261D01*
X6225348Y17585374D01*
X6225351Y17585372D01*
X6385260Y17469191D01*
X6565831Y17388796D01*
X6759171Y17347700D01*
X6759175Y17347700D01*
X6956825Y17347700D01*
X6956829Y17347700D01*
X7150169Y17388796D01*
X7330740Y17469191D01*
X7490649Y17585372D01*
X7622909Y17732261D01*
X7721738Y17903439D01*
X7745341Y17976080D01*
X7782818Y18091424D01*
X7787282Y18133898D01*
X7803479Y18288000D01*
X7782818Y18484576D01*
X7777383Y18501304D01*
X7721740Y18672556D01*
X7721738Y18672561D01*
X7693423Y18721605D01*
X7650469Y18796004D01*
X26156271Y18796004D01*
X26156271Y18795997D01*
X26177079Y18651273D01*
X26177081Y18651266D01*
X26237824Y18518257D01*
X26333579Y18407750D01*
X26397967Y18366370D01*
X26444460Y18312714D01*
X26454563Y18242440D01*
X26444460Y18208031D01*
X26431082Y18178738D01*
X26431079Y18178728D01*
X26410271Y18034004D01*
X26410271Y18033997D01*
X26431079Y17889273D01*
X26431081Y17889266D01*
X26491824Y17756257D01*
X26587579Y17645750D01*
X26710589Y17566696D01*
X26830039Y17531622D01*
X26850885Y17525501D01*
X26850886Y17525501D01*
X26850889Y17525500D01*
X26850892Y17525500D01*
X26997108Y17525500D01*
X26997111Y17525500D01*
X27137411Y17566696D01*
X27260421Y17645750D01*
X27356176Y17756257D01*
X27416919Y17889266D01*
X27430976Y17987033D01*
X27437729Y18033997D01*
X27437729Y18034004D01*
X27416920Y18178728D01*
X27416919Y18178729D01*
X27416919Y18178734D01*
X27356176Y18311743D01*
X27260421Y18422250D01*
X27260420Y18422251D01*
X27260419Y18422252D01*
X27196033Y18463630D01*
X27149540Y18517285D01*
X27145986Y18542000D01*
X31567325Y18542000D01*
X31587967Y18345591D01*
X31648994Y18157768D01*
X31687013Y18091919D01*
X31747742Y17986734D01*
X31747744Y17986731D01*
X31747747Y17986727D01*
X31879885Y17839973D01*
X31879888Y17839971D01*
X31879889Y17839970D01*
X32039662Y17723887D01*
X32220079Y17643561D01*
X32413255Y17602500D01*
X32610745Y17602500D01*
X32803921Y17643561D01*
X32984338Y17723887D01*
X33144111Y17839970D01*
X33181503Y17881498D01*
X33276252Y17986727D01*
X33276252Y17986728D01*
X33276258Y17986734D01*
X33375004Y18157766D01*
X33375072Y18157973D01*
X33436032Y18345591D01*
X33448438Y18463630D01*
X33456675Y18542000D01*
X34107828Y18542000D01*
X34128459Y18345697D01*
X34189456Y18157973D01*
X34189459Y18157966D01*
X34288145Y17987036D01*
X34288147Y17987033D01*
X34302019Y17971626D01*
X34612913Y18282521D01*
X34643898Y18228853D01*
X34738853Y18133898D01*
X34792518Y18102915D01*
X34483776Y17794173D01*
X34483776Y17794172D01*
X34579913Y17724324D01*
X34760234Y17644040D01*
X34953311Y17603000D01*
X35150689Y17603000D01*
X35343765Y17644040D01*
X35524082Y17724322D01*
X35620222Y17794173D01*
X35620222Y17794174D01*
X35311481Y18102915D01*
X35365147Y18133898D01*
X35460102Y18228853D01*
X35491085Y18282519D01*
X35801979Y17971625D01*
X35815850Y17987030D01*
X35815852Y17987032D01*
X35914540Y18157966D01*
X35914543Y18157973D01*
X35975540Y18345697D01*
X35996171Y18542000D01*
X36647325Y18542000D01*
X36667967Y18345591D01*
X36728994Y18157768D01*
X36767013Y18091919D01*
X36827742Y17986734D01*
X36827744Y17986731D01*
X36827747Y17986727D01*
X36959885Y17839973D01*
X36959888Y17839971D01*
X36959889Y17839970D01*
X37119662Y17723887D01*
X37300079Y17643561D01*
X37493255Y17602500D01*
X37690745Y17602500D01*
X37883921Y17643561D01*
X38064338Y17723887D01*
X38224111Y17839970D01*
X38261503Y17881498D01*
X38356252Y17986727D01*
X38356252Y17986728D01*
X38356258Y17986734D01*
X38455004Y18157766D01*
X38455072Y18157973D01*
X38516032Y18345591D01*
X38528438Y18463630D01*
X38536675Y18542000D01*
X39187325Y18542000D01*
X39207967Y18345591D01*
X39268994Y18157768D01*
X39307013Y18091919D01*
X39367742Y17986734D01*
X39367744Y17986731D01*
X39367747Y17986727D01*
X39499885Y17839973D01*
X39499888Y17839971D01*
X39499889Y17839970D01*
X39659662Y17723887D01*
X39840079Y17643561D01*
X40033255Y17602500D01*
X40230745Y17602500D01*
X40423921Y17643561D01*
X40604338Y17723887D01*
X40764111Y17839970D01*
X40801503Y17881498D01*
X40896252Y17986727D01*
X40896252Y17986728D01*
X40896258Y17986734D01*
X40995004Y18157766D01*
X40995072Y18157973D01*
X41056032Y18345591D01*
X41068438Y18463630D01*
X41076675Y18542000D01*
X41727325Y18542000D01*
X41747967Y18345591D01*
X41808994Y18157768D01*
X41847013Y18091919D01*
X41907742Y17986734D01*
X41907744Y17986731D01*
X41907747Y17986727D01*
X42039885Y17839973D01*
X42039888Y17839971D01*
X42039889Y17839970D01*
X42199662Y17723887D01*
X42380079Y17643561D01*
X42573255Y17602500D01*
X42770745Y17602500D01*
X42963921Y17643561D01*
X43144338Y17723887D01*
X43304111Y17839970D01*
X43341503Y17881498D01*
X43436252Y17986727D01*
X43436252Y17986728D01*
X43436258Y17986734D01*
X43535004Y18157766D01*
X43535072Y18157973D01*
X43596032Y18345591D01*
X43608438Y18463630D01*
X43616675Y18542000D01*
X44267325Y18542000D01*
X44287967Y18345591D01*
X44348994Y18157768D01*
X44387013Y18091919D01*
X44447742Y17986734D01*
X44447744Y17986731D01*
X44447747Y17986727D01*
X44579885Y17839973D01*
X44579888Y17839971D01*
X44579889Y17839970D01*
X44739662Y17723887D01*
X44920079Y17643561D01*
X45113255Y17602500D01*
X45310745Y17602500D01*
X45503921Y17643561D01*
X45684338Y17723887D01*
X45844111Y17839970D01*
X45881503Y17881498D01*
X45976252Y17986727D01*
X45976252Y17986728D01*
X45976258Y17986734D01*
X46075004Y18157766D01*
X46075072Y18157973D01*
X46136032Y18345591D01*
X46148438Y18463630D01*
X46156675Y18542000D01*
X46136032Y18738409D01*
X46117320Y18796000D01*
X46075005Y18926233D01*
X46022458Y19017245D01*
X45976258Y19097266D01*
X45976254Y19097271D01*
X45976252Y19097274D01*
X45844114Y19244028D01*
X45684338Y19360113D01*
X45503921Y19440439D01*
X45310745Y19481500D01*
X45113255Y19481500D01*
X44920078Y19440439D01*
X44739662Y19360113D01*
X44579886Y19244029D01*
X44447747Y19097274D01*
X44447743Y19097268D01*
X44447742Y19097266D01*
X44434161Y19073743D01*
X44348994Y18926233D01*
X44287967Y18738410D01*
X44267325Y18542000D01*
X43616675Y18542000D01*
X43596032Y18738409D01*
X43577320Y18796000D01*
X43535005Y18926233D01*
X43482458Y19017245D01*
X43436258Y19097266D01*
X43436254Y19097271D01*
X43436252Y19097274D01*
X43304114Y19244028D01*
X43144338Y19360113D01*
X42963921Y19440439D01*
X42770745Y19481500D01*
X42573255Y19481500D01*
X42380078Y19440439D01*
X42199662Y19360113D01*
X42039886Y19244029D01*
X41907747Y19097274D01*
X41907743Y19097268D01*
X41907742Y19097266D01*
X41894161Y19073743D01*
X41808994Y18926233D01*
X41747967Y18738410D01*
X41727325Y18542000D01*
X41076675Y18542000D01*
X41056032Y18738409D01*
X41037320Y18796000D01*
X40995005Y18926233D01*
X40942458Y19017245D01*
X40896258Y19097266D01*
X40896254Y19097271D01*
X40896252Y19097274D01*
X40764114Y19244028D01*
X40604338Y19360113D01*
X40423921Y19440439D01*
X40230745Y19481500D01*
X40033255Y19481500D01*
X39840078Y19440439D01*
X39659662Y19360113D01*
X39499886Y19244029D01*
X39367747Y19097274D01*
X39367743Y19097268D01*
X39367742Y19097266D01*
X39354161Y19073743D01*
X39268994Y18926233D01*
X39207967Y18738410D01*
X39187325Y18542000D01*
X38536675Y18542000D01*
X38516032Y18738409D01*
X38497320Y18796000D01*
X38455005Y18926233D01*
X38402458Y19017245D01*
X38356258Y19097266D01*
X38356254Y19097271D01*
X38356252Y19097274D01*
X38224114Y19244028D01*
X38064338Y19360113D01*
X37883921Y19440439D01*
X37690745Y19481500D01*
X37493255Y19481500D01*
X37300078Y19440439D01*
X37119662Y19360113D01*
X36959886Y19244029D01*
X36827747Y19097274D01*
X36827743Y19097268D01*
X36827742Y19097266D01*
X36814161Y19073743D01*
X36728994Y18926233D01*
X36667967Y18738410D01*
X36647325Y18542000D01*
X35996171Y18542000D01*
X35975540Y18738304D01*
X35914543Y18926028D01*
X35914540Y18926035D01*
X35815853Y19096967D01*
X35815850Y19096971D01*
X35801979Y19112376D01*
X35491085Y18801483D01*
X35460102Y18855147D01*
X35365147Y18950102D01*
X35311480Y18981087D01*
X35620222Y19289829D01*
X35620222Y19289830D01*
X35524086Y19359677D01*
X35343765Y19439961D01*
X35150689Y19481000D01*
X34953311Y19481000D01*
X34760234Y19439961D01*
X34579912Y19359677D01*
X34579911Y19359676D01*
X34483776Y19289830D01*
X34483776Y19289828D01*
X34792518Y18981086D01*
X34738853Y18950102D01*
X34643898Y18855147D01*
X34612913Y18801481D01*
X34302018Y19112376D01*
X34288149Y19096972D01*
X34189459Y18926035D01*
X34189456Y18926028D01*
X34128459Y18738304D01*
X34107828Y18542000D01*
X33456675Y18542000D01*
X33436032Y18738409D01*
X33417320Y18796000D01*
X33375005Y18926233D01*
X33322458Y19017245D01*
X33276258Y19097266D01*
X33276254Y19097271D01*
X33276252Y19097274D01*
X33144114Y19244028D01*
X32984338Y19360113D01*
X32803921Y19440439D01*
X32610745Y19481500D01*
X32413255Y19481500D01*
X32220078Y19440439D01*
X32039662Y19360113D01*
X31879886Y19244029D01*
X31747747Y19097274D01*
X31747743Y19097268D01*
X31747742Y19097266D01*
X31734161Y19073743D01*
X31648994Y18926233D01*
X31587967Y18738410D01*
X31567325Y18542000D01*
X27145986Y18542000D01*
X27139435Y18587559D01*
X27149538Y18621967D01*
X27162919Y18651266D01*
X27169136Y18694502D01*
X27183729Y18795997D01*
X27183729Y18796004D01*
X27162920Y18940728D01*
X27162919Y18940729D01*
X27162919Y18940734D01*
X27102176Y19073743D01*
X27006421Y19184250D01*
X27006420Y19184251D01*
X26913402Y19244030D01*
X26883411Y19263304D01*
X26825675Y19280257D01*
X26743114Y19304500D01*
X26743111Y19304500D01*
X26596889Y19304500D01*
X26596885Y19304500D01*
X26456589Y19263304D01*
X26456587Y19263303D01*
X26333579Y19184251D01*
X26237824Y19073744D01*
X26177081Y18940735D01*
X26177079Y18940728D01*
X26156271Y18796004D01*
X7650469Y18796004D01*
X7622909Y18843739D01*
X7609219Y18858943D01*
X7490651Y18990627D01*
X7330740Y19106809D01*
X7150169Y19187204D01*
X6956829Y19228300D01*
X6759171Y19228300D01*
X6604499Y19195424D01*
X6565830Y19187204D01*
X6385256Y19106807D01*
X6225348Y18990627D01*
X6093091Y18843740D01*
X5994261Y18672561D01*
X5994259Y18672556D01*
X5933181Y18484577D01*
X5912521Y18288000D01*
X5263479Y18288000D01*
X5242818Y18484576D01*
X5237383Y18501304D01*
X5181740Y18672556D01*
X5181738Y18672561D01*
X5153423Y18721605D01*
X5082909Y18843739D01*
X5069219Y18858943D01*
X4950651Y18990627D01*
X4790740Y19106809D01*
X4610169Y19187204D01*
X4416829Y19228300D01*
X4219171Y19228300D01*
X4064499Y19195424D01*
X4025830Y19187204D01*
X3845256Y19106807D01*
X3685348Y18990627D01*
X3553091Y18843740D01*
X3454261Y18672561D01*
X3454259Y18672556D01*
X3393181Y18484577D01*
X3372521Y18288000D01*
X2722976Y18288000D01*
X2702327Y18484472D01*
X2641278Y18672356D01*
X2641275Y18672363D01*
X2542504Y18843441D01*
X2542501Y18843445D01*
X2528546Y18858943D01*
X2215621Y18546019D01*
X2184502Y18599920D01*
X2089920Y18694502D01*
X2036016Y18725623D01*
X2346796Y19036403D01*
X2346796Y19036404D01*
X2250489Y19106374D01*
X2250490Y19106374D01*
X2070013Y19186728D01*
X1876778Y19227800D01*
X1679222Y19227800D01*
X1485989Y19186728D01*
X1305510Y19106374D01*
X1305509Y19106373D01*
X1209203Y19036403D01*
X1209203Y19036401D01*
X1519981Y18725623D01*
X1466080Y18694502D01*
X1371498Y18599920D01*
X1340377Y18546019D01*
X1027453Y18858943D01*
X1027450Y18858943D01*
X1013505Y18843454D01*
X1013497Y18843443D01*
X914724Y18672363D01*
X914721Y18672356D01*
X853672Y18484472D01*
X833023Y18288000D01*
X76700Y18288000D01*
X76700Y19558004D01*
X23362271Y19558004D01*
X23362271Y19557997D01*
X23383079Y19413273D01*
X23383081Y19413266D01*
X23443824Y19280257D01*
X23539579Y19169750D01*
X23662589Y19090696D01*
X23782039Y19055622D01*
X23802885Y19049501D01*
X23802886Y19049501D01*
X23802889Y19049500D01*
X23802892Y19049500D01*
X23949108Y19049500D01*
X23949111Y19049500D01*
X24089411Y19090696D01*
X24212421Y19169750D01*
X24308176Y19280257D01*
X24368919Y19413266D01*
X24389729Y19558000D01*
X24389729Y19558004D01*
X24368920Y19702728D01*
X24368919Y19702729D01*
X24368919Y19702734D01*
X24308176Y19835743D01*
X24212421Y19946250D01*
X24212420Y19946251D01*
X24114483Y20009191D01*
X24089411Y20025304D01*
X24054336Y20035603D01*
X23949114Y20066500D01*
X23949111Y20066500D01*
X23802889Y20066500D01*
X23802885Y20066500D01*
X23662589Y20025304D01*
X23662587Y20025303D01*
X23539579Y19946251D01*
X23443824Y19835744D01*
X23383081Y19702735D01*
X23383079Y19702728D01*
X23362271Y19558004D01*
X76700Y19558004D01*
X76700Y20828000D01*
X833023Y20828000D01*
X853672Y20631529D01*
X914721Y20443645D01*
X914724Y20443638D01*
X1013495Y20272560D01*
X1013498Y20272556D01*
X1027452Y20257059D01*
X1340377Y20569984D01*
X1371498Y20516080D01*
X1466080Y20421498D01*
X1519982Y20390378D01*
X1209202Y20079599D01*
X1209202Y20079598D01*
X1305508Y20009628D01*
X1305509Y20009627D01*
X1485986Y19929273D01*
X1679222Y19888200D01*
X1876778Y19888200D01*
X2070013Y19929273D01*
X2250489Y20009627D01*
X2346796Y20079599D01*
X2346796Y20079600D01*
X2036018Y20390378D01*
X2089920Y20421498D01*
X2184502Y20516080D01*
X2215622Y20569982D01*
X2528545Y20257059D01*
X2528547Y20257059D01*
X2542498Y20272552D01*
X2542501Y20272557D01*
X2641275Y20443638D01*
X2641278Y20443645D01*
X2702327Y20631529D01*
X2722976Y20828000D01*
X3372521Y20828000D01*
X3393181Y20631424D01*
X3454259Y20443445D01*
X3454261Y20443440D01*
X3553091Y20272261D01*
X3685348Y20125374D01*
X3685351Y20125372D01*
X3845260Y20009191D01*
X4025831Y19928796D01*
X4219171Y19887700D01*
X4219175Y19887700D01*
X4416825Y19887700D01*
X4416829Y19887700D01*
X4610169Y19928796D01*
X4790740Y20009191D01*
X4950649Y20125372D01*
X5082909Y20272261D01*
X5181738Y20443439D01*
X5205341Y20516080D01*
X5242818Y20631424D01*
X5247282Y20673898D01*
X5263479Y20828000D01*
X5912521Y20828000D01*
X5933181Y20631424D01*
X5994259Y20443445D01*
X5994261Y20443440D01*
X6093091Y20272261D01*
X6225348Y20125374D01*
X6225351Y20125372D01*
X6385260Y20009191D01*
X6565831Y19928796D01*
X6759171Y19887700D01*
X6759175Y19887700D01*
X6956825Y19887700D01*
X6956829Y19887700D01*
X7150169Y19928796D01*
X7330740Y20009191D01*
X7490649Y20125372D01*
X7622909Y20272261D01*
X7721738Y20443439D01*
X7745341Y20516080D01*
X7782818Y20631424D01*
X7787282Y20673898D01*
X7803479Y20828000D01*
X7782818Y21024576D01*
X7782818Y21024577D01*
X7721740Y21212556D01*
X7721738Y21212561D01*
X7693423Y21261605D01*
X7650469Y21336004D01*
X9392271Y21336004D01*
X9392271Y21335997D01*
X9413079Y21191273D01*
X9413081Y21191266D01*
X9473824Y21058257D01*
X9569579Y20947750D01*
X9692589Y20868696D01*
X9812039Y20833622D01*
X9832885Y20827501D01*
X9832886Y20827501D01*
X9832889Y20827500D01*
X9832892Y20827500D01*
X9979108Y20827500D01*
X9979111Y20827500D01*
X10119411Y20868696D01*
X10242421Y20947750D01*
X10242426Y20947756D01*
X10245516Y20950433D01*
X10249249Y20952139D01*
X10250002Y20952622D01*
X10250071Y20952514D01*
X10310095Y20979930D01*
X10380369Y20969831D01*
X10434028Y20923342D01*
X10442649Y20907556D01*
X10478981Y20828000D01*
X10489824Y20804257D01*
X10585579Y20693750D01*
X10708589Y20614696D01*
X10828039Y20579622D01*
X10848885Y20573501D01*
X10848886Y20573501D01*
X10848889Y20573500D01*
X10848892Y20573500D01*
X10995108Y20573500D01*
X10995111Y20573500D01*
X11135411Y20614696D01*
X11258421Y20693750D01*
X11354176Y20804257D01*
X11414919Y20937266D01*
X11421053Y20979930D01*
X11435729Y21081997D01*
X11435729Y21082000D01*
X31567325Y21082000D01*
X31587967Y20885591D01*
X31648994Y20697768D01*
X31687013Y20631919D01*
X31747742Y20526734D01*
X31747744Y20526731D01*
X31747747Y20526727D01*
X31879885Y20379973D01*
X31879888Y20379971D01*
X31879889Y20379970D01*
X32039662Y20263887D01*
X32220079Y20183561D01*
X32413255Y20142500D01*
X32610745Y20142500D01*
X32803921Y20183561D01*
X32984338Y20263887D01*
X33144111Y20379970D01*
X33201438Y20443638D01*
X33276252Y20526727D01*
X33276252Y20526728D01*
X33276258Y20526734D01*
X33375004Y20697766D01*
X33375072Y20697973D01*
X33436032Y20885591D01*
X33437798Y20902395D01*
X33456675Y21082000D01*
X34107828Y21082000D01*
X34128459Y20885697D01*
X34189456Y20697973D01*
X34189459Y20697966D01*
X34288145Y20527036D01*
X34288147Y20527033D01*
X34302019Y20511626D01*
X34612913Y20822521D01*
X34643898Y20768853D01*
X34738853Y20673898D01*
X34792518Y20642915D01*
X34483776Y20334173D01*
X34483776Y20334172D01*
X34579913Y20264324D01*
X34760234Y20184040D01*
X34953311Y20143000D01*
X35150689Y20143000D01*
X35343765Y20184040D01*
X35524082Y20264322D01*
X35620222Y20334173D01*
X35620222Y20334174D01*
X35311481Y20642915D01*
X35365147Y20673898D01*
X35460102Y20768853D01*
X35491085Y20822519D01*
X35801979Y20511625D01*
X35815850Y20527030D01*
X35815852Y20527032D01*
X35914540Y20697966D01*
X35914543Y20697973D01*
X35975540Y20885697D01*
X35996171Y21082000D01*
X36647325Y21082000D01*
X36667967Y20885591D01*
X36728994Y20697768D01*
X36767013Y20631919D01*
X36827742Y20526734D01*
X36827744Y20526731D01*
X36827747Y20526727D01*
X36959885Y20379973D01*
X36959888Y20379971D01*
X36959889Y20379970D01*
X37119662Y20263887D01*
X37300079Y20183561D01*
X37493255Y20142500D01*
X37690745Y20142500D01*
X37883921Y20183561D01*
X38064338Y20263887D01*
X38224111Y20379970D01*
X38281438Y20443638D01*
X38356252Y20526727D01*
X38356252Y20526728D01*
X38356258Y20526734D01*
X38455004Y20697766D01*
X38455072Y20697973D01*
X38516032Y20885591D01*
X38517798Y20902395D01*
X38536675Y21082000D01*
X39187325Y21082000D01*
X39207967Y20885591D01*
X39268994Y20697768D01*
X39307013Y20631919D01*
X39367742Y20526734D01*
X39367744Y20526731D01*
X39367747Y20526727D01*
X39499885Y20379973D01*
X39499888Y20379971D01*
X39499889Y20379970D01*
X39659662Y20263887D01*
X39840079Y20183561D01*
X40033255Y20142500D01*
X40230745Y20142500D01*
X40423921Y20183561D01*
X40604338Y20263887D01*
X40764111Y20379970D01*
X40821438Y20443638D01*
X40896252Y20526727D01*
X40896252Y20526728D01*
X40896258Y20526734D01*
X40995004Y20697766D01*
X40995072Y20697973D01*
X41056032Y20885591D01*
X41057798Y20902395D01*
X41076675Y21082000D01*
X41727325Y21082000D01*
X41747967Y20885591D01*
X41808994Y20697768D01*
X41847013Y20631919D01*
X41907742Y20526734D01*
X41907744Y20526731D01*
X41907747Y20526727D01*
X42039885Y20379973D01*
X42039888Y20379971D01*
X42039889Y20379970D01*
X42199662Y20263887D01*
X42380079Y20183561D01*
X42573255Y20142500D01*
X42770745Y20142500D01*
X42963921Y20183561D01*
X43144338Y20263887D01*
X43304111Y20379970D01*
X43361438Y20443638D01*
X43436252Y20526727D01*
X43436252Y20526728D01*
X43436258Y20526734D01*
X43535004Y20697766D01*
X43535072Y20697973D01*
X43596032Y20885591D01*
X43597798Y20902395D01*
X43616675Y21082000D01*
X43596032Y21278409D01*
X43577320Y21336000D01*
X43535005Y21466233D01*
X43497826Y21530628D01*
X43436258Y21637266D01*
X43436254Y21637271D01*
X43436252Y21637274D01*
X43304114Y21784028D01*
X43291944Y21792870D01*
X44271700Y21792870D01*
X44271700Y20371137D01*
X44271701Y20371127D01*
X44286465Y20296900D01*
X44342716Y20212716D01*
X44426897Y20156467D01*
X44426899Y20156466D01*
X44501133Y20141700D01*
X45922866Y20141701D01*
X45922869Y20141702D01*
X45922873Y20141702D01*
X45972126Y20151499D01*
X45997101Y20156466D01*
X46081284Y20212716D01*
X46137534Y20296899D01*
X46152300Y20371133D01*
X46152299Y21792866D01*
X46152298Y21792870D01*
X46152298Y21792874D01*
X46137534Y21867101D01*
X46081283Y21951285D01*
X45997102Y22007534D01*
X45922867Y22022300D01*
X44501136Y22022300D01*
X44501126Y22022299D01*
X44426899Y22007535D01*
X44342715Y21951284D01*
X44286466Y21867103D01*
X44271700Y21792870D01*
X43291944Y21792870D01*
X43144338Y21900113D01*
X42963921Y21980439D01*
X42770745Y22021500D01*
X42573255Y22021500D01*
X42380078Y21980439D01*
X42199662Y21900113D01*
X42039886Y21784029D01*
X41907747Y21637274D01*
X41907743Y21637268D01*
X41907742Y21637266D01*
X41894161Y21613743D01*
X41808994Y21466233D01*
X41747967Y21278410D01*
X41727325Y21082000D01*
X41076675Y21082000D01*
X41056032Y21278409D01*
X41037320Y21336000D01*
X40995005Y21466233D01*
X40957826Y21530628D01*
X40896258Y21637266D01*
X40896254Y21637271D01*
X40896252Y21637274D01*
X40764114Y21784028D01*
X40604338Y21900113D01*
X40423921Y21980439D01*
X40230745Y22021500D01*
X40033255Y22021500D01*
X39840078Y21980439D01*
X39659662Y21900113D01*
X39499886Y21784029D01*
X39367747Y21637274D01*
X39367743Y21637268D01*
X39367742Y21637266D01*
X39354161Y21613743D01*
X39268994Y21466233D01*
X39207967Y21278410D01*
X39187325Y21082000D01*
X38536675Y21082000D01*
X38516032Y21278409D01*
X38497320Y21336000D01*
X38455005Y21466233D01*
X38417826Y21530628D01*
X38356258Y21637266D01*
X38356254Y21637271D01*
X38356252Y21637274D01*
X38224114Y21784028D01*
X38064338Y21900113D01*
X37883921Y21980439D01*
X37690745Y22021500D01*
X37493255Y22021500D01*
X37300078Y21980439D01*
X37119662Y21900113D01*
X36959886Y21784029D01*
X36827747Y21637274D01*
X36827743Y21637268D01*
X36827742Y21637266D01*
X36814161Y21613743D01*
X36728994Y21466233D01*
X36667967Y21278410D01*
X36647325Y21082000D01*
X35996171Y21082000D01*
X35975540Y21278304D01*
X35914543Y21466028D01*
X35914540Y21466035D01*
X35815853Y21636967D01*
X35815850Y21636971D01*
X35801979Y21652376D01*
X35491085Y21341483D01*
X35460102Y21395147D01*
X35365147Y21490102D01*
X35311480Y21521087D01*
X35620222Y21829829D01*
X35620222Y21829830D01*
X35524086Y21899677D01*
X35343765Y21979961D01*
X35150689Y22021000D01*
X34953311Y22021000D01*
X34760234Y21979961D01*
X34579912Y21899677D01*
X34579911Y21899676D01*
X34483776Y21829830D01*
X34483776Y21829828D01*
X34792518Y21521086D01*
X34738853Y21490102D01*
X34643898Y21395147D01*
X34612913Y21341481D01*
X34302018Y21652376D01*
X34288149Y21636972D01*
X34189459Y21466035D01*
X34189456Y21466028D01*
X34128459Y21278304D01*
X34107828Y21082000D01*
X33456675Y21082000D01*
X33436032Y21278409D01*
X33417320Y21336000D01*
X33375005Y21466233D01*
X33337826Y21530628D01*
X33276258Y21637266D01*
X33276254Y21637271D01*
X33276252Y21637274D01*
X33144114Y21784028D01*
X32984338Y21900113D01*
X32803921Y21980439D01*
X32610745Y22021500D01*
X32413255Y22021500D01*
X32220078Y21980439D01*
X32039662Y21900113D01*
X31879886Y21784029D01*
X31747747Y21637274D01*
X31747743Y21637268D01*
X31747742Y21637266D01*
X31734161Y21613743D01*
X31648994Y21466233D01*
X31587967Y21278410D01*
X31567325Y21082000D01*
X11435729Y21082000D01*
X11435729Y21082004D01*
X11414920Y21226728D01*
X11414919Y21226729D01*
X11414919Y21226734D01*
X11354176Y21359743D01*
X11258421Y21470250D01*
X11258420Y21470251D01*
X11164471Y21530628D01*
X11135411Y21549304D01*
X11100336Y21559603D01*
X10995114Y21590500D01*
X10995111Y21590500D01*
X10848889Y21590500D01*
X10848885Y21590500D01*
X10708589Y21549304D01*
X10708587Y21549303D01*
X10585578Y21470250D01*
X10582473Y21467559D01*
X10578737Y21465854D01*
X10577998Y21465378D01*
X10577929Y21465485D01*
X10517891Y21438069D01*
X10447617Y21448175D01*
X10393963Y21494670D01*
X10385350Y21510445D01*
X10338176Y21613743D01*
X10242421Y21724250D01*
X10242420Y21724251D01*
X10149402Y21784030D01*
X10119411Y21803304D01*
X10084336Y21813603D01*
X9979114Y21844500D01*
X9979111Y21844500D01*
X9832889Y21844500D01*
X9832885Y21844500D01*
X9692589Y21803304D01*
X9692587Y21803303D01*
X9569579Y21724251D01*
X9473824Y21613744D01*
X9413081Y21480735D01*
X9413079Y21480728D01*
X9392271Y21336004D01*
X7650469Y21336004D01*
X7622909Y21383739D01*
X7573990Y21438069D01*
X7490651Y21530627D01*
X7330740Y21646809D01*
X7150169Y21727204D01*
X6956829Y21768300D01*
X6759171Y21768300D01*
X6604499Y21735424D01*
X6565830Y21727204D01*
X6385256Y21646807D01*
X6225348Y21530627D01*
X6093091Y21383740D01*
X5994261Y21212561D01*
X5994259Y21212556D01*
X5933181Y21024577D01*
X5912521Y20828000D01*
X5263479Y20828000D01*
X5242818Y21024576D01*
X5242818Y21024577D01*
X5181740Y21212556D01*
X5181738Y21212561D01*
X5153423Y21261605D01*
X5082909Y21383739D01*
X5033990Y21438069D01*
X4950651Y21530627D01*
X4790740Y21646809D01*
X4610169Y21727204D01*
X4416829Y21768300D01*
X4219171Y21768300D01*
X4064499Y21735424D01*
X4025830Y21727204D01*
X3845256Y21646807D01*
X3685348Y21530627D01*
X3553091Y21383740D01*
X3454261Y21212561D01*
X3454259Y21212556D01*
X3393181Y21024577D01*
X3372521Y20828000D01*
X2722976Y20828000D01*
X2702327Y21024472D01*
X2641278Y21212356D01*
X2641275Y21212363D01*
X2542504Y21383441D01*
X2542501Y21383445D01*
X2528546Y21398943D01*
X2215621Y21086019D01*
X2184502Y21139920D01*
X2089920Y21234502D01*
X2036016Y21265623D01*
X2346796Y21576403D01*
X2346796Y21576404D01*
X2250489Y21646374D01*
X2250490Y21646374D01*
X2070013Y21726728D01*
X1876778Y21767800D01*
X1679222Y21767800D01*
X1485989Y21726728D01*
X1305510Y21646374D01*
X1305509Y21646373D01*
X1209203Y21576403D01*
X1209203Y21576401D01*
X1519981Y21265623D01*
X1466080Y21234502D01*
X1371498Y21139920D01*
X1340377Y21086019D01*
X1027453Y21398943D01*
X1027450Y21398943D01*
X1013505Y21383454D01*
X1013497Y21383443D01*
X914724Y21212363D01*
X914721Y21212356D01*
X853672Y21024472D01*
X833023Y20828000D01*
X76700Y20828000D01*
X76700Y22352004D01*
X23108271Y22352004D01*
X23108271Y22351997D01*
X23129079Y22207273D01*
X23129081Y22207266D01*
X23189824Y22074257D01*
X23285579Y21963750D01*
X23408589Y21884696D01*
X23528039Y21849622D01*
X23548885Y21843501D01*
X23548886Y21843501D01*
X23548889Y21843500D01*
X23548892Y21843500D01*
X23695108Y21843500D01*
X23695111Y21843500D01*
X23835411Y21884696D01*
X23958421Y21963750D01*
X24054176Y22074257D01*
X24114919Y22207266D01*
X24132283Y22328030D01*
X24143229Y22352001D01*
X24370770Y22352001D01*
X24381717Y22328030D01*
X24399079Y22207273D01*
X24399081Y22207266D01*
X24459824Y22074257D01*
X24555579Y21963750D01*
X24678589Y21884696D01*
X24798039Y21849622D01*
X24818885Y21843501D01*
X24818886Y21843501D01*
X24818889Y21843500D01*
X24818892Y21843500D01*
X24965108Y21843500D01*
X24965111Y21843500D01*
X25105411Y21884696D01*
X25228421Y21963750D01*
X25324176Y22074257D01*
X25384919Y22207266D01*
X25405729Y22352000D01*
X25405729Y22352001D01*
X25405729Y22352004D01*
X25384920Y22496728D01*
X25384919Y22496729D01*
X25384919Y22496734D01*
X25324176Y22629743D01*
X25228421Y22740250D01*
X25228420Y22740251D01*
X25115911Y22812556D01*
X25105411Y22819304D01*
X25070336Y22829603D01*
X24965114Y22860500D01*
X24965111Y22860500D01*
X24818889Y22860500D01*
X24818885Y22860500D01*
X24678589Y22819304D01*
X24678587Y22819303D01*
X24555579Y22740251D01*
X24459824Y22629744D01*
X24399081Y22496735D01*
X24399079Y22496728D01*
X24381717Y22375971D01*
X24370770Y22352001D01*
X24143229Y22352001D01*
X24132283Y22375971D01*
X24114920Y22496728D01*
X24114919Y22496729D01*
X24114919Y22496734D01*
X24054176Y22629743D01*
X23958421Y22740250D01*
X23958420Y22740251D01*
X23845911Y22812556D01*
X23835411Y22819304D01*
X23800336Y22829603D01*
X23695114Y22860500D01*
X23695111Y22860500D01*
X23548889Y22860500D01*
X23548885Y22860500D01*
X23408589Y22819304D01*
X23408587Y22819303D01*
X23285579Y22740251D01*
X23189824Y22629744D01*
X23129081Y22496735D01*
X23129079Y22496728D01*
X23108271Y22352004D01*
X76700Y22352004D01*
X76700Y23368000D01*
X833023Y23368000D01*
X853672Y23171529D01*
X914721Y22983645D01*
X914724Y22983638D01*
X1013495Y22812560D01*
X1013498Y22812556D01*
X1027452Y22797059D01*
X1340377Y23109984D01*
X1371498Y23056080D01*
X1466080Y22961498D01*
X1519982Y22930378D01*
X1209202Y22619599D01*
X1209202Y22619598D01*
X1305508Y22549628D01*
X1305509Y22549627D01*
X1485986Y22469273D01*
X1679222Y22428200D01*
X1876778Y22428200D01*
X2070013Y22469273D01*
X2250489Y22549627D01*
X2346796Y22619599D01*
X2346796Y22619600D01*
X2036018Y22930378D01*
X2089920Y22961498D01*
X2184502Y23056080D01*
X2215622Y23109982D01*
X2528545Y22797059D01*
X2528547Y22797059D01*
X2542498Y22812552D01*
X2542501Y22812557D01*
X2641275Y22983638D01*
X2641278Y22983645D01*
X2702327Y23171529D01*
X2722976Y23368000D01*
X3372521Y23368000D01*
X3393181Y23171424D01*
X3454259Y22983445D01*
X3454261Y22983440D01*
X3553091Y22812261D01*
X3685348Y22665374D01*
X3685351Y22665372D01*
X3845260Y22549191D01*
X4025831Y22468796D01*
X4219171Y22427700D01*
X4219175Y22427700D01*
X4416825Y22427700D01*
X4416829Y22427700D01*
X4610169Y22468796D01*
X4790740Y22549191D01*
X4950649Y22665372D01*
X5082909Y22812261D01*
X5181738Y22983439D01*
X5205341Y23056080D01*
X5242818Y23171424D01*
X5244602Y23188395D01*
X5263479Y23368000D01*
X5912521Y23368000D01*
X5933181Y23171424D01*
X5994259Y22983445D01*
X5994261Y22983440D01*
X6093091Y22812261D01*
X6225348Y22665374D01*
X6225351Y22665372D01*
X6385260Y22549191D01*
X6565831Y22468796D01*
X6759171Y22427700D01*
X6759175Y22427700D01*
X6956825Y22427700D01*
X6956829Y22427700D01*
X7150169Y22468796D01*
X7330740Y22549191D01*
X7490649Y22665372D01*
X7622909Y22812261D01*
X7721738Y22983439D01*
X7745341Y23056080D01*
X7782818Y23171424D01*
X7784602Y23188395D01*
X7803479Y23368000D01*
X7782818Y23564576D01*
X7782818Y23564577D01*
X7721740Y23752556D01*
X7721738Y23752561D01*
X7623081Y23923441D01*
X7622909Y23923739D01*
X7609219Y23938943D01*
X7490651Y24070627D01*
X7330740Y24186809D01*
X7150169Y24267204D01*
X6956829Y24308300D01*
X6759171Y24308300D01*
X6604499Y24275424D01*
X6565830Y24267204D01*
X6385256Y24186807D01*
X6225348Y24070627D01*
X6093091Y23923740D01*
X5994261Y23752561D01*
X5994259Y23752556D01*
X5933181Y23564577D01*
X5912521Y23368000D01*
X5263479Y23368000D01*
X5242818Y23564576D01*
X5242818Y23564577D01*
X5181740Y23752556D01*
X5181738Y23752561D01*
X5083081Y23923441D01*
X5082909Y23923739D01*
X5069219Y23938943D01*
X4950651Y24070627D01*
X4790740Y24186809D01*
X4610169Y24267204D01*
X4416829Y24308300D01*
X4219171Y24308300D01*
X4064499Y24275424D01*
X4025830Y24267204D01*
X3845256Y24186807D01*
X3685348Y24070627D01*
X3553091Y23923740D01*
X3454261Y23752561D01*
X3454259Y23752556D01*
X3393181Y23564577D01*
X3372521Y23368000D01*
X2722976Y23368000D01*
X2702327Y23564472D01*
X2641278Y23752356D01*
X2641275Y23752363D01*
X2542504Y23923441D01*
X2542501Y23923445D01*
X2528546Y23938943D01*
X2215621Y23626019D01*
X2184502Y23679920D01*
X2089920Y23774502D01*
X2036016Y23805623D01*
X2346796Y24116403D01*
X2346796Y24116404D01*
X2250489Y24186374D01*
X2250490Y24186374D01*
X2070013Y24266728D01*
X1876778Y24307800D01*
X1679222Y24307800D01*
X1485989Y24266728D01*
X1305510Y24186374D01*
X1305509Y24186373D01*
X1209203Y24116403D01*
X1209203Y24116401D01*
X1519981Y23805623D01*
X1466080Y23774502D01*
X1371498Y23679920D01*
X1340377Y23626019D01*
X1027453Y23938943D01*
X1027450Y23938943D01*
X1013505Y23923454D01*
X1013497Y23923443D01*
X914724Y23752363D01*
X914721Y23752356D01*
X853672Y23564472D01*
X833023Y23368000D01*
X76700Y23368000D01*
X76700Y25908000D01*
X833023Y25908000D01*
X853672Y25711529D01*
X914721Y25523645D01*
X914724Y25523638D01*
X1013495Y25352560D01*
X1013498Y25352556D01*
X1027452Y25337059D01*
X1340377Y25649984D01*
X1371498Y25596080D01*
X1466080Y25501498D01*
X1519982Y25470378D01*
X1209202Y25159599D01*
X1209202Y25159598D01*
X1305508Y25089628D01*
X1305509Y25089627D01*
X1485986Y25009273D01*
X1679222Y24968200D01*
X1876778Y24968200D01*
X2070013Y25009273D01*
X2250489Y25089627D01*
X2346796Y25159599D01*
X2346796Y25159600D01*
X2036018Y25470378D01*
X2089920Y25501498D01*
X2184502Y25596080D01*
X2215622Y25649982D01*
X2528545Y25337059D01*
X2528547Y25337059D01*
X2542498Y25352552D01*
X2542501Y25352557D01*
X2641275Y25523638D01*
X2641278Y25523645D01*
X2702327Y25711529D01*
X2722976Y25908000D01*
X3372521Y25908000D01*
X3393181Y25711424D01*
X3454259Y25523445D01*
X3454261Y25523440D01*
X3553091Y25352261D01*
X3685348Y25205374D01*
X3685351Y25205372D01*
X3845260Y25089191D01*
X4025831Y25008796D01*
X4219171Y24967700D01*
X4219175Y24967700D01*
X4416825Y24967700D01*
X4416829Y24967700D01*
X4610169Y25008796D01*
X4790740Y25089191D01*
X4950649Y25205372D01*
X5082909Y25352261D01*
X5181738Y25523439D01*
X5205341Y25596080D01*
X5242818Y25711424D01*
X5248267Y25763266D01*
X5263479Y25908000D01*
X5912521Y25908000D01*
X5933181Y25711424D01*
X5994259Y25523445D01*
X5994261Y25523440D01*
X6093091Y25352261D01*
X6225348Y25205374D01*
X6225351Y25205372D01*
X6385260Y25089191D01*
X6565831Y25008796D01*
X6759171Y24967700D01*
X6759175Y24967700D01*
X6956825Y24967700D01*
X6956829Y24967700D01*
X7150169Y25008796D01*
X7330740Y25089191D01*
X7490649Y25205372D01*
X7622909Y25352261D01*
X7721738Y25523439D01*
X7745341Y25596080D01*
X7782818Y25711424D01*
X7788267Y25763266D01*
X7803479Y25908000D01*
X7803479Y25908004D01*
X28696271Y25908004D01*
X28696271Y25907997D01*
X28717079Y25763273D01*
X28717081Y25763266D01*
X28777824Y25630257D01*
X28873579Y25519750D01*
X28996589Y25440696D01*
X29116039Y25405622D01*
X29136885Y25399501D01*
X29136886Y25399501D01*
X29136889Y25399500D01*
X29136892Y25399500D01*
X29283108Y25399500D01*
X29283111Y25399500D01*
X29423411Y25440696D01*
X29546421Y25519750D01*
X29642176Y25630257D01*
X29702919Y25763266D01*
X29723729Y25908000D01*
X29723729Y25908001D01*
X29723729Y25908004D01*
X29702920Y26052728D01*
X29702919Y26052729D01*
X29702919Y26052734D01*
X29642176Y26185743D01*
X29546421Y26296250D01*
X29546420Y26296251D01*
X29484916Y26335777D01*
X29423411Y26375304D01*
X29388336Y26385603D01*
X29283114Y26416500D01*
X29283111Y26416500D01*
X29136889Y26416500D01*
X29136885Y26416500D01*
X28996589Y26375304D01*
X28996587Y26375303D01*
X28873579Y26296251D01*
X28777824Y26185744D01*
X28717081Y26052735D01*
X28717079Y26052728D01*
X28696271Y25908004D01*
X7803479Y25908004D01*
X7782818Y26104576D01*
X7782818Y26104577D01*
X7721740Y26292556D01*
X7721738Y26292561D01*
X7673967Y26375303D01*
X7622909Y26463739D01*
X7609219Y26478943D01*
X7490651Y26610627D01*
X7330740Y26726809D01*
X7150169Y26807204D01*
X6956829Y26848300D01*
X6759171Y26848300D01*
X6604499Y26815424D01*
X6565830Y26807204D01*
X6385256Y26726807D01*
X6225348Y26610627D01*
X6093091Y26463740D01*
X5994261Y26292561D01*
X5994259Y26292556D01*
X5933181Y26104577D01*
X5912521Y25908000D01*
X5263479Y25908000D01*
X5242818Y26104576D01*
X5242818Y26104577D01*
X5181740Y26292556D01*
X5181738Y26292561D01*
X5133967Y26375303D01*
X5082909Y26463739D01*
X5069219Y26478943D01*
X4950651Y26610627D01*
X4790740Y26726809D01*
X4610169Y26807204D01*
X4416829Y26848300D01*
X4219171Y26848300D01*
X4064499Y26815424D01*
X4025830Y26807204D01*
X3845256Y26726807D01*
X3685348Y26610627D01*
X3553091Y26463740D01*
X3454261Y26292561D01*
X3454259Y26292556D01*
X3393181Y26104577D01*
X3372521Y25908000D01*
X2722976Y25908000D01*
X2702327Y26104472D01*
X2641278Y26292356D01*
X2641275Y26292363D01*
X2542504Y26463441D01*
X2542501Y26463445D01*
X2528546Y26478943D01*
X2215621Y26166019D01*
X2184502Y26219920D01*
X2089920Y26314502D01*
X2036016Y26345623D01*
X2346796Y26656403D01*
X2346796Y26656404D01*
X2250489Y26726374D01*
X2250490Y26726374D01*
X2070013Y26806728D01*
X1876778Y26847800D01*
X1679222Y26847800D01*
X1485989Y26806728D01*
X1305510Y26726374D01*
X1305509Y26726373D01*
X1209203Y26656403D01*
X1209203Y26656401D01*
X1519981Y26345623D01*
X1466080Y26314502D01*
X1371498Y26219920D01*
X1340377Y26166019D01*
X1027453Y26478943D01*
X1027450Y26478943D01*
X1013505Y26463454D01*
X1013497Y26463443D01*
X914724Y26292363D01*
X914721Y26292356D01*
X853672Y26104472D01*
X833023Y25908000D01*
X76700Y25908000D01*
X76700Y28448000D01*
X833023Y28448000D01*
X853672Y28251529D01*
X914721Y28063645D01*
X914724Y28063638D01*
X1013495Y27892560D01*
X1013498Y27892556D01*
X1027452Y27877059D01*
X1340377Y28189984D01*
X1371498Y28136080D01*
X1466080Y28041498D01*
X1519982Y28010378D01*
X1209202Y27699599D01*
X1209202Y27699598D01*
X1305508Y27629628D01*
X1305509Y27629627D01*
X1485986Y27549273D01*
X1679222Y27508200D01*
X1876778Y27508200D01*
X2070013Y27549273D01*
X2250489Y27629627D01*
X2346796Y27699599D01*
X2346796Y27699600D01*
X2036018Y28010378D01*
X2089920Y28041498D01*
X2184502Y28136080D01*
X2215622Y28189982D01*
X2528545Y27877059D01*
X2528547Y27877059D01*
X2542498Y27892552D01*
X2542501Y27892557D01*
X2641275Y28063638D01*
X2641278Y28063645D01*
X2702327Y28251529D01*
X2722976Y28448000D01*
X3372521Y28448000D01*
X3393181Y28251424D01*
X3454259Y28063445D01*
X3454261Y28063440D01*
X3553091Y27892261D01*
X3685348Y27745374D01*
X3685351Y27745372D01*
X3845260Y27629191D01*
X4025831Y27548796D01*
X4219171Y27507700D01*
X4219175Y27507700D01*
X4416825Y27507700D01*
X4416829Y27507700D01*
X4610169Y27548796D01*
X4790740Y27629191D01*
X4950649Y27745372D01*
X5082909Y27892261D01*
X5181738Y28063439D01*
X5205341Y28136080D01*
X5242818Y28251424D01*
X5244602Y28268395D01*
X5263479Y28448000D01*
X5912521Y28448000D01*
X5933181Y28251424D01*
X5994259Y28063445D01*
X5994261Y28063440D01*
X6093091Y27892261D01*
X6225348Y27745374D01*
X6225351Y27745372D01*
X6385260Y27629191D01*
X6565831Y27548796D01*
X6759171Y27507700D01*
X6759175Y27507700D01*
X6956825Y27507700D01*
X6956829Y27507700D01*
X7150169Y27548796D01*
X7330740Y27629191D01*
X7490649Y27745372D01*
X7622909Y27892261D01*
X7721738Y28063439D01*
X7745341Y28136080D01*
X7782818Y28251424D01*
X7784602Y28268395D01*
X7803479Y28448000D01*
X7782818Y28644576D01*
X7782818Y28644577D01*
X7721740Y28832556D01*
X7721738Y28832561D01*
X7670458Y28921381D01*
X7650469Y28956004D01*
X31998271Y28956004D01*
X31998271Y28955997D01*
X32019079Y28811273D01*
X32019081Y28811266D01*
X32079824Y28678257D01*
X32175579Y28567750D01*
X32298589Y28488696D01*
X32418039Y28453622D01*
X32438885Y28447501D01*
X32438886Y28447501D01*
X32438889Y28447500D01*
X32438892Y28447500D01*
X32585108Y28447500D01*
X32585111Y28447500D01*
X32725411Y28488696D01*
X32848421Y28567750D01*
X32944176Y28678257D01*
X33004919Y28811266D01*
X33011136Y28854502D01*
X33025729Y28955997D01*
X33025729Y28956004D01*
X33004920Y29100728D01*
X33004919Y29100729D01*
X33004919Y29100734D01*
X32944176Y29233743D01*
X32848421Y29344250D01*
X32848420Y29344251D01*
X32779878Y29388300D01*
X32725411Y29423304D01*
X32667675Y29440257D01*
X32585114Y29464500D01*
X32585111Y29464500D01*
X32438889Y29464500D01*
X32438885Y29464500D01*
X32298589Y29423304D01*
X32298587Y29423303D01*
X32175579Y29344251D01*
X32079824Y29233744D01*
X32019081Y29100735D01*
X32019079Y29100728D01*
X31998271Y28956004D01*
X7650469Y28956004D01*
X7622909Y29003739D01*
X7609219Y29018943D01*
X7490651Y29150627D01*
X7330740Y29266809D01*
X7150169Y29347204D01*
X6956829Y29388300D01*
X6759171Y29388300D01*
X6604499Y29355424D01*
X6565830Y29347204D01*
X6385256Y29266807D01*
X6225348Y29150627D01*
X6093091Y29003740D01*
X5994261Y28832561D01*
X5994259Y28832556D01*
X5933181Y28644577D01*
X5912521Y28448000D01*
X5263479Y28448000D01*
X5242818Y28644576D01*
X5242818Y28644577D01*
X5181740Y28832556D01*
X5181738Y28832561D01*
X5130458Y28921381D01*
X5082909Y29003739D01*
X5069219Y29018943D01*
X4950651Y29150627D01*
X4790740Y29266809D01*
X4610169Y29347204D01*
X4416829Y29388300D01*
X4219171Y29388300D01*
X4064499Y29355424D01*
X4025830Y29347204D01*
X3845256Y29266807D01*
X3685348Y29150627D01*
X3553091Y29003740D01*
X3454261Y28832561D01*
X3454259Y28832556D01*
X3393181Y28644577D01*
X3372521Y28448000D01*
X2722976Y28448000D01*
X2702327Y28644472D01*
X2641278Y28832356D01*
X2641275Y28832363D01*
X2542504Y29003441D01*
X2542501Y29003445D01*
X2528546Y29018943D01*
X2215621Y28706019D01*
X2184502Y28759920D01*
X2089920Y28854502D01*
X2036016Y28885623D01*
X2346796Y29196403D01*
X2346796Y29196404D01*
X2250489Y29266374D01*
X2250490Y29266374D01*
X2070013Y29346728D01*
X1876778Y29387800D01*
X1679222Y29387800D01*
X1485989Y29346728D01*
X1305510Y29266374D01*
X1305509Y29266373D01*
X1209203Y29196403D01*
X1209203Y29196401D01*
X1519981Y28885623D01*
X1466080Y28854502D01*
X1371498Y28759920D01*
X1340377Y28706019D01*
X1027453Y29018943D01*
X1027450Y29018943D01*
X1013505Y29003454D01*
X1013497Y29003443D01*
X914724Y28832363D01*
X914721Y28832356D01*
X853672Y28644472D01*
X833023Y28448000D01*
X76700Y28448000D01*
X76700Y29718004D01*
X28696271Y29718004D01*
X28696271Y29717997D01*
X28717079Y29573273D01*
X28717081Y29573266D01*
X28777824Y29440257D01*
X28873579Y29329750D01*
X28996589Y29250696D01*
X29116039Y29215622D01*
X29136885Y29209501D01*
X29136886Y29209501D01*
X29136889Y29209500D01*
X29136892Y29209500D01*
X29283108Y29209500D01*
X29283111Y29209500D01*
X29423411Y29250696D01*
X29546421Y29329750D01*
X29642176Y29440257D01*
X29702919Y29573266D01*
X29723729Y29718000D01*
X29723729Y29718004D01*
X29702920Y29862728D01*
X29702919Y29862729D01*
X29702919Y29862734D01*
X29642176Y29995743D01*
X29546421Y30106250D01*
X29546420Y30106251D01*
X29448483Y30169191D01*
X29423411Y30185304D01*
X29362828Y30203093D01*
X29283114Y30226500D01*
X29283111Y30226500D01*
X29136889Y30226500D01*
X29136885Y30226500D01*
X28996589Y30185304D01*
X28996587Y30185303D01*
X28873579Y30106251D01*
X28777824Y29995744D01*
X28717081Y29862735D01*
X28717079Y29862728D01*
X28696271Y29718004D01*
X76700Y29718004D01*
X76700Y31698823D01*
X838200Y31698823D01*
X838200Y31115000D01*
X1286109Y31115000D01*
X1270000Y31054880D01*
X1270000Y30921120D01*
X1286109Y30861000D01*
X838201Y30861000D01*
X838201Y30277178D01*
X852937Y30203095D01*
X852937Y30203093D01*
X909075Y30119076D01*
X993093Y30062938D01*
X993094Y30062937D01*
X1067180Y30048201D01*
X1651000Y30048201D01*
X1651000Y30496109D01*
X1711120Y30480000D01*
X1844880Y30480000D01*
X1905000Y30496109D01*
X1905000Y30048201D01*
X2488814Y30048201D01*
X2488822Y30048202D01*
X2562905Y30062938D01*
X2562907Y30062938D01*
X2646924Y30119076D01*
X2703062Y30203094D01*
X2703063Y30203095D01*
X2717799Y30277178D01*
X2717800Y30277185D01*
X2717800Y30861000D01*
X2269891Y30861000D01*
X2286000Y30921120D01*
X2286000Y30988000D01*
X3372521Y30988000D01*
X3393181Y30791424D01*
X3454259Y30603445D01*
X3454261Y30603440D01*
X3553091Y30432261D01*
X3685348Y30285374D01*
X3685351Y30285372D01*
X3845260Y30169191D01*
X4025831Y30088796D01*
X4219171Y30047700D01*
X4219175Y30047700D01*
X4416825Y30047700D01*
X4416829Y30047700D01*
X4610169Y30088796D01*
X4790740Y30169191D01*
X4950649Y30285372D01*
X5082909Y30432261D01*
X5181738Y30603439D01*
X5205341Y30676080D01*
X5242818Y30791424D01*
X5248267Y30843266D01*
X5263479Y30988000D01*
X5912521Y30988000D01*
X5933181Y30791424D01*
X5994259Y30603445D01*
X5994261Y30603440D01*
X6093091Y30432261D01*
X6225348Y30285374D01*
X6225351Y30285372D01*
X6385260Y30169191D01*
X6565831Y30088796D01*
X6759171Y30047700D01*
X6759175Y30047700D01*
X6956825Y30047700D01*
X6956829Y30047700D01*
X7150169Y30088796D01*
X7330740Y30169191D01*
X7490649Y30285372D01*
X7622909Y30432261D01*
X7721738Y30603439D01*
X7745341Y30676080D01*
X7782818Y30791424D01*
X7788267Y30843266D01*
X7803479Y30988000D01*
X7803479Y30988004D01*
X28696271Y30988004D01*
X28696271Y30987997D01*
X28717079Y30843273D01*
X28717081Y30843266D01*
X28777824Y30710257D01*
X28873579Y30599750D01*
X28996589Y30520696D01*
X29116039Y30485622D01*
X29136885Y30479501D01*
X29136886Y30479501D01*
X29136889Y30479500D01*
X29136892Y30479500D01*
X29283108Y30479500D01*
X29283111Y30479500D01*
X29423411Y30520696D01*
X29546421Y30599750D01*
X29642176Y30710257D01*
X29702919Y30843266D01*
X29723729Y30988000D01*
X29723729Y30988004D01*
X29702920Y31132728D01*
X29702919Y31132729D01*
X29702919Y31132734D01*
X29642176Y31265743D01*
X29546421Y31376250D01*
X29546420Y31376251D01*
X29484916Y31415777D01*
X29423411Y31455304D01*
X29388336Y31465603D01*
X29283114Y31496500D01*
X29283111Y31496500D01*
X29136889Y31496500D01*
X29136885Y31496500D01*
X28996589Y31455304D01*
X28996587Y31455303D01*
X28873579Y31376251D01*
X28777824Y31265744D01*
X28717081Y31132735D01*
X28717079Y31132728D01*
X28696271Y30988004D01*
X7803479Y30988004D01*
X7782818Y31184576D01*
X7782818Y31184577D01*
X7721740Y31372556D01*
X7721738Y31372561D01*
X7622908Y31543741D01*
X7619031Y31549077D01*
X7620688Y31550282D01*
X7594163Y31605568D01*
X7602935Y31676020D01*
X7648403Y31730547D01*
X7685145Y31744641D01*
X7684464Y31746961D01*
X7693111Y31749500D01*
X7833411Y31790696D01*
X7956421Y31869750D01*
X8052176Y31980257D01*
X8112919Y32113266D01*
X8133729Y32258000D01*
X8133729Y32258004D01*
X28696271Y32258004D01*
X28696271Y32257997D01*
X28717079Y32113273D01*
X28717081Y32113266D01*
X28777824Y31980257D01*
X28873579Y31869750D01*
X28996589Y31790696D01*
X29116039Y31755622D01*
X29136885Y31749501D01*
X29136886Y31749501D01*
X29136889Y31749500D01*
X29136892Y31749500D01*
X29283108Y31749500D01*
X29283111Y31749500D01*
X29423411Y31790696D01*
X29546421Y31869750D01*
X29642176Y31980257D01*
X29702919Y32113266D01*
X29723729Y32258000D01*
X29723729Y32258004D01*
X29702920Y32402728D01*
X29702919Y32402729D01*
X29702919Y32402734D01*
X29642176Y32535743D01*
X29546421Y32646250D01*
X29546420Y32646251D01*
X29484916Y32685777D01*
X29423411Y32725304D01*
X29388336Y32735603D01*
X29283114Y32766500D01*
X29283111Y32766500D01*
X29136889Y32766500D01*
X29136885Y32766500D01*
X28996589Y32725304D01*
X28996587Y32725303D01*
X28873579Y32646251D01*
X28777824Y32535744D01*
X28717081Y32402735D01*
X28717079Y32402728D01*
X28696271Y32258004D01*
X8133729Y32258004D01*
X8112920Y32402728D01*
X8112919Y32402729D01*
X8112919Y32402734D01*
X8052176Y32535743D01*
X7956421Y32646250D01*
X7956420Y32646251D01*
X7894916Y32685777D01*
X7833411Y32725304D01*
X7798336Y32735603D01*
X7693114Y32766500D01*
X7693111Y32766500D01*
X7546889Y32766500D01*
X7546885Y32766500D01*
X7406589Y32725304D01*
X7406587Y32725303D01*
X7283579Y32646251D01*
X7187824Y32535744D01*
X7127081Y32402735D01*
X7127079Y32402728D01*
X7106271Y32258004D01*
X7106271Y32257997D01*
X7127079Y32113273D01*
X7127082Y32113263D01*
X7134989Y32095949D01*
X7145092Y32025675D01*
X7115598Y31961094D01*
X7055872Y31922711D01*
X6994180Y31920361D01*
X6979975Y31923381D01*
X6956829Y31928300D01*
X6759171Y31928300D01*
X6604499Y31895424D01*
X6565830Y31887204D01*
X6385256Y31806807D01*
X6225348Y31690627D01*
X6093091Y31543740D01*
X5994261Y31372561D01*
X5994259Y31372556D01*
X5933181Y31184577D01*
X5912521Y30988000D01*
X5263479Y30988000D01*
X5242818Y31184576D01*
X5242818Y31184577D01*
X5181740Y31372556D01*
X5181738Y31372561D01*
X5133967Y31455303D01*
X5082909Y31543739D01*
X5027238Y31605568D01*
X4950651Y31690627D01*
X4790740Y31806809D01*
X4610169Y31887204D01*
X4416829Y31928300D01*
X4219171Y31928300D01*
X4064499Y31895424D01*
X4025830Y31887204D01*
X3845256Y31806807D01*
X3685348Y31690627D01*
X3553091Y31543740D01*
X3454261Y31372561D01*
X3454259Y31372556D01*
X3393181Y31184577D01*
X3372521Y30988000D01*
X2286000Y30988000D01*
X2286000Y31054880D01*
X2269891Y31115000D01*
X2717799Y31115000D01*
X2717799Y31698814D01*
X2717798Y31698823D01*
X2703062Y31772906D01*
X2703062Y31772908D01*
X2646924Y31856925D01*
X2562906Y31913063D01*
X2562905Y31913064D01*
X2488822Y31927800D01*
X1905000Y31927800D01*
X1905000Y31479892D01*
X1844880Y31496000D01*
X1711120Y31496000D01*
X1651000Y31479892D01*
X1651000Y31927800D01*
X1067186Y31927800D01*
X1067176Y31927799D01*
X993094Y31913063D01*
X993092Y31913063D01*
X909075Y31856925D01*
X852937Y31772907D01*
X852936Y31772906D01*
X838200Y31698823D01*
X76700Y31698823D01*
X76700Y33274004D01*
X5836271Y33274004D01*
X5836271Y33273997D01*
X5857079Y33129273D01*
X5857081Y33129266D01*
X5917824Y32996257D01*
X6013579Y32885750D01*
X6136589Y32806696D01*
X6256039Y32771622D01*
X6276885Y32765501D01*
X6276886Y32765501D01*
X6276889Y32765500D01*
X6276892Y32765500D01*
X6423108Y32765500D01*
X6423111Y32765500D01*
X6563411Y32806696D01*
X6686421Y32885750D01*
X6782176Y32996257D01*
X6842919Y33129266D01*
X6844426Y33139750D01*
X6863729Y33273997D01*
X6863729Y33274004D01*
X6842920Y33418728D01*
X6842919Y33418729D01*
X6842919Y33418734D01*
X6782176Y33551743D01*
X6686421Y33662250D01*
X6686420Y33662251D01*
X6624916Y33701777D01*
X6563411Y33741304D01*
X6528336Y33751603D01*
X6423114Y33782500D01*
X6423111Y33782500D01*
X6276889Y33782500D01*
X6276885Y33782500D01*
X6136589Y33741304D01*
X6136587Y33741303D01*
X6013579Y33662251D01*
X5917824Y33551744D01*
X5857081Y33418735D01*
X5857079Y33418728D01*
X5836271Y33274004D01*
X76700Y33274004D01*
X76700Y34798004D01*
X5836271Y34798004D01*
X5836271Y34797997D01*
X5857079Y34653273D01*
X5857081Y34653266D01*
X5917824Y34520257D01*
X6013579Y34409750D01*
X6136589Y34330696D01*
X6256039Y34295622D01*
X6276885Y34289501D01*
X6276886Y34289501D01*
X6276889Y34289500D01*
X6276892Y34289500D01*
X6423108Y34289500D01*
X6423111Y34289500D01*
X6563411Y34330696D01*
X6686421Y34409750D01*
X6782176Y34520257D01*
X6842919Y34653266D01*
X6863729Y34798000D01*
X6863729Y34798004D01*
X7614271Y34798004D01*
X7614271Y34797997D01*
X7635079Y34653273D01*
X7635081Y34653266D01*
X7695824Y34520257D01*
X7791579Y34409750D01*
X7914589Y34330696D01*
X8034039Y34295622D01*
X8054885Y34289501D01*
X8054886Y34289501D01*
X8054889Y34289500D01*
X8054892Y34289500D01*
X8201108Y34289500D01*
X8201111Y34289500D01*
X8341411Y34330696D01*
X8464421Y34409750D01*
X8464426Y34409756D01*
X8467516Y34412433D01*
X8471249Y34414139D01*
X8472002Y34414622D01*
X8472071Y34414514D01*
X8532095Y34441930D01*
X8602369Y34431831D01*
X8656028Y34385342D01*
X8664649Y34369556D01*
X8711824Y34266257D01*
X8807580Y34155749D01*
X8828978Y34141997D01*
X8875470Y34088341D01*
X8885573Y34018067D01*
X8856080Y33953487D01*
X8828978Y33930003D01*
X8807580Y33916252D01*
X8807579Y33916252D01*
X8711824Y33805744D01*
X8651081Y33672735D01*
X8651079Y33672728D01*
X8630271Y33528004D01*
X8630271Y33527997D01*
X8651079Y33383273D01*
X8651081Y33383266D01*
X8711824Y33250257D01*
X8807579Y33139750D01*
X8930589Y33060696D01*
X9050039Y33025622D01*
X9070885Y33019501D01*
X9070886Y33019501D01*
X9070889Y33019500D01*
X9070892Y33019500D01*
X9217108Y33019500D01*
X9217111Y33019500D01*
X9357411Y33060696D01*
X9480421Y33139750D01*
X9576176Y33250257D01*
X9636919Y33383266D01*
X9657729Y33528000D01*
X9657729Y33528004D01*
X9636920Y33672728D01*
X9636919Y33672729D01*
X9636919Y33672734D01*
X9576176Y33805743D01*
X9480421Y33916250D01*
X9480420Y33916251D01*
X9480419Y33916252D01*
X9459023Y33930002D01*
X9412530Y33983657D01*
X9402425Y34053931D01*
X9431918Y34118512D01*
X9459023Y34141998D01*
X9480419Y34155749D01*
X9480420Y34155749D01*
X9480421Y34155750D01*
X9576176Y34266257D01*
X9636919Y34399266D01*
X9643053Y34441930D01*
X9657729Y34543997D01*
X9657729Y34544004D01*
X9636920Y34688728D01*
X9636919Y34688729D01*
X9636919Y34688734D01*
X9587017Y34798004D01*
X37078271Y34798004D01*
X37078271Y34797997D01*
X37099079Y34653273D01*
X37099081Y34653266D01*
X37159824Y34520257D01*
X37255579Y34409750D01*
X37378589Y34330696D01*
X37498039Y34295622D01*
X37518885Y34289501D01*
X37518886Y34289501D01*
X37518889Y34289500D01*
X37518892Y34289500D01*
X37665108Y34289500D01*
X37665111Y34289500D01*
X37805411Y34330696D01*
X37928421Y34409750D01*
X38024176Y34520257D01*
X38084919Y34653266D01*
X38105729Y34798000D01*
X38105729Y34798004D01*
X39618271Y34798004D01*
X39618271Y34797997D01*
X39639079Y34653273D01*
X39639081Y34653266D01*
X39699824Y34520257D01*
X39795579Y34409750D01*
X39918589Y34330696D01*
X40038039Y34295622D01*
X40058885Y34289501D01*
X40058886Y34289501D01*
X40058889Y34289500D01*
X40058892Y34289500D01*
X40205108Y34289500D01*
X40205111Y34289500D01*
X40345411Y34330696D01*
X40468421Y34409750D01*
X40564176Y34520257D01*
X40624919Y34653266D01*
X40645729Y34798000D01*
X40645729Y34798004D01*
X42158271Y34798004D01*
X42158271Y34797997D01*
X42179079Y34653273D01*
X42179081Y34653266D01*
X42239824Y34520257D01*
X42335579Y34409750D01*
X42458589Y34330696D01*
X42578039Y34295622D01*
X42598885Y34289501D01*
X42598886Y34289501D01*
X42598889Y34289500D01*
X42598892Y34289500D01*
X42745108Y34289500D01*
X42745111Y34289500D01*
X42885411Y34330696D01*
X43008421Y34409750D01*
X43104176Y34520257D01*
X43164919Y34653266D01*
X43185729Y34798000D01*
X43185729Y34798004D01*
X43164920Y34942728D01*
X43164919Y34942729D01*
X43164919Y34942734D01*
X43104176Y35075743D01*
X43008421Y35186250D01*
X43008420Y35186251D01*
X42946916Y35225777D01*
X42885411Y35265304D01*
X42850336Y35275603D01*
X42745114Y35306500D01*
X42745111Y35306500D01*
X42598889Y35306500D01*
X42598885Y35306500D01*
X42458589Y35265304D01*
X42458587Y35265303D01*
X42335579Y35186251D01*
X42239824Y35075744D01*
X42179081Y34942735D01*
X42179079Y34942728D01*
X42158271Y34798004D01*
X40645729Y34798004D01*
X40624920Y34942728D01*
X40624919Y34942729D01*
X40624919Y34942734D01*
X40564176Y35075743D01*
X40468421Y35186250D01*
X40468420Y35186251D01*
X40406916Y35225777D01*
X40345411Y35265304D01*
X40310336Y35275603D01*
X40205114Y35306500D01*
X40205111Y35306500D01*
X40058889Y35306500D01*
X40058885Y35306500D01*
X39918589Y35265304D01*
X39918587Y35265303D01*
X39795579Y35186251D01*
X39699824Y35075744D01*
X39639081Y34942735D01*
X39639079Y34942728D01*
X39618271Y34798004D01*
X38105729Y34798004D01*
X38084920Y34942728D01*
X38084919Y34942729D01*
X38084919Y34942734D01*
X38024176Y35075743D01*
X37928421Y35186250D01*
X37928420Y35186251D01*
X37866916Y35225777D01*
X37805411Y35265304D01*
X37770336Y35275603D01*
X37665114Y35306500D01*
X37665111Y35306500D01*
X37518889Y35306500D01*
X37518885Y35306500D01*
X37378589Y35265304D01*
X37378587Y35265303D01*
X37255579Y35186251D01*
X37159824Y35075744D01*
X37099081Y34942735D01*
X37099079Y34942728D01*
X37078271Y34798004D01*
X9587017Y34798004D01*
X9576176Y34821743D01*
X9480421Y34932250D01*
X9480420Y34932251D01*
X9417877Y34972445D01*
X9357411Y35011304D01*
X9322336Y35021603D01*
X9217114Y35052500D01*
X9217111Y35052500D01*
X9070889Y35052500D01*
X9070885Y35052500D01*
X8930589Y35011304D01*
X8930587Y35011303D01*
X8807578Y34932250D01*
X8804473Y34929559D01*
X8800737Y34927854D01*
X8799998Y34927378D01*
X8799929Y34927485D01*
X8739891Y34900069D01*
X8669617Y34910175D01*
X8615963Y34956670D01*
X8607350Y34972445D01*
X8560176Y35075743D01*
X8464421Y35186250D01*
X8464420Y35186251D01*
X8402916Y35225777D01*
X8341411Y35265304D01*
X8306336Y35275603D01*
X8201114Y35306500D01*
X8201111Y35306500D01*
X8054889Y35306500D01*
X8054885Y35306500D01*
X7914589Y35265304D01*
X7914587Y35265303D01*
X7791579Y35186251D01*
X7695824Y35075744D01*
X7635081Y34942735D01*
X7635079Y34942728D01*
X7614271Y34798004D01*
X6863729Y34798004D01*
X6842920Y34942728D01*
X6842919Y34942729D01*
X6842919Y34942734D01*
X6782176Y35075743D01*
X6686421Y35186250D01*
X6686420Y35186251D01*
X6624916Y35225777D01*
X6563411Y35265304D01*
X6528336Y35275603D01*
X6423114Y35306500D01*
X6423111Y35306500D01*
X6276889Y35306500D01*
X6276885Y35306500D01*
X6136589Y35265304D01*
X6136587Y35265303D01*
X6013579Y35186251D01*
X5917824Y35075744D01*
X5857081Y34942735D01*
X5857079Y34942728D01*
X5836271Y34798004D01*
X76700Y34798004D01*
X76700Y36322004D01*
X5836271Y36322004D01*
X5836271Y36321997D01*
X5857079Y36177273D01*
X5857081Y36177266D01*
X5917824Y36044257D01*
X6013579Y35933750D01*
X6136589Y35854696D01*
X6256039Y35819622D01*
X6276885Y35813501D01*
X6276886Y35813501D01*
X6276889Y35813500D01*
X6276892Y35813500D01*
X6423108Y35813500D01*
X6423111Y35813500D01*
X6424827Y35814004D01*
X8630271Y35814004D01*
X8630271Y35813997D01*
X8651079Y35669273D01*
X8651081Y35669266D01*
X8711824Y35536257D01*
X8807579Y35425750D01*
X8930589Y35346696D01*
X9050039Y35311622D01*
X9070885Y35305501D01*
X9070886Y35305501D01*
X9070889Y35305500D01*
X9070892Y35305500D01*
X9217108Y35305500D01*
X9217111Y35305500D01*
X9357411Y35346696D01*
X9480421Y35425750D01*
X9576176Y35536257D01*
X9636919Y35669266D01*
X9638426Y35679750D01*
X9657729Y35813997D01*
X9657729Y35814004D01*
X28442271Y35814004D01*
X28442271Y35813997D01*
X28463079Y35669273D01*
X28463081Y35669266D01*
X28523824Y35536257D01*
X28619579Y35425750D01*
X28742589Y35346696D01*
X28862039Y35311622D01*
X28882885Y35305501D01*
X28882886Y35305501D01*
X28882889Y35305500D01*
X28882892Y35305500D01*
X29029108Y35305500D01*
X29029111Y35305500D01*
X29169411Y35346696D01*
X29292421Y35425750D01*
X29388176Y35536257D01*
X29448919Y35669266D01*
X29450426Y35679750D01*
X29469729Y35813997D01*
X29469729Y35814004D01*
X29448920Y35958728D01*
X29448919Y35958729D01*
X29448919Y35958734D01*
X29399017Y36068004D01*
X29712271Y36068004D01*
X29712271Y36067997D01*
X29733079Y35923273D01*
X29733081Y35923266D01*
X29793824Y35790257D01*
X29889579Y35679750D01*
X30012589Y35600696D01*
X30132039Y35565622D01*
X30152885Y35559501D01*
X30152886Y35559501D01*
X30152889Y35559500D01*
X30152892Y35559500D01*
X30299108Y35559500D01*
X30299111Y35559500D01*
X30439411Y35600696D01*
X30562421Y35679750D01*
X30658176Y35790257D01*
X30718919Y35923266D01*
X30724019Y35958735D01*
X30739729Y36067997D01*
X30739729Y36068004D01*
X30718920Y36212728D01*
X30718919Y36212729D01*
X30718919Y36212734D01*
X30658176Y36345743D01*
X30562421Y36456250D01*
X30562420Y36456251D01*
X30500916Y36495777D01*
X30439411Y36535304D01*
X30381675Y36552257D01*
X30299114Y36576500D01*
X30299111Y36576500D01*
X30152889Y36576500D01*
X30152885Y36576500D01*
X30012589Y36535304D01*
X30012587Y36535303D01*
X29889579Y36456251D01*
X29793824Y36345744D01*
X29733081Y36212735D01*
X29733079Y36212728D01*
X29712271Y36068004D01*
X29399017Y36068004D01*
X29388176Y36091743D01*
X29292421Y36202250D01*
X29292420Y36202251D01*
X29230916Y36241777D01*
X29169411Y36281304D01*
X29134336Y36291603D01*
X29029114Y36322500D01*
X29029111Y36322500D01*
X28882889Y36322500D01*
X28882885Y36322500D01*
X28742589Y36281304D01*
X28742587Y36281303D01*
X28619579Y36202251D01*
X28523824Y36091744D01*
X28463081Y35958735D01*
X28463079Y35958728D01*
X28442271Y35814004D01*
X9657729Y35814004D01*
X9636920Y35958728D01*
X9636919Y35958729D01*
X9636919Y35958734D01*
X9576176Y36091743D01*
X9480421Y36202250D01*
X9480420Y36202251D01*
X9418916Y36241777D01*
X9357411Y36281304D01*
X9322336Y36291603D01*
X9217114Y36322500D01*
X9217111Y36322500D01*
X9070889Y36322500D01*
X9070885Y36322500D01*
X8930589Y36281304D01*
X8930587Y36281303D01*
X8807579Y36202251D01*
X8711824Y36091744D01*
X8651081Y35958735D01*
X8651079Y35958728D01*
X8630271Y35814004D01*
X6424827Y35814004D01*
X6563411Y35854696D01*
X6686421Y35933750D01*
X6782176Y36044257D01*
X6842919Y36177266D01*
X6857878Y36281304D01*
X6863729Y36321997D01*
X6863729Y36322004D01*
X6842920Y36466728D01*
X6842919Y36466729D01*
X6842919Y36466734D01*
X6782176Y36599743D01*
X6686421Y36710250D01*
X6686420Y36710251D01*
X6624916Y36749777D01*
X6563411Y36789304D01*
X6505675Y36806257D01*
X6423114Y36830500D01*
X6423111Y36830500D01*
X6276889Y36830500D01*
X6276885Y36830500D01*
X6136589Y36789304D01*
X6136587Y36789303D01*
X6013579Y36710251D01*
X5917824Y36599744D01*
X5857081Y36466735D01*
X5857079Y36466728D01*
X5836271Y36322004D01*
X76700Y36322004D01*
X76700Y37084004D01*
X8630271Y37084004D01*
X8630271Y37083997D01*
X8651079Y36939273D01*
X8651081Y36939266D01*
X8711824Y36806257D01*
X8807579Y36695750D01*
X8930589Y36616696D01*
X9050039Y36581622D01*
X9070885Y36575501D01*
X9070886Y36575501D01*
X9070889Y36575500D01*
X9070892Y36575500D01*
X9217108Y36575500D01*
X9217111Y36575500D01*
X9357411Y36616696D01*
X9480421Y36695750D01*
X9576176Y36806257D01*
X9636919Y36939266D01*
X9657729Y37084000D01*
X9657729Y37084004D01*
X28442271Y37084004D01*
X28442271Y37083997D01*
X28463079Y36939273D01*
X28463081Y36939266D01*
X28523824Y36806257D01*
X28619579Y36695750D01*
X28742589Y36616696D01*
X28862039Y36581622D01*
X28882885Y36575501D01*
X28882886Y36575501D01*
X28882889Y36575500D01*
X28882892Y36575500D01*
X29029108Y36575500D01*
X29029111Y36575500D01*
X29169411Y36616696D01*
X29292421Y36695750D01*
X29388176Y36806257D01*
X29399021Y36830004D01*
X33522271Y36830004D01*
X33522271Y36829997D01*
X33543079Y36685273D01*
X33543081Y36685266D01*
X33603824Y36552257D01*
X33699579Y36441750D01*
X33822589Y36362696D01*
X33942039Y36327622D01*
X33962885Y36321501D01*
X33962886Y36321501D01*
X33962889Y36321500D01*
X33962892Y36321500D01*
X34109108Y36321500D01*
X34109111Y36321500D01*
X34249411Y36362696D01*
X34372421Y36441750D01*
X34468176Y36552257D01*
X34528919Y36685266D01*
X34543878Y36789304D01*
X34549729Y36829997D01*
X34549729Y36830004D01*
X42158271Y36830004D01*
X42158271Y36829997D01*
X42179079Y36685273D01*
X42179081Y36685266D01*
X42239824Y36552257D01*
X42335579Y36441750D01*
X42458589Y36362696D01*
X42578039Y36327622D01*
X42598885Y36321501D01*
X42598886Y36321501D01*
X42598889Y36321500D01*
X42598892Y36321500D01*
X42745108Y36321500D01*
X42745111Y36321500D01*
X42885411Y36362696D01*
X43008421Y36441750D01*
X43104176Y36552257D01*
X43164919Y36685266D01*
X43179878Y36789304D01*
X43185729Y36829997D01*
X43185729Y36830004D01*
X43164920Y36974728D01*
X43164919Y36974729D01*
X43164919Y36974734D01*
X43104176Y37107743D01*
X43008421Y37218250D01*
X43008420Y37218251D01*
X42946916Y37257777D01*
X42885411Y37297304D01*
X42850336Y37307603D01*
X42745114Y37338500D01*
X42745111Y37338500D01*
X42598889Y37338500D01*
X42598885Y37338500D01*
X42458589Y37297304D01*
X42458587Y37297303D01*
X42335579Y37218251D01*
X42239824Y37107744D01*
X42179081Y36974735D01*
X42179079Y36974728D01*
X42158271Y36830004D01*
X34549729Y36830004D01*
X34528920Y36974728D01*
X34528919Y36974729D01*
X34528919Y36974734D01*
X34468176Y37107743D01*
X34372421Y37218250D01*
X34372420Y37218251D01*
X34310916Y37257777D01*
X34249411Y37297304D01*
X34214336Y37307603D01*
X34109114Y37338500D01*
X34109111Y37338500D01*
X33962889Y37338500D01*
X33962885Y37338500D01*
X33822589Y37297304D01*
X33822587Y37297303D01*
X33699579Y37218251D01*
X33603824Y37107744D01*
X33543081Y36974735D01*
X33543079Y36974728D01*
X33522271Y36830004D01*
X29399021Y36830004D01*
X29448919Y36939266D01*
X29469729Y37084000D01*
X29469729Y37084004D01*
X29448920Y37228728D01*
X29448919Y37228729D01*
X29448919Y37228734D01*
X29388176Y37361743D01*
X29292421Y37472250D01*
X29292420Y37472251D01*
X29230916Y37511777D01*
X29169411Y37551304D01*
X29111675Y37568257D01*
X29029114Y37592500D01*
X29029111Y37592500D01*
X28882889Y37592500D01*
X28882885Y37592500D01*
X28742589Y37551304D01*
X28742587Y37551303D01*
X28619579Y37472251D01*
X28523824Y37361744D01*
X28463081Y37228735D01*
X28463079Y37228728D01*
X28442271Y37084004D01*
X9657729Y37084004D01*
X9636920Y37228728D01*
X9636919Y37228729D01*
X9636919Y37228734D01*
X9576176Y37361743D01*
X9480421Y37472250D01*
X9480420Y37472251D01*
X9418916Y37511777D01*
X9357411Y37551304D01*
X9299675Y37568257D01*
X9217114Y37592500D01*
X9217111Y37592500D01*
X9070889Y37592500D01*
X9070885Y37592500D01*
X8930589Y37551304D01*
X8930587Y37551303D01*
X8807579Y37472251D01*
X8711824Y37361744D01*
X8651081Y37228735D01*
X8651079Y37228728D01*
X8630271Y37084004D01*
X76700Y37084004D01*
X76700Y37846004D01*
X5836271Y37846004D01*
X5836271Y37845997D01*
X5857079Y37701273D01*
X5857081Y37701266D01*
X5917824Y37568257D01*
X6013579Y37457750D01*
X6136589Y37378696D01*
X6256039Y37343622D01*
X6276885Y37337501D01*
X6276886Y37337501D01*
X6276889Y37337500D01*
X6276892Y37337500D01*
X6423108Y37337500D01*
X6423111Y37337500D01*
X6563411Y37378696D01*
X6686421Y37457750D01*
X6782176Y37568257D01*
X6842919Y37701266D01*
X6843227Y37703411D01*
X6863729Y37845997D01*
X6863729Y37846004D01*
X6842920Y37990728D01*
X6842919Y37990729D01*
X6842919Y37990734D01*
X6782176Y38123743D01*
X6686421Y38234250D01*
X6686420Y38234251D01*
X6624916Y38273777D01*
X6563411Y38313304D01*
X6528336Y38323603D01*
X6424803Y38354004D01*
X8630271Y38354004D01*
X8630271Y38353997D01*
X8651079Y38209273D01*
X8651081Y38209266D01*
X8711824Y38076257D01*
X8807579Y37965750D01*
X8930589Y37886696D01*
X9050039Y37851622D01*
X9070885Y37845501D01*
X9070886Y37845501D01*
X9070889Y37845500D01*
X9070892Y37845500D01*
X9217108Y37845500D01*
X9217111Y37845500D01*
X9357411Y37886696D01*
X9480421Y37965750D01*
X9576176Y38076257D01*
X9636919Y38209266D01*
X9657729Y38354000D01*
X9657729Y38354004D01*
X9636920Y38498728D01*
X9636919Y38498729D01*
X9636919Y38498734D01*
X9576176Y38631743D01*
X9480421Y38742250D01*
X9480420Y38742251D01*
X9418916Y38781777D01*
X9357411Y38821304D01*
X9322336Y38831603D01*
X9217114Y38862500D01*
X9217111Y38862500D01*
X9070889Y38862500D01*
X9070885Y38862500D01*
X8930589Y38821304D01*
X8930587Y38821303D01*
X8807579Y38742251D01*
X8711824Y38631744D01*
X8651081Y38498735D01*
X8651079Y38498728D01*
X8630271Y38354004D01*
X6424803Y38354004D01*
X6423114Y38354500D01*
X6423111Y38354500D01*
X6276889Y38354500D01*
X6276885Y38354500D01*
X6136589Y38313304D01*
X6136587Y38313303D01*
X6013579Y38234251D01*
X5917824Y38123744D01*
X5857081Y37990735D01*
X5857079Y37990728D01*
X5836271Y37846004D01*
X76700Y37846004D01*
X76700Y39370004D01*
X6090271Y39370004D01*
X6090271Y39369997D01*
X6111079Y39225273D01*
X6111081Y39225266D01*
X6171824Y39092257D01*
X6267579Y38981750D01*
X6390589Y38902696D01*
X6510039Y38867622D01*
X6530885Y38861501D01*
X6530886Y38861501D01*
X6530889Y38861500D01*
X6530892Y38861500D01*
X6677108Y38861500D01*
X6677111Y38861500D01*
X6817411Y38902696D01*
X6940421Y38981750D01*
X7036176Y39092257D01*
X7096919Y39225266D01*
X7097227Y39227411D01*
X7117729Y39369997D01*
X7117729Y39370004D01*
X7096920Y39514728D01*
X7096919Y39514729D01*
X7096919Y39514734D01*
X7036176Y39647743D01*
X6940421Y39758250D01*
X6940420Y39758251D01*
X6878916Y39797777D01*
X6817411Y39837304D01*
X6782336Y39847603D01*
X6678803Y39878004D01*
X28696271Y39878004D01*
X28696271Y39877997D01*
X28717079Y39733273D01*
X28717081Y39733266D01*
X28777824Y39600257D01*
X28873579Y39489750D01*
X28996589Y39410696D01*
X29116039Y39375622D01*
X29136885Y39369501D01*
X29136886Y39369501D01*
X29136889Y39369500D01*
X29136892Y39369500D01*
X29283108Y39369500D01*
X29283111Y39369500D01*
X29423411Y39410696D01*
X29546421Y39489750D01*
X29642176Y39600257D01*
X29702919Y39733266D01*
X29723729Y39878000D01*
X29723729Y39878004D01*
X29702920Y40022728D01*
X29702919Y40022729D01*
X29702919Y40022734D01*
X29642176Y40155743D01*
X29546421Y40266250D01*
X29546420Y40266251D01*
X29484916Y40305777D01*
X29423411Y40345304D01*
X29388336Y40355603D01*
X29283114Y40386500D01*
X29283111Y40386500D01*
X29136889Y40386500D01*
X29136885Y40386500D01*
X28996589Y40345304D01*
X28996587Y40345303D01*
X28873579Y40266251D01*
X28777824Y40155744D01*
X28717081Y40022735D01*
X28717079Y40022728D01*
X28696271Y39878004D01*
X6678803Y39878004D01*
X6677114Y39878500D01*
X6677111Y39878500D01*
X6530889Y39878500D01*
X6530885Y39878500D01*
X6390589Y39837304D01*
X6390587Y39837303D01*
X6267579Y39758251D01*
X6171824Y39647744D01*
X6111081Y39514735D01*
X6111079Y39514728D01*
X6090271Y39370004D01*
X76700Y39370004D01*
X76700Y41961300D01*
X96702Y42029421D01*
X150358Y42075914D01*
X202700Y42087300D01*
X48565300Y42087300D01*
X48633421Y42067298D01*
G37*
%TD.AperFunction*%
%TD*%
M02*
